<svg xmlns="http://www.w3.org/2000/svg" width="250" height="414" fill="none" viewBox="0 0 250 414">
  <path fill="#000" d="M94.04 208.15a1.86 1.86 0 1 0 0-3.72 1.86 1.86 0 0 0 0 3.72Z"/>
  <path fill="#000" d="M92.78 204.44a1.86 1.86 0 1 0 0-3.72 1.86 1.86 0 0 0 0 3.72Z"/>
  <path fill="#000" d="M91.34 200.73a1.86 1.86 0 1 0 0-3.72 1.86 1.86 0 0 0 0 3.72Zm4.02 11.14a1.86 1.86 0 1 0 0-3.72 1.86 1.86 0 0 0 0 3.72Zm2.39 3.71a1.86 1.86 0 1 0 0-3.72 1.86 1.86 0 0 0 0 3.72Zm1.86 3.71a1.86 1.86 0 1 0 0-3.72 1.86 1.86 0 0 0 0 3.72Zm1.861 3.71a1.86 1.86 0 1 0 0-3.72 1.86 1.86 0 0 0 0 3.72Zm2.559 3.71a1.86 1.86 0 1 0 0-3.72 1.86 1.86 0 0 0 0 3.72Zm2.721 2.99a1.86 1.86 0 1 0 0-3.72 1.86 1.86 0 0 0 0 3.72Z"/>
  <path fill="#000" d="M109.61 232.29a1.86 1.86 0 1 0 0-3.72 1.86 1.86 0 0 0 0 3.72Z"/>
  <path fill="#000" d="M113.321 234.14a1.86 1.86 0 1 0 0-3.72 1.86 1.86 0 0 0 0 3.72Zm4.25-.66a1.86 1.86 0 1 0 0-3.72 1.86 1.86 0 0 0 0 3.72Zm3.709-2.39a1.86 1.86 0 1 0 0-3.72 1.86 1.86 0 0 0 0 3.72Zm3.08-2.53a1.86 1.86 0 1 0 0-3.72 1.86 1.86 0 0 0 0 3.72Zm2.871-3.04a1.86 1.86 0 1 0 0-3.72 1.86 1.86 0 0 0 0 3.72Zm2.549-3.1a1.86 1.86 0 1 0 0-3.72 1.86 1.86 0 0 0 0 3.72Zm2.76-3.13a1.86 1.86 0 1 0 0-3.72 1.86 1.86 0 0 0 0 3.72Zm2.56-3.24a1.86 1.86 0 1 0 0-3.72 1.86 1.86 0 0 0 0 3.72Zm2.43-3.18a1.86 1.86 0 1 0 0-3.72 1.86 1.86 0 0 0 0 3.72Zm2.371-3.29a1.86 1.86 0 1 0 0-3.72 1.86 1.86 0 0 0 0 3.72Zm2.139-3.28a1.86 1.86 0 1 0 0-3.72 1.86 1.86 0 0 0 0 3.72Zm1.861-3.71a1.86 1.86 0 1 0 0-3.72 1.86 1.86 0 0 0 0 3.72Zm2.27-3.5a1.86 1.86 0 1 0 0-3.72 1.86 1.86 0 0 0 0 3.72Z"/>
  <path fill="#636263" d="m114.741 247.51 2.5-13.45c.12-.66-.16-1.33-.72-1.69l-3.89-2.57c-.38-.25-.84-.33-1.28-.24l-4.56 1.01c-.65.14-1.16.66-1.28 1.32l-2.5 13.45c-.16.9.43 1.77 1.34 1.94l8.45 1.57c.91.17 1.78-.43 1.94-1.34Zm-4.14-13.29a1.949 1.949 0 1 1 1.72-3.5c.97.47 1.36 1.64.89 2.61-.47.97-1.64 1.36-2.61.89Z"/>
  <path stroke="#000" stroke-linecap="round" stroke-miterlimit="10" stroke-width="2" d="M110.641 231.47c.77.45 1.3.54 2.08.71"/>
  <path fill="#232323" d="m116.521 232.38-2.99-1.98-.7.7a1.94 1.94 0 0 1-1.44 3.32c.62 1.61.98 3.38 1.29 5.05.38 2.03.63 4.08.88 6.13.12 1.02.25 2.03.4 3.04.4-.24.7-.63.79-1.13l2.49-13.45c.12-.66-.16-1.33-.72-1.69v.01Z"/>
  <path fill="#9B9B9B" stroke="#383436" stroke-miterlimit="10" stroke-width="1.5" d="m128.48 243.11-3.7-13.16c-.18-.64-.73-1.12-1.39-1.2l-4.63-.59c-.45-.05-.9.07-1.25.35l-3.65 2.92c-.52.42-.74 1.1-.56 1.75l3.7 13.16c.25.88 1.17 1.4 2.06 1.15l8.28-2.33c.89-.25 1.4-1.17 1.15-2.06l-.01.01Zm-9.6-10.09c-1.08 0-1.95-.87-1.95-1.95s.87-1.95 1.95-1.95 1.95.87 1.95 1.95-.87 1.95-1.95 1.95Z"/>
  <path fill="#C9C9C9" d="m115.889 242.44-.61-2.19 9.49-10.3.57 2.01-9.45 10.48Zm10.911-5.29-1.04-3.68-9.42 10.56.65 2.33c.19.68.79 1.14 1.45 1.2l8.35-10.4.01-.01Z"/>
  <path stroke="#232223" stroke-miterlimit="10" stroke-width="1.5" d="m128.48 243.11-3.7-13.16c-.18-.64-.73-1.12-1.39-1.2l-4.63-.59c-.45-.05-.9.07-1.25.35l-3.65 2.92c-.52.42-.74 1.1-.56 1.75l3.7 13.16c.25.88 1.17 1.4 2.06 1.15l8.28-2.33c.89-.25 1.4-1.17 1.15-2.06l-.01.01Zm-9.6-10.09c-1.08 0-1.95-.87-1.95-1.95s.87-1.95 1.95-1.95 1.95.87 1.95 1.95-.87 1.95-1.95 1.95Z"/>
  <path stroke="#000" stroke-linecap="round" stroke-miterlimit="10" d="M117.57 231.82c11.59-4.53 29.5-34 29.89-36.45m-56.12 4.12s7.87 22.71 17.05 30.1"/>
</svg>
