<svg xmlns="http://www.w3.org/2000/svg" width="250" height="414" fill="none" viewBox="0 0 250 414">
  <path fill="#262626" d="M123.94 192.27c-14.76 2.34-31.19-3.31-37.27-11.72-4.65 6.51-14.88 10.65-24.13 8.75-10.02-2.06-12.74-9.64-11.31-12.73 1.02-2.2 1.95-2.84 3.91-3.24.35-.07.62.31.44.63-.55.99-.36 2.51.26 3.76 3.02 4.53 7.14-1.18 11.17-4.31 7.53-6.59 13.45-5.62 16.84-3.95 1.13.55 2.73 1.37 3.43 2.33 1.02-1.03 2.36-1.9 3.95-2.5 5.05-1.92 13.85-3.03 25.06 4.54 6 3.61 15.12 10.69 19.61 5.49 1.43-2.47-.8-3.55-1.62-4.69-.26-.37.13-.8.65-.72 2.91.46 4.68 1.3 5.82 3.73 1.77 3.79-1.92 12.27-16.82 14.64l.01-.01Z"/>
  <path fill="#6B6B6B" d="M57.55 182.03c3.98.83 7.46-.56 10.53-3.02 2.87-2.3 5.6-5.06 9.24-6.08 3.58-1 6.95-.11 9.48 2.4 2.48-2.32 6.45-2.98 9.66-3.27 4.49-.41 8.68.96 12.52 3.22 4.35 2.56 8.14 5.75 13.19 6.83 3.81.82 10.12 2.92 12.42-1.69-4.79 2.83-12.83-3.33-18.28-6.61-11.21-7.58-20.01-6.46-25.06-4.54-1.59.6-2.92 1.47-3.95 2.5-.7-.96-2.31-1.77-3.43-2.33-3.39-1.67-9.31-2.64-16.84 3.95-4.03 3.13-8.15 8.83-11.17 4.31-.61-1.25-.81-2.76-.26-3.76.18-.32-.09-.7-.44-.63-1.84.38-2.78.96-3.73 2.86.62 3.05 2.88 5.16 6.12 5.85v.01Z"/>
</svg>
