<svg xmlns="http://www.w3.org/2000/svg" width="250" height="414" fill="none" viewBox="0 0 250 414">
  <path fill="#005C63" fill-rule="evenodd" d="m63.01 73.056 30.92.547-3.877 31.304-30.514-2.597 3.471-29.254Zm51.103 1.905 34.906 1.017-4.948 33.748-33.647-2.839 3.689-31.926Z" clip-rule="evenodd"/>
  <path fill="#515151" fill-rule="evenodd" d="m58.514 81.835-2.46 20.396c-.506 5.106 2.64 5.728 5.04 5.923l28.75 2.752c2.627.216 5.868-1.985 6.161-4.527l4.037-31.142c.292-2.514-2.427-4.631-5.058-4.698l-29.238-.388-4.317-.112c-1.526-.042-2.911 1.163-3.1 2.684l-.81 6.54.986 2.572m32.092 19.571c-.155 1.313-1.393 2.292-2.753 2.176l-26.486-1.655c-1.238-.104-1.376-1.134-1.225-2.372l2.405-22.668c.15-1.23.535-2.221 1.773-2.196l26.888.47c1.364.026 2.355 1.114 2.2 2.414l-2.802 23.831Z" clip-rule="evenodd"/>
  <path fill="#231D1F" fill-rule="evenodd" d="m202.958 135.215-47.522-49.762 2.447-11.884 41.783 49.062a16.358 16.358 0 0 1 3.551 7.103c.431 1.967.577 4.106-.259 5.486v-.005Z" clip-rule="evenodd"/>
  <path fill="#1A8B8E" fill-rule="evenodd" d="m127.469 72.09 13.092 3.234-18.547 32.951-12.958-3.339 18.413-32.847Zm17.397 3.651 4.525 1.621-18.551 32.952-4.392-1.726 18.418-32.847ZM74.12 70.96l11.867 3.16-17.53 30.424-11.742-3.255 17.405-30.33Zm15.778 3.597 4.09 1.56-17.53 30.424-3.97-1.659 17.41-30.325Z" clip-rule="evenodd"/>
  <path fill="#231D1F" fill-rule="evenodd" d="m93.403 70.497-29.113-.383-4.3-.113c-1.518-.042-2.898 1.159-3.087 2.676l-.811 6.528c-.172 1.384.803 2.56 2.188 2.618l.23.008-2.43 19.679c-.298 2.397 1.388 4.493 3.776 4.681l28.624 2.664c2.614.208 4.995-1.672 5.287-4.206l3.853-29.496c.293-2.505-1.607-4.593-4.225-4.66l.008.004Zm-4.392 30.8c-.154 1.309-1.388 2.285-2.74 2.172l-23.457-1.646c-1.234-.105-2.1-1.184-1.95-2.418l2.41-22.597c.15-1.226 1.263-2.188 2.497-2.168l23.855.467c1.355.025 2.343 1.113 2.188 2.41l-2.803 23.776v.004Z" clip-rule="evenodd"/>
  <path fill="#515151" fill-rule="evenodd" d="m158.581 83.953.883-7.524c.205-1.751-1.251-3.227-3.238-3.298l-5.525-.195-33.794-1.201c-4.07-.204-7.295 1.426-7.617 3.972l-3.539 31.589c-.322 2.576 3.681 5.452 6.454 5.71l33.418 2.664c3.053.279 6.291-1.488 6.671-5.678l2.64-21.65s3.321-.575 3.643-4.394l.004.005Zm-45.903-5.286c.167-1.342 1.493-2.38 2.957-2.3l31.916 1.491c1.548.088 1.744 1.226 1.577 2.601l-3.484 25.386c-.168 1.388-.628 2.497-2.18 2.384l-31.484-2.309c-1.464-.104-2.523-1.296-2.355-2.651l3.053-24.606v.004Z" clip-rule="evenodd"/>
  <path fill="#231D1F" fill-rule="evenodd" d="m109.248 76.1-3.3 29.637c-.322 2.576 1.639 4.86 4.392 5.106l33.22 2.559c3.037.271 5.777-1.721 6.099-4.456l2.652-22.417.297.016c1.803.096 3.417-1.117 3.606-2.71l.882-7.498c.205-1.742-1.238-3.214-3.216-3.285l-5.493-.196-33.592-1.192c-2.757-.096-5.233 1.888-5.551 4.435h.004Zm5.501 2.471c.167-1.338 1.484-2.376 2.94-2.296l27.57 1.483c1.539.084 2.652 1.26 2.484 2.635l-3.484 25.339c-.167 1.389-1.544 2.418-3.087 2.306l-27.143-2.297c-1.456-.104-2.505-1.292-2.338-2.643l3.053-24.535.005.008Z" clip-rule="evenodd"/>
  <path fill="#fff" fill-rule="evenodd" d="M151.91 79.897c-.051.42.694.8 1.669.842.974.042 1.807-.263 1.857-.688.05-.425-.703-.8-1.678-.842-.974-.042-1.798.267-1.848.688Z" clip-rule="evenodd"/>
  <path fill="#231D1F" fill-rule="evenodd" d="M108.42 84.59s-5.513-2.563-11.123-.246c-.384 3.277-.585 5.87-.585 5.87s7.847-1.26 11.072.812c.364-3.163.636-6.44.636-6.44v.004Z" clip-rule="evenodd"/>
  <path fill="#717072" fill-rule="evenodd" d="M60.538 80.797c-.452-.721-2.054-.483-2.054-.483s.582-4.244.778-7.207c.197-2.964 5.032-2.99 5.032-2.99l-4.3-.112c-1.518-.041-2.898 1.159-3.087 2.676l-.811 6.528c-.172 1.384.803 2.56 2.188 2.618l.23.008-2.43 19.679c-.206 1.651.53 3.16 1.79 3.998l2.664-24.719v.004Z" clip-rule="evenodd"/>
  <path fill="#fff" fill-rule="evenodd" d="M60.149 76.091c-.046.371-.694.65-1.443.625-.749-.025-1.318-.35-1.272-.717.046-.367.69-.65 1.44-.625.748.025 1.321.346 1.275.717Z" clip-rule="evenodd"/>
  <path fill="#515151" fill-rule="evenodd" d="M203.594 132.206c0 .725-.105 2.48-.636 3.009l-46.832-49.04.996-4.023 46.472 50.054Z" clip-rule="evenodd"/>
  <path fill="#717072" fill-rule="evenodd" d="m107.876 102.915 2.882-24.527c.23-1.976.77-3.48 1.987-5.056l2.058-1.668c-2.756-.096-5.233 1.888-5.551 4.435l-3.3 29.638c-.322 2.576 1.64 4.86 4.392 5.106l-.096-.121a10.741 10.741 0 0 1-2.376-7.749c0-.021 0-.042.004-.063v.005Z" clip-rule="evenodd"/>
</svg>
