<svg xmlns="http://www.w3.org/2000/svg" width="250" height="414" fill="none" viewBox="0 0 250 414">
  <path fill="#001C26" fill-rule="evenodd" d="m46.04 146.15-.88 23.59c-.09 5.88 3.59 6.44 6.36 6.55l31.66 1.7c2.76.11 5.95-2.42 6.06-5.18l1.79-34.03c.11-2.76-2.88-5.13-5.64-5.24l-32.11-.88-4.98-.2a3.227 3.227 0 0 0-3.35 3.09l-.31 7.62 1.4 2.99m37.17 21.43a2.588 2.588 0 0 1-2.73 2.48l-25.92-.98c-1.41-.07-1.67-1.24-1.61-2.66l.63-26.01c.06-1.41.4-2.56 1.82-2.52l26.36.71c1.45.04 2.58 1.25 2.52 2.69l-1.06 26.27-.01.02Z" clip-rule="evenodd"/>
  <path fill="#03405B" fill-rule="evenodd" d="m83.71 133.46-32.11-.88-4.98-.2a3.227 3.227 0 0 0-3.35 3.09l-.31 7.62a2.915 2.915 0 0 0 2.81 3.04h.27l-.92 22.78a5.006 5.006 0 0 0 4.8 5.2l31.66 1.7a5.02 5.02 0 0 0 5.21-4.8l1.73-32.35c.11-2.76-2.04-5.1-4.8-5.21l-.01.01Zm-2.18 34.06A2.588 2.588 0 0 1 78.8 170l-25.92-.98a2.585 2.585 0 0 1-2.45-2.69l.63-26.01a2.606 2.606 0 0 1 2.66-2.49l26.36.71c1.45.04 2.58 1.25 2.52 2.69l-1.06 26.27-.01.02Z" clip-rule="evenodd"/>
  <path fill="#001C26" fill-rule="evenodd" d="m147.58 147.97.38-7.62a3.22 3.22 0 0 0-3.05-3.38l-4.98-.25-32.08-1.61c-4.07-.27-7.2 1.47-7.33 4.23l-1.28 34.06c-.14 2.76 4.07 5.64 6.83 5.77l31.69 1.16c2.76.14 5.55-1.78 5.66-6l1.17-21.9s2.92-.62 3-4.48l-.01.02Zm-39.3-5.41a2.58 2.58 0 0 1 2.75-2.45l26.31 1.67c1.41.09 1.65 1.26 1.58 2.68l-1.72 25.96c-.07 1.41-.43 2.55-1.84 2.5l-25.91-1.36c-1.44-.06-2.57-1.28-2.49-2.72l1.31-26.26.01-.02Z" clip-rule="evenodd"/>
  <path fill="#03405B" fill-rule="evenodd" d="m100.501 139.77-1.18 31.96a5.008 5.008 0 0 0 4.75 5.25l31.69 1.16c2.76.14 5.11-1.99 5.25-4.75l1.14-22.76h.27c1.62.09 2.99-1.15 3.07-2.77l.38-7.62a3.22 3.22 0 0 0-3.05-3.38l-4.98-.25-32.08-1.61a5.008 5.008 0 0 0-5.25 4.75l-.01.02Zm5.69 2.68a2.58 2.58 0 0 1 2.75-2.45l26.31 1.67c1.41.09 2.49 1.3 2.42 2.72l-1.72 25.96a2.598 2.598 0 0 1-2.68 2.46l-25.91-1.36c-1.44-.06-2.57-1.28-2.49-2.72l1.31-26.26.01-.02Z" clip-rule="evenodd"/>
  <path fill="#D8D1DC" d="M144.574 144.01c.022-.431-.672-.815-1.549-.859-.877-.044-1.605.27-1.627.7-.021.43.672.814 1.549.858.877.044 1.606-.269 1.627-.699Z"/>
  <path fill="#03405B" fill-rule="evenodd" d="M100.279 148.96s-7.47-2.79-13.09-.23c-.15 3.59-.16 6.43-.16 6.43s9.65-1.44 13.06.74c.14-3.41.18-6.95.18-6.95l.01.01Z" clip-rule="evenodd"/>
  <path fill="#69B6D1" fill-rule="evenodd" d="M48.28 144.94c-.59-.83-2.43-.56-2.43-.56s.27-4.93.21-8.39c-.06-3.45 5.53-3.41 5.53-3.41l-4.98-.2a3.227 3.227 0 0 0-3.35 3.09l-.31 7.62a2.915 2.915 0 0 0 2.81 3.04h.27l-.92 22.78c-.08 1.9.92 3.6 2.45 4.51l.71-28.49.01.01Z" clip-rule="evenodd"/>
  <path fill="#D8D1DC" d="M47.38 139.48c.018-.43-.68-.808-1.556-.843-.878-.035-1.603.285-1.62.715-.018.431.68.808 1.557.844.877.035 1.602-.285 1.62-.716Z"/>
  <path fill="#7F8080" fill-rule="evenodd" d="m118.971 135.67-2.23 4.82 3.77.24 2.24-4.87-3.79-.19h.01Zm-10.54 35.82-2.56 5.55 8.09.29 2.51-5.42-8.03-.42h-.01Zm-3.56-2.77.14-2.82-4.37 9.47c.8.86 1.9 1.45 3.15 1.58l2.64-5.73a2.573 2.573 0 0 1-1.56-2.5Zm19.96-32.75-2.26 4.9 7.99.5 2.31-4.99-8.04-.4v-.01Z" clip-rule="evenodd"/>
  <path fill="#21728E" fill-rule="evenodd" d="m106.44 171.22-2.64 5.73c-1.76-.04-3.15-1.58-3.15-1.58l4.37-9.47-.14 2.82c-.06 1.11.6 2.09 1.56 2.5Zm16.32-35.35-2.25 4.86-3.77-.24 2.23-4.82 3.79.2Zm-6.301 36.04-2.5 5.42-8.09-.29 2.56-5.55 8.03.42Zm16.411-35.54-2.31 4.99-7.99-.5 2.26-4.89 8.04.4Z" clip-rule="evenodd"/>
  <path fill="#7F8080" fill-rule="evenodd" d="m83.71 133.46-6.99-.19-2.28 5.13 5.62.15c.64.02 1.22.26 1.66.66l2.54-5.7a5.05 5.05 0 0 0-.56-.06l.01.01Zm-23.02 35.86-2.33 5.25 7.47.4 2.39-5.37-7.53-.28Zm-6.56-.25-2.29 5.15 3.95.21 2.32-5.21-3.98-.15Zm16-35.98-2.28 5.14 4 .11 2.28-5.13-4-.11v-.01Z" clip-rule="evenodd"/>
  <path fill="#21728E" fill-rule="evenodd" d="m58.11 169.22-2.31 5.21-3.96-.21 2.29-5.15 3.98.15Zm16.02-36.02-2.28 5.13-4-.1 2.28-5.14 4 .11Zm-5.91 36.4-2.39 5.37-7.47-.4 2.33-5.25 7.53.28Zm16.05-36.08-2.54 5.7a2.52 2.52 0 0 0-1.66-.66l-5.62-.15 2.28-5.13 6.99.19c.19 0 .37.03.56.06l-.01-.01Z" clip-rule="evenodd"/>
  <path fill="#575757" fill-rule="evenodd" d="M147.96 140.35s40.73-9.49 56.58-6.19c.64.25.89 1.94.95 3.93.1 3.43-3.02 6.04-6.38 5.4-8.36-1.6-25.42-2.64-51.69 5.84-.06-7.26.55-8.97.55-8.97l-.01-.01Z" clip-rule="evenodd"/>
  <path fill="#3D3D3D" fill-rule="evenodd" d="M205.49 138.09c-.09 3.46-3.02 6.04-6.38 5.4-8.36-1.6-25.42-2.64-51.69 5.84-.01-1.54.02-3.67.06-4.75 0 0 35.42-8.05 58.01-6.48v-.01Z" clip-rule="evenodd"/>
  <path fill="#03405B" fill-rule="evenodd" d="M147.96 140.35s40.73-9.49 56.58-6.19c.64.25.89 1.94.95 3.93.1 3.43-3.02 6.04-6.38 5.4-8.36-1.6-25.42-2.64-51.69 5.84-.06-7.26.55-8.97.55-8.97l-.01-.01Z" clip-rule="evenodd"/>
  <path fill="#001C26" fill-rule="evenodd" d="M205.49 138.09c-.09 3.46-3.02 6.04-6.38 5.4-2.06-.39-4.64-.75-7.76-.94-9.55-.59-24.12.39-43.92 6.78-.01-1.54.02-3.67.06-4.75 0 0 23.15-5.26 43.95-6.45 4.93-.28 9.73-.33 14.06-.04h-.01Z" clip-rule="evenodd"/>
  <path fill="#21728E" fill-rule="evenodd" d="M88.41 150.53c.94-1.34 2.91-1.31 4.39-1.32 1.88-.01 3.86.25 5.64.89.65.23 1.24.54 1.799.9.02-1.22.03-2.04.03-2.04s-6.18-2.31-11.52-.8c-.94.27-1.59 1.14-1.62 2.11-.09 2.83-.1 4.89-.1 4.89s.04 0 .1-.01c.08-1.59.35-3.31 1.28-4.62Z" clip-rule="evenodd"/>
</svg>
