<svg xmlns="http://www.w3.org/2000/svg" width="250" height="415" fill="none" viewBox="0 0 250 415">
  <path fill="#7D7D7D" fill-rule="evenodd" d="M83.755 230.431s-1.316-31.809 1.62-35.085l-4.264-1.008s-7.785 25.614-5.961 39.972l8.609-3.879" clip-rule="evenodd"/>
  <path fill="#232153" fill-rule="evenodd" d="m127.471 230.588.165 22.049-9.859 7.352v-24.948l9.694-4.453Z" clip-rule="evenodd"/>
  <path fill="#424295" fill-rule="evenodd" d="M118.252 258.337h.45a2.61 2.61 0 0 0 1.501-.475l7.438-5.225-.009-.991s1.386-.294 1.386.991v6.472l-10.378 7.749-.388-8.521Z" clip-rule="evenodd"/>
  <path fill="#ACA8D0" fill-rule="evenodd" d="M127.473 230.241H84.671a2.33 2.33 0 0 0-.916.19l-10.923 4.023c.05.277.693.979.705 1.26l44.238-.401 9.458-4.275c.409-.186.685-.797.236-.797h.004Z" clip-rule="evenodd"/>
  <path fill="#5D5DA4" d="M74.598 251.501v-4.635a.937.937 0 0 0-.937-.937h-.837a.937.937 0 0 0-.936.937v4.635c0 .518.419.937.936.937h.837a.936.936 0 0 0 .937-.937Z"/>
  <path fill="#2E3177" d="M116.107 238.584H75.442c-.92 0-1.667.748-1.667 1.669v20.066c0 .922.746 1.669 1.667 1.669h40.665c.92 0 1.666-.747 1.666-1.669v-20.066c0-.921-.746-1.669-1.666-1.669Z"/>
  <path fill="#424295" d="M109.31 230.873H96.588a.38.38 0 0 0-.379.38v3.164c0 .21.17.38.38.38h12.721c.21 0 .38-.17.38-.38v-3.164a.38.38 0 0 0-.38-.38Z"/>
  <path fill="#BAB9DA" fill-rule="evenodd" d="M107.349 232.583H94.78c-.136 0 .004-.562.004-.698l1.283-.822a.417.417 0 0 1 .363-.186h12.982c.136 0 .247.111.247.248 0 0-1.373.619-1.881.929-.115.07-.293.533-.433.533l.004-.004Z" clip-rule="evenodd"/>
  <path fill="#5D5DA4" d="M118.253 258.337H73.356a1.04 1.04 0 0 0-1.04 1.041v6.472a1.04 1.04 0 0 0 1.04 1.041h44.897a1.04 1.04 0 0 0 1.04-1.041v-6.472a1.04 1.04 0 0 0-1.04-1.041Zm-10.523-26.526H95.008a.38.38 0 0 0-.38.38v3.164c0 .209.17.38.38.38h12.722a.38.38 0 0 0 .38-.38v-3.164a.38.38 0 0 0-.38-.38Z"/>
  <path fill="#7471B0" fill-rule="evenodd" d="M77.147 230.736v2.107c0 .628 2.573 1.14 5.754 1.14 3.18 0 5.754-.508 5.754-1.14v-2.107H77.147Z" clip-rule="evenodd"/>
  <path fill="#5F60A4" fill-rule="evenodd" d="M85.338 230.745c.095.161.157.351.157.586v2.565c1.872-.19 3.16-.578 3.16-1.024v-2.127h-3.317Z" clip-rule="evenodd"/>
  <path fill="#ACA8D0" d="M82.901 231.877c3.178 0 5.754-.511 5.754-1.14 0-.63-2.576-1.14-5.754-1.14-3.178 0-5.754.51-5.754 1.14 0 .629 2.576 1.14 5.754 1.14Z"/>
  <path fill="#454170" d="M78.867 231.666v1.941c0 .133.206.133.206 0v-1.941c0-.132-.206-.132-.206 0Zm2.235.26v1.942c0 .132.206.132.206 0v-1.942c0-.132-.206-.132-.206 0Zm2.504.054v1.941c0 .133.206.133.206 0v-1.941c0-.132-.206-.132-.206 0Zm2.41-.19v1.941c0 .133.206.133.206 0v-1.941c0-.132-.206-.132-.206 0Zm1.937-.479v1.941c0 .132.206.132.206 0v-1.941c0-.133-.206-.133-.206 0Z"/>
  <path fill="#424295" fill-rule="evenodd" d="m118.252 234.309.602.05a1.76 1.76 0 0 0 .941-.19l7.681-3.994s.75-.033.75.586v6.167s-.078.698-.581.934c-.504.235-8.948 4.898-8.948 4.898l-.441-8.451h-.004Z" clip-rule="evenodd"/>
  <path fill="#5D5DA4" d="M118.253 234.31H73.356a1.04 1.04 0 0 0-1.04 1.04v6.473a1.04 1.04 0 0 0 1.04 1.041h44.897a1.04 1.04 0 0 0 1.04-1.041v-6.473a1.04 1.04 0 0 0-1.04-1.04Z"/>
  <path fill="#7E7DB7" d="M82.2 234.31h-1.403v8.554h1.402v-8.554Zm4.5 0h-3.094v8.554h3.093v-8.554Z"/>
  <path fill="#7E7DB7" fill-rule="evenodd" d="M80.797 259.469v7.418h1.402v-5.349a9.873 9.873 0 0 1-1.402-2.069Zm2.809 3.362v4.056h3.093v-2.54a9.125 9.125 0 0 1-3.093-1.516Z" clip-rule="evenodd"/>
  <path fill="#232153" fill-rule="evenodd" d="M73.775 242.864h44.003v5.721l-44.003-4.424v-1.297Z" clip-rule="evenodd"/>
  <path fill="#686AA5" d="M94.356 264.194c6.937 0 12.561-5.631 12.561-12.577 0-6.947-5.624-12.578-12.561-12.578s-12.561 5.631-12.561 12.578c0 6.946 5.624 12.577 12.56 12.577Z"/>
  <path fill="#8383BB" d="M91.221 264.194c6.937 0 12.561-5.631 12.561-12.577 0-6.947-5.624-12.578-12.561-12.578s-12.56 5.631-12.56 12.578c0 6.946 5.623 12.577 12.56 12.577Z"/>
  <path fill="#ACA8D0" fill-rule="evenodd" d="M79.358 252.467c0-6.947 5.622-12.577 12.56-12.577 3.725 0 7.07 1.623 9.368 4.205a12.536 12.536 0 0 0-10.069-5.056c-6.938 0-12.56 5.63-12.56 12.578 0 3.217 1.208 6.15 3.192 8.376a12.516 12.516 0 0 1-2.492-7.521v-.005Z" clip-rule="evenodd"/>
  <path fill="#1E1E1E" d="M91.423 259.448c4.32 0 7.82-3.506 7.82-7.831 0-4.326-3.5-7.832-7.82-7.832s-7.821 3.506-7.821 7.832c0 4.325 3.501 7.831 7.82 7.831Z"/>
  <path fill="#000" fill-rule="evenodd" d="M96.307 245.466a7.804 7.804 0 0 1 1.77 4.961c0 4.324-3.503 7.831-7.822 7.831a7.753 7.753 0 0 1-4.884-1.722 7.8 7.8 0 0 0 6.047 2.87c4.32 0 7.822-3.506 7.822-7.831a7.803 7.803 0 0 0-2.938-6.109h.005Z" clip-rule="evenodd"/>
  <path fill="#606161" d="M87.752 250.861c.03-.083.058-.166.091-.248.037-.099.178-.384 0-.017.079-.165.149-.33.235-.491a6.785 6.785 0 0 1 .508-.814c.152-.206-.128.157-.02.025.036-.041.07-.087.106-.128a5.94 5.94 0 0 1 .5-.525c.09-.082.181-.165.276-.239.21-.174-.144.099 0-.004.053-.038.103-.075.157-.112.227-.161.47-.302.717-.43.128-.066.264-.111.388-.181-.268.152-.029.012.05-.013l.247-.086c.512-.174.9-.719.722-1.273-.165-.508-.722-.904-1.27-.723-1.242.418-2.393 1.116-3.247 2.124a7.949 7.949 0 0 0-1.456 2.589c-.173.513.198 1.153.722 1.273.573.132 1.08-.174 1.27-.723l.004-.004Z"/>
  <path fill="#424295" d="M77.46 241.001c1.084 0 1.963-.88 1.963-1.966a1.965 1.965 0 1 0-3.927 0c0 1.086.88 1.966 1.964 1.966Zm29.353 0c1.085 0 1.964-.88 1.964-1.966a1.965 1.965 0 1 0-3.927 0c0 1.086.879 1.966 1.963 1.966Z"/>
  <path fill="#424295" fill-rule="evenodd" d="M116.392 239.035c0-.876-.577-1.611-1.369-1.863v-.099h-2.756v.02a1.956 1.956 0 0 0 0 3.891v.021h2.756v-.099a1.957 1.957 0 0 0 1.369-1.863v-.008Z" clip-rule="evenodd"/>
  <path fill="#54A1A0" d="M77.11 240.398c1.084 0 1.964-.88 1.964-1.966a1.965 1.965 0 1 0-3.927 0c0 1.086.879 1.966 1.963 1.966Z"/>
  <path fill="#DA3555" d="M106.464 240.398c1.084 0 1.963-.88 1.963-1.966a1.964 1.964 0 1 0-3.927 0c0 1.086.879 1.966 1.964 1.966Z"/>
  <path fill="#EFAE42" fill-rule="evenodd" d="M116.041 238.432c0-1.561-1.37-1.966-1.37-1.966l-2.756.02a1.959 1.959 0 0 0-1.757 1.946c0 1.016.772 1.842 1.757 1.945l2.756.021s1.37-.297 1.37-1.966Z" clip-rule="evenodd"/>
  <path fill="#CEBCD9" d="M110.783 249.444c.97 0 1.757-.788 1.757-1.76a1.759 1.759 0 1 0-3.515 0c0 .972.787 1.76 1.758 1.76Zm1.409 2.887a.904.904 0 1 0 0-1.809.904.904 0 0 0 0 1.809Z"/>
  <path fill="#BAB9DA" d="M77.08 230.745c0 .281.524.541 1.386.739l1.225-1.693c-1.567.202-2.607.553-2.607.954h-.004Zm4.34-1.103-1.506 2.082c.375.045.772.078 1.196.107l1.61-2.226c-.446 0-.88.012-1.296.033l-.004.004Zm7.17 1.103c0-.376-.925-.711-2.348-.917l-1.435 1.986c2.207-.161 3.782-.578 3.782-1.069Z"/>
  <path fill="#DCDAEB" d="m79.692 229.795-1.225 1.693c.412.095.9.178 1.448.24l1.505-2.082c-.623.033-1.204.083-1.728.149Z"/>
  <path fill="#000" d="M124.155 242.732c0-.584-.473-1.058-1.056-1.058-.583 0-1.056.474-1.056 1.058v8.79a1.056 1.056 0 1 0 2.112 0v-8.79Z"/>
  <path fill="#DCDAEB" d="M82.834 229.609h-.12l-1.608 2.226a27.157 27.157 0 0 0 3.696-.016l1.435-1.987c-.953-.141-2.128-.223-3.407-.223h.004Z"/>
  <path fill="#575858" fill-rule="evenodd" d="M123.1 242.843v8.583s23.529-21.181 49.463-55.832l-5.824-4.705s-21.818 30.963-43.635 51.954h-.004Z" clip-rule="evenodd"/>
  <path fill="#303030" fill-rule="evenodd" d="m157.91 202.802 10.453-1.69 4.195-5.518-5.824-4.705-8.824 11.913Z" clip-rule="evenodd"/>
</svg>
