<svg xmlns="http://www.w3.org/2000/svg" width="250" height="414" fill="none" viewBox="0 0 250 414">
  <g clip-path="url(#a)">
    <path fill="#fff" d="M116.402 217.414a9.477 9.477 0 0 0-.694-1.137l-2.858.55a3.17 3.17 0 0 0-1.388.645 3.217 3.217 0 0 1 .158 2.219 3.059 3.059 0 0 1-.626 1.132.35.35 0 0 1-.109.131c-.01.02-.02.03-.04.05 0 .03 0 .04-.01.06-.059.19-.129.37-.218.541-.06.12-.129.23-.209.34a1.31 1.31 0 0 1-.229.301c-.04.05-.08.1-.129.151-.09.09-.19.18-.29.261-.019.02-.039.03-.059.05a.71.71 0 0 1-.14.1c-.11.081-.219.161-.339.221-.14.081-.29.151-.449.212-.1.04-.2.081-.31.111-.07.02-.14.041-.22.061-.11.03-.23.061-.34.081l-.25.031a4.685 4.685 0 0 1-1.87-.164l-4.314-1.255c-2.213-.662-3.57-2.707-3.037-4.609 0 0 .01-.03.01-.04.07-.24.169-.471.288-.691h.01c.13-.231.288-.441.478-.632 0-.02 0-.04.01-.06.108-.35.267-.671.466-.951a2.562 2.562 0 0 0-.536-1.729l-2.08-2.652a8.152 8.152 0 0 0-1.197.554c-.998.553-1.856 1.286-2.503 2.179-.02.04-.04.08-.05.13-.098.22-.178.45-.247.671 0 .01-.01.03-.01.04a6.92 6.92 0 0 0-.264 1.731c-.01.16-.008.33.002.49.142 3.529 2.914 6.889 7.018 8.095l6.687 1.947c4.034 1.176 8.11-.108 10.17-2.916.129-.26.218-.53.297-.801.02-.08.05-.16.059-.25.129-.44.197-.88.216-1.311.01-.03.01-.06.009-.09l-.002-.61c-.043-1.099-.347-2.178-.861-3.187Zm-15.342-3.416a4.326 4.326 0 0 1 1.809-.416c.47-.002.94.056 1.411.195l4.314 1.265a4.692 4.692 0 0 1 2.245 1.422 3.16 3.16 0 0 1 1.737-.946l2.128-.408c-1.164-1.166-2.687-2.08-4.459-2.604l-6.687-1.947a10.527 10.527 0 0 0-4.46-.334l1.425 1.825c.442.568.615 1.268.537 1.948Z"/>
    <path fill="#C2CDD2" d="m96.496 210.005.583.738c-.42.151-.819.343-1.198.554-.998.553-1.856 1.286-2.503 2.179a7.248 7.248 0 0 1 2.07-2.738c.33-.271.679-.512 1.048-.733Z"/>
    <path fill="#E4E8E9" d="m116.403 214.785-1.699.326c-1.164-1.166-2.687-2.081-4.459-2.605l-6.687-1.946a10.529 10.529 0 0 0-4.461-.335l-.794-1.017c1.828-.587 3.938-.644 6.04-.021l6.687 1.957c2.272.662 4.147 1.995 5.373 3.651v-.01Z"/>
    <path fill="#C2CDD2" d="M118.048 219.22a6.94 6.94 0 0 1-.173 1.87c-.01.03-.01.06-.02.1-.03.09-.049.191-.079.291-.109.37-.247.731-.426 1.071a6.32 6.32 0 0 1-.666 1.112c.129-.26.218-.53.297-.801.02-.08.049-.16.059-.25.129-.44.197-.88.215-1.311.01-.03.01-.06.01-.09l-.002-.61c-.044-1.099-.348-2.178-.861-3.187a9.607 9.607 0 0 0-.694-1.137l1.469-.275c.191.379.363.778.494 1.178.222.659.355 1.349.377 2.039Z"/>
    <path fill="#AFB6BA" d="M116.402 217.414a9.477 9.477 0 0 0-.694-1.137l-2.858.55a3.17 3.17 0 0 0-1.388.645 3.054 3.054 0 0 0-.906 1.113c.131.249.232.509.303.779.102.439.133.889.045 1.34 0 .07-.02.15-.04.22-.009.03-.009.05-.019.08 0 .03 0 .04-.01.06-.059.19-.129.37-.218.541-.06.12-.129.23-.209.34a1.31 1.31 0 0 1-.229.301c-.04.05-.08.1-.129.151-.09.09-.19.18-.29.261-.019.02-.039.03-.059.05a.71.71 0 0 1-.14.1c-.11.081-.219.161-.339.221-.14.081-.29.151-.449.212-.1.04-.2.081-.31.111-.07.02-.14.041-.22.061-.11.03-.23.061-.34.081l-.25.031a4.685 4.685 0 0 1-1.87-.164l-4.314-1.255c-2.213-.662-3.57-2.707-3.037-4.609 0 0 .01-.03.01-.04.07-.24.169-.471.288-.691h.01c.13-.231.288-.441.478-.632.12-.12.239-.241.379-.341.039-.16.068-.32.088-.49.01-.06.01-.12.01-.18a2.562 2.562 0 0 0-.537-1.729l-2.08-2.652a8.152 8.152 0 0 0-1.197.554c-.998.553-1.856 1.286-2.503 2.179-.02.04-.04.08-.05.13-.098.22-.178.45-.247.671 0 .01-.01.03-.01.04a6.92 6.92 0 0 0-.264 1.731c-.01.16-.008.33.002.49.142 3.529 2.914 6.889 7.018 8.095l6.687 1.947c4.034 1.176 8.11-.108 10.17-2.916.129-.26.218-.53.297-.801.02-.08.05-.16.059-.25.129-.44.197-.88.216-1.311.01-.03.01-.06.009-.09l-.002-.61c-.043-1.099-.347-2.178-.861-3.187Zm-15.342-3.416c-.048.43-.197.841-.445 1.231a4.183 4.183 0 0 1 1.469-.265c.46-.001.94.057 1.41.195l4.305 1.255c.931.267 1.712.784 2.255 1.443a3.372 3.372 0 0 1 .785-1.393 3.16 3.16 0 0 1 1.737-.946l2.128-.408c-1.164-1.166-2.687-2.08-4.459-2.604l-6.687-1.947a10.527 10.527 0 0 0-4.46-.334l1.425 1.825c.442.568.615 1.268.537 1.948Z"/>
    <path fill="#75797C" d="M116.683 223.655c-1.607 3.745-6.31 5.652-10.965 4.298l-6.687-1.947c-4.104-1.195-6.875-4.556-7.018-8.095a7.008 7.008 0 0 1 .272-2.261 7.084 7.084 0 0 1 1.083-2.184c-.12.26-.218.531-.297.801a6.981 6.981 0 0 0-.273 2.261c.143 3.529 2.915 6.9 7.019 8.096l6.687 1.946c4.034 1.176 8.119-.108 10.179-2.915Z"/>
    <path fill="#75797C" d="M110.844 221.005s0 .04-.01.06c-.563 1.912-2.83 2.94-5.052 2.298l-4.304-1.255c-2.232-.653-3.59-2.738-3.026-4.65a3.16 3.16 0 0 1 .775-1.323c-.523 1.902.834 3.938 3.046 4.59l4.304 1.255c1.642.474 3.301.048 4.277-.975h-.01Z"/>
    <path fill="#fff" d="M89.096 198.57c.241.329.422.679.544 1.028.77.088 1.481.445 1.963 1.063l1.447 1.855c-.016-1.6-.572-3.278-1.667-4.754l-.11-.15-.603-.817-3.603-.968 1.095 1.476.934 1.267Zm.65 2.958c-.098.44-.307.831-.605 1.162-.11.12-.23.241-.37.341a2.517 2.517 0 0 1-1.138.464c-.01.02-.02.03-.04.04a2.62 2.62 0 0 1-1.688.496c-.15.001-.29-.019-.44-.058a3.182 3.182 0 0 1-1.112-.426 3.47 3.47 0 0 1-.52-.359 5.244 5.244 0 0 1-.593-.647l-2.15-2.903c-.603-.828-.836-1.787-.71-2.648a.03.03 0 0 1 0-.04c.02-.17.06-.33.109-.48.05-.14.109-.27.168-.391.09-.19.2-.36.339-.511.03-.04.07-.08.11-.11.04-.04.079-.09.119-.131l.18-.15a2.58 2.58 0 0 1 1.138-.474h.01s.02-.02.04-.03c.02-.01.04-.03.06-.03l-5.125-1.383a5.441 5.441 0 0 0-.277 1.051c-.353 1.982.145 4.24 1.552 6.145l3.335 4.508c1.176 1.576 2.75 2.631 4.391 3.075.61.168 1.221.256 1.831.254.26-.001.51-.002.76-.053.33-.031.65-.102.97-.193a4.55 4.55 0 0 0 .578-.372 5.312 5.312 0 0 0 1.275-1.315c.01-.02.02-.03.03-.05a5.93 5.93 0 0 0 .656-1.242l-2.4-3.072a2.376 2.376 0 0 0-.483-.468Z"/>
    <path fill="#AFB6BA" d="m92.63 205.067.552.698s-.04.071-.06.101c-.229.32-.488.621-.787.902-.15.141-.319.271-.489.402a5.559 5.559 0 0 1-1.757.876c.2-.111.4-.231.58-.372a5.309 5.309 0 0 0 1.275-1.314c.01-.02.02-.03.03-.05.268-.391.487-.802.655-1.243Zm1.404-1.294-.984-1.256c-.016-1.6-.572-3.278-1.667-4.755l-.11-.149-.603-.818 1.932.513c.09.13.18.26.261.399 1.267 1.926 1.645 4.155 1.171 6.066Z"/>
    <path fill="#909496" d="M89.746 201.528a2.622 2.622 0 0 0-1.081-.506c.021.37-.008.73-.107 1.07a2.566 2.566 0 0 1-.925 1.403c-.01.02-.02.03-.04.04a2.62 2.62 0 0 1-1.688.496c-.15.001-.29-.019-.44-.058a3.182 3.182 0 0 1-1.112-.426 3.47 3.47 0 0 1-.52-.359 5.244 5.244 0 0 1-.593-.647l-2.15-2.903c-.603-.828-.836-1.787-.71-2.648a.03.03 0 0 1 0-.04c.02-.17.06-.33.109-.48.05-.14.109-.27.168-.391.09-.19.2-.36.339-.511.03-.04.07-.08.11-.11.04-.04.079-.09.119-.131l.18-.15a2.58 2.58 0 0 1 1.138-.474h.01c.09 0 .17-.021.26-.021l-.16-.039-5.125-1.383a5.441 5.441 0 0 0-.277 1.051c-.353 1.982.145 4.24 1.552 6.145l3.335 4.508c1.176 1.576 2.75 2.631 4.391 3.075.61.168 1.221.256 1.831.254.26-.001.51-.002.76-.053.33-.031.65-.102.97-.193a4.55 4.55 0 0 0 .578-.372 5.312 5.312 0 0 0 1.275-1.315c.01-.02.02-.03.03-.05a5.93 5.93 0 0 0 .656-1.242l-2.4-3.072a2.376 2.376 0 0 0-.483-.468Zm-3.978-5.356.633.857 1.517 2.045c.15.2.271.409.382.619.44-.122.9-.153 1.34-.095.77.088 1.481.445 1.963 1.063l1.447 1.855c-.016-1.6-.572-3.278-1.667-4.754l-.11-.15-.603-.817-3.603-.968-2.323-.622c.07.04.15.09.22.149.292.229.573.498.804.818Z"/>
    <path fill="#909496" d="M90.089 208.046c-2.855 1.62-6.798.554-9.12-2.578l-3.345-4.509c-1.628-2.214-2.047-4.903-1.315-7.085a5.17 5.17 0 0 1 .357-.841l.861.227c-.129.34-.218.69-.276 1.051-.353 1.981.145 4.239 1.551 6.144l3.336 4.509c2.02 2.723 5.263 3.881 7.95 3.082Z"/>
    <path fill="#75797C" d="M87.633 203.496s-.02.02-.04.03c-1.287.954-3.248.511-4.353-.995l-2.15-2.902c-1.116-1.507-.973-3.507.324-4.462a2.548 2.548 0 0 1 1.138-.474c-1.257.965-1.39 2.935-.284 4.421l2.15 2.903c.823 1.107 2.085 1.633 3.215 1.459v.02Z"/>
    <path fill="#fff" d="m159.194 194.946-2.166 1.208c.345-1.392 1.04-2.764 2.076-3.978l.14-.16.129-.161c1.12-.124 2.239-.377 3.348-.551.26-.041.52-.092.77-.143h-.01l-.608.732-1.185 1.404a4.282 4.282 0 0 0-.746 1.233 3.247 3.247 0 0 0-1.748.416Zm14.295 1.329-4.223 4.975c-2.081 2.457-5.047 3.628-7.728 3.347a6.487 6.487 0 0 1-1.732-.384c-.08-.06-.17-.109-.25-.169-.131-.1-.271-.199-.391-.309a.304.304 0 0 1-.081-.079 5.772 5.772 0 0 1-1.295-1.546 6.8 6.8 0 0 1-.797-1.947 7.997 7.997 0 0 1-.215-1.549l3.403-1.902c.16-.091.33-.161.5-.222.061.5.233.979.514 1.388.141.23.332.439.543.618a2.95 2.95 0 0 0 1.282.626c.01.02.02.03.04.04.14.129.291.229.451.318.16.09.321.169.491.219.09.029.18.059.28.079.2.059.4.088.61.087.2.02.39-.001.59-.012.28-.031.55-.092.83-.203.139-.04.279-.1.409-.161a4.373 4.373 0 0 0 1.466-1.135l2.719-3.21c.1-.1.179-.21.249-.32.079-.111.159-.221.219-.331a4.407 4.407 0 0 0 .436-1.042c.03-.1.059-.21.069-.31.029-.14.049-.27.059-.4.009-.03.009-.05.009-.08l-.001-.22c0-.11 0-.22-.021-.32.01 0 .02-.02.01-.03 0-.02 0-.03-.01-.05 0-.12-.031-.24-.051-.35-.01-.04-.01-.08-.021-.12 0-.03-.01-.04-.01-.05-.01-.04-.03-.08-.04-.12a2.983 2.983 0 0 0-.694-1.217 2.726 2.726 0 0 0-.241-.239 3.116 3.116 0 0 0-.291-.219 2.32 2.32 0 0 0-.471-.239c-.17-.079.18.196 0 .157a.274.274 0 0 0-.05-.04c-.02-.01-.04-.03-.06-.04l5.535-1.536c.122.4.193.82.234 1.239.259 2.33-.492 4.912-2.275 7.008Z"/>
    <path fill="#909496" d="m159.193 194.946-2.165 1.207c.345-1.391 1.04-2.764 2.076-3.977l.139-.161.13-.16c1.119-.124 2.238-.378 3.348-.552.26-.041.51-.082.759-.132.9-.174 1.759-.407 2.598-.749-.12.11-.229.22-.339.341l-.797.952-1.922 2.257a4.145 4.145 0 0 0-.627.952 3.138 3.138 0 0 0-1.451-.395 3.251 3.251 0 0 0-1.749.417Z"/>
    <path fill="#909496" d="m173.489 196.275-4.223 4.975c-2.081 2.457-5.047 3.628-7.728 3.347a6.487 6.487 0 0 1-1.732-.384c-.08-.06-.17-.109-.25-.169-.131-.1-.271-.199-.391-.309a.304.304 0 0 1-.081-.079 5.772 5.772 0 0 1-1.295-1.546 6.8 6.8 0 0 1-.797-1.947 7.997 7.997 0 0 1-.215-1.549l3.403-1.902c.16-.091.33-.161.5-.222a3.193 3.193 0 0 1 1.329-.185c-.058.491-.017.961.105 1.41h.01c.162.539.453 1.028.895 1.407.01.02.02.03.04.04.14.129.291.229.451.318.16.09.321.169.491.219.09.029.18.059.28.079.2.059.4.088.61.087.2.02.39-.001.59-.012.28-.031.55-.092.83-.203.139-.04.279-.1.409-.161a4.373 4.373 0 0 0 1.466-1.135l2.719-3.21c.1-.1.179-.21.249-.32.079-.111.159-.221.219-.331a4.407 4.407 0 0 0 .436-1.042c.03-.1.059-.21.069-.31.029-.14.049-.27.059-.4.009-.03.009-.05.009-.08l-.001-.22c0-.11 0-.22-.021-.32.01 0 .02-.02.01-.03 0-.02 0-.03-.01-.05 0-.12-.031-.24-.051-.35-.01-.04-.01-.08-.021-.12 0-.03-.01-.04-.01-.05-.01-.04-.03-.08-.04-.12a2.983 2.983 0 0 0-.694-1.217 2.726 2.726 0 0 0-.241-.239 3.116 3.116 0 0 0-.291-.219 2.32 2.32 0 0 0-.471-.239c-.17-.079.18.17 0 .131-.1-.02-.2-.039-.3-.039l.19-.041 5.535-1.51c.122.4.193.82.234 1.239.259 2.33-.492 4.912-2.275 7.008Z"/>
    <path fill="#909496" d="M159.806 204.205c3.187 2.099 7.844 1.172 10.782-2.288l4.233-4.975c2.061-2.447 2.751-5.529 2.072-8.117a6.023 6.023 0 0 0-.354-.999l-1.019.194c.121.409.203.819.234 1.239.258 2.329-.493 4.912-2.275 7.008l-4.223 4.975c-2.55 2.999-6.406 4.092-9.46 2.963h.01Z"/>
    <path fill="#75797C" d="M163.008 199.122s.02.03.04.04c1.424 1.205 3.723.837 5.127-.818l2.719-3.209c1.404-1.665 1.396-3.995-.028-5.2-.371-.319-.406-.328-.867-.436 1.385 1.215.967 3.315-.427 4.96l-2.719 3.21c-1.036 1.213-2.554 1.739-3.845 1.443v.01Z"/>
    <path fill="#fff" d="M152.688 207.889c-.02-.21-.051-.41-.082-.61a6.775 6.775 0 0 0-.433-.899 8.181 8.181 0 0 0-1.677-2.054c-.13-.109-.261-.219-.391-.308a6.637 6.637 0 0 0-1.403-.886l-3.743 2.093a3.38 3.38 0 0 0-1.444 1.596c.35.158.671.367.952.626a3.61 3.61 0 0 1 1.209 2.596c.02.02.03.04.04.06.081.15.161.299.212.449.05.11.09.23.111.34.141.439.193.899.155 1.359-.105 1.521-1.05 3.044-2.617 3.949l-4.521 2.606c-2.345 1.348-5.187.808-6.344-1.198a3.61 3.61 0 0 1-.486-1.708.21.21 0 0 1-.04-.06c-.05-.1-.101-.19-.151-.289l.001.16v.03a3.227 3.227 0 0 0-2.607-1.931h-.01a3.043 3.043 0 0 0-.95.033l-2.878.55a7.692 7.692 0 0 0-.305 1.331 8.973 8.973 0 0 0 .01 2.93 7.388 7.388 0 0 0 1.327 2.145c.121.14.241.28.372.409.13.14.271.269.411.389 3.09 2.729 8.141 3.101 12.452.626l7.016-4.054c3.433-1.992 5.532-5.289 5.81-8.61a7.177 7.177 0 0 0 .004-1.67Zm-20.977 6.403c-.105-1.22.371-2.512 1.307-3.515a5.751 5.751 0 0 1 1.307-1.024l4.521-2.616c1.088-.624 2.277-.848 3.347-.702.066-1.22.702-2.372 1.79-2.976l2.146-1.208c-2.562-.501-5.45-.041-8.075 1.469l-7.016 4.044c-2.226 1.288-3.889 3.124-4.862 5.157l2.028-.387a3.234 3.234 0 0 1 3.507 1.758Z"/>
    <path fill="#C2CDD2" d="M125.601 214.393a7.785 7.785 0 0 0-.305 1.331 9 9 0 0 0 .01 2.93 8.303 8.303 0 0 1-.604-4.088l.909-.173h-.01Z"/>
    <path fill="#E4E8E9" d="m147.946 201.246-1.816 1.006c-2.562-.501-5.451-.041-8.075 1.468l-7.016 4.045c-2.226 1.287-3.889 3.123-4.862 5.157l-1.25.234c.691-2.802 2.651-5.459 5.586-7.16l7.015-4.044c3.464-2.002 7.403-2.146 10.418-.706Z"/>
    <path fill="#C2CDD2" d="M152.607 207.279a6.775 6.775 0 0 0-.433-.899 8.181 8.181 0 0 0-1.677-2.054c-.131-.109-.261-.219-.391-.308a6.669 6.669 0 0 0-1.404-.886l1.168-.654s.07.05.1.08c.352.299.663.638.954.997.271.329.512.678.724 1.057a8.12 8.12 0 0 1 .959 2.667Z"/>
    <path fill="#AFB6BA" d="M152.688 207.889c-.02-.21-.051-.41-.082-.61a6.775 6.775 0 0 0-.433-.899 8.181 8.181 0 0 0-1.677-2.054c-.13-.109-.261-.219-.391-.308a6.637 6.637 0 0 0-1.403-.886l-3.743 2.093a3.38 3.38 0 0 0-1.444 1.596c-.219.45-.337.951-.345 1.461.24.059.47.128.691.227a3.731 3.731 0 0 1 1.815 1.534c.02.02.03.04.04.06.081.15.161.299.212.449.05.11.09.23.111.34.141.439.193.899.155 1.359-.105 1.521-1.05 3.044-2.617 3.949l-4.521 2.606c-2.345 1.348-5.187.808-6.344-1.198a3.61 3.61 0 0 1-.486-1.708c-.054-1.17.422-2.392 1.329-3.355a5.459 5.459 0 0 1 1.296-1.024l4.521-2.606c1.008-.584 2.107-.817 3.117-.731a4.01 4.01 0 0 1-.296-1.749c.066-1.22.702-2.372 1.79-2.976l2.146-1.208c-2.562-.501-5.45-.041-8.075 1.469l-7.016 4.044c-2.226 1.288-3.889 3.124-4.862 5.157l2.028-.387a3.234 3.234 0 0 1 3.779 2.577c.031.15.051.28.052.43l.001.17v.03a3.227 3.227 0 0 0-2.607-1.931h-.01a3.043 3.043 0 0 0-.95.033l-2.878.55a7.692 7.692 0 0 0-.305 1.331 8.973 8.973 0 0 0 .01 2.93 7.388 7.388 0 0 0 1.327 2.145c.121.14.241.28.372.409.13.14.271.269.411.389 3.09 2.729 8.141 3.101 12.452.626l7.016-4.054c3.433-1.992 5.532-5.289 5.81-8.61a7.177 7.177 0 0 0 .004-1.67Zm-10.029.305s-.01-.03-.01-.05v.05h.01Z"/>
    <path fill="#75797C" d="M152.607 207.268c1.855 4.354-.326 9.851-5.206 12.668l-7.016 4.045c-4.312 2.475-9.353 2.112-12.452-.617a7.963 7.963 0 0 1-1.678-2.044 8.143 8.143 0 0 1-.959-2.667c.121.31.272.609.433.899a7.96 7.96 0 0 0 1.677 2.044c3.09 2.719 8.141 3.102 12.453.616l7.016-4.044c4.241-2.445 6.436-6.902 5.732-10.9Z"/>
    <path fill="#75797C" d="M145.676 210.043s.03.04.04.06c1.157 2.006.197 4.739-2.139 6.087l-4.521 2.606c-2.345 1.348-5.187.818-6.344-1.198a3.61 3.61 0 0 1-.486-1.708c1.177 1.966 3.979 2.466 6.304 1.138l4.521-2.606c1.717-.996 2.691-2.729 2.625-4.379Z"/>
    <path fill="#909496" d="m117.177 216.002-1.469.275-2.858.55c-.52.102-.989.323-1.388.645a3.054 3.054 0 0 0-.906 1.113c-.05-.09-.09-.18-.151-.26a2.6 2.6 0 0 0-.351-.468 3.372 3.372 0 0 1 .785-1.393 3.161 3.161 0 0 1 1.736-.946l2.129-.408 1.699-.326c.291.389.553.799.774 1.218Z"/>
    <path fill="#E4E8E9" d="M132.321 217.019c0 .22-.019.43-.068.64a2.29 2.29 0 0 0-.071-.28 1.73 1.73 0 0 0-.071-.21c-.02-.06-.04-.11-.06-.159v-.03l-.152-.3s-.03-.05-.05-.08c-.06-.1-.13-.199-.211-.299-.06-.09-.12-.16-.201-.239-.05-.05-.09-.1-.15-.15-.04-.04-.08-.08-.121-.109a2.639 2.639 0 0 0-.611-.398.437.437 0 0 0-.17-.08 2.949 2.949 0 0 0-.801-.237 2.419 2.419 0 0 0-.47-.038c-.21.001-.41.021-.62.062l-3.188.611-.629.122-6.986 1.335-1.269.234-3.548.682c-.12.021-.23.051-.339.092-.07.02-.15.05-.22.07a3.77 3.77 0 0 0-.489.242c-.03.01-.05.02-.07.04a2.66 2.66 0 0 0-.459.352c-.05.04-.11.09-.149.15-.1.101-.19.201-.269.321-.01 0-.03.03-.03.05-.06.071-.12.151-.169.241a.3.3 0 0 1-.04.08c-.05.08-.079.16-.119.251 0 .01-.01.02-.01.03-.04.1-.079.19-.109.28-.04.12-.069.23-.089.34v-.03a3.046 3.046 0 0 1-.062-.599v-.03c-.002-.49.116-.961.335-1.392a3.06 3.06 0 0 1 .906-1.113 3.175 3.175 0 0 1 1.388-.645l2.858-.55 1.469-.275 7.515-1.436.909-.173 2.879-.55c.319-.061.639-.072.949-.033h.01a3.227 3.227 0 0 1 2.607 1.93c.101.21.172.44.213.68.04.2.061.4.062.6h-.03Z"/>
    <path fill="#75797C" d="M132.252 217.659a3.222 3.222 0 0 1-2.561 2.539l-15.629 2.985a3.236 3.236 0 0 1-3.769-2.547c.039-.21.108-.42.197-.621a3.241 3.241 0 0 0 3.567 1.898l15.63-2.985a3.209 3.209 0 0 0 2.363-1.918c.091.21.162.42.202.649Z"/>
    <path fill="#AFB6BA" d="M132.05 217.01a3.209 3.209 0 0 1-2.363 1.918l-15.63 2.984a3.237 3.237 0 0 1-3.566-1.897 3.205 3.205 0 0 1 2.363-1.918l15.63-2.985a3.21 3.21 0 0 1 3.566 1.898Z"/>
    <path fill="#909496" d="M132.046 215.711v.03a3.226 3.226 0 0 0-2.607-1.931h-.01a3.043 3.043 0 0 0-.95.033l-2.878.55-.909.173c.038-.47.117-.94.235-1.41l1.249-.235 2.029-.387a3.233 3.233 0 0 1 3.779 2.577c.03.15.051.28.051.43l.001.17h.01Z"/>
    <path fill="#E4E8E9" d="M99.694 215.124c0 .06 0 .12-.01.18-.019.17-.048.33-.087.49a3.78 3.78 0 0 1-.308.721c-.06.091-.11.171-.18.261a3.057 3.057 0 0 1-.677.722c-.06.051-.12.101-.18.141a3.996 3.996 0 0 1-.528.312c-.21.101-.41.181-.62.232a3.491 3.491 0 0 0 1.096-1.274c.05-.09.09-.18.12-.28.049-.11.089-.22.118-.341.03-.12.05-.24.069-.36.049-.4.017-.81-.114-1.189 0-.02-.01-.03-.02-.05a2.2 2.2 0 0 0-.393-.719l-2.1-2.673-.431-.558-3.114-3.969-.362-.459-2.832-3.62-.09-.12c-.07-.09-.151-.169-.231-.249a1.8 1.8 0 0 0-.261-.229.219.219 0 0 0-.05-.03c-.1-.08-.2-.149-.311-.199-.04-.03-.08-.05-.12-.07-.1-.049-.21-.089-.32-.128-.05-.02-.1-.03-.161-.05a3.143 3.143 0 0 0-.42-.088h-.02a2.42 2.42 0 0 0-.47-.039l-.1.001c-.08 0-.17 0-.25.021h-.04s-.07 0-.11.01c-.08 0-.15.021-.22.041-.1.01-.19.03-.28.061.01-.02.02-.02.03-.03.12-.081.24-.161.36-.222.06-.03.109-.06.169-.09.779-.383 1.648-.476 2.419-.269.4.089.77.258 1.082.507.18.129.34.288.481.468l2.401 3.072.552.698 3.315 4.238.583.738 2.08 2.653a2.56 2.56 0 0 1 .535 1.728v.01Z"/>
    <path fill="#75797C" d="M97.104 218.181c-1.259.365-2.6.019-3.363-.948l-8.92-11.399c-.984-1.267-.601-3.148.875-4.213.21-.061.43-.102.65-.122-1.026 1.083-1.21 2.654-.357 3.761l8.92 11.399c.633.798 1.664 1.174 2.713 1.06a3.12 3.12 0 0 1-.518.452v.01Z"/>
    <path fill="#AFB6BA" d="M97.623 217.73c-1.05.103-2.08-.263-2.714-1.061l-8.92-11.399c-.863-1.097-.679-2.667.358-3.761 1.05-.104 2.08.263 2.713 1.06l8.92 11.399c.874 1.107.68 2.668-.357 3.762Z"/>
    <path fill="#909496" d="M101.06 213.999a2.88 2.88 0 0 1-.446 1.232 3.599 3.599 0 0 0-1.018.563c.04-.16.069-.32.088-.49.01-.06.01-.12.01-.18a2.56 2.56 0 0 0-.536-1.728l-2.08-2.653-.582-.738a9.166 9.166 0 0 1 1.807-.796l.794 1.017 1.426 1.825c.442.568.614 1.268.537 1.948Z"/>
    <path fill="#75797C" d="M94.034 203.772a5.89 5.89 0 0 1-.853 1.993l-.552-.698-2.4-3.071a2.381 2.381 0 0 0-.482-.469 2.634 2.634 0 0 0-1.082-.506 3.128 3.128 0 0 0-.173-.839c-.05-.16-.111-.33-.192-.49.44-.121.9-.153 1.34-.094.77.087 1.481.444 1.964 1.063l1.446 1.855.984 1.256Z"/>
    <path fill="#E4E8E9" d="M165.461 199.714c-.051-.1-.111-.2-.171-.29a1.7 1.7 0 0 0-.111-.159.789.789 0 0 0-.12-.15c-.011-.02-.021-.03-.041-.05 0 0-.04-.06-.06-.079h-.01a3.05 3.05 0 0 0-.441-.439 3.716 3.716 0 0 0-.311-.229 3.324 3.324 0 0 0-1.542-.584c-.08 0-.17-.02-.25-.02-.1.001-.19-.019-.29.001h-.01c-.08.001-.15.001-.23.011-.06 0-.12.001-.17.021-.18.03-.35.071-.52.132a2.98 2.98 0 0 0-.559.242l-3.633 2.042-6.058 3.391-.818.463-4.691 2.627c-.37.211-.689.482-.948.803-.049.05-.099.11-.139.17a3.317 3.317 0 0 0-.467.892c-.04.09-.069.18-.089.28a3.204 3.204 0 0 0-.137.761s0 .02.01.03c-.01.03-.01.06-.01.1a.03.03 0 0 0 0 .04c-.019.2-.008.41.022.6-.02 0-.02-.02-.02-.03a3.164 3.164 0 0 1-.282-.649c-.03-.08-.05-.16-.061-.24 0 0-.01 0-.01-.01a3.844 3.844 0 0 1-.114-1.11c.009-.51.127-1.01.345-1.461a3.385 3.385 0 0 1 1.445-1.595l3.742-2.093 1.168-.654 6.897-3.864 3.403-1.902c.16-.09.33-.161.499-.222.43-.161.88-.213 1.33-.184.51.028 1.01.176 1.471.425a3.786 3.786 0 0 1 1.556 1.594c.09.17.171.36.232.539.02.04.03.07.04.11.081.25.142.49.163.74h-.01Z"/>
    <path fill="#75797C" d="M165.46 199.705c.186 1.479-.469 2.952-1.767 3.676l-15.21 8.513c-1.697.946-3.849.234-4.836-1.583a3.16 3.16 0 0 1-.012-.76c1.094 1.316 2.916 1.75 4.393.935l15.21-8.513c1.068-.604 1.704-1.716 1.78-2.927.171.2.321.409.442.659Z"/>
    <path fill="#AFB6BA" d="M165.018 199.056c-.075 1.2-.712 2.322-1.779 2.926l-15.211 8.513c-1.467.815-3.299.392-4.393-.935.066-1.2.712-2.322 1.78-2.926l15.21-8.513c1.477-.835 3.289-.401 4.393.935Z"/>
    <path fill="#75797C" d="M162.394 194.926c-.218.45-.357.921-.395 1.381-.45-.028-.9.023-1.329.185-.17.06-.34.131-.5.221l-3.403 1.902a8.64 8.64 0 0 1 .261-2.461l2.166-1.207a3.25 3.25 0 0 1 1.749-.416c.5-.002 1 .146 1.451.395Z"/>
    <path fill="#909496" d="m149.87 202.479-1.168.654-3.743 2.093a3.388 3.388 0 0 0-1.444 1.595 3.472 3.472 0 0 0-.345 1.461 4.534 4.534 0 0 0-.51-.088c-.01-.02-.01-.03-.011-.05l.001.05c-.05 0-.1-.01-.16-.009a4.013 4.013 0 0 1-.297-1.749c.066-1.221.702-2.373 1.79-2.977l2.146-1.207 1.816-1.007a8.098 8.098 0 0 1 1.925 1.234Z"/>
  </g>
  <defs>
    <clipPath id="a">
      <path fill="#fff" d="m76.081 188.55 101.2-.354.14 40.33-101.2.353z"/>
    </clipPath>
  </defs>
</svg>
