<svg xmlns="http://www.w3.org/2000/svg" width="251" height="415" fill="none" viewBox="0 0 251 415">
  <path fill="#DB3F32" d="M93.926 179.745c7.427 0 13.448-6.005 13.448-13.412 0-7.407-6.021-13.412-13.448-13.412-7.427 0-13.448 6.005-13.448 13.412 0 7.407 6.021 13.412 13.448 13.412Z"/>
  <path fill="#A03030" d="M102.98 156.416a13.314 13.314 0 0 1 1.707 6.534c0 7.406-6.022 13.412-13.448 13.412a13.429 13.429 0 0 1-9.053-3.495 13.448 13.448 0 0 0 11.74 6.878c7.427 0 13.449-6.006 13.449-13.412a13.36 13.36 0 0 0-4.395-9.917Z"/>
  <path fill="#E48686" d="M90.067 162.912c1.253-1.518 1.238-3.595-.033-4.639s-3.318-.66-4.571.858c-1.254 1.518-1.239 3.595.032 4.639 1.272 1.044 3.318.66 4.572-.858Z"/>
</svg>
