<svg xmlns="http://www.w3.org/2000/svg" width="250" height="414" fill="none" viewBox="0 0 250 414">
  <g clip-path="url(#a)">
    <path fill="#595959" d="M173.322 185.733c1.26-.538 6.39-1.387 6.39-1.387 1.709-.844 4.988-.844 6.269-2.117.261.931 2.154 2.551 0 6.397-2.149 3.836-6.552 6.108-11.315 5.896-.444-2.935-.899-5.865-1.344-8.805v.016Z"/>
    <path fill="#0C0C0C" d="M173.729 186.037c.372 1.144 1.752 2.122 1.71 4.229-.036 1.672.33 3.277.021 4.286 0 0 2.907-.238 3.828-.481 0 0 .883-4.369-1.71-9.307l-3.849.843v.43Z"/>
    <path fill="#202020" d="M174.77 186.84c-3.869-7.216-12.722-9.892-19.817-8.515-1.087.217-8.057 1.677-11.916 7.956-4.816 7.847-3.362 20.819 6.227 25.881 9.459 5.006 20.596-.994 24.931-8.68.381-.694 4.779-8.8.57-16.642h.005Zm-19.874 24.127c-5.501-1.507-8.283-6.098-9.26-8.081-2.85-5.813-2.034-13.354 2.645-18.448.288-.321 2.243-2.381 5.349-3.882a14.747 14.747 0 0 1 2.646-.357c-.329.181-.643.362-.941.543 0 0 0 .011-.011 0-.099.021-.198.042-.298.068-3.1 1.501-5.056 3.561-5.349 3.882-4.679 5.093-5.495 12.64-2.645 18.448.977 1.983 3.759 6.574 9.26 8.08.146.042.298.078.444.109a12.744 12.744 0 0 1-1.84-.362Z"/>
    <path fill="#595959" d="M172.778 204.957c-2.191 2.77-5.736 5.43-9.83 6.372 2.635-1.289 4.873-3.194 6.431-5.166 3.524-4.456 5.213-11.3 2.275-17.263-.335-.683-3.472-6.718-10.536-8.173a14.221 14.221 0 0 0-6.097.078c2.505-1.217 5.762-2.045 9.501-1.284 7.064 1.449 10.196 7.485 10.536 8.173 2.938 5.963 1.249 12.806-2.285 17.263h.005Z"/>
    <path fill="#908F8F" d="M163.764 210.904c-.267.145-.539.29-.816.429a13.47 13.47 0 0 1-6.217 0 7.165 7.165 0 0 1-.444-.108c-5.501-1.506-8.282-6.098-9.26-8.08-2.85-5.813-2.034-13.355 2.646-18.449.287-.321 2.243-2.381 5.349-3.882.099-.021.198-.041.298-.067.01.01.01 0 .01 0 .748-.15 1.522-.254 2.337-.29-2.63 1.439-4.256 3.163-4.522 3.453-4.68 5.093-5.496 12.64-2.646 18.448.978 1.982 3.759 6.574 9.26 8.08.146.041.298.078.444.109.596.15 1.198.248 1.783.3.607.062 1.192.083 1.773.057h.005Z"/>
    <path fill="#0C0C0C" d="M156.731 211.329a12.48 12.48 0 0 1-1.84-.362c-5.501-1.506-8.283-6.098-9.26-8.08-2.85-5.813-2.034-13.355 2.645-18.448.288-.321 2.243-2.381 5.349-3.883.842-.191 1.72-.315 2.651-.357-.329.181-.643.363-.941.549 0 0 0 .01-.01 0-.1.021-.199.041-.299.067-3.105 1.501-5.061 3.561-5.348 3.882-4.68 5.094-5.496 12.641-2.646 18.449.978 1.982 3.759 6.574 9.26 8.08.146.041.298.077.444.109l-.005-.006Z"/>
    <path fill="#908F8F" d="M162.368 210.651c-.126.068-.246.14-.377.197-.141.088-.287.155-.439.233a13.62 13.62 0 0 1-4.821.254c-.146-.031-.298-.073-.444-.109-5.501-1.506-8.282-6.098-9.26-8.08-2.85-5.813-2.034-13.355 2.646-18.448.287-.321 2.243-2.382 5.349-3.883.099-.02.198-.046.298-.067-2.066 1.304-3.331 2.65-3.566 2.909-4.68 5.094-5.496 12.641-2.646 18.448.978 1.983 3.759 6.574 9.26 8.081a12.6 12.6 0 0 0 1.841.362c.732.098 1.453.129 2.164.103h-.005Z"/>
    <path fill="#747174" d="M169.379 206.169c-1.391 1.76-3.331 3.468-5.615 4.736a13.398 13.398 0 0 1-4-.466c-5.501-1.506-8.283-6.098-9.26-8.08-2.85-5.813-2.034-13.355 2.645-18.448.267-.29 1.893-2.014 4.523-3.453a13.96 13.96 0 0 1 3.446.28c7.064 1.449 10.206 7.485 10.536 8.173 2.938 5.963 1.249 12.806-2.275 17.263v-.005Zm-95.785 7.184C90 209.234 88.5 195.5 87.5 195.5c0 0-13.906-1-27-12-.767-.644-11.5 6-8.502 18.805 2.208 8.542 11.877 13.489 21.596 11.048Z"/>
    <path fill="#202020" d="M73.266 212.083c8.92-2.24 14.76-9.243 12.734-17.084-12.734-1.5-23.824-10.044-24-10-7 1.758-10.58 9.101-8.554 16.942 2.027 7.841 10.9 12.382 19.82 10.142Z"/>
    <path fill="#4A494A" d="M71.794 204.308c4.687-1.705 7.172-7.381 5.706-11.308-6-2-9-4-9-4-4.687 1.705-9.312 7.357-7.846 11.284 1.465 3.928 6.452 5.729 11.14 4.024Z"/>
    <path fill="#000" d="M164.445 187.889c-.003-.01-.013-.006-.016-.016-.013-.005-.013-.005-.017-.015a7.484 7.484 0 0 0-9.842 3.73 7.465 7.465 0 0 0 1.396 8.246c.126.136.27.233.426.304.664.301 1.51.027 1.835-.688a1.402 1.402 0 0 0-.245-1.547 4.672 4.672 0 0 1-.873-5.152 4.654 4.654 0 0 1 6.154-2.316c2.331 1.068 3.353 3.824 2.297 6.161a4.666 4.666 0 0 1-4.458 2.727 1.4 1.4 0 0 0-1.327.831 1.376 1.376 0 0 0 .687 1.835c.156.071.324.116.509.122a7.464 7.464 0 0 0 7.134-4.365c1.698-3.732.06-8.133-3.66-9.857Zm-8.48 15.687a1.696 1.696 0 1 0 3.178-1.19 1.696 1.696 0 0 0-3.178 1.19Z"/>
  </g>
  <defs>
    <clipPath id="a">
      <path fill="#fff" d="M49 177h138v37H49z"/>
    </clipPath>
  </defs>
</svg>
