<svg xmlns="http://www.w3.org/2000/svg" width="250" height="414" fill="none" viewBox="0 0 250 414">
  <path fill="#35A84C" d="M197.56 286.02c.41 2.31.73 5.03.74 7.9.01 3.54-.47 7.25-1.87 10.59-.09.23-.19.45-.3.67-.56 1.2-1.24 2.34-2.07 3.4-.13.16-.27.32-.4.48-.03.04-.05.07-.08.09-.16.19-.33.38-.51.56-.18.2-.37.39-.57.57-.39.37-.81.73-1.25 1.07-.22.17-.45.33-.68.5-.2.14-.41.27-.63.41-.05.03-.09.06-.14.09-.21.13-.43.25-.65.38-.05.02-.1.05-.15.08-.21.11-.42.22-.64.33-.1.05-.19.09-.29.14-.21.1-.42.19-.63.28-.58.26-1.18.48-1.82.68-1.97.64-4.24 1.06-6.83 1.22-3.25.04-5.83-.97-7.81-2.35-.53-.35-1.01-.74-1.45-1.14-.52-.46-.99-.94-1.4-1.41 0 0-.11-.12-.28-.33-.11-.13-.21-.25-.31-.38-.35-.46-.82-1.1-1.27-1.86a.169.169 0 0 1-.02-.05c-.04-.06-.07-.12-.11-.18 0-.02-.02-.04-.03-.05-.13-.23-.24-.44-.33-.61-.12-.24-.24-.49-.35-.74 0 0-.01-.02-.01-.03 0 0-1.87-.32-3.23-2.08-.26-.3-.48-.65-.67-1.05-.27-.53-.58-2.06-.88-4.08-.54-3.52-1.11-8.47-1.48-11.98-.07-.63-.13-1.21-.18-1.73l-.09-.87c-.04-.39-.07-.73-.1-1l-.04-.36-.03-.33s-4.18-3.38-3.28-9.75c.2-1.36 1.18-2.48 2.48-2.92.1-.03.2-.06.31-.1l.18-.06c.16-.06.33-.11.5-.17h.02c.12-.04.24-.08.37-.12.24-.08.48-.16.74-.24.22-.08.45-.15.69-.23 1.33-.42 2.9-.89 4.65-1.38.45-.12.91-.25 1.39-.37.44-.12.9-.24 1.36-.36 1.05-.26 2.14-.52 3.27-.77.48-.1.98-.21 1.48-.31a80.55 80.55 0 0 1 5.58-.97c.31-.05.63-.09.94-.13.33-.04.66-.09.99-.12.57-.07 1.14-.13 1.71-.19.05 0 .09 0 .14-.01.42-.03.85-.07 1.27-.1.15 0 .29-.02.44-.03.58-.04 1.17-.08 1.77-.1.8-.03 1.61-.05 2.41-.05.38 0 .77 0 1.16.02h.23c.24.01.49.01.73.02.15.01.31.01.47.02l.63.03.79.06c.32.02.63.05.95.08.85.08 1.66.46 2.27 1.06 1.98 1.91 5.49 6.73.64 13.88 0 0 .08.22.2.63l.18.62c0 .04.02.08.03.12.04.12.07.25.11.39.02.08.05.17.07.26.02.06.03.12.05.18.29 1.08.62 2.51.91 4.17v.1l.01.01Z"/>
  <path fill="#257435" d="M196 279.55c-1.41-.62-2.87-1.09-4.36-1.45a29.59 29.59 0 0 0-3.36-.61c-.8-.11-1.59-.18-2.39-.23-.62-.04-1.24-.06-1.86-.07-2.64-.04-5.27.18-7.76.54-.66.1-1.32.21-1.96.33-1.28.23-2.51.5-3.68.79-3.08.73-5.77 1.6-7.8 2.35-.04 0-.07.03-.11.04-2.49.9-3.99 1.61-3.99 1.61s-4.18-3.38-3.28-9.75c.2-1.36 1.18-2.48 2.48-2.92.1-.03.2-.06.31-.1l.18-.06c.05-.02.1-.03.16-.05.11-.04.23-.08.36-.12.12-.04.24-.08.37-.12.24-.08.48-.16.74-.24.04-.01.09-.03.13-.04.18-.06.37-.12.56-.19 1.33-.42 2.9-.89 4.65-1.38.45-.13.91-.25 1.38-.38.45-.12.9-.23 1.37-.35 1.05-.26 2.14-.52 3.27-.77.48-.1.98-.21 1.48-.31a80.55 80.55 0 0 1 5.58-.97c.31-.05.63-.09.94-.13.33-.04.66-.09.99-.12.57-.07 1.14-.13 1.71-.19.05 0 .09 0 .14-.01.42-.03.85-.07 1.27-.1.15 0 .29-.02.44-.03.59-.05 1.18-.08 1.77-.1.8-.03 1.61-.05 2.41-.05.38 0 .77 0 1.16.02h.23c.24.01.49.01.73.02.15.01.31.01.47.02l.63.03c.13 0 .25.02.38.03l.41.03c.32.02.63.05.95.08.85.08 1.66.46 2.27 1.06 1.98 1.91 5.49 6.73.64 13.88l-.01.01Z"/>
  <path fill="#8BDA9B" d="M198.3 293.92c-2.21 2.91-6.28 8.13-7.2 8.61-1.27.67-8.12-6.13-8.12-6.13l-6.33 7.1s-7.7-6.57-7.76-7.23c-1.73 2.46-5.02 6.14-6.72 7.99-.25-.3-.48-.66-.67-1.05-.27-.53-.58-2.06-.88-4.08 2.04-2.89 7.13-9.95 8.82-10.73 4.09 3.3 6.6 7.25 6.6 7.25s5.75-7.89 6.73-8.48c.98-.59 7.68 8.45 7.68 8.45l7.09-9.69v.1l.75 7.9.01-.01Z"/>
  <path fill="#00181C" d="M170.62 278.84c-3.13.74-5.86 1.64-7.91 2.4-1.66-2.28-4.26-6.64-3.4-11.51 1.88-.62 4.44-1.43 7.46-2.23 1.68 1.46 4.09 7.97 3.85 11.35v-.01Zm13.4-1.65c-.05.71-.14 1.39-.25 2.04-3.26-.2-6.55.14-9.64.75.09-.61.15-1.26.17-1.92.13-3.69-.83-8.05-2.9-11.68.48-.1.98-.21 1.48-.31a80.55 80.55 0 0 1 5.58-.97c.31-.05.63-.09.94-.13.33-.04.66-.09.99-.12.57-.07 1.14-.13 1.71-.19 1.74 4.21 2.23 8.75 1.92 12.53Z" opacity=".3"/>
  <path fill="#257435" d="M196 279.54a25.89 25.89 0 0 0-4.36-1.44c.99-5.08.37-9.96-2.34-13.71 1.28.02 2.54.1 3.79.22.86.08 1.66.46 2.27 1.06 1.98 1.91 5.49 6.73.64 13.88v-.01Z"/>
  <path fill="#1A582E" d="M196 279.54a25.89 25.89 0 0 0-4.36-1.44c-1.89-.46-3.81-.73-5.75-.84h-.01c-3.26-.21-6.54.02-9.62.47-1.97.29-3.88.68-5.65 1.11-3.13.74-5.86 1.64-7.91 2.4-2.49.9-3.99 1.6-3.99 1.6l.44 4.29s15.56-9.19 37.65-4.69c-.54-2.2-.81-2.9-.81-2.9h.01Z"/>
  <path fill="#00181C" d="M198.3 293.93c0-2.88-.33-5.6-.73-7.91v-.1c-.69-3.79-1.56-6.38-1.56-6.38 4.85-7.15 1.34-11.97-.64-13.88-.61-.6-1.42-.97-2.27-1.06-2.22-.22-4.48-.26-6.73-.19 1.84 2.46 2.61 5.73 2.67 8.82.02 1.25-.2 2.45-.55 3.65-.34 1.16-.96 2.39-.67 3.62.24 1.04.99 2 1.43 2.97.43.94.79 1.91 1.11 2.89 1.5 4.61 1.78 9.66.99 14.44-.76 4.58-2.64 9.61-5.71 13.44 10.22-3.28 12.7-12.29 12.68-20.31h-.02Z" opacity=".3"/>
  <path fill="#257435" d="M172.23 295.69s1.84 10.2-6.8 10.64c1.01 2.37 2.71 4.23 2.71 4.23s8.66-3.45 4.09-14.87Z"/>
  <path fill="#1F79CC" d="M32.056 283.947c5.066-.987 21.35-4.78 36.312-15.131.792-.547 1.893-.246 2.275.636 7.305 16.911 10.349 27.281 10.349 27.281s2.58 6.712-1.876 9.407c-4.455 2.695-25.06 10.836-30.516 11.12-4.183.215-6.695-2.171-7.659-4.955-1.155-3.347-7.876-21.166-9.91-26.54a1.352 1.352 0 0 1 1.014-1.816l.01-.002Z"/>
  <path fill="#69A3D9" d="M47.667 316.021c-2.723-3.002-4.214-7.305-5.647-11.037-1.539-4.007-2.74-8.15-4.383-12.108-1.204-2.906-2.682-6.643-2.045-9.698-1.466.352-2.668.601-3.535.78a1.352 1.352 0 0 0-1.013 1.816c2.034 5.374 8.754 23.193 9.91 26.541.963 2.783 3.474 5.158 7.659 4.954.11-.015.242-.023.374-.03a11.29 11.29 0 0 1-1.297-1.21l-.023-.008Z"/>
  <path fill="#0E4B83" d="M80.992 296.733s-3.044-10.37-10.35-27.281c-.38-.882-1.482-1.183-2.274-.636-5.735 3.969-11.674 6.974-17.096 9.227 1.352.254 2.713.417 4.082.245 2.818-.333 5.3-2.012 8.103-2.443 4.658-.717 6.758 4.102 8.013 7.759.61 1.786 1.027 3.622 1.648 5.406.928 2.689 2.112 5.297 2.61 8.102 1.028 5.751-1.55 9.896-5.462 13.116 3.99-1.648 7.34-3.182 8.85-4.088 4.456-2.695 1.876-9.407 1.876-9.407Z"/>
  <path fill="#F2E1D6" d="M36.47 251.115c4.276-2.469 15.972-7.796 20.302 4.643 7.861-1.472 13.16 7.508 11.585 13.06-1.575 5.552-31.362 16.936-36.312 15.131-4.95-1.806-3.283-9.701-.562-10.556-6-.33-6.88-8.733-2.443-10.934 4.24-2.096 19.712-10.969 7.676-10.476-.487.025-.69-.627-.267-.865l.021-.003Z"/>
  <path fill="#fff" d="M48.938 298.585s-.255.326-.57.694l-.582.695-.319.112-.318.112-1.194-.243c-1.24-.258-1.44-.252-1.737-.065-.417.282-.582.774-.429 1.22.182.498.379.626 1.251.725 1.09.136 1.088.125-.065 1.426-.588.651-.928 1.079-.975 1.219-.18.461.029 1.066.451 1.296.169.088.589.14.873.099.317-.045.543-.255 1.376-1.221.45-.521.867-.959.93-.99.201-.073.284.038.523.706.259.721.387.915.699 1.071.552.279 1.199-.114 1.305-.776l.04-.273-.413-1.179c-.557-1.57-.559-1.503.243-2.453.239-.279.395-.435.495-.516 1.317-1.012 2.255.337 2.255.337.19-.071.234.001.51.764.224.637.264.765.233.937-.036.295-.111.395-.849 1.246-.88 1.028-.901 1.031-.934 1.348-.079.624.375 1.151.987 1.142.31-.011.537-.143.946-.636.605-.688.574-.672.736-.629l.139.037.475 1.303.476 1.315.192.173c.292.249.728.343 1.056.218.328-.124.605-.453.683-.844l.043-.251-.455-1.318-.453-1.306.085-.113c.104-.126.07-.132.973.029.48.077.626.09.851.024.557-.157.81-.661.605-1.234a1.125 1.125 0 0 0-.542-.603c-.085-.043-.67-.161-1.288-.274-.813-.152-1.183-.245-1.34-.334l-.208-.126-.29-.784c-.319-.835-.319-.914-.117-.987 0 0-.155-1.717 1.51-1.618.054-.008.45.036.895.106.629.112.838.171.977.285l.187.141.467 1.249c.447 1.185.48 1.259.645 1.402.588.53 1.56.147 1.615-.641.018-.181-.014-.333-.198-.842-.24-.668-.243-.846-.052-.917.064-.021.632.055 1.273.175 1.122.209 1.19.211 1.49.124.74-.206 1.066-.888.73-1.531-.23-.447-.351-.508-1.67-.766-.654-.13-1.24-.259-1.3-.284-.082-.033-.124-.094-.15-.191-.04-.128-.004-.188.37-.62.209-.253.428-.518.464-.579.248-.448.007-1.127-.486-1.38-.253-.132-.443-.138-.72-.043-.234.078-.301.154-1.04.995-.834.954-1.022 1.126-1.306 1.166-.197.028-1.583-.154-1.704-.226-1.637-.849-.817-2.459-.817-2.459.025-.06.245-.392.51-.719.465-.579.493-.617.747-.708.255-.092.311-.089 1.492.145.667.139 1.305.238 1.416.233.342-.026.623-.244.76-.609.1-.237.079-.468-.078-.792-.176-.376-.382-.492-1.147-.617-.376-.058-.712-.145-.75-.184-.155-.145-.075-.29.75-1.232.91-1.054 1.034-1.273.99-1.668a1.11 1.11 0 0 0-1.46-.93c-.2.073-.32.18-1.118 1.073-.49.549-.937 1.014-1.001 1.034-.202.073-.3-.069-.562-.812-.238-.657-.244-.701-.433-.853-.265-.218-.56-.255-.974-.107-.382.133-.541.267-.639.604l-.068.221.477 1.404c.598 1.777.61 1.63-.205 2.56-.432.485-.615.377-.795.525-1.409 1.147-2.047-.445-2.047-.445-.212.075-.255.014-.532-.839l-.267-.787.078-.234c.056-.153.298-.488.872-1.16.439-.52.826-1.009.87-1.094.191-.384.054-.877-.316-1.125-.344-.23-.538-.258-.91-.128-.307.111-.338.126-.75.608-.526.61-.546.624-.707.591-.092-.024-.296-.467-.612-1.329l-.417-1.289-.192-.174c-.265-.218-.704-.323-1.005-.247-.128.04-.256.081-.286.107-.207.186-.417.517-.462.746l-.043.251.444 1.32.453 1.306-.085.113c-.104.126-.07.132-.96-.02-.79-.133-1.133-.04-1.392.409-.278.475-.045 1.177.465 1.395.085.043.634.144 1.23.26 1.202.219 1.306.249 1.526.463.13.127.178.231.405.89l.252.756-.095.114c.39 1.65-1.462 1.634-1.462 1.634-.01.247-.278.24-.918.131-1.202-.22-1.138-.162-1.711-1.764-.428-1.21-.43-1.221-.62-1.384a1.683 1.683 0 0 0-.456-.225c-.47-.1-.842.031-1.036.393-.207.352-.191.539.089 1.336.221.615.246.712.191.798a.286.286 0 0 1-.146.143c-.044.006-.623-.068-1.29-.207-1.34-.256-1.554-.27-1.802-.135-.238.134-.517.442-.597.665-.18.46.052 1.074.486 1.302.11.074.605.182 1.334.29 1.39.215 1.448.229 1.501.367.04.128-.06.287-.5.795-.172.203-.353.418-.386.501a1.021 1.021 0 0 0-.057.777c.22.604.708.825 1.286.576.293-.131.323-.158 1.056-1.042.8-.961.978-1.12 1.298-1.143.154-.011.861.101 1.436.22 1.423.523 1.324 2.264 1.324 2.264l.017.043Z"/>
  <path fill="#E5C5AE" d="M56.771 255.758c-4.329-12.439-16.025-7.112-20.3-4.643-.422.249-.22.889.267.865.332-.014.634-.012.922-.02 2.24-.708 4.478-1.516 6.857-1.329 2.67.2 5.463 1.498 6.919 3.822 2.087 3.316.66 6.227-1.533 8.835.236-.145.473-.279.709-.424 1.02-.591 2.096-1.1 3.058-1.783.668-.474 1.262-1.004 2.105-1.112 3.292-.445 4.927 3.77 5.039 6.363.139 3.18-1.426 6.523-3.53 8.828-1.398 1.537-3.14 2.687-5.012 3.644 7.954-3.259 15.307-7.301 16.074-9.985 1.575-5.552-3.733-14.519-11.586-13.059l.011-.002Z"/>
  <path fill="#fff" d="M34.514 275.505c-.059-.571.455-1.035.931-1.214 2.499-.934 4.893-2.288 7.087-3.792 1.24-.845 3.08-2.099 4.102-3.615-2.208 1.016-4.311 2.296-6.65 3.018-3.324 1.006-6.419.253-8.828-2.27a1.298 1.298 0 0 1-.02-1.792c3.389-3.692 8.96-4.493 12.209-8.31.468-.546.98-1.265.85-2.027-.178-1.011-1.26-1.727-2.108-2.12a16.093 16.093 0 0 0-.923-.381c.865 2.329-8.886 7.849-12.114 9.455-4.436 2.202-3.556 10.605 2.444 10.935-2.721.854-4.398 8.751.562 10.555 1.4.515 4.789-.033 8.959-1.205-3.465-.69-6.023-2.768-6.5-7.237Z"/>
</svg>
