<svg xmlns="http://www.w3.org/2000/svg" width="250" height="414" fill="none" viewBox="0 0 250 414">
  <path fill="#74A6B7" d="M149.789 194.08s7.83-1.42 10.61-2.03c-2.06 2.96-8.91 12.33-11.25 39.12-.96 2.04-7.13 5.68-10.19-.2-.58-6.45 2.38-26.84 10.83-36.89Z"/>
  <path fill="#10343A" d="M145.79 215.61a1.14 1.14 0 1 0 .001-2.279 1.14 1.14 0 0 0-.001 2.279Z"/>
  <path fill="#C6C6C6" d="M152.969 207.95c-3.18-2.62-7.51-2.08-10.07-1.41-1.34.35-2.4 1.37-2.79 2.7-.72 2.45-1.77 6.75-1.6 10.64.04.95.63 1.79 1.49 2.19 2.82 1.29 7.2.9 9.51.56a2.52 2.52 0 0 0 2.05-1.74c.57-1.85 1.5-5.46 2.14-11.09a2.09 2.09 0 0 0-.73-1.84v-.01Zm-3.88 9.78c-.16.52-.61.91-1.15.98-1.29.19-3.75.41-5.33-.32-.48-.22-.81-.7-.83-1.23-.1-2.2.49-4.64.89-6.02.22-.75.81-1.33 1.56-1.53 1.44-.37 3.87-.68 5.65.8.3.25.45.65.41 1.04-.35 3.19-.87 5.24-1.19 6.28h-.01Z"/>
  <path fill="#4E7D89" d="m154.219 230.46 4.68 39.09-7.39 4.79-1.96-29.79-.58-8.72s1.97-5.94 5.25-5.36v-.01Z"/>
  <path fill="#3C6C77" d="m148.969 235.82.58 8.72 7 5.35-2.33-19.43s-4.58.15-5.25 5.36Z"/>
  <path fill="#74A6B7" d="M131.8 240.1s-1.44 4.05-2.9 9.2c-.46 1.63-.93 3.38-1.35 5.14-.98 4.1-1.26 8.32-1.2 11.42.03 1.93 1.1 3.7 2.77 4.69 5.11 3.02 13.46 5.03 22.39 3.78-.28-7.16-.59-14.43-.86-20.34-.07-1.55-.14-3-.2-4.33-.24-5.18-.41-8.55-.41-8.55l-18.23-1.02-.01.01Z"/>
  <path fill="#4E7D89" d="M136.02 229.07c3.69.05 15 .27 18.2 1.39-1.89.53-2.28 5.62-2.14 10.89.02.93-.33 1.82-1 2.47-4.28 4.2-8.81 8.06-10.8 9.71-.56.47-1.4.37-1.83-.22l-7.57-10.18c-.47-.63-.67-1.41-.57-2.19.33-2.42 1.31-7.84 3.73-10.95.47-.6 1.2-.93 1.97-.92h.01Z"/>
  <path fill="#C6C6C6" d="M143.214 244.326a3 3 0 1 0-5.997-.22 3 3 0 0 0 5.997.22Z"/>
  <path fill="#4E7D89" d="M150.639 254c-.07-1.55-.14-3-.2-4.33l-11.32 8.95c-.41.32-1 .28-1.36-.11l-8.86-9.21c-.46 1.63-.93 3.38-1.35 5.14l9.64 9.99c.4.44 1.08.47 1.53.08l11.92-10.52v.01Zm4.141-51.06c2.3-6.24 4.58-9.39 5.62-10.89-2.78.62-10.61 2.03-10.61 2.03-2.24 2.67-4.1 6.07-5.61 9.75l10.6-.89Z"/>
  <path fill="#10343A" d="M149.31 204.38a1.14 1.14 0 1 0 .001-2.279 1.14 1.14 0 0 0-.001 2.279Zm2.119-4.52a1.14 1.14 0 1 0 .001-2.279 1.14 1.14 0 0 0-.001 2.279Z"/>
  <path fill="#8E8E8E" d="M144.99 214.14s.08.65.81.62c.5-.02.89-.43.88-.9-.02-2.73.08-4.82 1.46-6.35a.47.47 0 0 0-.12-.74c-.4-.21-.97-.25-1.6.24-1.41 1.09-1.91 5.4-1.44 7.14l.01-.01Z"/>
  <path fill="#A09F9F" d="M152.97 207.95s-.04-.03-.06-.04c-.1 2.85-.23 5.65-.92 8.41-.5 2.01-.9 3.99-2.88 5.03-1.61.85-3.98.77-5.75.74-1.59-.03-3.1-.27-4.45-.97.26.4.63.73 1.08.94 2.82 1.29 7.2.9 9.51.56a2.52 2.52 0 0 0 2.05-1.74c.57-1.85 1.5-5.46 2.14-11.09a2.09 2.09 0 0 0-.73-1.84h.01Z"/>
</svg>
