<svg xmlns="http://www.w3.org/2000/svg" width="250" height="415" fill="none" viewBox="0 0 250 415">
  <path fill="#727374" d="M82.278 196.556c2.319 3.478 5.157 6.683 8.044 9.69 6.53 6.799 14.104 12.727 22.453 17.117a64.96 64.96 0 0 0 1.823.926c.792.388 1.712.983 2.599 1.024.297.012.466-.054.705-.12.429-.124.854-.264 1.279-.4 1.96-.637 3.898-1.33 5.821-2.066 6.979-2.656 13.794-5.791 20.295-9.475 8.069-4.573 15.791-10.05 22.201-16.795a63.078 63.078 0 0 0 2.339-2.598c.701-.822.425-2.375-.437-3.172-.772-.707-2.723-.215-3.049.128-1.778 1.846-3.093 4.151-5.094 6.001a75.827 75.827 0 0 1-3.02 2.648 73.69 73.69 0 0 1-1.584 1.289c-.247.198-.495.392-.742.586-.285.223.284-.219-.099.079-.153.12-.31.235-.462.351-4.175 3.16-8.609 5.977-13.188 8.513a142.597 142.597 0 0 1-12.342 6.064c-.446.194-.891.38-1.333.57.677-.289-.107.045-.276.115-.219.091-.437.182-.66.273-.825.339-1.654.673-2.487.995-1.374.537-2.752 1.05-4.142 1.545-1.39.496-2.817.901-4.208 1.396-.02.009-.041.013-.057.017l1.588.206a78.31 78.31 0 0 1-11.352-6.485 77.126 77.126 0 0 1-2.401-1.71c-.404-.301-.809-.603-1.209-.908-.07-.054-.165-.149-.239-.182.318.144.19.149.062.049-.231-.181-.466-.363-.697-.549a88.385 88.385 0 0 1-4.208-3.56 93.077 93.077 0 0 1-10.964-11.731 10.864 10.864 0 0 0 .103.132c-.07-.091-.136-.182-.207-.273-.115-.148-.226-.301-.338-.45-.177-.239-4.53-1.227-4.53-1.227-.894.579-.614 1.029.026 1.991l-.013-.004Z"/>
  <path fill="#727373" d="M108.25 227.428a.81.81 0 0 1-.107-1.177c1.741-1.925 7.516-7.051 15.762-1.582 8.584 5.692.907 16.443-1.617 18.703-3.226 2.883-9.15 8.009-14.731 9.401a.475.475 0 0 1-.536-.669l4.31-8.856-4.063-3.21a.83.83 0 0 1-.124-1.185l6.18-7.46-5.07-3.961-.004-.004Z"/>
  <path fill="#C4C4C4" d="m111.686 242.389-3.824-3.024a.783.783 0 0 1-.12-1.115l2.467-2.978 2.685-3.238.665-.806-4.773-3.73a.758.758 0 0 1-.099-1.107c.049-.058.103-.115.161-.177.305-.323.713-.719 1.208-1.124 2.463-2.011 7.207-4.341 13.465-.19 4.723 3.135 4.216 7.898 2.504 11.735a19.923 19.923 0 0 1-.801 1.594c-.346.62-.713 1.198-1.076 1.723-.809 1.165-1.605 2.069-2.145 2.552l-.458.409c-3.115 2.764-8.407 7.192-13.411 8.439a.445.445 0 0 1-.503-.628l4.055-8.335Z"/>
  <path fill="#E2E2E2" d="M120.254 223.231c-2.904 3.296-9.813 11.706-9.813 11.706l-2.698 3.313c-.28.339-.264.834.136 1.132l.231.181c4.546-5.229 7.863-9.029 13.679-15.671a26.6 26.6 0 0 0-1.535-.661Zm5.61 3.875c-.631-.868-1.547-1.814-2.537-2.338-1.316 1.631-10.857 11.706-14.083 15.663l2.442 1.933s14.483-14.837 14.178-15.258Z"/>
  <path fill="#F0EFEF" d="m122.777 225.34 1.167-.582c.351-.174.636-.459.809-.81l.586-1.169a.23.23 0 0 1 .305-.103.233.233 0 0 1 .103.103l.582 1.169c.173.351.457.636.808.81l1.167.586c.112.058.157.19.104.306a.23.23 0 0 1-.104.103l-1.167.583a1.778 1.778 0 0 0-.808.809l-.582 1.169a.23.23 0 0 1-.305.103.215.215 0 0 1-.103-.103l-.582-1.169a1.78 1.78 0 0 0-.809-.809l-1.167-.587a.228.228 0 0 1 0-.405l-.004-.004Zm.144-2.763.499-.252a.097.097 0 0 0 .042-.132.086.086 0 0 0-.042-.042l-.499-.252a.78.78 0 0 1-.346-.347l-.252-.499c-.025-.05-.082-.066-.132-.042a.084.084 0 0 0-.041.042l-.252.499a.78.78 0 0 1-.346.347l-.499.252c-.05.025-.066.083-.042.133.009.02.025.033.042.041l.499.252a.78.78 0 0 1 .346.347l.252.5a.096.096 0 0 0 .132.041.078.078 0 0 0 .041-.041l.252-.5a.78.78 0 0 1 .346-.347Z"/>
</svg>
