<svg xmlns="http://www.w3.org/2000/svg" width="251" height="415" fill="none" viewBox="0 0 251 415">
  <path fill="#D26B38" fill-rule="evenodd" d="M106.073 237.019s44.687 20.983 67.015-29.914l-70.051 10.191 3.036 19.723Z" clip-rule="evenodd"/>
  <path fill="#EFAE42" fill-rule="evenodd" d="m85.154 197.671-2.535 95.366 22.294.004 1.491-72.053-21.25-23.317ZM141 232.091v29.41h22.505l-.695-49.377L141 215.78v16.311Z" clip-rule="evenodd"/>
  <path fill="#DF8F3E" fill-rule="evenodd" d="M161.815 217.295s-11.857 8.58-20.811 9.307v5.493s17.258-6.043 21.925-11.644v-3.949l-1.114.793Zm-55.492 7.679s-14.148-5.77-21.255-24.163l-.17 6.294s5.99 19.174 21.288 24.42l.137-6.551Z" clip-rule="evenodd"/>
  <path fill="#000" d="M105.366 270.613H83.043v1.239h22.323v-1.239Zm.464-21.905H83.764v1.239h22.066v-1.239Zm.493-21.809H84.352v1.239h21.971v-1.239Zm-6.783 11.206a8.96 8.96 0 0 1-.071 1.239h6.56v-1.239h-6.49Zm52.265-11.218c.418-.005.832.016 1.242.07v-6.543h-1.242v6.473Zm0 21.669c.418-.005.832.016 1.242.07v-6.543h-1.242v6.473Zm-52.598 11.416c.004.417-.016.83-.07 1.239h6.56v-1.239h-6.49Zm-.336 22.363c.004.417-.016.83-.07 1.239h6.56v-1.239h-6.49Z"/>
  <path fill="#000" d="M163.236 241.628h-22.261v1.24h22.261v-1.24Z"/>
  <path fill="#221F20" d="M89.55 215.689h-.812c-.302 0-.501.078-.596.239-.1.157-.145.504-.145 1.041v.442h-1.59v-7.005h1.59v.483c0 .566.05.938.153 1.119.103.182.402.273.899.273h.505v-5.44h1.934l5.939 5.456v3.396H91.09v1.718h-1.536v-1.718l-.004-.004Zm1.536-6.874v3.466l3.864.033-3.864-3.499Z"/>
  <path fill="#000" d="M162.95 219.98h-21.971v1.239h21.971v-1.239Z"/>
  <path fill="#EFAE42" d="M83.043 194.747s6.556 28.963 33.919 33.631c0 0 37.635 5.456 59.863-26.08 0 0-3.326-9.344-9.816-11.487 0 0-9.057 2.156-13.062 2.75 0 0-9.737 12.132-27.571 12.723-10.954.363-19.01-8.662-19.01-8.662s-17.709-1.016-24.323-2.875Z"/>
  <path fill="#DF8F3E" fill-rule="evenodd" d="M114.986 203.413s-28.916-5.407-31.997-8.53l24.377 2.739s3.102 3.341 7.62 5.787" clip-rule="evenodd"/>
  <path fill="#000" d="m94.274 215.85-.796-.996 13.15-17.315.737.083.24.256-13.331 17.972Zm35.623 12.602-1.243.099v-22.408l1.243-.132v22.441Z"/>
  <path fill="#DF8F3E" fill-rule="evenodd" d="M137.301 204.359s31.02-2.842 37.585-5.866c0 0-3.028-6.431-7.998-7.645 0 0-11.741 2.527-13.062 2.751 0 0-5.894 6.815-16.529 10.755" clip-rule="evenodd"/>
  <path fill="#000" d="m119.087 240.699-.994-.173-.116-12.033 1.242.1-.132 12.106Zm43.429-23.899-12.993-19.046.729-.711 13.266 19.038-1.002.719Z"/>
  <path fill="#221F20" d="M92.896 273.591h1.607c.058.735.203 1.317.439 1.743.232.429.559.718.977.871v2.854H87.23c-.302 0-.501.079-.596.24-.1.157-.145.504-.145 1.041v.413h-1.59v-7.167h1.59v.496c0 .57.05.942.149 1.119.1.178.393.265.882.265h5.372v-1.875h.004Zm-7.484-21.694c.046 0 .116 0 .203-.008.087-.004.154-.009.195-.009.832 0 1.557.166 2.183.5.625.335 1.238.884 1.839 1.652.248.31.571.798.977 1.463.402.665.716 1.144.94 1.445.178.236.402.422.671.554.27.136.56.202.865.202.473 0 .841-.169 1.115-.508.269-.339.405-.801.405-1.388 0-.376-.062-.71-.182-1.008a2.163 2.163 0 0 0-.542-.78v.087c0 .429-.112.764-.336.999-.223.236-.538.355-.944.355-.53 0-.948-.161-1.25-.479-.303-.318-.456-.756-.456-1.309 0-.554.174-1.004.526-1.33.352-.331.82-.492 1.408-.492 1.085 0 1.975.455 2.68 1.363.7.909 1.051 2.074 1.051 3.495 0 1.421-.348 2.61-1.04 3.507-.69.9-1.59 1.346-2.691 1.346-.903 0-1.632-.297-2.191-.892-.56-.595-1.06-1.627-1.503-3.102-.046-.169-.116-.413-.203-.731-.406-1.446-.883-2.26-1.425-2.441.211.4.373.789.476 1.173.108.38.157.768.157 1.152 0 .384-.07.884-.215 1.471-.145.586-.215.974-.215 1.164 0 .252.103.442.306.57.203.124.51.19.924.19h.157v1.843c-.078.004-.157.012-.248.012-.087 0-.216.004-.381.004-1.243 0-2.15-.252-2.717-.747-.568-.496-.853-1.289-.853-2.371 0-.653.14-1.446.422-2.38.282-.933.422-1.532.422-1.788 0-.24-.04-.434-.128-.578a.743.743 0 0 0-.41-.314v-1.896l.008.004Zm5.442-18.269h1.52c.03.64.158 1.115.381 1.421.224.305.564.458 1.015.458.53 0 .957-.178 1.276-.537.318-.359.48-.838.48-1.446 0-.363-.05-.673-.153-.921a1.568 1.568 0 0 0-.48-.632c0 .335-.108.607-.328.818-.22.211-.501.318-.849.318-.472 0-.832-.144-1.077-.429-.248-.29-.373-.698-.373-1.235 0-.537.154-.938.464-1.26.311-.322.713-.484 1.214-.484.994 0 1.789.455 2.385 1.368.597.913.895 2.143.895 3.701 0 1.375-.265 2.449-.8 3.217-.534.769-1.275 1.153-2.223 1.153-.588 0-1.081-.165-1.479-.504-.397-.339-.7-.839-.907-1.508-.265.818-.634 1.425-1.11 1.826-.476.401-1.064.599-1.772.599-1.044 0-1.864-.434-2.456-1.305-.593-.872-.895-2.066-.895-3.59 0-1.722.253-3.028.758-3.92.505-.892 1.25-1.334 2.228-1.334.584 0 1.064.19 1.441.574.377.38.568.864.568 1.446 0 .516-.141.933-.423 1.247-.281.314-.658.471-1.13.471-.419 0-.733-.115-.949-.347-.215-.231-.348-.599-.401-1.098a2.78 2.78 0 0 0-.315.793 4.431 4.431 0 0 0-.104.979c0 .698.162 1.239.48 1.623.32.384.783.574 1.384.574.559 0 .99-.173 1.284-.52.294-.347.447-.851.447-1.516h.004Zm75.112-22.186c-.041-.049-.091-.107-.141-.173a6.725 6.725 0 0 1-.223-.302c-.531-.735-.903-1.466-1.119-2.197a6.912 6.912 0 0 1-.248-2.396c.029-.433.157-1.156.385-2.172.228-1.016.369-1.814.427-2.4-.154.26-.319.495-.497.702a3.302 3.302 0 0 1-.589.541 7.2 7.2 0 0 1-1.209.677c-.484.224-.787.372-.903.455-.377.268-.571.578-.575.925 0 .347.178.777.55 1.293l.228.31c.054.074.108.136.153.19l-1.664 1.193-2.982-4.147 1.681-1.202.642.922c-.054-.513.008-.967.191-1.376.182-.405.484-.76.907-1.061.488-.352 1.122-.624 1.909-.818.787-.194 1.246-.343 1.391-.446.158-.112.253-.24.282-.376.029-.137-.008-.277-.112-.422l-.07-.099 1.28-.913a.875.875 0 0 1 .086.1c.029.037.075.095.129.169.426.591.696 1.859.807 3.804.017.264.029.467.046.607.108 1.421.319 2.574.634 3.462.314.888.787 1.768 1.416 2.643l.24.339-3.044 2.177-.008-.009Zm-32.089 8.856c-.555-.314-.973-.661-1.259-1.049a2.625 2.625 0 0 1-.485-1.355c-.074-1.02.298-1.863 1.123-2.528.824-.665 1.988-1.053 3.483-1.164 1.404-.104 2.526.062 3.363.495.84.434 1.292 1.083 1.354 1.938.037.503-.075.937-.336 1.305-.261.367-.671.673-1.225.913.861.314 1.503.706 1.925 1.181.423.475.663 1.078.717 1.805.083 1.119-.331 2.028-1.251 2.722-.919.694-2.241 1.107-3.976 1.239-1.632.12-2.907-.058-3.818-.533-.912-.475-1.409-1.218-1.483-2.226-.046-.599.083-1.119.385-1.561.302-.442.791-.835 1.475-1.173l.008-.009Zm1.768.769c-.393.247-.683.512-.869.797a1.415 1.415 0 0 0-.245.892c.037.516.307.917.808 1.21.501.289 1.143.405 1.921.347.647-.049 1.135-.186 1.462-.413.328-.227.481-.529.452-.904a1.053 1.053 0 0 0-.431-.769c-.265-.206-.708-.409-1.338-.603l-1.76-.557Zm2.39-2.875c.323-.19.559-.393.708-.612.149-.218.216-.454.195-.71-.025-.355-.22-.64-.58-.851-.36-.211-.812-.293-1.358-.252-.535.041-.953.161-1.255.368-.303.206-.439.458-.419.756.017.239.145.437.386.594.24.157.666.31 1.288.455l1.027.252h.008Zm-33.916-2.958a6.014 6.014 0 0 1-1.329-.248 4.932 4.932 0 0 1-1.156-.545c-.944-.611-1.528-1.375-1.756-2.292-.228-.917-.054-1.814.518-2.689.625-.954 1.47-1.491 2.534-1.611 1.065-.12 2.183.202 3.355.962 1.4.913 2.232 2.041 2.489 3.391.257 1.351-.087 2.747-1.035 4.197-1.019 1.557-2.262 2.507-3.728 2.858-1.466.351-2.94.046-4.415-.912-.952-.62-1.59-1.322-1.913-2.103-.323-.781-.273-1.491.145-2.131.253-.389.588-.612 1.002-.669.414-.058.84.057 1.288.347.406.264.667.586.791.97.12.384.079.735-.132 1.058a1.21 1.21 0 0 1-.464.429 1.264 1.264 0 0 1-.638.116 2.011 2.011 0 0 0 .53.504c.609.396 1.263.45 1.967.169.705-.281 1.342-.859 1.918-1.739l.033-.049-.004-.013Zm1.553-5.018c-.315-.207-.667-.219-1.056-.038-.389.178-.746.521-1.073 1.021-.331.508-.501.975-.509 1.4-.008.425.145.743.46.946.318.21.675.223 1.064.049.389-.173.75-.516 1.085-1.028.336-.512.501-.979.505-1.4 0-.422-.157-.74-.476-.946v-.004ZM94.05 196.127c-.008.681-1.45 2.164-1.992 2.379-1.197.475-2.091.718-2.684.735-.592.016-.977-.19-1.147-.624-.174-.433-.033-.847.41-1.247.158-.141 1.412-1.516 1.66-1.665-.152-.037-2.012-.087-3.391-.38-.398 1.058-.609 2.677-.14 3.854.53 1.334 1.399 2.235 2.604 2.706 1.205.466 2.53.417 3.968-.153 1.441-.57 2.29-1.52 2.994-2.607.435-.669.535-2.482.593-2.672-1.086-.132-1.694-.108-2.883-.322l.008-.004Zm52.325 36.852v-1.28c.588-.046 1.052-.161 1.396-.347.343-.186.575-.442.7-.777h2.282v6.911c0 .239.062.396.19.475.129.078.406.115.833.115h.331v1.264h-5.732v-1.264h.393c.456 0 .754-.041.895-.119.141-.079.211-.314.211-.703v-4.275h-1.499Zm13.543 3.862v.649c0 .239.062.396.19.475.128.078.406.115.833.115h.352v1.264h-5.604v-1.264h.389c.452 0 .75-.041.895-.123.145-.083.219-.319.219-.715v-.401h-4.348v-1.54l4.361-4.726h2.713v5.039h1.375v1.223h-1.375v.004Zm-5.496-1.222h2.77l.029-3.074-2.799 3.074Zm-7.578 17.005v-1.28c.588-.046 1.052-.161 1.395-.347.344-.186.576-.442.7-.777h2.282v6.911c0 .239.063.396.191.475.128.078.406.115.832.115h.332v1.264h-5.732v-1.264h.393c.456 0 .754-.041.895-.12.141-.078.211-.313.211-.702v-4.275h-1.499Zm7.236 1.913.26-4.519c.833.07 1.5.12 2.001.149.501.028.915.041 1.251.041.878 0 1.76-.091 2.642-.273.203-.037.327-.058.373-.058.074 0 .14.033.194.104.054.07.083.153.083.256 0 .429-.339.838-1.019 1.222-.679.385-1.478.579-2.394.579-.178 0-.401-.009-.675-.029a46.137 46.137 0 0 1-1.039-.083l-.062 1.132a3.2 3.2 0 0 1 .849-.335c.306-.074.65-.107 1.031-.107 1.172 0 2.091.293 2.767.884.675.591 1.01 1.396 1.01 2.412s-.389 1.793-1.172 2.412c-.783.62-1.81.93-3.085.93-1.119 0-2.001-.232-2.651-.694-.65-.463-.973-1.091-.973-1.884 0-.446.141-.805.426-1.074.286-.268.663-.409 1.131-.409.41 0 .741.116 1.002.347.261.232.39.525.39.876s-.079.599-.232.768c-.154.17-.415.29-.783.356.178.144.36.256.542.326.183.07.377.107.584.107.518 0 .936-.194 1.264-.578.323-.388.484-.888.484-1.508 0-.561-.132-1.003-.402-1.33-.269-.322-.629-.483-1.085-.483-.215 0-.418.037-.604.112a1.787 1.787 0 0 0-.551.359h-1.557v-.008Z"/>
  <path fill="#000" d="M115.305 210.699c.393.14.774.31 1.139.504l2.306-6.126-1.163-.433-2.282 6.059v-.004Zm27.447-1.528a8.396 8.396 0 0 1 1.156-.463l-2.787-5.923-1.127.529 2.758 5.857Zm18.955-17.146 2.825 1.838c.223-.351.468-.686.737-1l-1.868-1.214c-.613.136-.994.223-1.694.38v-.004Z"/>
</svg>
