<svg xmlns="http://www.w3.org/2000/svg" width="251" height="415" fill="none" viewBox="0 0 251 415">
  <path fill="#DD565B" fill-rule="evenodd" d="M105.452 197.201s3.118-.19 4.137-.195c1.143-.008 4.287.38 4.287.38.401.029.803-.041.89.352.365 1.714 1.309 6.893.087 9.368 0 0-7.016 2.379-10.056-.769 0 0-.724-4.713-.128-8.401a.877.877 0 0 1 .783-.735Z" clip-rule="evenodd"/>
  <path fill="#DD565B" fill-rule="evenodd" d="M104.86 197.515s-4.717-4.651-15.15-2.516c-3.793.777-2.807 6.687-3.118 7.464-.31.777-2.65 5.366 0 8.786s12.706 4.742 18.397-4.784c0 0 .493-7.158-.133-8.95h.004Zm9.858.024s7.563-5.493 16.235-2.978c3.947 1.144 2.982 7.105 3.313 7.931.332.826 2.817 5.7 0 9.335-2.816 3.635-13.501 5.039-19.544-5.081 0 0-.662-7.298 0-9.203l-.004-.004Z" clip-rule="evenodd"/>
  <path fill="#B13B32" fill-rule="evenodd" d="M86.592 211.244c2.845 3.292 12.706 4.742 18.397-4.783 0 0-.708-.566-.903-1.664-.033-.178-19.668 3.928-17.494 6.443v.004Z" clip-rule="evenodd"/>
  <path fill="#CA453F" fill-rule="evenodd" d="M115.385 200.344c-.787 3.238-4.005 5.733-7.352 5.733a7.253 7.253 0 0 1-3.955-1.156c.22 1.321.721 1.412.721 1.412 3.04 3.148 10.055.769 10.055.769 1.061-2.508.891-4.908.531-6.762v.004Z" clip-rule="evenodd"/>
  <path fill="#B13B32" fill-rule="evenodd" d="M134.232 211.823c-2.816 3.635-13.332 5.398-19.378-4.721l1.022-2.594c6.693.264 20.522 4.518 18.356 7.315Z" clip-rule="evenodd"/>
  <path fill="#B13B32" fill-rule="evenodd" d="M114.717 197.539s.824 3.003.812 4.478c-.013 1.474-.676 5.085-.676 5.085s2.146-1.471 2.183-3.685c.037-2.214-1.172-5.031-2.319-5.878Zm-10.834 3.057c.141 0 .174-.194.041-.244-1.789-.665-7.152-2.573-7.608-1.764-.513.913 4.183 2.07 7.567 2.008Z" clip-rule="evenodd"/>
  <path fill="#B13B32" fill-rule="evenodd" d="M116.527 201.269s3.939-3.759 5.886-3.098c1.946.661-.626 2.156-5.886 3.098Zm-13.058 1.095s-4.908-.372-4.667 1.127c.24 1.5 4.667-1.127 4.667-1.127Z" clip-rule="evenodd"/>
  <path fill="#CA453F" fill-rule="evenodd" d="M104.861 197.514s-1.28 4.986-.774 7.287l-1.355.214s.348-6.439 2.125-7.505l.004.004Z" clip-rule="evenodd"/>
  <path fill="#E37E8B" fill-rule="evenodd" d="m105.353 201.215.248-2.288a.934.934 0 0 1 .932-.834h3.396c.94 0 1.396 1.45.501 1.726-1.263.389-2.712 1.297-3.644 2.289-.534.57-1.516-.116-1.429-.893h-.004Z" clip-rule="evenodd"/>
</svg>
