<svg xmlns="http://www.w3.org/2000/svg" width="250" height="414" fill="none" viewBox="0 0 250 414">
  <g clip-path="url(#a)">
    <path fill="#9E123D" d="M141.303 240c-6.166 0-12.07-2.729-14.077-3.416-.892-.31-1.668-2.699-2.249-5.244 1.357-3.106 5.167-11.756 7.969-18.5h-.213c.203-.522.504-1.316.853-2.283.252-.678.465-1.277.659-1.8l1.115-.077c-.678 13.381 7.863 16.961 7.863 16.961.824 6.434-1.92 14.368-1.92 14.368V240Zm-46.489-33.796c1.154-3.038 2.347-5.118 2.492-5.36l-2.492 5.36Zm1.978-7.799c-.921.358-1.668.774-2.182 1.22 0 0-1.28 2.157-2.501 5.398-15.978-7.895-11.547-11.117-11.547-11.117 2.753.687 6.806 1.606 11.76 2.332 1.086.165 4.208.6 8.852.9-1.687.368-3.18.784-4.382 1.267Zm39.246-3.106-7.184 2.051-3.791 1.093-2.443.697s-.009 0-.009.01l-10.966 3.135-2.288.658-3.897 1.112-1.222.349-.223.067-.281-.155-.407-.222-1.474-.803-4.528-2.467c.514-.445 1.26-.862 2.182-1.22 2.356-.948 5.865-1.654 9.646-2.177 3.549.039 7.534-.058 11.848-.348 1.367-.087 2.909-.213 4.605-.387.66-.058 1.348-.135 2.056-.213h.009c.388-.048.776-.097 1.183-.145 2.201-.261 4.615-.6 7.194-1.035h-.01Z"/>
    <path fill="#DB2852" d="M118.083 233.644a14.439 14.439 0 0 1-3.975 1.267c-5.459-.542-9.628-1.751-12.759-3.396-11.586-6.076-9.23-18.171-6.574-25.224a.303.303 0 0 0 .039-.087c1.154-3.038 2.346-5.119 2.492-5.36.01-.01.01-.02.01-.02a44.41 44.41 0 0 0 7.368 1.345 32.322 32.322 0 0 0-.747 1.645c-.068.145-.126.29-.184.435a.11.11 0 0 0-.029.068c-2.821 6.754-6.331 20.087 6.03 26.579h.039c1.387.726 2.977 1.364 4.79 1.896 1.086.32 2.249.6 3.5.842v.01Z"/>
    <path fill="#DB2852" d="M130.309 208.999c-.349.967-.65 1.761-.854 2.283h.214c-3.054 7.344-7.301 16.952-8.28 19.197-.64 1.48-1.958 2.486-3.306 3.154-24.248-4.654-16.521-25.021-13.399-31.475 3.326.329 7.262.32 11.567-.435.494-.087.998-.194 1.512-.3a41.68 41.68 0 0 0 9.86-3.454c0 .232.019.493.068.783.107.61.33 1.103.611 1.52 1.115 1.635 3.19 2.186 3.471 4.063.068.445-.446 1.848-1.464 4.654v.01Z"/>
    <path fill="#820935" d="M133.586 210.548c-.349.967-.65 1.761-.854 2.283h.214c-2.802 6.744-6.613 15.394-7.97 18.5-.717-3.125-1.134-6.473-1.134-6.473l6.777-15.868 3.626-.252c-.194.523-.407 1.123-.659 1.8v.01Z"/>
    <path fill="#DB2852" d="M138.579 195.067c4.218-.31 8.784-.842 13.641-1.665a143.939 143.939 0 0 0 17.888-4.247c.34-.077 3.403-.716 5.72 1.354 1.251 1.123 1.687 2.487 1.843 3.116 0 0 1.861 11.291-3.229 18.732 0 0 0 5.089-8.202 1.858a53.961 53.961 0 0 1-10.035-2.748 53.304 53.304 0 0 1-14.262-8.166s-.31-7.78-3.354-8.234h-.01Z"/>
    <path fill="#820935" d="M172.658 217.726c-1.173.513-3.151.552-6.428-.735a53.598 53.598 0 0 1-10.025-2.748 53.345 53.345 0 0 1-2.686-1.113c-.291-1.799-.446-2.98-.446-2.98 5.798 3.106 19.304 5.138 19.304 5.138.106.823.193 1.645.281 2.438Z"/>
    <path fill="#9E123D" d="M173.521 228.302c-6.738 1.868-15.231 1.577-15.231 1.577-2.056-1.17-3.946-11.533-4.77-16.748a52.92 52.92 0 0 0 2.685 1.113 53.665 53.665 0 0 0 10.025 2.747c3.277 1.287 5.255 1.249 6.428.736.65 5.815.863 10.575.863 10.575Zm-44.667-30.952c-.184.204-.591.6-1.183 1.123-2.928 2.583-10.49 8.147-20.117 6.705a20.781 20.781 0 0 1-3.316-.774 7.14 7.14 0 0 1-.475-.155 7.317 7.317 0 0 1-.436-.155c-.825-.3-1.59-.638-2.298-.996a23.363 23.363 0 0 1-3.704-2.274c.514-.445 1.26-.861 2.182-1.219 1.541.958 3.519 1.964 5.914 2.631.814.223 1.687.417 2.598.552a16.6 16.6 0 0 0 1.338.155c2.986.261 5.759-.145 8.231-.89.02 0 .029-.01.039-.01a26.17 26.17 0 0 0 4.227-1.703h.01a27.566 27.566 0 0 0 3.199-1.887 29.642 29.642 0 0 0 2.599-1.964h.009c.214-.184.408-.358.582-.513.388-.019.592-.019.592-.019v.387l.019 1.016-.01-.01Z"/>
    <path fill="#BF1B46" d="M130.173 199.527a170.755 170.755 0 0 1-6.312 6.106 118.639 118.639 0 0 1-5.643 4.925 58.842 58.842 0 0 1-2.782 2.138c-1.193.851-1.949.677-3.384.667-.087 0-2.268-.009-6.631-.009-1.251 0-2.046.009-2.094.242-.049.232.678.571 1.163.774 3.607 1.557 6.06 2.612 8.6 2.428 3.219-.242 5.361-2.515 9.53-7.053a61.545 61.545 0 0 0 7.562-10.218h-.009Zm.892.705a543.807 543.807 0 0 0-7.155 10.885c-1.765 2.748-3.51 5.506-5.158 8.321-.649 1.103-1.289 2.206-1.871 3.339-1.396 2.689-3.568 3.879-3.568 3.879-.174.184-.485.494-.397.658.184.339 2.036-.261 3.17-.745.776-.329 1.222-.493 1.706-.87.921-.716 1.474-1.703 2.085-2.932.804-1.626 1.619-3.251 2.424-4.877 1.677-3.367 3.374-6.734 5.09-10.091.882-1.713 1.764-3.435 2.685-5.128.31-.571.737-1.829 1.319-2.197l-.32-.232-.01-.01Z"/>
    <path fill="#9E123D" d="M132.936 202.545c.058.542-1.377 4.209-3.267 8.747h-.214c.204-.522.505-1.316.854-2.283 1.018-2.806 1.532-4.209 1.464-4.654-.359-2.361-3.549-2.632-4.082-5.583a4.696 4.696 0 0 1-.068-.784 23.5 23.5 0 0 0 1.231-.629c3.51.968 3.917 3.774 4.082 5.196v-.01Z"/>
    <path fill="#820935" d="M128.244 195.967c-.175.155-.369.329-.582.513h-.01a30.013 30.013 0 0 1-2.598 1.964 27.584 27.584 0 0 1-3.2 1.886h-.009a26.115 26.115 0 0 1-4.227 1.703c-.01 0-.02.01-.039.01-2.473.745-5.245 1.151-8.232.89a16.525 16.525 0 0 1-1.337-.155 22.369 22.369 0 0 1-2.599-.551c-2.395-.668-4.372-1.674-5.914-2.632 2.356-.948 5.866-1.654 9.647-2.177 6.263-.871 13.273-1.238 17.005-1.393.912-.029 1.629-.058 2.095-.068v.01Z"/>
    <path fill="#820935" d="M109.144 197.427c-3.781.522-7.291 1.229-9.647 2.177-.92.358-1.667.774-2.181 1.219l-.01.019c-.145.242-1.338 2.323-2.492 5.361-.01.029-.019.058-.038.087a103.78 103.78 0 0 1-2.667-1.268c1.222-3.241 2.502-5.399 2.502-5.399.514-.445 1.26-.861 2.181-1.219 1.202-.484 2.695-.9 4.382-1.267 2.308.155 4.984.261 7.97.29Zm29.435-2.361a66.43 66.43 0 0 0 11.062 2.032c6.836.658 19.41 1.867 25.179-5.147.495-.6.834-1.132 1.018-1.442-.339-.29-.872-.716-1.619-1.016-1.086-.435-2.734-.706-4.964-.077a145.459 145.459 0 0 1-11.886 3.009 142.84 142.84 0 0 1-18.78 2.641h-.01Z"/>
    <path fill="#BF1B46" d="M142.854 198.541s9.657 3.938 19.003 3.483c0 0-7.872 1.79-19.003-2.148v-1.345.01Z"/>
    <path fill="#FC356A" d="M141.894 201.955c-.097 5.66-5.7 6.841-8.968 7.044-1.357.077-2.307 0-2.307 0 .194-.494.494-1.229.853-2.129 1.018-2.612 1.532-3.918 1.464-4.325-.359-2.196-3.558-2.448-4.082-5.196a4.01 4.01 0 0 1-.019-1.402c3.422-.31 6.845-.61 10.267-.92.058.049.136.116.213.184.689.639 1.93 1.974 2.424 4.025a7.77 7.77 0 0 1 .155 2.719Z"/>
    <path fill="#BF1B46" d="M143.378 202.139s17.005 7.043 26.623 5.36c0 0-15.231 1.906-26.623-4.035v-1.325Z"/>
    <path fill="#9E123D" d="M144.202 201.955c-.135 7.992-11.275 7.044-11.275 7.044 3.267-.203 8.871-1.384 8.968-7.044a7.795 7.795 0 0 0-.155-2.719c-.495-2.051-1.736-3.386-2.424-4.025.698-.058 1.396-.116 2.094-.184.63.533 2.085 1.926 2.637 4.209a7.77 7.77 0 0 1 .155 2.719Z"/>
    <path fill="#820935" d="M131.385 214.107s2.269 12.898 3.985 14.63c.106.106.436.619.329.726-.223.232-2.433-1.278-3.761-2.69-.902-.958-2.822-3.377-3.074-7.992l2.521-4.674Zm29.445-.134a14.562 14.562 0 0 1 1.503 3.338c1.144 3.725.397 6.676.998 6.802.572.116 1.561-2.477 1.736-2.932.31-.813.591-1.577.65-2.632a7.186 7.186 0 0 0-.476-2.941l-4.411-1.645v.01Z"/>
  </g>
  <defs>
    <clipPath id="a">
      <path fill="#fff" d="M80 189h98v51H80z"/>
    </clipPath>
  </defs>
</svg>
