<svg xmlns="http://www.w3.org/2000/svg" width="249" height="414" fill="none" viewBox="0 0 249 414">
  <path fill="#727374" d="M81.95 196.082c2.309 3.47 5.135 6.668 8.011 9.667 6.504 6.783 14.048 12.696 22.363 17.076.6.317 1.208.626 1.816.923.789.387 1.706.981 2.589 1.022.296.012.464-.054.702-.119.428-.124.851-.264 1.274-.4a120.098 120.098 0 0 0 5.797-2.06c6.952-2.65 13.739-5.778 20.214-9.453 8.037-4.562 15.728-10.026 22.113-16.754a63.403 63.403 0 0 0 2.329-2.592c.699-.82.424-2.37-.435-3.165-.768-.705-2.712-.214-3.036.128-1.771 1.842-3.082 4.141-5.074 5.987a76.02 76.02 0 0 1-3.008 2.641c-.522.437-1.048.866-1.578 1.286-.246.198-.493.391-.739.585-.284.223.283-.218-.099.078-.152.12-.308.235-.46.351-4.158 3.152-8.575 5.962-13.135 8.492a141.55 141.55 0 0 1-12.293 6.049c-.444.194-.887.379-1.327.569.674-.289-.107.045-.275.115a124.106 124.106 0 0 1-3.135 1.265 142.71 142.71 0 0 1-4.125 1.541c-1.385.495-2.806.899-4.191 1.393-.02.008-.041.012-.057.017l1.581.206a77.982 77.982 0 0 1-11.306-6.47 78.328 78.328 0 0 1-2.392-1.706c-.402-.3-.805-.601-1.203-.906-.07-.054-.165-.149-.239-.181.317.144.189.148.062.049-.23-.181-.464-.363-.694-.548a88.057 88.057 0 0 1-4.191-3.552 92.752 92.752 0 0 1-10.92-11.702 11.394 11.394 0 0 0 .102.131c-.07-.09-.136-.181-.205-.272-.115-.148-.226-.3-.337-.449-.177-.239-4.511-1.224-4.511-1.224-.892.577-.613 1.026.024 1.987l-.012-.005Z"/>
  <path fill="#727373" d="M123.816 227.634a.81.81 0 0 0 .107-1.175c-1.734-1.92-7.486-7.033-15.699-1.578-8.55 5.678-.904 16.404 1.61 18.658 3.213 2.876 9.113 7.99 14.672 9.379a.474.474 0 0 0 .534-.668l-4.293-8.834 4.047-3.202a.83.83 0 0 0 .123-1.183l-6.155-7.441 5.05-3.952.004-.004Z"/>
  <path fill="#C4C4C4" d="M108.191 224.622c-4.705 3.127-4.199 7.878-2.494 11.706 5.394-4.112 10.456-7.528 15.904-11.521-2.453-2.007-7.178-4.331-13.41-.19v.005Zm15.33 26.392c.361.091.665-.288.501-.626l-4.039-8.32 3.809-3.016a.782.782 0 0 0 .119-1.113l-2.457-2.97a900.249 900.249 0 0 1-11.286 7.627c3.102 2.756 8.373 7.174 13.357 8.418h-.004Zm-5.408-20.079 4.754-3.721a.758.758 0 0 0 .098-1.105 5.705 5.705 0 0 0-.16-.177c-5.916 4.541-8.274 6.255-16.311 11.987a21.4 21.4 0 0 0 1.072 1.718c4.294-3.074 7.671-5.348 11.209-7.903l-.662-.804v.005Z"/>
  <path fill="#F0EFEF" d="M107.571 239.637c.805 1.162 1.598 2.065 2.136 2.547l.456.408a890.014 890.014 0 0 0 11.286-7.628l-2.674-3.23c-3.538 2.555-6.915 4.829-11.209 7.903h.005Zm14.031-14.826c-5.448 3.993-10.51 7.405-15.905 11.521.247.553.514 1.084.797 1.591 8.037-5.732 10.395-7.446 16.311-11.987-.304-.321-.71-.717-1.203-1.121v-.004Zm-17.035 1.059 1.162-.581a1.78 1.78 0 0 0 .806-.807l.583-1.166a.23.23 0 0 1 .304-.104.23.23 0 0 1 .103.104l.579 1.166c.173.35.456.634.805.807l1.163.585c.111.058.156.19.103.305a.224.224 0 0 1-.103.103l-1.163.581a1.784 1.784 0 0 0-.805.808l-.579 1.166a.23.23 0 0 1-.304.103.233.233 0 0 1-.103-.103l-.579-1.166a1.784 1.784 0 0 0-.805-.808l-1.163-.585a.227.227 0 0 1 0-.404l-.004-.004Zm.143-2.756.498-.252c.049-.024.065-.082.041-.132a.086.086 0 0 0-.041-.041l-.498-.251a.785.785 0 0 1-.345-.346l-.25-.499a.096.096 0 0 0-.132-.041.082.082 0 0 0-.041.041l-.25.499a.782.782 0 0 1-.346.346l-.497.251a.097.097 0 0 0-.041.132.078.078 0 0 0 .041.041l.497.252a.777.777 0 0 1 .346.346l.25.498c.025.05.082.066.132.042a.084.084 0 0 0 .041-.042l.25-.498a.78.78 0 0 1 .345-.346Z"/>
</svg>
