<svg xmlns="http://www.w3.org/2000/svg" width="250" height="414" fill="none" viewBox="0 0 250 414">
  <path fill="#003F49" d="M152.449 193.84c-9.71 2.3-57.45 11.19-81.56-1.67 0 0-13-6.27-17.96-21.7 0 0-21.68-20.8 103.61-3.45 0 0-7.4 13.7-4.09 26.82Z"/>
  <path fill="#01292D" d="M151.58 167.46s-1.34 6.31.6 5.81c.77-.2 33.2-27.43 51.31-33.48 1.2-2.86.04-5.57.04-5.57s-22.49 7.24-51.95 33.24Zm-2.451 20.5s-.26 6.55-1.5 6.65c6.3 0 31.52-6.04 37.48-11.54-20.65 6.35-26.29 6.07-35.98 4.9v-.01Z"/>
  <path fill="#01292D" d="M156.539 167.02c-3.25-.45-6.38-.87-9.43-1.27.85 4.36.49 9.12-.99 12.72-3.34 8.08-14.32 13.56-22 16.41-5.27 1.96-10.88 3.29-16.58 4.09 19.77-.04 39.11-3.76 44.9-5.13-3.3-13.12 4.09-26.82 4.09-26.82h.01Z"/>
  <path fill="#186168" d="M64.4 179.66c-3.29-4.5-6.31-11.62-5.79-17.65-11.38 2.99-5.68 8.47-5.68 8.47 4.96 15.43 17.96 21.7 17.96 21.7 3.73 1.99 8.02 3.45 12.66 4.51-7.49-4.16-13.99-9.96-19.15-17.02v-.01Z"/>
</svg>
