<svg xmlns="http://www.w3.org/2000/svg" width="250" height="414" fill="none" viewBox="0 0 250 414">
  <path fill="#000" d="M53.172 155.964c-3.539-1.454-7.074-2.913-10.613-4.367l-1.502-.618c-.503-.206-1.134.23-1.27.721-.161.593.202 1.055.721 1.269 3.54 1.454 7.075 2.913 10.614 4.368.5.206.998.412 1.502.618.503.206 1.134-.231 1.27-.721.161-.594-.202-1.055-.722-1.27Zm-.252 9.845c-3.378.465-6.752.935-10.13 1.401l-1.465.202c-.553.078-.854.782-.722 1.269.165.593.714.795 1.27.721 3.38-.466 6.753-.936 10.132-1.401l1.464-.202c.553-.078.854-.783.722-1.269-.165-.594-.714-.796-1.27-.721Zm3.26 8.41c-2.999 1.619-5.993 3.243-8.992 4.862-.433.235-.867.47-1.3.701-1.167.63-.128 2.41 1.04 1.78 2.999-1.62 5.994-3.243 8.992-4.863.434-.235.867-.469 1.3-.7 1.167-.631.128-2.411-1.04-1.78Zm90.228-15.366c3.539-1.454 7.074-2.913 10.613-4.368l1.502-.618c.503-.206.883-.684.722-1.269-.132-.486-.751-.931-1.271-.721-3.539 1.454-7.074 2.913-10.614 4.368-.499.206-.998.412-1.501.618-.503.206-.883.684-.722 1.269.132.486.751.931 1.271.721Zm-.29 12.217c3.379.466 6.753.936 10.131 1.401.487.066.974.136 1.465.202.553.074 1.105-.132 1.27-.721.132-.482-.165-1.191-.722-1.269-3.378-.466-6.752-.935-10.131-1.401-.486-.066-.973-.136-1.464-.202-.553-.074-1.106.132-1.271.721-.132.482.165 1.191.722 1.269Zm-3.753 9.004c2.999 1.619 5.993 3.243 8.992 4.862.434.235.867.47 1.3.701 1.167.63 2.211-1.146 1.039-1.78-2.999-1.62-5.993-3.243-8.992-4.863-.433-.234-.867-.469-1.3-.7-1.167-.631-2.211 1.145-1.039 1.78Zm-54.69-14.797c1.27-.231 4.336-.651 7.293-.029.31.066.45.429.264.684-.837 1.125-2.9 3.626-4.59 3.363-1.692-.264-2.814-2.3-3.313-3.322a.486.486 0 0 1 .35-.696h-.004Z"/>
</svg>
