<svg xmlns="http://www.w3.org/2000/svg" width="250" height="414" fill="none" viewBox="0 0 250 414">
  <g clip-path="url(#a)">
    <path fill="#242424" d="M77.933 269.029c4.76.899 21.39 2.522 41.778 2.42.389 0 .727.29.806.694l.051.251c10.901-.137 23.137-1.054 35.892-3.359.901-.165 1.746.529 1.814 1.497l1.076 14.068c.067.888-.541 1.685-1.375 1.776-9.324 1.127-59.761 6.718-82.752-1.651-.716-.256-1.155-1.042-1.031-1.839l1.926-12.496c.147-.917.953-1.526 1.815-1.361Z"/>
    <path fill="#242424" d="M158.189 300.802h-.011l-.755-10.288-.068-.973-1.019-13.84-14.946 1.873a191.001 191.001 0 0 1-19.126 1.435c-.474.022-.953.028-1.426.039-9.74.177-19.498-.37-29.176-1.651l-14.26-1.708h-.01l-.716 12.634-4.157 63.826c11.903 4.788 25.503 6.815 37.553 2.493l2.259-.945 3.105-33.572c1.667 11.187 2.467 22.049 4.135 33.231.552.074 3.002.643 3.56.706 12.755 3.979 24.427 3.37 37.148-.706l2.721-3.28-4.805-49.28-.006.006Zm-56.511 30.629c-2.355.331-4.783.638-8.456 0-4.693-.808-12.078-3.279-11.881-5.18.191-1.891 7.836-3.234 14.58-1.726 5.149 1.151 10.377 4.094 10.089 5.563-.157.763-1.797.99-4.326 1.343h-.006Z"/>
    <path fill="#1B1B1B" d="M76.681 285.226s22.27 5.437 44.715 6.257c.321 0 .259-1.241.591-1.23 13.126.416 26.337-.341 35.374-3.803l.833 11.262s-54.066.962-81.507-10.692v-1.799l-.011.011.005-.006Z"/>
    <path fill="#464646" d="M114.202 285.567c2.14 0 3.887-1.851 3.887-4.145 0-2.294-1.735-4.145-3.887-4.145s-3.888 1.851-3.888 4.145c0 2.294 1.736 4.145 3.888 4.145Z"/>
    <path fill="#1B1B1B" d="m121.993 290.254-1.436-17.854.997-.023 3.802 19.106h-3.96l.592-1.229h.005Z"/>
    <path fill="#E6E7E7" d="M113.548 284.947c2.147 0 3.893-1.85 3.893-4.144 0-2.295-1.735-4.145-3.893-4.145-2.157 0-3.887 1.85-3.887 4.145 0 2.294 1.735 4.144 3.887 4.144Z"/>
    <path fill="#1B1B1B" d="M75.758 301.302s16.298 2.499 18.01-12.718l-17.103-3.359-.924 16.077h.017Zm65.367-11.135s1.679 14.051 17.498 13.493l-1.273-17.205-16.231 3.723v-.011h.006Zm-34.822 28.46 9.447 6.957.71-5.295-.834.051a16.778 16.778 0 0 1-6.073-.723l-3.239-1.002-.011.012Z"/>
    <path fill="#1B1B1B" d="m116.45 320.29 1.036 5.55 10.67-6.604-4.152.82a20.829 20.829 0 0 1-4.968.365l-2.598-.126h.012v-.005Z"/>
    <path fill="#838383" d="M152.262 338.166s.085 0 .124.011c.338.103.581.547.214.82-2.202 1.611-5.566 3.564-9.999 4.526a25.594 25.594 0 0 1-12.017-.279c-.507-.136-.282-.546-.039-.706.338-.227 1.543-.011 1.96-.022l4.13-.091c.856-.023 1.825-.092 2.394-.763.749.558 1.758.421 2.659.267.862-.154 1.73-.307 2.592-.455.377-.063.754-.137 1.115-.291.4-.176.755-.444 1.138-.66.4-.228.834-.404 1.262-.569 1.087-.422 2.18-.849 3.267-1.281.265-.103.857-.467 1.195-.496l.011-.011h-.006Zm-.806-4.923c.457-.126.727.518.339.797-2.203 1.611-5.567 3.564-10 4.526a25.62 25.62 0 0 1-12.017-.279c-.67-.177-.163-.746.175-.826.794-.205 1.893 0 2.727-.011.253 0 .501 0 .738.091.298.125.54.393.856.455.591.126 1.065-.495 1.639-.683.755-.25 1.612.279 2.327-.074.282-.136.507-.393.794-.495.389-.137.817.028 1.223 0 .282-.023.552-.142.817-.268a45.727 45.727 0 0 1 5.324-1.998c1.667-.507 3.374-.763 5.042-1.241h.016v.006Z"/>
    <path fill="#464646" d="M108.049 354.899c.406-.638.941-.462 1.522-.735.09-.04.185-.085.287-.068.225.04.304.37.513.461 0-.051.039-.097.09-.12a.603.603 0 0 0 .062.393c.067-.165.135-.33.208-.501a.386.386 0 0 1 .079-.148.306.306 0 0 1 .158-.097c.146-.068.298-.136.417-.256.135-.148.129-.302.208-.467.09-.165.248-.313.338-.489.18-.33.287-.706.344-1.076.05-.33.169-1.293-.214-1.486-.13-.057-.26.08-1.623 1.121-.355.274-.546.41-.563.433-.8.695-1.887.968-2.89.734-.586-.136-1.189-.432-1.741-.204-.383.153-.654.54-1.008.762-.575.37-1.386.262-1.86-.233-1.036 1.116-2.552 1.691-4.016 1.543-.338-.029-.682-.097-.992.057-.067.04-.146.091-.225.091-.22-.017-.226-.393-.417-.518-.13-.08-.287-.017-.423.028a3.367 3.367 0 0 1-2.867-.284c-.287-.177-.552-.399-.879-.49-.642-.177-1.375.313-1.504 1.019-.456-.342-.772-.888-.868-1.474-.445.984-1.712 1.69-2.687 1.212-.868-.427-1.177-1.651-2.265-1.639-.343 0-.749.108-.997-.154-.146-.16-.186-.393-.276-.598-.146-.37-.304-.313-.603-.313-.383 0-.197.216-.512-.125-.457-.479-.772-1.019-1.313-1.429-.079-.057-.169-.12-.26-.109-.106 0-.185.086-.264.166a5.032 5.032 0 0 1-1.436.979c.106-.234-.108-.541-.355-.575-.248-.04-.485.085-.71.205-.474.262-.941.518-1.414.774-.062.028-.119.057-.18.051-.063-.011-.102-.057-.141-.097a4.248 4.248 0 0 0-1.91-1.212c-.028.393-.473.666-.8.501-.18-.091-.287-.262-.406-.433a6.22 6.22 0 0 0-1.622-1.554c-.012.467-.023.928-.023 1.4-.011 3.024.197 6.109.423 9.132.118.069.236-.091.287-.216.75-1.879.524-4.008.366-6.041-.028-.438 0-.996.378-1.161.22 1.23.433 2.465.664 3.706.276-.324.367-.774.367-1.212 0-.439-.062-.871-.04-1.298.05-1.088 2.71.193 3.256.37.457.148.919.341 1.375.438.642.137 1.228-.569 1.887-.774.068-.017.147-.04.22-.017.101.028.169.119.225.193.474.627 1.02 1.446 1.73 1.68.563.188 1.206.245 1.78.364 1.403.285 2.811.598 4.23.763 1.415.165 1.314 1.292 1.561 1.332.248.04.71-1.076.998-1.053.287.017.535-.37.912-.37.378 0 .868.586 1.037.546.169-.039 1.155.832 1.78.832s3.065-.137 4.27-.137c1.206 0 1.505-.598 2.214-1.121.71-.53 2.237-1.782 2.789-1.782s.248 6.308.552 6.763c.304.461.445-1.577.434-3.353-.011-1.782.135-2.779.862-2.574.721.205.298 1.919.721 2.198.265.176.208-1.429.732-2.249l.028.012v-.017Z"/>
    <path fill="#838383" d="M108.049 356.464c.406-.689.941-.495 1.522-.797.09-.04.185-.097.287-.074.225.04.304.404.513.495a.14.14 0 0 1 .09-.125.686.686 0 0 0 .062.422c.067-.183.135-.359.208-.541a.429.429 0 0 1 .079-.16.373.373 0 0 1 .158-.108c.146-.074.298-.148.417-.273.135-.16.129-.33.208-.507.09-.182.248-.341.338-.529a3.8 3.8 0 0 0 .344-1.167c.05-.359.169-1.401-.214-1.612-.13-.062-.26.086-1.623 1.219-.355.296-.546.444-.563.467-.8.751-1.887 1.047-2.89.797-.586-.148-1.189-.467-1.741-.222-.383.17-.654.58-1.008.825-.575.404-1.386.285-1.86-.256-1.036 1.207-2.552 1.833-4.016 1.674-.338-.029-.682-.108-.992.062-.067.04-.146.097-.225.097-.22-.023-.226-.421-.417-.564-.13-.085-.287-.022-.423.035-.94.37-2.005.256-2.867-.308-.287-.188-.552-.432-.879-.529-.642-.188-1.375.341-1.504 1.104-.456-.37-.772-.962-.868-1.6-.445 1.071-1.712 1.834-2.687 1.316-.868-.467-1.177-1.788-2.265-1.782-.343 0-.749.113-.997-.171-.146-.171-.186-.421-.276-.644-.146-.404-.304-.341-.603-.341-.383 0-.197.233-.512-.137-.457-.518-.772-1.099-1.313-1.548-.079-.063-.169-.126-.26-.12-.106 0-.185.097-.264.182a5.06 5.06 0 0 1-1.436 1.059c.106-.256-.108-.58-.355-.626-.248-.04-.485.097-.71.222-.474.285-.941.564-1.414.837-.062.028-.119.063-.18.051-.063-.011-.102-.062-.141-.108a4.195 4.195 0 0 0-1.91-1.315c-.028.421-.473.717-.8.541-.18-.097-.287-.285-.406-.467a6.48 6.48 0 0 0-1.622-1.685 63.616 63.616 0 0 0-.023 1.514c-.011 3.274.197 6.621.423 9.895.118.074.236-.097.287-.234.75-2.032.524-4.343.366-6.547-.028-.478 0-1.081.378-1.258.22 1.332.433 2.67.664 4.014.276-.348.367-.837.367-1.315 0-.479-.062-.945-.04-1.407.05-1.172 2.71.211 3.256.405.457.159.919.37 1.375.478.642.148 1.228-.615 1.887-.837.068-.023.147-.04.22-.023.101.034.169.125.225.211.474.677 1.02 1.565 1.73 1.822.563.199 1.206.267 1.78.393 1.403.307 2.811.643 4.23.825 1.415.182 1.314 1.395 1.561 1.44.248.04.71-1.167.998-1.144.287.023.535-.404.912-.404.378 0 .868.637 1.037.592.169-.04 1.155.899 1.78.899s3.065-.148 4.27-.148c1.206 0 1.505-.643 2.214-1.218.71-.575 2.237-1.93 2.789-1.93s.248 6.832.552 7.333c.304.495.445-1.708.434-3.632-.011-1.93.135-3.012.862-2.784.721.222.298 2.078.721 2.385.265.194.208-1.548.732-2.437l.028.012v.011Z"/>
    <path fill="#464646" d="m160.893 353.248.113-.062c.389-.217.862-.331 1.138-.712.265-.364.287-.86.276-1.327a47.086 47.086 0 0 0-.237-4.19c-.647 2.659-3.087 4.299-5.329 5.671-.913.558-1.87 1.138-2.913 1.286-.901.126-1.847-.062-2.698.251-.389.136-.738.364-1.11.541-1.189.569-2.625.546-3.808-.04a16.031 16.031 0 0 1-6.828.882c-.473-.04-.952-.102-1.425-.176-.31-.04-.626-.086-.936-.125-1.222-.166-4.095-.308-4.619-1.606-.152-.393-.327-.33-.648-.33-.411 0-.214.228-.558-.137-.484-.506-.822-1.076-1.408-1.503-.085-.062-.175-.125-.276-.114-.113 0-.203.091-.288.177a5.11 5.11 0 0 1-1.538 1.025c.124-.251-.112-.57-.377-.61-.265-.039-.524.092-.761.217-.501.267-1.008.546-1.509.82-.062.028-.124.062-.186.051-.062-.012-.102-.063-.147-.103a4.436 4.436 0 0 0-2.045-1.275c-.028.416-.501.706-.862.53-.462-.24-1.876-2.078-2.321-1.23-.112.216.062.973.085 1.23.039.483.101.962.174 1.446.136.922.31 1.844.485 2.755.073.393.287.9.665.82a21.315 21.315 0 0 0-.186-3.052 99.362 99.362 0 0 0 1.724 4.077v-1.987a8.087 8.087 0 0 0 1.774 3.621c.051-.797 0-1.606-.146-2.38-.152-.82-.186-1.845.76-2.061.676-.154 1.685-.085 2.361.063.687.142 1.307-.598 2.022-.809a.469.469 0 0 1 .237-.023c.101.035.174.126.248.205.501.661 1.087 1.532 1.848 1.782.602.2 1.284.262 1.909.382 1.499.29 3.009.632 4.519.808 1.521.177 1.408 1.355 1.673 1.406.27.052.76-1.138 1.07-1.115.327.028.665-.342 1.009-.393.563-.091 1.414.102 2.022.091.09 0 .203 0 .276.062.09.086.101.217.141.331.152.381.698.427 1.02.165.315-.262.45-.672.574-1.076.164.313.349.643.648.808.299.165.749.091.873-.239.378.256.772.518 1.223.621.45.102.952 0 1.25-.365.215-.267.31-.672.603-.837.214-.125.485-.085.721-.062 1.138.102 2.124-.416 3.071-1.036.659-.433 2.022-1.731 2.749-.712.214.302.27.694.298 1.076.012.125.029.262.04.381l.49 4.822c.597-1.241-.276-2.857.299-4.099.135.444.214.9.259 1.367.597-1.201-.4-2.773.152-3.997.236-.529.721-.871 1.183-1.19 1.273-.888 2.208-1.571 2.969-3.023.101-.188.203-.381.259-.592.084-.319.051-.66.011-.996-.09-.922-.186-1.845-.287-2.761-.011-.103-.085-.251-.175-.2-.028.023-.039.052-.062.086-.073.165-.141.33-.202.484"/>
    <path fill="#838383" d="M160.893 354.284s.074-.04.113-.063c.389-.216.862-.33 1.138-.712.265-.364.287-.859.276-1.326a47.043 47.043 0 0 0-.237-4.19c-.647 2.658-3.087 4.298-5.329 5.67-.913.558-1.87 1.139-2.913 1.287-.901.125-1.847-.063-2.698.25-.389.137-.738.365-1.11.541a4.399 4.399 0 0 1-3.808-.04 16.032 16.032 0 0 1-6.828.883c-.473-.04-.952-.103-1.425-.177-.31-.04-.626-.085-.936-.125-1.222-.165-4.095-.308-4.619-1.606-.152-.392-.327-.33-.648-.33-.411 0-.214.228-.558-.136-.484-.507-.822-1.076-1.408-1.503-.085-.063-.175-.126-.276-.114-.113 0-.203.091-.288.176a5.11 5.11 0 0 1-1.538 1.025c.124-.251-.112-.569-.377-.609-.265-.04-.524.091-.761.216-.501.268-1.008.547-1.509.82-.062.028-.124.063-.186.051-.062-.011-.102-.062-.147-.102a4.438 4.438 0 0 0-2.045-1.276c-.028.416-.501.706-.862.53-.462-.239-1.876-2.078-2.321-1.23-.112.217.062.974.085 1.23.039.484.101.962.174 1.452.136.922.31 1.844.485 2.755.073.393.287.9.665.82a21.315 21.315 0 0 0-.186-3.052 99.362 99.362 0 0 0 1.724 4.077v-1.987a8.087 8.087 0 0 0 1.774 3.621c.051-.797 0-1.606-.146-2.38-.152-.82-.186-1.845.76-2.061.676-.154 1.685-.085 2.361.063.687.142 1.307-.598 2.022-.809a.469.469 0 0 1 .237-.023c.101.035.174.126.248.205.501.661 1.087 1.532 1.848 1.782.602.2 1.284.262 1.909.382 1.499.29 3.009.632 4.519.808 1.521.177 1.408 1.355 1.673 1.406.27.052.76-1.138 1.07-1.115.327.028.665-.342 1.009-.393.563-.091 1.414.102 2.022.091.09 0 .203 0 .276.062.09.086.101.217.141.331.152.381.698.427 1.02.165.315-.262.45-.672.574-1.076.164.313.349.643.648.808.299.165.749.091.873-.239.378.256.772.518 1.223.621.45.102.952 0 1.25-.365.215-.267.31-.672.603-.837.214-.125.485-.085.721-.062 1.138.102 2.124-.416 3.071-1.036.659-.433 2.022-1.731 2.749-.712.214.302.27.695.298 1.076.012.125.029.262.04.381l.49 4.823c.597-1.242-.276-2.858.299-4.1.135.444.214.9.259 1.367.597-1.201-.4-2.773.152-3.997.236-.529.721-.871 1.183-1.19 1.273-.888 2.208-1.571 2.969-3.023.101-.188.203-.381.259-.592.084-.319.051-.66.011-.996-.09-.922-.186-1.845-.287-2.761-.011-.103-.085-.251-.175-.2-.028.023-.039.052-.062.086-.073.165-.141.33-.202.484"/>
    <path fill="#464646" d="M81.543 326.689s-.71 1.27-.253 2.562c.388 1.088 1.408 1.612 2.203 1.953 4.704 2.004 7.582.268 12.241 2.192 1.127.467 1.629.837 2.772.985 2.986.353 5.256-1.532 5.673-1.873 1.009-.837 1.375-1.606 1.482-1.873.203-.484.298-.922.338-1.23-2.299 1.042-5.977 2.329-10.575 2.294-2.191-.011-6.044-.091-10.225-2.385a19.182 19.182 0 0 1-3.678-2.625h.022Z"/>
    <path fill="#838383" d="M81.335 325.562c-.924 2.015 0 3.763 1.95 4.52 4.151 1.6 8.805 1.304 13.086 2.357.552.137 1.386.205 1.68.775.472.922.472 2.026.472 3.068.085-.58.175-1.167.265-1.748.011-.074.017-.142.068-.187a.29.29 0 0 1 .157-.074 5.851 5.851 0 0 0 1.184-.405.678.678 0 0 0 .225-.136c.067-.063.096-.137.146-.205.214-.291.564-.422.89-.535.068-.023.378.301.615.205.191-.086.298-.353.467-.484.473-.393 1.166-.712 1.718-.985.857-.422 1.381-1.481 1.769-2.346-1.262.609-2.997.518-4.366.683-.326.04-.687.091-.929.342-.214.216-.338.586-.631.649-.36.063-.67-.404-1.02-.302-.214.063-.366.342-.58.291-.147-.029-.226-.188-.321-.302-.338-.404-.941-.319-1.448-.239-2.085.318-4.479-.052-6.546-.467a18.99 18.99 0 0 1-2.66-.735c-.32-.113-.71-.353-1.047-.307-.147.011-.727.25-.648.484-.107-.364-.243-.723-.468-1.013-.225-.291-.54-.53-.901-.536-.124 0-.254.012-.366-.028-.192-.074-.299-.29-.434-.456a.93.93 0 0 0-1.065-.261c-.079.034-.175.085-.253.039-.085-.039-.107-.153-.107-.261-.017-.251-.017-.507-.085-.746-.147-.456-.484-.416-.777-.672h-.017l-.023.017Z"/>
    <path stroke="#838383" stroke-linecap="round" stroke-linejoin="round" stroke-width=".75" d="M81.335 325.562a97.22 97.22 0 0 1 10.614 1.025 101.92 101.92 0 0 1 14.422 3.28"/>
    <path stroke="#838383" stroke-linecap="round" stroke-linejoin="round" stroke-width=".5" d="M81.465 325.83a54.348 54.348 0 0 1 10.484 3.308 55.635 55.635 0 0 1 6.693 3.433m-17.307-7.008a26.286 26.286 0 0 1 10.659-1.355c7.11.58 12.146 3.939 14.377 5.653"/>
    <path fill="#575858" d="M75.752 301.303s4.157.546 5.684-.069l-3.842 49.77-.693.33s-1.358-1.309-2.045-1.309c0 0-.017.7-.8.501 0 0-1.059-1.224-1.33-1.452l3.026-47.771Zm2.71-15.724s-2.169-2.983-1.78-5.317c.495-2.972.98-9.189 2.248-10.1.777-.558 2.63-.592 2.63-.592l-3.628-.541s-1.56-.29-1.814 1.367l-1.932 12.491s-.366 1.645 1.56 2.174c1.51.416 2.71.524 2.71.524l.006-.006Z"/>
  </g>
  <defs>
    <clipPath id="a">
      <path fill="#fff" d="M72 269h91v94H72z"/>
    </clipPath>
  </defs>
</svg>
