<svg xmlns="http://www.w3.org/2000/svg" width="251" height="415" fill="none" viewBox="0 0 251 415">
  <mask id="a" width="101" height="64" x="69" y="282" maskUnits="userSpaceOnUse" style="mask-type:luminance">
    <path fill="#fff" d="M169.086 282.335H69.123v63.498h99.963v-63.498Z"/>
  </mask>
  <g mask="url(#a)">
    <path fill="#575858" d="M124.852 324.784a22.39 22.39 0 0 1-5.06.346l-2.65-.128-.852.062a18.044 18.044 0 0 1-6.188-.697l-3.303-.966 9.619 6.689.724-5.067 1.066 5.319L129.072 324l-4.216.784h-.004Z"/>
    <path fill="#1D4E77" d="M169.085 337.291c-5.746 3.219-16.639 8.224-30.901 8.348a63.057 63.057 0 0 1-17.437-2.34c-.165-.833-.326-1.675-.496-2.513-.099-.516-.206-1.04-.306-1.56-.93-4.745-1.864-9.47-2.807-14.199l1.067 5.319 10.864-6.342-4.217.784a22.46 22.46 0 0 1-5.06.347l-2.649-.128-.852.062a18.162 18.162 0 0 1-6.189-.698l-3.303-.965 9.62 6.689c-.297 2.133-.603 4.258-.897 6.391-.145 1.065-.306 2.121-.455 3.186-.161 1.089-.306 2.183-.463 3.276a62 62 0 0 1-22.881 2.74 62.02 62.02 0 0 1-22.596-5.991c.178-1.11.364-2.233.541-3.343.17-1.002.335-2.013.497-3.016 2.455-15.016 4.919-30.053 7.379-45.077.157-.982.318-1.965.487-2.947.157-.994.327-1.98.488-2.975a246.741 246.741 0 0 0 44.548 3.054 247.532 247.532 0 0 0 33.579-3.037c.228.994.455 1.997.67 2.983.099.438.199.854.298 1.279l.029.141a81423.97 81423.97 0 0 1 10.359 45.725v.016c.12.495.228 1.003.343 1.498.244 1.089.497 2.191.74 3.285h-.004l.004.008Z"/>
    <path fill="#EAA742" d="M114.058 298.799c-2.237-2.17-5.928-4.25-10.525-1.159-1.559 1.048-2.075 3.12-1.059 4.683 1.084 1.663 3.733 3.219 10.034 2.716 0 0-12.948 5.744-9.612 10.32 3.336 4.576 11.199-3.747 11.199-3.747s-4.895 10.366 2.075 10.407c0 0 5.482-1.622 2.898-10.667.157-.008.306-.037.455-.078 2.488 1.77 11.848 7.865 12.315-.075.401-6.755-5.684-7.171-8.909-6.924.331-.879 2.592-4.877 2.865-6.454.269-1.559-.529-4.126-1.608-5.607-.93-1.275-3.27-.9-4.324.515-2.307 3.099-3.187 5.064-3.543 8.909a14.598 14.598 0 0 0-2.269-2.839"/>
    <path fill="#193C59" d="m117.142 325.011-.724 5.083-9.619-6.689 3.303.966a18.23 18.23 0 0 0 6.188.697l.852-.049v-.008ZM129.073 324l-10.86 6.342-1.067-5.319v-.017l2.65.128a22.354 22.354 0 0 0 5.06-.346l4.217-.784V324Z"/>
    <path fill="#EAA742" d="M114.071 292.936a155.44 155.44 0 0 1-14.849-1.036 173.407 173.407 0 0 1-10.07-1.527 109.51 109.51 0 0 1-2.914-.573c-.89-.165-1.79-.368-2.68-.566a82.658 82.658 0 0 1-2.914-.672 176.026 176.026 0 0 1-3.084-.776c.158-1.213.319-4.238.488-5.451.505.14 20.348 3.087 39.55 3.115 19.202.029 38.16-2.867 39.049-3.094.008-.009 1.223 5.409 1.223 5.409-1.719.438-3.356.855-5.076 1.251h-.008c-.968.218-1.947.425-2.915.635-.913.19-1.827.367-2.74.532-.989.178-1.981.368-2.956.524-8.876 1.498-17.772 2.266-26.648 2.266-1.149 0-2.302-.012-3.447-.037"/>
    <path fill="#CA6838" d="M113.232 292.977a412.982 412.982 0 0 1-.074-3.338c-.033-1.49-2.394-1.494-2.361 0 .025 1.019.046 2.042.071 3.062.797.194 1.62.346 2.372.412v-.136h-.008Z"/>
    <path fill="#193C59" d="M110.867 292.701c.033 1.448.067 2.896.104 4.345.818.371 1.343 1.081 2.389 1.118-.037-1.713-.078-3.536-.12-5.249-.752-.062-1.575-.02-2.373-.214Z"/>
    <path fill="#CA6838" d="M110.967 297.046c.025 1.027.045 2.051.07 3.082.033 1.49 2.394 1.494 2.361 0-.013-.627-.033-1.337-.046-1.964-.996-.516-1.575-.743-2.389-1.118h.004Zm7.957-7.535c.17 6.19.335 12.371.505 18.556.041 1.49 2.406 1.494 2.36 0-.169-6.189-.335-12.371-.504-18.556-.041-1.49-2.406-1.494-2.361 0Zm-7.507 2.583a2.656 2.656 0 0 0 2.65-2.662 2.656 2.656 0 0 0-2.65-2.661 2.655 2.655 0 0 0-2.649 2.661 2.656 2.656 0 0 0 2.649 2.662Z"/>
    <path fill="#CA6838" d="M119.552 292.094a2.656 2.656 0 0 0 2.65-2.662 2.656 2.656 0 0 0-2.65-2.661 2.656 2.656 0 0 0-2.65 2.661 2.657 2.657 0 0 0 2.65 2.662Z"/>
    <path fill="#F0D8CE" d="M111.665 301.288c-.641 0-1.166-.5-1.182-1.131-.038-1.745-.079-3.491-.124-5.24-.042-1.75-.087-3.5-.124-5.249a1.17 1.17 0 0 1 1.153-1.185h.029c.641 0 1.166.5 1.182 1.131.037 1.746.079 3.495.124 5.245.042 1.749.087 3.495.124 5.24a1.17 1.17 0 0 1-1.153 1.185h-.029v.004Zm8.395 7.939a1.176 1.176 0 0 1-1.182-1.127l-.504-18.556a1.169 1.169 0 0 1 1.149-1.193 1.16 1.16 0 0 1 1.215 1.127l.505 18.556a1.17 1.17 0 0 1-1.15 1.193h-.033Z"/>
    <path fill="#3075AF" d="M163.855 304.354v.008l.005.004v-.017h-.005v.005Z"/>
    <path fill="#193C59" d="M168.345 334.01c-.12-.495-.227-1.002-.343-1.498v-.02c-3.448-15.235-6.895-30.49-10.359-45.725l-.029-.141c-.1-.425-.199-.845-.298-1.279-.219-.994-.442-1.997-.67-2.983-4.564.73-9.429 1.374-14.568 1.882.087.284.174.565.261.854.789 5.781 1.583 11.558 2.373 17.339.343 8.983-1.559 17.356-5.718 25.13-2.158 6.524-5.556 12.33-10.182 17.434 2.857.413 5.995.665 9.38.64 14.262-.12 25.155-5.129 30.902-8.348-.244-1.089-.497-2.195-.74-3.285h-.009Z"/>
    <path fill="#3075AF" d="M163.855 304.333v.025s.009-.025 0-.025Z"/>
    <path fill="#1D4E77" d="M163.856 304.354v-.025.037l-.004-.004v-.008h.004Zm-63.497 33.717s.029.008.046.016c-.017 0-.029-.008-.046-.016Z"/>
    <path fill="#45809B" d="M164.087 315.223s-4.497-13.283-18.995-6.417c0 0 3.588 17.822 20.922 14.905l-1.923-8.488h-.004Z"/>
    <path fill="#1195AE" d="M164.087 315.223s-4.497-13.283-18.995-6.417c0 0 17.032 6.256 20.922 14.905l-1.923-8.488h-.004Z"/>
    <path fill="#45809B" d="M151.561 306.896s-1.211-7.003 1.191-10.527c0 0 5.461-.173 7.689 2.777l4.006 17.682-12.882-9.928h-.004v-.004Z"/>
    <path fill="#1195AE" d="M159.54 305.645s-3.866-6.561-6.784-9.28c0 0 5.461-.173 7.689 2.777l4.006 17.682-4.907-11.175h-.004v-.004Z"/>
    <path fill="#44809B" d="M75.902 298.61s3.481-2.967 5.296-3.537c0 0 2.939 3.726 3.179 6.73 0 0-4.283 12.512-11.025 12.264l2.55-15.457Z"/>
    <path fill="#5AA8A6" d="M73.352 314.067s2.253-9.47 9.524-11.855c7.272-2.385 14.196 1.523 14.196 1.523s-3.828 15.333-23.72 10.332Z"/>
    <path fill="#44809B" d="M73.352 314.067s4.158-4.696 11.426-7.085c7.272-2.385 12.29-3.247 12.29-3.247s-3.828 15.334-23.72 10.332h.004Z"/>
    <path fill="#5AA8A6" d="M81.198 295.077s-.207 8.629-3.2 11.653l6.383-4.927s-1.091-4.931-3.18-6.73h-.003v.004Zm19.788 39.73s7.834-6.429 13.725-1.973c0 0-1.224 12.058-17.234 5.526l3.513-3.553h-.004Z"/>
    <path fill="#45809B" d="M114.707 332.834s-1.224 12.058-17.234 5.526l.872-.883c6.461.701 8.995-.599 16.362-4.643Z"/>
    <path fill="#5AA8A6" d="M136.589 308.831s8.913 6.548 2.824 13.209c0 0-9.454-3.83-2.824-13.209Z"/>
    <path fill="#45809B" d="M136.588 308.831s8.913 6.548 2.823 13.209c0 0 .352-3.293-.574-7.077-.488-1.981-.959-2.782-2.249-6.132Zm3.78-6.763s-2.34-3.875 2.059-6.566c0 0 3.158 4.325-2.059 6.566Z"/>
    <path fill="#DF8F3E" d="M137.953 345.721s-3.394-1.081-1.595-3.421c1.794-2.339 6.109-1.324 6.109-1.324s-5.064-6.107-1.909-9.326c3.154-3.219 9.541 4.807 9.599 7.803 0 0-.211-11.694 3.774-11.224 3.993.471 4.775 4.968.252 12.091 0 0 4.833-6.532 6.722-4.981 1.889 1.552 1.244 4.444.004 5.715-1.236 1.271-15.978 5.505-22.956 4.667Z"/>
    <path fill="#EAA742" d="M71.855 323.013s5.217-2.112 5.817 11.286c0 0 .508-16.159 7.747-13.885 7.238 2.273-3.65 14.748-3.65 14.748s8.18-5.716 12.852-1.783a2.96 2.96 0 0 1 1.058 2.604c-.256 2.302-2.154 6.251-12.58 4.621 0 0 2.613 3.429 3.159 4.453 0 0-8.71-1.147-16.619-5.142-.264-.136-.541-.165-.516-.565l2.732-16.337Z"/>
    <path fill="#467E9A" d="M128.366 327.862c-1.807-.248-4.031.115-5.259 2.81 0 0 6.094 7.733 12.741 1.824l-3.675-2.946c-1.095-.883-2.41-1.494-3.811-1.684h.004v-.004Z"/>
    <path fill="#DF8F3E" d="M147.122 290.183a126.06 126.06 0 0 0 2.741-.532c.967-.21 1.947-.417 2.914-.635h.009c1.719-.396 3.356-.813 5.076-1.251-.074-.334-.153-.668-.227-.998l-.029-.141c-.099-.425-.199-.845-.298-1.279-.219-.994-.442-1.997-.669-2.983-.013 0-.025 0-.038.004-.442.103-3.315.569-7.784 1.114-2.191.277-4.44.532-6.751.768.087.284.174.565.261.854.264 1.927.529 3.858.789 5.785.352-.054.699-.107 1.046-.165.98-.157 1.964-.347 2.956-.524v-.008l.004-.009Z"/>
  </g>
</svg>
