<svg xmlns="http://www.w3.org/2000/svg" width="252" height="418" fill="none" viewBox="0 0 252 418">
  <path fill="#EFAE42" d="M164.778 353.013s6.758 2.996 4.815 7.859c-1.942 4.863-9.348 1.339-10.926 0 0 0-1.336 8.267-5.708 8.022-4.371-.245-5.828-5.349-5.828-5.349s-1.822 6.928-6.069 6.808c-4.247-.121-6.92-6.322-6.92-6.322s-5.463 8.994-11.171 5.59c-5.708-3.404-1.137-12.311-1.137-12.311l42.94-4.301.004.004Z"/>
  <path fill="#DF8F3E" d="m164.777 353.013-12.943 1.296c-1.324 2.611-3.014 5-4.903 6.892-2.872 2.876-6.584 5.087-10.552 6.409 1.175 1.4 2.769 2.689 4.682 2.743 4.251.12 6.07-6.808 6.07-6.808s1.457 5.104 5.828 5.349c4.371.245 5.708-8.022 5.708-8.022 1.577 1.339 8.983 4.863 10.926 0 1.943-4.863-4.816-7.859-4.816-7.859Zm-36.649 15.985c-2.396 0-4.695-.341-6.896-.96a5.672 5.672 0 0 0 1.74 1.587c2.391 1.426 4.736.674 6.658-.681-.502.033-1.004.054-1.502.054Z"/>
  <path fill="#EFAE42" d="M71.633 353.013s-6.526 2.892-4.65 7.589c1.877 4.697 9.025 1.293 10.549 0 0 0 1.29 7.98 5.508 7.747 4.218-.232 5.625-5.162 5.625-5.162s1.76 6.688 5.862 6.571c4.101-.116 6.679-6.101 6.679-6.101s5.276 8.682 10.785 5.399c5.509-3.284.822-11.384.822-11.384l-41.18-4.655v-.004Z"/>
  <path fill="#DF8F3E" d="M71.633 353.013s8.75 9.31 24.77 9.31 17.643-1.796 17.643-1.796-.291-.864-.581-1.533a24.104 24.104 0 0 0-.652-1.326l-41.18-4.655Z"/>
  <path fill="#EB9E4E" d="M121.801 357.285s2.968 4.119 18.987 4.119c16.02 0 26.921-6.471 26.921-6.471s-.859-.686-1.237-.956c-.423-.304-1.499-.89-1.499-.89l-43.172 4.194v.004Z"/>
  <path fill="#0779B9" d="M78.703 282.069s23.786 14.526 78.234 0l8.032 71.023s-32.072 11.891-43.135 4.222l-5.094-18.237-3.931 18.591s-27.817 6.259-41.18-4.655l7.074-70.948v.004Z"/>
  <path fill="#209BD0" d="M81.745 283.516c-2.046-.84-3.043-1.447-3.043-1.447l-7.07 70.948c1.79 1.463 3.837 2.614 6.045 3.516 0 0 5.09-72.593 4.072-73.013l-.004-.004Z"/>
  <path fill="#185889" d="M140.855 285.723s14.027-2.935 16.082-3.654l8.033 71.023s-10.528 3.483-15.248 4.501c-1.477.32 18.943-.062-8.867-71.87Zm-25.02 51.496-10.382 21.629s3.055-.345 3.985-.494c.93-.15 3.371-.682 3.371-.682l3.931-18.591-.253-1.758c-.05-.341-.506-.407-.656-.1l.004-.004Z"/>
</svg>
