<svg xmlns="http://www.w3.org/2000/svg" width="250" height="414" fill="none" viewBox="0 0 250 414">
  <path fill="#1E1E1E" d="M104.145 330.492c-3.044-18.703-6.002-37.254-9.364-55.245a49.4 49.4 0 0 1-.9-5.587c-9.227-1.76-14.734-3.902-14.734-3.902s-3.044 25.679-3.886 34.254c-.565 5.748-1.46 16.256-2.31 26.615 5.45 3.123 15.8 3.972 24.26 4.013 2.54.013 4.917-.049 6.934-.144v-.004Z"/>
  <path fill="#575858" d="M94.179 305.604c-6.621-1.257-14.566-3.589-18.77-6.437.03-.292.058-.577.083-.849.429-4.367 1.427-13.161 2.306-20.747 3.271 1.422 8.803 2.625 13.423 3.573-.87-7.199-1.44-11.95-1.481-12.35-7.772-1.85-10.59-3.036-10.59-3.036s-3.043 25.679-3.885 34.254c-.565 5.748-1.46 16.256-2.31 26.615 5.45 3.123 15.8 3.972 24.26 4.013a56312.2 56312.2 0 0 1-3.032-25.032l-.004-.004Z"/>
  <path fill="#575858" d="M100.224 306.485c-1.052-8.698-3.074-17.562-4.175-24.34-1.34-.292-3.011-.63-4.826-1.001.796 6.589 1.84 15.23 2.957 24.46 2.228.424 4.307.725 6.044.881Z"/>
  <path fill="#575858" d="M104.014 326.672c5.717.944 11.282 1.558 16.83 1.747 7.991.272 15.944-.337 24.268-2.109 4.678-.998 9.475-2.357 14.463-4.137-2.451-25.973-5.21-56.42-5.21-56.42s-17.796 6.61-39.147 6.144a129.413 129.413 0 0 1-21.335-2.241c.194 1.842.478 3.7.9 5.587 3.324 17.789 6.224 34.386 9.231 51.421v.008Z"/>
  <path fill="#828282" d="M75.489 298.318c-.025.272-.054.557-.083.849 4.208 2.848 12.149 5.18 18.77 6.437-1.119-9.23-2.162-17.871-2.958-24.46-4.62-.952-10.152-2.155-13.423-3.573-.879 7.586-1.877 16.384-2.306 20.747Zm82.253 3.515c-.717-7.619-1.373-14.603-1.877-19.993-2.132 1.072-7.767 3.338-17.345 4.821a902.309 902.309 0 0 0 3.036 20.059c5.845-1.054 11.418-2.624 16.186-4.887Zm-60.881-15.11c1.188 6.618 2.401 14.027 3.527 20.756 4.373.56 10.144 1.001 16.517 1.079a2233.093 2233.093 0 0 1-3.787-20.582 196.224 196.224 0 0 1-16.252-1.253h-.005Z"/>
  <path fill="#828282" d="M138.52 286.657c-.771-5.468-1.505-10.94-2.231-16.408-6.411 1.17-13.036 1.825-21.426 1.644-1.155-.025-3.741-.156-4.855-.21.944 5.316 2.153 10.973 3.11 16.293 10.416.35 18.839-.297 25.406-1.315l-.004-.004Zm6.587 39.653a549.22 549.22 0 0 1-3.551-19.594c-8.164 1.471-16.859 1.929-24.652 1.838 1.258 6.63 2.566 13.252 3.94 19.861 7.99.272 15.943-.338 24.268-2.109l-.005.004Z"/>
  <path fill="#B5B5B6" d="M141.556 306.72a908.214 908.214 0 0 1-3.036-20.059c-6.568 1.018-14.987 1.669-25.407 1.315a2226.929 2226.929 0 0 0 3.787 20.582c7.792.091 16.488-.367 24.652-1.838h.004Z"/>
  <path fill="#1E1E1E" d="M103.741 283.109a3.95 3.95 0 0 0 3.952-3.947 3.95 3.95 0 0 0-3.952-3.948 3.95 3.95 0 0 0-3.952 3.948 3.95 3.95 0 0 0 3.952 3.947Z"/>
  <path fill="#F2E1D6" d="M102.932 282.322a3.95 3.95 0 0 0 3.952-3.947 3.95 3.95 0 0 0-3.952-3.948 3.95 3.95 0 0 0-3.951 3.948 3.95 3.95 0 0 0 3.951 3.947Z"/>
  <path fill="#E3C9BD" d="M102.933 280.752a2.379 2.379 0 1 0 0-4.755 2.378 2.378 0 1 0 0 4.755Z"/>
  <path fill="#D1AA99" d="M100.899 278.766a2.378 2.378 0 0 1 3.969-1.767 2.378 2.378 0 0 0-4.319 1.376c0 .7.305 1.331.792 1.768a2.37 2.37 0 0 1-.442-1.377Z"/>
  <path fill="#828282" d="m83.178 267.084-4.03-1.326c-.516 2.888-1.118 7.586-1.761 13.367 1.753.206 3.543.243 5.28.247l.511-12.283v-.005Z"/>
  <path fill="#B5B5B6" d="M82.674 279.187c-1.782-.301-3.428-.536-5.177-1.047a1338.964 1338.964 0 0 0-2.194 21.79c1.967 1.232 4.096 2.282 6.394 2.744l.977-23.492v.005Z"/>
  <path fill="#1E1E1E" d="M72.948 326.648v-.013c-.029.375-.062.75-.09 1.121.028-.371.061-.742.09-1.112v.004Z"/>
  <path fill="#575858" d="M104.145 330.492c-2.017.095-4.393.157-6.934.144 1.002 8.258 1.518 13.042 2.244 19.046 3.482-.338 10.028-1.311 11.29-1.603"/>
  <path fill="#828282" d="M72.857 327.756c3.119.758 4.913 1.071 7.735 1.459l-.838 20.149v.116c1.02.288 6.386.989 10.602.956 4.344-.037 6.501-.524 9.104-.754-.726-6-1.246-10.788-2.244-19.046-8.465-.037-18.81-.89-24.26-4.013v.025c-.033.37-.062.741-.09 1.112l-.009-.004Zm86.717-5.583c.161 1.722.322 3.42.483 5.093l-.479-5.093h-.004Zm-9.719 24.991c4.802-.729 8.873-1.694 11.798-2.856-.466-4.899-1.015-10.795-1.6-17.038-.157-1.673-.318-3.371-.483-5.093-4.987 1.78-9.785 3.14-14.463 4.137 1.407 6.992 2.97 13.948 4.748 20.854v-.004Z"/>
  <path fill="#B5B5B6" d="M120.84 328.419a798.513 798.513 0 0 0 4.484 20.323c8.881.054 17.494-.507 24.532-1.578-1.778-6.906-3.342-13.862-4.748-20.854-8.325 1.771-16.278 2.381-24.268 2.109Z"/>
  <path fill="#575858" d="M105.143 336.426c-.536-3.28-1.068-6.56-1.6-9.832l.47.074c-3.003-17.034-5.907-33.632-9.232-51.421 3.362 17.991 6.32 36.542 9.364 55.245h.029c.301 1.974.631 3.968.969 5.934Z"/>
  <path fill="#828282" d="M120.84 328.419c-5.544-.189-11.109-.803-16.831-1.747l-.47-.074c.532 3.272 1.064 6.552 1.601 9.832.688 4.013 1.398 7.916 1.951 11.294.222.025.449.046.672.07 5.722.606 11.695.915 17.556.952a834.49 834.49 0 0 1-4.484-20.322l.005-.005Z"/>
  <path fill="#575858" d="M107.005 347.712a.64.64 0 0 1 .087.008c-.549-3.383-1.262-7.281-1.951-11.294.614 3.758 1.233 7.52 1.86 11.286h.004Z"/>
  <path fill="#B5B5B6" d="M71.505 344.469c.004-.07.012-.144.016-.214.021-.268.042-.54.066-.812.013-.14.021-.28.033-.42.025-.289.046-.577.07-.874.005-.066.013-.132.017-.193.305-3.804.652-8.093 1.015-12.498.004-.07.012-.144.016-.214l.124-1.484c-.012 0-.02-.004-.033-.008-.59 7.063-1.105 13.866-1.49 18.699h.01l.156-1.982Zm-.001 0-.156 1.982.156-1.982Z"/>
  <path fill="#B5B5B6" d="M71.52 344.255c.02-.268.04-.54.066-.812-.021.272-.046.544-.067.812Zm.187-2.299Zm.118 4.689c2.574 1.022 5.194 1.833 7.933 2.723l.837-20.149c-2.821-.388-4.616-.705-7.734-1.459-.557 6.923-1.04 13.903-1.424 18.712l.388.173Z"/>
  <path fill="#B5B5B6" d="m71.826 346.645-.388-.173c.384-4.813.867-11.789 1.424-18.712l-.124 1.483c-.004.07-.013.145-.017.215-.359 4.405-.71 8.698-1.014 12.497-.005.066-.013.132-.017.194-.025.297-.045.585-.07.874-.013.14-.02.28-.033.42-.02.272-.046.544-.066.812-.004.074-.013.144-.017.214l-.156 1.982c.16.066.321.128.478.19v.004Z"/>
  <path fill="#B5B5B6" d="M71.69 342.149c.004-.066.012-.132.016-.193-.004.065-.012.131-.017.193Zm-.346 4.306h-.01s.005 0 .01.005v-.005Zm4.363 1.747-.03-.012c.01 0 .022.008.03.012Z"/>
  <path fill="#B5B5B6" d="M71.826 346.645a49.353 49.353 0 0 0 3.853 1.545c.008 0 .02.008.03.012 1.32.47 2.672.895 4.042 1.282v-.116c-2.731-.89-5.35-1.701-7.929-2.723h.004Z"/>
  <path fill="#B5B5B6" d="m75.708 348.202-.029-.012a51.676 51.676 0 0 1-3.853-1.545c-.16-.062-.322-.124-.478-.19 2.99 1.422 5.197 2.258 8.406 3.033a64.386 64.386 0 0 1-4.042-1.281l-.004-.005Zm-.029-.012Z"/>
  <path fill="#828282" d="M75.324 299.695a2989.188 2989.188 0 0 0-2.5 28.053 45.616 45.616 0 0 0 7.772 1.467l1.122-26.994c-2.764-.631-4.38-1.405-6.39-2.53l-.004.004Z"/>
</svg>
