<svg xmlns="http://www.w3.org/2000/svg" width="250" height="414" fill="none" viewBox="0 0 250 414">
  <path fill="#AF813C" d="M79.412 264.707c.05.033.1.062.153.099v-.004c-.05-.033-.103-.062-.153-.095Z"/>
  <path fill="#80552E" d="M95.487 313.569c1.7-13.549 2.929-29.104 2.904-39.401-.012 0-.02-.005-.033-.009-6.439-1.57-10.684-3.411-13.493-5.039-1.621 12.098-6.196 12.564-6.196 12.564H77.51c-1.019 9.774-2.017 21.151-2.863 26.726-1.312 8.678-3.881 36.315-3.881 36.315 4.71 5.315 11.001 6.304 20.126 6.852h-.107l4.702-38.008Z"/>
  <path fill="#AF813C" d="m77.51 281.688.429-4.03c-.14 1.302-.285 2.649-.43 4.03Z"/>
  <path fill="#845D30" d="M79.564 264.797v.004c.07.046.145.091.227.141-.078-.05-.152-.099-.227-.145Z"/>
  <path fill="#613D25" d="M119.079 276.788c-1.299 0-1.468-.655-1.493-.828v2.151c.033.206.243.804 1.485.804 3.284 0 7.932-.997 11.414-1.682l-.029-2.113c-3.473.684-8.101 1.673-11.373 1.677l-.004-.009Z"/>
  <path fill="#8F5F34" d="M118.143 266.891c.181-.124.425-.215.751-.248 24.412-2.336 33.124-7.408 33.124-7.408v-1.438s.342 1.368.668 3.403c.12.738.305 1.925.491 3.14h.012l.533 3.189.734-.576-.685-10.409s-10.461 5.649-34.877 7.986c-1.308.123-1.308 1.261-1.308 1.261v1.03l.557.07Z"/>
  <path fill="#AF813C" d="m80.7 264.027-.224-1.784-.754-.095s-.116.935-.31 2.559c.05.029.103.062.153.095.029-.219 1.097-.515 1.134-.775Zm73.02 3.502-.532-3.189h-.012c.181 1.179.367 2.382.499 3.227l.045-.033v-.005Z"/>
  <path fill="#8F5F34" d="m118.143 266.891-.557-.07v1.083s0-.642.557-1.013Z"/>
  <path fill="#AF813C" d="M80.236 259.441s.009 0 .013.004c0-.96-.013-1.249-.013-1.249v1.245Z"/>
  <path fill="#80552E" d="m153.177 264.34-.491-3.14a44.596 44.596 0 0 0-.668-3.403v1.438s-8.712 5.072-33.125 7.409a1.566 1.566 0 0 0-.75.247l7.264.898 27.77-3.445v-.004Z"/>
  <path fill="#80552E" d="M117.586 267.904v8.007l12.845-2.279.021 1.479c.611-.119 1.192-.235 1.716-.329 12.821-2.308 21.129-7.03 21.508-7.22-.132-.844-.317-2.043-.499-3.222l-27.77 3.445-7.264-.898c-.557.37-.557 1.013-.557 1.013v.004Zm6.324.009a2.61 2.61 0 0 1 2.095 1.05 2.63 2.63 0 0 1 1.399 2.32 2.631 2.631 0 0 1-2.628 2.629 2.611 2.611 0 0 1-2.096-1.051 2.62 2.62 0 0 1-1.398-2.319 2.63 2.63 0 0 1 2.628-2.625v-.004Z"/>
  <path fill="#80552E" d="M117.586 275.911v.045c.025.173.194.828 1.493.828 3.271 0 7.9-.989 11.373-1.677l-.021-1.479-12.845 2.279v.004Z"/>
  <path fill="#613D25" d="M117.582 275.915c-4.616.029-13.019-2.365-19.215-3.878.017.68.025 1.393.025 2.131 6.192 1.512 14.512 4.178 19.12 4.153 0 0 .066-.255.07-.214v-2.192Z"/>
  <path fill="#845D30" d="m117.582 275.911-19.215-3.878c6.196 1.512 14.599 3.907 19.215 3.878v.041-.045.004Zm6.327-2.745c-.446 0-.862-.111-1.229-.305a2.625 2.625 0 0 0 2.095 1.051 2.629 2.629 0 0 0 2.628-2.629 2.63 2.63 0 0 0-1.399-2.32c.331.441.533.985.533 1.579a2.628 2.628 0 0 1-2.628 2.624Z"/>
  <path fill="#E6E7E7" d="M122.68 272.861a2.596 2.596 0 0 1-.532-1.578 2.63 2.63 0 0 1 2.627-2.625c.446 0 .862.112 1.229.309a2.621 2.621 0 0 0-2.095-1.05 2.63 2.63 0 0 0-2.628 2.625c0 1.005.565 1.879 1.399 2.319Z"/>
  <path fill="#E6E7E7" d="M122.148 271.279c0 .593.198 1.137.533 1.578a2.628 2.628 0 0 0 3.857-2.32c0-.593-.198-1.137-.533-1.578a2.643 2.643 0 0 0-1.229-.309 2.631 2.631 0 0 0-2.628 2.625v.004Z"/>
  <path fill="#613D25" d="M98.366 272.037c-6.86-1.672-10.647-3.255-13.324-4.442-2.743-1.215-4.294-2.019-5.251-2.653a10.47 10.47 0 0 1-.384-.243 1.044 1.044 0 0 0-.066-.037l-1.402 12.992-.43 4.03h1.16s6.29.457 7.912-11.641c2.805 1.628 5.338 2.543 11.773 4.112.012 0 .02.005.033.009 0-.738-.008-1.451-.025-2.131l.004.004Z"/>
  <path fill="#845D30" d="M84.683 267.735c-.92-.506-3.535-1.957-4.892-2.789.957.63 2.15 1.574 4.892 2.789Z"/>
  <path fill="#80552E" d="M117.573 275.903s-24.986-.895-38.231-11.241l.895-8.954s20.015 11.018 37.336 10.07v10.125Z"/>
  <path fill="#A07438" d="M117.584 265.791h-1.406v.012c.458.004.928 0 1.406-.012Z"/>
  <path fill="#734929" d="m116.178 265.807-.264.808-.417 1.285-2.483 7.66s1.947.178 2.594.227c.495.037 1.976.128 1.976.128v-10.12c-.478.016-.944.02-1.411.012h.005Z"/>
  <path fill="#845D30" d="m153.676 267.567.045-.025v-.008l-.045.033Z"/>
  <path fill="#613D25" d="M154.451 266.953s-.759.601-.776.61c-.379.189-8.683 4.911-21.508 7.219-.524.095-1.105.206-1.716.329l.029 2.114c.598-.119 1.163-.226 1.679-.321a64.624 64.624 0 0 0 7.755-1.896c.124 3.536 1.353 16.915 12.747 15.234 3.394 22.091 8.448 54.854 8.497 55.014 0 0 1.58-1.475 1.58-2.616 0-1.916-8.287-75.687-8.287-75.687Z"/>
  <path fill="#80552E" d="M152.664 290.246c-11.393 1.681-12.618-11.698-12.746-15.234a64.86 64.86 0 0 1-7.755 1.896c-.516.095-1.081.202-1.679.321-3.482.688-8.131 1.682-11.414 1.682-1.242 0-1.452-.598-1.49-.804l-2.879 29.174 5.256 37.975.561 3.363c9.966 4.256 22.733 1.895 29.333.3.47-.066.92-.148 1.341-.239 4.962-1.405 8.043-2.526 9.966-3.424-.05-.156-5.099-32.923-8.498-55.014l.004.004Z"/>
  <path fill="#613D25" d="M116.179 277.983s.004 0 .012-.004c-4.768-.354-12.177-2.439-17.795-3.811.024 10.297-1.205 25.852-2.904 39.401l-4.703 38.008h.107c9.554.264 15.812-.832 19.838-2.159l.161-.96 3.943-42.586 2.752-27.769-1.407-.124-.004.004Z"/>
  <path fill="#734929" d="m114.701 307.281 2.879-29.174s5.177-.132 7.162-.309c1.67-.148 7.416-.89 7.416-.89l9.892 73.52s-15.266 2.311-21.532-1.805l-5.817-41.338v-.004Z"/>
</svg>
