<svg xmlns="http://www.w3.org/2000/svg" width="252" height="418" fill="none" viewBox="0 0 252 418">
  <path fill="#212B56" d="M73.253 342.098s-2.728.882-2.728 2.054v8.686c0 .374.133.736.378 1.018 1.57 1.788 8.323 8.055 25.875 8.055 0 0 9.9 1.006 13.537-2.024.228-.191.394-.445.473-.731.419-1.513 1.876-6.945 1.54-7.889-.39-1.097-2.345-1.8-2.345-1.8l-36.734-7.373.004.004Z"/>
  <path fill="#345E9C" d="M72.572 345.232a3.601 3.601 0 0 1-1.989-1.201.835.835 0 0 0-.054.287v8.686c0 .374.133.736.378 1.019.29.332 1.204 1.014 1.889 1.583l-.224-10.37v-.004Z"/>
  <path fill="#212B56" d="M116.642 279.663s-.689-3.18 1.503-3.205c2.191-.025 26.895-2.493 37.622-8.74 0 0 1.075.075 1.233.943l1.079 10.732s.004 1.151-1.245 1.82c-1.25.669-17.925 10.195-39.333 8.084l-.859-9.638v.004Z"/>
  <path fill="#212B56" d="m78.878 279.812-6.306 66.63s31.687 7.942 38.719 6.18l4.267-35.869c.033-.266.411-.274.457-.012l6.293 36.093s37.975 4.011 40.205-1.621l-5.264-71.401H78.878Z"/>
  <path fill="#0D111B" d="m118.667 276.221 2.752-.033 1.005 13.404-3.778.083.021-13.454Z"/>
  <path fill="#212B56" d="M121.432 347.847s-2.325 1.28-2.017 2.477l2.287 8.857c.1.382.328.715.656.939 2.071 1.409 10.61 6.022 28.515 1.392 0 0 10.365-1.583 13.275-5.636.183-.253.287-.556.291-.868.029-1.654.087-7.581-.502-8.45-.685-1.014-2.865-1.218-2.865-1.218l-39.636 2.507h-.004Z"/>
  <path fill="#1F6DB0" d="M114.711 323.873s.797-10.914-7.169-8.686c-7.966 2.227-9.73 1.159-10.785-.3-1.054-1.459-3.047-15.075-12.582-9.439-6.438 3.803-1.366 10.936 3.088 11.571 4.455.636 3.214 4.764 2.226 6.035-1.91 2.465-8.909 2.656-7.149 10.208 2.657 11.413 14.77 10.798 20.511-4.46 0 0 2.225-3.287 5.156-1.409 2.931 1.879 3.047 7.469-.822 10.719-3.869 3.251.312 12.806 5.019 6.796l2.503-21.031.004-.004Zm43.737-27.784s-4.143-8.01-10.395-.341c-6.252 7.668-5.782 9.389-15.471 7.668-9.689-1.721-13.911 21.579 3.595 22.053 0 0 6.251.32 10-7.814 3.748-8.133 10.785.782 6.721 7.041s1.502 19.24 8.485 11.264l-2.939-39.867.004-.004Z"/>
  <path fill="#0D1734" d="M78.879 279.813s59.839 7.676 77.536-4.173l.507-.158 1.697 22.888s-26.783 10.233-80.662-8.695l.922-9.862Z"/>
  <path fill="#1F6DB0" d="M121.37 289.605s-6.451 9.975 2.81 10.44c0 0 2.698-.116 4.571-3.757 1.872-3.641 5.861-3.4 9.261-1.467 3.4 1.932 8.908-1.467 11.254-10.503 0 0-13.595 5.752-27.896 5.282v.005Zm8.086 61.608s-10.619-6.355-3.201-12.743c7.418-6.388 6.248 1.006 9.178 3.001 2.931 1.995 1.1-8.803 7.348-7.98 6.248.823 10 4.813 7.302 9.975-2.698 5.162 2.931 3.99 4.923 1.292 1.993-2.697 4.293-.615 4.314.69 0 0-3.961 7.407-29.864 5.765ZM85.27 285.145s-5.392 2.111-3.283 5.515c2.109 3.404 6.33.707 8.44 1.763 2.108 1.055 3.424 3.229 2.93 7.622-.822 7.307 13.098 8.949 13.538-2.078.294-7.311 6.505-8.013 6.505-8.013s-9.494-.349-18.988-1.879c-4.587-.735-6.617-2.257-9.141-2.934v.004Z"/>
  <path fill="#1E77B9" d="M139.414 287.468s-8.431-4.551-3.861-6.899c4.571-2.348 8.087 3.52 9.61 0 1.524-3.52-2.005-6.879 1.458-9.131 0 0 7.036-2.303 9.145-3.716 0 0 1.39-.033 1.311 1.741-.078 1.775.997 9.46.997 9.46s.232 1.712-1.246 2.294c0 0-14.321 5.99-17.422 6.247l.008.004Zm-62.989 70.345s-4.87-9.065 2.4-8.009c7.268 1.056 2.108 6.808 7.147 6.808 5.04 0 2.695-5.511 8.203-5.162 0 0 8.324.706 11.254 0 0 0 7.149 5.731 0 10.316 0 0-17.456 1.941-29.004-3.957v.004Zm59.751 5.711s-6.72-7.56 0-7.627c6.721-.066 16.236 2.905 16.879-1.945.644-4.85 0-4.626 0-4.626s5.414-1.924 5.754-3.229c0 0 3.856 2.73 3.703 11.355 0 0-7.032 5.943-26.336 6.072Z"/>
  <path fill="#244881" d="M157.922 288.94s-9.046-5.129-8.655 0c.39 5.128 3.698 12.693-1.412 15.149-5.11 2.457 3.392 12.033 11.47 5.112l-1.403-20.261Zm-80.297 4.135s1.652 6.114 6.036 4.078c4.383-2.037 10.739-4.381 11.075 2.892.337 7.274-10.531 12.851-18.07 4.04l.955-11.014.004.004Zm16.203 23.94s1.096-8.13 6.094-6.721c4.998 1.409-.47 8.292.938 11.11 1.407 2.818.78 8.919-4.845 5.948-5.624-2.972-5.313-5.32-3.283-6.729 2.03-1.409 1.096-3.608 1.096-3.608Z"/>
  <path fill="#B3DEF6" d="M119.186 334.925s1.54-5.536 4.442-3.072c2.901 2.465 1.378 10.915 6.534 9.273 5.155-1.642 7.385-9.036 1.407-11.268 0 0-2.686-4.576 3.582-7.98 6.269-3.404 1.694-17.602-12.839-13.142 0 0-4.455 3.167-6.8.353-2.346-2.813-15.339 6.871-8.203 11.97 7.136 5.1 7.406 2.818 7.406 2.818l.847-7.119 3.628 18.167h-.004Zm-18.856-45.919s-7.895 10.653.382 11.043c8.278.391 7.751-7.277 11.84-3.832 4.088 3.446 11.918 1.804 12.146-6.608 0 0-2.138-.216-4.898-.121-.208.009-.025.374-.245.378-4.754.142-12.458.179-19.221-.86h-.004Z"/>
  <path fill="#2C558E" d="m158.274 296.084-.489-7.057v-.021s-9.05-5.129-8.656 0c.112 1.463.461 3.126.785 4.813-.639.499-1.304 1.143-1.997 1.995-1.777 2.178-3.01 3.878-4.089 5.154a83.05 83.05 0 0 0 6.613-.702c4.981-.744 7.642-1.675 7.999-1.808l-.166-2.369v-.005Z"/>
  <path fill="#35467F" d="M119.348 297.63c.543 1.335 1.901 2.345 4.695 2.486 0 0 3.113-.116 4.985-3.757 1.873-3.641 5.447-3.4 8.847-1.468 3.399 1.937 9.884-1.928 12.229-10.964 0 0-12.391 5.287-25.405 5.678-.125 4.53-2.587 7.157-5.347 8.025h-.004Z"/>
  <path fill="#264F7D" d="M100.573 289.006c3.607.553 7.368.819 10.818.923-3.23-.183-10.171-.669-17.116-1.787-4.587-.736-6.617-2.257-9.14-2.935 0 0-5.393 2.112-3.285 5.516.12.191.245.361.378.519 1.304.432 2.59.844 3.86 1.243 1.578-.116 3.152-.524 4.202 0 .838.42 1.552 1.022 2.075 1.866 1.603.453 3.176.877 4.72 1.276.752-3.088 3.488-6.629 3.488-6.629v.008Z"/>
  <path fill="#264F7D" d="M124.475 289.588c-.125-.012-1.897-.195-4.841-.108-.207.008 0 .445-.22.449-2.221.066-5.002.091-8.024 0 1.183.066 1.872.091 1.872.091s-6.123.607-6.496 7.773c.116.025.431.066.543.091 2.043-1.8 2.636-3.678 5.102-1.604 1.889 1.587 4.571 2.09 6.937 1.35 2.761-.864 5.222-3.495 5.347-8.025l-.22-.021v.004Z"/>
  <path fill="#70AEC3" d="M97.084 295.635c3.367.869 6.592 1.522 9.681 2.162.373-7.166 6.496-7.773 6.496-7.773s-.689-.025-1.872-.091c-3.45-.108-7.211-.37-10.818-.923 0 0-2.736 3.541-3.487 6.63v-.005Z"/>
  <path fill="#B3DEF6" d="M74.398 327.136s.63-12.186 7.099-8.782c6.467 3.404 7.289 5.045 5.882 11.853s2.358 3.255 5.745 4.576c3.91 1.526.702 14.938-9.46 10.553 0 0-3.899-2.693-3.899-4.688 0-1.995-4.782-6.239-6.318-3.412l.955-10.1h-.004Zm50.297-51.326s-5.114 4.007 0 6.259c5.114 2.253 5.816-5.099 8.51-4.472 2.694.628 24.135 4.123 16.875-7.365 0 0-11.014 3.887-25.385 5.582v-.004Z"/>
  <path fill="#2C558E" d="M120.863 315.448s4.375 10.445 9.377 6.43c5.002-4.015.507-8.15 8.751-13.271 4.375-2.718-2.727-7.838-7.032-7.764-4.305.075-5.704 5.516-11.761 4.294-6.056-1.222-8.182-4.551-9.332 2.739-1.149 7.29 4.92.843 6.676 2.261 1.756 1.417 3.321 5.316 3.321 5.316v-.005Zm20.612 12.702s2.125-5.802 7.792-4.551c5.666 1.251-1.524 7.818.664 9.85 2.187 2.033 7.825 4.946 5.313 7.885-4.674 5.469-8.501-2.087-8.941 2.136-.44 4.223 2.964 6.87 2.964 6.87s-9.494 1.9-13.089 1.114c0 0 5.28-3.304 5.297-6.11.016-2.805 0-17.19 0-17.19v-.004Zm-41.554 23.491s-7.941-3.948-3.188-7.548c4.753-3.599 8.219-3.666 10.378-9.543 2.159-5.876 6.829-4.193 6.829-4.193l-2.512 21.093s-5.766.378-11.507.191Zm-24.768-32.498s4.84.624 4.019 7.664c-.822 7.041-1.258 12.548-6.02 13.492l2.001-21.156Z"/>
  <path fill="#212B56" d="M80.14 268.732s21.774 7.61 38.769 6.908c0 0 1.291.232 1.291 1.055v11.854s-.586 2.111-1.993 2.111-33.04-3.308-39.607-7.298c0 0-1.93-.212-1.93-2.265s1.407-10.973 1.992-11.5c.586-.528.698-1.127 1.478-.865Z"/>
  <path fill="#1E77B9" d="M89.161 271.438s-7.493 2.14-4.986 5.257c2.508 3.118 8.598-1.762 9.067 0 .469 1.763-4.147 7.91 5.683 8.745 6.916.586 4.512-6.097 6.272-6.775 1.76-.677 7.796 1.385 7.356-3.108 0 0-11.482-.861-23.392-4.119Z"/>
  <path fill="#2C558E" d="M77.11 276.949s11.764.923 14.28-4.925l-11.25-3.292s-1.3-.387-1.752 1.496c-.453 1.883-1.279 6.721-1.279 6.721Zm4.01 6.824s2.44-4.214 7.235-2.427c4.794 1.787 4.919 6.517 4.919 6.517s-11.183-3.154-12.155-4.094v.004Z"/>
  <path fill="#0D111B" d="M114.326 286.878a3.605 3.605 0 0 0 3.603-3.608 3.605 3.605 0 0 0-3.603-3.607 3.605 3.605 0 0 0-3.603 3.607 3.605 3.605 0 0 0 3.603 3.608Z"/>
  <path fill="#E6E7E7" d="M113.4 286.105a3.605 3.605 0 0 0 3.603-3.607 3.605 3.605 0 0 0-3.603-3.608 3.605 3.605 0 0 0-3.603 3.608 3.605 3.605 0 0 0 3.603 3.607Z"/>
  <path fill="#0D1734" d="M125.314 339.601c-.723-2.631-1.495-5.445-2.213-8.084-2.495-1.239-3.811 3.495-3.811 3.495l-3.628-18.167 5.878 31.089c1.939 2.028 6.771 2.498 6.771 2.498-2.387-1.817-7.012-6.226-2.997-10.836v.005Z"/>
  <path fill="#264F7D" d="M125.313 339.6c-4.014 4.61.611 9.019 2.998 10.836 0 0-1.383-4.959-2.998-10.836Z"/>
  <path fill="#70AEC3" d="M123.101 331.517c-1.42-5.225-2.619-9.747-2.798-10.728-.328-1.804-2.466-3.013-3.723-3.578a10.9 10.9 0 0 0-.918-.366l3.562 18.832s1.386-5.395 3.877-4.16Z"/>
  <path fill="#345E9C" d="m81.309 297.323.477-6.787-3.89-1.048-.328 3.433c.108.37 1.196 3.924 3.74 4.402Zm-1.419 20.299.73-10.449c-1.386-.727-2.747-1.795-4.013-3.275l.817-9.443-2.955 31.122c.349-2.743 1.552-8.603 5.417-7.959l.004.004Zm-6.51 19.426-.493 5.192c1.66 2.506 5.006 3.786 5.006 3.786l.552-7.905c-1.527-1.667-4.035-2.972-5.068-1.073h.004Z"/>
  <path fill="#3183C0" d="m80.62 307.173.689-9.85c-2.545-.478-3.632-4.036-3.74-4.402l-.146 1.538-.817 9.443c1.266 1.48 2.627 2.548 4.014 3.275v-.004Z"/>
  <path fill="#E2F2FC" d="m74.469 325.581-1.088 11.467c1.038-1.899 3.545-.594 5.069 1.073l1.436-20.499c-3.865-.644-5.069 5.216-5.417 7.959Z"/>
</svg>
