<svg xmlns="http://www.w3.org/2000/svg" width="251" height="415" fill="none" viewBox="0 0 251 415">
  <path fill="#575858" d="M124.625 315.851c-1.65.31-3.332.43-5.001.351l-2.734.834c-2.061.132-4.857-1.011-6.836-1.602l-3.261-.97 9.499 6.733.598-4.161 1.167 4.409 6.564-5.594h.004Z"/>
  <path fill="#2C5B78" d="M160.5 324c-7.245.359-7.927 4.24-21.5 4.5-7.5-.641-16.527-2.72-21-4-.165-.838.169.838 0 0-.099-.52.095.52 0 0-.919-4.776-.887-3.649-1.81-8.409l1.051 5.354 5.937-4.496-.33-.838c-1.649.31-1.488.682-3.158.603l-2.795.326c-2.062.132-4.853-1.015-6.832-1.606l.334.31 5.904 5.453c-.293 2.147-.598 4.281-.891 6.432-.148 1.065.149-1.065 0 0-.156 1.098.157-1.098 0 0C112.5 331 101.5 332 90.5 329c-10-3.5-12.44-4.767-17-7 .177-1.119 5.2-47.876 5.356-48.871 12.666 3.76 24.474 4.256 39.016 4.784 12.764.467 28.366-1.725 37.696-4.784.222.995 4.932 50.871 4.932 50.871Z"/>
  <path fill="#1B4251" d="m115.366 288.069-.755 20.921 3.002.182.416-19.815-2.663-1.288Z"/>
  <path fill="#0C2E3F" d="M123.711 316.545c.235-.177.082-.549-.211-.512-1.286.174-6.605 1.003-6.605 1.003-2.057.132-4.852-1.015-6.835-1.606l-.726-.272 6.964 6.035.371-2.65.577 2.902 6.469-4.896-.004-.004Z"/>
  <path fill="#1B4251" d="m160.501 324.351-3.98-41.76-7.141-7.869c-35.849 8.236-70.527-1.601-70.527-1.601 8.634 5.193 22.116 7.823 35.433 9.086l-35.985.355c21.18 5.697 48.922 9.544 65.352 11.501 3.134.371 4.688 3.1 5.875 6.027 13.804 34.029-31.577 24.261-31.577 24.261 17.55 11.149 42.55 0 42.55 0Z"/>
  <path fill="#527B9B" d="M78.852 273.125s1.328.338 3.233 1.197L77 323l-3.5-1 5.356-48.875h-.004Z"/>
  <path fill="#1B4251" d="m116.891 317.036-1.262 10.51S101 340 73.5 321.5c0 0 31.995 11.004 39.028 1.163 2.285-3.2-3.516-7.542-3.516-7.542l7.874 1.915h.005Z"/>
  <path fill="#0C2E3F" d="M142.523 281.195s1.402 12.463 14.95 11.184l-1.637-16.827s-4.259.673-5.842 1.061c-1.851.45-7.471 4.586-7.471 4.586v-.004Zm-50.988-2.935s-1.79 17.099-14.867 14.593l2.185-19.732s3.921 3.265 5.455 3.649c1.797.45 7.227 1.49 7.227 1.49Z"/>
  <path fill="#346680" d="M115.418 275.251c-1.476.037-1.69 1.502-1.69 1.502-21.893-.491-28.316-3.719-33.577-5.626-.664-.24-1.08-.145-1.13.33-.556 5.375-1.113 8.954-1.179 10.477-.012.306.396.537.866.636 8.571 1.816 15.003 3.62 35.775 4.694 0 0 .074.916 1.826.933 18.718.169 31.231-3.373 39.745-6.399.371-.132.503-.318.474-.553-.202-1.581-.754-6.395-1.018-8.702-.066-.583.086-.76-.862-.566-13.54 2.766-21.649 2.815-39.23 3.278v-.004Z"/>
  <path fill="#1B4251" d="m113.732 276.741.755 10.527s-4.923-.211-5.624-.298c0 0 3.319-3.496 3.492-10.258l1.377.029Zm8.119 9.321a4.075 4.075 0 0 0 4.073-4.078 4.076 4.076 0 0 0-4.073-4.079 4.076 4.076 0 0 0-4.074 4.079 4.076 4.076 0 0 0 4.074 4.078Z"/>
  <path fill="#77532A" d="M121.73 285.683a3.978 3.978 0 0 0 3.975-3.98c0-2.198-1.78-3.98-3.975-3.98a3.977 3.977 0 0 0-3.974 3.98 3.977 3.977 0 0 0 3.974 3.98Z"/>
  <path fill="#A07438" d="M121.433 285.563a3.977 3.977 0 0 0 3.975-3.98 3.976 3.976 0 0 0-3.975-3.979 3.976 3.976 0 0 0-3.974 3.979 3.977 3.977 0 0 0 3.974 3.98Z"/>
  <path fill="#876437" d="M121.439 283.85a2.26 2.26 0 0 0 2.259-2.263 2.26 2.26 0 0 0-2.259-2.262 2.26 2.26 0 0 0-2.259 2.262 2.26 2.26 0 0 0 2.259 2.263Z"/>
  <path fill="#77532A" d="M120.266 283.47a2.264 2.264 0 0 1-.63-3.138 2.27 2.27 0 0 1 1.801-1.011 2.253 2.253 0 0 0-1.966 1.011 2.268 2.268 0 0 0 .631 3.138c.408.272.874.392 1.331.375a2.269 2.269 0 0 1-1.167-.375Z"/>
  <path fill="#AF813C" d="M120.75 285.34c.046.017.095.025.141.037.173.037.354.017.531.021.244.008.611-.075.85-.12.297-.054.544-.177.816-.297.33-.149.565-.343.845-.566.281-.223.495-.52.701-.825.074-.112.14-.19.198-.31.074-.153.153-.293.206-.454.083-.248.19-.562.215-.822.024-.284.057-.54.033-.875 0 0-.099-.532-.631-.532-.408.02-.515.268-.586.4l-.057.14c-.029.104 0 .31 0 .31a.785.785 0 0 1 .016.095l-.02-.153c.024.174.028.347.016.52a2.954 2.954 0 0 1-.021.211l.021-.153a2.813 2.813 0 0 1-.19.71l.058-.14c-.091.215-.21.417-.35.603l.09-.116a3.386 3.386 0 0 1-.606.59l.116-.09a3.82 3.82 0 0 1-.804.474l.14-.057a3.03 3.03 0 0 1-.763.21l.153-.021a2.594 2.594 0 0 1-.693 0l.153.021a1.464 1.464 0 0 1-.277-.058.44.44 0 0 0-.23-.012.373.373 0 0 0-.215.07.47.47 0 0 0-.161.149.438.438 0 0 0-.103.198c-.033.148-.024.45.058.578l.091.115c.074.071.255.149.255.149h.004Z"/>
  <path fill="#AF813C" d="M123.293 280.295a2.232 2.232 0 0 1-.474 3.072 1.634 1.634 0 0 1-.524.309c-.305.116-.47.157-.771.17h-.276c.631.086 1.299-.054 1.81-.516.886-.793.969-2.188.231-3.039l.004.004Z"/>
  <path fill="#0C2E3F" fill-rule="evenodd" d="M90.21 284.944s18.64 3.228 24.338 2.278c0 0-1.059.644 2.973.938 4.032.293 24.671-.793 38.594-6.407l.479 4.615s-30.234 5.189-42.054 2.791c0 0-21.44-2.721-25.1-4.43" clip-rule="evenodd"/>
  <path fill="#2C5B78" d="M79.573 292.672c-.544-.066-.8.185-.845.635-.107 1.003.47 1.21 1.113 1.334l.181-1.619a1.379 1.379 0 0 1-.45-.346v-.004Z"/>
</svg>
