<svg xmlns="http://www.w3.org/2000/svg" width="251" height="415" fill="none" viewBox="0 0 251 415">
  <path fill="#EBA741" d="m158.461 305.636 11.837 4.626a.66.66 0 0 1 .124 1.144l-10.656 7.228-1.305-12.998Z"/>
  <path fill="#EBA741" d="m159.762 318.634 11.228 4.556a.66.66 0 0 1 .124 1.145l-10.569 7.224s-.141-3.961-.207-5.172c-.108-2.028-.58-7.757-.58-7.757l.004.004Zm.785 12.925 6.122 2.639a.38.38 0 0 1 .07.661l-6.233 4.275.041-7.575Z"/>
  <path fill="#E47D3A" d="m170.297 310.262-.228-.091c-.041.029-.078.062-.116.091-1.263.933-2.894 1.586-4.443 1.904-2.262.458-4.316.558-6.391.033l.646 6.435 10.656-7.228a.657.657 0 0 0-.124-1.144Zm.695 12.928-.559-.227c-2.116 2.702-5.318 5.015-8.78 4.965a4.374 4.374 0 0 1-1.251-.198c.062 1.495.133 3.482.145 3.788.054-.025.108-.046.162-.067l10.408-7.116a.659.659 0 0 0-.125-1.145Zm-4.328 11.008-.629-.272c-.158.252-.36.475-.597.656.386-.297-.178.162-.24.219-.132.12-.265.244-.397.368-.381.351-.775.698-1.201.995-.816.575-1.968.938-2.962.694-.041-.012-.078-.029-.12-.045l-.012 2.317 6.233-4.275a.38.38 0 0 0-.07-.661l-.005.004Z"/>
  <path fill="#399652" d="M79.393 267.725s36.802 12.892 75.687 0c0 0 6.536 61.128 6.155 72.074 0 0-11.932 7.014-40.157 4.527 0 0-1.793-7.005-6.096-35.072l-4.349 34.527s-24.655 7.572-35.94-4.548c0 0-1.015-17.455 1.57-40.999 2.372-21.624 3.134-30.509 3.134-30.509h-.004Z"/>
  <path fill="#1A7A58" d="M132.059 344.806c21.06.722 29.173-5.011 29.173-5.011.381-9.389-6.154-72.074-6.154-72.074a126.583 126.583 0 0 1-5.641 1.479c2.903 13.474 17.747 66.737-17.382 75.601l.004.005Z"/>
  <path fill="#EBA741" d="m75.725 306.482-10.565 4.87a.66.66 0 0 0-.091 1.149l10.325 6.926.331-12.945Z"/>
  <path fill="#EBA741" d="m75.397 319.423-10.565 4.87a.66.66 0 0 0-.091 1.149l10.768 6.926-.112-12.945Z"/>
  <path fill="#EBA741" d="m75.51 332.368-6.043 2.809a.381.381 0 0 0-.054.661l6.353 4.098-.257-7.572v.004Z"/>
  <path fill="#E47D3A" d="M72.336 313.438c-2.879.822-4.92-.822-7.294-2.003a.654.654 0 0 0 .042 1.061l10.325 6.927.21-8.281a6.161 6.161 0 0 1-3.288 2.296h.005Zm2.912 10.393c-.17.636-.402 1.264-.8 1.788-.811 1.074-2.182 1.632-3.503 1.718-2.294.145-4.58-.9-6.457-2.288a.659.659 0 0 0 .27.393l10.768 6.926-.083-9.43c-.033.298-.12.612-.195.893Zm-2.908 13.887 3.441 2.222-.132-3.879c-.795.913-2.03 1.487-3.31 1.657Z"/>
  <path fill="#1A7A58" d="M139.14 336.974c.348-1.52.087-3.185-.874-4.461a2.562 2.562 0 0 1-.095-.124c-.004-.008-.013-.016-.017-.021-.534-.685-1.097-1.218-1.984-1.466a5.26 5.26 0 0 0-1.917-.384c-3.297-.029-5.641 3.994-4.809 6.96.887 3.164 4.602 4.494 7.385 2.817a4.873 4.873 0 0 0 1.59-1.561c.34-.372.584-.826.671-1.363.021-.133.037-.265.054-.393l-.004-.004Zm6.204-13.594a3.475 3.475 0 0 0-.907-1.549l-.712-.549a3.497 3.497 0 0 0-1.777-.479h-.157a2.68 2.68 0 0 0-1.355.301 2.656 2.656 0 0 0-1.135.727 2.643 2.643 0 0 0-.728 1.132c-.22.417-.324.868-.303 1.351l.124.933c.166.595.468 1.112.907 1.549l.713.55a3.497 3.497 0 0 0 1.777.479h.157c.484.016.936-.083 1.354-.302.435-.14.816-.384 1.135-.727.344-.318.584-.694.729-1.131.219-.418.323-.868.302-1.351l-.124-.934Zm-9.272.459-.037-.285a2.349 2.349 0 0 0-.042-.293c-.029-.1-.078-.195-.116-.285-.149-.347-.169-.393-.476-.736-.36-.404-.981-.632-1.549-.607-.058 0-.112-.008-.174-.004l-.551.074c-.352.1-.654.277-.915.533l-.323.417c-.186.323-.282.67-.282 1.041l.025.504c-.012.285.05.55.178.797.083.257.228.48.427.665l.418.323a2.06 2.06 0 0 0 1.044.281c.103 0 .224-.025.319-.038.099-.012.215-.02.315-.045.091-.033.182-.07.265-.112.091-.037.178-.074.265-.111.012-.008.025-.013.037-.021.075-.058.149-.115.228-.173.078-.054.153-.112.223-.174a2.654 2.654 0 0 0 .402-.533c.066-.132.178-.384.22-.524l.012-.054c.017-.095.029-.19.037-.285.017-.099.029-.198.038-.297v-.054l.012-.004Zm7.153-41a2.223 2.223 0 0 0-.613-.095c-2.224-1.371-5.554-.128-5.861 2.817-.372 3.606 3.541 5.82 6.759 5.341 1.968-.293 3.33-1.966 3.276-3.941-.054-2.069-1.677-3.564-3.561-4.122Zm-51.016 35.06c-1.47-.983-3.976-.413-4.506 1.388-.34 1.161.323 2.338 1.387 2.829.091.042.187.083.282.116.75.583 1.805.719 2.68.244.65-.355 1.167-1.008 1.312-1.739.228-1.136-.19-2.189-1.16-2.838h.005Zm-.109-11.433c-1.047-1.322-2.931-2.132-4.575-1.508a2.744 2.744 0 0 0-1.255.942c-1.123.653-1.976 1.797-2.084 3.18-.236 3.053 2.9 5.449 5.794 4.445 3.003-1.041 4.113-4.548 2.12-7.059Zm8.639 7.038a1.54 1.54 0 0 0-.244-.768c-.286-.442-.709-.83-1.239-.95-.439-.099-.927-.099-1.346.078-.36 0-.716.083-1.03.265-.432.252-.842.743-.953 1.235-.12.529-.096 1.123.207 1.59.285.446.708.822 1.238.95.538.128.94.116 1.483.021.078-.013.149-.033.223-.058.228-.083.472-.174.675-.306.452-.293.808-.706.953-1.235.087-.272.099-.549.037-.822h-.004Zm-11.032 21.525c-1.068-.599-2.32-.401-3.234.371-.39.331-.647.81-.808 1.289-.178.529-.124 1.028-.037 1.57.074.479.55.999.952 1.235a2.2 2.2 0 0 0 1.003.281c.252.111.53.177.828.185 1.18.029 2.253-.834 2.56-1.953.314-1.149-.228-2.396-1.264-2.974v-.004Zm14.86-7.254c-.812-.851-2.175-.925-3.164-.371a2.836 2.836 0 0 0-1.032 1.012c-.12.198-.207.425-.265.652-.124.492-.078.781 0 1.272.071.438.468.905.841 1.161.058.074.112.149.182.215.141.107.278.215.419.322.323.186.671.281 1.043.281a3.05 3.05 0 0 0 .742-.087 2.48 2.48 0 0 0 .662-.289c.394-.252.754-.603.969-1.02.547-1.058.431-2.28-.405-3.152l.008.004Z"/>
  <path fill="#66B673" d="M79.394 267.738s-.762 8.88-3.135 30.508c-2.58 23.544-1.57 40.987-1.57 40.987.737.789 2.473 2.177 3.297 2.834.393-5.485.6-8.443.6-14.205 0-6.2 4.523-44.065 6.279-58.534-3.504-.9-5.471-1.59-5.471-1.59Z"/>
  <path fill="#1A7A58" d="M110.629 343.781s-9.509 2.768-19.565 2.218c0 0 12.785-5.324 16.057-13.631 3.276-8.31 5.074-26.435 6.548-27.62 1.475-1.186 1.309 4.506 1.309 4.506"/>
</svg>
