<svg xmlns="http://www.w3.org/2000/svg" width="250" height="414" fill="none" viewBox="0 0 250 414">
  <path fill="#AF8041" d="m77.025 351.812.226 3.989 5.633.498.379-33.253-6.687-1.762.449 30.528Z"/>
  <path fill="#D1A057" d="m73.863 320.696-3.496 28.539 8.21 2.713-.67-30.314-4.044-.938Z"/>
  <path fill="#AF8041" d="m87.821 320.696-1.614 33.277 7.885.852.881-30.647-7.152-3.482Zm15.243 7.459.536 30.309 7.716-.304.107-25.959-8.359-4.046Z"/>
  <path fill="#A07238" d="m98.264 349.593.222 4.747 7.44-.507-.539-24.555-7.922-3.832.799 24.147Z"/>
  <path fill="#D1A057" d="m81.773 347.712 6.39.486 1.656-26.395-5.365-2.515-2.68 28.424Zm12.471 1.861 7.267-.651-2.898-25.143-3.64.399-.729 25.395Z"/>
  <path fill="#9B6032" d="m77.018 351.433 1.56.515-.671-30.314 5.357 1.412-.095 1.922-3.644-1.029.786 30.742-3.162-.679-.131-2.569Zm9.482-3.437 1.763.14 1.782-26.387 4.929 2.429-.095 3.256-3.66-2.692-.696 27.041-4.18-.572.157-3.215Zm11.764 1.597 3.207-.452-2.857-25.362 6.728 3.54.078 3.52-4.649-2.055 2.174 22.818-4.525 1.342-.156-3.351Z"/>
  <path fill="#E8BD84" d="m71.121 343.102 7.177-3.808-.243-6.191-6.028 2.577-.906 7.422Z"/>
  <path fill="#D1A057" d="m118.875 328.933-1.594 28.066 7.239.049 1.799-34.508-7.444 6.393Z"/>
  <path fill="#A07238" d="m120.941 357.024.153 3.396 7.271-.325 1.915-30.623-4.311-.206-1.45 27.782-3.578-.024Z"/>
  <path fill="#D1A057" d="m128.559 356.966 4.817.161.535-29.812-3.15-5.566-2.202 35.217Z"/>
  <path fill="#AF8041" d="m131.125 357.052.313 4.43 9.701.033.07-31.524-7.338-.346-.494 27.481-2.252-.074Z"/>
  <path fill="#D1A057" d="m141.146 357.888 9.462-1.243-1.651-31.199-7.749 4.545-.062 27.897Z"/>
  <path fill="#9B6032" d="m150.424 353.191 4.825-.868-2.096-26.478-4.286-2.066 1.557 29.412Z"/>
  <path fill="#D1A057" d="m153.037 324.384 2.524 32.565 8.359-4.47-5.444-21.669-5.439-6.426Z"/>
  <path fill="#9B6032" d="m120.941 357.024 3.578.024 1.8-34.508 4.443-.791-.655 10.497-2.767.457-1.169 25.844-5.155.115-.075-1.638Zm20.268-27.033-.009 2.918-4.994.581-.609 25.378-4.225.469-.247-2.285 2.252.075.536-29.812 7.296 2.676Z"/>
  <path fill="#E8BD84" d="m141.336 348.416 8.643-3.622-.309-5.36-8.49 3.063.156 5.919Z"/>
  <path fill="#54A1A0" d="m78.459 274.731-5.139 50.032s3.434 5.499 10.166 4.108c6.732-1.392 8.59-7.904 16.96-7.13 8.371.774 11.628 12.399 11.628 12.399l2.66-29.705 3.154 25.519s5.015-10.666 12.089-10.074c3.285.276 5.665 3.335 7.362 7.225 1.544 3.544 4.961 4.919 6.509 1.375 1.429-3.265 4.789-6.883 6.975-6.895 7.749-.05 9.718 12.551 9.718 12.551s-2.413-40.593-5.678-62.003l-76.408 2.598h.004Z"/>
  <path fill="#D1A057" d="M104.44 314.303c1.4.481 2.561 1.761 2.738 3.038.173 1.235-.23 2.078-.601 2.568-.408.544-1.005.939-1.523 1.013-.886.123-2.38-.272-2.87-1.865-.144-.465-.103-.918.115-1.309.441-.794 1.441-1.087 1.556-1.115l.239.885c-.206.057-.782.288-.992.679-.095.177-.107.366-.037.597.358 1.169 1.47 1.28 1.869 1.226.19-.024.593-.222.914-.654.264-.354.552-.968.424-1.894-.115-.839-1.013-1.972-2.256-2.338-.774-.23-1.935-.226-3.063 1.083-2.384 2.762-2.364 5.866-2.364 5.895l-.939-.354c0-.132-.008-3.108 2.611-6.142 1.523-1.766 3.17-1.61 4.019-1.363.057.017.111.033.168.054l-.008-.004Z"/>
  <path fill="#2C7882" d="m153.389 275.484 1.77-1.955s1.668 15.346 2.421 21.92c1.264 11.036 2.965 38.687 2.965 38.687l-2.528-3.89-4.628-54.766v.004Z"/>
  <path fill="#2C7882" d="M136.52 279.868s2.408 15.215 18.347 13.354l-1.478-17.742-16.869 4.384v.004Z"/>
  <path fill="#0C5A70" d="M73.32 324.763s2.833 4.277 7.716 4.326c0 0 4.183.399 11.142-5.174 0 0 6.905-5.578 13.921.345 0 0 4.401 3.487 5.974 9.88l-.696 4.824s-6.209-13.275-11.508-13.658c-6.452-.465-10.812 9.707-19.648 8.077-2.125-.392-5.757-2.734-7.383-4.475l.486-4.145h-.004Z"/>
  <path fill="#8C5D2F" d="m127.189 285.014 1.124 1.008h-23.021l-1.124-1.008h23.021Z"/>
  <path stroke="#0C5A70" stroke-miterlimit="10" stroke-width="3" d="m153.104 272.133 4.912 58.117"/>
  <path fill="#2C7882" d="m109.891 328.846 2.182-22.719 2.66-1.692-2.66 29.705s-1.293-3.927-2.182-5.294Z"/>
  <path fill="#D1A057" d="m133.73 268.128 2.854 41.255h2.017l-2.939-36.521-1.932-4.734Z"/>
  <path fill="#AF8041" d="m137.77 309.383-.024 1.277h4.471l-4.237-32.126-2.318-5.672 2.94 36.521h-.832Zm4.962-20.627 2.043 24.732h4.418l-2.668-19.755-3.793-4.977Z"/>
  <path fill="#9B6032" d="m137.98 281.531 3.69 26.753-1.845-23.019-1.845-3.734Zm8.223 11.345 1.857 12.786-.053-11.007-1.804-1.779Z"/>
  <path fill="#D1A057" d="M148.06 305.662h3.022l-.449-10.25-3.166-3.153.593 13.403Z"/>
  <path fill="#AF8041" d="M149.678 304.892v1.63h2.993l-.375-11.752-1.663-.132.449 10.254h-1.404Z"/>
  <path fill="#D1A057" d="m152.577 304.888 2.713-.794-.704-8.727-2.289.173.28 9.348Zm-7.388-1.247-3.94 3.964-.354-6.146 3.491-3.795-.885-6.62-3.677-5.524 1.478 23.159 4.167-2.926-.28-2.112Zm1.335 7.932-.844-4.268-4.274 2.98.264 2.042 4.854-.754Z"/>
  <path fill="#E8BD84" d="m141.249 307.605 3.94-3.964-.803-5.977-3.491 3.795.354 6.146Zm4.221-1.852-4.167 2.926.103 1.606 4.274-2.98-.21-1.552Z"/>
  <path stroke="#0C5A70" stroke-miterlimit="10" stroke-width="2" d="M112.164 280.547v15.034m-2.273.317h4.842"/>
  <path fill="#E8BD84" d="m147.904 302.241 2.948-1.803-.144-3.301-2.956 1.745.152 3.359Z"/>
  <path stroke="#0C5A70" stroke-miterlimit="10" stroke-width="10" d="M136.52 279.868s2.079 15.565 18.347 13.354"/>
  <path fill="#0C5A70" d="M116.344 281.716c-19.336 0-33.306-5.071-37.89-6.985a2.09 2.09 0 0 1-1.247-2.338l1.314-8.674a1.145 1.145 0 0 1 1.577-.827c3.2 1.383 12.352 4.857 22.419 6.286 11.447 1.626 31.507.868 51.654-6.583a.656.656 0 0 1 .881.519l1.359 9.225a2.365 2.365 0 0 1-1.544 2.565c-14.131 5.088-27.241 6.812-38.523 6.812Z"/>
  <path fill="#2C7882" d="M76.672 292.131s16.569 2.643 17.796-12.481l-16.273-4.919-1.523 17.4Z"/>
  <path fill="#A07238" d="m105.292 267.103-1.124 17.911 1.124 1.008h23.021v-18.919l-1.124-1.009-21.897 1.009Zm19.142 15.437h-15.267v-11.88h15.267v11.88Z"/>
  <path fill="#D1A057" d="M104.168 266.094v18.92h23.021v-18.92h-23.021Zm19.142 15.437h-15.268v-11.88h15.268v11.88Z"/>
  <path fill="#8C5D2F" d="m109.167 270.655-1.124-1.004h15.268v1.004h-14.144Z"/>
  <path fill="#F2D3AA" d="M104.168 285.014h.581v-18.463l22.44.095v-.552h-23.021v18.92Z"/>
  <path fill="#E2B881" d="m115.676 266.629-1.004-.032-2.508 3.058h.972l2.54-3.026Zm-10.928 12.07v.93l3.294-3.919v-1.029l-3.294 4.018Zm0 2.017v2.478l3.294-3.861v-2.474l-3.294 3.857Zm14.147-14.099-2.095-.008-2.603 3.046h2.104l2.594-3.038Z"/>
  <path fill="#D1A057" d="M118.895 276.513c.523 0 1.12.083 1.626-.049.548-.14 1.083-.334 1.639-.461 1.038-.243 2.038-.395 3.101-.416.539-.012 1.091 0 1.626.095.589.103 1.141.407 1.717.498.659.107 1.379.016 2.046.016 1.326 0 1.326-2.058 0-2.058h-1.91l.519.14c-2.286-1.029-4.871-.86-7.268-.35-.642.136-1.334.272-1.943.519-.017.008-.099.02-.111.037.07-.132.399-.013.164-.037-.086-.009-.177 0-.263 0h-.947c-1.326 0-1.326 2.058 0 2.058l.004.008Z"/>
  <path fill="#F2D3AA" d="M120.02 274.801s.09-.029.106-.037h-.07a.076.076 0 0 0-.036.037Zm.107-.037h.053c.132.012.087-.017.013-.025l-.066.025Zm-.078-.309.065-.025a.245.245 0 0 0-.135.021h.07v.004Z"/>
  <path fill="#F2D3AA" d="M118.974 274.764h1.087a.225.225 0 0 1 .136-.021c.597-.235 1.26-.366 1.878-.498 2.281-.486 4.73-.659 6.929.21h1.73c.469 0 .77.259.905.593-.049-.47-.374-.902-.984-.902h-1.729c-2.199-.868-4.649-.695-6.93-.21-.621.132-1.284.264-1.877.498.074.009.119.037-.013.025h-.053c-.021.008-.099.021-.107.037a.078.078 0 0 1 .037-.037h-1.087c-.857 0-1.157.856-.906 1.466-.058-.552.268-1.157.984-1.157v-.004Z"/>
  <path fill="#A07238" d="M130.652 275.715c-.667 0-1.388.086-2.046-.017-.573-.095-1.129-.395-1.717-.498-.536-.095-1.087-.107-1.627-.095-1.066.021-2.063.173-3.1.416-.556.128-1.091.321-1.639.461-.511.132-1.108.05-1.626.05-.519 0-.824-.305-.939-.68-.19.601.123 1.379.939 1.379.523 0 1.12.083 1.626-.049.548-.14 1.083-.333 1.639-.461 1.037-.243 2.038-.395 3.1-.416.54-.012 1.091 0 1.627.095.588.103 1.14.407 1.717.498.658.107 1.379.016 2.046.016.815 0 1.128-.778.939-1.379a.938.938 0 0 1-.939.68Z"/>
  <path fill="#D1A057" d="m76.53 294.395-2.577 10.09 5.431.992.597-11.349-3.45.267Z"/>
  <path fill="#A07238" d="M79.463 303.937h4.084V293.14l-3.565.988-.52 9.809Z"/>
  <path fill="#D1A057" d="M83.547 293.14v14.21l4.088-1.046-.732-14.869-3.356 1.705Z"/>
  <path fill="#A07238" d="m86.903 291.435.617 12.502 7.416-2.227-.45-2.173-.567.243-2.055-12.556s-3.22 3.326-4.966 4.211h.005Z"/>
  <path fill="#D1A057" d="m92.404 300.833 2.915-1.239-2.174-14.815-2.795 3.503 2.054 12.551Z"/>
  <path fill="#A07238" d="m93.397 286.492 1.35 9.204 2.458.449-1.573-14.684-2.236 5.031Z"/>
  <path fill="#D1A057" d="m97.056 280.029.552 15.288h-.803l-1.22-12.67 1.47-2.618Z"/>
  <path fill="#E8BD84" d="m75.155 299.78 4.64-2.162-.164 3.475-5.254 1.716.778-3.029Zm.281-1.108 4.41-1.988v-.856l-4.176 1.926-.234.918Zm16.16-2.774 2.68-3.405-.28-1.901-2.68 3.602.28 1.704Z"/>
  <path stroke="#0C5A70" stroke-miterlimit="10" stroke-width="10" d="M95.02 279.238s-2.08 15.565-18.348 13.354"/>
  <path fill="#AF8041" d="M91.143 316.834s-.82-6.895 3.957-11.242c4.776-4.343 7.613-5.277 7.613-5.277s.276 6.899-4.632 11.497c-3.302 3.092-6.934 5.022-6.934 5.022h-.004Zm-12.257.214s-.79 4.491 2.376 5.57c3.167 1.078 6.918.766 6.918.766s-1.857-3.767-3.15-4.475c-1.293-.708-6.14-1.861-6.14-1.861h-.004Z"/>
  <path fill="#D1A057" d="M90.54 316.32a15.08 15.08 0 0 1 1.86-7.612c3.266-5.973 9.685-8.616 9.772-8.653l.411-.164.132.424c.091.296 2.104 7.29-7.049 14.169-9.124 6.858-21.295 1.144-21.398 1.091l.07-.696c.082.041 8.922 3.976 16.202 1.437v.004Zm4.636-2.487c7.469-5.61 7.148-11.205 6.864-12.823-2.063.976-10.664 5.607-10.685 15.001a17.178 17.178 0 0 0 3.821-2.178Z"/>
  <path fill="#D1A057" d="M79.254 316.793c6.97-.226 9.144 6.014 9.165 6.08l.124.371-.367.14c-.136.053-3.327 1.239-6.917-.766-3.735-2.087-2.388-5.533-2.376-5.57l.099-.247.263-.008h.009Zm.313.811c-.194.729-.49 2.857 2.095 4.302 2.545 1.42 4.912 1.062 5.826.831-.56-1.28-2.692-5.162-7.921-5.133Zm42.676-5.249c-1.474.132-2.907 1.095-3.385 2.293-.461 1.157-.271 2.075-.033 2.639.268.626.754 1.153 1.236 1.346.831.329 2.375.305 3.232-1.124.251-.415.321-.864.202-1.296-.235-.877-1.141-1.4-1.244-1.458l-.445.803c.186.103.692.469.803.898.054.193.017.382-.107.588-.63 1.05-1.733.893-2.108.745-.177-.07-.523-.358-.733-.856-.173-.408-.304-1.07.041-1.939.313-.786 1.454-1.675 2.751-1.729.807-.037 1.935.243 2.717 1.783 1.651 3.252.894 6.261.886 6.29l.996-.12c.033-.127.754-3.013-1.066-6.586-1.059-2.079-2.693-2.322-3.574-2.285-.058 0-.12.008-.177.013l.008-.005Z"/>
  <path fill="#AF8041" d="M135.674 316.834s.82-6.895-3.956-11.242c-4.777-4.343-7.614-5.277-7.614-5.277s-.275 6.899 4.633 11.497c3.302 3.092 6.933 5.022 6.933 5.022h.004Zm12.254.214s.79 4.491-2.376 5.57c-3.166 1.074-6.917.766-6.917.766s1.857-3.767 3.15-4.475c1.293-.708 6.139-1.861 6.139-1.861h.004Z"/>
  <path fill="#D1A057" d="M156.055 313.953v.543c-.103.049-15.165 7.253-24.902-.008-9.178-6.846-7.14-13.877-7.049-14.169l.131-.424.412.165c.087.037 6.506 2.675 9.771 8.652a15.086 15.086 0 0 1 1.861 7.612c7.28 2.54 19.698-2.326 19.78-2.367l-.004-.004Zm-20.591 2.058c-.017-9.394-8.622-14.025-10.685-15.001-.284 1.618-.605 7.213 6.864 12.823a17.055 17.055 0 0 0 3.821 2.178Z"/>
  <path fill="#D1A057" d="m147.828 316.801.099.247c.012.033 1.359 3.483-2.376 5.57-3.59 2.005-6.781.819-6.917.766l-.366-.14.123-.371c.021-.062 2.199-6.302 9.166-6.08l.263.008h.008Zm-8.502 5.936c.914.227 3.281.589 5.826-.831 2.586-1.445 2.289-3.573 2.096-4.302-5.229-.029-7.362 3.853-7.922 5.133Z"/>
  <path fill="#0C5A70" d="M117.887 329.954s3.409-10.209 10.396-10.057c0 0 5.18-1.84 9.059 7.208 0 0 .955 2.429 3.57 2.478 1.626.029 2.787-2.729 2.787-2.729s1.705-5.113 7.132-5.269c5.426-.157 8.506 6.199 9.717 12.551l.453 6.73s-4.122-13.317-7.844-15.021c-2.273-1.041-4.962-.156-5.427 1.239-.465 1.396-2.635 7.517-7.44 7.517-4.805 0-8.103-11.633-11.858-11.16-5.526.696-9.767 11.082-9.767 11.082l-.774-4.574-.004.005Z"/>
</svg>
