<svg xmlns="http://www.w3.org/2000/svg" width="250" height="414" fill="none" viewBox="0 0 250 414">
  <path fill="#A8E2AD" d="M161.87 320.15c-1.65 2.49-4.48 4.21-7.94 5.39-11.53 3.91-30.13 1.7-35.85 1.16-.75-.07-1.4-.56-1.63-1.28-1.61-4.88-.81-17.21-2.11-15.28l-1.31 12.31-.03.29c-.15 1.5-.09 3.68-1.94 3.64-29.17-2.82-35.8-4.49-37.86-6.65 0 0-.01 0-.01-.01-.39-1.03-.65-2.18-.78-3.41-.04-.34-.07-.68-.09-1.03-.05-.88-.05-1.81-.01-2.77.17-4.08 1.09-8.69 2-13.16.03-.11.05-.22.07-.33.66-3.27 1.3-6.44 1.62-9.25.06-.43.1-.82.13-1.17.17-.97.39-2.26.62-3.72.21-1.3.43-2.73.66-4.21.26-1.66.52-3.38.78-5l.24-1.54c.03-.2.06-.39.09-.58.02-.09.03-.19.05-.28.01-.1.03-.2.05-.3.06-.4.12-.8.18-1.17.02-.06.03-.13.03-.2.04-.17.06-.34.09-.5.02-.13.04-.25.05-.37.05-.26.09-.5.12-.73.02-.06.03-.12.04-.18l.03-.21c0-.03.01-.05.01-.07.05-.29.1-.55.14-.79 0 0 .01 0 .04.01s.07.02.12.04l.09.03c.1.03.23.07.39.11.09.03.2.06.31.1.21.06.47.13.76.21.09.02.18.05.27.07.51.14 1.11.29 1.8.46.37.09.76.18 1.18.28 9.97 2.3 34.01 6.19 63.27-.55.31-.07.62-.14.93-.22.05 0 .1-.02.16-.04.15-.03.31-.06.46-.1l.02-.01c.09-.02.19-.04.28-.07l.25-.06c.34-.08.67-.17 1.01-.26.33-.07.66-.16 1-.24.09-.03.18-.05.27-.07.1-.03.2-.06.3-.08.06-.02.12-.04.18-.05.13-.04.27-.07.4-.11.28-.07.56-.15.85-.24.05-.01.09-.02.14-.04.08 0 .17-.04.26-.07.03 0 .06-.01.09-.02.03 0 .06-.02.09-.03.1-.02.2-.05.3-.08l.12-.03s0 .04.01.06c.01.17.02.39.05.65.03.39.06.88.1 1.38.03.36.05.73.08 1.08 0 .04 0 .08.01.12.01.1.02.2.02.29.07.87.12 1.54.12 1.54.05.36.11.72.16 1.09 0 .03.01.07.01.1 0 .05 0 .09.02.14l.03.25.06.43c.03.16.05.33.07.5.05.29.09.59.13.89l.15 1.04c.03.19.06.39.09.59.02.14.04.29.07.45.18 1.23.36 2.49.55 3.76.17 1.17.34 2.35.52 3.54.06.39.11.77.17 1.16.09.62.19 1.25.28 1.87.14.93.27 1.85.41 2.78a5836 5836 0 0 1 1.92 13.02c.1.73.21 1.46.31 2.18.59 4.11 1.16 8.11 1.66 11.87.04.28.07.56.11.84.04.28.07.56.11.84Z"/>
  <path fill="#BFEFC1" d="M84.27 270.06c-.77 3.05-1.47 7.05-2.09 11.31-.21 1.35-.4 2.72-.57 4.1-.81 6.11-1.45 12.3-1.86 16.66-.54 6.63-.79 13.51.12 20.11-4.01-1.01-5.83-1.91-6.67-2.51 0 0-.01 0-.01-.01-3.25-3.26 2.42-24.65 2.94-31.12.17-1 .39-2.38.64-3.96.2-1.29.42-2.72.65-4.18.72-4.59 1.49-9.51 1.89-11.71 1.53.35 3.5 1.01 4.96 1.31Z"/>
  <path fill="#79B579" d="M161.87 320.15c-1.65 2.49-4.48 4.21-7.94 5.39.15-1.3.26-2.62.33-3.93.03-.28.04-.56.05-.84.57-11.11-1.04-22.44-3.14-33.48-.29-1.53-.59-3.05-.9-4.57-.24-1.24-.49-2.47-.74-3.69-.33-1.58-.66-3.14-.98-4.7-.01-.01-1.01-4.81-1.01-4.82.31-.07.62-.14.93-.22.05 0 .1-.02.16-.04.17-.03.32-.07.48-.11.09-.02.19-.04.28-.07l.25-.06c.34-.08.67-.17 1.01-.26.32-.08.64-.16 1-.24.09-.03.18-.05.27-.07.09-.02.19-.05.3-.08.06-.02.12-.04.18-.05.13-.04.27-.07.4-.11.28-.07.56-.15.85-.24.05-.01.09-.02.14-.04.08 0 .17-.04.26-.07.03 0 .06-.01.09-.02.03 0 .06-.02.09-.03.1-.02.2-.05.3-.08l.12-.03s0 .04.01.06c0 .03 0 .05.01.08.01.11.02.25.03.4.04.33.08.79.12 1.31.02.17.03.35.05.53.1 1.18.21 2.53.29 3.34.01.09.02.18.02.25.01.09.01.16.02.23 0 0 .01.08.01.11 0 .05 0 .09.02.14l.03.25.06.43c.03.16.05.33.07.5.05.29.09.59.13.89l.15 1.04c.03.19.06.39.09.59.02.14.04.29.07.45.18 1.23.36 2.49.55 3.76.17 1.17.34 2.35.52 3.54.06.39.11.77.17 1.16.09.62.19 1.25.28 1.87.14.93.27 1.85.41 2.78a5836 5836 0 0 1 1.92 13.02c.1.73.21 1.46.31 2.18.59 4.11 1.16 8.11 1.66 11.87.04.28.07.56.11.84.04.28.07.56.11.84Z"/>
  <path fill="#97CE99" d="M114.55 309.34c-.25.36 3.35-7.86 13.12-5.98.26.05.27.44.01.51-6.61 1.93-13.14 5.47-13.14 5.47h.01Z"/>
  <path fill="#97CE99" d="M114.53 309.68c.43-.08-7.93 3.17-13.5-5.07-.15-.22.12-.5.35-.37 6.03 3.31 13.15 5.44 13.15 5.44Z"/>
  <path fill="#97CE99" d="m115.35 308.92-.01.01c-1.6 2.11-4.5-.24-6.2-1.14-4.29-2.63-3.14-17.27-3.75-28.16 2.32.08 4.69.08 7.16-.01.51 8.43 1.41 22.04 2.16 24.8.26 1.63 1.54 3.04.64 4.5Zm46.46 10.36c-6.9 4.07-33.13 4.81-44.48 4.3-.04-.27-.07-.55-.12-.82 6.84.18 34.71.69 44.47-4.31.04.27.09.63.12.83h.01Zm-48.78 3.16-.09.81c-9.86-.23-35.44-3.15-40.81-7.14.02-.28.04-.58.06-.9 8.14 5 31.28 6.72 40.83 7.23h.01Z"/>
  <path fill="#97CE99" d="M117.62 323.05c-.01.18-.13.33-.3.38-.03-.27-.07-.53-.12-.79.23-.01.43.18.41.42l.01-.01Z"/>
  <path fill="#79B579" d="M111.02 283.86c.04 2.63-4.1 2.63-4.06 0-.04-2.63 4.1-2.63 4.06 0Z"/>
  <path fill="#97CE99" d="M155.829 278.29c-.42-2.54-.41-2.78-.6-4.15-.06-.45-.13-.89-.19-1.33l-.39-5.12c-42.1 11.93-75.34 1.07-75.34 1.07-.23 1.27-.54 3.19-.88 5.38l-.24 1.54s17.33 10.17 77.64 2.62v-.01Z"/>
  <path fill="#79B579" d="M155.83 278.29c-2.15.27-4.25.52-6.3.74-.33-1.58-.66-3.14-.98-4.7-.01-.01-1.01-4.81-1.01-4.82 1.03-.23 2.07-.48 3.11-.76.33-.07.66-.16 1-.24.09-.03.18-.05.27-.07.1-.03.2-.06.3-.08.06-.02.12-.04.18-.05.13-.04.27-.07.4-.11.28-.07.56-.15.85-.24.13-.03.26-.06.4-.11.06-.01.12-.02.18-.05.1-.02.2-.05.3-.08l.12-.03s0 .04.01.06c0 .03 0 .05.01.08.08.86.43 4.97.53 6.07 0 .03.01.07.01.1 0 .05 0 .09.02.14l.03.25.06.43c.01.1.02.19.04.29.11.71.21 1.42.31 2.14.02.18.05.38.09.59.02.14.04.29.07.45Z"/>
  <path fill="#639E63" d="M155.83 278.29c-2.15.27-4.25.52-6.3.74-.33-1.58-.66-3.14-.98-4.7-.01-.01-1.01-4.81-1.01-4.82 1.03-.23 2.07-.48 3.11-.76.33-.07.66-.16 1-.24.09-.03.18-.05.27-.07.1-.03.2-.06.3-.08.06-.02.12-.04.18-.05.13-.04.27-.07.4-.11.28-.07.56-.15.85-.24.13-.03.26-.06.4-.11.06-.01.12-.02.18-.05.1-.02.2-.05.3-.08l.12-.03s0 .04.01.06c0 .03 0 .05.01.08.08 1.23.37 4.98.37 4.98.05.36.11.72.16 1.09 0 .03.01.07.01.1 0 .05 0 .09.02.14l.03.25.06.43c.01.1.02.19.04.29.07.56.13 1.07.31 2.14.02.18.05.38.09.59.02.14.04.29.07.45Z"/>
  <path fill="#A8E2AD" d="M84.27 270.06c-.53 2.09-1.02 4.62-1.48 7.38-3.25-.98-4.6-1.77-4.6-1.77l.24-1.54c.07-.41.13-.81.19-1.2.06-.39.12-.76.18-1.13.02-.06.03-.13.03-.2.13-.76.24-1.46.34-2.06.05-.29.1-.55.14-.79 0 0 .01 0 .04.01 1.14.26 2.52.69 3.74 1.02.37.09.76.18 1.18.28Z"/>
  <path fill="#A8E2AD" d="M84.27 270.06c-.53 2.09-1.02 4.62-1.48 7.38-3.25-.98-4.6-1.77-4.6-1.77l.24-1.54c.07-.41.13-.81.19-1.2.06-.39.12-.76.18-1.13.02-.06.03-.13.03-.2.13-.76.24-1.46.34-2.06.05-.29.1-.55.14-.79 0 0 .01 0 .04.01.24.08 1.53.48 3.74 1.02.37.09.76.18 1.18.28Z"/>
  <path fill="#97CE99" d="M157 286.22c-.22-1.4-.42-2.79-.62-4.17-1.36.17-3.63.43-6.11.67-2.62.23-5.46.45-7.68.48-.24 0-.42.19-.42.43v3.28c0 .24.19.44.43.43 0 0 11.66-.51 14.39-1.13l.01.01Zm-70.05-3.71-.34 3.27c-.02.24-.23.41-.47.39 0 0-2-.29-4.53-.7-1.53-.25-3.25-.54-4.84-.83.2-1.29.42-2.72.65-4.18.5.1 1.03.21 1.56.32 1.05.2 2.13.41 3.2.59 1.56.28 3.08.52 4.39.67.24.02.4.23.38.47Z"/>
  <path fill="#639E63" d="M156.99 286.22c-1.05.24-3.4.46-5.9.64-.27-1.39-.54-2.76-.82-4.14 2.48-.24 4.75-.5 6.11-.67.17 1.17.34 2.35.52 3.54l.09.63Z"/>
  <path fill="#639E63" d="M157 286.22h-.01c-1.05.24-3.4.46-5.9.64-.27-1.39-.54-2.76-.82-4.14 2.48-.24 4.75-.5 6.11-.67.17 1.17.34 2.35.52 3.54.03.21.07.42.1.63Z"/>
  <path fill="#A8E2AD" d="M82.18 281.37c-.21 1.35-.4 2.72-.57 4.1-1.53-.25-3.25-.54-4.84-.83.2-1.29.42-2.72.65-4.18.5.1 1.03.21 1.56.32 1.05.2 2.13.41 3.2.59Z"/>
  <path fill="#A8E2AD" d="M82.18 281.37c-.21 1.35-.4 2.72-.57 4.1-1.53-.25-3.25-.54-4.84-.83.2-1.29.42-2.72.65-4.18.5.1 1.03.21 1.56.32 1.05.2 2.13.41 3.2.59Z"/>
</svg>
