<svg xmlns="http://www.w3.org/2000/svg" width="252" height="418" fill="none" viewBox="0 0 252 418">
  <path fill="#F3E2D9" d="M155.932 266.982s8.369 92.502 8.817 93.308a2.41 2.41 0 0 1-.66 3.092c-3.565 2.698-4.147 2.656-17.808 4.086-17.788 1.858-26.543-5.05-26.543-5.05s-6.281 10.362-45.128 1.858c0 0-4.284.125-2.877-6.446 0 0 3.308-42.241 4.69-56.297.852-8.653 3.911-34.551 3.911-34.551s14.654 5.727 36.299 6.197c21.644.47 39.299-6.197 39.299-6.197Z"/>
  <path fill="#D9BEB0" d="M122.784 324.737c-3.541.886-9.556-4.077-9.556-4.077.66 1.646 1.403 2.822 2.175 3.641.582 26.322-18.585 43.109-18.585 43.109 18.847 1.662 22.695-5.117 22.695-5.117l.058-36.271-.05-.021c1.856-.154 3.267-1.268 3.267-1.268l-.004.004Z"/>
  <path fill="#328559" d="m156.92 277.896-.992-10.914s-17.804 6.55-39.291 6.081c-21.64-.474-36.303-6.081-36.303-6.081s-.406 3.454-.967 8.263c29.345 14.476 72.551 6.118 77.557 2.651h-.004Z"/>
  <path fill="#72BB90" d="M85.033 277.78s-5.36-2.082-5.708-2.506l1.021-8.288s4.533 1.563 5.625 1.8l-.938 8.998"/>
  <path fill="#E5CFC6" d="m164.75 360.29-8.817-93.308s-7.722 2.593-15.925 4.077c-7.418 1.343-18.759 1.999-18.759 1.999s29.187 51.434 16.489 70.433c-2.794 4.177-9.224 3.246-10.768-1.542-2.952-9.14-4.185-17.22-4.185-17.22l-3.217 1.289-.058 36.271c12.163 7.814 26.543 5.05 26.543 5.05s12.761.141 16.991-3.2c0 0 3.055-1.239 1.697-3.853l.009.004Z"/>
  <path fill="#0F5D37" d="M155.93 267.048s-.013 0-.029.009c-.706.257-15.734 5.627-34.626 6.064h-.029s2.292 4.04 5.31 10.27c15.425-.653 27.821-3.674 30.362-5.432-.607-6.659-.988-10.894-.993-10.915l.005.004Z"/>
  <path fill="#0F5D37" d="m153.368 279.16 8.174 79.759 1.507 5.228s-.901.773-2.437 1.297l-1.619-7.81-8.555-77.768 2.93-.702v-.004Zm-6.306 0 8.223 80.245c.067.64.191 1.276.378 1.895l1.536 5.079s-1.304.329-2.644.437l-1.516-5.973-8.908-80.972 2.931-.703v-.008Z"/>
  <path fill="#CEAEA1" d="m150.834 340.806-10.751 1.18 2.897 25.723s-1.366.112-2.897.112l-.407-26.384 11.092-1.234.066.603Z"/>
  <path fill="#E5CFC6" d="m150.836 340.806-10.752 1.18s1.486 14.672 1.681 19.701c.208 5.469 2.366 9.011 2.366 9.011l10.424-3.882-1.581-7.852-2.143-18.154.005-.004Z"/>
  <path fill="#CCAD9F" d="M147.066 352.539a3.264 3.264 0 0 0 3.262-3.267 3.264 3.264 0 0 0-3.262-3.267 3.265 3.265 0 0 0-3.263 3.267 3.265 3.265 0 0 0 3.263 3.267Zm1.423 12.41a3.264 3.264 0 0 0 3.263-3.266 3.265 3.265 0 0 0-3.263-3.267 3.264 3.264 0 0 0-3.262 3.267 3.264 3.264 0 0 0 3.262 3.266Z"/>
  <path fill="#1E1E1E" d="M146.353 351.753a3.265 3.265 0 0 0 3.263-3.267 3.265 3.265 0 0 0-3.263-3.267 3.265 3.265 0 0 0-3.263 3.267 3.265 3.265 0 0 0 3.263 3.267Zm1.424 12.415a3.264 3.264 0 0 0 3.262-3.267 3.264 3.264 0 0 0-3.262-3.267 3.265 3.265 0 0 0-3.263 3.267 3.265 3.265 0 0 0 3.263 3.267Z"/>
  <path fill="#444545" d="M146.218 350.402a1.915 1.915 0 0 0 0-3.832 1.914 1.914 0 0 0-1.913 1.916c0 1.059.856 1.916 1.913 1.916Z"/>
  <path fill="#2D2D2D" d="M144.596 348.781c0-1.059.855-1.916 1.913-1.916.453 0 .864.167 1.192.429a1.91 1.91 0 0 0-1.486-.724 1.913 1.913 0 0 0-1.914 1.916c0 .603.286 1.135.722 1.488a1.884 1.884 0 0 1-.427-1.193Z"/>
  <path fill="#444545" d="M147.775 362.668a1.915 1.915 0 0 0 1.914-1.917 1.915 1.915 0 1 0-3.828 0c0 1.059.857 1.917 1.914 1.917Z"/>
  <path fill="#2D2D2D" d="M146.156 361.047c0-1.06.855-1.916 1.914-1.916.452 0 .863.166 1.191.428a1.908 1.908 0 0 0-1.486-.724 1.913 1.913 0 0 0-1.914 1.916c0 .603.287 1.135.723 1.488a1.882 1.882 0 0 1-.428-1.192ZM72.74 342.195l-.465-.03a.236.236 0 0 0-.252.22l-.293 4.446a.236.236 0 0 0 .22.252l.465.031c.13.008.243-.09.251-.221l.294-4.446a.237.237 0 0 0-.22-.252Zm-.724 8.55-.464-.031a.236.236 0 0 0-.251.221l-.294 4.446c-.008.13.09.243.22.252l.465.03c.13.009.243-.09.252-.22l.293-4.446a.236.236 0 0 0-.22-.252Z"/>
  <path fill="#FCF1EE" d="m79.364 275.245 5.707 2.506-4.74 87.689-5.72-1.164s-2.64.237-3.16-3.283c0 0-.012-2.502.166-3.521.179-1.018 3.5-41.259 3.5-41.259s1.262-14.36 1.756-19.135c.299-2.881 1.328-11.501 1.328-11.501l1.167-10.332h-.004Z"/>
</svg>
