<svg xmlns="http://www.w3.org/2000/svg" width="250" height="414" fill="none" viewBox="0 0 250 414">
  <path fill="#79A6D3" d="M168.7 375.58c-17.27 12.49-41.32 6.47-47.8 4.14a3.355 3.355 0 0 1-2.21-2.82l-3.95-65.23s-2.13 31.92-2.35 64.29c-.01 1.75-.96 3.37-2.5 4.19-18.77 10.03-43.69-2.33-49.85-6.05a2.47 2.47 0 0 1-1.11-2.77l13.99-52.34c.88-3.21 1.49-6.49 1.81-9.81l4.29-40.11c13.88 3.66 25.59 5.24 35.34 5.55 4.25.13 8.13.03 11.65-.24 20.27-1.59 28.75-8.87 28.75-8.87l2.37 17.18 3.31 21.63 3.25 21.25 6.94 45.38c.27 1.78-.45 3.59-1.92 4.65l-.01-.02Z"/>
  <path fill="#91BCE8" d="M85.74 278.37c3.73 1.32 7.72 2.12 11.65 2.54 7.54.8 15.19.57 22.74.15 12.01-.66 25.09-1.8 35.66-8.06l-1.04-7.51s-8.48 7.29-28.75 8.87c-3.52.28-7.4.38-11.65.24-9.75-.31-21.46-1.89-35.34-5.55l-.56 5.86c2.38 1.26 4.76 2.56 7.3 3.46h-.01Z"/>
  <path fill="#6C93BA" d="M116.71 274.66c-2.36-.05-7.68-.22-10.53-.58 0 0-.05 26.73 1.16 30.88.7 2.4 7.44 7.13 7.44 7.13s2.52-33.43 1.94-37.42l-.01-.01Zm-26.18-.53c.88.01 2.3.1 3.34.52-1.29 5.58-2.04 11.29-2.06 12.58-.01.77-4.2.4-4.53-.24-.3-.6.52-8.28 2.07-12.08.2-.48.66-.79 1.18-.78Zm47.02.07c-.88.01-2.3.1-3.34.52 1.29 5.58 2.04 11.29 2.06 12.58.01.77 4.2.4 4.53-.24.3-.6-.52-8.28-2.07-12.08-.2-.48-.66-.79-1.18-.78Z"/>
  <path fill="#D6B06E" d="M111.29 282.9a3.07 3.07 0 1 0 0-6.14 3.07 3.07 0 0 0 0 6.14Z"/>
  <path fill="#6C93BA" d="M114.4 312.08c2.81-2.45 10.23-8.83 13.67-10.94.35-.21.81-.02.89.38.11.57.4 1.14.62 1.53.16.28.07.62-.19.79-1.94 1.23-9.19 5.81-14.76 8.57-.21.11-.4-.18-.22-.33h-.01Z"/>
  <path fill="#6C93BA" d="M104.45 302.4c1.4 1.56 6.06 6.6 10.54 9.57.26.17.06.57-.23.47-6.36-2.08-11.22-6.29-13.12-8.12a.876.876 0 0 1 .23-1.42c.44-.21.98-.46 1.57-.72.35-.15.75-.07 1.01.22Z"/>
  <path fill="#4795D6" d="m84.099 345.092-.94-.131a9.19 9.19 0 0 0-10.375 7.829l-.464 3.317a9.189 9.189 0 0 0 7.829 10.374l.94.132a9.19 9.19 0 0 0 10.375-7.829l.464-3.317a9.19 9.19 0 0 0-7.83-10.375Z"/>
  <path fill="#80B7E5" d="M163.681 325.55c-.15.05-.3.09-.45.12l-11.14 2.14c-2.17.42-4.26-1-4.67-3.17l-2.59-13.5c-.41-2.16 1-4.25 3.17-4.67l11.14-2.14c.44-.08.88-.09 1.29-.03l3.25 21.25Z"/>
  <path fill="#91BCE8" d="m92.97 349.017-2.783-.389a.82.82 0 0 0-.926.699l-.01.079a.82.82 0 0 0 .698.925l2.783.39a.821.821 0 0 0 .925-.699l.012-.079a.82.82 0 0 0-.699-.926Z"/>
  <path fill="#92CDF4" d="m146.19 312.845-2.799.537a.82.82 0 0 0-.651.96l.017.088a.82.82 0 0 0 .96.651l2.799-.537a.82.82 0 0 0 .651-.96l-.017-.088a.82.82 0 0 0-.96-.651Zm-.737-3.824-2.799.537a.82.82 0 0 0-.651.96l.017.088a.82.82 0 0 0 .96.651l2.799-.537a.82.82 0 0 0 .651-.96l-.017-.088a.82.82 0 0 0-.96-.651Zm1.527 7.932-2.799.537a.82.82 0 0 0-.651.959l.017.089a.82.82 0 0 0 .96.651l2.799-.537a.82.82 0 0 0 .651-.96l-.017-.089a.82.82 0 0 0-.96-.65Zm1.035 3.786-2.799.537a.819.819 0 0 0-.65.959l.017.089a.82.82 0 0 0 .959.651l2.799-.537a.82.82 0 0 0 .651-.96l-.017-.088a.82.82 0 0 0-.96-.651Zm.752 3.899-2.799.537a.819.819 0 0 0-.65.959l.017.089a.82.82 0 0 0 .959.651l2.799-.537a.82.82 0 0 0 .651-.96l-.017-.089a.82.82 0 0 0-.96-.65Z"/>
  <path fill="#91BCE8" d="m93.393 353.155-2.783-.389a.82.82 0 0 0-.926.699l-.01.079a.82.82 0 0 0 .698.926l2.783.389a.82.82 0 0 0 .925-.699l.011-.079a.82.82 0 0 0-.698-.926Zm-1.111 7.97-2.783-.389a.82.82 0 0 0-.926.698l-.011.08a.82.82 0 0 0 .698.925l2.783.389a.82.82 0 0 0 .926-.698l.011-.079a.82.82 0 0 0-.698-.926Zm-1.787 3.271-2.782-.39a.82.82 0 0 0-.926.699l-.011.079a.82.82 0 0 0 .698.926l2.783.389a.82.82 0 0 0 .926-.699l.011-.079a.82.82 0 0 0-.699-.925Zm2.331-7.109-2.782-.39a.821.821 0 0 0-.926.699l-.011.079a.82.82 0 0 0 .698.926l2.783.389a.82.82 0 0 0 .926-.698l.011-.08a.82.82 0 0 0-.699-.925Zm-16.7-10.68-2.783-.389a.82.82 0 0 0-.925.698l-.011.08a.82.82 0 0 0 .698.925l2.783.389a.82.82 0 0 0 .926-.698l.01-.079a.82.82 0 0 0-.698-.926Zm-1.988 3.887-2.783-.389a.82.82 0 0 0-.926.698l-.01.08a.82.82 0 0 0 .698.925l2.783.389a.82.82 0 0 0 .925-.698l.011-.079a.82.82 0 0 0-.698-.926Zm-.543 3.888-2.783-.39a.821.821 0 0 0-.926.699l-.01.079a.82.82 0 0 0 .698.926l2.783.389a.82.82 0 0 0 .925-.699l.012-.079a.82.82 0 0 0-.699-.925Zm-.384 3.88-2.783-.389a.82.82 0 0 0-.925.698l-.011.079a.82.82 0 0 0 .698.926l2.783.389a.82.82 0 0 0 .926-.698l.01-.08a.82.82 0 0 0-.698-.925Zm1.457 3.893-2.783-.389a.82.82 0 0 0-.925.698l-.011.08a.82.82 0 0 0 .698.925l2.783.389a.82.82 0 0 0 .926-.698l.01-.079a.82.82 0 0 0-.698-.926Z"/>
  <path fill="#6C93BA" d="M130.3 336.08c3.84.38 11.98.64 19.67-2.72.72-.31 1.29.67.68 1.14-6.1 4.69-15.95 5.55-20.74 2.82-.63-.36-.32-1.32.4-1.25l-.01.01ZM81.73 329c3.48 1.65 11.07 4.63 19.44 4.06.78-.05.99 1.06.25 1.3-7.32 2.37-16.89-.14-20.48-4.32-.47-.55.14-1.35.79-1.04ZM115 312c-.65 5.26-2.42 34.67-2.62 63.95a4.85 4.85 0 0 1-2.58 4.24c-1.46.77-3.3 1.811-7.3 2.811 1-3 1.24-6.231 1.34-8.871.25-6.5.7-12.84 1.54-19.29.99-7.51 1.69-15.03 3.39-22.42.81-3.51 2.07-7.82 2.9-10.39l2.82-9.54c.02-.08.52-.57.51-.49Zm55.62 58.93-6.94-45.38-3.25-21.25-3.31-21.63-2.37-17.18s-2.56 2.19-8.21 4.44c1.83 9.78 3.59 19.58 5.1 29.42 3.28 21.4 4.54 42.92 6.28 64.47.46 5.68.74 11.44.33 17.14 3.54-1.19 7.07-2.93 10.46-5.38 1.46-1.06 2.19-2.86 1.92-4.65h-.01Z"/>
  <path fill="#C7FFFF" d="m158.13 325.67-.24 1.03-2.56.49.48-2.07c.13-.55.67-.89 1.22-.76l.34.08c.55.13.89.67.76 1.22v.01Z"/>
  <path fill="#67ACDB" d="M163.68 325.55c-.15.05-.3.09-.45.12l-5.34 1.02-2.56.49-.36.07c-.67-7.23-1.45-14.45-2.43-21.66l6.6-1.26c.44-.08.88-.09 1.29-.03l3.25 21.25Z"/>
  <path fill="#7DB5E2" d="M155.79 273c-2.54 1.51-5.22 2.71-8 3.68-.41-2.25-.83-4.5-1.25-6.75.18-.07.35-.14.52-.22.17-.07.34-.14.5-.21.41-.17.81-.35 1.18-.52.37-.17.73-.34 1.07-.51.05-.03.11-.05.16-.08.15-.08.3-.15.44-.22.29-.14.56-.29.82-.43.13-.07.25-.14.38-.21h.01c.22-.11.41-.23.6-.35.1-.05.19-.11.28-.16.27-.16.51-.31.73-.46.07-.05.14-.09.21-.14.07-.04.13-.09.19-.13.07-.04.13-.09.19-.13.1-.08.2-.14.28-.2.1-.07.19-.13.26-.19.04-.03.07-.05.1-.08.19-.14.27-.22.27-.22l1.04 7.51.02.02Z"/>
  <path fill="#80B7E5" d="M66.48 363.09c2.73-16.34 10.15-31.52 12.09-47.98 1.77-15.04 3.79-29.97 4.2-45.1-1.24-.3-2.48-.61-3.76-.95l-4.29 40.11c-.32 3.32-.92 6.6-1.81 9.81l-13.99 52.34a2.47 2.47 0 0 0 1.11 2.77c1.01.61 2.48 1.46 4.3 2.4.73-4.46 1.39-8.93 2.14-13.4h.01Z"/>
  <path fill="#AAD5F9" d="M82.77 270c-.06 2.34-.16 4.66-.3 6.99-1.36-.65-2.69-1.37-4.03-2.08l.56-5.86c1.27.34 2.52.65 3.76.95h.01Z"/>
</svg>
