<svg xmlns="http://www.w3.org/2000/svg" width="250" height="414" fill="none" viewBox="0 0 250 414">
  <g clip-path="url(#a)">
    <path fill="#0E94AD" d="M77.87 265.121c4.711.891 21.153 2.492 41.317 2.392.381 0 .72.286.797.684l.047.246c10.783-.134 22.88-1.042 35.496-3.322.891-.165 1.727.519 1.795 1.479l1.067 13.905c.068.878-.536 1.665-1.362 1.756-9.219 1.112-59.105 6.641-81.844-1.635-.711-.256-1.14-1.034-1.015-1.817l1.906-12.339c.146-.908.938-1.514 1.795-1.349Z"/>
    <path fill="#1EAFB2" d="M157.245 296.529h-.009l-.749-10.166-.056-4.024s.998-.095 1.482-.506c.578-.497.48-1.107.48-1.107l-1.067-14.121s.005-.666-.685-1.237c-.574-.472-1.482-.178-1.482-.178l-35.094 3.716s.167-1.527-1.092-1.466c-6.131.298-27.85-.061-40.106-2.345-1.996-.372-2.63.402-2.785 1.376l-1.931 11.81c-.163 1.264.287 1.943 1.036 2.349l1.457.489-.022 3.072-4.112 62.223c11.772 4.733 25.223 6.736 37.141 2.462l2.236-.93 3.067-32.317c1.65 11.058 2.442 21.791 4.092 32.845.548.073 2.973.636 3.517.696 12.616 3.933 24.156 3.331 36.742-.696l2.691-3.241-4.755-48.708.004.004Z"/>
    <path fill="#0E94AD" d="M76.63 281.132s22.029 5.377 44.228 6.182c.317 0 .257-1.224.587-1.216 12.98.411 26.046-.337 34.986-3.759l.827 11.127s-53.476.951-80.614-10.565v-1.778l-.009.009h-.004Zm37.108.337c2.12 0 3.846-1.83 3.846-4.097 0-2.267-1.717-4.097-3.846-4.097-2.13 0-3.847 1.83-3.847 4.097 0 2.267 1.717 4.097 3.847 4.097Z"/>
    <path fill="#0E94AD" d="m121.44 286.1-1.422-17.647.989-.021 3.761 18.879h-3.915l.587-1.216v.005Z"/>
    <path fill="#E6E7E7" d="M113.095 280.856c2.12 0 3.847-1.83 3.847-4.097 0-2.267-1.718-4.097-3.847-4.097s-3.847 1.83-3.847 4.097c0 2.267 1.718 4.097 3.847 4.097Z"/>
    <path fill="#0E94AD" d="M75.719 297.023s16.116 2.474 17.816-12.568l-16.913-3.322-.912 15.89h.009Z"/>
    <path fill="#81C7CE" d="m84.62 296.174-3.213 48.825-.908 3.093-7.99-2.288 3.21-48.782s4.51.662 8.901-.848Z"/>
    <path fill="#0E94AD" d="M140.371 286.016s1.662 13.887 17.307 13.334l-1.255-17.002-16.052 3.677v-.009Zm-35.467 27.852 9.498 7.74.548-6.096-.827.052a16.65 16.65 0 0 1-6.006-.714l-3.204-.991-.009.009Z"/>
    <path fill="#0E94AD" d="m114.941 315.513.878 6.425 10.702-7.467-4.104.809a20.602 20.602 0 0 1-4.914.359l-2.57-.121h.008v-.005Zm-7.286 34.484c.402-.628.929-.455 1.508-.727.089-.039.184-.087.282-.069.223.039.304.367.51.454 0-.048.039-.095.09-.117-.03.125 0 .273.06.385l.206-.493c.017-.048.038-.108.077-.147a.306.306 0 0 1 .158-.095c.146-.07.292-.134.411-.251.138-.147.125-.299.206-.463.09-.165.244-.312.334-.485.176-.329.283-.696.343-1.064.051-.329.167-1.276-.214-1.471-.129-.056-.253.078-1.607 1.112-.351.272-.539.407-.557.424a3.266 3.266 0 0 1-2.857.727c-.578-.134-1.174-.424-1.722-.204-.381.156-.647.533-.998.753-.566.368-1.371.26-1.838-.233-1.028 1.103-2.523 1.674-3.971 1.527-.334-.031-.677-.096-.977.056-.068.039-.145.086-.227.086-.214-.017-.227-.385-.411-.51-.129-.078-.283-.017-.42.03a3.32 3.32 0 0 1-2.836-.281c-.283-.173-.548-.398-.87-.485-.634-.173-1.357.308-1.486 1.004-.45-.337-.763-.878-.861-1.458-.441.978-1.692 1.67-2.66 1.199-.862-.424-1.166-1.631-2.24-1.623-.344 0-.746.108-.99-.155-.146-.156-.185-.385-.275-.589-.145-.368-.304-.311-.595-.311-.381 0-.197.212-.51-.126-.45-.471-.762-1.003-1.302-1.41-.077-.056-.167-.117-.253-.108-.107 0-.184.086-.266.164-.42.407-.9.736-1.418.965.108-.234-.107-.532-.35-.571-.245-.039-.48.086-.703.203-.472.26-.93.511-1.401.766-.06.03-.116.056-.176.047-.06-.008-.098-.056-.137-.095a4.157 4.157 0 0 0-1.889-1.198c-.03.385-.471.658-.793.493-.175-.086-.282-.259-.402-.424a6.244 6.244 0 0 0-1.602-1.536c-.009.463-.022.918-.022 1.385-.008 2.985.197 6.039.42 9.024.116.069.236-.086.283-.212.745-1.856.518-3.963.36-5.97-.03-.437 0-.986.372-1.151.215 1.22.429 2.436.656 3.665.274-.321.36-.766.36-1.199 0-.432-.06-.861-.039-1.285.047-1.073 2.682.195 3.217.368.45.147.908.337 1.358.437.634.134 1.213-.562 1.868-.766.069-.017.146-.039.214-.017.099.03.167.117.227.195.471.618 1.007 1.432 1.714 1.661.557.182 1.195.242 1.76.359 1.388.281 2.776.588 4.186.753 1.396.164 1.302 1.276 1.546 1.315.244.039.703-1.064.99-1.043.282.018.527-.367.9-.367.372 0 .86.579 1.028.54.167-.039 1.143.822 1.76.822s3.033-.134 4.224-.134c1.191 0 1.487-.588 2.189-1.112.703-.523 2.211-1.76 2.759-1.76s.244 6.234.548 6.688c.305.454.442-1.558.433-3.314-.009-1.761.137-2.747.853-2.544.715.204.291 1.895.715 2.176.266.173.206-1.41.724-2.223l.03.008-.004.005Z"/>
    <path fill="#E6D2C3" d="M107.655 351.54c.402-.679.929-.493 1.508-.783.089-.043.184-.095.282-.073.223.043.304.398.51.493 0-.052.039-.104.09-.126a.68.68 0 0 0 .06.42l.206-.532c.017-.052.038-.117.077-.156a.328.328 0 0 1 .158-.104c.146-.073.292-.147.411-.272.138-.156.125-.325.206-.502.09-.177.244-.333.334-.523.176-.355.283-.753.343-1.151.051-.355.167-1.385-.214-1.592-.129-.061-.253.082-1.607 1.202-.351.295-.539.437-.557.459-.792.744-1.867 1.038-2.857.783-.578-.147-1.174-.459-1.722-.221-.381.169-.647.576-.998.818-.566.398-1.371.281-1.838-.251-1.028 1.194-2.523 1.813-3.971 1.653-.334-.031-.677-.104-.977.065-.068.043-.145.095-.227.095-.214-.022-.227-.42-.411-.554-.129-.082-.283-.022-.42.03a3.115 3.115 0 0 1-2.836-.303c-.283-.186-.548-.428-.87-.523-.634-.186-1.357.337-1.486 1.09-.45-.367-.763-.952-.861-1.579-.441 1.056-1.692 1.813-2.66 1.298-.862-.459-1.166-1.769-2.24-1.761-.344 0-.746.117-.99-.168-.146-.169-.185-.42-.275-.636-.145-.398-.304-.334-.595-.334-.381 0-.197.23-.51-.138-.45-.51-.762-1.09-1.302-1.527-.077-.061-.167-.126-.253-.117-.107 0-.184.095-.266.177-.42.437-.9.796-1.418 1.047.108-.251-.107-.575-.35-.618-.245-.044-.48.095-.703.22-.472.282-.93.554-1.401.827-.06.03-.116.06-.176.052-.06-.009-.098-.065-.137-.104a4.124 4.124 0 0 0-1.889-1.298c-.03.42-.471.709-.793.532-.175-.095-.282-.281-.402-.463a6.565 6.565 0 0 0-1.602-1.665c-.009.501-.022.995-.022 1.496-.008 3.236.197 6.542.42 9.778.116.073.236-.096.283-.23.745-2.011.518-4.291.36-6.472-.03-.471 0-1.068.372-1.246.215 1.32.429 2.639.656 3.968.274-.347.36-.827.36-1.298 0-.472-.06-.93-.039-1.393.047-1.164 2.682.207 3.217.398.45.155.908.367 1.358.471.634.147 1.213-.605 1.868-.826.069-.022.146-.043.214-.022.099.031.167.126.227.212.471.671 1.007 1.549 1.714 1.8.557.199 1.195.264 1.76.389 1.388.303 2.776.636 4.186.818 1.396.177 1.302 1.38 1.546 1.423.244.044.703-1.151.99-1.129.282.022.527-.398.9-.398.372 0 .86.627 1.028.584.167-.043 1.143.891 1.76.891s3.033-.147 4.224-.147c1.191 0 1.487-.636 2.189-1.202.703-.567 2.211-1.904 2.759-1.904s.244 6.753.548 7.246c.305.494.442-1.687.433-3.59-.009-1.908.137-2.972.853-2.752.715.221.291 2.051.715 2.354.266.19.206-1.527.724-2.41l.03.013-.004-.009Z"/>
    <path fill="#0E94AD" d="m159.918 348.361.111-.061c.386-.216.853-.328 1.127-.705.265-.359.283-.848.274-1.311-.021-1.38-.09-2.76-.236-4.144-.638 2.63-3.054 4.244-5.269 5.607-.904.553-1.846 1.124-2.883 1.267-.895.121-1.829-.06-2.669.247-.385.134-.732.359-1.096.532a4.354 4.354 0 0 1-3.766-.039 15.815 15.815 0 0 1-6.751.87 22.596 22.596 0 0 1-1.41-.173c-.304-.039-.617-.083-.921-.122-1.208-.164-4.052-.307-4.571-1.587-.15-.39-.325-.329-.638-.329-.407 0-.214.225-.548-.134-.476-.502-.814-1.064-1.393-1.484-.081-.061-.171-.121-.274-.113-.111 0-.201.091-.282.173a5.015 5.015 0 0 1-1.521 1.013c.12-.247-.112-.563-.377-.602-.266-.038-.519.091-.75.217-.497.264-.994.541-1.491.809-.06.03-.124.06-.184.052-.06-.009-.103-.061-.141-.104a4.386 4.386 0 0 0-2.022-1.259c-.03.411-.497.696-.853.523-.458-.238-1.859-2.055-2.296-1.22-.111.217.06.961.081 1.22.039.481.103.952.172 1.432.133.913.304 1.822.475 2.722.073.389.287.891.66.809a21.473 21.473 0 0 0-.184-3.02 95.432 95.432 0 0 0 1.705 4.032v-1.964a7.985 7.985 0 0 0 1.756 3.582c.052-.788 0-1.588-.141-2.354-.15-.809-.18-1.821.754-2.037.668-.152 1.666-.082 2.335.06.681.143 1.289-.592 2-.8.073-.022.154-.039.236-.022.103.031.171.126.244.204.497.653 1.075 1.514 1.829 1.76.6.195 1.268.256 1.889.381 1.483.286 2.973.623 4.468.801 1.504.173 1.393 1.341 1.654 1.388.266.052.754-1.125 1.058-1.103.326.03.66-.337.994-.389.557-.091 1.401.104 2.001.091.089 0 .201 0 .274.06.09.082.103.216.141.329.154.381.69.42 1.007.164.313-.255.445-.666.57-1.064.162.307.342.636.638.8.295.165.741.091.861-.233.377.255.762.51 1.208.614.445.104.942 0 1.238-.359.214-.264.304-.666.6-.831.214-.121.475-.082.711-.06 1.127.104 2.103-.407 3.037-1.021.651-.428 2.001-1.709 2.72-.705.215.298.266.683.296 1.064.009.121.03.255.039.381l.488 4.767c.587-1.229-.274-2.825.295-4.049.133.441.215.891.253 1.35.591-1.186-.394-2.743.154-3.95.236-.524.712-.857 1.17-1.177 1.259-.878 2.185-1.553 2.934-2.989.103-.182.202-.381.253-.584.082-.316.052-.654.009-.982-.09-.913-.18-1.822-.283-2.73-.009-.104-.081-.247-.171-.195-.03.022-.039.052-.06.082a13.79 13.79 0 0 0-.202.48m-56.345-10.424c.676-5.051-3.279-9.76-8.833-10.518-5.554-.758-10.605 2.721-11.281 7.771-.677 5.051 3.278 9.76 8.832 10.518 5.555.758 10.605-2.721 11.282-7.771Z"/>
    <path fill="#E6D2C3" d="M159.918 349.382s.073-.038.111-.06c.386-.216.853-.329 1.127-.705.265-.359.283-.848.274-1.311-.021-1.38-.09-2.76-.236-4.145-.638 2.631-3.054 4.244-5.269 5.607-.904.554-1.846 1.125-2.883 1.268-.895.121-1.829-.061-2.669.246-.385.134-.732.359-1.096.532a4.354 4.354 0 0 1-3.766-.038 15.83 15.83 0 0 1-6.751.869 22.596 22.596 0 0 1-1.41-.173l-.921-.121c-1.208-.165-4.052-.307-4.571-1.588-.15-.389-.325-.329-.638-.329-.407 0-.214.225-.548-.134-.476-.502-.814-1.064-1.393-1.484-.081-.06-.171-.121-.274-.112-.111 0-.201.091-.282.173a5.012 5.012 0 0 1-1.521 1.012c.12-.246-.112-.562-.377-.601-.266-.039-.519.091-.75.216-.497.264-.994.541-1.491.809-.06.031-.124.061-.184.052-.06-.008-.103-.06-.141-.104a4.394 4.394 0 0 0-2.022-1.259c-.03.411-.497.697-.853.524-.458-.238-1.859-2.055-2.296-1.22-.111.216.06.96.081 1.22.039.48.103.952.172 1.432.133.908.304 1.821.475 2.721.073.389.287.891.66.809a21.482 21.482 0 0 0-.184-3.02 94.88 94.88 0 0 0 1.705 4.032v-1.964a7.975 7.975 0 0 0 1.756 3.582c.052-.787 0-1.587-.141-2.353-.15-.809-.18-1.821.754-2.038.668-.151 1.666-.082 2.335.061.681.143 1.289-.593 2-.801.073-.021.154-.038.236-.021.103.03.171.125.244.203.497.653 1.075 1.514 1.829 1.761.6.195 1.268.255 1.889.381 1.483.285 2.973.623 4.468.8 1.504.173 1.393 1.341 1.654 1.389.266.052.754-1.125 1.058-1.103.326.03.66-.338.994-.39.557-.091 1.401.104 2.001.091.089 0 .201 0 .274.061.09.082.103.216.141.328.154.381.69.42 1.007.165.313-.255.445-.666.57-1.064.162.307.342.635.638.8.295.164.741.091.861-.234.377.255.762.511 1.208.615.445.103.942 0 1.238-.36.214-.263.304-.666.6-.83.214-.121.475-.082.711-.061 1.127.104 2.103-.406 3.037-1.021.651-.428 2.001-1.709 2.72-.705.215.299.266.684.296 1.064.009.122.03.256.039.381l.488 4.768c.587-1.229-.274-2.825.295-4.05.133.442.215.891.253 1.35.591-1.185-.394-2.743.154-3.95.236-.523.712-.856 1.17-1.177 1.259-.878 2.185-1.553 2.934-2.989.103-.182.202-.381.253-.584.082-.316.052-.653.009-.982-.09-.913-.18-1.821-.283-2.73-.009-.104-.081-.246-.171-.194-.03.021-.039.051-.06.082-.073.164-.142.328-.202.48"/>
    <path fill="#fff" d="M104.545 331.053c.676-5.05-3.278-9.759-8.832-10.518-5.555-.758-10.605 2.721-11.282 7.772-.676 5.05 3.279 9.759 8.833 10.517 5.554.759 10.605-2.721 11.281-7.771Z"/>
    <path fill="#ECA140" d="M103.266 330.88c.589-4.399-2.857-8.501-7.696-9.162-4.84-.66-9.24 2.37-9.829 6.77-.589 4.399 2.857 8.501 7.696 9.162 4.84.66 9.24-2.37 9.829-6.77Z"/>
    <path fill="#5D2357" d="M88.767 326.272c-.472-.044-.917.264-.981.752l-.116.879c-.06.458.278.947.745.99.472.044.917-.264.981-.752l.116-.879c.06-.458-.278-.947-.745-.99Zm10.637 1.822c-.471-.043-.917.264-.981.753l-.099.731c-.06.458.279.947.746.99.47.044.916-.263.981-.752l.098-.731c.06-.459-.278-.948-.745-.991Zm-7.844 1.582c.052.636.347 1.337.853 1.735.446.35 1.024.437 1.56.281.42-.121.775-.437 1.032-.788.154-.212.3-.454.39-.705.09-.251 0-.545-.257-.64-.236-.091-.545 0-.635.26a1.782 1.782 0 0 1-.055.129l-.064.13-.043.082c-.03.057.073-.112 0 0-.082.13-.176.247-.279.364-.064.073.069-.061.017-.018a.322.322 0 0 1-.042.039.84.84 0 0 1-.099.083l-.094.064c-.064.048.021-.017.034-.017-.017 0-.064.035-.077.039a.913.913 0 0 1-.112.048c-.128.047.07-.005-.042.013-.047.008-.095.017-.142.021-.008 0-.064.005-.064 0 .004.013.116.005-.004 0a.758.758 0 0 1-.142-.017s-.064-.009-.068-.013c.008.013.094.035.03.009-.043-.018-.09-.035-.133-.057l-.056-.03c-.038-.017.09.065 0 0-.034-.026-.072-.052-.107-.082l-.043-.039c-.038-.035-.034-.004.026.026-.06-.03-.124-.151-.158-.208-.009-.017-.022-.034-.03-.047-.056-.082.038.082.013.021-.013-.034-.035-.065-.052-.099a2.661 2.661 0 0 1-.094-.234l-.039-.117c-.038-.116.026.109 0-.008l-.038-.182-.026-.169a.489.489 0 0 0-.544-.419.498.498 0 0 0-.416.549v-.004Z"/>
    <path fill="#0E94AD" d="M154.803 321.115c-.561.424-1.31.861-2.257 1.324-2.155 1.056-5.102 2.107-8.294 2.963-3.191.857-6.267 1.419-8.653 1.588-3.007.208-4.481-.212-4.785-1.363-.309-1.172.827-2.314 3.684-3.677l.501-4.387.99-13.701.18-.22c.081-.1.826-.965 1.88-1.103.223-.048.45-.044.681.013l.133.03.261.073 12.539 14.813c2.725-.138 4.074.294 4.361 1.389.197.748-.188 1.475-1.221 2.258Zm-22.083 4.006c1.152.303 5.016.186 11.078-1.44 6.062-1.627 9.476-3.457 10.324-4.305-.372-.099-1.178-.212-2.784-.099l-.446.03-12.684-14.986c-.176.043-.36.173-.501.29l-.947 13.121-.621 5.421-.454.208c-1.873.856-2.648 1.453-2.961 1.76h-.004Z"/>
    <path fill="#E78E40" d="M99.485 323.139c1.671 1.717 2.566 4.036 2.24 6.45-.591 4.4-4.99 7.432-9.827 6.77a9.526 9.526 0 0 1-3.864-1.418c1.375 1.41 3.269 2.414 5.454 2.712 4.84.662 9.24-2.371 9.827-6.77.415-3.098-1.174-6.04-3.83-7.744Z"/>
    <path fill="#fff" d="M153.784 320.812c-.561.424-1.311.861-2.258 1.324-2.154 1.056-5.102 2.107-8.293 2.964-3.192.856-6.268 1.419-8.654 1.587-3.007.208-4.481-.212-4.785-1.362-.308-1.173.827-2.315 3.684-3.678l.502-4.386.989-13.701.18-.221c.081-.099.827-.965 1.881-1.103a1.51 1.51 0 0 1 .681.013l.133.03.261.074 12.539 14.813c2.724-.139 4.074.294 4.361 1.388.197.749-.189 1.475-1.221 2.258Zm-22.083 4.007c1.152.302 5.016.186 11.078-1.441 6.061-1.627 9.476-3.457 10.324-4.305-.373-.099-1.178-.212-2.785-.099l-.445.03-12.685-14.986c-.175.043-.36.173-.501.29l-.947 13.121-.621 5.421-.454.208c-1.872.856-2.647 1.453-2.96 1.761h-.004Z"/>
    <path fill="#E78E40" d="M137.839 303.061c-.959-.242-1.782.766-1.782.766l-.415 5.818c4.181-2.271 5.731-1.873 6.168-1.894l-3.971-4.69Zm-2.75 14.221-.776 6.771c7.913-4.595 17.123-4.932 17.123-4.932l-4.164-4.923c-4.674-.359-10.474 2.267-12.179 3.084h-.004Z"/>
    <path fill="#fff" d="M141.81 307.751c-.437.021-1.987-.377-6.169 1.894l-.552 7.636c1.705-.817 7.505-3.443 12.179-3.084l-5.458-6.446Z"/>
    <path fill="#D56637" d="M139.304 306.186c2.33 3.37 4.459 6.93 5.59 10.755.296.991.501 1.999.617 2.994 3.461-.719 5.916-.809 5.916-.809l-13.593-16.059c-.33-.13-.484 0-.711.082a109.123 109.123 0 0 1 2.181 3.041v-.004Z" opacity=".5"/>
    <path fill="#D56637" d="M143.237 324.154c6.491-1.743 11.482-4.186 11.148-5.456-.334-1.27-5.868-.886-12.359.857-6.491 1.743-11.482 4.185-11.148 5.455.334 1.27 5.868.887 12.359-.856Z"/>
    <path fill="#B63A30" d="M143.284 322.815c4.106-1.103 7.31-2.472 7.156-3.059-.155-.586-3.609-.168-7.715.935-4.107 1.103-7.311 2.472-7.156 3.058.154.587 3.608.169 7.715-.934Z"/>
    <path fill="#CA5E36" d="M141.694 339.039c.052.03.103.056.159.074-.073 0-.129-.018-.159-.074Z"/>
    <path fill="#0E94AD" d="M94.756 305.688s-.013.013-.022.017l-.038.026v-.013l-.022.013-.895-2.167.017-.013-.038-.091-.034.022-2.73-6.299.095.047 2.09 4.824-1.974-4.789-3.599-1.925c-.351.212-.707.402-1.07.575 1.366.727 2.77 1.48 4.236 2.271.977 2.709 2 5.382 3.05 7.956.116.29.368.506.673.576a.943.943 0 0 0 .856-.217 170.317 170.317 0 0 0 5.848-5.49h-.017l-6.43 4.673.004.004Zm11.49-15.017-.407 1.38s.008.034.017.052a229.171 229.171 0 0 1 3.221 7.765h-.043v.013l-7.702 1.108c2.905.017 5.492-.026 7.891-.126a.907.907 0 0 0 .767-.445.976.976 0 0 0 .094-.887 206.28 206.28 0 0 0-3.23-7.883c.094-.289.184-.571.278-.856l-.891-.13.005.009Z"/>
    <path fill="#0E94AD" d="m107.41 286.717-1.165 3.954.891.13c.446-1.367.883-2.691 1.311-3.976-.347-.035-.69-.074-1.032-.108h-.005Zm-.085-.008c-.42 1.276-.848 2.583-1.285 3.937.064.008.133.017.197.03l1.165-3.954-.077-.009v-.004Z"/>
    <path fill="#E386A6" d="M87.43 294.903c1.166.623 2.357 1.263 3.59 1.934.24.125.416.337.51.597a237.54 237.54 0 0 0 2.108 5.654l5.663-4.741c.266-.221.591-.355.934-.381l7.63-.61-3.012-7.264c-4.082-.623-8.118-1.354-11.995-2.219-1.096 3.452-3.131 5.65-5.427 7.034v-.004Z"/>
    <path fill="#DA3555" d="m100.989 300.597-.009.008.133-.017h-.043l-.081.013v-.004Zm4.597-8.896.004.013.021-.068s0-.009-.004-.013l-.021.068Z"/>
    <path fill="#C95B80" d="M105.654 286.138a255.95 255.95 0 0 1-12.192-1.7l.111.025a17.684 17.684 0 0 1-.71 3.405c3.876.865 7.912 1.601 11.994 2.219l-.214-.514 1.011-3.435Z"/>
    <path fill="#9F2C43" d="m105.594 291.713 3.213 7.753-3.213-7.757v.004Zm-4.605 8.882.081-.013h-.068l-.013.013Z"/>
    <path fill="#C95B80" d="M100.587 299.627c.128-.052.274-.082.415-.082 2.84.022 5.415 0 7.806-.078l-3.213-7.752-.005-.013.022-.07a1.079 1.079 0 0 1-.013-.718c.073-.229.146-.45.218-.679-.321-.048-.638-.095-.959-.147l3.011 7.264-7.629.61c-.343.026-.668.16-.934.38l-5.663 4.742c.287.74.574 1.471.865 2.197l.103-.073a191.61 191.61 0 0 0 5.633-5.352c.094-.099.219-.177.347-.229h-.004Z"/>
    <path fill="#B84671" d="m105.655 286.139-1.011 3.435.214.514c.321.048.638.1.959.148.437-1.35.866-2.661 1.286-3.937-.485-.052-.969-.104-1.448-.16Z"/>
    <path fill="#E386A6" d="M93.458 284.442a1.008 1.008 0 0 0-.12-.022l.12.022Z"/>
    <path fill="#fff" d="M94.53 305.276s-.014.013-.022.017l-.039.026v-.013l-.021.013-.895-2.167.017-.013-.039-.091-.034.022-2.729-6.299.094.047 2.09 4.824-1.974-4.789-3.598-1.925a12.31 12.31 0 0 1-1.071.575c1.366.727 2.771 1.48 4.236 2.271.977 2.709 2 5.382 3.05 7.956.116.29.369.506.673.576a.943.943 0 0 0 .857-.217 169.774 169.774 0 0 0 5.847-5.49h-.017l-6.43 4.673.004.004Zm11.488-15.015-.407 1.38s.009.034.017.052a229.208 229.208 0 0 1 3.222 7.765h-.043v.013l-7.703 1.108c2.905.017 5.492-.026 7.891-.126a.907.907 0 0 0 .767-.446.968.968 0 0 0 .094-.886 206.28 206.28 0 0 0-3.23-7.883c.095-.29.185-.571.279-.856l-.891-.13.004.009Z"/>
    <path fill="#fff" d="M105.607 291.627s0 .008.005.013l.407-1.38h-.009l-.403 1.367Zm-4.657 8.977-6.344 4.607a1.14 1.14 0 0 0-.073.07l6.43-4.673h.017s.005-.008.009-.008h-.039v.004Zm-9.42-3.171a1.124 1.124 0 0 0-.51-.597 626.742 626.742 0 0 0-3.59-1.934c-.017.009-.034.022-.051.031l3.598 1.925 1.975 4.789.6 1.389-.021.017.038.091.069-.057a233.8 233.8 0 0 1-2.108-5.654Zm17.281 2.047-7.741 1.108h.043l7.703-1.099-.005-.009Z"/>
    <path fill="#fff" d="m107.179 286.307-1.165 3.954h.008l1.165-3.954h-.008Zm-13.622 16.851.895 2.163.013-.009-.891-2.167-.017.013Zm15.254-3.678h.004l-.008-.013.004.013Zm-3.217-8.57c-.077.233-.068.484.013.718l.403-1.367c-.064-.009-.133-.018-.197-.031-.073.225-.146.45-.219.68Zm-11.952 12.172-.069.057.896 2.167.038-.03a212.25 212.25 0 0 1-.865-2.198v.004Z"/>
    <path fill="#fff" d="M101.002 299.545c-.141 0-.287.03-.415.082a.95.95 0 0 0-.347.23 187.488 187.488 0 0 1-5.634 5.351l6.345-4.607h.038l.013-.018h.069l7.741-1.107v-.013c-2.395.078-4.97.104-7.81.078v.004Z"/>
    <path fill="#E89FBE" d="m107.188 286.307-1.166 3.954.892.13a594.31 594.31 0 0 1 1.31-3.976c-.347-.035-.689-.074-1.032-.108h-.004Zm-.085-.01c-.42 1.276-.849 2.583-1.286 3.937a2.6 2.6 0 0 1 .197.03l1.166-3.954-.077-.009v-.004Z"/>
    <path fill="#fff" d="m90.866 296.823-.094-.048 2.728 6.295.035-.022-.579-1.401-2.09-4.824Zm2.091 4.823.578 1.402.022-.013-.6-1.389Z"/>
    <path fill="#81C7CE" d="M84.62 266.003s-2.943.883-3.063 2.427c-.12 1.545-1.208 10.093-1.208 10.093s-.548 2.484.313 3.401c0 0-4.014-.727-4.584-.956-.57-.23-2.45-.338-1.932-3.093.518-2.756 1.928-11.404 1.928-11.404s-.103-1.856 2.784-1.376c2.888.48 5.762.908 5.762.908Z"/>
  </g>
  <defs>
    <clipPath id="a">
      <path fill="#fff" d="M72 265h90v93H72z"/>
    </clipPath>
  </defs>
</svg>
