<svg xmlns="http://www.w3.org/2000/svg" width="251" height="414" fill="none" viewBox="0 0 251 414">
  <path fill="#fff" d="m157 296.5-15.5 4.5 1.5 40 18 3-4-47.5Z"/>
  <path fill="#FDF5F0" fill-rule="evenodd" d="M82.91 290.225s-.91 1.762-.956 2.773a392.997 392.997 0 0 0-.127 4.432l-5.321-1.787.445-6.215.926-1.052 5.029 1.853" clip-rule="evenodd"/>
  <path fill="#1E1E1E" fill-rule="evenodd" d="m149.374 313.114-.44 6.508 7.515.656.161-7.333m.317-14.76-.103 7.819-7.116.978-.05-8.273 7.269-.524Z" clip-rule="evenodd"/>
  <path fill="#1E1E1E" d="m74.342 345.292.618 13.044s14.105 5.178 34.058 1.531l1.948-16.419-36.624 1.848v-.004Zm45.4-.182 4.151 15.896s17.116 2.492 37.069-1.156v-16.464l-41.22 1.724Z"/>
  <path fill="#FDF5F0" d="M77.884 288.137v-1.944l7.36 2.645-1.974 58.707s-4.723-.157-9.035-.52l-1.796-3.049 1.224-2.971 3.294-51.577.93-1.287-.003-.004Z"/>
  <path fill="#8672A9" d="M106.424 294.995h2.401c0-1.424-2.401-1.424-2.401 0Z"/>
  <path fill="#6A568C" d="M151.276 290.212c-.799.165-1.585.331-2.372.483.359.904.552 1.527.569 1.857.09 1.948.152 3.846.201 5.682.845-.041 1.648-.086 2.401-.132-.037-1.828-.103-3.71-.197-5.649-.025-.553-.256-1.337-.597-2.236l-.005-.005Zm5.687 2.361c0-.714-.387-2.076-.927-3.458-.786.194-1.569.388-2.339.565.478 1.172.865 2.365.865 2.893 0 1.844 0 3.639-.02 5.372a191.81 191.81 0 0 0 2.4-.185c.009-1.68.021-3.409.021-5.187Z"/>
  <path fill="#fff" d="M156.285 324.895c-.112 2.823-.404 6.19-.404 7.283 0 1.585-.383 1.799 1.285 4.709.972 1.696 2.368 4.547 2.306 6.565-.037 1.159-2.982 2.224-2.561 2.744.037.045 4.439 0 4.439 0 .951 0 1.783-.632 2.034-1.548l.318-1.147s-.738-4.139-1.825-5.682c-1.087-1.547-.725-5.513-.725-5.513s-1.404-31.278-1.606-34.361c-.173-.099-3.229-10.621-4.312-10.695.911 1.848 1.738 4.25 1.73 5.286-.144 14.422-.432 25.662-.688 32.367l.009-.008Z"/>
  <path fill="#2D2D2C" d="M152.157 343.423c.045-1.618-.338-3.178-1.104-4.515-1.911-3.33-2.883-6.032-2.883-8.054 0-1.011.148-2.666.358-4.964.581-6.355 1.656-18.177.931-33.371-.033-.648-.729-2.406-2.071-5.22-.046-.099-.091-.19-.128-.268.284 0 .552.008.824.012v-.012c-16.387-.244-50.392.177-64.283.375 0 .021-.012.042-.016.062.239 0 .453 0 .622-.008l.333.264c-.663.747-2.433 3.017-2.722 4.564-.358 1.935-.531 44.132-.198 46.794.338 1.469-.782 2.348-1.577 3.268-.333.384-2.084 4.304-1.73 4.803-1.21.045 9.567.636 18.13.718 5.065.05 11.588-.986 14.331-1.448.667-.112 2.29-.776 2.162-1.44-.111-.591-.795-4.766-.795-4.766s1.956-7.131 2.277-8.707c.495-2.455 1.446-5.332 1.467-5.418-.054 0 .531 3.668.531 3.668l5.144 7.172 2.145 3.165-2.129 6.09 8.574.805c6.507.574 10.333.743 17.734.029l4.468-.838c-.288-.78-.416-1.708-.383-2.768h-.004l-.008.008Z"/>
  <path fill="#8672A9" d="M155.233 287.229c-.445-.025-.943-.041-1.487-.062.56.021 1.059.045 1.491.074 0 0-.004-.008-.008-.012h.004Z"/>
  <path fill="#3F9FD4" d="M73.124 346.192h-.009s.009 0 .013.008v-.008h-.004Zm.301.557s-.017-.025-.02-.042c.008.013.016.025.02.042Z"/>
  <path fill="#1E1E1E" d="M77.51 288.273s11.634 3.932 42.529 5.34c6.936.317 12.063-.553 16.63-1.016 10.423-1.052 16.16-3.437 21.427-4.324 0 0 1.104 3.26 1.458 9.672 0 0-20.706 2.579-46.334-.652-19.509-2.459-35.71-9.016-35.71-9.016h-.004l.004-.004Z"/>
  <path fill="#BBB" d="M156.925 292.531c0-.685-.358-1.96-.856-3.276-2.171.425-4.456.957-7.174 1.502.337.854.514 1.444.535 1.762.103 2.154.165 4.234.202 6.239 3.121-.136 5.596-.318 7.268-.458.017-1.861.025-3.784.025-5.769Z"/>
  <path fill="#585959" d="m76.887 347.298 1.062 10.576c.05.507.1 1.011.153 1.518.078.792 1.33.801 1.247 0l-1.062-10.576c-.05-.508-.099-1.011-.153-1.518-.078-.793-1.33-.801-1.247 0Zm10.884 13.093v-12.743c0-.804-1.248-.804-1.248 0v12.743c0 .804 1.248.804 1.248 0Zm16.713.383v-15.292c0-.805-1.248-.805-1.248 0v15.292c0 .805 1.248.805 1.248 0Zm-8.294.388c.169-4.221.342-8.442.515-12.664l.074-1.795c.033-.804-1.215-.804-1.248 0-.169 4.222-.342 8.443-.515 12.664l-.074 1.795c-.033.805 1.215.805 1.248 0Zm29.927-14.566c.371 4.345.741 8.69 1.108 13.027.049.607.103 1.209.152 1.82.066.796 1.318.805 1.252 0-.37-4.345-.741-8.69-1.107-13.027-.05-.607-.103-1.209-.153-1.82-.066-.796-1.314-.805-1.248 0h-.004Zm11.523 15.243v-14.946c0-.805-1.247-.805-1.247 0v14.946c0 .805 1.247.805 1.247 0Zm17.799-1.25v-16.568c0-.805-1.248-.805-1.248 0v16.568c0 .804 1.248.804 1.248 0Zm-8.784 1.25c.177-4.655.358-9.317.535-13.972l.074-1.989c.029-.805-1.219-.805-1.252 0-.177 4.655-.358 9.318-.535 13.972l-.074 1.989c-.029.805 1.219.805 1.248 0h.004Z"/>
  <path fill="#1E1E1E" d="M151.543 339.994h7.17s1.936 4.172-.358 6.198h-6.141s-.881-1.011-.675-6.198h.004Z"/>
  <path fill="#FDF5F0" d="M155.76 277.779s-9.937 7.432-44.564 6.095c-30.775-2.414-32.497-7.064-32.497-7.064l-1.19.499c-.272 1.036-1.12 9.722-1.12 9.722s.465 1.209 1.49 1.345c.84.103 12.158 3.565 27.412 4.803l2.397.174c2.565.156 5.217.26 7.944.26 2.055 0 4.106-.033 6.128-.095l4.254-.165c17.894-.793 31.385-3.768 31.978-4.775.544-.301.186-.569.186-1.741 0-1.172-1.355-7.353-1.355-7.353s-.05-1.771-1.075-1.709h.012v.004Z"/>
  <path fill="#FDF5F0" d="M152.347 279.484s-26.468 5.31-51.874 2.257c-.481-.058-.926.264-.926.755v10.865c0 .388.305.685.688.722 21.658 1.993 45.198-.215 56.754-4.968l-4.642-9.631Z"/>
  <path fill="#B1B1B1" d="M99.546 282.706v9.962l-4.089-.632 1.985-9.606 2.105.276Z"/>
  <path fill="#221F20" d="M104.286 287.642c-3.159-2.423 1.182-1.383 2.627-1.622-.065.264.215 1.077-.341.866-1.215-.264.659 3.244.547 3.607 2.562-4.902-2.569-4.444 3.155-4.473-.082.148.198 1.065-.227.866-.967-.214-1.865 4.762-2.248 5.274-2.673 1.127-2.871-3.021-3.513-4.518Zm7.974-.673c-3.167-1.085 5.93-2.055 5.749.38.029.858-.84 1.299-1.252 1.399 1.627-.293.552 2.265 1.573 2.162.577-2.328 1.236 1.597-.77 1.221-2.574.438-.671-3.4-3.093-2.806.173 3.586 3.295 2.497-2.747 2.876.079-.235-.259-1.068.28-.883 1.067.24.14-3.85.264-4.349h-.004Zm2.162 1.506c2.08.372 1.964-2.158-.058-1.626l.058 1.626Zm5.382.537c-.593-4.317 7.051-4.89 7.108-.533.593 4.317-7.046 4.87-7.108.533Zm3.386-2.584c-1.557.013-1.187 4.833.341 4.63 1.565-.012 1.191-4.823-.341-4.63Zm5.081 2.01c-.47-4.337 7.19-4.683 7.116-.326.465 4.337-7.195 4.651-7.116.326Zm3.459-2.484c-1.693.103-1.478 4.679.202 4.63 1.701-.091 1.47-4.696-.202-4.63Zm13.773-2.323c.173.701.066.899-.589 1.027-.161.165.375 3.504.379 3.78.136.92 1.153.008.972 1.292-5.947.965-1.726.082-3.258-4.775-.688 6.821-2.187 7.131-4.472.57-.28 4.914 3.739 4.939-1.376 5.339-.169-.693-.066-.895.568-1.035-.131-.648.186-4.816-1.223-4.197-.984-1.485 2.805-.957 3.311-1.287l1.487 3.503c.243-3.272.741-4.267 4.197-4.221l.004.004Zm1.823.412-.111-.825c.066-.008 6.297-.879 9.814-2.835l.181.85c-3.678 1.944-9.612 2.773-9.88 2.81h-.004Zm.371 2.39-.111-.826c.066-.008 6.429-.895 9.925-2.896l.202.841c-3.665 1.997-9.744 2.848-10.02 2.885l.004-.004Zm.26 2.574-.111-.825c.066-.008 6.626-.974 10.122-2.975l.145.928c-3.666 1.998-9.88 2.839-10.156 2.877v-.005Zm-49.131-3.763c-4.724 0-12.227-1.754-12.56-1.832-.248-.058-5.556-1.366-9.135-3.359l.107-.899c3.472 2.03 9.159 3.433 9.217 3.445.082.021 8.557 2.006 13.071 1.795l.037.834c-.239.012-.482.016-.737.016Z"/>
  <path fill="#000" fill-rule="evenodd" d="m74.235 347.025 7.273.557-.202-1.683v-6.235l-7.413-2.332-.234 3.673-1.224 2.971 1.8 3.049Z" clip-rule="evenodd"/>
  <path fill="#221F20" d="M99.176 287.811c-3.95 0-13.12-1.927-13.52-2.01-.251-.066-5.255-1.382-8.793-3.346l.095-.904c3.455 2.01 8.826 3.425 8.887 3.437.083.017 10.09 2.109 13.681 1.981l.033.834c-.12 0-.251.008-.383.008Zm-.408 2.236c-5.218 0-12.985-1.758-13.327-1.84-.243-.062-5.283-1.345-8.838-3.272l.091-.904c3.476 1.993 8.883 3.351 8.94 3.367.08.017 8.814 1.993 13.892 1.803l.033.834c-.255.008-.52.016-.787.016l-.004-.004Z"/>
  <path fill="#6C6C6C" d="M84.017 312.367c-.251-5.15 3.6-12.783 13.335-13.609 0 0-7.953 11.327-2.862 15.214 5.09 3.888 5.518 7.622 6.049 11.575 0 0-.272-8.236 14.291-8.946 0 0-6.561 7.015-.457 8.273l1.713 1.214-7.961 19.522-26.822-4.49.342-11.054s4.542-7.886 2.363-17.703l.009.004Z"/>
  <path fill="#1E1E1E" d="m112.353 327.841-4.736 19.258s2.113-.742 4.304-1.291c0 0 1.408.062 1.211-.867-.198-.928-.795-4.766-.795-4.766l2.491-8.484 1.256-5.595-1.709-1.217-2.018 2.962h-.004Z"/>
  <path fill="#6C6C6C" d="M148.17 330.85c-.012-3.97-4.975-4.758-4.975-4.758.354 1.601-2.85 3.14-2.85 3.14 1.306-5.084-4.402-10.019-4.402-10.019-9.83-.466-10.724 8.216-10.724 8.216-.692-2.703-5.037-3.846-4.65-2.456 3.983 14.319-4.068 4.209-4.068 4.209l.008.062-.008-.008h-.013l.058.256.704 4.696c.103.26 2.01 7.188 2.01 7.188l32.814 1.077s-3.887-6.697-3.9-11.608l-.004.005Z"/>
  <path fill="#EFAE42" d="M114.054 332.818c-.621-1.453-.502-2.765-.502-2.765.478 2.843-2.903 3.268-2.903 3.268-6.441-.503 0-13.126 0-13.126-13.134 4.684-3.007 16.436-5.148 20.496-1.643 3.111-5.379 1.246-3.307-3.396 2.063-4.638-3.983-7.242-3.983-7.242s2.064 3.268-.885 7.242-8.41-1.778-3.274-6.243c5.135-4.465 1.017-12.561-2.12-14.443-3.14-1.881-2.171-8.43-2.171-8.43-8.929 9.672 2.4 15.115-2.69 18.206-6.848 5.533-2.99 11.554-5.72 14.1-1.775 1.65-3.34 5.195-2.965 6.829 0 0 31.435 3.087 34.94-2.043 0 0-5.461-2.607.728-12.453Z"/>
  <path fill="#DD565B" d="M81.677 347.557c-2.932-1.823 2.723-8.809 2.714-9.874-.074-10.238 5.857-7.923 8.822-11.884 0 0-7.491 14.826-.556 15.371 6.041.474 6.886-3.314 6.886-3.314-.075 13.75 12.309 5.059 7.45-3.342 0 0 2.602 4.002 4.278 2.038 0 0-3.615 8.146-.593 10.378 0 .004-7.034 2.777-29.005.623l.004.004Z"/>
  <path fill="#1E1E1E" d="M113.071 344.661c-.152-.826-.416-2.447-.585-3.491l.449 2.839s.054.251.132.652h.004Z"/>
  <path fill="#DA3856" d="m112.342 340.217.152.953-.152-.953Z"/>
  <path fill="#DF8F3E" d="M113.376 329.76c.346 1.935-1.318 3.202-2.347 3.528l-.935 3.809c.309-.054.601-.19.877-.487 0 0-3.484 8.084-.292 10.328.518-.103 2.713-1.287 2.643-1.662-.016-.083-.152-.417-.177-.541-.078-.404-.807-4.506-.807-4.506s2.183-7.007 2.492-8.484c-.663-1.453-1.45-1.977-1.45-1.977l-.004-.008Z"/>
  <path fill="#B13B32" d="M110.677 346.934c-3.199-2.248.293-10.332.293-10.332a1.472 1.472 0 0 1-.877.491l-3.62 10.729c1.169-.145 4.134-.875 4.204-.888Z"/>
  <path fill="#EFAE42" d="M151.963 343.481c.77-3.079-2.459-7.09-2.764-7.804-2.372-3.342-6.708-3.577-6.708-3.577s3.294 5.525 0 7.085c-3.295 1.556-5.959-.458-3.447-4.857 2.512-4.399-4.39-7.506-4.39-7.506s2.664 3.916-1.726 5.286c-4.39 1.37.778-10.147.778-10.147s-3.442.322-5.905 4.197c-2.459 3.874 2.458 9.127 3.715 12.144 1.251 3.016-5.173 5.599-4.341-1.234.828-6.833-3.476-5.963-3.476-5.963 2.228 1.474.848 4.713-.717 7.651v-.004c-3.199 1.502-5.728-4.556-5.728-4.556s.576 3.334.836 3.875c.263.54 1.186 3.322 1.186 3.322-.449.705-.918 2.777-.918 2.777-.173 2.034 1.779 2.034 1.779 2.034h1.466l-.021.054 8.574.808c6.507.574 10.333.743 17.734.029l4.468-.837c-.288-.776-.642-1.738-.383-2.765l-.012-.012Z"/>
  <path fill="#DD565B" d="M145.498 336.144c.762 2.661-6.878 10.803-8.937.392-.514-2.612.828-4.556.569-5.517-3.34 5.678-7.623.524-7.623.524s.646 1.708 3.056 4.605c2.409 2.897 1 6.916-2.883 7.242-3.077.26-3.752-4.746-3.896-6.838-1.355 6.537-5.086 3.037-6.042 2.703 0 0 1.12 1.531 1.083 2.567-.037 1.035-1.35 4.246-1.35 4.246l.333.07c.144.029.288.05.433.054l1.869.09h.009c2.442.351 4.719.611 6.84.805H129c14.299 1.308 21.378-.503 21.378-.503.416-8.913-4.88-10.453-4.88-10.453v.013Z"/>
  <path fill="#000" fill-rule="evenodd" d="m76.52 294.842 5.321 1.787-.095 6.759-5.848-1.634.622-6.912Zm-.773 13.481 6.013 1.787-.095 6.759-6.35-1.77m-.471 6.404 6.808 2.332v6.235l-.062 1.923-7.211-2.245" clip-rule="evenodd"/>
  <path fill="#1E1E1E" fill-rule="evenodd" d="M156.795 305.988h3.13l.341 7.349-3.657-.392.186-6.957Zm-.346 14.29 4.217.095.284 7.258-4.835-.305.334-7.048Zm-.335 7.048-.234 4.856s-.07 1.589.115 2.274l-7.639-1.168s-.379-2.595-.219-4.481l.247-2.831 7.73 1.35Zm2.555 12.668h4.229s-.465-1.164-1.013-2.175c-.667-1.23-.745-2.69-.725-3.804l-5.16.437" clip-rule="evenodd"/>
</svg>
