<svg xmlns="http://www.w3.org/2000/svg" width="250" height="414" fill="none" viewBox="0 0 250 414">
  <g clip-path="url(#a)">
    <path fill="#9D82B7" d="M111.621 345.544s-2.414 1.508-.756 3.084l-4.988 2.562-3.459-5.119 3.553-2.604 5.65 2.077Z"/>
    <path fill="#B59BC5" d="M77.185 280.756s-2.188 1.388-2.188 3.293c0 1.906-3.46 51.174-3.46 51.174s-1.456 1.908-1.456 3.293c0 1.386.91 4.681 2.003 5.554 1.094.87-1.818 3.47-2.003 4.681-.185 1.212 0 4.336 0 4.336s7.104 5.377 14.207 5.377c7.104 0 24.228-1.385 25.684-3.815 1.456-2.428 3.644-4.856 2.003-5.724-1.641-.865-6.379.175-6.194-1.387.185-1.562 6.451-1.043 6.78-2.95.328-1.908-.766-6.94-.766-6.94l-.184-3.815s2.365-4.336 2.365-5.378c0-1.042 1.819-8.847 1.819-8.847s2.003 12.317 2.735 12.837c.729.52 2.003 3.124 2.003 3.124s-.732 6.763-2.003 7.981c-1.279 1.216 2.003 5.032 2.003 5.032l2.003.346s-1.094 4.512-.729 5.377c.362.868.885 1.734 3.992 3.124 3.111 1.388 28.978 4.512 36.081-5.551 0 0 2.003-3.816 1.819-5.201-.185-1.388-1.094-5.554-1.094-5.554l1.103-3.99s-.741-4.166-1.835-5.723c-1.094-1.558-.729-5.552-.729-5.552l-.547-1.908s0-25.154-.547-27.758c-.547-2.604-.732-14.225-2.913-15.439-2.185-1.216-79.97 0-79.97 0h.015l.003.003Z"/>
    <path fill="#9D82B7" d="M70.082 353.09s13.775 2.644 22.107 1.538c8.331-1.105 19.784-5.704 19.784-5.704s1.284.437.171 2.253-2.174 3.47-2.174 3.47-.163.621-1.926 1.129c-1.761.508-8.55 2.456-22.8 2.677 0 0-4.674-.101-8.69-1.743-2.385-.976-5.971-3.063-6.475-3.625v.005h.003Zm48.455-9.543s4.393 2.691 5.83 2.95c1.79.322-1.818 2.427-1.818 2.427l-2.004-.345s-2.55-2.964-2.279-3.995l.276-1.032-.005-.005Zm3.203 10.146s22.117 3.206 27.764 0c5.648-3.207 13.118-12.574 13.118-12.574l1.094 5.552s-.609 5.921-4.707 8.01c-4.097 2.086-7.518 4.095-16.743 4.264-9.222.172-15.337-.482-18.299-2.446-1.805-1.197-2.169-1.825-2.227-2.802v-.004Zm-51.658-15.17s11.657 6.764 25.046 8.805c0 0-15.94 1.433-23.043-3.253 0 0-1.418-1.047-2.003-5.552Z"/>
    <path fill="#9D82B7" d="M125.833 343.903c-.096-.102.024-.25.155-.193 1.97.879 8.86 3.796 13.042 3.613 4.915-.216 16.135-2.404 16.939-3.166 0 0-9.929 6.33-16.668 6.419-6.087.078-11.818-4.935-13.466-6.671l-.002-.002Z"/>
    <path fill="#D3C1DB" d="M84.23 284.44s-2.3.517-2.3 2.378c0 1.861-2.437 48.753-2.437 48.753s-2.437 1.727-2.303 3.056c.135 1.329 1.145 3.848 1.145 3.848l-8.253-3.952s.278-2.317 1.456-3.298L75 284.049s.288-1.651 2.188-3.293l7.041 3.684Z"/>
    <path fill="#8670A8" d="M155.379 350.031c-.847-1.424-.389-3.715-.11-4.585.333-.626 1.674-3.456-.161-5.74-.422-.525-.629-1.419-.59-2.585.057-2.033-.425-4.009-1.404-5.714-1.679-2.927-2.603-5.413-2.603-7.008 0-.917.149-2.548.353-4.801.585-6.448 1.679-18.45.943-33.891-.053-1.134-.933-3.206-1.96-5.382-.837-.014-1.732-.026-2.675-.038l.129.273c1.351 2.83 2.052 4.599 2.085 5.253.729 15.293-.352 27.193-.94 33.59-.211 2.312-.362 3.98-.362 4.998 0 2.033.976 4.759 2.898 8.109.77 1.346 1.156 2.917 1.108 4.545-.053 1.722.314 3.086 1.089 4.051 1.056 1.312-.082 3.312-.091 3.331l-.096.207c-.053.155-1.308 3.855.276 6.523.643 1.089.18 4.138-.456 6.469.928-.245 1.833-.52 2.697-.842.479-2.172.842-5.107-.137-6.761l.005-.005.002.003Z"/>
    <path fill="#8670A8" d="M160.808 345.446c.333-.626 1.674-3.456-.161-5.74-.422-.524-.628-1.418-.59-2.585.058-2.032-.425-4.008-1.403-5.714-1.68-2.926-2.603-5.413-2.603-7.008 0-1.101.076-3.152.189-5.993.257-6.749.691-18.048.691-32.581 0-1.049-.828-3.474-1.746-5.335a112.23 112.23 0 0 0-2.764-.101c.76 1.206 2.089 4.45 2.089 5.441 0 14.49-.429 25.761-.69 32.498-.113 2.865-.19 4.94-.19 6.076 0 2.033.979 4.759 2.9 8.109.771 1.345 1.157 2.917 1.109 4.545-.053 1.721.314 3.086 1.089 4.05 1.056 1.313-.082 3.312-.094 3.331l-.096.207c-.055.156-1.307 3.856.276 6.523.43.725.363 2.327.087 4.004.993-.607 1.883-1.303 2.636-2.1.015-1.155-.144-2.245-.614-3.037-.847-1.424-.389-3.715-.11-4.585l-.005-.005Z"/>
    <path fill="#B59BC5" d="M74.678 349.06c.038-.37.794-1.428 1.243-2.063.875-1.231 1.63-2.289 1.63-3.277s-.73-1.927-1.578-3.044c-.45-.595-1.293-1.71-1.293-2.089.01-.247.514-.835.847-1.221.799-.927 1.79-2.077 1.451-3.557-.333-2.677 2.512-46.281 2.875-48.228.29-1.558 2.075-3.844 2.74-4.594l-.334-.266-2.526.037c-.857 1.148-1.975 2.88-2.26 4.423-.228 1.23-1.075 13.505-1.756 24.655-.943 15.347-1.313 23.578-1.1 24.458.097.393-.465 1.037-.956 1.614-.634.736-1.356 1.571-1.394 2.597-.043 1.148.827 2.3 1.746 3.521.4.529 1.075 1.419 1.123 1.687-.038.35-.775 1.383-1.214 1.999-.799 1.125-1.552 2.183-1.65 3.143-.092.929-.233 3.477.184 5.763.79.494 1.694.981 2.894 1.572-1.147-2.489-.78-5.985-.667-7.123l-.005-.005v-.002Z"/>
    <path fill="#8670A8" d="M77.365 281.645s11.25 3.857 24.619 4.561c13.37.706 32.941 1.75 55.989-4.364 0 0 1.199 2.663 1.545 8.967 0 0-50.459 5.604-82.15-9.164h-.003Z"/>
    <path fill="#8670A8" d="M106.076 288.307v18.475c0 1.433 2.418 1.433 2.418 0v-18.475c0-1.433-2.418-1.433-2.418 0Zm16.949-.612v25.817c0 2 2.419 2.004 2.419 0v-25.817c0-2-2.419-2.004-2.419 0Z"/>
    <path fill="#69548A" d="M151.198 283.491c-.804.169-1.598.331-2.389.487.362.908.556 1.536.571 1.87.091 1.962.155 3.869.199 5.718.851-.04 1.66-.087 2.418-.134a207.525 207.525 0 0 0-.197-5.69c-.024-.558-.257-1.346-.6-2.254l-.002.003Zm5.724 2.373c0-.72-.391-2.091-.933-3.479-.79.197-1.579.388-2.356.571.48 1.181.871 2.379.871 2.913 0 1.856-.005 3.665-.02 5.41a165.76 165.76 0 0 0 2.419-.188c.009-1.691.019-3.432.019-5.225v-.002Z"/>
    <path fill="#fff" d="M157.972 272.341c-.547-.52-1.228-1.433-2.255-1.365 0 0-10.093 8.862-44.836 6.138C79.92 274.686 78.187 270 78.187 270s-1.504.259-1.775 1.299c-.27 1.042-.547 8.99-.547 8.99s.47 1.221 1.5 1.355c.847.106 12.232 3.59 27.576 4.834-.052 6.392-.107 12.783-.165 19.172-.014 1.482 2.406 1.482 2.421 0l.158-18.997c2.579.159 5.249.261 7.993.261 2.071 0 4.132-.033 6.168-.097v26.377c0 1.485 2.419 1.485 2.419 0v-26.471c18.004-.797 33.44-3.865 34.035-4.879.688-1.174.827-2.195.827-3.373 0-1.179-.271-5.603-.818-6.123l-.009-.01.002.003Z"/>
    <path fill="#E6CEE1" d="M155.779 344.276a.825.825 0 0 0 .19-.12s-.067.047-.19.12Zm0 0-.028.014a.082.082 0 0 1 .033-.019l-.005.005Z"/>
    <path fill="#69548A" d="M155.377 350.03a2.941 2.941 0 0 1-.295-.706 49.73 49.73 0 0 1-1.884 1.692c.024.047.048.096.075.143.623 1.054.204 3.966-.401 6.267a26.056 26.056 0 0 0 2.733-1.066c.431-2.115.693-4.787-.224-6.33h-.004Zm.374-5.739c-.463.226-1.514.525-2.903.852-.062.244-.139.557-.203.931a57.716 57.716 0 0 0 3.106-1.778v-.005Zm5.772 8.18c-.043-.927-.218-1.783-.605-2.437-.846-1.424-.388-3.715-.11-4.585.209-.391.808-1.64.782-3.082a98.095 98.095 0 0 1-3.431 3.86c-.223 1.355-.299 3.331.653 4.94.389.654.367 2.033.156 3.534.01-.005.024-.01.034-.019 1.055-.539 1.878-1.332 2.521-2.211Zm-84.71-10.646a81.879 81.879 0 0 1-4.234-1.983c.329.71.87 1.428 1.432 2.171.401.529 1.075 1.419 1.123 1.687-.029.266-.47.941-.87 1.515.73.313 1.513.581 2.331.816.557-.835.962-1.595.962-2.312 0-.619-.3-1.235-.741-1.894h-.005.002Z"/>
    <path fill="#D3C1DB" d="M72.084 344.074s3.51 2.049 7.068 2.581c0 0-1.303 4.919.261 7.777l-9.332-1.346s.075-3.773 0-4.335c-.074-.562 1.819-3.004 1.972-3.526.12-.407.031-1.151.031-1.151Z"/>
    <path fill="#B59BC5" d="M73.925 345.709c-.799 1.125-1.552 2.183-1.65 3.143-.092.929-.233 3.477.184 5.763a29.506 29.506 0 0 0 2.889 1.56c-1.14-2.487-.773-5.975-.662-7.111l-.005-.005c.038-.369.794-1.428 1.242-2.063.236-.332.461-.649.667-.957a21.46 21.46 0 0 1-2.322-.814c-.122.174-.24.341-.343.484Z"/>
    <path fill="#69548A" d="m72.294 353.475 2.394.369.657 2.341s-.628-.306-.837-.41c-.295-.148-.87-.456-1.156-.614-.233-.129-.914-.527-.914-.527l-.14-1.155-.004-.004Z"/>
    <path fill="#8670A8" d="m120.404 343.027 3.251-9.318-2.157-3.187-2.315-10.228s-1.761-1.993-3.387-1.84c-1.627.153-5.825-.673-5.825-.673 0 1.341 5.825 1.833 5.825 1.833S117.271 331.48 118 332c.73.52 1 3 1 3s.804 7.321-.465 8.552l2.845 1.632-.978-2.155.002-.002Z"/>
  </g>
  <defs>
    <clipPath id="a">
      <path fill="#fff" d="M70 270h103v89H70z"/>
    </clipPath>
  </defs>
</svg>
