<svg xmlns="http://www.w3.org/2000/svg" width="250" height="414" fill="none" viewBox="0 0 250 414">
  <mask id="a" width="100" height="66" x="68" y="275" maskUnits="userSpaceOnUse" style="mask-type:luminance">
    <path fill="#fff" d="M167.932 275.743H68.33v64.374h99.602v-64.374Z"/>
  </mask>
  <g mask="url(#a)">
    <path fill="#575757" d="M123.858 318.781c-1.663.313-3.36.433-5.044.354l-2.639-.131-.848.062a17.766 17.766 0 0 1-6.164-.704l-3.29-.976 9.581 6.78.721-5.142 1.062 5.393 10.825-6.43-4.204.794Z"/>
    <path fill="#DD565B" d="M167.931 331.456c-5.723 3.26-16.577 8.34-30.786 8.459a61.627 61.627 0 0 1-17.372-2.375c-.168-.844-.325-1.7-.494-2.544-.098-.523-.206-1.058-.304-1.58-.927-4.809-1.861-9.6-2.796-14.396l1.062 5.393 10.825-6.43-4.204.794c-1.663.313-3.36.432-5.044.354l-2.639-.131-.848.061a17.719 17.719 0 0 1-6.164-.704l-3.29-.975 9.581 6.78c-.296 2.161-.601 4.314-.897 6.479-.148 1.074-.305 2.153-.453 3.227-.157 1.108-.305 2.215-.461 3.322a60.609 60.609 0 0 1-22.799 2.775 60.954 60.954 0 0 1-22.514-6.076c.177-1.128.366-2.264.543-3.388.17-1.017.334-2.042.495-3.059 2.454-15.218 4.903-30.462 7.358-45.693.156-.996.316-1.992.481-2.988.157-1.005.326-2.013.482-3.018a241.654 241.654 0 0 0 44.386 3.096 242.41 242.41 0 0 0 33.455-3.079c.226 1.004.453 2.021.671 3.026.099.444.197.864.296 1.296l.029.14c3.446 15.441 6.884 30.915 10.323 46.356v.021c.119.502.226 1.016.345 1.519.247 1.107.49 2.222.737 3.33l-.004.008Z"/>
    <path fill="#B13B32" d="m116.175 319.012-.721 5.15-9.581-6.78 3.29.975c2.001.593 4.089.836 6.164.704l.848-.049Z"/>
    <path fill="#B13B32" d="m128.061 317.987-10.825 6.43-1.062-5.393v-.02l2.639.131a21.569 21.569 0 0 0 5.044-.354l4.204-.794Z"/>
    <path fill="#F0D8CE" d="m161.953 329.715-2.866.724-.276-1.148-10.882-45.051-.708-2.948a72.337 72.337 0 0 0 2.915-.514h.008l.7 2.935h.008l10.718 44.376.395 1.617h-.008l-.004.009Zm-5.655.979-2.865.725-.041-.152-11.151-46.159-.708-2.947c.976-.132 1.96-.272 2.944-.432l.708 2.947 11.023 45.632.09.382v.004ZM83.19 279.959l-.494 2.976-7.72 46.669-.354 2.173-2.907-.502.444-2.688 7.634-46.208.494-2.976a84.21 84.21 0 0 0 2.907.552l-.004.004Zm5.576.938-.334 2.042-.156.934-7.564 45.735-.346 2.173-2.907-.502.445-2.688 7.465-45.191.168-1.017.326-1.959c.963.173 1.94.333 2.907.473h-.004Z"/>
    <path fill="#1C5078" d="M167.189 328.126c-.119.061.12-.062 0 0-9.355 4.931-19.315 7.714-29.617 8.278-1.272.07-2.54.099-3.821.099-4.846 0-9.7-.502-14.477-1.511-.098-.523-.206-1.058-.304-1.581l-.284-1.49c5.978 1.297 12.677 1.799 18.73 1.457a67.68 67.68 0 0 0 16.82-3.079 58.754 58.754 0 0 0 5.418-1.98 51.85 51.85 0 0 0 2.747-1.198c1.26-.572 2.894-1.268 4.138-1.93l.304 1.387v.021l.346 1.519v.008Zm-10.359-46.879c-1.713.445-3.426.865-5.143 1.268h-.008c-.968.222-1.939.432-2.907.642-.906.19-1.824.371-2.73.544-.984.181-1.968.37-2.944.535-8.844 1.519-17.709 2.293-26.553 2.293-6.098 0-12.184-.363-18.233-1.087a163.587 163.587 0 0 1-10.034-1.552 97.941 97.941 0 0 1-2.907-.585 87.47 87.47 0 0 1-2.668-.572 76.27 76.27 0 0 1-2.907-.683c-1.025-.251-2.05-.515-3.071-.786.156-1.227.317-2.454.481-3.685 1.026.28 2.05.544 3.084.795.964.251 1.931.473 2.907.683.885.202 1.775.391 2.668.572.964.21 1.94.412 2.907.585 3.27.626 6.551 1.128 9.82 1.519 14.506 1.749 29.181 1.358 43.798-1.136a78.7 78.7 0 0 0 2.944-.535 64.244 64.244 0 0 0 2.73-.544 48.974 48.974 0 0 0 2.915-.634h.008c1.742-.383 3.475-.815 5.221-1.268.008-.008.021-.008.029-.008l.268 1.61.028.173.305 1.852h-.008v.004Zm-42.27 49.398c-.148 1.074-.304 2.153-.453 3.227-5.859 1.491-11.78 2.244-17.688 2.244-3.623 0-7.251-.28-10.854-.844a70.7 70.7 0 0 1-16.692-4.767c.169-1.017.334-2.042.494-3.058.927.411 1.861.794 2.796 1.148.935.362 1.87.704 2.816 1.017a67.834 67.834 0 0 0 11.03 2.688c9.504 1.478 19.106.914 28.551-1.651v-.004Z"/>
    <path fill="#2B2C2B" d="M110.471 286.389c.976 0 1.763-.807 1.763-1.803 0-.996-.791-1.799-1.763-1.799-.971 0-1.762.807-1.762 1.799 0 .992.791 1.803 1.762 1.803Zm8.037 0c.976 0 1.763-.807 1.763-1.803 0-.996-.791-1.799-1.763-1.799-.971 0-1.762.807-1.762 1.799 0 .992.791 1.803 1.762 1.803Z"/>
    <path stroke="#F0D8CE" stroke-linecap="round" stroke-linejoin="round" stroke-width="2" d="M110.473 284.8c.078 3.54.168 7.093.247 10.633m7.86-10.765c.169 6.269.334 12.543.502 18.812"/>
  </g>
</svg>
