<svg xmlns="http://www.w3.org/2000/svg" width="250" height="414" fill="none" viewBox="0 0 250 414">
  <path fill="#B13A32" d="M163.8 354.02c-1.24.68-2.46 1.3-3.68 1.86-.92.42-1.84.81-2.75 1.15-.21.09-.43.17-.64.25-.94.34-1.87.65-2.81.93-9.54 2.81-19.29 2.08-32.1-1.02-10.27-48.75-3.02-68.4-9.84-.33-6.58 3.55-22.46 4.01-33.51.02-1.8-.66-3.47-1.42-4.95-2.32-.54-.32-1.05-.66-1.54-1.02-.02-.01-.04-.03-.06-.04 0-.01-.01-.01-.01-.01 0-.04.01-.08.01-.12v-.04c.28-4.12.56-8.23.85-12.34l.09-1.19c.06-.94.12-1.88.19-2.82.05-.59.09-1.17.13-1.75.01-.17.02-.35.04-.52.01-.11.01-.23.02-.34.01-.04.01-.08.01-.13 0-.04 0-.09.01-.13 0-.12.02-.23.03-.35.01-.03.01-.05.01-.07-.01-.01-.01-.02-.01-.03.01-.09.02-.18.02-.27.32-4.28.64-8.57.97-12.86l.03-.45v-.02c.01-.15.02-.3.04-.45l.03-.43c.01-.18.03-.36.04-.54.01-.01.01-.02 0-.03l.06-.72v-.02c.71-9.08 1.92-20.85 3.02-31.7.1-.92.19-1.83.28-2.74.21-2.03.4-4.01.59-5.93.23-2.38.45-4.66.64-6.78 26.86 5.88 51.23 8.55 75.68-4.09l2.95 25.21s-.5 6.6 1.48 10c1.97 3.41 1.63 20.97 1.61 22.51-.01 1.54 3.07 29.67 3.07 29.67Z"/>
  <path fill="#E55D5A" d="M82.92 278.88c-.11 2.74-.29 5.48-.51 8.22-.09 1.13-.18 2.27-.28 3.4-.71 7.95-1.68 15.88-2.39 23.83-1.18 13.16-2.7 26.65-1.46 39.85.05.9.12 1.8.19 2.7-1.8-.66-3.47-1.42-4.95-2.32-.54-.32-1.05-.66-1.54-1.02.48-4.04.92-11.61 1.24-18.38 0-.08.01-.17.01-.25.01-.03.01-.07.01-.1.01-.04.01-.08.01-.13 0-.04 0-.09.01-.13 0-.27.02-.53.03-.79.01-.03.01-.05.01-.07 0-.1.01-.2.01-.3.18-3.8.32-7.2.41-9.36.05-1.19.23-2.36.56-3.5 0-.03.01-.06.02-.09 0-.01.01-.02.01-.03v-.02c.09-.3.18-.58.29-.89.13-.35.01-.8-.12-1.3v-.02l.09-1.15c.04-.57.09-1.15.14-1.74.05-.55.09-1.11.14-1.68.04-.48.09-.96.13-1.45.06-.72.13-1.45.2-2.19.22-2.48.46-5.06.72-7.69.13-1.31.26-2.64.39-3.97l.09-.92c.12-1.17.23-2.35.35-3.53.26-2.59.52-5.16.77-7.69.1-.92.19-1.83.28-2.74.21-2.03.4-4.01.59-5.93.21.07.43.13.64.2 1.3.42 2.6.82 3.91 1.18Z"/>
  <path fill="#FCCC00" d="M71.98 353.54c.49.36 1 .7 1.54 1.02l1.97-30.43.69-4.07c.07-.37.1-.75.1-1.13v-2.7l1.36-19.18.24-3.39.18-2.51.24-3.45.71-10c-.21-.07-.43-.13-.64-.2-.19 1.92-.38 3.9-.59 5.93-.09.91-.18 1.82-.28 2.74-.25 2.53-.51 5.1-.77 7.69-.12 1.18-.23 2.36-.35 3.53l-.09.92c-.13 1.33-.26 2.66-.39 3.97-.26 2.63-.5 5.21-.72 7.69-.07.74-.14 1.47-.2 2.19-.04.49-.09.97-.13 1.45-.05.57-.09 1.13-.14 1.68-.05.59-.1 1.17-.14 1.74l-.09 1.15v.02l-.06.73s.01.02 0 .03c.03.2.02.38-.04.54-.01.04-.03.07-.03.11-.1.28-.19.56-.27.83-.34 1.17-.53 2.37-.58 3.59-.09 2.21-.05 5.72-.21 9.63 0 .01 0 .02.01.03 0 .02 0 .04-.01.07l-.03.79c-.01.04-.01.09-.01.13 0 .05 0 .09-.01.13 0 .03 0 .07-.01.1-.02.26-.03.51-.05.77-.04.58-.08 1.17-.13 1.76-.06.78-.12 1.57-.19 2.36l-.09 1.19c-.38 4.72-.79 9.35-.85 12.34v.17l.06.04Z"/>
  <path fill="#771C19" d="M115.49 311.34s-14.04-6.83-18.47-12.08c-.13-.15-.36 0-.29.17 2.75 6.61 9.34 9.81 9.34 9.81s-4.69-.31-8.49-1.25c-.21-.05-.33.24-.14.35 6.45 3.6 18.04 3 18.04 3h.01Z"/>
  <path fill="#771C19" d="M115.14 311.56c-.25.36 3.34-7.84 13.41-5.97.27.05.29.44.02.51-6.76 1.93-13.43 5.46-13.43 5.46Z"/>
  <path fill="#1E1E1E" d="M157.37 357.03c-.21.09-.43.17-.64.25-.94.34-1.87.65-2.81.93-.38-5.5-2.33-33.13-2.31-35.27.02-2.36.31-14.7-1.28-18.47-1.27-2.97-2.26-17.86-2.34-26.64.97-.35 1.92-.72 2.85-1.14.07-.02.14-.04.21-.08.09 4.33.24 11.18.45 15.69.1 2.28.22 3.96.35 4.45.02.08.04.17.06.26.53 2.12 1.35 6.48 2.03 7.46.72 1.03 1.29 18.32.91 19.77-.35 1.34 2.07 27.87 2.52 32.79Z"/>
  <path fill="#771C19" d="M115.49 311.34s-7-1.19-9.75-3.78c-2.03-1.9-1.46-17.92-1.03-25.69 3.28.29 6.54.44 9.74.46l1.04 29.01Z"/>
  <path fill="#FCCC00" d="M160.12 355.88c-.92.42-1.84.81-2.75 1.15-.21.09-.43.17-.64.25-.5-7.13-2.27-32.31-2.26-34.34.03-2.36.32-14.7-1.27-18.47-.48-1.11-.92-3.93-1.29-7.46-.15-1.46-.29-3.06-.41-4.71-.41-5.4-.66-11.43-.66-15.61.07-.02.14-.04.21-.08.97-.41 1.92-.84 2.85-1.29.11 6.03.4 19.87.81 21.43.53 2.01 1.38 6.7 2.1 7.72.72 1.03 1.28 18.32.91 19.77-.33 1.24 1.77 24.67 2.4 31.64Zm-51.049-66.87a2.47 2.47 0 1 0 0-4.94 2.47 2.47 0 0 0 0 4.94Z"/>
  <path fill="#771C19" d="M91.8 293.79v1.15c0 .6-.49 1.09-1.1 1.09-2.62 0-9.33.08-13.06.87-.48.1-.9.21-1.26.34.12-1.16.23-2.34.35-3.51.3-.06.69-.13 1.15-.2 2.84-.47 8.48-1.23 12.92-.83.57.05 1 .53 1 1.09Zm34-.16v.51c0 .71.59 1.27 1.3 1.23 3.37-.19 12.47-.65 17.58-.41.7.03 1.29-.53 1.29-1.23v-.42c0-.64-.5-1.18-1.15-1.23-2.99-.22-11.29-.69-17.97.33-.61.09-1.06.61-1.06 1.22h.01Zm4.36-14.37h.16c.59 0 1.07.7 1.07 1.56v7.32c0 .86-.48 1.56-1.07 1.56-.62 0-1.11-.76-1.07-1.67.09-1.83.16-4.79-.15-6.92-.14-.96.38-1.86 1.05-1.86l.01.01Zm-38.6-2.05h-.16c-.59-.01-1.07.8-1.06 1.81l.04 8.56c0 1.01.49 1.84 1.08 1.85.62 0 1.11-.88 1.06-1.93-.1-2.14-.18-5.61.11-8.09.13-1.13-.39-2.18-1.06-2.19l-.01-.01Zm23.39 33.44c-.71.4-3.06-.05-3.86.17-1.73 18.18-5.89 40.09-18.73 48.75 9.16.67 20.92-1.75 20.92-1.75.44-1.29 3.74-47.56 1.68-46.67 0-.17 0-.33-.01-.5Z"/>
  <path fill="#771C19" d="m155.6 274.37-.9-7.74c-24.45 12.64-48.83 9.97-75.68 4.09 0 .85-.64 6.79-.64 6.79s44.56 15.09 77.23-3.13l-.01-.01Z"/>
</svg>
