<svg xmlns="http://www.w3.org/2000/svg" width="250" height="414" fill="none" viewBox="0 0 250 414">
  <g clip-path="url(#a)">
    <path fill="#1E1E1E" d="M78.31 271s33.797 11.58 78.461 1.598l.038.038c.38.382.608.887.646 1.424l.56 8.285a2.598 2.598 0 0 1-.489 1.702l4.479 68.035s-11.666 9.586-39.026 1.999l-8.45-42.738-3.619 42.338s-30.181 4.389-37.829-4.796l4.503-67.059-.11-.174a3.431 3.431 0 0 1-.503-2.019l.4-6.473c.042-.67.284-1.307.693-1.839l.247-.316V271Z"/>
    <path fill="#A781B5" d="m148.487 356.656-10.042-69.85 4.166-.439 9.642 69.752-3.766.537Z"/>
    <path fill="#1EAFB2" d="m142.61 286.366 4.869-.641 9.096 69.341-4.322 1.051-9.643-69.751Z"/>
    <path fill="#0779B9" d="m147.479 285.726 5.316-.83 7.495 68.757-3.714 1.415-9.097-69.342Z"/>
    <path fill="#EBA741" d="m152.795 284.896 7.495 68.756 1.71-.943-4.474-68.662-4.731.849Z"/>
    <path fill="#010101" d="M114.524 311.339s-5.23-5.46-6.574-5.993c0 0 3.487 21.034 0 32.751-3.486 11.717-23.602 15.551-23.602 15.551s8.854 3.885 26.557.023l3.619-42.337v.005Zm-36.94-29.513s36.94 9.944 79.937 2.221l.769 11.807s-66.58-.184-80.858-11.807l.147-2.221h.005Z"/>
    <path fill="#EBA741" d="M152.928 284.872c1.562-.245 3.097-.519 4.598-.825l-4.598.825Z"/>
    <path fill="#010101" d="m158.295 295.854-.77-11.807.77 11.807Z"/>
    <path fill="#8670A8" d="m142.563 286.027-4.194.25 1.302 9.058c1.458.066 2.864.123 4.203.175l-1.311-9.483Z"/>
    <path fill="#0E94AD" d="m142.563 286.026 1.311 9.483c1.763.066 3.406.117 4.912.165l-1.325-10.086-4.898.438Z"/>
    <path fill="#185889" d="m147.46 285.59 1.325 10.085c2.009.057 3.762.095 5.197.123l-1.188-10.902-5.329.694h-.005Z"/>
    <path fill="#E2723C" d="M153.982 295.797c2.727.052 4.313.057 4.313.057l-.769-11.807a89.025 89.025 0 0 1-4.598.825l-.133.024 1.187 10.901Z"/>
    <path fill="#A781B5" d="m81.702 282.783-4.265 69.191-2.712-1.556 4.674-68.148 2.303.513Z"/>
    <path fill="#1EAFB2" d="m79.398 282.269-4.673 68.149-1.644-1.533 4.503-67.059 1.814.443Z"/>
    <path fill="#010101" d="m77.436 284.047.148-2.221-.148 2.221Z"/>
    <path fill="#A781B5" d="M79.407 282.27c.618.146 1.387.315 2.294.509l-2.294-.509Z"/>
    <path fill="#8670A8" d="M79.194 285.259c.694.42 1.454.82 2.28 1.202l.228-3.682c-.912-.194-1.676-.368-2.294-.509h-.005l-.204 2.989h-.005Z"/>
    <path fill="#1EAFB2" d="M77.584 281.826s.627.17 1.81.443l-1.81-.443Z"/>
    <path fill="#0E94AD" d="M79.398 282.269a88.094 88.094 0 0 1-1.81-.443l-.147 2.221c.518.42 1.112.825 1.758 1.217l.204-2.99-.005-.005Z"/>
    <path fill="#1EAFB2" d="M77.356 284.047 73 348.885l4.356-64.838Z"/>
    <path fill="#575858" d="M79.313 282.269h.004l2.295.509c-.703-.796-.437-1.994-.437-1.994s-.2-6.125 0-7.323c.2-1.197.988-1.32.988-1.32-.988-.255-3.943-1.141-3.943-1.141-.803.566-.902 1.839-.902 1.839s-.404 6.257-.433 7.318c-.023 1.061.608 1.674.608 1.674l.77.188 1.04.255.01-.005Z"/>
    <path fill="#A999C5" d="M81.393 286.466a25.517 25.517 0 0 1-2.28-1.202l-4.47 65.154 2.713 1.556 4.037-65.508Z"/>
    <path fill="#5CBBBE" d="M79.113 285.259a15.732 15.732 0 0 1-1.757-1.216L73 348.886l1.644 1.537 4.47-65.164Z"/>
  </g>
  <defs>
    <clipPath id="a">
      <path fill="#fff" d="M73 271h89v86H73z"/>
    </clipPath>
  </defs>
</svg>
