<svg xmlns="http://www.w3.org/2000/svg" width="250" height="414" fill="none" viewBox="0 0 250 414">
  <path fill="#79798C" d="m154.442 264.304 5.315 55.939s5.868 29.503 6.312 30.301a2.386 2.386 0 0 1-.654 3.063c-3.537 2.672-6.996 8.805-20.546 10.221-17.644 1.84-26.327-5.001-26.327-5.001s-6.23 10.262-44.761 1.84c0 0-5.403-3.38-5.662-6.541l5.028-33.554c2.367-11.843 6.316-56.272 6.316-56.272s14.534 5.672 36.003 6.137c21.468.465 38.98-6.137 38.98-6.137l-.004.004Z"/>
  <path fill="#555573" d="M112.309 317.592s5.966 4.915 9.478 4.038c0 0-5.966 4.734-9.478-4.038Z"/>
  <path fill="#555573" d="m118.595 322.906-.057 35.925s-3.817 6.714-22.51 5.067c0 0 19.014-16.626 18.433-42.696l4.13 1.704h.004Z"/>
  <path fill="#68677C" d="M121.788 321.626s5.966 39.045 23.082 42.202c0 0-12.9 3.421-26.327-5.001l.058-35.925 3.191-1.276h-.004Z"/>
  <path fill="#555573" d="M162.326 356.406c-.07-.23-7.226-23.522-8.337-34.603-.882-8.764-6.65-54.935-6.708-55.4l1.227-.152c.058.465 5.831 46.648 6.712 55.428 1.099 10.963 8 33.591 8.07 33.821l-.964.91v-.004Z"/>
  <path fill="#555573" d="m154.334 264.304 1.322 15.062s-18.323 2.264-32.754 0c-33.908-5.323-43.546-15.062-43.546-15.062s14.534 5.672 36.003 6.137c21.312.466 38.98-6.137 38.98-6.137h-.005Z"/>
  <path fill="#F2E1D6" d="m152.661 315.686-6.798-5.504c-1.631-1.321-4.068-.198-4.126 1.898l-.235 8.743a2.522 2.522 0 0 1-1.153 2.054l-7.337 4.763c-1.758 1.144-1.445 3.808.531 4.508l8.243 2.922c.787.28 1.384.926 1.598 1.729l2.265 8.447c.543 2.026 3.174 2.552 4.455.885l5.328-6.936a2.52 2.52 0 0 1 2.141-.984l6.048.317a3843.21 3843.21 0 0 1-3.714-18.388l-.506-5.315-4.439 1.314a2.53 2.53 0 0 1-2.31-.462l.009.009Zm3.202-36.423s-8.803 1.083-18.994 1l2.042 7.616c.544 2.025 3.175 2.552 4.455.885l5.328-6.936a2.521 2.521 0 0 1 2.142-.984l5.159-.19-.132-1.391Z"/>
  <path fill="#D1B5A6" d="M126.243 270.277c-1.759 1.144-1.446 3.808.531 4.507l8.243 2.923c.786.28 1.383.926 1.597 1.729l.268.922c10.191.082 18.977-1.099 18.977-1.099l-1.371-15.017c-1.185.432-12.636 4.475-27.805 5.742l-.44.289v.004Z"/>
  <path fill="#F2E1D6" d="m77.668 316.324 2.265 8.447c.543 2.025 3.174 2.552 4.455.885l5.328-6.936a2.519 2.519 0 0 1 2.14-.984l8.738.457c2.096.111 3.409-2.231 2.219-3.96l-4.949-7.212a2.519 2.519 0 0 1-.276-2.339l3.134-8.167c.753-1.959-1.07-3.931-3.08-3.334l-8.387 2.478a2.526 2.526 0 0 1-2.31-.461l-6.798-5.504c-.922-.745-2.1-.712-2.96-.16-.894 8.673-1.911 17.845-2.834 24.443l1.726.614c.786.28 1.383.926 1.597 1.729l-.008.004Z"/>
</svg>
