<svg xmlns="http://www.w3.org/2000/svg" width="250" height="414" fill="none" viewBox="0 0 250 414">
  <path fill="#1E1E1E" d="M78.002 279.442s23.637 14.402 77.741 0l7.982 79.478s-2.178 1.125-6.716 2.761c0 0-9.281-32.573-9.355-31.593 0 0-6.18 35.104-8.16 35.285-7.161.655-14.924.301-18.633-2.266L115.8 335.96l-3.906 26.673s-24.458 5.567-38.599-2.975l-.742-19.301 5.449-60.915Z"/>
  <path fill="#575858" d="M81.024 280.876c-2.033-.832-3.56.569-3.56.569l-4.26 51.684.84 26.813c1.779 1.45 2.133 1.195 4.324 2.089 0 0 3.671-80.739 2.656-81.151v-.004Z"/>
  <path fill="#010101" d="M114.9 334.118s-3.659 14.183-5.874 18.881c-1.292 2.732-6.778 11.047-6.778 11.047s3.246-.325 4.171-.474c.924-.148 5.478-.935 5.478-.935l3.906-26.673-.252-1.743c-.049-.338-.503-.404-.651-.099v-.004Z"/>
  <path fill="#B3B3B3" d="m152.682 362.958-8.176-27.62-.813-25.156h6.407l1.056 24.146 7.916 26.743-6.39 1.887Z"/>
  <path fill="#565656" d="M148.89 334.489c.453.239.854.556 1.229.907l-.132-6.157-3.416 1.278-.14-3.729 3.589.445-.091-6.264-3.749.874-.095-2.955 3.704-.115-.33-5.089-3.292.392-.351-3.894H144.6l.482 5.348 3.263-.387.153 2.349-3.655.115.186 5.851 3.725-.869.045 3.152-3.626-.449.264 7.034 3.387-1.265.074 3.432-.008-.004Z"/>
  <path fill="#565656" d="m156.501 355.488-2.739 2.237-1.019-3.733 3.655-.091-2.277-7.301-3.019 2.748-1.292-4.557 3.87-.095-2.335-7.343-3.403 1.776-1.155-3.597 3.692-.091-.38-1.347c-.462-.285-.746.156-1.254 0l.017.057-3.762.095 2.153 6.721 3.403-1.776 1.341 4.219-3.812.095 2.302 8.134 3.061-2.79 1.175 3.767-3.588.09 1.967 7.22 2.797-2.283 1.188 3.795 1.151-.375-1.741-5.563.004-.012Z"/>
  <path fill="#565656" d="M149.08 332.824a3.012 3.012 0 0 0-2.92 1.039h-.013s-.371.544-.482.824c0 0-6.39 10.433-6.576 11.344a4.12 4.12 0 0 0 3.218 4.858 4.123 4.123 0 0 0 4.863-3.214l3.961-10.475c.136-.251.247-.519.305-.811a3.021 3.021 0 0 0-2.36-3.565h.004Zm-7.066 16.12c-2.966-1.52-.821-4.318-.821-4.318l4.74 2.097s-.953 3.742-3.919 2.225v-.004Z"/>
  <path fill="#B3B3B3" d="M148.776 331.864a3.008 3.008 0 0 0-2.921 1.039h-.012s-.372.544-.483.824c0 0-6.39 10.433-6.575 11.344a4.124 4.124 0 0 0 8.081 1.644l3.96-10.475c.136-.251.247-.519.305-.811a3.022 3.022 0 0 0-2.359-3.565h.004Z"/>
  <path fill="#EAEAEA" d="M139.507 348.334c.309-.626.487-1.302.714-1.969-.372-1.34.664-2.699.664-2.699s2.495-4.949 3.617-6.997c.805-1.459 2.075-3.746 3.754-4.858a3.026 3.026 0 0 0-2.405 1.092h-.012s-.371.543-.483.824c0 0-6.389 10.433-6.575 11.344a4.102 4.102 0 0 0 .722 3.259l.004.004Z"/>
  <path fill="#010101" d="m163.729 358.92-5.701-56.745-1.179-12.703a.778.778 0 0 0-.095.041l-1.011-10.071-5.771 1.455 1.151 10.771c-33.574 11.352-74.557-.532-74.557-.532 20.188 14.241 54.059 19.12 69.586 19.042 3.486-.017 3.948 0 3.948 0l1.035 25.247 7.487 25.77 1.023-.285c.339-.094.669-.222.982-.387l3.102-1.607v.004Z"/>
  <path fill="#fff" d="M78.002 279.442s17.461 5.621 37.802 5.67c20.341.049 34.783-4.195 39.939-6.082 0 0 .491.062.565.569.074.507 1.011 9.292 1.011 9.292s-.008.387-.47.581c-.462.193-27.366 14.541-80.283 1.668 0 0-.334.231-.478-.774-.144-1.006 1.097-10.392 1.097-10.392s.116-.478.817-.528v-.004Z"/>
  <path fill="#BABABA" d="M74.742 306.226h1.824l-2.785 26.953 3.68 28.506s-1.469-.503-1.939-.725c-.582-.276-2.228-1.298-2.228-1.298l-1.06-26.891 2.504-26.541.004-.004Z"/>
  <path fill="#565656" d="M74.392 309.514h.92l-.532 6.136-1.01-.342.622-5.794Zm-1.06 11.806h.924l-.532 6.135-1.011-.342.619-5.793Zm-.994 13.861.912-.156.466 5.567-1.18.045-.198-5.456Zm1.996 13.598.912-.156.099 1.158.38 4.405-1.18.049-.211-5.456Z"/>
  <path fill="#565656" d="m72.828 348.75 2.434.087.004-1.166h-2.438v1.079Zm.264 5.67 2.632-.115-.083-1.096-2.59.165.041 1.046Z"/>
</svg>
