<svg xmlns="http://www.w3.org/2000/svg" width="230" height="380" fill="none" viewBox="0 0 230 380">
  <path fill="#734929" d="M85.918 314.706c-6.422 0-12.25-2.243-17.26-5.965-.03 3.629-.057 7.254-.091 10.875a34.08 34.08 0 0 0-.579.353c-3.662 2.321-6.11 5.837-6.795 9.621-.019.101-.034.209-.053.307a3.153 3.153 0 0 1-.035.244c.373 3.699 1.85 5.837 2.696 6.834 3.974 4.731 12.022 5.783 19.867 2.205 4.52-1.56 9.392-3.835 14.211-7.172a49.9 49.9 0 0 0 1.957-1.413c.008-.415.02-.827.02-1.242.11-6.19.22-12.369.327-18.559-4.367 2.488-9.392 3.912-14.26 3.912h-.005Z"/>
  <path fill="#80552E" d="M90.504 326.498c-3.548-3.299-9.01-4.84-9.01-4.84l-.245-7.362c-4.61-.804-8.85-2.771-12.627-5.581-.015 3.636-.015 7.269-.045 10.902-.195.116-.392.236-.579.353-3.674 2.321-6.118 5.837-6.795 9.621-.02.101-.035.209-.053.306a3.065 3.065 0 0 1-.035.245c.373 3.698 1.85 5.837 2.695 6.834 3.975 4.731 12.475 6.889 20.317 3.307 2.018-.699 4.283-2.298 6.506-3.738a5.182 5.182 0 0 0 2.262-5.332c-.34-1.719-1.024-3.45-2.391-4.719v.004Z"/>
  <path fill="#613D25" d="M102.553 328.81s.008-.008.011-.008c.027-1.316.206-10.615.233-11.888l.156-7.905a29.339 29.339 0 0 1-3.38 2.13c.353 6.253-.126 13.98-4.649 20.841-2.341 3.555-3.94 4.588-8.85 6.94-8.014 3.772-17.58 2.798-21.894-1.925-2.17-2.375-2.855-5.251-3.068-6.711a12.474 12.474 0 0 0-.1 2.232s.214 4.009 3.157 7.634c1.762 2.166 5.242 3.59 9.566 3.764 3.175.129 28.159.02 29.286.02l-.407-13.343c.019-1.025-.088-.761-.069-1.785l.008.004Z"/>
  <path fill="#734929" d="m145.508 325.565.008-.019c-.286-5.426-.628-12.062-.952-18.237-5.139 3.31-11.291 5.235-17.23 5.235-6.692 0-12.794-2.22-18.105-5.934.183 3.777.369 7.623.556 10.619-.213.151-.415.291-.617.442-3.898 2.895-6.357 7.009-6.818 11.294-.008.12-.027.237-.038.357-.008.085-.008.178-.019.272.7 4.098 2.524 6.368 3.548 7.412 4.812 4.96 14.671 5.767 23.142 1.137 4.922-2.115 17.324-10.362 17.991-10.944-.019-.47-1.447-1.176-1.466-1.634Z"/>
  <path fill="#80552E" d="M135.527 324.144v-.008c-3.27-2.262-7.108-5.2-11.021-5.22a.67.67 0 0 1-.598-.33.671.671 0 0 1-.331-.609v-4.49c0-.672-.476-1.246-1.127-1.355-4.054-.671-7.849-2.161-11.337-4.288-.947-.579-2.135.205-2.025 1.327.259 2.616.499 5.15.651 7.281.034.477-.183.927-.559 1.211 0 0-.004 0-.008.004-3.898 2.895-6.357 7.009-6.818 11.293-.008.121-.027.237-.038.357-.008.086-.008.179-.019.272.7 4.098 2.524 6.369 3.548 7.413 4.804 4.952 18.729 9.861 23.1 1.16.483-.962.057-.023.083-.039 10.637-7.257 8.977-12.26 6.502-13.971l-.003-.008Z"/>
  <path fill="#A07752" d="M112.375 318.895c3.476.686 4.047 7.796 4.093 8.643.201 2.949-.111 9.838-3.872 10.909-2.68.761-5.916-1.758-7.4-4.098-2.619-4.134-.727-9.245 1.538-12.047.643-.799 3.159-3.889 5.641-3.411v.004Z"/>
  <path fill="#010101" d="M128.89 314.182c-8.425 0-13.724-2.227-15.658-3.702a1.427 1.427 0 0 1-.278-1.972 1.378 1.378 0 0 1 1.934-.283c1.42 1.091 7.336 3.749 17.5 3.008.758-.058 1.42.528 1.473 1.308a1.39 1.39 0 0 1-1.282 1.502 51.834 51.834 0 0 1-3.704.139h.015Z"/>
  <path fill="#A07752" d="M69.643 320.978c2.802.61 3.228 7.091 3.274 7.851.152 2.682-.133 8.958-3.183 9.963-2.17.706-4.785-1.568-5.965-3.699-2.097-3.753-.552-8.421 1.298-10.979.526-.733 2.57-3.563 4.58-3.136h-.004Z"/>
  <path fill="#010101" d="M86.91 316.876c-8.127 0-13.24-2.15-15.108-3.571a1.379 1.379 0 0 1-.267-1.905 1.322 1.322 0 0 1 1.87-.272c1.37 1.052 7.076 3.617 16.886 2.903.731-.054 1.37.508 1.424 1.261a1.347 1.347 0 0 1-1.237 1.452 50.405 50.405 0 0 1-3.575.136h.008v-.004Zm42.358 11.806c-.331 0-.674-.121-.933-.365-5.337-4.991-13.86-7.149-17.039-7.149a1.393 1.393 0 0 1-1.382-1.409c0-.78.617-1.408 1.382-1.408 3.651 0 12.939 2.313 18.901 7.882.563.528.597 1.42.084 1.991a1.396 1.396 0 0 1-1.024.462h.007l.004-.004Zm-.377-9.264c-8.424 0-13.724-2.228-15.657-3.703a1.425 1.425 0 0 1-.278-1.971 1.378 1.378 0 0 1 1.934-.284c1.42 1.091 7.335 3.75 17.5 3.008.757-.058 1.419.528 1.473 1.308a1.392 1.392 0 0 1-1.283 1.502c-1.291.093-2.535.14-3.704.14h.015Zm-42.365 11.814c-.32 0-.651-.117-.898-.354-5.151-4.812-13.374-6.9-16.442-6.9a1.344 1.344 0 0 1-1.333-1.358c0-.749.598-1.359 1.333-1.359 3.521 0 12.486 2.232 18.238 7.607.541.508.579 1.37.08 1.921a1.336 1.336 0 0 1-.986.443h.008Zm-.365-8.938c-8.128 0-13.24-2.15-15.11-3.571a1.379 1.379 0 0 1-.266-1.905 1.322 1.322 0 0 1 1.869-.272c1.37 1.052 7.077 3.617 16.887 2.903.73-.054 1.37.508 1.424 1.261a1.347 1.347 0 0 1-1.237 1.452 50.408 50.408 0 0 1-3.575.136h.007v-.004Z"/>
  <path fill="#010101" d="m80.355 314.485-1.386-.543c-4.073-1.596-5.417-4.949-4.934-7.572.4-2.193 2.037-3.672 4.081-3.672.979 0 1.797.408 2.383 1.188 1.797 2.375.64 7.587.24 9.14l-.38 1.467v-.008h-.004Zm-2.243-9.066c-1.111 0-1.397 1.106-1.458 1.44-.22 1.207.313 2.709 1.858 3.799.419-2.348.38-4.432-.133-5.115-.061-.089-.107-.128-.274-.128h.007v.004Zm45.984 7.487-1.538-.039c-4.515-.113-6.978-2.903-7.408-5.628-.358-2.282.727-4.304 2.729-5.037.948-.35 1.9-.245 2.737.31 2.562 1.673 3.225 7.18 3.365 8.833l.138 1.568-.02-.007h-.003Zm-5.143-8.081s-.092.008-.156.039c-1.078.396-.986 1.58-.922 1.925.194 1.25 1.226 2.538 3.114 3.043-.396-2.434-1.142-4.463-1.88-4.941a.268.268 0 0 0-.156-.058v-.008Z"/>
  <path fill="#010101" d="M82.324 314.927a9.273 9.273 0 0 1-2.383-.326l-1.439-.38.533-1.424c.56-1.487 2.589-6.42 5.406-7.289.917-.279 1.823-.128 2.615.454 1.663 1.207 2.15 3.38 1.226 5.402-.891 1.933-2.989 3.555-5.958 3.555v.008Zm-.14-2.728c1.868.035 3.174-.869 3.68-1.987.141-.307.54-1.386-.354-2.042-.133-.101-.186-.089-.293-.062-.81.245-2.029 1.933-3.034 4.079v.012Zm40.011 1.098.027-1.567c.038-1.654.324-7.188 2.783-9.039.803-.602 1.732-.773 2.71-.489 2.037.593 3.263 2.538 3.042 4.839-.259 2.744-2.524 5.705-7.024 6.117l-1.538.139Zm4.626-8.41c-.065 0-.111.027-.168.066-.693.528-1.309 2.62-1.557 5.053 1.854-.628 2.794-1.983 2.912-3.24.038-.357.057-1.541-1.05-1.859a.423.423 0 0 0-.137-.027v.007Z"/>
  <path fill="#613D25" d="M147.53 305.155a31.773 31.773 0 0 1-3.697 2.616c.076 1.925.084 3.951.016 6.05-.297 8.931-4.923 17.151-12.335 21.924-.81.524-1.53 1.009-2.089 1.452-8.665 4.866-17.98 4.707-23.169-.218-2.607-2.48-3.605-5.627-3.955-7.245-.046.826-.027 1.665.072 2.499 0 0 .552 4.455 4.131 8.259 1.865 1.983 5.135 3.233 9.147 3.419 3.979.186 25.224.023 32.393.023 0 0-.16-31.583-.225-32.918l-.289-5.869v.008Z"/>
  <path fill="#010101" d="M102.835 340.286H64.332a.742.742 0 0 0-.734.749v2.154c0 .414.329.749.734.749h38.503a.742.742 0 0 0 .734-.749v-2.154a.742.742 0 0 0-.734-.749Zm45.406 0h-41.685a.77.77 0 0 0-.761.776v2.1c0 .429.341.776.761.776h41.685a.768.768 0 0 0 .761-.776v-2.1a.769.769 0 0 0-.761-.776Z"/>
</svg>
