<svg xmlns="http://www.w3.org/2000/svg" width="250" height="414" fill="none" viewBox="0 0 250 414">
  <path fill="#232323" d="M71.911 371.979s-3.18-3.502-3.62-7.098c-.44-3.585 4.22-7.994 4.22-7.994s-1.81-3.71 1.01-6.795c-.04-6.045.25-15.425.36-18.907.03-.76.62-1.365 1.36-1.365 0 0 4.26.907 5.79 3.273 4.28-.824 30.73-.323 31.18 3.262.45 3.585-1.95 19.886-1.95 19.886l.4 8.286s3.04 4.398-.54 7.431"/>
  <path fill="#fff" d="M68.35 365.236c.59 3.46 3.56 6.743 3.56 6.743h38.2c2.72-2.303 1.62-5.388.94-6.743h-42.7Zm34.561-15.478c2.954 0 5.35-2.351 5.35-5.253 0-2.901-2.396-5.252-5.35-5.252-2.955 0-5.35 2.351-5.35 5.252 0 2.902 2.395 5.253 5.35 5.253Z"/>
  <path fill="#B5B5B5" fill-rule="evenodd" d="M104.511 360.942c-.575 0-1.04.485-1.04 1.084 0 .598.465 1.084 1.04 1.084.574 0 1.04-.486 1.04-1.084 0-.599-.466-1.084-1.04-1.084Zm-2.04 1.084c0-1.175.913-2.126 2.04-2.126 1.126 0 2.04.951 2.04 2.126 0 1.174-.914 2.126-2.04 2.126-1.127 0-2.04-.952-2.04-2.126Zm-7.051-.886c-.573 0-1.04.485-1.04 1.084 0 .598.467 1.084 1.04 1.084.575 0 1.04-.486 1.04-1.084 0-.599-.465-1.084-1.04-1.084Zm-2.04 1.084c0-1.175.914-2.126 2.04-2.126 1.127 0 2.04.951 2.04 2.126 0 1.174-.912 2.126-2.04 2.126-1.126 0-2.04-.952-2.04-2.126Zm-10.19-6.994c-.574 0-1.04.486-1.04 1.084 0 .599.466 1.084 1.04 1.084.575 0 1.04-.485 1.04-1.084 0-.598-.465-1.084-1.04-1.084Zm-2.04 1.084c0-1.174.914-2.126 2.04-2.126 1.127 0 2.04.952 2.04 2.126s-.913 2.126-2.04 2.126c-1.126 0-2.04-.952-2.04-2.126Zm5.081-7.327c-.574 0-1.04.485-1.04 1.084 0 .599.466 1.084 1.04 1.084.575 0 1.04-.485 1.04-1.084 0-.599-.465-1.084-1.04-1.084Zm-2.04 1.084c0-1.174.914-2.126 2.04-2.126 1.127 0 2.04.952 2.04 2.126s-.913 2.126-2.04 2.126c-1.126 0-2.04-.952-2.04-2.126Zm2.729-7.827c-.573 0-1.04.485-1.04 1.084 0 .598.467 1.084 1.04 1.084.575 0 1.04-.486 1.04-1.084 0-.599-.465-1.084-1.04-1.084Zm-2.04 1.084c0-1.175.914-2.127 2.04-2.127 1.127 0 2.04.952 2.04 2.127 0 1.174-.912 2.126-2.04 2.126-1.126 0-2.04-.952-2.04-2.126Zm2.04-7.828c-.573 0-1.04.486-1.04 1.084 0 .599.467 1.084 1.04 1.084.575 0 1.04-.485 1.04-1.084 0-.598-.465-1.084-1.04-1.084Zm-2.04 1.084c0-1.174.914-2.126 2.04-2.126 1.127 0 2.04.952 2.04 2.126s-.912 2.126-2.04 2.126c-1.126 0-2.04-.952-2.04-2.126Z" clip-rule="evenodd"/>
  <path fill="#4C4C4C" d="M71.35 367.789c-.36-3.283.84-7.754 3.93-9.057.03-.125.05-.26.07-.385.13-1.209-.64-2.2-.67-3.398-.03-1.157.5-2.106.88-3.137.51-1.355.09-2.929.02-4.347-.26-5.794.57-11.558.69-17.343a10.81 10.81 0 0 0-1.03-.281c-.73 0-1.33.604-1.36 1.365-.12 3.481-.41 12.851-.36 18.907-2.82 3.074-1.01 6.795-1.01 6.795s-4.67 4.409-4.22 7.994c.44 3.586 3.62 7.098 3.62 7.098h.74a11.35 11.35 0 0 1-1.3-4.19v-.021Zm39.42-25.285c.32 1.428.55 2.898.72 4.367.5-4.304.93-8.817.72-10.516-.14-1.094-2.7-1.897-6.3-2.47 2.7 1.772 4.12 5.263 4.87 8.619h-.01Z"/>
  <path fill="#fff" d="M72.42 356.981c-.65.646-4.53 4.617-4.13 7.9.44 3.586 3.62 7.098 3.62 7.098H89.3c-2.65-7.504-9.51-14.56-16.88-14.998Z"/>
  <path fill="#0A0106" d="M111.37 365.955c-.11-.271-.22-.521-.32-.719h-42.7c.04.239.1.479.16.719h42.86Zm-27.17 2.251v.803h27.609c.04-.271.06-.542.05-.803h-27.66Z"/>
  <path fill="#fff" d="M71.941 353.219s6.78.813 10.11 3.356c.19.146.46.104.62-.073 1.33-1.491.74-1.626.74-1.626s-5.38-3.554-10.75-3.554c-.71 1.251-.71 1.907-.71 1.907l-.01-.01Zm1.579-4.023v-2.252s6.68-.875 12.28 1.751c.28.136.44.438.41.761-.02.261-.06.48-.11.646-.11.417-.54.657-.94.501-1.83-.699-8.12-2.898-11.64-1.418v.011Zm20.212-10.673c.05-.896.09-1.72.13-2.429-.27 0-.54 0-.81-.01-.04.761-.08 1.574-.13 2.397.27 0 .54.021.8.052l.01-.01Zm-.612 3.45h.41c.05-.845.1-1.678.15-2.47-.27-.021-.54-.042-.8-.053l-.15 2.502c.13 0 .26.021.39.021Zm-.29 3.627h.45c.06-.865.13-1.751.18-2.637-.27 0-.54-.01-.81-.031-.06.917-.12 1.813-.19 2.678h.36l.01-.01Zm.142 3.596c.08-.803.16-1.689.24-2.648-.27 0-.54.011-.81 0-.08.949-.15 1.824-.23 2.585.27 0 .54.021.8.042v.021Zm-.471 3.116c.12-.406.25-1.167.37-2.157h-.07a8.487 8.487 0 0 0-.73-.032c-.1.834-.2 1.47-.3 1.835.26.094.5.219.74.365l-.01-.011Zm-1.889 2.168c.13.062.26.146.38.229.44-.573.81-1.094 1.08-1.522-.09-.052-.17-.114-.26-.166-.05-.021-.1-.052-.14-.073h-.02c-.01 0-.03-.011-.03-.011l-.27-.093h-.01c-.26.416-.63.927-1.07 1.49.12.052.24.104.35.156l-.01-.01Zm-1.532 2.585c.46-.542.91-1.084 1.32-1.595-.08-.052-.15-.104-.23-.146l-.12-.063h-.01s-.02 0-.04-.02c-.08-.032-.15-.063-.23-.084l-.13-.031c-.41.511-.86 1.042-1.33 1.595.27.104.53.218.78.344h-.01Zm-2.019 2.303c.45-.511.92-1.032 1.37-1.563-.07-.032-.15-.063-.22-.094.13.052-.01 0-.04-.011-.04-.02-.08-.031-.12-.052a1.419 1.419 0 0 0-.22-.073l-.23-.062c-.44.5-.88 1.011-1.32 1.501.26.104.52.239.78.364v-.01Zm-1.979 2.189c.4-.427.85-.928 1.32-1.449-.27-.125-.54-.24-.82-.323-.43.479-.85.928-1.23 1.355.25.135.49.281.73.427v-.01Zm-1.391.292c-.29.312-.55.594-.78.834a.428.428 0 0 0 0 .594c.08.083.18.125.28.125.1 0 .21-.042.29-.125.07-.073.42-.449.95-1.022-.25-.146-.49-.281-.75-.406h.01Zm10.221-26.724c.04-.865.07-1.428.07-1.542a.413.413 0 0 0-.39-.438.415.415 0 0 0-.42.396c-.02.49-.05 1.021-.07 1.574.27 0 .54 0 .81.01Zm-20.302 6.597s2.42-2.376 12.68.459c.37.104.63.459.63.855v.323c0 .573-.52 1-1.05.865-2.63-.667-9.47-2.147-12.26-.386-.08-1.803 0-2.116 0-2.116Zm.151-6.461s2.27-2.22 12.61.291c.38.094.64.438.66.845v.323c.03.573-.48 1.021-1.02.896-2.65-.584-9.58-1.98-12.32-.135.04-2.116.07-2.21.07-2.21v-.01Z"/>
  <path fill="#103E8E" d="M105.9 343.349v-.615h-.67v-.615h-1.32v.615h-.67v.615h-.66v-.615h-.66v-.615h-1.33v.615h-.66v.615h-.67v1.855h.67v.615h.66v.615h.66v.615h.67v.615h.66v.614h.66v-.614h.67v-.615h.66v-.615h.66v-.615h.67v-.615h.66v-1.855h-.66Z"/>
  <path fill="#232323" d="M123.029 372s-3.49-3.059-4.41-6.238c-.92-3.179 2.92-7.354 2.92-7.354s-2.29-3.39.03-6.388c-.91-5.785-2.01-15.03-2.41-18.541-.09-.775.43-1.429 1.17-1.489 0 0 4.52.604 6.43 2.907 4.36-1.157 33.64-2.666 34.45 1.167.8 3.783-.62 20.564-.62 20.564l1.08 8.068s3.65 4.155-.03 7.052"/>
  <path fill="#fff" d="M118.719 366.074c1.05 3.069 4.31 5.926 4.31 5.926l38.6-.252c2.78-2.193 1.36-5.11.51-6.398l-43.42.724Z"/>
  <path fill="#B5B5B5" fill-rule="evenodd" d="M133.072 357.579c-.075-.573-.638-1.053-1.236-1.032-.567.02-.932.461-.862.99.074.567.624 1.037 1.232 1.022.566-.013.936-.455.866-.98Zm-1.272-2.038c1.102-.039 2.119.808 2.264 1.906.151 1.145-.7 2.091-1.834 2.118-1.091.026-2.102-.792-2.248-1.895-.15-1.142.685-2.088 1.818-2.129Zm3.623-4.06c-.076-.594-.639-1.079-1.261-1.051-.595.027-.978.506-.907 1.052.075.58.636 1.063 1.257 1.041.588-.02.982-.493.911-1.042Zm-1.307-2.056a2.243 2.243 0 0 1 2.299 1.927c.149 1.161-.717 2.137-1.869 2.177-1.119.039-2.138-.806-2.283-1.916-.149-1.145.688-2.135 1.853-2.188Zm1.173-4.797a1.245 1.245 0 0 0-1.243-.898.971.971 0 0 0-.932 1.114c.077.613.65 1.098 1.271 1.07a.963.963 0 0 0 .927-1.104l-.023-.182Zm-1.299-1.903c1.151-.065 2.194.81 2.325 1.954l.027.241-.021.022a1.963 1.963 0 0 1-1.89 1.977 2.253 2.253 0 0 1-2.309-1.948 1.976 1.976 0 0 1 1.868-2.246Zm.489-4.756c-.091-.621-.674-1.102-1.296-1.061-.611.041-1.03.554-.948 1.172.086.647.668 1.128 1.293 1.094a1.02 1.02 0 0 0 .955-1.167l-.004-.031v-.007Zm-1.363-2.064c1.169-.079 2.218.813 2.36 1.969l.003.031v.012a2.023 2.023 0 0 1-1.886 2.261h-.006c-1.154.065-2.189-.802-2.343-1.965-.158-1.192.682-2.229 1.872-2.308Z" clip-rule="evenodd"/>
  <path fill="#4C4C4C" d="M121.919 368.308c-.8-2.928-.27-7.002 2.55-8.28.01-.121.02-.241.01-.362-.04-1.117-.92-2.022-1.12-3.139-.19-1.076.2-1.982.44-2.978.31-1.298-.32-2.786-.59-4.145-1.09-5.603-1.09-11.358-1.81-17.213-.66-.151-1.1-.211-1.1-.211-.75.06-1.26.714-1.17 1.489.41 3.511 1.5 12.756 2.41 18.541-2.31 2.998-.03 6.388-.03 6.388s-3.86 4.145-2.92 7.354c.93 3.179 4.41 6.238 4.41 6.238h.7a11.339 11.339 0 0 1-1.81-3.692l.03.01Zm38.131-25.664a38.62 38.62 0 0 1 1.16 4.477c.23-4.487.36-9.266-.02-11.057-.24-1.167-3.26-1.831-7.42-2.173 3.23 1.69 5.15 5.282 6.27 8.753h.01Z"/>
  <path fill="#fff" d="M121.448 358.489c-.54.614-3.7 4.326-2.84 7.274.93 3.179 4.41 6.237 4.41 6.237l16.97-.111c-3.51-6.81-11.24-13.199-18.54-13.4Z"/>
  <path fill="#0A0106" d="M162.549 366.044a7.71 7.71 0 0 0-.41-.684l-43.42.725c.07.211.16.432.25.643l43.57-.674.01-.01Zm-28.07 2.485.1.735 28.67-.312c.02-.262.02-.513 0-.765l-28.77.352v-.01Z"/>
  <path fill="#fff" d="M120.459 355.018s6.79.523 10.45 2.817c.21.131.47.091.61-.08 1.16-1.449.54-1.56.54-1.56s-5.87-3.189-11.18-2.988c-.52 1.197-.42 1.811-.42 1.811Zm.97-3.853-.32-2.143s6.56-1.157 12.61 1.147c.3.121.51.413.52.725 0 .261 0 .462-.03.633-.06.413-.48.654-.9.523-1.95-.603-8.6-2.444-11.89-.885h.01Zm19.419-11.579c-.05-.926-.1-1.781-.14-2.515-.29.01-.58.03-.87.04.05.784.1 1.62.15 2.475h.87-.01Zm-.261 3.551c.15 0 .29-.01.44-.03-.04-.855-.08-1.711-.13-2.525h-.87c.05.845.09 1.7.13 2.545h.42l.01.01Zm.112 3.652c.16 0 .32-.02.48-.03-.03-.866-.06-1.761-.1-2.656-.28.02-.57.01-.86.01.04.925.08 1.831.11 2.686.13 0 .25 0 .38-.01h-.01Zm.549 3.551c0-.795-.02-1.68-.05-2.626-.28.021-.57.041-.85.051.03.935.04 1.801.05 2.565.28 0 .57 0 .85.01Zm-.151 3.068c.09-.392.13-1.147.14-2.122h-.85c-.01.814-.04 1.438-.11 1.8.28.081.55.192.81.322h.01Zm-1.719 2.153c.14.061.28.131.42.212.39-.564.72-1.087.95-1.509-.1-.051-.19-.101-.29-.151-.05-.02-.11-.04-.16-.061h-.02c-.01 0-.03 0-.03-.01-.1-.03-.19-.06-.29-.08h-.01c-.22.412-.55.915-.94 1.479.13.04.25.09.38.141l-.01-.021Zm-1.29 2.526c.41-.534.81-1.057 1.17-1.56-.08-.04-.17-.09-.25-.131a1.96 1.96 0 0 0-.14-.06h-.01s-.02 0-.04-.01c-.08-.03-.17-.05-.25-.07-.05-.01-.09-.021-.14-.031-.37.493-.77 1.027-1.18 1.56.29.09.57.191.84.302Zm-1.781 2.233c.4-.493.81-.996 1.22-1.509a2.51 2.51 0 0 0-.28-.091c-.04-.01-.09-.03-.13-.04-.08-.02-.15-.05-.23-.07-.08-.02-.16-.03-.24-.051-.39.483-.78.976-1.17 1.449.28.091.56.211.83.322v-.01Zm-1.75 2.093c.35-.413.74-.876 1.16-1.389-.28-.11-.57-.211-.86-.281-.38.452-.74.885-1.08 1.287.26.121.52.242.78.383Zm-1.359.301c-.25.292-.48.564-.68.785-.14.151-.1.402.08.543a.5.5 0 0 0 .3.111c.1 0 .2-.04.27-.121.06-.06.37-.422.83-.966-.26-.13-.53-.251-.8-.352Zm7.44-26.65c-.06-.895-.09-1.488-.1-1.609a.478.478 0 0 0-.47-.433c-.23 0-.43.211-.41.453.03.513.07 1.056.11 1.64.29-.02.58-.03.87-.041v-.01Zm-20.209 7.898s2.08-2.475 12.98-.242c.4.081.72.423.77.825l.04.312c.07.574-.41 1.016-.99.916-2.8-.524-9.96-1.62-12.49.251-.35-1.75-.31-2.052-.31-2.052v-.01Zm-.8-6.378s1.97-2.385 13.03-.544c.41.071.74.403.8.815l.05.322c.09.584-.38 1.067-.96.976-2.84-.422-10.16-1.378-12.65.634-.27-2.103-.26-2.203-.26-2.203h-.01Z"/>
</svg>
