<svg xmlns="http://www.w3.org/2000/svg" width="251" height="415" fill="none" viewBox="0 0 251 415">
  <path fill="#0779B9" d="M110.683 344.351c-.244 8.538-.104 23.764-.224 24.214-.806.355-7.38.404-8.224.73-6.099 2.299-5.925 1.152-11.226 1.63-9.423 1.77-23.865.821-26.917-5.302-.653-1.292-1.69-3.986-1.112-8.039.02-.086.062-.173.103-.255l.14-.318c1.733-3.875 5.306-6.999 9.858-8.525.24-.079.476-.153.724-.227 1.348-5.286 2.691-10.589 4.043-15.883a38.531 38.531 0 0 0 6.405 5.377c9.34 6.247 18.942 6.685 22.336 6.779 1.886.054 3.072-.103 4.089-.173l.005-.008Z"/>
  <path fill="#028CC9" d="M76.392 366.489s8.423.161 12.049-5.067c3.626-5.228-5.396-10.7-5.396-10.7s-5.85-3.821-11.122-3.054c-5.272.768-8.803 8.113-8.944 9.916-.459 5.81 4.028 8.443 13.418 8.901v.008l-.005-.004Z"/>
  <path fill="#185889" d="M110.133 368.091c-.488.371-10.8-.116-16.477-.351 3.97-1.197 5.954-1.197 9.138-5.513 4.85-9.953 5.069-12.507 4.337-19.646 1.299-.483 2.614-.97 3.908-1.444 0 0-.538 25.435-.546 26.838l-.364.116h.004Zm-26.4-19.052c-4.234-3.376-.14-4.482-2.473-5.683-2.096-1.077-4.39-3.387-5.929-8.583a2.12 2.12 0 0 1-1.31.347l-.05 12.474c4.8.219 8.757 3.264 11.064 5.171 1.514 1.25.968.759 2.2 1.914.434.409 1.137 1.251 1.414 1.779.34.639-1.017-4.312-4.916-7.419Z"/>
  <path fill="#7AC8EC" d="M67.205 356.446c-.504-1.638 2.407-3.731 2.75-3.978 1.211-.854 4.209-2.501 5.528-1.193.93.933.587 2.959-.058 4.193-1.17 2.174-3.771 2.711-5.487 2.471-.484-.066-2.373-.321-2.729-1.497v.008l-.004-.004Z"/>
  <path fill="#0779B9" d="M160.559 331.86c.434 8.43.703 37.158.703 37.158-.707.627-34.831 4.044-39.896-1.283-1.063-1.131-5.164-5.67-5.913-10.069 0-.099 0-.194.021-.293 0-.119.02-.251.041-.371.496-4.597 2.378-6.974 6.479-10.069.211-.16-1.137-5.248-1.48-11.182 18.912 2.855 40.049-3.896 40.049-3.896l-.004.005Z"/>
  <path fill="#185889" d="M160.569 332.867c.021.372.335 6.796.678 13.584.07 1.445.405 21.07.488 22.572-3.924 1.655-10.87.466-24.643.64.248-.458 1.935-1.098 4.151-1.866a23.095 23.095 0 0 0 15.315-18.589c.761-5.397.567-10.275-.169-14.476 1.405-.627 2.803-1.242 4.205-1.865h-.025Zm-49.481 3.565c-.025-.008-.049-.021-.074-.029-1.559-.483-2.419.392-2.531.504-1.013 1.027-1.124 1.774-1.166 2.199-.264-.281-1.203-1.18-2.621-1.259-2.258-.119-3.614 1.977-3.688 2.088-.062-.161-.65-1.535-2.047-1.885-1.187-.302-2.473.293-3.209 1.473-.14-.231-1.306-2.055-3.402-2.2-1.803-.132-3.544 1.028-4.367 2.934.161-1.159-.194-2.311-.972-2.934-1.112-.887-2.977-.594-4.08.937.04-.161.343-1.502-.488-2.62-.69-.916-2.188-.825-3.312-.462h-.03l-.007.008c-1.154-1.081-2.217-1.675-3.453-1.028-1.642.846-.583 2.765-1.48 5.134-.12.152 0 4.279 0 4.708.636 1.886 2.075 2.352 4.97.999.07.181 1.021 2.459 3.403 2.933 2.41.475 4.06-1.332 4.171-1.473.265.244 2.159 1.865 4.76 1.362 2.906-.565 4.15-3.297 4.27-3.561.274.384 1.378 1.857 3.404 2.298 2.096.462 3.704-.495 4.081-.734.103.078 1.893 1.419 3.886.524 1.497-.677 2.481-2.348 2.432-4.197.624.219 1.124.256 1.542.182v-5.901h.008Z"/>
  <path fill="#3D9FD4" d="M74.02 337.105s.546.698 1.187.805l.099 10.378-1.294-.343v-10.852l.008.008v.004Z"/>
  <path fill="#E4CDAC" d="M78.679 333.159c-1.154-1.081-2.216-1.675-3.453-1.027-1.641.846-2.298 2.975-1.48 5.133-.12.153-1.58 2.332-.992 4.106.637 1.886 3.068 2.955 5.966 1.605.07.182 1.022 2.46 3.403 2.934 2.41.475 4.06-1.333 4.172-1.473.265.244 2.159 1.865 4.76 1.362 2.906-.566 4.15-3.297 4.275-3.561.273.383 1.377 1.857 3.403 2.298 2.096.462 3.704-.495 4.081-.734.099.082 1.893 1.423 3.89.524 1.497-.677 2.481-2.348 2.432-4.197 1.538.536 2.319 0 2.989-.706 1.46-1.844.467-4.427-1.517-5.042-1.559-.483-2.419.396-2.531.503-1.013 1.028-1.125 1.775-1.166 2.2-.265-.281-1.203-1.18-2.621-1.259-2.258-.119-3.614 1.977-3.689 2.088-.062-.161-.649-1.535-2.046-1.886-1.187-.301-2.473.293-3.209 1.474-.14-.232-1.306-2.06-3.403-2.2-1.802-.132-3.543 1.028-4.366 2.934.161-1.16-.194-2.311-.972-2.934-1.112-.887-2.977-.594-4.08.937.04-.161.343-1.502-.489-2.62-.69-.917-2.187-.826-3.311-.463h-.03l-.008.009-.008-.005Z"/>
  <path fill="#028CC9" d="M135.21 366.163s10.762-2.145 13.731-9.032c2.969-6.887-11.35-10.127-11.35-10.127s-7.475-3.14-13.934-.829c-6.458 2.315-8.546 9.804-8.162 11.88 1.228 6.672 7.649 10.18 19.723 8.117l-.008-.009Z"/>
  <path fill="#7AC8EC" d="M119.613 355.389c-.959-1.431 1.592-4.064 1.894-4.369 1.075-1.086 3.837-3.326 5.582-2.394 1.236.66 1.397 2.654 1.033 3.962-.678 2.315-3.32 3.416-5.197 3.594-.538.053-2.613.239-3.304-.784l-.008-.009Z"/>
  <path fill="#185889" d="M147.493 351.609c-2.096-1.333-3.771-2.975-8.765-4.382a33.958 33.958 0 0 0-6.451-1.349c-2.418-.232-4.99-.69-8.017.107-.699.181-1.6.586-2.27.957l.037-18.957s4.222 12.524 7.22 13.886c2.452 1.11 4.647.656 9.712 2.954 3.846 1.16 8.534 6.784 8.534 6.784Z"/>
  <path fill="#3D9FD4" d="m120.507 335.759 2.423 10.712-.943.471-2.592-11.183s.471-.119 1.108 0h.004Z"/>
  <path fill="#185889" d="M125.34 332.067c-1.182-.991-3.097-1.048-4.333-.446-1.641.805.07 2.538-.653 4.716-.12.141 1.401 3.826 1.658 6.058.02.252.289.528 3.196-.78.07.161 1.075 2.27 3.494 2.674 2.452.405 4.101-1.312 4.221-1.432.286.223 2.229 1.696 4.85 1.193 2.936-.574 4.164-3.136 4.284-3.38.285.351 1.439 1.704 3.481 2.08 2.138.392 3.759-.524 4.131-.747.112.07 1.943 1.292 3.949.425 1.517-.656 2.481-2.22 2.398-3.932 1.468.643 2.77.854 3.68-.264 0 0 .504-3.033-.29-5.967-1.405-.97-3.394-.07-4.465.899-1.021.929-1.195 2.167-1.245 2.55-.285-.26-1.244-1.081-2.683-1.118-2.291-.07-3.635 1.886-3.717 2.006-.071-.153-.691-1.424-2.097-1.713-1.203-.264-2.509.301-3.229 1.424-.161-.231-1.377-1.886-3.485-1.989-1.811-.083-3.556 1.007-4.396 2.802.112-1.081-.264-2.138-1.021-2.703-1.125-.825-3.006-.537-4.131.949.029-.153.323-1.411-.537-2.422-.707-.846-1.935-1.18-3.068-.826v-.049l.008-.008Z"/>
  <path fill="#E4CDAC" d="M125.122 329.929c-1.187-.99-3.101-1.048-4.333-.446-1.642.805-2.167 2.823-1.307 4.82-.12.14-1.236 2.187-.608 3.833.67 1.746 3.209 2.654 6.116 1.342.07.16 1.075 2.269 3.493 2.673 2.452.405 4.102-1.312 4.222-1.431.285.222 2.229 1.696 4.85 1.188 2.936-.574 4.164-3.136 4.284-3.38.285.351 1.439 1.705 3.485 2.076 2.138.392 3.755-.524 4.131-.747.112.07 1.943 1.292 3.949.425 1.517-.656 2.48-2.22 2.402-3.932 1.468.643 3.494.433 4.403-.685 1.216-1.502.517-4.498-1.013-5.546-1.405-.97-3.39-.07-4.465.899-1.021.929-1.195 2.167-1.245 2.55-.285-.264-1.244-1.081-2.683-1.118-2.291-.07-3.635 1.886-3.717 2.006-.071-.153-.687-1.424-2.097-1.717-1.203-.26-2.509.301-3.229 1.424-.161-.231-1.377-1.886-3.485-1.985-1.812-.083-3.556 1.007-4.396 2.802.112-1.081-.264-2.138-1.021-2.703-1.125-.825-3.006-.532-4.131.949.029-.153.323-1.411-.537-2.418-.707-.846-1.935-1.18-3.068-.825v-.054Zm-14.775 37.81h-45.16a.698.698 0 0 0-.699.698v3.887c0 .385.313.697.7.697h45.159a.698.698 0 0 0 .699-.697v-3.887a.698.698 0 0 0-.699-.698Zm51.449 0H121.33a.661.661 0 0 0-.662.661v3.961c0 .365.296.66.662.66h40.466a.66.66 0 0 0 .662-.66V368.4a.661.661 0 0 0-.662-.661Z"/>
</svg>
