<svg xmlns="http://www.w3.org/2000/svg" width="250" height="414" fill="none" viewBox="0 0 250 414">
  <g clip-path="url(#a)">
    <path fill="#399551" d="m160.181 350.448.348 27.433-42.003-3.259s-.598-3.675 1.252-6.063 4.236-4.301 4.236-4.301l-2.865-14.225s.029-.627.548-.715c.52-.089 8.697-.657 11.702 0 0 0 1.444.537 1.502 1.972.057 1.436-.217 12.015-.217 12.015s12.036-1.409 15.851-8.344c1.633-2.968 5.083-5.957 9.65-4.505l-.004-.008Zm-50.199 1.355v26.193H68.494s-4.338-7.227-1.563-11.113c2.403-3.366 5.66-4.793 5.66-4.793l3.107-2.938-.336-9.276c.692-.359 10.637-.088 10.637-.088s.692.118 1.04.838c.347.72.077 10.321.077 10.321s2.178.051 3.16.081c5.234.161 13.252-5.58 14.946-7.65 1.695-2.071 4.138-2.989 4.764-1.575h-.004Z"/>
    <path fill="#EFAE42" d="M107.305 357.344c-2.227 0-3.066 2.24-2.509 3.916l-.021.017c-.409-.808-1.187-1.401-2.337-1.401-2.644 0-3.327 3.154-2.046 4.78-.438-.432-1.052-.707-1.834-.707-3.073 0-3.499 4.254-1.268 5.427a3.354 3.354 0 0 0-.287-.013c-3.564 0-3.569 5.728 0 5.728h12.974v-14.885c0-1.431-.888-2.866-2.677-2.866l.005.004Z"/>
    <path fill="#65B679" d="M121.201 350.308s-.209-.927.495-.995l1.764-.139 1.887 9.225-2.71-.36-1.432-7.731h-.004Zm-46.115-.516h.421l2.849-.11v8.687l-3.02.787-.25-9.364Z"/>
    <path fill="#D57C3B" d="M124.051 358.25s-2.001-3.12-2.775-2.603c-.773.516-4.314 5.52-1.003 11.519 0 0 .131.318.361.352l2.607-2.604.806-6.655.004-.009Z"/>
    <path fill="#EFAE42" d="M76.88 356.028s3.691-4.382 4.706-4.065c1.015.318 2.677 2.447 2.677 6.643 0 4.195-.59 6.266-2.46 6.189-1.87-.076-4.174-1.117-5.242-2.87-1.069-1.753-1.928-4.263-1.928-4.263l2.247-1.634Z"/>
    <path fill="#D57C3B" d="M77.158 361.722c-.103-.148-.045-.402.094-.436 1.24-.301 5.816-1.228 6.11 1.274.324 2.752-4.674 1.38-6.209-.838h.005Z"/>
    <path fill="#EFAE42" d="M122.954 358.966c.122-.479.491-.847.957-.94.978-.199 2.697-.487 3.229-.165.754.457.913 1.177.913 1.177s-.593 3.505-.323 5.897c0 0-1.67 1.08-4.195.136-.434-.161-.729-.576-.782-1.05-.123-1.114-.262-3.256.197-5.051l.004-.004Z"/>
    <path fill="#EFAE42" d="M127.788 359.034s5.317-4.382 6.778-4.065c1.461.318 3.851 2.447 3.851 6.643 0 4.195-.847 6.266-3.544 6.189-2.697-.076-6.008-1.117-7.551-2.87-1.543-1.753-2.775-4.263-2.775-4.263l3.237-1.634h.004Z"/>
    <path fill="#D57C3B" d="M128.187 364.732a.26.26 0 0 1 .14-.436c1.788-.301 8.377-1.228 8.799 1.274.466 2.752-6.729 1.38-8.939-.838Zm-55.508-9.678s-.189-2.472 1.432-2.87c1.031-.254 1.031 0 1.031 0l.09 2.561s-1.064 1.985-2.553.309Zm55.323 3.81s-1.085.352-1.056 1.685c.02.906.012 2.142.004 2.845 0 .377.074.75.229 1.088.094.208.205.441.307.623 0 0 .127-5.055.197-5.225.069-.169.319-1.02.319-1.02v.004Z"/>
    <path fill="#EFAE42" d="M72.004 355.994c.123-.479.492-.847.958-.94.978-.199 2.697-.487 3.23-.165.752.457.912 1.177.912 1.177s-.594 3.505-.323 5.897c0 0-1.67 1.08-4.195.136-.434-.161-.729-.576-.782-1.05-.123-1.114-.262-3.256.196-5.051l.004-.004Z"/>
    <path fill="#D57C3B" d="M77.052 355.888s-2.157-.741-2.092.597c.046.906-.229 3.653-.241 4.356-.008.377.164.75.508 1.088.208.208.834.115 1.4.115 0 0-.48-1.766-.394-3.438.062-1.198.819-2.722.819-2.722v.004Zm23.441 12.337c.876.537 1.756 1.075 2.632 1.617l.373.228c.229.14.573.064.699-.19.127-.254.062-.572-.184-.724-.876-.538-1.756-1.075-2.631-1.617l-.373-.229c-.229-.14-.573-.063-.7.191s-.061.571.184.724Zm3.091-3.861c.565.876 1.126 1.757 1.691 2.633l.241.377c.147.228.458.351.7.19.221-.148.344-.478.184-.724-.565-.876-1.125-1.757-1.69-2.633l-.242-.377c-.147-.228-.458-.351-.7-.19-.221.148-.343.478-.184.724Zm-4.057 8.666c1.019.012 2.034.029 3.053.042h.438c.279.009.512-.241.512-.525a.531.531 0 0 0-.512-.529c-1.019-.013-2.034-.03-3.053-.042h-.438c-.278-.009-.511.241-.511.525 0 .283.233.524.511.529Z"/>
    <path fill="#F8D181" d="M74.186 355.693c.049-.241-.135-.465-.373-.44-.442.047-1.076.182-1.264.546-.303.584-.5 2.718-.447 2.981.054.262 1.347.524 2.088-3.087h-.004Zm50.91 2.989c.049-.241-.135-.465-.373-.44-.442.047-1.076.182-1.264.546-.303.584-.5 2.718-.446 2.981.053.262 1.346.524 2.087-3.087h-.004Z"/>
    <path fill="#65B679" d="M72.705 371.269c-.753 1.346-2.517 1.363-3.639.69-1.121-.673-1.342-3.277-.593-4.623.749-1.347 2.82-2.299 3.941-1.626 1.122.673 1.04 4.212.29 5.559Zm50.584 1.299c-.97.703-2.239.11-2.828-.758-.589-.867.094-2.806 1.064-3.509.97-.703 2.755-.673 3.344.195.589.867-.61 3.369-1.58 4.076v-.004Z"/>
    <path fill="#835B2E" d="M109.98 375.134v-9.098s-7.789 0-7.42 9.098h7.42Z"/>
    <path fill="#F2E1D6" d="M67.335 374.622h42.478c.27 0 .487.224.487.499v2.375c0 .275-.221.5-.487.5l-42.478-.115a.493.493 0 0 1-.487-.499v-2.261c0-.275.217-.499.487-.499Zm51.187 0h41.995c.266 0 .483.224.483.499v2.375c0 .275-.217.5-.483.5l-41.995-.115a.489.489 0 0 1-.479-.499v-2.261c0-.275.217-.499.483-.499h-.004Z"/>
    <path fill="#EFAE42" d="m160.49 366.015-.205-9.149h-.037c-2.222 0-3.057 2.235-2.504 3.908l-.021.016c-.409-.804-1.183-1.401-2.333-1.401-2.639 0-3.323 3.15-2.042 4.776-.438-.432-1.048-.707-1.829-.707-3.066 0-3.491 4.246-1.269 5.419a2.986 2.986 0 0 0-.287-.013c-3.556 0-3.564 5.719 0 5.719h5.542c-.213-5.656 2.742-7.772 4.981-8.564l.004-.004Z"/>
    <path fill="#835B2E" d="M155.508 374.579v.043h5.173v-.043h-5.173Z"/>
    <path fill="#D57C3B" d="M153.259 367.793c.876.538 1.756 1.075 2.632 1.617l.372.229c.229.139.573.063.7-.191s.061-.571-.184-.724c-.876-.537-1.756-1.075-2.632-1.617l-.372-.229c-.229-.139-.573-.063-.7.191s-.061.572.184.724Zm3.091-3.861c.565.876 1.125 1.757 1.69 2.633l.242.377c.147.229.458.351.699.19.221-.148.344-.478.185-.724-.565-.876-1.126-1.756-1.691-2.633l-.241-.377c-.147-.228-.458-.351-.7-.19-.221.148-.344.478-.184.724Zm-4.053 8.666c1.019.013 2.034.03 3.053.042h.438c.278.009.511-.241.511-.525a.532.532 0 0 0-.511-.529c-1.019-.012-2.034-.029-3.053-.042h-.438c-.279-.009-.512.241-.512.525 0 .284.233.525.512.529Z"/>
    <path fill="#835B2E" d="M160.488 366.015c-2.243.791-5.194 2.908-4.981 8.564h5.173l-.192-8.564Z"/>
  </g>
  <defs>
    <clipPath id="a">
      <path fill="#fff" d="M66 349h95v29H66z"/>
    </clipPath>
  </defs>
</svg>
