<svg xmlns="http://www.w3.org/2000/svg" width="251" height="416" fill="none" viewBox="0 0 251 416">
  <path fill="#59A053" d="m108.347 363.902-1.179 8.922h-14.64s1.372-8.55 15.819-8.922Zm51.964-3.102-1.31 12.024H142.73s1.526-11.524 17.581-12.024Z"/>
  <path fill="#74B859" d="M158.434 372.659h-43.65c-.727 0-1.315.589-1.315 1.315v3.049c0 .727.307.977 1.033.977l43.932-.008c.726 0 1.315-.589 1.315-1.315v-2.703c0-.726-.589-1.315-1.315-1.315Z"/>
  <path fill="#2D673B" d="M134.789 375.43s3.188 3.202 9.32 1.146c4.259-1.427 4.92-3.917 4.92-3.917h-3.572l-10.672 2.771h.004Z"/>
  <path fill="#74B859" d="M115.178 371.637s-1.282-1.295-.418-2.519c.864-1.225 6.471-10.569 8.398-10.978 1.927-.41 4.846.116 6.715 1.108 1.869.993 4.668 2.863 4.668 2.863l5.255 10.552h-24.048l-.566-1.022-.004-.004Z"/>
  <path fill="#59A053" d="M127.781 372.658h4.702l-1.179-8.347s-1.596 4.525-.748 6.358c.554 1.195-2.779 1.989-2.779 1.989h.004Z"/>
  <path fill="#2D673B" d="M114.762 372.659s1.12-4.203 5.478-4.128c4.358.078 5.76.699 6.926 2.064.657.765.856 2.064.856 2.064h-13.26Z"/>
  <path fill="#E6E6E5" d="M132.792 373.403c-.128-.153-2.8-3.458-1.882-7.764.889-4.161 4.677-7.172 8.687-7.019 3.759.14 7.385 3.044 8.076 7.242.57 3.467-1.034 6.772-3.263 8.604-3.456 2.829-8.732 2.378-11.618-1.059v-.004Z"/>
  <path fill="#9F9F9F" d="M147.985 366.375a8.6 8.6 0 0 0-2.113-4.372 8.562 8.562 0 0 1 1.179 3.127c.57 3.467-1.034 6.772-3.262 8.604-3.333 2.73-8.361 2.399-11.301-.72.323.534.579.861.62.902 2.882 3.441 8.162 3.892 11.619 1.063 2.233-1.828 3.833-5.137 3.262-8.604h-.004Z"/>
  <path fill="#020202" d="M136.044 369.242c-.062-.079-1.373-1.688-.923-3.797.435-2.04 2.291-3.512 4.255-3.438 1.84.067 3.622 1.489 3.961 3.545.281 1.7-.504 3.318-1.6 4.211-1.695 1.386-4.284 1.162-5.693-.521Z"/>
  <path fill="#fff" d="m115.145 368.53 5.024-7.449s-3.147-.43-4.78 1.729c-1.633 2.159-.244 5.72-.244 5.72Z"/>
  <path fill="#74B859" d="M106.769 378H67.228c-.674 0-1.228-.575-1.228-1.278v-2.785c0-.703.554-1.278 1.228-1.278h39.541c.674 0 1.228.575 1.228 1.278v2.785c0 .703-.554 1.278-1.228 1.278Z"/>
  <path fill="#74B859" d="M67.647 371.637s-1.162-1.295-.38-2.519c.785-1.225 5.867-10.569 7.611-10.978 1.745-.41 5.76.248 7.497 1.166 3.394 1.8 2.977 5.022 2.977 5.022l4.61 8.331H68.159l-.512-1.022Z"/>
  <path fill="#59A053" d="M79.29 372.658h6.156l-1.667-8.347s-.91 3.14-.901 6.068c0 .799-.53 1.502-1.302 1.7l-2.287.584v-.005Z"/>
  <path fill="#2D673B" d="M67.266 372.659s1.013-4.203 4.965-4.128c3.953.078 5.223.699 6.281 2.064.596.765.778 2.064.778 2.064H67.266Zm19.812 2.73s3.019 2.846 7.728 1.187c4.71-1.659 4.652-3.917 4.652-3.917h-3.503l-8.873 2.73h-.004Z"/>
  <path fill="#E6E6E5" d="M85.096 373.403c-.116-.153-2.49-3.458-1.67-7.764.79-4.161 4.155-7.172 7.715-7.019 3.337.14 6.562 3.044 7.174 7.242.508 3.467-.918 6.772-2.899 8.604-3.068 2.829-7.76 2.378-10.32-1.059v-.004Z"/>
  <path fill="#9F9F9F" d="M98.49 366.123c-.347-2.387-1.542-4.356-3.121-5.634a9.073 9.073 0 0 1 1.951 4.468c.51 3.466-.917 6.771-2.898 8.603-2.592 2.391-6.334 2.432-8.98.319 2.596 3.239 7.144 3.615 10.146.848 1.98-1.829 3.407-5.138 2.899-8.604h.004Z"/>
  <path fill="#020202" d="M87.984 369.242c-.053-.079-1.22-1.688-.818-3.797.384-2.04 2.038-3.512 3.783-3.438 1.638.067 3.217 1.489 3.519 3.545.248 1.7-.45 3.318-1.423 4.211-1.505 1.386-3.803 1.162-5.06-.521Z"/>
  <path fill="#fff" d="m68.782 366.814 3.457-5.828s-1.857.219-2.853 2.378c-1 2.159-.6 3.45-.6 3.45h-.004Z"/>
  <path fill="#59A053" d="M81.336 366.032c-.703-.124-1.228.641-1.092 1.009.178.484 1.638.687 1.902.248.195-.322-.144-1.145-.806-1.257h-.004Zm-2.965.654c-.703-.125-1.228.641-1.091 1.009.177.484 1.637.686 1.901.248.195-.323-.144-1.146-.806-1.257h-.004Zm2.504 2.047c-.492-.021-.975.765-.922 1.092.066.43 1.096.43 1.348-.016.182-.327.046-1.055-.422-1.076h-.004Zm48.36-2.912c-.695-.161-1.261.575-1.146.947.149.493 1.596.778 1.886.356.211-.31-.083-1.15-.736-1.303h-.004Zm-2.555 1.729c-.695-.161-1.261.575-1.145.947.148.493 1.596.778 1.885.356.211-.31-.083-1.15-.736-1.303h-.004Zm2.09.716c-.455.19-.55 1.108-.364 1.381.244.36 1.174-.082 1.207-.595.025-.373-.413-.972-.839-.79l-.004.004Z"/>
</svg>
