<svg xmlns="http://www.w3.org/2000/svg" width="249" height="414" fill="none" viewBox="0 0 249 414">
  <path fill="#F2E1D6" d="M109.719 370.021H80.37c-.67 0-1.214.546-1.214 1.219v5.664c0 .673.544 1.219 1.214 1.219h29.349c.67 0 1.214-.546 1.214-1.219v-5.664c0-.673-.544-1.219-1.214-1.219Z"/>
  <path fill="#6F539D" d="M74.137 357.47v-12.785s.5-1.161 1.312-1.161c.813 0 34.972 2.906 34.972 2.906l-.414 3.536-28.073 10.028-7.797-2.524Z"/>
  <path fill="#1D4267" d="m74.137 357.47 35.871-7.508v20.06H63.637l10.5-12.552Z"/>
  <path fill="#6F539D" fill-rule="evenodd" d="M63.02 376.958v-8.365s.795-4.022 3.244-4.417c2.449-.395 9.7 0 9.7 0s3.738 1.626 4.546 3.602c.808 1.976 4.75 10.345 4.75 10.345H63.023v-1.165h-.005Z" clip-rule="evenodd"/>
  <path fill="#9D76AE" d="M77.381 344.812s.353-.811.944-1.078c-1.674-.136-2.74-.214-2.872-.214-.812 0-1.312 1.16-1.312 1.16v12.786l3.088-.613.156-12.041h-.004Z"/>
  <path fill="#0F2B44" d="m106.591 361.389-.021-.033c-.004-.02-.008-.045-.02-.061l-.337-.523-.024-.025v-.02h-.009c-.008-.021-.008-.046-.02-.066l-3.548-5.615a.23.23 0 0 0-.115-.091l-.008-.008h-.033c-.021-.004-.045-.016-.066-.012l-6.542.292a.318.318 0 0 0-.086.016.449.449 0 0 0-.3.231l-2.957 5.681a.47.47 0 0 0-.041.288v.012a.456.456 0 0 0 .057.148l3.425 5.418a.446.446 0 0 0 .09.103l.312.489a.454.454 0 0 0 .398.21l6.432-.271a.326.326 0 0 0 .172-.054c.008 0 .012 0 .021-.008a.375.375 0 0 0 .139-.148l3.052-5.862s.004-.029.008-.041l.025-.046-.004-.004Z"/>
  <path fill="#9D76AE" fill-rule="evenodd" d="M66.26 368.593s.796-4.022 3.245-4.417c.525-.086 1.275-.132 2.124-.156-2.018-.042-4.22-.029-5.369.156-2.449.395-3.244 4.417-3.244 4.417v9.53h3.244v-9.53Z" clip-rule="evenodd"/>
  <path fill="#533885" d="m102.382 355.07-6.641.28a.45.45 0 0 0-.386.247l-2.957 5.681a.458.458 0 0 0 .02.453l3.425 5.417a.456.456 0 0 0 .398.21l6.432-.272a.374.374 0 0 0 .316-.201l3.101-5.953-3.704-5.858-.004-.004Z"/>
  <path fill="#3C3A84" d="M95.695 355.35a.492.492 0 0 0-.23.111.178.178 0 0 0-.029.231l7.174 11.267c.054.082.16.111.246.062a.373.373 0 0 0 .14-.149l3.052-5.861a.19.19 0 0 0-.009-.186l-.336-.523a.163.163 0 0 0-.074-.065l-9.832-4.874a.17.17 0 0 0-.11-.017l.008.004Z"/>
  <path fill="#7F64A6" d="m101.983 354.478-6.64.279a.453.453 0 0 0-.386.247l-2.958 5.681a.458.458 0 0 0 .02.453l3.426 5.417a.456.456 0 0 0 .398.21l6.431-.271a.374.374 0 0 0 .316-.202l3.101-5.953-3.704-5.857-.004-.004Z"/>
  <path fill="#6F539D" d="m101.883 354.465-6.542.293c-.189.008-.44.193-.337.354l7.293 10.987c.103.16.341.152.427-.017l2.937-5.639a.243.243 0 0 0-.013-.248l-3.548-5.614a.248.248 0 0 0-.217-.116Z"/>
  <path fill="#6F539D" d="M95.434 366.535c.09.14.246.222.41.214l6.509-.272c.164-.008-3.605-6.022-3.605-6.022-.09-.14-3.31 6.08-3.31 6.08h-.004Z"/>
  <path fill="#554E99" d="m98.824 360.615 3.438 5.866a.465.465 0 0 0 .389-.247l2.953-5.672c.05-.095.095-.202.074-.301-.012-.057-6.78.206-6.854.354Z"/>
  <path fill="#C69CC3" d="M95.147 354.819a.43.43 0 0 0-.193.198l-2.953 5.672a.48.48 0 0 0-.045.301c.012.058 6.789-.531 6.789-.531-.09-.14-3.536-5.668-3.594-5.636l-.004-.004Z"/>
  <path fill="#9D76AE" d="m100.308 357.026-3.323.14a.465.465 0 0 0-.39.247l-1.542 2.955a.46.46 0 0 0 .02.465l1.781 2.816c.09.14.246.222.41.214l3.323-.14a.465.465 0 0 0 .389-.247l1.543-2.955a.465.465 0 0 0-.021-.466l-1.78-2.815a.46.46 0 0 0-.41-.214Z"/>
  <path fill="#D5ACCC" d="m96.23 362.653.628.992c.09.14.246.222.41.214l.353-.016 4.459-4.467-.919-1.453-4.926 4.726-.004.004Zm4.047-5.631-.947.041-3.925 3.766-.046.445.378.597 4.914-4.718s-.045-.049-.156-.098c-.07-.033-.218-.033-.218-.033Z" opacity=".4"/>
  <path fill="#F2E1D6" d="M159.973 369.783h-29.349c-.67 0-1.214.545-1.214 1.218v5.665c0 .672.544 1.218 1.214 1.218h29.349c.67 0 1.214-.546 1.214-1.218v-5.665c0-.673-.544-1.218-1.214-1.218Z"/>
  <path fill="#6F539D" d="M118.652 357.232v-12.786s.501-1.161 1.313-1.161c.812 0 39.894 2.906 39.894 2.906l.406 3.536-28.073 10.028-13.54-2.523Z"/>
  <path fill="#1D4267" d="m118.653 357.232 41.613-7.509v20.06H114.5l4.153-12.551Z"/>
  <path fill="#6F539D" fill-rule="evenodd" d="M113.273 376.719v-8.365s.796-4.021 3.245-4.417c2.449-.395 9.701 0 9.701 0s3.736 1.626 4.545 3.602c.808 1.976 4.749 10.345 4.749 10.345h-22.235v-1.165h-.005Z" clip-rule="evenodd"/>
  <path fill="#9D76AE" d="M121.893 344.577s.353-.81.943-1.078c-1.673-.136-2.74-.214-2.871-.214-.812 0-1.313 1.161-1.313 1.161v12.786l3.089-.614.156-12.041h-.004Z"/>
  <path fill="#0F2B44" d="m158.719 361.397-.02-.033c-.004-.02-.008-.045-.021-.061l-.336-.523-.024-.025v-.02h-.009c-.008-.021-.008-.046-.02-.066l-3.548-5.615a.23.23 0 0 0-.115-.091l-.008-.008h-.033c-.021-.004-.045-.016-.066-.012l-6.542.292a.318.318 0 0 0-.086.016.451.451 0 0 0-.3.231l-2.957 5.681a.466.466 0 0 0-.041.288v.012a.465.465 0 0 0 .057.148l3.425 5.418a.454.454 0 0 0 .091.103l.311.49a.455.455 0 0 0 .398.209l6.432-.271a.326.326 0 0 0 .172-.054c.008 0 .012 0 .021-.008a.375.375 0 0 0 .139-.148l3.052-5.862s.004-.029.008-.041l.025-.045-.005-.005Z"/>
  <path fill="#9D76AE" fill-rule="evenodd" d="M116.518 368.354s.796-4.022 3.244-4.417c.526-.086 1.276-.131 2.125-.156-2.018-.041-4.221-.029-5.369.156-2.449.395-3.245 4.417-3.245 4.417v9.53h3.245v-9.53Z" clip-rule="evenodd"/>
  <path fill="#533885" d="m154.511 355.079-6.641.28a.45.45 0 0 0-.386.247l-2.957 5.68a.458.458 0 0 0 .02.453l3.425 5.417a.456.456 0 0 0 .398.21l6.432-.271a.375.375 0 0 0 .316-.202l3.101-5.953-3.704-5.857-.004-.004Z"/>
  <path fill="#3C3A84" d="M147.824 355.355a.476.476 0 0 0-.23.111.176.176 0 0 0-.029.23l7.174 11.267c.054.082.16.111.246.062a.377.377 0 0 0 .14-.148l3.052-5.862a.19.19 0 0 0-.009-.186l-.336-.522a.16.16 0 0 0-.074-.066l-9.832-4.874a.17.17 0 0 0-.111-.017l.009.005Z"/>
  <path fill="#7F64A6" d="m154.112 354.486-6.641.28a.45.45 0 0 0-.385.247l-2.958 5.681a.459.459 0 0 0 .021.452l3.425 5.418a.458.458 0 0 0 .398.21l6.431-.272a.37.37 0 0 0 .316-.202l3.101-5.952-3.704-5.858-.004-.004Z"/>
  <path fill="#6F539D" d="m154.016 354.474-6.543.292c-.188.008-.438.193-.336.354l7.293 10.987c.103.16.341.152.427-.017l2.937-5.639a.241.241 0 0 0-.013-.247l-3.548-5.615a.25.25 0 0 0-.217-.115Z"/>
  <path fill="#6F539D" d="M147.562 366.539c.091.14.247.222.411.214l6.509-.272c.164-.008-3.605-6.022-3.605-6.022-.09-.14-3.31 6.08-3.31 6.08h-.005Z"/>
  <path fill="#554E99" d="m150.953 360.619 3.437 5.866a.463.463 0 0 0 .39-.247l2.953-5.672c.05-.095.095-.202.074-.301-.012-.057-6.78.206-6.854.354Z"/>
  <path fill="#C69CC3" d="M147.28 354.823a.435.435 0 0 0-.193.198l-2.953 5.673a.473.473 0 0 0-.045.3c.012.058 6.788-.531 6.788-.531-.09-.14-3.535-5.668-3.593-5.635l-.004-.005Z"/>
  <path fill="#9D76AE" d="m152.444 357.03-3.322.14a.466.466 0 0 0-.39.247l-1.542 2.955a.46.46 0 0 0 .021.466l1.78 2.815a.46.46 0 0 0 .41.214l3.322-.14a.466.466 0 0 0 .39-.247l1.542-2.955a.46.46 0 0 0-.02-.465l-1.78-2.816a.465.465 0 0 0-.411-.214Z"/>
  <path fill="#D5ACCC" d="m148.363 362.661.628.992a.46.46 0 0 0 .41.214l.353-.016 4.458-4.466-.918-1.454-4.927 4.726-.004.004Zm4.043-5.631-.947.041-3.926 3.767-.045.444.378.597 4.914-4.717s-.046-.05-.156-.099c-.07-.033-.218-.033-.218-.033Z" opacity=".4"/>
</svg>
