<svg xmlns="http://www.w3.org/2000/svg" width="250" height="414" fill="none" viewBox="0 0 250 414">
  <path fill="#DD565B" d="M159.472 378.123h-41.94l-3.855-8.645c-.128-.284.198-.564.457-.391 1.903 1.264 6.334 3.779 8.15 1.206 2.846-4.03-.704-17.697-.704-17.697.441-.037 8.574-2.469 15.407 1.655 9.311 5.623 16.16 10.934 23.293 4.286.312-.293-.812 19.578-.812 19.578l.004.008Z"/>
  <path fill="#DF8F3E" d="M160.283 358.545c-.041.041-.086.074-.127.115-.738 5.282-3.571 10.728-7.137 14.293-2.162 2.161-4.831 3.919-7.722 5.174h14.175s1.124-19.87.811-19.578v-.004Z"/>
  <path fill="#DD565B" d="M107.459 378.123H66.375l-3.854-8.645c-.128-.284.197-.564.457-.391 1.903 1.264 5.831 3.339 8.15 1.206 4.588-4.223 3.896-19.006 3.896-19.006 2.957-.218 6.717.338 10.806 2.964 9.151 5.875 16.16 10.934 23.293 4.286.313-.293-1.664 19.578-1.664 19.578v.008Z"/>
  <path fill="#DF8F3E" d="M109.12 358.545s-.025.02-.037.033c-1.149 4.458-3.636 8.809-6.647 11.818-2.228 2.227-4.995 4.034-7.99 5.29-2.952 1.395-6.172 2.247-9.36 2.437h22.37s1.977-19.871 1.664-19.578Z"/>
  <path fill="#EFAE42" d="M122.805 369.231c3.142.062 5.045 2.05 6.474 4.166 0 0-1.087-7.257 8.566-7.257 0 0-5.288-10.411 2.277-10.003-1.013-.622-2.055-1.268-3.13-1.919-6.832-4.124-14.965-1.692-15.406-1.655 0 0 3.047 11.749 1.223 16.668h-.004Zm-43.341 1.704s-1.285-8.797 7.846-5.668c0 0-.902-8.933 5.84-6.422-2.323-1.292-4.77-2.906-7.389-4.59-4.09-2.626-7.8-3.326-10.761-3.108 0 0 .3 9.258-1.594 15.219 2.726 1.079 5.445 2.297 6.058 4.569Zm34.188-.564a4.232 4.232 0 1 0 0-8.463 4.232 4.232 0 1 0 0 8.463Z"/>
  <path fill="#DF8F3E" d="M116.549 363.056a4.2 4.2 0 0 1 .564 2.104 4.232 4.232 0 0 1-4.234 4.232 4.197 4.197 0 0 1-2.891-1.149 4.23 4.23 0 1 0 6.565-5.187h-.004Z"/>
  <path fill="#EFAE42" d="M61.313 369.289a3.948 3.948 0 1 0 0-7.895 3.948 3.948 0 1 0 0 7.895Z"/>
  <path fill="#DF8F3E" d="M63.198 361.875c.618.696.997 1.61.997 2.614a3.95 3.95 0 0 1-5.836 3.47 3.933 3.933 0 0 0 2.95 1.33 3.95 3.95 0 0 0 3.948-3.948 3.942 3.942 0 0 0-2.063-3.466h.004Z"/>
  <path fill="#0779B9" d="m80.357 374.031-1.441-2.816c-2.1-4.104-5.691-4.24-5.728-4.24l.634-1.918c.16 0 2.652.185 5.106 3.277.186-1.309.626-2.812 1.96-3.845 1.368-1.062 3.056-1.21 5.466-.523-.021-1.482-.268-3.976 1.54-5.487.675-.564 1.915-1 2.866-1.066l2.751 1.597c-1.705-.51-3.175-.268-4.069.482-1.943 1.626-1.52 5.668-1.515 5.709l.111.98-.93-.329c-2.402-.848-4.214-.82-5.387.09-1.92 1.486-1.64 4.903-1.64 4.94l.276 3.153v-.004Zm8.043 4.092h-8.619c.046 0 9.23-.692 14.11-3.409 6.782-3.778 10.077-6.858 13.12-14.535l2.15-1.7-.029.955c-3.27 10.328-9.328 14.276-14.093 16.804-3.125 1.654-6.453 1.889-6.638 1.889v-.004Z"/>
  <path fill="#0779B9" d="M102.018 362.39c-3.13 0-6.824-1.157-10.975-4.261-10.67-7.978-15.983-6.994-16.04-6.977l-.046-1.948c.272-.078 5.543-1.72 17.338 7.291 10.563 8.072 16.823 1.012 17.087.708l-.293 3.005c-1.713 1.198-4.122 2.182-7.067 2.182h-.004Zm50.695-.198c-3.957 0-8.574-1.564-13.289-5.29-8.624-6.825-17.626-3.882-17.725-3.853l-.445-2.025c.461-.144 9.978-3.227 19.451 4.265 8.405 6.648 16.296 5.775 19.747 1.477l-.099 2.968c-2.323 2.129-3.657 2.458-7.64 2.462v-.004Z"/>
  <path fill="#0779B9" d="m129.626 375.18-2.306-2.734c-1.746-2-4.81-2.433-4.851-2.437l.457-.774.21-1.198c.189.013 2.874.124 5.63 2.96.444-1.342 1.264-3.001 2.767-4.236 1.301-1.07 2.891-1.646 4.736-1.716-.815-2.141-1.886-5.932-.383-8.213.577-.868 1.771-1.885 4.234-1.77l-.095 2.054c-1.804-.078-2.265.618-2.417.848-1.075 1.626.148 5.599 1.173 7.723l.812 1.679-1.854-.21c-2.001-.226-3.64.169-4.88 1.182-2.232 1.828-3.22 6.833-3.22 6.833l-.013.009Zm16.146 2.943-5.35.008c15.905-4.038 17.708-18.792 17.725-18.94l2.203.539c-.016.165-2.08 13.663-14.583 18.393h.005Z"/>
  <path fill="#F8D181" d="M76.31 369.289c3.254-2.038 7.475-18.175 7.475-18.175s-5.053-2.745-8.834-1.91c0 0 .601 12.613-2.38 19.13-.305.667-1.12 1.564-1.45 1.963 0 0 1.936 1.029 5.19-1.008Z"/>
  <path fill="#E1737B" d="M76.253 369.375c.219-.136.503-.432.73-.687-1.854-1.634-3.732-2.03-3.76-2.03-.182.474-.503 1.371-.709 1.795 0 .004-.72 1.206-1.56 1.993 0 0 2.046.971 5.3-1.067v-.004Z"/>
  <path fill="#F8D181" d="M126.179 369.408c3.254-2.037 5.465-18.561 5.465-18.561-2.17-.486-6.185-1.037-10.39.177 0 0 2.479 8.813 1.927 16.326-.222 3.001-1.132 3.244-1.598 3.647 0 0 1.339.449 4.592-1.589h.004Z"/>
  <path fill="#3D9FD4" d="m73.698 365.016-.165.626c-.095.325-.33 1.111-.412 1.321.029 0 2.01.095 3.863 1.729.111-.128.227-.268.338-.42.214-.292.432-.626.65-1-2.108-2.071-4.138-2.248-4.274-2.252v-.004Zm2.375-13.901c1.956.008 3.674.551 6.091 1.613.206.087.824.424 1.034.523a194.6 194.6 0 0 0 .589-2.136c-3.048-1.462-5.255-1.939-6.7-2.05-.726-.046-1.45-.013-2.13.135 0 0 .033.898.045 2.092v-.145s.375-.07 1.071-.037v.005Z"/>
  <path fill="#E1737B" d="M124.259 370.442c-.956-.35-1.676-.42-1.796-.433-.057.099-.115.202-.177.288-.193.276-.42.49-.667.655l-.037.041s.807.264 2.673-.556l.004.005Z"/>
  <path fill="#3D9FD4" d="M131.352 352.93c.128-.844.292-2.087.292-2.087-2.17-.486-6.185-1.037-10.39.177 0 0 .292 1.21.445 2.025 0 0 4.587-1.058 9.649-.119l.004.004Zm-4.872 16.256c-1.779-1.054-3.204-1.14-3.365-1.149-.189.824-.337 1.441-.646 1.98.119.009.84.083 1.795.433a14.268 14.268 0 0 0 1.919-1.034c.099-.061.198-.14.297-.226v-.004Z"/>
  <path fill="#F8D181" d="M60.54 364.484c.429-.608.355-1.398-.166-1.765-.52-.367-1.29-.172-1.718.435-.43.608-.355 1.398.165 1.765s1.29.172 1.719-.435Zm52.484.871c.429-.607.355-1.397-.165-1.764-.521-.367-1.29-.173-1.719.435-.429.607-.355 1.397.165 1.764.521.367 1.29.173 1.719-.435Z"/>
  <path fill="#0779B9" d="M80.351 375.645a.98.98 0 1 0 0-1.96.98.98 0 0 0 0 1.96Zm8.259-7.813a.98.98 0 1 0-.001-1.96.98.98 0 0 0 0 1.96Zm41.265 9.307a.98.98 0 1 0 0-1.96.98.98 0 0 0 0 1.96Zm10.55-8.352a.98.98 0 1 0 .001-1.961.98.98 0 0 0-.001 1.961Z"/>
</svg>
