<svg xmlns="http://www.w3.org/2000/svg" width="250" height="414" fill="none" viewBox="0 0 250 414">
  <path fill="#E6883C" d="M150.483 359.838s1.281-6.739 9.884-6.739v25.102h-42.678s-1.367-7.903 6.932-12.551l-2.92-12.321s5.638-.181 8.43 5.953c0 0-1.195-9.085 3.422-11.176a1.97 1.97 0 0 1 2.129.333c1.454 1.301 4.123 4.569 3.867 10.843 0 0 2.327-6.805 7.269-8.093a1.94 1.94 0 0 1 1.985.654c.906 1.128 2.129 3.524 1.676 7.99l.004.005Zm-43.143 18.359 1.981-21.076s-7.565-.774-11.4 5.849c0 0 0-5.31-2.808-7.969a1.566 1.566 0 0 0-1.684-.301c-1.85.774-6.034 2.993-7.022 7.574 0 0 .19-8.105-3.146-11.62-.569-.597-1.553-.49-2.002.201a14.527 14.527 0 0 0-2.183 9.909s-1.214-6.29-3.978-6.982v6.974s-11.02-.264-12.301 17.363l44.535.074.008.004Z"/>
  <path fill="#B55634" d="M141.903 365.082c-.902 1.054-2.541 2.836-1.227 4.022.902.551 2.982-1.589 3.707-2.231l1.4-1.363-.457 1.77c-.449 1.778-.754 3.861.024 5.582.49 1.149 1.759 1.095 2.467.181 1.82-2.346 1.759-6.397 2.208-9.225.72 2.223 1.42 5.767 2.771 7.682.606.913 1.771 1.185 2.059-.124.21-.819.182-1.799.103-2.746l.157-.045c.21.445.379.91.498 1.391.577 1.894-.14 4.113-2.52 3.565-2.142-.807-2.982-3.19-3.558-5.186l1.717-.103c-.247 1.383-.618 2.667-1.252 3.939-.741 1.671-2.928 3.441-4.621 1.852-.729-.81-.856-1.93-.968-2.939a36.635 36.635 0 0 1-.131-3.989l.943.408c-1.005 1.465-2.426 3.252-4.448 3.096-1.03-.153-1.734-1.17-1.767-2.157-.02-1.19.721-2.075 1.557-2.742a5.921 5.921 0 0 1 1.248-.77l.094.136-.004-.004Zm-50.067 1.424c-.79 2.087-3.504 6.245.02 6.969.528.07 1.084-.218 1.471-.671 1.264-1.477 1.1-3.89 1.26-5.713l.951 2.247c.429.955.845 2.05 1.61 2.721.437.379.734.177 1.12-.053.759-.474.886-1.494.771-2.322l-.305-2.326c1.03 1.099 2.22 2.956 3.839 3.174.304.025.626-.078.914-.296l.123.107c-.663 1.226-2.376.864-3.373.292a6.177 6.177 0 0 1-1.02-.667l1.119-.7c.56 1.437.293 3.277-1.054 4.183-2.747 1.939-4.592-1.532-4.83-3.857l1.095-.038c-.647 1.758-1.586 4.257-3.645 4.673-1.643.276-3.414-.881-3.29-2.668.156-2.149 1.503-3.878 3.097-5.166l.127.103v.008Zm-23.431 11.629a11.092 11.092 0 0 1-.297-4.639c.116-1.606.931-3.273 2.484-3.935l.09.086a40.71 40.71 0 0 1-1.202 3.067c-.783 1.663-.989 3.569-.952 5.401l-.119.024-.004-.004Zm7.117 0a11.09 11.09 0 0 1-.296-4.639c.115-1.606.93-3.273 2.483-3.935l.09.086a40.71 40.71 0 0 1-1.202 3.067c-.782 1.663-.988 3.569-.951 5.401l-.12.024-.004-.004Zm49.57 0a11.088 11.088 0 0 1-.296-4.639c.115-1.606.931-3.273 2.483-3.935l.091.086a40.924 40.924 0 0 1-1.203 3.067c-.782 1.663-.988 3.569-.951 5.401l-.119.024-.005-.004Zm7.122.009c-.498-1.083-.655-2.31-.51-3.499.033-1.256.609-2.491 1.832-3.022l.099.074c-.078 1.165-.515 2.108-.964 3.149-.321 1.042-.461 2.161-.337 3.261l-.116.041-.004-.004Z"/>
  <path fill="#B55634" d="M92.184 378.123s15.439-.313 17.136-21.002l-1.981 21.076-15.155-.074Zm5.739-12.28s.622-7.553-2.809-10.838c0 0-.758-.725-1.684-.301 0 0 3.018 2.964 4.493 11.139Zm-15.087-15.478s3.266 1.454 3.575 11.914c0 0-.466 1.041-1.162 1.955 0 0 .836-6.138-2.409-13.869h-.004Zm77.533 2.73s.737 25.645-12.017 25.028l12.017.074v-25.102Zm-10.007 9.068s1.24-7.866-1.832-10.587c0 0-.807-.885-2.475-.132 0 0 3.146 4.405 4.307 10.719Zm-15.577-14.181s2.109.23 3.925 5.113c1.816 4.882.28 10.423.28 10.423s-.523-10.613-4.205-15.532v-.004Z"/>
  <path fill="#EFAE42" d="M65.05 375.431c.347-2.779 1.137-5.537 2.5-7.998.697-1.235 1.467-2.557 2.743-3.405 1.228-.86 2.8-1.329 4.25-1.045l.021.164c-.647.325-1.227.638-1.767.992-1.556 1.132-2.957 2.454-4.126 3.993-.762 1.087-1.413 2.273-1.985 3.503a28.637 28.637 0 0 0-1.47 3.829l-.161-.029-.004-.004Zm23.2-11.963a9.61 9.61 0 0 1 1.186-3.807c.502-1.1 1.413-2.1 2.652-2.347.177-.033.354-.066.536-.07l.057.107c-.741 1.169-1.515 1.89-2.421 2.853a12.944 12.944 0 0 0-1.886 3.285l-.12-.025-.004.004Zm2.658 8.204c-.276-.86-.099-1.798.17-2.638.135-.424.25-.873.518-1.231.272-.354.589-.675 1.021-.897l.066.049a2.935 2.935 0 0 1-.152.667c-.288 1.017-1.063 1.778-1.339 2.807-.131.391-.226.807-.21 1.223l-.078.025.004-.005Zm28.053 5.862c.399-4.445 3.34-11.085 8.797-9.957l.02.164c-.548.321-1.062.56-1.544.857-1.38.88-2.731 1.757-3.871 2.943-1.504 1.733-2.558 3.824-3.237 6.022l-.161-.024-.004-.005Zm22.328-17.334a9.6 9.6 0 0 1 1.186-3.808c.503-1.099 1.413-2.099 2.652-2.346.177-.033.354-.066.536-.07l.057.107c-.741 1.169-1.515 1.889-2.421 2.852a12.93 12.93 0 0 0-1.886 3.285l-.12-.024-.004.004Zm-.676 8.208c.025-.901.507-1.729 1.042-2.433.268-.358.527-.737.902-.988.375-.243.783-.44 1.26-.506l.05.066a2.77 2.77 0 0 1-.367.576c-.609.865-1.594 1.322-2.199 2.202-.255.326-.482.688-.605 1.087h-.083v-.004Z"/>
</svg>
