<svg xmlns="http://www.w3.org/2000/svg" width="250" height="414" fill="none" viewBox="0 0 250 414">
  <g clip-path="url(#a)">
    <path fill="#54A1A0" d="m136.945 351.466 23.608-7.479L161 378h-46.35s-1.755-.924-1.755-1.573v-9.862s.293-2.894 3.974-3.309l4.563-12.602-1.226-6.148s.166-1.263 1.143-1.38c.977-.118 12.197-.197 13.522 0 1.325.196 1.557 1.89 1.52 2.321-.038.431.554 6.023.554 6.023v-.004Z"/>
    <path fill="#EFAE42" d="M134.258 376.222s5.713-4.68 6.633-7.119c.919-2.438 2.244-5.236 5.908-5.55 3.664-.314 9.365-.196 13.956-4.212l.096 7.311-26.593 9.57Z"/>
    <path fill="#F2E1D6" d="m160.825 365.009.17 12.991h-46.35s1.13-.707 1.362-1.811c.232-1.104.157-3.622 1.714-4.015 1.556-.394 7.792-.159 7.792-.159s1.792.159 1.871 1.259c0 0 .778 4.015 3.975 3.781 3.196-.235 29.462-12.046 29.462-12.046h.004Z"/>
    <path fill="#B23431" d="M155.76 367.263 152.41 378h8.591l-.174-12.991-5.067 2.254Z"/>
    <path fill="#F2E1D6" d="M158.557 370.137h2.339v2.334h-2.286a.503.503 0 0 1-.501-.506v-1.368c0-.251.203-.456.452-.456l-.004-.004Z"/>
    <path fill="#EFAE42" d="M116.869 363.256s-3.08-.138-3.974 3.309v2.568h18.821c1.3 0 2.53-.569 3.387-1.556a11.58 11.58 0 0 0 1.403-2.016c1.247-2.284 6.795-15.359 6.795-15.359h-2.414l-3.942 1.264-20.076 11.79Z"/>
    <path fill="#B23431" d="M116.87 363.256s-.311 2.502 1.403 2.502h10.21s1.52-.08 1.635-1.025c.116-.945 6.828-13.267 6.828-13.267l-.555-6.023s.352-2.447-2.53-2.443c-2.881.004-12.507.121-12.507.121s-.92.088-1.143 1.381l1.031 6.692-4.368 12.062h-.004Z"/>
    <path fill="#BE7239" d="M139.046 357.327c.783-.946.729-2.296-.122-3.014-.851-.719-2.176-.535-2.959.412-.783.946-.728 2.296.122 3.014.851.719 2.176.535 2.959-.412Z"/>
    <path fill="#9A2C29" d="M119.321 356.493s.443-1.51 1.714-2.083l11.327-2.551 2.369 2.037-.116 1.978-1.872 3.279-2.5 5.22s.008 1.225-1.756 1.384c-1.764.159-10.21 0-10.21 0s-1.784.159-1.403-2.501c0 0 .525-2.296 1.929-2.756l.522-4.007h-.004Z"/>
    <path fill="#BE7239" d="M136.155 363.557c.784-.947.729-2.296-.122-3.015-.851-.719-2.175-.534-2.959.412-.783.947-.728 2.296.123 3.015.851.719 2.175.534 2.958-.412Z"/>
    <path fill="#F2E1D6" d="M117.397 361.876s-2.223-1.334-1.639-3.283c.584-1.949 2.513-2.067 2.513-2.067l9.825-.297s2.741 0 4.144 1.063c1.404 1.062 3.627 3.25 3.453 4.413-.174 1.162-1.519 2.183-2.923.966-.757-.661-1.875-2.782-3.863-2.723-1.987.058-9.779.414-10.11.552-.7.284-1.4 1.376-1.4 1.376Z"/>
    <path fill="#F2E1D6" d="M119.597 355.82s-2.277-1.368-1.681-3.363c.596-1.995 2.575-2.117 2.575-2.117l10.065-.301s2.807 0 4.244 1.088c1.437 1.087 3.705 3.321 3.527 4.513-.178 1.192-1.556 2.238-2.993.987-.774-.673-1.913-2.836-3.946-2.777-2.033.058-10.015.426-10.359.564-.72.293-1.432 1.41-1.432 1.41v-.004Z"/>
    <path fill="#CD3F3C" d="M120.852 348.68s.05-2.133 1.747-3.078c1.698-.946 6.194-2.602 6.194-2.602s-7.084.029-7.444.121c-.36.092-1.183.312-1.349 1.379l.848 4.18h.004Z"/>
    <path fill="#9A2C29" d="M134.258 343s2.161-.138 2.132 2.443l.555 6.023-.563 1.037-1.582-1.376-.542-8.127Z"/>
    <path fill="#3A8089" d="M143.305 350.202s.923.891 1.155 1.661c.232.769 3.966 5.726 3.966 5.726l12.28-3.208v-3.76l-17.405-.419h.004Z"/>
    <path fill="#B23431" d="M140.891 350.198s2.869-.284 3.685.423c.815.707 3.391 5.253 4.09 5.253.7 0 12.04-5.253 12.04-5.253l-.157-6.634-19.662 6.211h.004Z"/>
    <path fill="#CD3F3C" d="m144.575 350.621 16.019-4.781-.041-1.853-19.662 6.211 3.684.423Z"/>
    <path fill="#F8D181" d="M116.49 365.582a.983.983 0 0 0-.257-.406c-.236-.217-.546-.38-.878-.368-.111.017-.219.029-.331.046a1.215 1.215 0 0 0-.546.322c-.154.121-.274.293-.381.448a2.163 2.163 0 0 0-.245.543.985.985 0 0 0-.02.502.96.96 0 0 0 .149.469.956.956 0 0 0 .319.351c.12.113.26.184.422.226.319.071.675.059.956-.126l.253-.196a1.31 1.31 0 0 0 .24-.36c0-.008.008-.017.012-.025.017-.017.034-.038.054-.054a.935.935 0 0 0 .257-.406.968.968 0 0 0 .108-.485.934.934 0 0 0-.108-.485l-.004.004Z"/>
    <path fill="#54A1A0" d="m88.028 352.214 22.941-7.269.435 33.051H64.706s-1.706-.9-1.706-1.531v-7.09s1.942-5.307 5.519-5.709l19.513-11.456-.004.004Z"/>
    <path fill="#EFAE42" d="M85.414 376.273s5.552-4.547 6.442-6.918c.89-2.372 2.182-5.086 5.739-5.396 3.56-.305 9.1-.188 13.563-4.091l.095 7.107-25.839 9.302v-.004Z"/>
    <path fill="#B23431" d="m105.895 368.903-2.84 9.097h8.351l-.166-11.03-5.345 1.933Z"/>
    <path fill="#F2E1D6" d="M109.033 370.358h2.273v2.267h-2.224a.491.491 0 0 1-.488-.493v-1.33c0-.243.194-.444.439-.444Z"/>
    <path fill="#EFAE42" d="M66.221 362.55s-2.352.991-3.221 4.337v2.493h17.464a4.35 4.35 0 0 0 3.291-1.514c.456-.527.944-1.184 1.366-1.958 1.214-2.217 9.088-14.923 9.088-14.923h-2.343l-4.41.874-21.235 10.691Z"/>
    <path fill="#B23431" d="M65.159 363.67s-1.313 1.473.356 1.473c1.668 0 11.145-.138 11.145-.138s1.756-.611 2.203-1.514c.41-.829 8.595-11.632 8.595-11.632l-.012-5.5s.34-2.38-2.464-2.372c-2.803.004-10.243.117-10.243.117l.228 8.227-9.808 11.339Z"/>
    <path fill="#9A2C29" d="M65.159 363.67s-1.313 1.473.356 1.473c1.668 0 11.145-.138 11.145-.138s1.756-.611 2.203-1.515c.41-.828 8.595-11.631 8.595-11.631l-3.138 4.161s-1.118-2.133-3.917-2.129c-2.803.005-5.664 0-5.664 0l.228-1.56-9.808 11.339Z"/>
    <path fill="#BE7239" d="M87.367 359.488c.76-.919.708-2.231-.118-2.929-.826-.697-2.113-.518-2.875.402-.76.92-.708 2.231.118 2.929s2.113.518 2.874-.402Zm-2.934 6.075c.761-.92.708-2.231-.118-2.929s-2.113-.518-2.874.402c-.761.919-.709 2.231.117 2.929.827.697 2.114.518 2.875-.402Z"/>
    <path fill="#3A8089" d="M94.207 350.985s.894.865 1.122 1.61c.228.744 3.855 5.567 3.855 5.567l11.936-3.12v-3.652l-16.913-.405Z"/>
    <path fill="#B23431" d="M91.864 350.98s2.786-.276 3.58.41c.796.686 3.296 5.107 3.975 5.107.679 0 11.701-5.107 11.701-5.107l-.153-6.445-19.108 6.035h.005Z"/>
    <path fill="#CD3F3C" d="m95.445 351.394 15.567-4.646-.041-1.803-19.108 6.035 3.582.414Z"/>
    <path fill="#F8D181" d="M66.396 366.439a.975.975 0 0 0-.257-.405c-.236-.218-.546-.381-.877-.369-.112.017-.22.03-.332.046a1.219 1.219 0 0 0-.546.323c-.153.121-.273.292-.381.447a2.143 2.143 0 0 0-.244.544.984.984 0 0 0-.021.502.96.96 0 0 0 .15.468.96.96 0 0 0 .318.352.94.94 0 0 0 .422.225c.319.071.675.059.957-.125l.252-.197c.104-.104.178-.23.24-.359 0-.009.008-.017.013-.025.016-.017.033-.038.053-.055a.93.93 0 0 0 .257-.406.966.966 0 0 0 .108-.485.938.938 0 0 0-.108-.485l-.004.004Z"/>
    <path fill="#F2E1D6" d="M65.158 363.671s-1.768-1.092-1.184-3.041c.584-1.949 2.513-2.066 2.513-2.066l9.825-.297s2.74 0 4.144 1.062 3.627 3.25 3.453 4.413c-.174 1.162-1.52 2.183-2.923.966-.758-.661-1.876-2.782-3.863-2.723-1.987.058-9.78.414-10.11.552-.7.284-1.855 1.129-1.855 1.129v.005Z"/>
    <path fill="#F2E1D6" d="M70.216 357.81s-2.198-1.317-1.602-3.312c.596-1.995 2.575-2.117 2.575-2.117l7.581-.301s2.807 0 4.244 1.088c1.437 1.087 3.706 3.321 3.528 4.513-.178 1.192-1.557 2.238-2.994.987-.774-.673-1.913-2.836-3.945-2.777-2.033.058-7.532.426-7.875.564-.72.293-1.511 1.36-1.511 1.36v-.005Zm35.677 11.093-2.84 9.097H64.706s-.746-.464-.986-.627c-.716-.49-.716-.904-.716-.904v-3.844h6.115s.994-.021 1.168.829c.173.849 1.358 4.153 3.602 4.211 2.244.059 32.008-8.762 32.008-8.762h-.004Z"/>
    <path fill="#97CFD0" d="M64.664 369.38H63v3.245h1.664v-3.245Zm49.895-.251h-1.665v7.294s-.058.218.282.527c.339.31 1.163.933 1.474 1.046l-.087-8.871-.004.004Z"/>
    <path fill="#CD3F3C" d="m74.734 344.104.228 8.227 1.85-.175v-8.081l-2.078.029Z"/>
  </g>
  <defs>
    <clipPath id="a">
      <path fill="#fff" d="M63 343h98v35H63z"/>
    </clipPath>
  </defs>
</svg>
