<svg xmlns="http://www.w3.org/2000/svg" width="250" height="414" fill="none" viewBox="0 0 250 414">
  <g clip-path="url(#a)">
    <path fill="#9098DD" d="M107.5 370.5c-2.5.328-5.777 1.191-7.318 1.104a1.191 1.191 0 0 1-.634-.228l-1.444-1.055s-.804-.208-1.677 1.018c-.162.227-.41.382-.688.423-4.508.629-15.48.916-21.282-2.047a4.187 4.187 0 0 1-2.079-2.395c-1.166-3.466 1.051-5.612 1.051-5.612s-1.074-3.648-.297-6.547c.266-.999 1.325-3.161 3.367-4.661 1-.734 4-2 7.84-1.647s5.937 1.498 9.167 3.58c3.005 1.937 3.412 4.155 6.645 6.297 2.979 1.972 5.047 2.189 6.38 1.902.857-.185 2.209.287 2.261 1.162.175 2.916-.339 6.005-1.292 8.706Z"/>
    <path fill="#9098DD" d="M100.592 356.463s7.459-7.507 9.162-10.051c.099-.149.329-.121.366.054.21.965.521 3.315-.59 5.962a.368.368 0 0 1-.082.124L102 360l-2.5-3.537h1.092Z"/>
    <path fill="#6773BA" d="M100.442 358.832c-.68-.45-1.31-.931-1.897-1.419a2.668 2.668 0 0 0-.49 3.111c.687 1.339 2.352 1.88 3.72 1.207a2.727 2.727 0 0 0 1.348-1.48c-.85-.34-1.75-.802-2.685-1.423l.004.004Z"/>
    <path fill="#A4AEEA" d="M100.147 361.439c1.532 0 2.774-1.216 2.774-2.717 0-1.5-1.242-2.717-2.774-2.717s-2.774 1.217-2.774 2.717c0 1.501 1.242 2.717 2.774 2.717Z"/>
    <path fill="#6773BA" d="M100.148 360.52c1.013 0 1.835-.805 1.835-1.798 0-.992-.822-1.797-1.835-1.797-1.014 0-1.835.805-1.835 1.797 0 .993.821 1.798 1.835 1.798Z"/>
    <path fill="#A4AEEA" d="M108.499 366.5c.5 1 .628 1.705.5 2.5-.104.636-.353 1.474-1.5 2-1.924.772-5.741.695-7.306.604a1.23 1.23 0 0 1-.657-.235l-.784-.571a1.553 1.553 0 0 0-2.067.212 3.35 3.35 0 0 0-.274.344.954.954 0 0 1-.645.401c-4.49.632-15.496.927-21.314-2.043a4.192 4.192 0 0 1-2.078-2.396 6.79 6.79 0 0 1-.162-.556c-.642-2.626.324-6.846.757-7.356 1 3.11 3.693 6.603 10.94 7.019 6.471.371 11.695-2.127 13.182-2.755l.259-.091c.626-.219 1.321 1.806 1.82 2.237.13.117.266.231.386.337 1.259 1.105 2.889 1.423 4.535 1.582 2.179.208 2.908 0 4.408-1.233Z"/>
    <path fill="#6773BA" d="M109 369c-.104.636-.232 1.512-1.5 2-1.885.753-5.49.706-7.205.608a1.614 1.614 0 0 1-.842-.299l-.7-.511a1.553 1.553 0 0 0-2.067.212 3.67 3.67 0 0 0-.243.302c-.185.254-.32.413-.626.5-4.265 1.223-12.56 2.698-21.363-2.1-.97-.53-1.731-1.363-2.079-2.396a6.75 6.75 0 0 1-.162-.556c8.101 4.882 14.761 4.999 23.604 2.982 1.184-1.242 2.936-1.367 3.844.045C103.5 370.5 105 370.5 109 369Zm-26.907-17.119c.56-.669.549-1.585-.026-2.046-.574-.461-1.493-.292-2.053.377-.56.669-.548 1.585.026 2.046.574.461 1.493.292 2.053-.377Zm6 1c.56-.669.549-1.585-.026-2.046-.574-.461-1.493-.292-2.053.377-.56.669-.548 1.585.026 2.046.574.461 1.493.292 2.053-.377Zm-4 4c.56-.669.549-1.585-.026-2.046-.574-.461-1.493-.292-2.053.377-.56.669-.548 1.585.026 2.046.574.461 1.493.292 2.053-.377Zm-7-2c.56-.669.549-1.585-.026-2.046-.574-.461-1.493-.292-2.053.377-.56.669-.548 1.585.026 2.046.574.461 1.493.292 2.053-.377Zm14.53 1.431c.56-.669.548-1.585-.026-2.046-.574-.461-1.494-.293-2.054.377-.56.669-.548 1.585.026 2.046.574.461 1.494.292 2.054-.377Z"/>
  </g>
  <g clip-path="url(#b)">
    <path fill="#9098DD" d="M158.501 371.5c-2.5.328-5.776 1.191-7.318 1.104a1.189 1.189 0 0 1-.633-.227l-1.445-1.056s-.804-.208-1.677 1.018a1.036 1.036 0 0 1-.687.424c-4.509.628-15.48.915-21.283-2.048a4.185 4.185 0 0 1-2.078-2.395c-1.167-3.466.621-7.82.621-7.82s-.937-3.567 0-5.5c1.257-2.594 3.276-3.424 6-4.5 1.636-.647 6.065-1 8.339-.647 2.274.354 5.943 1.43 8.661 4.147 2.5 2.5 3.897 5.562 4.151 5.73 2.979 1.972 5.048 2.19 6.381 1.902.856-.185 2.208.288 2.261 1.163.174 2.915-.339 6.004-1.293 8.705Z"/>
    <path fill="#9098DD" d="M153.25 358.793s5.546-8.117 6.956-11.059c.086-.181.37-.154.405.043.222 1.225.56 3.936-.121 6.648a.406.406 0 0 1-.063.135c-1.303 1.782-5.249 7.516-5.249 7.516l-3.007-3.118 1.079-.165Z"/>
    <path fill="#6773BA" d="M153.46 361.157a22.014 22.014 0 0 1-2.09-1.115 2.67 2.67 0 0 0-.014 3.149c.883 1.22 2.611 1.503 3.861.63a2.735 2.735 0 0 0 1.108-1.667 14.807 14.807 0 0 1-2.869-1l.004.003Z"/>
    <path fill="#A4AEEA" d="M153.565 363.779c1.514-.232 2.557-1.623 2.33-3.106-.227-1.483-1.639-2.498-3.153-2.266-1.514.233-2.558 1.623-2.33 3.106.227 1.484 1.639 2.498 3.153 2.266Z"/>
    <path fill="#6773BA" d="M153.425 362.87c1.002-.154 1.692-1.074 1.541-2.055-.15-.981-1.084-1.652-2.086-1.499-1.001.154-1.692 1.074-1.541 2.055.15.981 1.084 1.652 2.086 1.499Z"/>
    <path fill="#A4AEEA" d="M159.499 367.5c.5 1 .628 1.705.5 2.5-.104.636-.353 1.474-1.5 2-1.924.772-5.741.695-7.306.604a1.234 1.234 0 0 1-.657-.235l-.784-.571a1.553 1.553 0 0 0-2.067.212 3.476 3.476 0 0 0-.274.344.954.954 0 0 1-.645.401c-4.489.632-15.496.927-21.314-2.043a4.193 4.193 0 0 1-2.078-2.396 6.485 6.485 0 0 1-.162-.556c-.642-2.626.324-6.846.757-7.356 1 3.11 3.693 6.603 10.941 7.019 6.471.371 11.694-2.127 13.181-2.755l.259-.091c.626-.219 1.321 1.806 1.819 2.237.132.117.267.231.387.337 1.259 1.105 2.889 1.423 4.535 1.582 2.179.208 2.908 0 4.408-1.233Z"/>
    <path fill="#6773BA" d="M160 370c-.104.636-.232 1.512-1.5 2-1.885.753-5.49.706-7.205.608a1.613 1.613 0 0 1-.842-.299l-.7-.511a1.552 1.552 0 0 0-2.066.212c-.082.09-.163.189-.244.302-.185.254-.321.413-.626.5-4.265 1.223-12.559 2.698-21.363-2.1-.97-.53-1.731-1.363-2.079-2.396a6.485 6.485 0 0 1-.162-.556c8.101 4.882 14.761 4.999 23.604 2.982 1.183-1.242 2.936-1.367 3.844.045C154.5 371.5 156 371.5 160 370Zm-26.907-17.119c.56-.669.549-1.585-.025-2.046-.575-.461-1.494-.292-2.054.377-.56.669-.548 1.585.026 2.046.574.461 1.493.292 2.053-.377Zm7 1c.56-.669.549-1.585-.025-2.046-.575-.461-1.494-.292-2.054.377-.56.669-.548 1.585.026 2.046.574.461 1.493.292 2.053-.377Zm-5 5c.56-.669.549-1.585-.025-2.046-.575-.461-1.494-.292-2.054.377-.56.669-.548 1.585.026 2.046.574.461 1.493.292 2.053-.377Zm-7-3c.56-.669.549-1.585-.025-2.046-.575-.461-1.494-.292-2.054.377-.56.669-.548 1.585.026 2.046.574.461 1.493.292 2.053-.377Zm15 2c.56-.669.549-1.585-.025-2.046-.575-.461-1.494-.292-2.054.377-.56.669-.548 1.585.026 2.046.574.461 1.493.292 2.053-.377Z"/>
  </g>
  <defs>
    <clipPath id="a">
      <path fill="#fff" d="M72 346h40v27H72z"/>
    </clipPath>
    <clipPath id="b">
      <path fill="#fff" d="M123 347h40v27h-40z"/>
    </clipPath>
  </defs>
</svg>
