<svg xmlns="http://www.w3.org/2000/svg" width="250" height="414" fill="none" viewBox="0 0 250 414">
  <path fill="#A781B5" d="M159.472 378h-10.604v-3.656a.425.425 0 0 0-.625-.376l-4.536 2.419c-.504.414-4.008 1.613-4.661 1.613h-27.373a.97.97 0 0 1-.97-.974v-9.882c0-1.417.679-1.96.891-2.006 0 0 .607.334.899.69.291.355.766 3.242 5.348 3.242s7.579.531 10.284-1.299c2.705-1.831 13.572-9.498 13.572-9.498l.353-5.073s1.973 6.264 6.818 7.688c6.5 1.914 11.631-11.888 11.631-11.888l-.003 27.985a1.027 1.027 0 0 1-1.024 1.011V378Z"/>
  <path fill="#8670A8" d="M111.598 365.138s2.901-6.638 10.401-10.638l-1.5-7.5s1.291-.933 2.581-.871c1.29.063 17.035 1.442 17.563 2.767.795 1.993 1.411 4.308 1.411 4.308l-.353 5.073-13.156 9.498s-2.227 1.395-5.465 1.358c-3.238-.038-4.911.021-6.538-.151-3.608-.38-4.94-3.844-4.94-3.844h-.004Z"/>
  <path fill="#A781B5" d="m121.501 352.5-.587-4.879s.92-1.55 2.21-1.491c1.29.058 16.785 1.47 17.563 2.766 1.103 1.838 1.411 4.308 1.411 4.308l-.437 6.314s-19.286-3.757-20.876-4.935l.716-2.083Z"/>
  <path fill="#6568A0" d="M138.236 360.579s4.091-6.146 3.862-7.375c-.229-1.229-.591-2.704-1.003-3.569-.412-.865-.541-.856-.541-.856s-1.028 8.796-4.944 8.854c-3.917.059.312-3.426-7.658-3.368-7.97.059 10.284 6.314 10.284 6.314Z"/>
  <path fill="#CEBCD9" d="M116 359s-.851-3.051.493-3.966c.753-.514 4.116-2.591 4.566-2.595.449-.004 10.492.059 12.727.765 2.235.706 5.589 2.766 7.916 5.691 2.326 2.925 4.199 4.555 4.191 6.289 0 .748-.824 2.921-2.701 3.865-1.877.945-3.996-.175-4.583-.944-.586-.769-4.411-7.643-5.764-8.587-1.352-.945-6.525-3.103-14.345-2.518l-2.5 2Z"/>
  <path fill="#8670A8" d="M141.823 367.073a2.269 2.269 0 0 0 2.264-2.273 2.268 2.268 0 0 0-2.264-2.273 2.268 2.268 0 0 0-2.264 2.273 2.268 2.268 0 0 0 2.264 2.273Z"/>
  <path fill="#DCDBDB" d="M141.448 366.663a2.268 2.268 0 0 0 2.264-2.273 2.269 2.269 0 0 0-2.264-2.273 2.268 2.268 0 0 0-2.264 2.273 2.268 2.268 0 0 0 2.264 2.273Z"/>
  <path fill="#6568A0" d="M148.87 378v-3.727a.388.388 0 0 0-.562-.347c-1.14.581-3.991 1.997-8.386 3.932l8.948.142Z"/>
  <path fill="#BE9BC4" d="M121.5 352.5s4.307-4.549 18.062-4.156c0 0-1.918-.568-6.413-1.161-2.318-.305-9.302-1.024-9.302-1.024a6.801 6.801 0 0 1-.762-.084c-.399-.062-2.085-.075-2.585.925l1 5.5Z"/>
  <path fill="#6568A0" d="m135.376 362.861 2.959 4.726s1.819 3.071 5.315.769c0 0 1.981-1.279 2.243-3.168 0 0 .4 4.024-4.178 4.831-3.118.551-5.086-3.665-5.086-3.665l-1.969-2.988.716-.501v-.004Z"/>
  <path fill="#BE9BC4" d="M112.375 368.811c3.093 3.08 7.908 2.069 11.804 1.697 1.373-.134 2.742-.276 4.128-.489l.029.079c-2.555 1.283-5.456 1.513-8.257 1.5-1.415.013-2.851-.108-4.216-.514-1.348-.409-2.684-1.086-3.558-2.227l.07-.046Z"/>
  <path fill="#A781B5" d="m115.017 378-5.517-.003-8 .003c0-.322.279-3.65 0-3.5L100 376c-.504.414-2.258 2-2.912 2l-31.118-.418a.97.97 0 0 1-.97-.973v-9.883c0-1.417.936-2.273 1.149-2.315 0 0 .766 1.061 1.057 1.417.291.355.766 3.242 5.348 3.242s4.873-.184 8.09-1.546c3.005-1.27 13.893-9.469 13.893-9.469l2.226-4.855s1.973 6.264 6.818 7.688C106.5 362.5 110 352 110 352l-.5 25.997-4.5-.001 10.017.004Z"/>
  <path fill="#8670A8" d="M66.148 364.411s.005-5.911 9.344-9.97l.145-6.953s.862-1.417 2.152-1.359c1.29.059 17.035 1.442 17.563 2.767.795 1.993 1.411 4.308 1.411 4.308l-3.82 7.375-11.354 7.196s-2.227 1.395-5.465 1.358c-3.237-.038-3.246.021-4.873-.151-3.608-.38-5.098-4.571-5.098-4.571h-.005Z"/>
  <path fill="#A781B5" d="M75 357.5v-10s1.54-1.429 2.831-1.37c1.29.058 16.785 1.471 17.563 2.766 1.103 1.839 1.411 4.308 1.411 4.308l-.437 6.314s-19.286-3.757-20.876-4.935L75 357.5Z"/>
  <path fill="#6568A0" d="M92.943 360.579s4.09-6.146 3.862-7.375c-.229-1.229-.591-2.704-1.003-3.569-.412-.865-.541-.856-.541-.856s-1.028 8.796-4.944 8.854c-3.917.059.312-3.426-7.658-3.368-7.97.059 10.284 6.314 10.284 6.314Z"/>
  <path fill="#CEBCD9" d="M70.154 357.652s-.144-1.151.696-1.498c.841-.347 4.204-1.834 4.64-1.91 3.967-.689 15.088.448 17.098 1.651s2.834 2.72 3.854 6.356c1.015 3.635 2.526 6.021 2.014 7.354-.266.698-1.469 2.654-3.513 3.138-2.043.485-3.85-1.095-4.245-1.976-.395-.882-1.277-8.65-2.38-9.878-1.103-1.229-11.638-3.885-18.164-3.237Z"/>
  <path fill="#8670A8" d="M94.537 370.951a2.269 2.269 0 0 0 2.265-2.274 2.269 2.269 0 0 0-2.265-2.273 2.269 2.269 0 0 0-2.264 2.273 2.269 2.269 0 0 0 2.264 2.274Z"/>
  <path fill="#DCDBDB" d="M94.264 370.466a2.269 2.269 0 0 0 2.264-2.273 2.269 2.269 0 0 0-2.264-2.274A2.269 2.269 0 0 0 92 368.193a2.269 2.269 0 0 0 2.264 2.273Z"/>
  <path fill="#6568A0" d="M102 378v-3.622c0-.281-.157-.463-.291-.337-.59.564-2.435 2.075-4.709 3.959h5Z"/>
  <path fill="#BE9BC4" d="M75 351.5s5.52-3.548 19.275-3.156c0 0-2.789-1.625-7.284-2.219C84.673 345.82 78.5 346 78.5 346c-.254-.008-.5 0-.702.075-.4-.062-1.886.034-2.798 1.425v4Z"/>
  <path fill="#6568A0" d="m89.13 362.94 1.495 7.175s1.07 3.405 4.998 1.972c0 0 2.027-.443 2.718-2.219 0 0-.341 3.661-4.978 3.393-3.159-.183-3.85-4.93-3.85-4.93l-.857-5.077.479-.305-.004-.009Z"/>
  <path fill="#BE9BC4" d="M67.086 368.811c3.093 3.08 7.908 2.069 11.803 1.697 1.374-.134 2.743-.276 4.129-.489l.03.079c-2.556 1.283-5.457 1.513-8.258 1.5-1.415.013-2.85-.108-4.216-.514-1.348-.409-2.684-1.086-3.558-2.227l.07-.046Zm51.549-2.925c-.683 1.191-2.431 1.12-3.571.46-1.14-.661-1.477-3.038-.795-4.229.683-1.191 2.689-1.956 3.829-1.295 1.141.66 1.22 3.877.537 5.064Zm-45.059 0c-.682 1.191-2.43 1.12-3.57.46-1.14-.661-1.478-3.038-.795-4.229.682-1.191 2.688-1.956 3.829-1.295 1.14.66 1.219 3.877.536 5.064Z"/>
</svg>
