<svg xmlns="http://www.w3.org/2000/svg" width="250" height="414" fill="none" viewBox="0 0 250 414">
  <path fill="#EFAE42" fill-rule="evenodd" d="M85.594 364.619s17.552 1.786 23.487-6.747c0 0 .585-.416.819 0 .235.416-3.838 19.919-3.838 19.919H87.979l-5.58-4.688 3.195-8.484Z" clip-rule="evenodd"/>
  <path fill="#1E1E1E" fill-rule="evenodd" d="M107.989 368.336c1.096-5.409 2.039-10.234 1.911-10.464-.23-.416-.819 0-.819 0-5.935 8.533-28.429 6.631-28.429 6.631l1.042 4.245c8.945 0 17.528.131 26.291-.412h.004Zm-25.591 4.767h23.837l-.236 4.897H87.436l-5.038-4.897Z" clip-rule="evenodd"/>
  <path fill="#C59980" fill-rule="evenodd" d="M69.67 378s-3.436-14.081 5.678-19.371h5.308s-.716 3.936-1.046 5.525c0 0 6.84.349 7.5.522 0 0-1.277 3.536-3.402 7.348 0 0 .942 1.522 4.29 5.976H69.67Z" clip-rule="evenodd"/>
  <path fill="#1E1E1E" fill-rule="evenodd" d="M69.174 369.283c-.548 4.462.504 8.717.504 8.717h9.324c-.165-4.73-5.158-8.697-9.832-8.717h.004Z" clip-rule="evenodd"/>
  <path fill="#DDB6A2" fill-rule="evenodd" d="M78.463 358.629h-3.15c-9.11 5.29-5.68 19.162-5.68 19.162h3.15s-3.434-13.872 5.68-19.162Z" clip-rule="evenodd"/>
  <path fill="#575858" fill-rule="evenodd" d="M72.24 369.818a9.572 9.572 0 0 0-3.067-.535c-.111.901-.16 1.786-.17 2.626 0 3.33.498 6.091.498 6.091h3.5s-1.123-3.893-.764-8.182h.004Z" clip-rule="evenodd"/>
  <path fill="#C95B80" fill-rule="evenodd" d="M98.309 377.791s.523-9.591 10.089-11.312L106 378h-7.691v-.209Z" clip-rule="evenodd"/>
  <path fill="#EFAE42" fill-rule="evenodd" d="M135.017 363.602s18.907 1.926 25.299-7.27c0 0 .107-.617.358-.169.251.449-3.612 21.628-3.612 21.628h-19.479l-6.013-5.05 3.443-9.139h.004Z" clip-rule="evenodd"/>
  <path fill="#1E1E1E" fill-rule="evenodd" d="M160.405 367.653c-.078-6.155.408-11.238.268-11.49-.251-.444-.358.169-.358.169-6.392 9.196-30.62 7.146-30.62 7.146l1.125 4.158c9.636 0 20.146.601 29.585.017ZM132 373h25l-.18 5h-19.636L132 373Z" clip-rule="evenodd"/>
  <path fill="#C59980" fill-rule="evenodd" d="M118 378s-3.407-14.777 5.035-20.585l5.317-.235.218 5.92s4.501.296 8.5.555c0 0-1.787 5.245-3.562 8.629 0 0 .932 1.579 3.992 5.716H118Z" clip-rule="evenodd"/>
  <path fill="#1E1E1E" fill-rule="evenodd" d="M117.499 367.5c-1.221 5.857.294 10.5.294 10.5h11.206c-.204-6.116-4.818-10.47-10.5-10.5h-1Z" clip-rule="evenodd"/>
  <path fill="#C95B80" fill-rule="evenodd" d="M153.5 378s.825-9.545 6.908-11.22V378H153.5Z" clip-rule="evenodd"/>
  <path fill="#DDB6A2" fill-rule="evenodd" d="m126.201 357.275-3.167.14c-8.57 6.072-5.3 20.376-5.3 20.376l3.265.209s-4.534-15.073 5.202-20.725Z" clip-rule="evenodd"/>
  <path fill="#575858" fill-rule="evenodd" d="M120.115 367.632c-1.145-.276-1.561-.309-2.669-.317-.28 1.247-.383 3.293-.391 4.186 0 3.561.445 6.499.445 6.499h3.5s-1.273-5.782-.885-10.368Z" clip-rule="evenodd"/>
</svg>
