<svg xmlns="http://www.w3.org/2000/svg" width="250" height="415" fill="none" viewBox="0 0 250 415">
  <path fill="#DD565B" d="M80.804 349.591s15.052 3.545 29.153-.652c.231-.103-.078 21.288-.078 21.288s-20.295 5.414-38.831.19c-.766-.152-3.002-3.841-2.875-4.609.404-2.612 1.73-7.25 6.565-9.524l.338-7.778 5.736 1.089-.008-.004Z"/>
  <path fill="#E1737B" d="M70.652 358.797s4.184.161 6.87 1.453l1.157-2.996s-3.324-1.056-5.63-.289c0 0-1.503.747-2.397 1.836v-.004Zm4.112-4.077 4.526.202 1.52-5.327-5.737-1.089-.31 6.218v-.004Z"/>
  <path fill="#FBEFF0" d="M86.932 370.001c-2.318-13.353-12.33-12.313-13.845-12.474 0 0-.363 0-.935-.008-3.88 2.376-4.34 8.809-4.34 9.412-.129.78-.199 2.158 1.737 3.483 2.735 1.873 7.059 2.62 12.013 2.678 13.253.157 25.537-.017 28.194-.062a.54.54 0 0 0 .531-.541v-2.5a.544.544 0 0 0-.568-.541c-22.066 1.007-22.787.557-22.787.557v-.004Z"/>
  <path fill="#B13B32" d="M86.505 362.721a2.176 2.176 0 0 0 2.178-2.183 2.176 2.176 0 0 0-2.178-2.183 2.176 2.176 0 0 0-2.179 2.183c0 1.209.972 2.183 2.179 2.183Z"/>
  <path fill="#B13B32" d="M73.053 356.965s4.703-1.589 11.284 3.144l.28-.788-3.756-3.272-4.135-.219s-1.194-.545-3.673 1.139v-.004Z"/>
  <path fill="#FBEFF0" d="M103.763 365.432c2.537-.301 4.333-2.867 3.999-5.723-.337-2.868-2.664-4.947-5.213-4.642-2.537.301-4.333 2.868-4 5.723.338 2.868 2.665 4.948 5.214 4.642Zm-17.106-4.158c-.338 0-.671-.141-.894-.429-2.64-3.24-6.453-4.82-9.048-4.948-1.112-.045-1.762.173-1.98.384a1.157 1.157 0 1 1-1.635-1.638c.778-.78 2.075-1.152 3.73-1.069 2.888.14 7.426 1.741 10.729 5.793a1.167 1.167 0 0 1-.89 1.907h-.012Z"/>
  <path fill="#DD565B" d="M127.431 349.591s18.841 3.545 32.938-.652c.231-.103-.218 21.288-.218 21.288s-23.944 5.414-42.484.19c-.766-.152-3.002-3.841-2.875-4.609.404-2.612 4.345-7.787 9.18-10.06l-2.282-7.242 5.737 1.089.004-.004Z"/>
  <path fill="#E1737B" d="M118.108 358.797s4.184.161 6.869 1.453l1.157-2.996s-2.981-1.444-5.288-.681c0 0-1.849 1.139-2.742 2.224h.004Zm5.255-3.99 2.553.112 1.52-5.328-5.737-1.089 1.668 6.305h-.004Z"/>
  <path fill="#FBEFF0" d="M133.559 370.001c-2.319-13.353-13.944-12.475-14.171-12.4-3.764 2.938-4.946 8.727-4.946 9.33-.128.78-.198 2.158 1.738 3.482 2.734 1.874 7.059 2.621 12.013 2.678 13.71.165 29.487-.033 32.065-.066a.369.369 0 0 0 .366-.375v-2.843a.372.372 0 0 0-.391-.372c-22.284 1.015-26.67.566-26.67.566h-.004Z"/>
  <path fill="#B13B32" d="M133.132 362.721a2.176 2.176 0 0 0 2.178-2.183 2.176 2.176 0 0 0-2.178-2.183 2.177 2.177 0 0 0-2.179 2.183c0 1.209.972 2.183 2.179 2.183Z"/>
  <path fill="#B13B32" d="M120.682 356.684s4.526-1.312 11.107 3.425l.28-.788-3.756-3.272-4.135-.219s-1.017-.825-3.496.858v-.004Z"/>
  <path fill="#FBEFF0" d="M153.5 365.432c2.747-.301 4.691-2.867 4.328-5.723-.362-2.868-2.883-4.947-5.642-4.642-2.747.301-4.69 2.868-4.328 5.723.362 2.868 2.883 4.948 5.642 4.642Zm-20.216-4.158c-.338 0-.671-.141-.894-.429-2.64-3.24-6.453-4.82-9.048-4.948-1.112-.045-1.762.173-1.981.384a1.157 1.157 0 1 1-1.635-1.638c.779-.78 2.076-1.152 3.732-1.069 2.887.14 7.425 1.741 10.728 5.793a1.168 1.168 0 0 1-.89 1.907h-.012Z"/>
  <path fill="#DD565B" d="M150.263 359.032v-.549h.597v-.548h1.195v.548h.597v.549h.597v-.549h.597v-.548h1.194v.548h.598v.549h.597v1.647h-.597v.548h-.598v.549h-.597v.549h-.597v.549h-.597v.549h-.597v-.549h-.597v-.549h-.598v-.549h-.597v-.549h-.597v-.548h-.597v-1.647h.597Zm-49.548-.136v-.548h.544v-.549h1.087v.549h.544v.548h.544v-.548h.543v-.549h1.087v.549h.544v.548h.544v1.647h-.544v.549h-.544v.549h-.543v.548h-.544v.549h-.543v.549h-.544v-.549h-.544v-.549h-.543v-.548h-.544v-.549h-.544v-.549h-.543v-1.647h.543Z"/>
</svg>
