<svg xmlns="http://www.w3.org/2000/svg" width="250" height="414" fill="none"><path fill="#EBECE7" fill-rule="evenodd" d="M76.62 370.76c26.8-.02 31.03-1.74 32.95-4.64 1.77 6.08-1.26 8.88-1.26 8.88s-29.71.56-32.22.37c-2.5-.2-8.09-3.3-8.09-3.3v-3.34l1.53-1.43s1.23 2.55 5.74 3.35c.44.08.9.11 1.35.11Z" clip-rule="evenodd"/><path fill="#992B43" fill-rule="evenodd" d="m78.7 345.65.1 4.7 4.88.14.22-4.27c-.03-.64.43-1.22 1.03-1.21h.4l23.59.76c.45.02.82.43.82.93l-.03 7.13.26.13a.82.82 0 0 1 .44.74v1.46c0 .43-.23.82-.6 1l-.08 3.23-.15 5.73c-2.43 3.84-6.16 4.61-32.93 4.64-.46 0-.93-.03-1.4-.12-4.49-.8-5.71-3.34-5.71-3.34v-2.75c0-.84.3-1.64.86-2.22l4.4-4.65.1-11.8c0-.45.34-.89.74-.95a5.75 5.75 0 0 1 2.73.22c.2.07.34.27.34.5Z" clip-rule="evenodd"/><path fill="#363438" fill-rule="evenodd" d="M74.91 357.67c1.15-.13 2.36-.3 3.42-.82a3.19 3.19 0 0 0 1.9-2.8c.1-1.2.08-2.43.05-3.66l-1.5-.05-.08-4.64c0-.2-.08-.46-.26-.52a5.66 5.66 0 0 0-3.05-.2c-.36.07-.5.59-.5 1l-.1 11.7-.01.01.13-.01Z" clip-rule="evenodd"/><path fill="#EBECE7" fill-rule="evenodd" d="M71.11 362.48c1.63 4.1 9.44 2.21 9.44 2.21l2.22-2.99s1.26-2.88 1.59-4.55c.12-1.92-.16-6.8-.48-9.26-.1-.73-.67-1.28-1.35-1.28h-4.81a.9.9 0 0 0-.86.78l-2.05 8.33-.02 1.96-3.9 4.12.22.68Z" clip-rule="evenodd"/><path fill="#363438" fill-rule="evenodd" d="m86.93 347.76.38-2.69 21.65.7c.54.03 1.02.38 1.23.92.36.93.64 2.43-.47 3.73-4.67-.2-17.53-1.56-22.53-2.2-.2-.02-.27-.18-.25-.46Z" clip-rule="evenodd"/><path fill="#701126" fill-rule="evenodd" d="M103.87 361.36s2.3 3.8-1.8 8.41h.6s3.63-4.09 1.61-8.67l-.41.26Z" clip-rule="evenodd"/><path fill="#992B43" fill-rule="evenodd" d="M84.92 345c-.59 0-1.05.57-1.03 1.22l-.22 4.27-.14 5.98 2.61.68-1.22-12.14Z" clip-rule="evenodd"/><path fill="#363438" fill-rule="evenodd" d="M89.46 353.75c.64 1.12.05 2.72-.55 3.38 1.72 2.18 7.41 2.04 7.41 2.04s2.72.24 5.58-1.13c-1.48-2.68-2.63-1.58-12.44-4.3Z" clip-rule="evenodd"/><path fill="#701126" fill-rule="evenodd" d="m103 357.8-.44.25s-1.3-2.14-3.07-2.47c-1.78-.34-13.74-3.08-14.15-3.46a4.83 4.83 0 0 1-.68-3.26.26.26 0 0 1 .28-.2c3.85.5 24.78 2.78 24.78 2.78v.51l-24.61-2.93c-.1 0-.18.06-.2.17-.04.49-.07 1.28.62 2.53.04.07.1.13.18.15 3.06.95 14.4 3.46 14.74 3.58.78.27 2.56 2.36 2.56 2.36Z" clip-rule="evenodd"/><path fill="#8E2638" fill-rule="evenodd" d="M109 374.13c-.17.28-.31.48-.42.62a1.49 1.49 0 0 1-.26.25l-2.46.04-.45.01-2.63.05h-.44l-2.63.05-.44.01-2.63.04h-.44l-2.63.05h-.45l-2.63.04h-.44l-2.63.05h-.44c-.9 0-1.79.02-2.63.03h-.44l-2.63.03h-3.52a29.83 29.83 0 0 1-1.67-.03 5.61 5.61 0 0 1-.96-.18 8.23 8.23 0 0 1-.44-.12c-2.75-.8-6.69-3-6.69-3v-3.34s3.53 2.98 6.69 3.93l.44.11a5.47 5.47 0 0 0 1.1.17h1.97l2.63-.03.44-.02 2.64-.05.44-.01 2.63-.07.44-.01 2.63-.07.44-.02 2.63-.07.45-.01 2.63-.08.44-.01 2.63-.08.44-.01 2.63-.08c.15 0 .3 0 .44-.02l2.63-.07.45-.01 1.4-.04c.4-.01.83-.18 1.23-.41l.44-.29c.25-.18.48-.37.7-.56.34-.3.37-.96.48-1.41a8.08 8.08 0 0 1-1.11 4.62Z" clip-rule="evenodd"/><path fill="#EBECE7" fill-rule="evenodd" d="M109.81 357.16c.36-.18.59-.57.59-1v-1.45a.82.82 0 0 0-.44-.74l-.26-.13s-7.25 5.42-13.6 5.36c-3.13-.02-5.62-.69-7.07-2.22-.96 1.18-1.22 1.57-2.54 2.22-1.32.66-.8 2.14-1 2.92-.14.55-1.32 2.14-2.23 3.3a1.85 1.85 0 0 0-.25 1.85l2.45 3.5 24.34-13.61h.01Z" clip-rule="evenodd"/><path fill="#EBECE7" fill-rule="evenodd" d="M103.28 361.93c2.21 3.25-2.51 8.39-2.51 8.39l-9.76.6-5.54-.15s14.66-11.35 17.8-8.84Z" clip-rule="evenodd"/><path fill="#363438" fill-rule="evenodd" d="m91.6 361.22-.34 2.32 18.55-6.39-.05 2.02-17.34 7.38 1.41 1.79c.2.25 0 .63-.3.57l-6.84-1.36c-.35-.07-.5-.53-.25-.81.9-1.07 2.77-3.31 4.72-5.75.17-.21.49-.05.45.23Z" clip-rule="evenodd"/><path fill="#363438" d="M84.32 352.52c.54 0 .98-.54.98-1.2s-.44-1.2-.98-1.2c-.55 0-1 .54-1 1.2s.45 1.2 1 1.2Zm.07 6.25c.49 0 .88-.45.88-1s-.4-1-.88-1-.88.45-.88 1 .4 1 .88 1Z"/><path fill="#616063" d="M75.55 361.76c.27 0 .49-.12.49-.27 0-.15-.22-.26-.49-.26s-.49.11-.49.26c0 .15.22.27.5.27Zm-1.66-.68c.27 0 .49-.12.49-.27 0-.15-.22-.27-.5-.27s-.48.12-.48.27c0 .15.22.27.49.27Zm0 1.7c.27 0 .49-.11.49-.26 0-.15-.22-.27-.5-.27s-.48.12-.48.27c0 .15.22.27.49.27Zm4.63-1.02c.27 0 .5-.12.5-.27 0-.15-.23-.26-.5-.26s-.48.11-.48.26c0 .15.21.27.48.27Zm.63 1.8c.27 0 .5-.11.5-.26 0-.15-.23-.27-.5-.27s-.48.12-.48.27c0 .15.21.27.48.27Zm1.68-.96c.27 0 .49-.12.49-.27 0-.15-.22-.27-.5-.27-.26 0-.48.12-.48.27 0 .15.22.27.49.27Zm-3.67.26c.27 0 .48-.12.48-.26 0-.15-.21-.27-.48-.27s-.5.12-.5.27c0 .14.23.26.5.26Zm-.84-2.35c.27 0 .5-.12.5-.27 0-.15-.23-.27-.5-.27s-.49.12-.49.27c0 .15.22.27.5.27Zm3.62.45c.27 0 .5-.12.5-.27 0-.14-.23-.26-.5-.26s-.48.12-.48.26c0 .15.22.27.48.27Z"/><path fill="#701D2F" fill-rule="evenodd" d="M102.78 372.3v2.8h-.44v-2.78c.15 0 .3 0 .44-.02Zm-3.07.1v2.75l-.44.01v-2.75l.44-.01Zm-3.07.09v2.71h-.44v-2.7l.44-.01Z" clip-rule="evenodd"/><path fill="#CCC" fill-rule="evenodd" d="M84.63 357.2a10.2 10.2 0 0 0-9.49-.6c-.97.4-.4 1.81.56 1.4a8.56 8.56 0 0 1 7.93.52c.8.53 1.81-.79 1-1.32Z" clip-rule="evenodd"/><path fill="#701D2F" fill-rule="evenodd" d="M93.56 372.58v2.67h-.44v-2.66l.45-.01Zm-3.07 2.72v-2.64l-.44.02v2.62h.44Zm-3.07-2.55v2.59h-.44v-2.58l.44-.01Zm-3.07 2.62v-2.54h-.44v2.54h.44Zm-3.08.03v-2.5h-.44v2.5h.44Zm-3.07 0v-2.46h-.44v2.46h.44Zm-3.07-2.62v2.42a8.23 8.23 0 0 1-.44-.13v-2.41l.44.11Zm30.28-.55v2.82h.45v-2.83h-.45Zm3.52-.75v2.69c-.17.28-.33.49-.44.63v-3.03c.15-.09.3-.18.44-.29Z" clip-rule="evenodd"/><path fill="#8E2638" fill-rule="evenodd" d="m83.26 351.27-3.5 1.42-3.93-1.35.5-4.62c0-.44.32-.8.73-.8h4.98c.4 0 .73.36.73.8l.5 4.55h-.01Z" clip-rule="evenodd"/><path fill="#EBECE7" fill-rule="evenodd" d="M84.95 356.94a12.05 12.05 0 0 0-9.42-6.45c-1.18-.1-1.25 1.87-.07 1.98 3.24.29 6.25 2.36 7.86 5.4.59 1.1 2.22.18 1.63-.94Z" clip-rule="evenodd"/><path fill="#686465" fill-rule="evenodd" d="M74.9 352.2s6.3-.7 9.22 6.15a.84.84 0 0 1-.8-.5 10.13 10.13 0 0 0-7.86-5.39.86.86 0 0 1-.55-.25" clip-rule="evenodd"/><path fill="#EBECE7" fill-rule="evenodd" d="M83.96 350.29c-3.72.12-7.58 2.73-9.67 6.2-.63 1.05.86 2.02 1.5.97 1.72-2.87 5.04-5.13 8.13-5.24 1.13-.03 1.17-1.97.04-1.93Z" clip-rule="evenodd"/><path fill="#CCC" fill-rule="evenodd" d="M69.53 367.3s1.23 2.55 5.74 3.35c.44.08.9.11 1.35.11 26.8-.02 31.03-1.74 32.95-4.64l.33 1.4s-1.64 1.33-3.42 2.2c-1.78.87-24.93 2.4-30.58 1.76-5.39-1.33-5.38-1.94-6.92-3.67l.55-.51Z" clip-rule="evenodd"/><path fill="#701126" fill-rule="evenodd" d="M70.23 362.52s1.45 5.2 10.58 3.22a.34.34 0 0 1 .36.14l3.2 4.82h-.85l-2.6-3.97a.51.51 0 0 0-.52-.23c-1.56.32-8.8 1.32-10.5-3.49.17-.31.33-.5.33-.5v.01Z" clip-rule="evenodd"/><path fill="#AAA3A5" fill-rule="evenodd" d="M75.36 357.56c-.65.06-1.03-.43-1.11-.98-.5 1.01.92 1.9 1.53.88l.06-.08a1 1 0 0 1-.48.17Z" clip-rule="evenodd"/><path fill="#701126" fill-rule="evenodd" d="m86.86 345.06-.28-.01-.56 3.59.26.03.58-3.62Z" clip-rule="evenodd"/><path fill="#EBECE7" fill-rule="evenodd" d="M77.8 346.84h2.26c.14 0 .25.12.25.27v.4h-2.76v-.4c0-.15.11-.27.24-.27Z" clip-rule="evenodd"/><path fill="#686465" fill-rule="evenodd" d="M75.05 357.9c.27 0 .54-.12.74-.44 1.73-2.88 5.04-5.13 8.14-5.24.44-.02.71-.33.82-.7 0 0-6.83.53-9.7 6.38Z" clip-rule="evenodd"/><path fill="#591124" fill-rule="evenodd" d="m88.44 353.42.5.19s.7 2.79-1.65 4.2c-2.35 1.43-2.45 1.72-2.5 2.17-.06.45.33 1.84.14 2.3-.1.29-2.35 3.5-2.35 3.5l-.32-.29s2.22-2.85 2.34-3.47c.07-.43-.37-1.98-.07-2.5 1.12-1.95 4.9-2.22 3.9-6.1h.01Z" clip-rule="evenodd"/><path fill="#EBECE7" fill-rule="evenodd" d="M124.82 371.46c28.31-.18 32.98-1.89 35.13-4.76 1.94 5.97-1.42 8.69-1.42 8.69s-31.49.53-34.04.35c-2.53-.17-8.3-3.02-8.3-3.02l-.19-3.1 1.45-1.35s1.38 2.37 5.99 3.1a8.95 8.95 0 0 0 1.37.1Z" clip-rule="evenodd"/><path fill="#992B43" fill-rule="evenodd" d="m125.83 346.99.31 4.7h5.2l.06-4.33c-.05-.65.43-1.26 1.07-1.27l.43-.02 26.38-.18a.92.92 0 0 1 .95.94l-.07 7.44.3.13a.8.8 0 0 1 .49.75l-.01 1.49c0 .44-.27.84-.68 1.03l-.11 3.3-.2 5.73c-2.73 3.8-6.82 4.58-35.11 4.76-.48 0-.96-.03-1.43-.1-4.59-.72-5.96-3.08-5.96-3.08l-.16-2.6a2.84 2.84 0 0 1 .75-2.11l4.27-4.55-.5-11.66c-.02-.44.3-.9.73-.98a6.35 6.35 0 0 1 2.9.12.55.55 0 0 1 .38.5l.01-.01Z" clip-rule="evenodd"/><path fill="#363438" fill-rule="evenodd" d="M122.44 359.01a11.2 11.2 0 0 0 3.5-.88c1.16-.57 1.84-1.46 1.89-2.8.04-1.2-.03-2.42-.11-3.63h-1.58l-.3-4.66c-.02-.21-.11-.46-.31-.52a6.36 6.36 0 0 0-3.23-.1c-.39.1-.5.63-.48 1.04l.5 11.56h-.02.14Z" clip-rule="evenodd"/><path fill="#EBECE7" fill-rule="evenodd" d="M118.8 363.7c1.87 3.86 9.8 1.98 9.8 1.98l2.2-2.92s1.22-2.83 1.51-4.47c.07-1.9-.41-6.77-.85-9.23a1.49 1.49 0 0 0-1.5-1.24l-5.14.17a.91.91 0 0 0-.87.83l-1.72 8.3.08 1.9-3.78 4.04.26.64Z" clip-rule="evenodd"/><path fill="#363438" fill-rule="evenodd" d="m134.74 348.82.32-2.76 24.29-.17a1.5 1.5 0 0 1 1.4.92c.42.96.73 2.52-.56 3.92-5.33-.04-19.69-.98-25.15-1.45-.22-.02-.3-.18-.3-.46Z" clip-rule="evenodd"/><path fill="#701126" fill-rule="evenodd" d="M153.59 362.05s2.57 3.73-1.93 8.3h.65s4-4.05 1.73-8.57l-.46.27Z" clip-rule="evenodd"/><path fill="#992B43" fill-rule="evenodd" d="M132.47 346.09c-.64 0-1.11.62-1.06 1.28l-.07 4.32.07 5.94 2.8.62-1.74-12.16Z" clip-rule="evenodd"/><path fill="#363438" fill-rule="evenodd" d="M137.66 354.77c.73 1.1.13 2.71-.5 3.38 1.91 2.12 8.09 1.86 8.09 1.86s2.98.18 6.12-1.25c-1.66-2.67-2.93-1.52-13.71-3.99Z" clip-rule="evenodd"/><path fill="#701126" fill-rule="evenodd" d="m152.61 358.5-.5.25s-1.45-2.12-3.43-2.41c-1.98-.3-15.05-2.71-15.5-3.08a4.62 4.62 0 0 1-.85-3.25.28.28 0 0 1 .29-.2c4.18.35 27.57 1.98 27.57 1.98v.54l-27.37-2.17a.18.18 0 0 0-.2.18c-.04.5-.04 1.3.75 2.52a.33.33 0 0 0 .2.15c3.32.86 15.78 3.07 16.17 3.18.87.25 2.87 2.31 2.87 2.31Z" clip-rule="evenodd"/><path fill="#8E2638" fill-rule="evenodd" d="M159.28 374.55a6.14 6.14 0 0 1-.47.6c-.11.13-.29.24-.29.24l-2.7.05h-.48l-2.87.05h-.48l-2.84.05-.48.01-2.82.04h-.47l-2.8.05h-.46l-2.78.04h-.46l-2.75.04h-.46l-2.73.03h-.45l-2.7.03h-3.6c-.83 0-1.42-.01-1.69-.03a6.62 6.62 0 0 1-.98-.16l-.45-.11c-2.8-.75-6.86-2.76-6.86-2.76l-.2-3.1s3.71 2.75 6.94 3.62a9.2 9.2 0 0 0 1.58.25c.32.02.85.02 1.56 0h.45c.75 0 1.66-.03 2.7-.04l.45-.02c.84 0 1.75-.03 2.72-.05l.46-.02 2.73-.07.47-.01 2.76-.08h.47l2.78-.08.47-.02 2.8-.08.48-.01 2.83-.09h.48l2.85-.1.49-.01 2.88-.09h.48l1.55-.05c.45 0 .92-.18 1.36-.4l.5-.29a10 10 0 0 0 .77-.55c.39-.3.42-.94.55-1.39.1 2.1-.64 3.64-1.26 4.52l-.03-.01Z" clip-rule="evenodd"/><path fill="#EBECE7" fill-rule="evenodd" d="M160.27 357.67c.4-.19.67-.6.67-1.03l.01-1.5a.8.8 0 0 0-.49-.74l-.3-.13s-8.17 5.7-15.16 5.78c-3.4.04-6.12-.57-7.7-2.05-1 1.2-1.27 1.58-2.66 2.25-1.38.67-.77 2.1-.96 2.86-.13.54-1.3 2.1-2.22 3.22a1.63 1.63 0 0 0-.19 1.77l2.68 3.3 26.32-13.73Z" clip-rule="evenodd"/><path fill="#EBECE7" fill-rule="evenodd" d="M152.93 362.63c2.47 3.18-2.69 8.26-2.69 8.26l-10.47.65-5.83-.13s15.48-11.23 18.98-8.79Z" clip-rule="evenodd"/><path fill="#363438" fill-rule="evenodd" d="m140.17 362.13-.3 2.28 20.4-6.74-.08 2.06-19.01 7.6 1.54 1.7c.21.24.01.6-.3.56l-7.3-1.24c-.37-.06-.54-.5-.3-.78a316.9 316.9 0 0 0 4.86-5.65c.18-.21.52-.06.49.22v-.01Zm-7.06-9.66c.02.66-.43 1.2-1.01 1.22-.58.02-1.07-.5-1.1-1.16-.02-.66.43-1.21 1.01-1.23.59-.02 1.08.5 1.1 1.17Zm.2 6.52c.01.6-.4 1.11-.95 1.12-.55 0-1-.47-1.02-1.08-.02-.61.4-1.12.95-1.13.54-.01 1 .47 1.02 1.08Z" clip-rule="evenodd"/><path fill="#616063" fill-rule="evenodd" d="M123.79 362.68c0 .14-.22.25-.5.26-.27 0-.5-.1-.51-.25 0-.14.21-.26.5-.26.27 0 .5.1.5.25Zm-1.75-.63c0 .14-.22.26-.49.26s-.5-.1-.51-.24c-.01-.15.2-.26.48-.27.28 0 .51.1.52.25Zm.09 1.64c0 .14-.21.25-.49.26-.28 0-.5-.1-.51-.25-.01-.14.2-.26.48-.26.28 0 .51.1.52.25Zm4.74-1.06c0 .14-.22.25-.5.26-.28 0-.51-.1-.52-.25 0-.14.21-.26.5-.26.28 0 .51.1.52.25Zm.73 1.72c0 .15-.22.26-.5.27-.27 0-.5-.11-.52-.25 0-.14.22-.26.5-.26s.51.1.52.24Zm1.7-.96c0 .14-.22.26-.5.26s-.51-.1-.52-.24c0-.14.22-.26.5-.27.28 0 .52.11.52.25Zm-3.8.32c0 .14-.22.26-.5.26-.27 0-.5-.1-.5-.25-.01-.14.2-.26.48-.26.28 0 .51.1.52.25Zm-.98-2.26c.01.15-.21.26-.5.27-.27.01-.5-.1-.51-.24-.01-.15.21-.26.49-.27.28-.01.51.1.52.25Zm3.8.38c0 .14-.23.26-.5.26-.29 0-.52-.1-.53-.24 0-.14.22-.27.5-.27s.52.1.53.25Z" clip-rule="evenodd"/><path fill="#701D2F" fill-rule="evenodd" d="m152.45 372.8.02 2.69h-.48l-.02-2.68.48-.01Zm-3.33.1.03 2.64h-.48l-.03-2.62.48-.01Zm-3.31.1.04 2.59h-.47l-.04-2.58.47-.01Z" clip-rule="evenodd"/><path fill="#CCC" fill-rule="evenodd" d="M132.6 358.33a11.38 11.38 0 0 0-9.98-.38c-.98.43-.33 1.78.65 1.36a9.57 9.57 0 0 1 8.32.33c.88.5 1.9-.8 1.01-1.31Z" clip-rule="evenodd"/><path fill="#701D2F" fill-rule="evenodd" d="m142.53 373.1.05 2.53h-.46l-.06-2.52h.47Zm-3.19 2.57-.06-2.48-.47.01.07 2.48h.46Zm-3.29-2.39.08 2.44h-.46l-.08-2.43.46-.01Zm-3.11 2.47-.09-2.4-.46.02.09 2.37h.46Zm-3.17.03-.1-2.34h-.45l.1 2.34h.45Zm-3.14 0-.1-2.29h-.45l.1 2.29h.46Zm-3.23-2.43.11 2.24-.45-.12-.11-2.23.45.1Zm31.93-.63.01 2.72h.48v-2.74l-.49.01Zm3.88-.75v2.61a5.86 5.86 0 0 1-.5.61l.01-2.93c.17-.1.34-.18.5-.29Z" clip-rule="evenodd"/><path fill="#8E2638" fill-rule="evenodd" d="m130.92 352.48-3.65 1.52-4.2-1.22.3-4.62a.77.77 0 0 1 .73-.83l5.3-.19a.8.8 0 0 1 .81.78l.7 4.56Z" clip-rule="evenodd"/><path fill="#EBECE7" fill-rule="evenodd" d="M132.93 358.05a12.98 12.98 0 0 0-10.22-6.1c-1.24-.07-1.2 1.88.03 1.95 3.41.2 6.67 2.16 8.5 5.1.66 1.07 2.35.13 1.69-.95Z" clip-rule="evenodd"/><path fill="#686465" fill-rule="evenodd" d="M122.16 353.67s6.58-.9 9.95 5.8a.92.92 0 0 1-.87-.47 10.9 10.9 0 0 0-8.5-5.1.94.94 0 0 1-.58-.23Z" clip-rule="evenodd"/><path fill="#EBECE7" fill-rule="evenodd" d="M131.64 351.47c-3.96.24-7.9 2.95-9.9 6.4-.6 1.04.99 1.95 1.6.92 1.66-2.86 5.04-5.19 8.32-5.38 1.2-.07 1.19-2.02-.02-1.94Z" clip-rule="evenodd"/><path fill="#CCC" fill-rule="evenodd" d="M117.46 368.27s1.38 2.37 5.98 3.1a8.95 8.95 0 0 0 1.38.1c28.31-.19 32.98-1.9 35.13-4.77l.37 1.37s-1.84 1.34-3.82 2.2c-1.96.87-26.57 2.44-32.39 1.87-5.5-1.2-5.53-1.78-7.18-3.38l.53-.48Z" clip-rule="evenodd"/><path fill="#701126" fill-rule="evenodd" d="M117.9 363.75s1.75 4.89 11.01 2.92c.14-.03.29.02.38.14l3.5 4.55-.88.01-2.84-3.75a.57.57 0 0 0-.56-.21c-1.6.32-8.95 1.33-10.92-3.18.15-.3.3-.47.3-.47Z" clip-rule="evenodd"/><path fill="#AAA3A5" fill-rule="evenodd" d="M122.9 358.89c-.68.08-1.1-.4-1.2-.93-.47 1 1.04 1.83 1.63.83l.05-.08c-.12.09-.29.16-.48.18Z" clip-rule="evenodd"/><path fill="#701126" fill-rule="evenodd" d="M134.58 346.06h-.32l-.48 3.68.28.02.52-3.7Z" clip-rule="evenodd"/><path fill="#EBECE7" fill-rule="evenodd" d="m124.92 348.22 2.41-.08a.27.27 0 0 1 .27.26l.02.4-2.93.1-.02-.4a.26.26 0 0 1 .25-.28Z" clip-rule="evenodd"/><path fill="#686465" fill-rule="evenodd" d="M122.6 359.23c.27 0 .55-.13.73-.44 1.66-2.86 5.05-5.19 8.33-5.38a.9.9 0 0 0 .85-.72s-7.22.73-9.92 6.54Z" clip-rule="evenodd"/><path fill="#591124" fill-rule="evenodd" d="m136.55 354.47.54.18s.84 2.76-1.64 4.22c-2.44 1.45-2.54 1.75-2.58 2.18-.04.43.41 1.8.24 2.24-.11.28-2.35 3.4-2.35 3.4l-.35-.27s2.23-2.78 2.33-3.39c.06-.41-.46-1.92-.16-2.43 1.11-1.93 5.16-2.3 3.97-6.13Z" clip-rule="evenodd"/></svg>