<svg xmlns="http://www.w3.org/2000/svg" width="250" height="414" fill="none" viewBox="0 0 250 414">
  <path fill="#5D5DA4" d="m162.574 356.449-3.257 21.674h-39.07l-3.954-8.756s3.258 1.626 4.419.465c1.161-1.161 3.289-13.832 3.289-13.832l5 9.5 8.806-11.01 24.767 1.959Z"/>
  <path fill="#383882" d="M137.806 354.49 135 358s6.492.364 6.179 12.141l19.792-3.017 1.248-8.299-24.409-4.335h-.004Z"/>
  <path fill="#5D5DA4" d="M137.809 354.49s5.852 2.091 5.93 11.819l24.187-4.533s.453-7.973-7.603-12.316l-22.514 5.034v-.004Z"/>
  <path fill="#EFAE42" d="m143.269 366.741.021-1.26c.144-8.616-5.086-10.769-5.481-10.991l2.191-.502c.284.119 4.925 1.272 5.333 10.275l22.477-4.306.124 1.996-24.66 4.792-.005-.004Z"/>
  <path fill="#383882" d="M123.313 363.513S119.5 365 118.5 365c0 0 .061-5.262 5.406-9.201l-.597 7.718.004-.004Z"/>
  <path fill="#EFAE42" d="M119.434 364.839 118 365.5c-.074-1.153.224-8.071 5.487-11.5l.42 1.795c-4.551 2.964-4.473 8.978-4.477 9.044h.004Z"/>
  <path fill="#7979B5" d="M116.297 369.367s1.721 1.305 3.488 1.643c1.215.23 2.426-.416 2.99-1.519.737-1.445 1.968-4.006 2.014-5.064l-.788-8.427s-2.334 13.346-3.281 13.832c-.947.486-4.419-.465-4.419-.465h-.004Z"/>
  <path fill="#5D5DA4" d="m112.492 356.449-3.257 21.674h-39.07l-3.954-8.756s3.258 1.626 4.419.465c1.16-1.161 4.87-17.332 4.87-17.332s.7 5.5 1.5 7.5c1 2.5 3 4.5 3 4.5l7.724-10.014 24.767 1.959v.004Z"/>
  <path fill="#383882" d="M87.72 354.49 85 358s6.405.364 6.092 12.141l19.793-3.017 1.248-8.299-24.41-4.335h-.004Z"/>
  <path fill="#5D5DA4" d="M87.719 354.49s5.852 2.091 5.93 11.819l24.187-4.533s.453-7.973-7.603-12.316l-22.514 5.034v-.004Z"/>
  <path fill="#EFAE42" d="m93.187 366.741.021-1.26c.144-8.616-5.086-10.769-5.481-10.991l2.19-.502c.285.119 4.926 1.272 5.334 10.275l22.477-4.306.124 1.996-24.66 4.792-.005-.004Z"/>
  <path fill="#383882" d="M73.01 362.83s-3.29-.346-4.686.7c0 0 1.678-6.53 6.8-9.328l-2.113 8.628Z"/>
  <path fill="#EFAE42" d="m68.989 363.892-1.425.811c-.074-1.153 2.673-8.774 7.936-12.203l-.383 1.698c-4.55 2.964-6.128 9.624-6.132 9.694h.004Z"/>
  <path fill="#7979B5" d="M66.21 369.367s1.722 1.305 3.49 1.643c1.214.23 2.425-.416 2.989-1.519.737-1.445 2.866-5.661 2.908-6.719L75.5 352.5s-3.92 16.846-4.871 17.332c-.951.486-4.42-.465-4.42-.465Z"/>
  <path fill="#EFAE42" d="m70.164 378.123-1.21-2.68h40.745l-.465 2.68h-39.07Zm50.087 0-1.47-3.248h41.027l-.486 3.248h-39.071Z"/>
</svg>
