<svg xmlns="http://www.w3.org/2000/svg" width="249" height="414" fill="none" viewBox="0 0 249 414">
  <path fill="#1D4267" fill-rule="evenodd" d="m67.856 358.438 4.963-11.004s-1.083-4.804.771-5.112c1.854-.309 5.558-.622 8.339 1.239 2.781 1.86 5.808 4.857 5.808 4.857l-1.329 11.263-8.614 5.108h-6.83l-3.112-6.347.004-.004Z" clip-rule="evenodd"/>
  <path fill="#0779B9" fill-rule="evenodd" d="M67.857 358.438s1.842 3.26 7.958 2.56c5.422-.621 11.14-11.053 12.362-13.403.124-.235.226-.478.312-.729.283-.831 1.584-3.305 6.879-2.527 6.333.93 13.786 4.944 13.786 4.944v19.224H70.253l-8.741-4.265c.652-2.03 2.288-4.553 6.35-5.8l-.005-.004Z" clip-rule="evenodd"/>
  <path fill="#2098CC" fill-rule="evenodd" d="M109.154 357.388v11.119h-9.655l.057-3.598-12.588 3.598H70.252l-8.741-4.265s.242-.885 1.05-2.153l7.69 3.441 17.49-.214 21.416-7.928h-.004Z" clip-rule="evenodd"/>
  <path fill="#183E5B" d="M87.457 362.513c.835-1.285.712-2.851-.275-3.496-.987-.646-2.464-.127-3.299 1.158-.835 1.286-.712 2.852.275 3.497.987.646 2.464.127 3.299-1.159Zm3.16-4.865c.835-1.286.712-2.851-.275-3.497-.987-.646-2.464-.127-3.299 1.159-.835 1.285-.712 2.851.275 3.496.987.646 2.464.127 3.299-1.158Z"/>
  <path fill="#1EAFB2" fill-rule="evenodd" d="M68.563 356.882s-1.9-3.108-.37-4.644c1.933-1.939 7.745-1.42 11.584.618 3.84 2.037 6.87 5.347 6.87 5.347s1.777 5.039-2.932 4.726c0 0-5.329-6.121-10.037-7.052-4.71-.93-5.111 1-5.111 1l-.004.005Z" clip-rule="evenodd"/>
  <path fill="#CC628B" fill-rule="evenodd" d="M70.782 351.139s-1.324-1.906.206-3.441c1.931-1.939 7.744-1.42 11.583.617 3.84 2.038 6.87 5.348 6.87 5.348s1.912 4.849-2.797 4.54c0 0-5.964-5.854-10.5-6.698-4.238-.79-5.357-.366-5.357-.366h-.005Z" clip-rule="evenodd"/>
  <path fill="#974465" fill-rule="evenodd" d="M88.477 356.82c-.895.366-1.92.127-2.634-.519-1.776-1.605-6.152-5.401-9.7-5.952-4.947-.77-5.776-.132-5.776-.132l.419.926s1.12-.424 5.356.367c4.537.848 10.501 6.697 10.501 6.697 3.02.198 3.319-1.725 3.142-3.128-.106.716-.46 1.395-1.308 1.741Z" clip-rule="evenodd"/>
  <path fill="#0779B9" fill-rule="evenodd" d="M77.798 342.165s-3.375 1.194-3.548 2.021c-.172.828 0 2.334 0 2.334s-1.173.144-1.55.264c0 0-.312-1.923-.164-2.717.147-.795-.177-1.922 2.157-1.98 2.334-.058 3.105.078 3.105.078Z" clip-rule="evenodd"/>
  <path fill="#215D8E" fill-rule="evenodd" d="M79.04 359.607s2.965 2.573 3.449 3.19c.357.453 1.214.305 1.214.305s-3.638-3.421-4.16-3.874l-.508.379h.004Z" clip-rule="evenodd"/>
  <path fill="#772B4A" fill-rule="evenodd" d="M99.23 370.371c0 1.775-1.288 3.211-2.876 3.211-1.587 0-2.875-1.436-2.875-3.211H89.82c0 4.109 2.982 7.439 6.666 7.439 3.683 0 6.665-3.33 6.665-7.439H99.23Zm-19.256 0c0 1.775-1.25 3.211-2.789 3.211-1.538 0-2.79-1.436-2.79-3.211h-1.984l-1.42-.741c-.373 4.586 2.749 8.18 6.321 8.18 3.573 0 6.469-3.33 6.469-7.439h-3.807Z" clip-rule="evenodd"/>
  <path fill="#1D4267" fill-rule="evenodd" d="M99.496 368.507v-3.598l-12.527 3.598h12.527Z" clip-rule="evenodd"/>
  <path fill="#974465" fill-rule="evenodd" d="M81.668 370.371c0 1.775-1.325 3.211-2.957 3.211-1.633 0-2.957-1.436-2.957-3.211h-3.352l-.41-.214c0 4.109 3.068 7.653 6.854 7.653s6.854-3.33 6.854-7.439h-4.032Z" clip-rule="evenodd"/>
  <path fill="#772B4A" fill-rule="evenodd" d="M149.352 370.371c0 1.775-1.268 3.211-2.831 3.211-1.562 0-2.83-1.436-2.83-3.211h-3.601c0 4.109 2.937 7.439 6.559 7.439 3.622 0 6.558-3.33 6.558-7.439h-3.859.004Z" clip-rule="evenodd"/>
  <path fill="#CC628B" fill-rule="evenodd" d="M82.528 370.371c0 1.775-1.325 3.211-2.958 3.211-1.632 0-2.957-1.436-2.957-3.211h-3.761c0 4.109 3.068 7.439 6.854 7.439s6.854-3.33 6.854-7.439h-4.032Z" clip-rule="evenodd"/>
  <path fill="#974465" fill-rule="evenodd" d="M102.05 370.371c0 1.775-1.288 3.211-2.875 3.211-1.588 0-2.876-1.436-2.876-3.211h-3.658c0 4.109 2.982 7.439 6.665 7.439s6.665-3.33 6.665-7.439h-3.921Z" clip-rule="evenodd"/>
  <path fill="#772B4A" fill-rule="evenodd" d="M129.762 370.371c0 1.775-1.173 3.211-2.616 3.211-1.444 0-2.617-1.436-2.617-3.211h-1.526l-1.662-.613c-.611 4.335 2.572 8.056 5.923 8.056 3.352 0 6.067-3.33 6.067-7.439h-3.569v-.004Z" clip-rule="evenodd"/>
  <path fill="#CC628B" fill-rule="evenodd" d="M103.523 370.371c0 1.775-1.288 3.211-2.876 3.211-1.587 0-2.875-1.436-2.875-3.211h-3.659c0 4.109 2.982 7.439 6.666 7.439 3.683 0 6.665-3.33 6.665-7.439h-3.921Z" clip-rule="evenodd"/>
  <path fill="#974465" fill-rule="evenodd" d="M131.568 370.371c0 1.775-1.173 3.211-2.616 3.211-1.444 0-2.617-1.436-2.617-3.211h-3.331c0 4.109 2.715 7.439 6.066 7.439 3.352 0 6.067-3.33 6.067-7.439h-3.569Z" clip-rule="evenodd"/>
  <path fill="#CC628B" fill-rule="evenodd" d="M134.166 370.371c0 1.775-1.173 3.211-2.617 3.211s-2.617-1.436-2.617-3.211h-3.33c0 4.109 2.715 7.439 6.066 7.439s6.067-3.33 6.067-7.439h-3.569Z" clip-rule="evenodd"/>
  <path fill="#974465" fill-rule="evenodd" d="M152.02 370.371c0 1.775-1.268 3.211-2.831 3.211-1.562 0-2.83-1.436-2.83-3.211h-3.601c0 4.109 2.937 7.439 6.559 7.439 3.621 0 6.558-3.33 6.558-7.439h-3.859.004Z" clip-rule="evenodd"/>
  <path fill="#CC628B" fill-rule="evenodd" d="M155.285 370.371c0 1.775-1.267 3.211-2.83 3.211-1.563 0-2.83-1.436-2.83-3.211h-3.602c0 4.109 2.937 7.439 6.559 7.439 3.622 0 6.559-3.33 6.559-7.439h-3.86.004Z" clip-rule="evenodd"/>
  <path fill="#A5A4A4" fill-rule="evenodd" d="m61.511 364.242 8.74 4.265h38.902v1.864H70.252l-9.135-4.404.394-1.725Z" clip-rule="evenodd"/>
  <path fill="#CC628B" fill-rule="evenodd" d="m63.302 367.045 4.393 2.091-.984 4.911c-.045.667-.697.914-1.346.758-1.398-.338-3.99-2.194-4.84-3.153-.365-.412-.599-.902-.23-1.309l3.007-3.302v.004Z" clip-rule="evenodd"/>
  <path fill="#974465" fill-rule="evenodd" d="m63.3 367.045-.491.539c2.293 1.314 3.338 4.553 2.383 7.176.057.016.115.037.172.049.648.156 1.3-.091 1.345-.757l.985-4.911-4.393-2.092v-.004Z" clip-rule="evenodd"/>
  <path fill="#1D4267" fill-rule="evenodd" d="m119.508 358.129 4.094-10.695s-1.083-4.804.771-5.112c1.854-.309 3.294-.511 6.6-.054 2.108.292 4.914.663 6.575 1.745a2.475 2.475 0 0 1 1.112 2.367l-1.473 13.297-8.614 5.108h-6.829l-2.244-6.656h.008Z" clip-rule="evenodd"/>
  <path fill="#0779B9" fill-rule="evenodd" d="M119.511 358.129s.972 3.565 7.088 2.865c6.116-.7 12.601-13.873 12.601-13.873s.619-3.721 6.948-2.791c6.329.931 13.786 4.944 13.786 4.944v19.224h-38.901l-6.506-3.173c.16-1.581.644-5.303 4.984-7.2v.004Z" clip-rule="evenodd"/>
  <path fill="#2098CC" fill-rule="evenodd" d="M159.935 357.388v11.119h-7.194l.057-3.598-11.025 3.598h-18.278l-8.905-3.067c.09.029-.099-1.433.57-2.931l8.339 3.017 17.49-.214 18.954-7.928-.008.004Z" clip-rule="evenodd"/>
  <path fill="#183E5B" d="M138.769 360.418c.835-1.285.712-2.851-.275-3.496-.986-.646-2.463-.127-3.298 1.158-.835 1.286-.712 2.851.274 3.497.987.646 2.464.127 3.299-1.159Zm1.887-5.698c.835-1.285.712-2.851-.275-3.496-.987-.646-2.464-.127-3.299 1.158-.835 1.286-.712 2.851.275 3.497.987.646 2.464.127 3.299-1.159Z"/>
  <path fill="#1EAFB2" fill-rule="evenodd" d="M119.511 358.129s-2.531-2.614-1.37-4.45c1.46-2.313 7.247-3.083 11.435-1.935 4.188 1.149 7.872 3.713 7.872 3.713s2.83 4.524-1.834 5.257c0 0-6.53-4.808-11.329-4.68-4.799.127-4.77 2.095-4.77 2.095h-.004Z" clip-rule="evenodd"/>
  <path fill="#CC628B" fill-rule="evenodd" d="M120.434 352.041s-1.71-1.569-.55-3.401c1.461-2.313 7.248-3.083 11.436-1.934 4.188 1.148 7.872 3.713 7.872 3.713s2.92 4.314-1.744 5.042c0 0-7.092-4.404-11.706-4.235-4.307.156-5.308.815-5.308.815Z" clip-rule="evenodd"/>
  <path fill="#974465" fill-rule="evenodd" d="M138.932 353.704c-.792.551-1.842.543-2.683.07-2.084-1.178-7.174-3.816-10.763-3.685-4.307.157-5.308.815-5.308.815s-.414-.382-.697-.987c-.025 1.226.952 2.124.952 2.124s1-.659 5.307-.815c4.611-.169 11.707 4.235 11.707 4.235 2.99-.469 2.863-2.408 2.383-3.741.049.724-.148 1.461-.898 1.988v-.004Z" clip-rule="evenodd"/>
  <path fill="#0779B9" fill-rule="evenodd" d="M127.283 342.029s-3.31 1.367-3.441 2.203c-.131.835.172 2.239.172 2.239s-1.054.214-1.587.436c0 0-.41-1.901-.304-2.704.107-.803-.275-1.91 2.055-2.087 2.326-.177 3.105-.083 3.105-.083v-.004Z" clip-rule="evenodd"/>
  <path fill="#215D8E" fill-rule="evenodd" d="M130.641 358.977s3.371 1.437 4.167 1.741l-.144-.469s-1.726-1.33-3.26-1.968l-.763.7v-.004Z" clip-rule="evenodd"/>
  <path fill="#1D4267" fill-rule="evenodd" d="M152.914 368.507v-3.598l-11.144 3.598h11.144Z" clip-rule="evenodd"/>
  <path fill="#A5A4A4" fill-rule="evenodd" d="m114.524 365.333 8.971 3.174h36.44v1.864h-36.936l-8.495-3.149.02-1.889Z" clip-rule="evenodd"/>
  <path fill="#CC628B" fill-rule="evenodd" d="m115.776 367.72 4.225 2.013-.947 4.726c-.041.642-.673.881-1.292.729-1.346-.326-3.84-2.108-4.66-3.034-.349-.395-.574-.869-.221-1.26l2.895-3.178v.004Z" clip-rule="evenodd"/>
  <path fill="#974465" fill-rule="evenodd" d="M115.778 367.72s2.042 1.445 2.53 3.314-.574 4.15-.549 4.158c.623.152 1.251-.087 1.292-.729l1.038-5.17-4.316-1.573h.005Z" clip-rule="evenodd"/>
  <path fill="#0779B9" fill-rule="evenodd" d="M62.504 366.634s1.431-5.759 6.181-7.266c0 0-.582-.346-.828-.93 0 0-5.747 1.103-6.744 7.525l1.39.671Z" clip-rule="evenodd"/>
  <path fill="#0779B9" d="M68.688 359.368c-.59-.506-.829-.93-.829-.93.247.58.829.93.829.93Zm-5.228 1.622a8.241 8.241 0 0 0-.898 1.095l.017.008c.275-.412.574-.778.886-1.103h-.004Zm-1.948 3.252s0-.012.004-.017c0 .005-.004.013-.004.017Zm.121-.354c.14-.366.418-.996.91-1.77a8.462 8.462 0 0 0-.91 1.77Z"/>
  <path fill="#86559C" d="M61.516 364.221Zm1.044-2.136-.02.034c.008-.013.016-.021.02-.034Z"/>
  <path fill="#86559C" d="M61.528 364.25a9.023 9.023 0 0 1 1.05-2.157l-.016-.008s-.017.02-.02.033a10.014 10.014 0 0 0-.911 1.77c-.041.111-.082.222-.115.333l-.004.017.016.008v.004Z"/>
  <path fill="#A5A4A4" d="m61.51 364.242-.06.263c.024-.086.048-.172.077-.255l-.016-.008Zm.02.009-.018-.009.017.009Z"/>
  <path fill="#0779B9" d="M63.46 360.99c.998-1.017 2.405-1.939 4.394-2.552 0 0-2.424.469-4.393 2.552Zm-2.343 4.977.332-1.462a9.998 9.998 0 0 0-.332 1.462Zm1.387.667-1.387-.667 1.387.667Z"/>
  <path fill="#2696C7" d="M64.268 362.851c.964-1.417 2.387-2.837 4.418-3.483 0 0-.583-.346-.829-.93-1.993.613-3.4 1.535-4.393 2.552a8.69 8.69 0 0 0-.886 1.103l1.69.758Z"/>
  <path fill="#0779B9" d="m61.527 364.25 1.559.758-1.559-.758Z"/>
  <path fill="#4DBCE5" d="m61.527 364.25 1.555.758c.275-.638.664-1.396 1.185-2.162l-1.69-.757a8.786 8.786 0 0 0-1.05 2.157v.004Z"/>
  <path fill="#D3D3D3" d="M61.527 364.25a4.94 4.94 0 0 0-.078.255l-.332 1.462 1.39.671s.169-.675.58-1.626l-1.556-.758-.004-.004Z"/>
  <path fill="#2696C7" d="M116.936 363.155c.997-2.083 1.686-3.021 3.163-3.989 0 0-.32-.436-.566-1.016-1.994.613-3.995 2.947-4.377 4.359l1.78.646Z"/>
  <path fill="#4DBCE5" d="m114.527 365.333 1.776.63c.037-.803.115-2.046.636-2.808l-1.776-.654c-.414.613-.607 1.832-.636 2.828v.004Z"/>
  <path fill="#D3D3D3" d="M114.525 365.333c-.029.082 0 1.074-.025 1.161v.728l1.747.651s-.061-.523.05-1.91l-1.776-.63h.004Z"/>
  <path fill="#0779B9" d="m61.527 364.25 1.559.758-1.559-.758Z"/>
  <path fill="#D3D3D3" d="M79.344 368.507h-1.156v1.864h1.156v-1.864Zm21.309 0h-1.157v1.864h1.157v-1.864Z"/>
  <path fill="#4DBCE5" d="M100.657 368.507h-1.16v-7.546l1.16-.428v7.974Z"/>
  <path fill="#D3D3D3" d="M83.164 368.507h-2.945v1.864h2.945v-1.864Z"/>
  <path fill="#4DBCE5" d="M79.344 365.403h-1.156v3.104h1.156v-3.104Zm3.82 0h-2.945v3.104h2.945v-3.104Zm70.907 3.104h-1.157v-8.184l1.157-.482v8.666Zm-29.078-3.104h-1.157v3.104h1.157v-3.104Zm3.819 0h-2.945v3.104h2.945v-3.104Z"/>
  <path fill="#D3D3D3" d="M124.993 368.507h-1.157v1.864h1.157v-1.864Zm29.078 0h-1.157v1.864h1.157v-1.864Zm-25.259 0h-2.945v1.864h2.945v-1.864Z"/>
</svg>
