<svg xmlns="http://www.w3.org/2000/svg" width="250" height="414" fill="none" viewBox="0 0 250 414">
  <path fill="#26324F" d="m62.11 372.197 45.494-1.157.469-4.421 5.622-53.115-21.815 5.31s-1.75-3.721-3.974-4.03c-2.224-.309-12.523.148-12.523.148s-.7 9.168-.824 12.231c-.243 5.89-.35 23.575-.35 23.575s-10.078 1.387-12.091 21.459h-.009Z"/>
  <path fill="#010101" d="M98.398 332.411h-.309c-.83 0-1.503.673-1.503 1.503v5.265c0 .829.673 1.502 1.503 1.502h.309c.83 0 1.503-.673 1.503-1.502v-5.265c0-.83-.673-1.503-1.503-1.503Zm0 16.45h-.309c-.83 0-1.503.672-1.503 1.502v5.265c0 .83.673 1.503 1.503 1.503h.309c.83 0 1.503-.673 1.503-1.503v-5.265c0-.83-.673-1.502-1.503-1.502Z"/>
  <path fill="#0D1626" d="M69.504 353.36c.486.786 2.471 5.491 6.713 6.442 10.18 2.285 14.303-.93 15.349-7.961l.309-33.031s-1.298-2.243-1.92-2.807l-11.168.469a1.432 1.432 0 0 0-1.372 1.342c-.333 5.207 4.732 32.504-3.212 32.924-1.903.103-4.728 2.577-4.699 2.622Z"/>
  <path fill="#26324F" d="m116.274 314.62 1.94 16 3.274 19.496s-13.31 4.643-12.392 22.081h51.771s-.169-48.974-2.1-58.693l-20.382 5.002s-1.429-4.183-3.426-4.183-18.685.305-18.685.305v-.008Z"/>
  <path fill="#575858" d="m98.243 333.584-23.396-11.826-.296 5.405 23.692 11.769v-5.348Z"/>
  <path fill="#010101" d="M98.398 320.556h-.309c-.83 0-1.503.672-1.503 1.502v5.265c0 .83.673 1.503 1.503 1.503h.309c.83 0 1.503-.673 1.503-1.503v-5.265c0-.83-.673-1.502-1.503-1.502Z"/>
  <path fill="#7D7D7D" d="m74.408 332.448 23.976-10.69v5.347l-24.08 11.909.104-6.566Z"/>
  <path fill="#434343" d="m98.243 350.837-23.935-11.42-.062 6.126 23.997 10.501v-5.207Z"/>
  <path fill="#40403F" d="m86.398 333.033 5.437-2.688.996.502-3.541 3.635-2.892-1.449Z"/>
  <path fill="#7D7D7D" d="m74.263 344.275 23.977-10.691v6.171l-24.084 11.082.107-6.562Z"/>
  <path fill="#40403F" d="m80.063 348.128 6.395-2.943 1.598.823-4.44 3.639-3.553-1.519Z"/>
  <path fill="#010101" d="M107.079 367.204h-44.53c-.644 0-1.166.521-1.166 1.165v2.663c0 .643.522 1.165 1.165 1.165h44.531c.644 0 1.166-.522 1.166-1.165v-2.663c0-.644-.522-1.165-1.166-1.165Zm53.193 0h-50.474c-.684 0-1.239.554-1.239 1.239v2.515a1.24 1.24 0 0 0 1.239 1.239h50.474a1.24 1.24 0 0 0 1.239-1.239v-2.515c0-.685-.555-1.239-1.239-1.239Z"/>
  <path fill="#0D1626" d="M121.491 350.116s-.309 4.882 4.806 5.928c5.115 1.045 10.349-.696 11.63-3.721l.465-33.822-1.215-2.498h-15.69s-1.471.288-1.121 3.079c.35 2.791 3.139 31.022 3.139 31.022l-2.014.012Z"/>
  <path fill="#010101" d="M143.922 319.489h-.387a1.89 1.89 0 0 0-1.89 1.89v6.623a1.89 1.89 0 0 0 1.89 1.89h.387a1.89 1.89 0 0 0 1.89-1.89v-6.623a1.89 1.89 0 0 0-1.89-1.89Zm1.89 15.005a2.084 2.084 0 0 0-4.167 0v6.236a2.083 2.083 0 1 0 4.167 0v-6.236Zm0 15.634a2.083 2.083 0 0 0-4.167 0v6.237a2.084 2.084 0 0 0 4.167 0v-6.237Z"/>
  <path fill="#575858" d="m116.973 320.395 26.999 14.087v6.203l-26.118-13.016-.881-7.274Z"/>
  <path fill="#434343" d="m119.5 338.281 24.471 11.913v6.36l-23.338-11.534-1.133-6.739Z"/>
  <path fill="#7D7D7D" d="m143.97 321.478-25.146 12.79 1.001 5.96 24.145-11.909v-6.841Zm.001 13.004-23.252 11.069.77 4.565 22.482-9.431v-6.203Z"/>
  <path fill="#3B4E6C" d="M69.144 356.381c-1.31 2.302-3.435 6.443-3.682 9.431a.288.288 0 0 0 .288.305h4.51a.288.288 0 0 0 .28-.346c-.293-1.301-1.265-5.981-.861-9.217.037-.308-.375-.44-.531-.173h-.004Zm51.421-3.91c-4.913 1.161-8.426 9.706-8.678 12.695a.289.289 0 0 0 .289.305h6.568a.287.287 0 0 0 .28-.346c-.292-1.301-1.77-5.94 1.99-12.292.156-.268-.145-.432-.445-.362h-.004Z"/>
  <path fill="#152035" d="m113.693 313.504-5.728 54.111-6.672-.411 8.249-52.691 4.151-1.009Zm39.073 1.47 2.018 52.23h5.489l.564.136-.205-16.265-.598-21.591s-.506-13.572-1.264-15.984l-6 1.474h-.004Z"/>
  <path fill="#999" d="m81.484 335.461 2.607-7.327 3.443-1.535-2.508 7.113-3.542 1.749Zm4.914-2.428 2.434-7.015.783-.35-2.319 6.92-.898.445Zm39.864 4.021 2.751-7.994 3.525-1.766-2.586 7.937-3.69 1.823Zm4.836-2.387 2.656-7.99.782-.35-2.561 7.908-.877.432Zm-8.758 15.103 1.808-5.853 3.632-1.717-1.977 6.084-3.463 1.486Zm4.582-1.93 2.067-6.224.795-.379-2.026 6.249-.836.354ZM75.5 350.223l2.739-7.698 3.438-1.535-2.685 7.624-3.492 1.609Zm4.848-2.231 2.631-7.583.783-.349-2.52 7.52-.894.412Z"/>
  <path fill="#40403F" d="m131.539 334.49 6.388-3.157.588.3-4.682 3.997-2.294-1.14Zm1.948 10.596-6.882 2.885 2.476 1.223 5.246-3.697-.84-.411Z"/>
</svg>
