<svg xmlns="http://www.w3.org/2000/svg" width="249" height="414" fill="none" viewBox="0 0 249 414">
  <path fill="#FDF5F0" d="M159.295 373.175h-32.658v4.948h32.658v-4.948Z"/>
  <path fill="#65518F" d="M141.383 358.85s2.317 4.861 6.563 3.931c4.245-.931 11.784-7.208 11.784-7.208l1.268-2.073s.537-.586.746.348c.32 1.424-1.214 3.544-1.214 3.544s.353 11.695.086 12.757c-.188.754-1.074 3.219-1.321 3.228l-40.382.502-2.625 1.453s-.771-4.182 0-5.426c.771-1.243 5.636-7.36 5.636-7.36l19.459-3.696Z"/>
  <path fill="#DD565B" d="M116.289 375.336s2.547-5.039 4.168-5.039h7.03s1.825.527 2.236 1.161c.41.634 1.969 5.772 5.964 6.665h-17.605s-1.543-.968-1.797-2.791l.004.004Zm18.641-1.655 18.651-9.97v4.014l5.213-3.24-4.057 8.953-2.695.033-2.05-3.754-3.516 3.824-11.546.14Z"/>
  <path fill="#EFAE42" d="M121.93 362.55s-.156 5.113 4.709 5.5c4.865.387 8.569-1.626 8.569-1.626l6.177-7.57v-3.969c0-.942-.763-1.708-1.702-1.708h-12.777a1.639 1.639 0 0 0-1.592 2.001l.681 3.038-4.065 4.338v-.004Z"/>
  <path fill="#46347A" d="m135.068 366.494.951.992s-.324.399.693.078c0 0 1.649.679 3.097-1.354 0 0-.357 2.009-1.398 2.486-1.178.543-2.076.292-2.597 0-.98-.547-1.509-1.824-1.509-1.824l.763-.378Z"/>
  <path fill="#DF8F3E" d="m121.929 362.55 2.355-2.441 10.693 2.664-.135 3.832s-3.187 1.873-8.204 1.449c-5.016-.424-4.709-5.5-4.709-5.5v-.004Z"/>
  <path fill="#DD565B" d="M121.386 363.23s-1.005-1.561-.308-2.594c.698-1.033 3.475-3.149 4.709-3.33 1.235-.181 6.538-.161 11.342 4.232.869.798 2.124 2.243 2.124 2.243.394.42.599 1.396.55 1.968-.066.712-.312 1.626-1.099 2.107-.566.346-1.448.787-2.777 0-1.124-.666-2.186-4.375-7.047-5.614-4.861-1.239-5.997-.704-5.997-.704l-1.489 1.696-.008-.004Z"/>
  <path fill="#9C2F38" d="M122.875 361.537s-1.087-.032-1.223.313c-.135.346-.156.828 0 1.075l1.223-1.388Zm14.5 5.677c.863 0 1.563-.702 1.563-1.568 0-.866-.7-1.569-1.563-1.569s-1.563.703-1.563 1.569.7 1.568 1.563 1.568Z"/>
  <path fill="#F2E1D6" d="M137.129 367.012c.863 0 1.563-.702 1.563-1.568 0-.866-.7-1.568-1.563-1.568s-1.563.702-1.563 1.568c0 .866.7 1.568 1.563 1.568Z"/>
  <path fill="#F8D181" d="M128.07 355.076c.125-.587-.204-1.155-.736-1.27-.532-.114-1.064.269-1.189.856-.126.587.204 1.156.736 1.27.531.114 1.064-.269 1.189-.856Z"/>
  <path fill="#E58992" d="M121.88 373.892c.51-.886.371-1.924-.309-2.318-.681-.395-1.646.004-2.156.89-.51.886-.371 1.924.31 2.318.681.395 1.646-.004 2.155-.89Z"/>
  <path fill="#46347A" d="m160.531 357.396-2.043 1.783 2.043-.659v-1.124Z"/>
  <path fill="#EFAE42" d="m135.366 373.681-.788.004 19.209-10.316v3.985l5.472-3.4-4.295 9.48-.451.004 3.815-8.422-4.951 3.075v-4.038l-18.011 9.628Z"/>
  <path fill="#EFAE42" d="m146.761 373.537-.566.004 3.84-4.174 2.243 4.1h-.471l-1.859-3.4-3.187 3.47Z"/>
  <path fill="#9C2F38" d="m116.289 375.336 17.027 1.618s1.464.98 2.371 1.173h-17.605s-1.719-.93-1.797-2.791h.004Z"/>
  <path fill="#FDF5F0" d="M107.913 373.175H76.481v4.948h31.432v-4.948Z"/>
  <path fill="#65518F" d="M90.086 359.08s3.458 4.631 7.704 3.701c4.245-.931 10.709-6.781 10.709-6.781l.5-2.5s2.384-.586 2.593.348c.32 1.424-1.214 3.544-1.214 3.544s-.796 12.737-1.062 13.803c-.189.753-1.157 2.173-1.407 2.186l-39.152.502-2.625 1.453s-.771-4.182 0-5.425c.77-1.244 5.636-7.361 5.636-7.361l18.314-3.466.004-.004Z"/>
  <path fill="#DD565B" d="M66.137 375.336s2.547-5.039 4.167-5.039h7.03s1.826.527 2.236 1.161c.41.634 1.97 5.772 5.964 6.665H67.93s-1.542-.968-1.796-2.791l.004.004Zm15.554-1.609 18.737-10.016v4.014l5.21-3.24-3.995 8.986-2.7.033-2.108-3.787-3.445 3.861-11.699.149Z"/>
  <path fill="#EFAE42" d="M71.774 362.55s-.115 4.767 4.709 5.5c3.269.498 6.308-2.688 6.308-2.688l7.297-6.282-.09-4.199c0-.942-.763-1.708-1.702-1.708H76.749c-1.046 0-2.12 1.074-1.89 2.099l.114 2.972-1.21 2.713-1.99 1.593Z"/>
  <path fill="#DF8F3E" d="m71.773 362.55 2.74-2.972 11.518 2.207-1.317 1.733s-3.211 4.96-8.232 4.532c-5.02-.428-4.709-5.5-4.709-5.5Z"/>
  <path fill="#F8D181" d="M77.918 355.077c.125-.587-.205-1.155-.737-1.27-.531-.114-1.064.269-1.189.856s.205 1.156.736 1.27c.532.114 1.064-.269 1.19-.856Z"/>
  <path fill="#E58992" d="M71.724 373.891c.51-.886.371-1.924-.31-2.318-.68-.395-1.645.004-2.155.89-.51.886-.371 1.924.31 2.318.68.395 1.645-.004 2.155-.89Z"/>
  <path fill="#46347A" d="m110.379 357.396-2.047 1.783 1.924-.523.123-1.26Z"/>
  <path fill="#EFAE42" d="m82.257 373.718-.792.013 19.168-10.362v3.985l5.471-3.4-4.311 9.517-.455.004 3.835-8.459-4.951 3.075v-4.038l-17.965 9.665Z"/>
  <path fill="#EFAE42" d="m93.586 373.574-.582.008 3.876-4.215 2.289 4.137-.492.004-1.883-3.441-3.208 3.507Z"/>
  <path fill="#46347A" d="m84.339 364.011-.39.49s.64 2.236.681 2.487c.041.251.985 1.848 2.662 1.091 1.678-.758 1.534-1.445 1.534-1.445l-4.487-2.623Z"/>
  <path fill="#9C2F38" d="m66.137 375.336 17.026 1.618s1.465.98 2.371 1.173H67.93s-1.718-.93-1.796-2.791h.004Z"/>
  <path fill="#DD565B" d="M73.137 361.085s1.037-2.742 2.293-3.063c3.47-.889 9.651 1.075 10.775 1.746 1.124.671 1.288.564 2.1 2.507.85 2.037 1.05 3.165.767 3.91-.147.391-.59 1.128-1.735 1.4-1.144.272-1.948-.655-2.17-1.149-.221-.494-.434-2.033-.828-2.42-.656-.646-7.293-3.989-11.202-2.927v-.004Z"/>
  <path fill="#8670A8" d="M87.088 366.634c.697 0 1.263-.568 1.263-1.268 0-.7-.566-1.268-1.263-1.268-.698 0-1.264.568-1.264 1.268 0 .7.566 1.268 1.264 1.268Z"/>
  <path fill="#DCDBDB" d="M86.935 366.362c.698 0 1.264-.567 1.264-1.268 0-.7-.566-1.268-1.264-1.268-.698 0-1.263.568-1.263 1.268 0 .701.566 1.268 1.263 1.268Z"/>
  <path fill="#FDF5F0" d="M159.295 373.175h-32.658v4.948h32.658v-4.948Z"/>
  <path fill="#65518F" d="M141.383 358.97s2.317 4.862 6.563 3.932c4.245-.931 11.784-7.208 11.784-7.208l.268-3.073s2.537.413 2.746 1.348c.32 1.424-1.214 3.544-1.214 3.544s-.647 11.695-.914 12.757c-.188.753-1.074 3.219-1.321 3.227l-40.382.503-2.625 1.453s-.771-4.183 0-5.426c.771-1.243 5.636-7.36 5.636-7.36l19.459-3.697Z"/>
  <path fill="#DD565B" d="M116.289 375.336s2.547-5.039 4.168-5.039h7.03s1.825.527 2.236 1.161c.41.634 1.969 5.772 5.964 6.665h-17.605s-1.543-.968-1.797-2.791l.004.004Zm18.641-1.655 18.651-9.97v4.014l5.213-3.24-4.057 8.953-2.695.033-2.05-3.754-3.516 3.824-11.546.14Z"/>
  <path fill="#EFAE42" d="M121.93 362.55s-.156 5.113 4.709 5.5c4.865.387 8.569-1.626 8.569-1.626l6.177-7.571v-3.968c0-.943-.763-1.708-1.702-1.708h-12.777a1.638 1.638 0 0 0-1.592 2l.681 3.038-4.065 4.339v-.004Z"/>
  <path fill="#46347A" d="m135.068 366.494.951.992s-.324.399.693.078c0 0 1.649.679 3.097-1.354 0 0-.357 2.009-1.398 2.486-1.178.543-2.076.292-2.597 0-.98-.547-1.509-1.824-1.509-1.824l.763-.378Z"/>
  <path fill="#DF8F3E" d="m121.929 362.55 2.355-2.441 10.693 2.664-.135 3.832s-3.187 1.873-8.204 1.449c-5.016-.424-4.709-5.5-4.709-5.5v-.004Z"/>
  <path fill="#DD565B" d="M121.386 363.229s-1.005-1.56-.308-2.593c.698-1.033 3.475-3.149 4.709-3.33 1.235-.181 6.538-.161 11.342 4.231.869.799 2.124 2.244 2.124 2.244.394.42.599 1.395.55 1.968-.066.712-.312 1.626-1.099 2.107-.566.346-1.448.786-2.777 0-1.124-.667-2.186-4.376-7.047-5.615-4.861-1.239-5.997-.704-5.997-.704l-1.489 1.696-.008-.004Z"/>
  <path fill="#46347A" d="M159.735 355.577s1.763-.577 1.763-1.577c0-.5-1.5-1-1.5-1l-.268 2.577h.005Z"/>
  <path fill="#9C2F38" d="M122.875 361.537s-1.087-.032-1.223.313c-.135.346-.156.828 0 1.075l1.223-1.388Zm14.5 5.677c.863 0 1.563-.702 1.563-1.568 0-.866-.7-1.569-1.563-1.569s-1.563.703-1.563 1.569.7 1.568 1.563 1.568Z"/>
  <path fill="#F2E1D6" d="M137.129 367.012c.863 0 1.563-.702 1.563-1.568 0-.866-.7-1.568-1.563-1.568s-1.563.702-1.563 1.568c0 .866.7 1.568 1.563 1.568Z"/>
  <path fill="#F8D181" d="M128.07 355.076c.125-.587-.204-1.155-.736-1.27-.532-.114-1.064.269-1.189.856-.126.587.204 1.156.736 1.27.531.114 1.064-.269 1.189-.856Z"/>
  <path fill="#65518F" d="M90.086 359.08s3.458 4.631 7.704 3.701c4.245-.931 10.709-6.781 10.709-6.781l.5-2.5s2.384-.586 2.593.348c.32 1.424-1.214 3.544-1.214 3.544s-.796 12.737-1.062 13.803c-.189.753-1.157 2.173-1.407 2.186l-39.152.502-2.625 1.453s-.771-4.182 0-5.425c.77-1.244 5.636-7.361 5.636-7.361l18.314-3.466.004-.004Z"/>
  <path fill="#523E8B" d="M110.5 354.5c0 .8-1.333 1.334-2 1.5l.5-2c.5-.167 1.5-.126 1.5.5Z"/>
  <path fill="#E58992" d="M121.88 373.892c.51-.886.371-1.924-.309-2.318-.681-.395-1.646.004-2.156.89-.51.886-.371 1.924.31 2.318.681.395 1.646-.004 2.155-.89Z"/>
  <path fill="#46347A" d="m161.5 357.5-2.5 1.282 2.5-.782v-.5Z"/>
  <path fill="#EFAE42" d="m135.366 373.681-.788.004 19.209-10.316v3.985l5.472-3.4-4.295 9.48-.451.004 3.815-8.422-4.951 3.075v-4.038l-18.011 9.628Z"/>
  <path fill="#EFAE42" d="m146.761 373.537-.566.004 3.84-4.174 2.243 4.1h-.471l-1.859-3.4-3.187 3.47Z"/>
  <path fill="#9C2F38" d="m116.289 375.336 17.027 1.618s1.464.979 2.371 1.173h-17.605s-1.719-.93-1.797-2.791h.004Z"/>
  <path fill="#FDF5F0" d="M107.913 373.175H76.481v4.948h31.432v-4.948Z"/>
  <path fill="#DD565B" d="M66.137 375.336s2.547-5.039 4.167-5.039h7.03s1.826.527 2.236 1.161c.41.634 1.97 5.772 5.964 6.665H67.93s-1.542-.968-1.796-2.791l.004.004Zm15.554-1.61 18.737-10.015v4.014l5.21-3.24-3.995 8.986-2.7.033-2.108-3.787-3.445 3.861-11.699.148Z"/>
  <path fill="#EFAE42" d="M71.774 362.55s-.115 4.767 4.709 5.5c3.269.498 6.308-2.688 6.308-2.688l7.297-6.282-.09-4.199c0-.943-.763-1.708-1.702-1.708H76.749c-1.046 0-2.12 1.074-1.89 2.099l.114 2.972-1.21 2.713-1.99 1.593Z"/>
  <path fill="#DF8F3E" d="m71.773 362.55 2.74-2.972 11.518 2.206-1.317 1.733s-3.211 4.961-8.232 4.533c-5.02-.428-4.709-5.5-4.709-5.5Z"/>
  <path fill="#F8D181" d="M77.918 355.077c.125-.587-.205-1.156-.737-1.27-.531-.114-1.064.269-1.189.856s.205 1.155.736 1.27c.532.114 1.064-.269 1.19-.856Z"/>
  <path fill="#E58992" d="M71.724 373.891c.51-.886.371-1.924-.31-2.318-.68-.395-1.645.004-2.155.89-.51.886-.371 1.924.31 2.318.68.395 1.645-.004 2.155-.89Z"/>
  <path fill="#46347A" d="m110.379 357.396-2.047 1.783 1.924-.523.123-1.26Z"/>
  <path fill="#EFAE42" d="m82.257 373.718-.792.013 19.168-10.362v3.985l5.471-3.4-4.311 9.517-.455.004 3.835-8.459-4.951 3.075v-4.038l-17.965 9.665Z"/>
  <path fill="#EFAE42" d="m93.586 373.574-.582.008 3.876-4.215 2.289 4.137-.492.004-1.883-3.441-3.208 3.507Z"/>
  <path fill="#46347A" d="m84.339 364.011-.39.49s.64 2.236.681 2.487c.041.251.985 1.848 2.662 1.091 1.678-.758 1.534-1.445 1.534-1.445l-4.487-2.623Z"/>
  <path fill="#9C2F38" d="m66.137 375.336 17.026 1.618s1.465.979 2.371 1.173H67.93s-1.718-.93-1.796-2.791h.004Z"/>
  <path fill="#DD565B" d="M73.137 361.085s1.037-2.742 2.293-3.063c3.47-.889 9.651 1.074 10.775 1.745 1.124.671 1.288.564 2.1 2.507.85 2.038 1.05 3.166.767 3.911-.147.391-.59 1.128-1.735 1.4-1.144.271-1.948-.655-2.17-1.149-.221-.494-.434-2.033-.828-2.42-.656-.647-7.293-3.989-11.202-2.927v-.004Z"/>
  <path fill="#8670A8" d="M87.088 366.634c.697 0 1.263-.568 1.263-1.268 0-.7-.566-1.268-1.263-1.268-.698 0-1.264.568-1.264 1.268 0 .7.566 1.268 1.264 1.268Z"/>
  <path fill="#DCDBDB" d="M86.935 366.362c.698 0 1.264-.568 1.264-1.268 0-.7-.566-1.268-1.264-1.268-.698 0-1.263.568-1.263 1.268 0 .7.566 1.268 1.263 1.268Z"/>
</svg>
