<svg xmlns="http://www.w3.org/2000/svg" width="250" height="414" fill="none" viewBox="0 0 250 414">
  <path fill="#DD565B" d="m136.961 373.405 22.424-18.491a.604.604 0 0 1 .989.465v19.48a.604.604 0 0 1-.63.601l-22.424-.988a.604.604 0 0 1-.359-1.067Z"/>
  <path fill="#0779B9" d="m120.25 366.695 3.488-4.61a.499.499 0 0 0 .083-.436 238.47 238.47 0 0 1-1.1-3.907c-.527-2.033-1.742-7.891-2.244-10.345a.494.494 0 0 1 .741-.522l38.918 23.278a.503.503 0 0 1 .242.428v4.368a.494.494 0 0 1-.539.494l-35.986-3.034"/>
  <path fill="#F2E1D6" d="M160.376 378.123h-40.359l-1.162-9.686s.116-1.746 1.397-1.746c1.28 0 8.837.544 8.837.544s1.396.502 1.512 1.202c.115.7 1.281 3.721 1.281 3.721l28.498-.115"/>
  <path fill="#DD565B" d="M142.8 371.956c.646-2.138-.105-4.255-1.677-4.73-1.572-.474-3.37.873-4.016 3.011-.646 2.137.105 4.254 1.677 4.729 1.572.474 3.37-.873 4.016-3.01Z"/>
  <path fill="#EFAE42" d="M150.632 371.957c.646-2.138-.105-4.255-1.677-4.73-1.572-.474-3.37.873-4.016 3.011-.646 2.137.105 4.254 1.677 4.729 1.572.474 3.37-.873 4.016-3.01Z"/>
  <path fill="#399551" d="M158.304 371.955c.646-2.137-.105-4.254-1.677-4.729-1.572-.475-3.37.873-4.016 3.01-.646 2.137.105 4.255 1.677 4.729 1.572.475 3.37-.873 4.016-3.01Z"/>
  <path fill="#F2E1D6" d="M123.884 361.887h7.212c.3 0 .543-.242.543-.543v-3.219a.533.533 0 0 0-.531-.531h-8.393l1.169 4.298v-.005Z"/>
  <path fill="#DD565B" d="m86.243 373.405 22.222-18.236c.395-.325 1.042-.103 1.042.408l-2.224 19.331c0 .342-.095.712-.436.696l-20.25-1.132a.603.603 0 0 1-.358-1.067h.004Z"/>
  <path fill="#0779B9" d="m69.523 366.695 5.527-5.569c.095-.124-.23-7.525-.358-13.725-.008-.432.37-.745.741-.522l32.25 22.912c.149.091.157.062.157.239l-.321 4.923a.495.495 0 0 1-.54.494l-33.856-3.034"/>
  <path fill="#F2E1D6" d="m107.714 372.043-26.559.115s-1.161-3.021-1.28-3.721c-.12-.7-1.512-1.202-1.512-1.202s-7.557-.544-8.838-.544c-1.28 0-1.396 1.746-1.396 1.746l1.161 9.686h38.045"/>
  <path fill="#DD565B" d="M90.456 370.943c.646-2.137-.105-4.254-1.677-4.729-1.572-.475-3.37.873-4.016 3.01-.646 2.137.105 4.255 1.677 4.729 1.572.475 3.37-.873 4.016-3.01Z"/>
  <path fill="#EFAE42" d="M98.288 370.944c.646-2.137-.105-4.254-1.677-4.729-1.572-.475-3.37.873-4.016 3.01-.646 2.137.105 4.255 1.677 4.729 1.572.475 3.37-.873 4.016-3.01Z"/>
  <path fill="#399551" d="M105.96 370.943c.646-2.137-.105-4.255-1.677-4.73-1.572-.474-3.37.873-4.016 3.011-.646 2.137.105 4.254 1.677 4.729 1.572.474 3.37-.873 4.016-3.01Z"/>
  <path fill="#F2E1D6" d="M75.052 361.126h5.592c.3 0 .544-.243.544-.544v-3.219a.533.533 0 0 0-.532-.531h-5.695l.086 4.298.005-.004Z"/>
  <path fill="#E07986" d="M86.818 369.762a4.62 4.62 0 0 1 .144-.42l-.074.173c.12-.28.272-.547.457-.79l-.111.144a2.86 2.86 0 0 1 .494-.502l-.144.111c.144-.111.3-.202.465-.272l-.173.074a2.1 2.1 0 0 1 .453-.123l-.193.024a1.71 1.71 0 0 1 .247-.016c.379 0 .737-.329.72-.72-.016-.392-.316-.725-.72-.721-1.49.013-2.586 1.301-2.961 2.651-.099.362.123.799.502.885.38.087.779-.115.886-.502l.008.004Z"/>
  <path fill="#F8D181" d="M94.61 369.762c.042-.144.092-.284.145-.42l-.074.173c.12-.28.272-.547.457-.79l-.111.144c.144-.185.309-.358.494-.502l-.144.111c.144-.111.3-.202.465-.272l-.173.074c.145-.057.297-.099.453-.123l-.193.024c.082-.012.165-.016.247-.016.379 0 .737-.329.72-.72-.016-.392-.317-.725-.72-.721-1.49.013-2.586 1.301-2.961 2.651-.099.362.123.799.502.885.38.087.779-.115.886-.502l.008.004Z"/>
  <path fill="#5FB366" d="M102.338 369.762c.041-.144.09-.284.144-.42l-.074.173c.119-.28.271-.547.457-.79l-.112.144c.145-.185.309-.358.495-.502l-.144.111c.144-.111.3-.202.465-.272l-.173.074a2.09 2.09 0 0 1 .453-.123l-.194.024c.083-.012.165-.016.247-.016.379 0 .738-.329.721-.72-.016-.392-.317-.725-.721-.721-1.49.013-2.586 1.301-2.961 2.651-.098.362.124.799.503.885.379.087.778-.115.885-.502l.009.004Z"/>
  <path fill="#E07986" d="M139.248 370.713c.041-.144.09-.284.144-.42l-.074.173c.119-.28.271-.547.457-.79l-.111.144c.144-.185.308-.358.494-.502l-.144.111c.144-.111.3-.202.465-.272l-.173.074c.144-.057.297-.099.453-.123l-.193.024c.082-.012.164-.016.247-.016.378 0 .737-.329.72-.721-.016-.391-.317-.724-.72-.72-1.491.012-2.587 1.301-2.961 2.651-.099.362.123.799.502.885.379.087.778-.115.885-.502l.009.004Z"/>
  <path fill="#F8D181" d="M147.041 370.713c.041-.144.09-.284.144-.42l-.074.173c.119-.28.271-.547.457-.79l-.111.144c.144-.185.308-.358.494-.502l-.144.111c.144-.111.3-.202.465-.272l-.173.074c.144-.057.297-.099.453-.123l-.194.024c.083-.012.165-.016.248-.016.378 0 .737-.329.72-.721-.016-.391-.317-.724-.72-.72-1.491.012-2.587 1.301-2.961 2.651-.099.362.123.799.502.885.379.087.778-.115.885-.502l.009.004Z"/>
  <path fill="#5FB366" d="M154.775 370.713c.041-.144.091-.284.144-.42l-.074.173c.119-.28.272-.547.457-.79l-.111.144c.144-.185.309-.358.494-.502l-.144.111c.144-.111.301-.202.465-.272l-.173.074c.145-.057.297-.099.453-.123l-.193.024c.082-.012.165-.016.247-.016.379 0 .737-.329.721-.721-.017-.391-.317-.724-.721-.72-1.491.012-2.586 1.301-2.961 2.651-.099.362.123.799.502.885.379.087.779-.115.886-.502l.008.004Z"/>
</svg>
