<svg xmlns="http://www.w3.org/2000/svg" width="250" height="414" fill="none" viewBox="0 0 250 414">
  <path fill="#C6C6C6" d="M109.779 347.38c-.52 6.18-2.88 11.02-3.09 12.88l-2.08.73-10.22 3.57-2.12-3.57-3.15-5.3s13.02 1.69 14.06-.47c0-3.48 3.13-8.73 6.6-7.84Z"/>
  <path fill="#fff" d="M111.109 363.46c-.25 1.46-1.75 6.03-1.75 6.03s.22.06.27.38c.03.18.03 1.69.02 2.94 0 .92-.73 1.66-1.62 1.66h-30.12c-.63 0-1.25-.1-1.84-.31-2.03-.69-6.42-2.7-7.66-7.52-.31-1.22-.28-2.53-.03-3.84 1.07-5.51 6.1-11.14 6.1-11.14s-.33-3.62 0-4.39c.33-.78 5.36-4.31 11.75-.94 3.71 1.95 4.93 5.38 5.29 7.91.05.35.09.68.11.99.1 1.32-.02 2.21-.02 2.21s1.04.23 2.62.38c1.96.19 4.75.29 7.47-.27 1.18-.24 2.35-.61 3.43-1.14 0-2.07.95-7.63 3.71-6.96 1.65.4 2.22 4.78 2.37 8.56.1 2.57 0 4.86-.1 5.45Z"/>
  <path fill="#49453E" d="M99.43 374.47h-4.64a26.146 26.146 0 0 1-4.21-3.79c-2.74-3.06-4.79-6.77-5.97-10.85-.5-1.74 2.14-2.39 2.64-.66 1.29 4.45 3.74 8.34 7.03 11.32 1.37 1.24 2.89 2.33 4.54 3.24.34.19.53.45.61.74Zm4.369-1.45c-6.2-3.43-10.76-9.31-12.77-16.29-.21-.72.12-1.25.61-1.5.1 1.32-.02 2.21-.02 2.21s1.04.23 2.62.38c2.04 5.51 5.93 10.02 10.99 12.82 1.54.85.1 3.23-1.44 2.38h.01Z"/>
  <path fill="#F9F9F9" d="M91.62 357.43c-.12.8-1.5 2.88-1.5 2.88-.76.81-3.04.56-3.97.89-.94.32-6.01 6.09-10.85 6.66-4.84.57-6.9-1.21-6.9-1.21-.27-1.05-.29-2.16-.12-3.29l.02-.16c.08-.49.19-.99.33-1.48.03-.12.07-.25.11-.37.06-.2.13-.4.2-.6.26-.73.57-1.45.91-2.14.08-.16.15-.32.24-.48.04-.08.09-.16.13-.25.27-.51.55-1 .83-1.47.05-.09.11-.18.17-.27.09-.15.19-.3.28-.44.55-.86 1.09-1.62 1.56-2.24.02-.03.04-.06.06-.08.18-.25.36-.47.51-.67.52-.66.86-1.04.86-1.04s-.02-.16-.03-.41v-.04c-.07-.99-.22-3.33.04-3.94.33-.78 5.36-4.31 11.75-.94 3.71 1.95 4.93 5.38 5.29 7.91 0 0 .28 1.96.09 3.2l-.01-.02Z"/>
  <path fill="#C6C6C6" d="M91.68 356.41c0 .36-.02.71-.06 1.02-.12.8-1.5 2.88-1.5 2.88a1.239 1.239 0 0 1-.31.23c-.94.53-2.83.37-3.66.66-.94.32-6.01 6.09-10.85 6.66-4.03.47-6.13-.68-6.72-1.08.84.2 1.7.39 2.57.45 1.24.09 2.52.1 3.75-.14 1.12-.21 2.19-.66 3.18-1.21 2.01-1.11 3.76-2.59 5.38-4.23.72-.72 1.41-1.27 2.41-1.42 1-.15 1.99-.1 2.93-.55h.01c.83-.41 1.31-1.33 1.29-2.29-.05-2.59-.79-5.21-2.06-7.12-2.96-4.48-8.83-4.45-13.49-3.13.76-.98 5.6-4 11.66-.81 3.71 1.95 4.93 5.38 5.29 7.91 0 0 .14 1 .15 2.02v.16l.03-.01Z"/>
  <path fill="#B2A99D" d="m86.949 372.69-10.88 1.47c-2.03-.69-6.42-2.7-7.66-7.52-.31-1.22-.28-2.53-.03-3.84l2.8.11s-1.26 2.95.78 4.56c.96.76 10.89.64 10.89.64 3.68.41 4.11 4.57 4.11 4.57l-.01.01Z"/>
  <path fill="#84745D" d="M109.648 372.8c0 .92-.73 1.66-1.62 1.66h-30.12c-.63 0-1.25-.1-1.84-.31-1.4-.47-3.91-1.57-5.75-3.78 0 0 8.26.51 11.8.54.84 0 3.17-.09 6.13-.24 1.15-.06 2.41-.12 3.7-.19 7.77-.42 17.16-1 17.16-1s.47.06.52.38c.03.18.03 1.69.02 2.94Z"/>
  <path fill="#0378B7" d="M75.3 351.99s-.16-2.89 0-3.41c.52-1.75 5.2-1.57 6.19-.2 1.27 1.76-.96 4.42-.96 4.42l-3.25.66-1.99-1.47h.01Z"/>
  <path fill="#49453E" d="M111.218 358c-2.53.99-7.19 2.61-8.49 1.68-.92-.66-1.08-1.49-1.02-2.14 1.18-.24 2.35-.61 3.43-1.14 0-2.07.95-7.63 3.71-6.96 1.65.4 2.22 4.78 2.37 8.56Z"/>
  <path fill="#C6C6C6" d="M111.22 358c-.14-3.78-.72-8.16-2.37-8.56-2.76-.67-3.71 4.89-3.71 6.96-.5.25-1.01.45-1.54.63.71.55 1.58.97 2.13 1.64.97 1.17.87 2.94.85 4.38-.03 2.1-.29 4.2-.81 6.23a19.64 19.64 0 0 1-1.69 4.39c-.14.27-.29.53-.45.79h4.41c.89 0 1.61-.74 1.62-1.66.01-1.24.02-2.75-.02-2.94-.05-.32-.27-.38-.27-.38s1.5-4.56 1.75-6.03c.1-.59.2-2.88.1-5.45Z"/>
  <path fill="#84745D" d="M109.649 372.8c0 .92-.73 1.66-1.62 1.66h-4.41c.16-.26.31-.52.45-.79.67-1.25 1.19-2.61 1.57-3.99 2.11-.12 3.46-.21 3.46-.21s.41.06.5.33c0 .02.01.04.02.06.03.18.03 1.69.02 2.94h.01Z"/>
  <path fill="#49453E" d="M111.219 358c-1.33.52-3.24 1.21-4.95 1.62-.12-.34-.3-.66-.53-.95-.56-.67-1.43-1.09-2.13-1.64.13-.04.26-.09.39-.14l.39-.15c.26-.1.51-.22.76-.34 0-2.07.95-7.63 3.71-6.96 1.65.4 2.22 4.78 2.37 8.56h-.01Z"/>
  <path fill="#5E503C" d="M109.649 372.8c0 .92-.73 1.66-1.62 1.66h-4.41c.16-.26.31-.52.45-.79.67-1.25 1.19-2.61 1.57-3.99 2.11-.12 3.46-.21 3.46-.21s.41.06.5.33c0 .02.01.04.02.06.03.18.03 1.69.02 2.94h.01Z"/>
  <path fill="#23211D" d="M111.219 358c-1.33.52-3.24 1.21-4.95 1.62-.12-.34-.3-.66-.53-.95-.56-.67-1.43-1.09-2.13-1.64.13-.04.26-.09.39-.14l.39-.15c.26-.1.51-.22.76-.34 0-2.07.95-7.63 3.71-6.96 1.65.4 2.22 4.78 2.37 8.56h-.01Z"/>
  <path fill="#B2A99D" d="M83.01 356.35c-.42.37-1 .25-1.36-.14-2.18-2.35-5.46-3.39-8.53-2.85.18-.25.36-.47.51-.67.52-.66.86-1.04.86-1.04s-.02-.16-.03-.41v-.04c3.23-.08 6.43 1.29 8.69 3.72.36.39.25 1.09-.13 1.42l-.01.01Z"/>
  <path fill="#84745D" d="M73.69 352.62s-.04.05-.06.08c-.15.2-.33.42-.51.67 3.08-.54 6.35.49 8.53 2.85.29.31.73.44 1.1.29-2.34-2.68-5.55-3.81-9.06-3.88v-.01Z"/>
  <path fill="#B2A99D" d="M79.74 361.08c-.42.4-.97.3-1.37-.05-2.28-2-5.31-3.03-8.28-2.91.04-.08.09-.16.13-.25.27-.51.55-1 .83-1.47.05-.09.11-.18.17-.27 3.13.16 6.14 1.39 8.58 3.52.4.35.29 1.09-.05 1.42l-.01.01Zm-4.48 4.38a10.462 10.462 0 0 0-6.97-2.11l.02-.16c.08-.49.19-.99.33-1.48.03-.12.07-.25.11-.37 2.69-.06 5.37.76 7.59 2.45 1 .76-.07 2.43-1.08 1.66v.01Z"/>
  <path fill="#84745D" d="M68.4 362.71c-.03.16-.07.32-.09.48l-.02.16c2.46-.16 4.97.6 6.97 2.11.41.31.83.22 1.12-.05-2.29-1.92-4.98-2.58-7.97-2.7h-.01Zm2.07-5.29c-.08.15-.17.3-.25.45-.04.08-.09.16-.13.25 2.97-.12 6 .91 8.28 2.91.4.35.95.45 1.37.05.04-.04.08-.09.12-.14-2.51-2.46-5.93-3.35-9.39-3.51v-.01Z"/>
  <path fill="#C6C6C6" d="M160.4 353.42c-.78 2.86-1.95 5.1-2.34 6.51-.08.29-.14.54-.17.75l-2.22.71-1.59.51-9.24 2.96-2.06-3.16-.2-.31-3.03-4.63-.38-.58.29.03c.37.04 1.06.12 1.95.2.57.05 1.22.11 1.92.16.62.05 1.29.09 1.97.13.64.04 1.29.06 1.93.08.59.02 1.17.02 1.74.02.69 0 1.35-.03 1.95-.07.84-.06 1.57-.17 2.14-.33.58-.16.98-.39 1.13-.68 0-1.14.19-2.51.56-3.79.44-1.52 1.15-2.93 2.15-3.73.74-.6 1.64-.87 2.7-.61.17.04.53.2.67.25.04 1.98.08 3.87.11 5.59l.02-.01Z"/>
  <path fill="#fff" d="M160.99 363.79c-.27 1.42-1.82 5.8-1.82 5.8s.22.06.26.36c.03.18 0 1.61-.03 2.79-.02.87-.73 1.57-1.6 1.57h-29.28c-.61 0-1.21-.09-1.8-.29-1.99-.65-6.34-2.55-7.76-7.15-.36-1.18-.39-2.44-.19-3.71.83-5.4 5.64-11 5.64-11s-.46-3.65-.16-4.44c.31-.79 5.06-4.16 11.61-.72 3.78 1.98 5.28 5.19 5.68 7.72.05.35.09.68.12.98.11 1.3 0 2.19 0 2.19s1.04.22 2.61.38c1.95.19 4.73.28 7.44-.27 1.18-.24 2.35-.6 3.43-1.13.02-2.05 1.03-7.64 3.81-6.97 1.65.41 2.15 4.8 2.23 8.55.05 2.53-.09 4.76-.2 5.34h.01Z"/>
  <path fill="#49453E" d="M149.44 374.31h-4.51c-1.5-1.04-2.89-2.24-4.13-3.58-2.73-2.92-4.8-6.5-6.05-10.48-.53-1.71 2.08-2.36 2.61-.65 1.34 4.35 3.8 8.09 7.06 10.95a23.96 23.96 0 0 0 4.43 3.07c.33.18.52.43.59.7v-.01Zm4.259-1.37c-6.05-3.26-10.55-8.91-12.61-15.75-.21-.71.11-1.24.59-1.49.11 1.3 0 2.19 0 2.19s1.04.22 2.61.38c2.05 5.4 5.89 9.74 10.82 12.41 1.5.81.06 3.06-1.42 2.26h.01Z"/>
  <path fill="#F9F9F9" d="M141.729 356.73v.16c.01.21 0 .43-.01.64 0 .13-.02.25-.04.37-.11.78-1.45 2.83-1.45 2.83-.07.06-.14.12-.22.17-.04.02-.06.04-.09.06l-.06.03c-.06.03-.13.06-.2.08-.14.06-.31.11-.49.14-.08.02-.16.04-.24.05-.19.03-.4.06-.6.08-.17.02-.35.03-.51.04h-.07c-.15 0-.29.02-.43.04-.4.03-.76.08-1.01.17-.93.31-5.8 5.89-10.52 6.44-.85.1-1.62.12-2.3.1-.17 0-.33 0-.48-.03-.16 0-.31-.02-.45-.04-.11 0-.21-.03-.31-.04-.17-.02-.34-.05-.49-.08-.14-.03-.27-.05-.39-.08l-.27-.06a.83.83 0 0 0-.21-.06c-.13-.04-.25-.08-.37-.12l-.09-.03c-.18-.06-.34-.12-.49-.19-.08-.03-.15-.06-.21-.1-.26-.12-.45-.23-.57-.31-.12-.07-.18-.12-.18-.12-.31-1-.38-2.04-.27-3.11 0-.08.02-.15.02-.23.06-.48.15-.96.27-1.43.02-.12.05-.23.09-.35.05-.2.11-.4.17-.6.23-.71.5-1.42.81-2.11.08-.18.16-.35.24-.53l.09-.18c.24-.5.5-.98.76-1.45l.22-.37c.07-.12.13-.23.2-.34.51-.85 1.03-1.61 1.47-2.23.06-.09.11-.16.17-.23.09-.13.08-.22.05-.34-.01-.06-.03-.12-.05-.19-.02-.05-.15-.57-.32-1.25-.27-1.06-.64-2.54-.81-3.32-.04-.18-.07-.33-.08-.42-.13-.83 7.55-4.89 14.11-1.45 3.77 1.98 5.04 5.44 5.44 7.97 0 0 0 .02.01.05 0 .03.01.06.01.1.04.31.13 1.08.15 1.86v.01Z"/>
  <path fill="#C6C6C6" d="M141.73 356.73v.16c.01.21 0 .43-.01.64 0 .13-.02.25-.04.37-.11.78-1.45 2.83-1.45 2.83-.07.06-.14.12-.22.17-.04.02-.06.04-.09.06l-.06.03c-.06.03-.13.06-.2.08-.14.06-.31.11-.49.14-.08.02-.16.04-.24.05-.19.03-.4.06-.6.08-.17.02-.35.03-.51.04h-.07c-.15 0-.29.02-.43.04-.4.03-.76.08-1.01.17-.69.23-3.53 3.34-6.88 5.17-1.17.64-2.41 1.12-3.64 1.27-.85.1-1.62.12-2.3.1-.17 0-.33 0-.48-.03-.16 0-.31-.02-.45-.04-.11 0-.21-.03-.31-.04-.17-.02-.34-.05-.49-.08-.14-.03-.27-.05-.39-.08l-.27-.06a.83.83 0 0 0-.21-.06c-.13-.04-.25-.08-.37-.12l-.09-.03c-.18-.06-.35-.13-.49-.19-.08-.03-.15-.06-.21-.1-.26-.12-.45-.23-.57-.31.84.19 1.68.37 2.54.43 1.22.09 2.47.1 3.67-.13 1.08-.21 2.12-.64 3.09-1.17.08-.05.16-.09.24-.14 1.84-1.06 3.46-2.44 4.96-3.96.69-.7 1.36-1.24 2.36-1.38.99-.15 1.97-.1 2.9-.55h.01c.82-.4 1.28-1.3 1.25-2.25-.08-2.57-.86-5.18-2.16-7.1-2.6-3.86-7.67-4.94-11.89-3.86-1.26.32-2.81.97-4.02 1.73-.06-.28-.13-.55-.19-.83 1.02-1.16 8.17-4.19 14.2-1.03 3.77 1.98 5.04 5.44 5.44 7.97 0 0 0 .02.01.05 0 .02.01.06.01.1.04.31.13 1.08.15 1.86Z"/>
  <path fill="#B2A99D" d="m137.289 372.64-10.55 1.39c-1.99-.65-6.34-2.55-7.76-7.15-.36-1.18-.39-2.44-.19-3.71l2.77.11s-1.12 2.86.94 4.4c.97.73 10.69.61 10.69.61 3.62.39 4.1 4.35 4.1 4.35Z"/>
  <path fill="#84745D" d="M159.41 372.74c-.02.87-.73 1.57-1.6 1.57h-29.28c-.61 0-1.21-.09-1.8-.29-1.37-.44-3.86-1.48-5.73-3.58 0 0 8.08.48 11.54.51.82 0 3.09-.09 5.98-.23 1.13-.05 2.35-.12 3.62-.18 7.6-.4 16.8-.96 16.8-.96s.46.06.5.36c.03.18 0 1.61-.03 2.79v.01Z"/>
  <path fill="#0378B7" d="M124.03 352.821s-.622-2.76-.544-3.285c.249-1.759 5.058-2.101 6.278-.873 1.552 1.563-.312 4.362-.312 4.362l-5.097-.024-.324-.171-.001-.009Z"/>
  <path fill="#49453E" d="M161.189 358.45c-2.54.98-7.18 2.57-8.46 1.66-.91-.65-1.07-1.46-1-2.11 1.18-.24 2.35-.6 3.43-1.13.02-2.05 1.03-7.64 3.81-6.97 1.65.41 2.15 4.8 2.23 8.55h-.01Z"/>
  <path fill="#C6C6C6" d="M161.189 358.45c-.07-3.75-.58-8.14-2.23-8.55-2.77-.68-3.79 4.91-3.81 6.97-.86.42-1.77.73-2.7.96.82.34 1.72.51 2.45.57.66.05 1.05.51 1.12 1.19.47 4.47.08 9.1-1.51 13.28-.18.47-.37.95-.58 1.43h3.88c.86 0 1.58-.7 1.6-1.57.03-1.18.06-2.61.03-2.79-.04-.3-.26-.36-.26-.36s1.55-4.38 1.82-5.8c.11-.57.25-2.81.2-5.34l-.01.01Z"/>
  <path fill="#84745D" d="M159.41 372.74c-.02.87-.73 1.57-1.6 1.57h-3.88c.21-.48.4-.97.58-1.43.38-1.01.7-2.03.94-3.08 2.12-.13 3.48-.21 3.48-.21s.4.06.49.31c0 .02 0 .03.01.05.03.18 0 1.61-.03 2.79h.01Z"/>
  <path fill="#49453E" d="M161.189 358.45c-1.38.53-3.38 1.25-5.12 1.64a8.13 8.13 0 0 0-.05-.49c-.07-.68-.46-1.14-1.12-1.19-.73-.06-1.63-.24-2.45-.58.12-.02.23-.06.34-.09.12-.03.23-.06.35-.1.49-.14.97-.31 1.43-.51.09-.04.17-.07.26-.11.11-.05.22-.1.32-.15.02-2.05 1.03-7.64 3.81-6.97 1.65.41 2.15 4.8 2.23 8.55Z"/>
  <path fill="#5E503C" d="M159.41 372.74c-.02.87-.73 1.57-1.6 1.57h-3.88c.21-.48.4-.97.58-1.43.38-1.01.7-2.03.94-3.08 2.12-.13 3.48-.21 3.48-.21s.4.06.49.31c0 .02 0 .03.01.05.03.18 0 1.61-.03 2.79h.01Z"/>
  <path fill="#23211D" d="M161.189 358.45c-1.38.53-3.38 1.25-5.12 1.64a8.13 8.13 0 0 0-.05-.49c-.07-.68-.46-1.14-1.12-1.19-.73-.06-1.63-.24-2.45-.58.12-.03.23-.06.34-.09.12-.03.23-.06.35-.1.49-.14.97-.31 1.43-.51.09-.04.17-.07.26-.11.11-.05.22-.1.32-.15.02-2.05 1.03-7.64 3.81-6.97 1.65.41 2.15 4.8 2.23 8.55Z"/>
  <path fill="#B2A99D" d="M132.97 355.99s-.04.04-.07.06h-.01c-.47.35-1.12.31-1.57-.01-2.28-1.63-5.31-2.34-8.27-2.1.06-.08.11-.15.17-.22.09-.13.08-.22.05-.34-.01-.06-.03-.12-.05-.19-.02-.05-.15-.57-.32-1.25 3.62-.29 7.28.65 10.07 2.63.49.34.42 1.05 0 1.42Zm-3.229 5.35c-.4.41-.94.31-1.33-.03a11.44 11.44 0 0 0-8.1-2.79l.09-.18c.24-.5.5-.99.76-1.45l.21-.37c3.04.11 6 1.3 8.39 3.4.4.35.3 1.08-.03 1.42h.01Zm-4.302 4.45c-1.94-1.48-4.36-2.2-6.73-2.02 0-.08.02-.15.02-.23.06-.48.15-.96.26-1.44l.09-.34c2.6-.09 5.22.69 7.38 2.34.98.75-.04 2.43-1.03 1.68l.01.01Z"/>
  <path fill="#84745D" d="M132.889 356.05c-.47.35-1.12.31-1.57-.01-2.28-1.63-5.31-2.34-8.27-2.1.06-.08.11-.15.17-.22.09-.13.08-.22.05-.34 1.49-.07 2.97-.03 4.42.27 2 .41 3.67 1.3 5.2 2.4Zm-3.41 4.92c-.23-.16-.41-.42-.63-.6-.66-.55-1.48-.95-2.25-1.32-1.87-.89-3.85-1.28-5.87-1.37a14 14 0 0 0-.34.67l-.09.18c2.89-.16 5.86.82 8.1 2.79.39.34.93.44 1.33.03.01-.01.02-.03.04-.05-.06-.1-.15-.22-.29-.32v-.01Zm-6.7 2.85c-1.31-.46-2.66-.47-4.02-.46 0 .06-.02.12-.03.18 0 .08-.02.15-.02.23 2.37-.18 4.79.54 6.73 2.02.31.24.63.23.89.09-1.06-.89-2.26-1.6-3.55-2.06Z"/>
</svg>
