<svg xmlns="http://www.w3.org/2000/svg" width="250" height="414" fill="none" viewBox="0 0 250 414">
  <path fill="#010101" d="m53.755 271.833-2.28 13.691a1.853 1.853 0 0 0 .761 1.824c2.6 1.832 10.54 6.471 23.66 5.977l3.32-16.079-25.461-5.413Z"/>
  <path fill="#010101" d="m76.327 286.417-1.082 13.84c-.066.844.584 1.581 1.39 1.848 37.129 12.375 67.458 2.409 80.75-3.416.568-.247.905-.836.839-1.449l-1.271-12.387-80.622 1.564h-.004Zm83.979 3.15 3.88 11.703c.172.523.678.86 1.226.819 3.262-.259 14.748-1.848 29.917-11.633.436-.284.641-.819.506-1.322l-3.571-13.078a1.194 1.194 0 0 0-1.629-.782l-29.667 12.819a1.205 1.205 0 0 0-.662 1.478v-.004Z"/>
  <path fill="#1E1E1E" d="M191.602 205.199c-.156-.803-5.829-7.076-7.668-8.653-1.267-1.087-12.26-4.1-14.165-5.014 5.571-2.058 13.77-5.553 15.922-8.97l-64.409 6.138-7.619 9.419-7.574-9.234-44.382-4.046c-1.502-.453 12.996 9.34 12.996 9.34-1.592.585-16.518 5.467-18.085 7.146 0 0-5.37 9.991-5.394 11.35-.255 16.371-.012 50.011-1.036 53.81-1.946 7.208 5.051 11.86 5.051 11.86s8.447 4.401 19.933 3.713c.469-.029-.551 5.31-.26 6.809.182.938 13.07 9.159 40.956 9.336 30.571.198 38.054-9.258 41.609-12.3a3.224 3.224 0 0 0 1.119-2.746l-.231-.403s1.448 8.896 8.36 8.2c6.912-.696 27.996-9.122 29.621-16.795 1.625-7.674-1.271-50.922-4.748-68.952l.004-.008Z"/>
  <path fill="#DD565B" d="M75.739 235.019s15.254 5.524 39.572 4.907c24.701-.63 40.433-4.409 40.433-4.409l1.049 19.887.617 11.271s-21.965 5.541-44.579 5.384c-22.615-.156-37.487-4.833-37.487-4.833l.514-15.391-.12-16.816Z"/>
  <path fill="#F2E1D6" d="M115.381 264.872c12.93-.198 41.51-4.998 41.51-4.998l-1.028-17.589s-23.964 3.659-40.906 4.577l.428 18.01h-.004Z"/>
  <path fill="#DD565B" d="M114.851 239.93c-24.047.539-39.112-4.915-39.112-4.915l.119 16.816-.514 15.391s14.876 4.677 37.487 4.833c.674.004 1.345 0 2.02 0v-32.129.004Z"/>
  <path fill="#F2E1D6" d="M110.807 272.994c-21.364 0-34.891-4.94-35.467-5.282l.029-2.322c.148.087 16.596 7.118 40.498 5.801 24.042-1.326 41.111-5.805 41.255-5.866l.12 2.21c-.144.062-16.95 3.973-41.285 5.319a92.914 92.914 0 0 1-5.15.144v-.004Zm32.098-54.835-16.584.345a.474.474 0 0 0-.464.483l.258 12.417a.473.473 0 0 0 .483.463l16.584-.344a.473.473 0 0 0 .463-.483l-.257-12.417a.474.474 0 0 0-.483-.464Z"/>
  <path fill="#DD565B" d="m125.646 218.915.26 12.42a.466.466 0 0 0 .349.44c2.707-4.528 5.674-10.024 16.662-13.625l-16.806.284a.469.469 0 0 0-.46.481h-.005Z"/>
  <path fill="#121212" d="m75.175 282.05.563-48.233s-1.42 49.525-20.496 44.52c0 0 11.91 4.68 19.933 3.713Zm80.079-50.872 3.114 56.923s3.797 7.945 23.812-2.289c0 0-17.542 5.574-26.926-54.634Zm-80.553-37.003s43.128 10.859 95.067-2.647c0 0 2.917 1.017 9.252 3.034 0 0-48.903 20.603-104.323-.391"/>
  <path fill="#4C4C4D" d="m56.642 205.689 18.056-11.514s-17.003 5.479-18.085 7.146c-1.794 2.771-5.406 10.967-5.406 10.967l-2.41 40.992s-.198 16.136-.215 16.494c-.025.573 2.3 3.985 3.357 5.278l3.3-58.656 1.403-10.707Z"/>
  <path fill="#BABABA" d="m114.978 197.144-1.483 1.143a.569.569 0 0 0-.104.797l7.762 10.084a.567.567 0 0 0 .796.104l1.483-1.143a.568.568 0 0 0 .103-.797l-7.761-10.084a.567.567 0 0 0-.796-.104Z"/>
  <path fill="#E8E8E8" d="m113.736 198.094 8.216 11.168.592-.457-8.491-10.954-.317.243Z"/>
  <path fill="#DD565B" d="m54.518 205.331 7.278 1.235-.848 18.203-9.26-.264 2.83-19.174Z"/>
  <path fill="#EFAE42" d="M52.45 231.178s7.874 1.556 12.72 8.768c0 0-6.899 13.095-16.213 14.956l-.152-1.618 3.649-22.102-.004-.004Z"/>
  <path fill="#DD565B" d="M74.702 194.175s14.05 3.33 31.39 3.948v-2.767s-26.877-2.259-36.2-4.462l4.81 3.281Zm51.915 3.948s32.579-1.898 43.156-6.591l4.472-1.733s-28.889 5.562-47.628 5.973v2.355-.004Z"/>
  <path fill="#121212" d="M62.275 244.614c-3.386-5.915-11.388-9.089-11.894-9.505l.925-1.21c.408.165 8.2 2.931 11.87 9.341l-.897 1.374h-.005Z"/>
  <path fill="#E48894" d="m54.458 205.318 2.185.371-1.86 18.919-4.213-.103.646-12.217 1.613-3.619 1.629-3.351Z"/>
  <path fill="#F8D181" d="M50.084 230.252s1.847.494 2.55.757c.519.198 1.16.449 1.609.647l.14.061-1.214 21.559s-1.9 1.3-4.385 1.626l.02-1.618 1.144-19.463"/>
  <path fill="#282828" d="M49.887 234.871c.164.07 2 .955 4.192 2.223l.099-1.89c-2.07-1.103-4.003-2-4.205-2.079l-.086 1.75v-.004Z"/>
  <path fill="#010101" d="m183.933 196.546-4.912-1.98-4.867 1.98 10.24 10.378 3.357 75.929s5.636-1.429 8.594-8.703c2.958-7.274-2.197-60.236-4.747-68.951-.811-2.774-7.669-8.653-7.669-8.653h.004Z"/>
  <path fill="#DD565B" d="m185.555 201.976-7.233 1.469 1.432 18.166 9.248-.559-3.447-19.076Z"/>
  <path fill="#EFAE42" d="M195.164 230.52s-3.987-1.416-6.834-1.281c-1.094.054-7.693.313-12.301 7.678 0 0 6.612 12.176 18.575 13.749l1.962-3.376"/>
  <path fill="#DF8F3E" d="M186.192 247.57c2.407 1.499 5.217 2.676 8.409 3.096l1.963-3.376-.77-9.999c-.197-2.28-.411-4.549-.629-6.771-.675-.231-4.266-1.404-6.833-1.281-.391.021-1.482.066-2.93.449l.79 17.878v.004Z"/>
  <path fill="#A02E35" d="m188.499 200.901-7.981 2.1 3.529 4.001.98 14.251 5.089-.238 3.97-.33s-.947-7.628-1.403-10.147c-.272-1.502-.659-6.31-2.65-7.891"/>
  <path fill="#221F20" d="m177.605 239.354-.728-1.03c.062-.111 5.751-11.217 18.39-6.738l.16 1.346c-11.651-4.129-17.587 6.014-17.822 6.422Z"/>
  <path fill="#F2E1D6" d="m104.388 230.515-7.352-.312a34.646 34.646 0 0 1-5.13-.605l-6.817-1.326a.928.928 0 0 1-.748-.947l.333-7.739a.93.93 0 0 1 1.061-.877l6.994 1.042c1.271.243 2.559.383 3.85.42l7.875.226a.921.921 0 0 1 .897.926v8.27a.93.93 0 0 1-.963.927v-.005Z"/>
  <path fill="#DD575B" fill-rule="evenodd" d="m86.145 220.287-.285 6.607 6.332 1.231c1.617.315 3.259.508 4.908.579l6.751.287v-7.111l-7.314-.21a25.76 25.76 0 0 1-4.059-.44l-6.333-.943Zm-.772 6.512.002.001-.002-.001Zm-2.198-7.28a2.43 2.43 0 0 1 2.774-2.294l.007.001 7.024 1.046.03.006c1.193.227 2.4.359 3.613.393l7.868.227h.004a2.42 2.42 0 0 1 2.356 2.425v8.27a2.427 2.427 0 0 1-2.522 2.425l-1.441-.056v-.009l-5.916-.252a36.047 36.047 0 0 1-5.352-.631l-6.815-1.325h-.001a2.429 2.429 0 0 1-1.963-2.474v-.01l.334-7.742Z" clip-rule="evenodd"/>
  <path fill="#DD575B" fill-rule="evenodd" d="m92.748 229.913.39-9.933 2.999.118-.391 9.933-2.998-.118Z" clip-rule="evenodd"/>
  <path fill="#fff" d="m73.983 229.581-12.688-12.226.103-2.19 11.65 11.23 2.403-10.123-7.57-12.901v-.234c.025-.782.037-1.4 10.886-4.426 5.08-1.416 10.392-2.029 10.446-2.041l2.345.312c-8.397 2.083-19.653 5.286-21.788 6.352l7.434 12.671-3.221 13.572v.004Zm95.308-1.651-6.603-13.354 4.76-15.152c-2.398-.614-16.732-1.861-27.284-2.404l5.18-.523c.057 0 5.772.099 11.449.358 12.079.551 12.247 1.206 12.441 1.968l.057.226-4.838 15.392 5.032 10.176 9.371-14.379.358 2.465-9.923 15.227Z"/>
  <path fill="#221F20" d="m114.958 246.862 9.475-.704.28 9.003-9.858.683.103-8.982Zm9.792 8.278 9.24-.996.518 9.048-9.338 1.285-.42-9.337Zm8.791-9.925 9.006-1.082.37 8.842-8.969 1.173-.407-8.933Z"/>
  <path fill="#221F20" d="m142.916 252.967 8.615-1.042.345 8.801-8.553 1.17-.407-8.929Zm8.184-9.97 4.76-.712.493 8.978-4.846.662-.407-8.928Z"/>
  <path fill="#F2E1D6" d="M109.77 240.897c-18.995 0-33.513-4.68-33.998-4.94v-1.473c.032.016 4.982 1.371 10.918 2.634 6.101 1.297 17.053 2.61 28.514 1.98 22.084-1.218 40.301-4.569 40.441-4.614l.095 1.733c-.144.045-18.147 3.293-40.445 4.524a98.844 98.844 0 0 1-5.525.152v.004Z"/>
  <path fill="#221F20" d="m114.958 246.862.427 18.01s-23.828 1.934-39.733-5.224v-16.61s24.071 6.1 39.306 3.82v.004Z"/>
  <path fill="#010101" fill-rule="evenodd" d="m114.87 303.702-2.11-105.559 1.999-.04 2.111 105.559-2 .04Z" clip-rule="evenodd"/>
</svg>
