<svg xmlns="http://www.w3.org/2000/svg" width="250" height="414" fill="none" viewBox="0 0 250 414">
  <g clip-path="url(#a)">
    <mask id="b" width="114" height="92" x="68" y="190" maskUnits="userSpaceOnUse" style="mask-type:luminance">
      <path fill="#fff" d="M182 190H68v92h114v-92Z"/>
    </mask>
    <g mask="url(#b)">
      <path fill="#000" d="m182 207.016-1.151 8.497-1.212-6.285 2.363-2.212Z"/>
      <path fill="#1E1E1E" d="M75.5 192.5c8.27 1.582 16.958 3.993 27 4.5 25.5 1 50-3 66.131-7a82.48 82.48 0 0 1 13.276 17.025 102.566 102.566 0 0 0-15.048 17.036 102.82 102.82 0 0 0-12.955 25.357l4.964 29.388s-46.947 8.58-89.583-2.378l5.949-39.684s-4.57-19.806-7.234-22.793a76.97 76.97 0 0 1 2.249-8.962 78.234 78.234 0 0 1 4.747-11.702l.504-.787Z"/>
      <path fill="#000" d="m153.915 249.417-7.669-36.976s5.907 67.429-38.698 69.342c0 0 35.568.268 51.331-2.967l-4.964-29.389v-.01Zm-78.661-12.674 6.747-27.403-9.752 15.774 3.005 11.629Z"/>
    </g>
    <path fill="#575757" d="M74.996 193.277s-3.006 22.091-2.747 31.839c0 0-2.705-9.593-4.249-11.165 0 0 1.534-10.006 6.996-20.674Zm7.006 16.063s-8.063 24.385-12.706 67.087c0 0 11.71 3.246 17.172 3.412 0 0-16.602-8.363-4.466-70.499Z"/>
  </g>
  <defs>
    <clipPath id="a">
      <path fill="#fff" d="M68 190h114v92H68z"/>
    </clipPath>
  </defs>
</svg>
