<svg xmlns="http://www.w3.org/2000/svg" width="250" height="414" fill="none" viewBox="0 0 250 414">
  <path fill="#fff" d="M97.53 197.45c-2.21-.42-13.2-2.49-15.6-3.04a.52.52 0 0 0-.55.21c-4.71 6.54-18.94 33.22-22.47 39.88a3.992 3.992 0 0 0-.21 3.31c1.54 3.96 6.53 13.26 19.81 15.22.31.05.53.33.48.64-.65 3.99-4.49 27.92-3.05 30.01 1.54 2.25 43.25 19.74 79.37.18.91-.49 1.45-1.48 1.4-2.51-.74-15.61-1.88-26.44-1.88-26.44s21.35 3.34 35.49-8.95c1.16-1.01 1.62-2.61 1.21-4.09-4.16-15.03-14.25-48.76-25.41-51.16a.487.487 0 0 0-.24 0c-7.01 1.57-24.45 5.76-37.1 6.03a.54.54 0 0 0-.53.6c.39 3.72-3.96 12.06-16.3 11.73-10.46-.29-13.2-4.15-13.99-11.15a.554.554 0 0 0-.43-.48v.01Z"/>
  <path fill="#0A3575" d="M125.83 203.69a213 213 0 0 0 6.18.12c-3.01 5.39-8.89 11.62-19.91 11-19.5-1.12-18.77-16.06-19.14-18.23l4.95.94c.73 7.25 3.37 11.26 14.03 11.55 7.01.19 11.44-2.41 13.88-5.38h.01Zm2.42-6.35c-.02-.21-.06-.41-.11-.59l6.74-.38c-2.12.2-4.17.33-6.11.37-.32.01-.56.28-.52.6Zm-43.27 27.52-5.91 28.24c-5.38-.69-9.43-2.58-12.46-4.87-.3-.22-.58-.45-.86-.68-.56-.45-1.09-.92-1.56-1.41-.49-.48-.94-.96-1.34-1.44-.21-.24-.41-.49-.6-.73-.39-.49-.75-.98-1.08-1.47-.15-.22-.29-.43-.42-.65-.44-.69-.81-1.35-1.13-1.97-.15-.32-.3-.63-.43-.92-.22-.46-.39-.88-.53-1.25-.39-1.02-.32-2.16.19-3.13 3.5-6.6 18.24-34.23 22.73-40.25.07.02.21.05.38.09.09.02.19.04.3.07.09.02.2.04.3.06.07.01.15.03.24.05.1.03.2.05.28.06a33.35 33.35 0 0 0-1.65 7.77c-.88 9.45 2.15 17.54 3.33 20.29.3.68.37 1.42.22 2.14Z"/>
  <path fill="#F7F7F7" d="M145.78 287.42c-2.55 2.27 6.7-2.01 9.84-3.73a2.15 2.15 0 0 0 1.1-1.98c-.74-15.8-1.89-26.79-1.89-26.79l-3.15-31.98s3.96 55.72-5.9 64.48Z"/>
  <path fill="#0A3575" d="M190.31 245.97c-14.13 12.28-35.48 8.94-35.48 8.94.28-.71-2.97-23.14-3.16-31.98-.01-.7.09-1.39.3-2.05 1.03-3.26 2.94-10.42 2.69-18.17 7.36-.74 13.78-1.77 20.61-3.46 7.29 11.61 13.26 31.87 16.25 42.63.41 1.48-.05 3.09-1.21 4.1v-.01Zm-28.57-54.31c-.41.09-.84.19-1.28.28.22-.05.44-.1.65-.15.2-.04.39-.09.58-.13.01 0 .03-.01.04-.01.21-.05.43-.09.63-.14.15-.03.29-.06.42-.09-.33.08-.68.16-1.04.24Zm2.32-.53-.54.12c.29-.07.56-.13.83-.19-.1.03-.19.05-.29.07Zm1.85-.41h-.05l.13-.03h.02s-.07.01-.1.02v.01Z"/>
  <path fill="#052A56" d="M191.52 241.87c-4.18-15.09-14.33-49-25.53-51.18-1.15.26-2.6.59-4.26.96 6.2 5.98 10.19 14.49 13.49 22.19 4.89 11.42 8.61 23.22 10.55 35.41 1.57-.95 3.1-2.04 4.54-3.29 1.16-1.01 1.62-2.61 1.21-4.1v.01ZM75.93 252.54c.99.24 2.04.43 3.14.57l5.79-28.08-8.93 27.51Z"/>
  <path fill="#2B65AA" d="M83.08 194.66a33.35 33.35 0 0 0-1.65 7.77c-1.24 2.25-2.3 4.57-3.35 6.94-3 6.8-5.69 13.73-8.03 20.79-1.87 5.64-3.9 12-3.44 18.07-.3-.22-.58-.45-.86-.68a23.866 23.866 0 0 1-2.9-2.85c-.21-.24-.41-.49-.6-.73-.39-.49-.75-.98-1.08-1.47-.15-.22-.29-.43-.42-.65-.44-.69-.81-1.35-1.13-1.97-.15-.32-.3-.63-.43-.92-.22-.46-.39-.88-.53-1.25-.39-1.02-.32-2.16.19-3.13 1.81-3.41 6.62-12.44 11.46-21.2.22-.39.44-.79.66-1.18.52-.94 1.05-1.87 1.56-2.79.29-.52.58-1.03.86-1.53 3.42-6.05 6.52-11.3 8.19-13.55.09.02.21.05.38.09.09.02.19.04.3.07.09.02.2.04.3.06.07.01.15.03.24.05.1.03.2.05.28.06Z"/>
  <path fill="#E5E5E5" d="M166.11 190.71c.06 0 .12.03.18.05h-.03l-.22-.06c.02.01.05.01.07.01Zm.28.07a.787.787 0 0 0-.1-.02c.03.01.06.01.1.02Zm.38.11s.08.03.11.05c-.11-.05-.23-.08-.34-.12.06.01.12.03.19.06.02.01.03.01.04.01Zm.52.19.21.09c-.12-.05-.24-.1-.36-.14.05.01.1.03.15.05Zm.75.35s.03.01.04.03c-.07-.04-.14-.08-.21-.11.06.02.11.05.17.08Zm2.38 1.72c-.06-.04-.12-.1-.18-.15-.04-.03-.07-.06-.11-.1a.7.7 0 0 1 .1.08c.06.05.13.11.19.17Z"/>
  <path fill="#E4545B" d="M98.24 199.81c.03.17.07.34.1.51-1.76-.42-3.48-.87-5.15-1.37-.13-1.12-.16-1.96-.23-2.37.02 0 .05.01.07.01.13.03.27.05.4.08.47.09.93.18 1.37.26.14.02.29.05.43.08.14.02.28.05.41.08.14.02.28.05.41.07.23.05.44.09.64.12.01.01.02.01.03.01.21.04.4.07.56.11.08.01.15.03.22.04.03 0 .05 0 .07.02l.35.06c.01.14.03.27.04.4l.12.92c.03.21.06.41.1.62.02.11.04.23.06.35Zm36.65-3.44s-.66 3.49-2.86 7.44c-2.06-.01-4.13-.05-6.2-.12 1.06-1.28 1.75-2.64 2.12-3.86.04-.11.07-.22.09-.33.16-.61.24-1.19.24-1.7 0-.39-.05-.74-.14-1.05l6.75-.38Zm40.4 2.87c.09.15.19.3.28.46-.1-.16-.19-.31-.29-.46h.01Z"/>
  <path fill="#C9414E" d="M175.57 199.7c-.1-.16-.19-.31-.29-.46.09.15.19.3.28.46h.01Z"/>
  <path fill="#F7F7F7" d="M98.34 200.32c-1.76-.42-3.48-.87-5.15-1.37-.72-.21-1.44-.44-2.14-.66a70.07 70.07 0 0 1-5.78-2.19c-1.22-.53-2.4-1.1-3.53-1.69-.05-.03-.1-.05-.15-.08.03.01.06.02.1.02.04.01.08.02.13.04.03 0 .06.01.09.02.23.05.55.12.93.2.12.02.24.04.36.07.13.03.28.06.42.09.08.02.16.03.25.05.09.01.19.03.29.06.04 0 .09.01.13.02.46.09.95.19 1.47.29.87.18 1.83.36 2.8.55l2.35.45c.06 0 .11.02.17.03.64.12 1.28.24 1.88.36.02 0 .05.01.07.01.13.03.27.05.4.08.47.09.93.18 1.37.26.14.02.29.05.43.08.14.02.28.05.41.08.14.02.28.05.41.07.23.05.44.09.64.12.01.01.02.01.03.01.21.04.4.07.56.11.08.01.15.03.22.04h.03s.03 0 .04.02l.35.06c.01.14.03.27.04.4l.12.92c.03.21.06.41.1.62.02.11.04.23.06.35.03.17.07.34.1.51Z"/>
  <path fill="#0A3575" d="m165.55 190.79-4.48 1.02c1.47-.34 2.94-.68 4.48-1.02Z"/>
  <path fill="#E4545B" d="M98.34 200.32c-1.76-.42-3.48-.87-5.15-1.37-.13-1.12-.16-1.96-.23-2.37.02 0 .05.01.07.01.13.03.27.05.4.08.47.09.93.18 1.37.26.14.02.29.05.43.08.14.02.28.05.41.08.14.02.28.05.41.07.23.05.44.09.64.12.01.01.02.01.03.01.21.04.4.07.56.11.08.01.15.03.22.04h.05c.01 0 0 0 .02.01.06 0 .11.02.15.03l.2.03c.01.14.03.27.04.4l.12.92c.03.21.06.41.1.62.02.11.04.23.06.35.03.17.07.34.1.51v.01Zm36.55-3.95s-.66 3.49-2.86 7.44h-.01c-2.06-.01-4.12-.05-6.19-.12 1.06-1.28 1.75-2.64 2.12-3.86.04-.11.07-.22.09-.33.08-.31.14-.6.18-.89.04-.28.06-.55.06-.8 0-.4-.05-.75-.14-1.06l6.75-.38Z"/>
  <path fill="#052A56" d="M98.34 200.32c-1.76-.42-3.48-.87-5.15-1.37-.13-1.12-.16-1.96-.23-2.37.02 0 .05.01.07.01.13.03.27.05.4.08.47.09.93.18 1.37.26.14.02.29.05.43.08.14.02.28.05.41.08.14.02.28.05.41.07.23.05.44.09.64.12.01.01.02.01.03.01.21.04.4.07.56.11.08.01.15.03.22.04h.05l.02.01c.06 0 .11.02.15.03l.2.03c.01.14.03.27.04.4l.12.92c.03.21.06.41.1.62.02.11.04.23.06.35.03.17.07.34.1.51v.01Zm36.55-3.95s-.66 3.49-2.86 7.44h-.01c-2.06-.01-4.12-.05-6.19-.12 1.06-1.28 1.75-2.64 2.12-3.86.04-.11.07-.22.09-.33.08-.31.14-.6.18-.89.04-.28.06-.55.06-.8 0-.4-.05-.75-.14-1.06l6.75-.38Z"/>
  <path fill="#F7AF22" d="m127.391 258.88-2.83 2.78c-7.29 7.16-18.81 7.23-25.73.41l-2.61-2.57c-6.74-6.63-6.76-17.62-.04-24.78l2.6-2.77c6.91-7.37 18.45-8.18 25.76-1.56l2.83 2.56c7.52 6.81 7.52 18.54.01 25.92l.01.01Z"/>
  <path fill="#F7AF22" d="m138.31 248.15-24.26 23.82a3.685 3.685 0 0 1-5.16 0L86.5 249.93c-1.33-1.3-1.33-3.49 0-4.9l22.34-23.8c1.42-1.51 3.73-1.69 5.17-.39l24.3 22.01c1.54 1.4 1.54 3.77 0 5.28v.02Z"/>
  <path stroke="#033044" stroke-miterlimit="10" d="m135.501 247.51-22.18 21.89a2.65 2.65 0 0 1-3.71.02l-20.67-20.25c-.96-.94-.96-2.53 0-3.54l20.62-21.87c1.02-1.08 2.69-1.21 3.72-.27l22.22 20.23c1.1 1 1.1 2.7 0 3.79Z"/>
  <path fill="#033044" d="M123.15 242.21c-.11-.06-.21-.12-.32-.16-.88-.35-1.36-1.07-1.75-1.87-.03-.05-.04-.11-.05-.17-.02-.12.04-.2.17-.18.12.02.25.04.36.09.36.14.72.29 1.08.45.43.2.81.49 1.08.88.28.39.63.65 1.08.78.42.13.78.35 1.09.66.32.32.73.47 1.13.65.39.17.75.38 1.08.64.15.12.26.26.28.45.04.39-.33.93-.7 1.03-.26.07-.52.04-.78 0-.47-.05-.93-.12-1.41-.07-.23.02-.46.05-.69.05-.17 0-.33-.04-.5-.08a.35.35 0 0 0-.34.09c-.64.49-1.29.99-1.93 1.47-.27.2-.54.4-.82.59-.43.29-.93.42-1.44.5-.26.04-.53.07-.78.14-.32.09-.56.31-.79.54-.49.5-.9 1.06-1.29 1.64-.09.14-.2.26-.31.38-.13.13-.29.21-.48.22a1.4 1.4 0 0 1-.75-.14c-.25-.13-.38-.33-.38-.61 0-.26.08-.49.24-.69.05-.07.1-.07.16 0 .07.07.12.13.09.25-.03.13.15.27.28.23.18-.05.27-.19.32-.35.26-.79.51-1.58.75-2.38.08-.28.04-.39-.28-.38-.08 0-.15.03-.23.03-.21 0-.41-.02-.62-.04-.11 0-.21-.04-.32-.06-.19-.03-.37 0-.51.14-.17.16-.34.33-.5.51-.17.19-.15.43-.13.67.04.57.09 1.14.12 1.71.03.59.02 1.17.07 1.76.08.97.45 1.82 1.13 2.52.59.61 1.26 1.12 2.04 1.47.36.16.74.3 1.11.46.59.26 1.03.68 1.28 1.28.12.28.3.5.51.7.17.16.27.36.29.59v.15a.53.53 0 0 1-.33-.19c-.1-.11-.22-.22-.34-.31-.09-.07-.13-.05-.17.06-.05.13-.08.15-.22.14-.19 0-.36-.07-.46-.24-.05-.08-.11-.04-.17-.03-.02 0-.04.06-.05.09-.02.15-.02.16-.17.13a.652.652 0 0 1-.4-.21c-.41-.47-.92-.84-1.38-1.26-.78-.71-1.68-1.25-2.6-1.75-.39-.21-.77-.43-1.15-.65-.43-.25-.64-.62-.64-1.11 0-.33.02-.67.05-1 .06-.65.09-1.3.04-1.95a10.718 10.718 0 0 0-.58-2.78c-.09-.28-.29-.47-.56-.59-.9-.41-1.76-.88-2.54-1.5-.57-.46-1.12-.96-1.68-1.44l-.3-.24c-.23-.18-.49-.22-.75-.09-.37.18-.73.36-1.09.57-.96.55-1.96 1.04-3 1.41-.84.3-1.71.54-2.6.64-.75.09-1.5.09-2.24-.11-1.03-.27-1.86-.83-2.36-1.8-.32-.62-.37-1.29-.28-1.97.03-.22.08-.44.12-.66.03-.14.05-.15.19-.11.17.05.26.17.29.35.05.29.08.58.16.86.26.88.83 1.45 1.72 1.7.51.14 1.02.22 1.55.16.43-.05.83-.19 1.23-.35 1.13-.48 2.17-1.13 3.18-1.82.9-.62 1.74-1.32 2.59-2 .87-.7 1.75-1.4 2.65-2.08.68-.52 1.43-.89 2.25-1.15.77-.24 1.55-.35 2.36-.29 1.3.1 2.45.57 3.49 1.34.88.66 1.65 1.43 2.18 2.41.22.4.42.81.58 1.24.14.36.38.55.74.64.39.09.77.2 1.15.29.17.04.35.05.52.08.04 0 .09 0 .12-.02.4-.2.77-.44 1.1-.74.04-.04.08-.09.12-.13.02-.02.03-.05.05-.09l-.01.01Z"/>
  <path fill="#fff" d="m159.38 205.94 1.04-1.99 1.04 1.99 2.21-.43-.91 2.06 1.71 1.45-2.17.58-.08 2.24-1.8-1.34-1.8 1.34-.08-2.24-2.16-.58 1.7-1.45-.9-2.06 2.2.43Zm.08 30.71 1-2.07 1.01 2.07 2.24-.5-.99 2.07 1.79 1.44-2.24.51-.01 2.3-1.8-1.43-1.8 1.43v-2.3l-2.24-.51 1.79-1.44-.99-2.07 2.24.5Zm-87.19-3.64.98-2.11.98 2.11 2.26-.55-1.03 2.08 1.84 1.43-2.28.49.03 2.33-1.8-1.48-1.8 1.48.03-2.33-2.28-.49 1.84-1.43-1.04-2.08 2.27.55Zm1.55-20.17.32 2.3-1.97-1.24-1.6 1.69-.26-2.21c.22-.39.44-.79.66-1.18.52-.94 1.05-1.87 1.56-2.79l.07.1 2.18-.83-.77 2.2 2 1.19-2.19.77Zm104.23 10.14.99-2.09 1 2.09 2.25-.53-1.02 2.08 1.82 1.43-2.26.5.01 2.32-1.8-1.46-1.8 1.46.02-2.32-2.26-.5 1.81-1.43-1.01-2.08 2.25.53Z"/>
  <path fill="#052A56" d="M175.28 199.24c-6.83 1.69-13.26 2.72-20.62 3.46-.1-3.04-.52-6.18-1.47-9.21 4.24-.86 8.45-1.81 12.67-2.77.73.01 1.51.37 2.18.71.01 0 .03.01.04.03.17.09.34.19.51.3h.01c2.77 1.8 4.79 4.54 6.56 7.3.04.05.07.12.12.18Z"/>
  <path fill="#E5E5E5" d="M125.82 203.69c.13-.16.26-.32.38-.48-.11.16-.23.32-.37.48h-.01Zm1.51-2.31c.11-.21.2-.43.29-.64-.09.21-.18.42-.29.64Zm.38-.87c.09-.22.17-.45.23-.66-.06.22-.15.44-.23.66Zm.23-.67c.08-.27.16-.54.2-.79-.04.15-.07.3-.11.45-.02.11-.05.22-.09.33v.01Zm.2-.79c.05-.22.07-.44.1-.65-.02.21-.05.43-.1.65Zm.12-.99c0 .11 0 .22-.02.34.01-.12.01-.22.02-.34Zm.01-.26c0 .08-.01.17-.02.26 0-.17.02-.34 0-.49v.23h.02Z"/>
  <path fill="#F7F7F7" d="M154.66 202.7c-.14.01-.29.02-.44.04-1.12.11-2.27.21-3.44.31l-.81.06c-1.19.1-2.4.18-3.65.27-1.18.08-2.37.14-3.57.2-3.51.16-7.1.24-10.73.23 2.2-3.95 2.86-7.44 2.86-7.44a151.607 151.607 0 0 0 11.39-1.58l.34-.06c1.1-.19 2.2-.39 3.3-.6 1.02-.19 2.05-.39 3.07-.6.07-.01.14-.02.21-.04.95 3.03 1.37 6.17 1.47 9.21Z"/>
  <path fill="#052A56" d="M153.87 193.35c1.34-.27 2.68-.55 4.02-.84-1.3.28-2.63.57-4.02.84Zm11.99-2.63c.13 0 .25.01.38.04-.22-.03-.44-.03-.66.02l.28-.06Zm9.42 8.52h-.01s-.04-.06-.05-.09l.06.09Z"/>
</svg>
