<svg xmlns="http://www.w3.org/2000/svg" width="250" height="414" fill="none" viewBox="0 0 250 414">
  <g clip-path="url(#a)">
    <path fill="#EBA641" d="M165.523 196.013c.1.032.164-.132.064-.164-.133-.032-.197.132-.064.164Zm27.896 80.834c0 .032-.032.032-.032.064-.032.032-.032.064-.064.132-.032.032-.032.064-.064.1l-.032.032c-.032 0-.032.032-.063.032-.064.032-.133.101-.197.133 0 0-.032 0-.032.032-.848.428-1.734.788-2.619 1.121-.981.361-1.999.662-2.98.954-2.063.592-4.189 1.053-6.284 1.45a97.962 97.962 0 0 1-6.252.989 4.23 4.23 0 0 1-.557.064c-2.126.228-4.221.429-6.347.529-1.082.032-2.127.064-3.208.064h-1.31.064c-.493 0-.949-.032-1.438-.064-.196 0-.392-.032-.588-.032 0 .032.032.101.032.133.456 2.503 3.468 19.578 3.176 19.546-3.569 1.646-41.3 7.702-51.252 7.534-12.732-.265-25.957-2.65-38.36-5.354-.26-.064 2.883-20.048 3.207-22.488.26-1.979.557-3.922.817-5.901-.196.032-.392.032-.556.064-1.767.164-3.537.132-5.271-.032-5.467-.397-10.77-1.975-15.644-4.483-1.21-.625-2.423-1.318-3.5-2.144l-.032-.032c-.032 0-.032-.032-.064-.032-.164-.132-.196-.296-.196-.46a.572.572 0 0 1 .032-.397.47.47 0 0 1 .064-.196c.032-.132.1-.233.132-.328.132-.329.26-.662.393-.99.26-.693.556-1.382.816-2.107.59-1.519 1.21-3.065 1.798-4.579 1.146-2.932 2.291-5.832 3.405-8.765 1.145-2.932 2.29-5.896 3.436-8.829 1.177-3.033 2.355-6.033 3.537-9.062 1.113-2.868 2.227-5.732 3.34-8.569 1.177-3.032 2.355-6.097 3.569-9.13 1.177-3 2.355-5.997 3.5-9.029 1.113-2.901 2.259-5.769 3.372-8.665.329-.858.69-1.747 1.013-2.604.064-.133.165-.233.26-.265.032-.064.032-.164.064-.232v-.032h.329c.032 0 .1.032.132.032 1.406.396 2.88.661 4.322.889.228.032.493.064.72.1h.065c3.044.429 6.087.662 9.163.821 2.588.132 5.139.233 7.69.233h.132c3.468.032 6.904 0 10.373-.101 3.468-.1 6.936-.264 10.409-.46 3.272-.196 6.58-.461 9.852-.757 1.963-.196 3.925-.397 5.828-.625 2.784-.328 5.531-.693 8.278-1.122 2.259-.328 4.486-.725 6.708-1.154a213.68 213.68 0 0 0 4.322-.921c.26-.064.525-.132.753-.196h.228a57.987 57.987 0 0 0 2.683-.725c.101-.032.229-.064.329-.1.032-.032.1-.032.196-.064.032 0 .064-.032.096-.032.228-.064.461-.164.689-.233.032-.032.064-.032.1-.032a5.5 5.5 0 0 1 .721.529c.032.032.165.133.361.297h.032c.064.032.1.064.164.132.128.096.228.164.361.264.064.064.132.133.228.197.849.693 1.702 1.418 2.487 2.239 3.865 6.567 7.886 13.084 10.145 20.298 2.555 8.469 4.417 17.139 6.416 25.772 2.551 10.84 4.746 21.78 6.22 32.821.1.625.164 1.286.26 1.943v.032c0 .164.032.328.064.492.032.165.032.329.064.493v.1c0 .064 0 .132.032.196 0 .064 0 .133.032.233-.064 0-.064.1-.064.232l-.005.005Z"/>
    <path fill="#DF8F3E" d="M66.4 275.068s.032.032.064.032c.1.032.233.032.329.064-.1-.032-.165-.032-.265-.064-.032 0-.1-.032-.133-.032h.005Zm-11.505-9.129c-.032.101-.1.197-.132.297.064-.064.1-.164.132-.297Zm22.261 20.267c-.1.593-.164 1.186-.264 1.779.132-.789.232-1.582.36-2.371.032-.133.032-.265.064-.397-.032.164-.064.36-.1.529-.032.164-.032.296-.064.46h.004Zm-1.383 8.698c.023 0 .034-.011.034-.033 0 0-.034 0-.034.033Z"/>
    <path fill="#2EA0A6" d="M167.042 192.881c-.297-.064-.561-.164-.794-.397-.297-.032-.726 0-.858-.36a.51.51 0 0 1 .36-.661c.165-.165.429-.197.594-.101.232-.132.493.032.693.164.197.133.461.265.53.493.296.397-.133.921-.53.857l.005.005Zm-2.372 3.133c-.101-.032-.032-.196.063-.164.064.032.032.196-.063.164Z"/>
    <path fill="#2EA0A6" d="M167.868 192.288a10.037 10.037 0 0 0-1.483-1.154c-.032-.032-.064-.064-.032-.101.032-.031.064-.063.1-.031.397.228.726.529 1.123.788.132.133.297.265.429.397.032.032-.064.164-.132.101h-.005Z"/>
    <path fill="#D45571" d="M164.67 196.014c.1.032.164-.132.063-.164-.132-.032-.196.132-.063.164Z"/>
    <path fill="#284C6A" d="M188.281 181.215c-.461-.429.132-.858.429-1.122.926-.889 1.848-1.811 2.606-2.768.492-.625.889-1.286 1.286-1.911.101-.265.397-.397.626-.296.264.1.397.428.264.693.53-.164.89.396 1.155.793.625.132 1.022 1.382.954 1.975-.064.725-.89 1.186-1.552.889-.164.101-.365.196-.561.196-.101 0-.233 0-.329-.032-.397.361-.89.725-1.419.657-.1.064-.164.1-.265.132-.196.101-.461.133-.661.032a.543.543 0 0 1-.726-.228c-.397.361-.794.693-1.187 1.054a.65.65 0 0 1-.264.132c-.101-.064-.265-.096-.361-.196h.005Z"/>
    <path fill="#284C6A" d="M194.884 178.05c-.032-.297.228-.593.529-.561.662.032.625.989-.032.989-.233.032-.461-.164-.493-.428h-.004Z"/>
    <path fill="#284C6A" d="M192.899 181.611c-.064-.032-.1-.032-.164-.064-.461 0-1.123.196-1.42-.264-.1 0-.164-.032-.264-.032-.297.196-.79.296-.991-.101-.36-.063-.921 0-1.022-.46-.132-.529.429-.693.858-.625.164-.233.329-.429.498-.625.196-.296.657-.232.821.064.265-.132.593-.1.726.196.593-.328 1.255-.593 1.811-.989.361-.197.726-.493 1.155-.493.397-.296 1.154-.725 1.351-.032.032.032.064.032.1.064a.537.537 0 0 1 .826-.132c.265.264.228.661.329 1.021.063.329.164.657.063.953.626-.132.954.757.329.99-.99.233-2.044.196-3.035.296-.693.064-1.35.329-1.98.228l.009.005Z"/>
    <path fill="#2F75AE" d="M167.745 190.572h.064v.032c-.032-.032-.064-.032-.064-.032Z"/>
    <path fill="#0779B9" d="M166.093 190.773s.037.023.055.037h.014c-.032 0-.032-.032-.065-.032l-.004-.005Z"/>
    <path fill="#0779B9" d="M196.462 177.128c-.757-.757-1.583-1.45-2.341-2.207-.365-.233-.926-.794-1.286-.265-.165.233-.101.529.132.694 1.583 1.122 3.988 2.768 4.518 4.711 0 .228-.101.36-.265.46-.032 0-.032.032-.064.032-.032.032-.064.032-.096.064-.397.164-.926.196-1.255.264-3.463.365-6.827-.46-10.29-1.053-8.114-1.482-15.927-4.218-24.141-5.108-7.155-.789-16.98-1.646-23.511 1.647-.365-.064-.561.296-.661.592-.429 1.054-.858 2.144-1.287 3.229-.297.657-.562 1.286-.826 1.911-.165.397-.329.757-.493 1.154-.05.155-.155.347-.247.552.06-.142.119-.274.146-.388.165-.397.329-.757.493-1.154a.345.345 0 0 0-.164.196c-.694 1.715-1.351 3.457-2.044 5.204-.758 1.979-1.552 3.954-2.31 5.933-.693 1.815-1.382 3.626-2.108 5.436a.58.58 0 0 0-.1.328c0 .593.032 1.186.032 1.779.032 1.085.032 2.207.064 3.293.031 2.307.1 4.615.132 6.922.132 5.769.233 11.534.36 17.298.101 5.669.197 11.301.329 16.97.132 5.7.233 11.401.36 17.102.101 5.636.197 11.268.329 16.905.132 5.801.233 11.597.365 17.398.101 5.669.475 18.146.534 21.229 8.182-.036 16.397-.369 24.419-2.084 4.627-.99 12.924-2.832 12.604-4.51-.328-1.615-.625-3.229-.926-4.843a233.871 233.871 0 0 1-.858-4.547c-.265-1.615-.593-3.197-.89-4.811-.064-.197-.1-.429-.132-.625 9.693.328 21.53-3.722 29.019-9.787a.256.256 0 0 0 .164-.064c.265 0 .461-.232.461-.492 0-1.815-.164-3.658-.265-5.473-.593-8.204-1.811-16.377-3.331-24.585-1.218-7.511-2.41-15.027-3.957-22.506-.725-3.626-1.483-7.251-2.573-10.777-.657-2.107-1.287-4.186-1.944-6.293a600.327 600.327 0 0 0-2.903-7.315c-.493-1.218-.99-2.44-1.515-3.658-.1-.164-.164-.328-.264-.492-.461-.789-.922-1.551-1.383-2.34-.726-1.217-1.483-2.403-2.209-3.589-.397-.624-.821-1.254-1.218-1.879-.53-.661-1.054-1.286-1.584-1.942-.032 0-.032-.032-.064-.069-.032-.032-.064-.095-.096-.132l-.032-.032c-.031 0-.031-.032-.063-.068l-.032-.032a.855.855 0 0 1-.064-.069c-.064-.032-.101-.1-.133-.132l-.032-.032c-.757-.857-1.515-1.715-2.341-2.503a2.769 2.769 0 0 0-.36-.329c-.132-.1-.233-.196-.361-.296-.1-.064-.196-.133-.296-.196-.297-.196-1.483-1.186-1.515-1.218h-.032v-.132c0-.032.032-.032.032-.032h.132c.032 0 .1-.032.164-.032.064-.032.133-.032.197-.032.132-.032.232-.032.328-.064h.164c.064-.032.133-.032.197-.032h.032c.492-.064.953-.132 1.451-.196h.233c.063 0 .1-.032.164-.032h.064c.328-.032.693-.1 1.022-.164.196-.032.36-.068.561-.1.164-.032.329-.069.493-.101.1-.032.196-.032.297-.064h.196c.132-.031.297-.063.429-.1h.132c.064 0 .133-.032.196-.032.064 0 .133-.032.197-.032s.132-.032.196-.032c.064-.032.164-.032.233-.063.064-.032.164-.032.228-.064.1-.032.196-.032.296-.069.064-.032.165-.032.229-.064.164-.031.365-.1.561-.132h.064c.1-.032.233-.064.328-.1.229-.069.493-.132.758-.196.064-.032.132-.032.196-.069.021-.021.043-.032.064-.032.032 0 .064-.032.1-.032.037 0 .064 0 .096.032v.032c.032 0 .101-.032.133-.032h.032c.031-.032.063-.032.1-.032a.536.536 0 0 1 .233-.132c.328-.064.657-.164.99-.228.821-.196 1.615-.397 2.441-.593h.032c.064 0 .101-.032.165-.032.063-.031.132-.031.196-.063h.132c.297-.069.625-.165.922-.233h.032c.265-.068.561-.164.821-.228.858-.265 1.716-.497 2.574-.757h.032c.493-.132.99-.296 1.515-.429h.032c.1-.032.196-.064.297-.1.789-.265 1.551-.493 2.341-.757h.032c.032 0 .064-.032.1-.032 0 0 .032-.032.064-.032.132-.032.265-.1.397-.132.196-.064.361-.132.561-.196a53.712 53.712 0 0 0 2.045-.725c.032 0 .064-.032.1-.032.297-.101.625-.228.922-.329.164-.064.329-.132.493-.196.064 0 .1-.032.132-.032 1.219-.492 2.442-1.053 3.596-1.714.032-.032.101-.064.132-.133 1.055-.693 1.055-1.974-1.25-4.282l.027-.023Z"/>
    <path fill="#0779B9" d="m165.349 189.722.033-.029c0 .01-.014.019-.014.029h-.019Z"/>
    <path fill="#294D6A" d="M57.146 189.158c-.165-.032-.329-.032-.53-.064a54.797 54.797 0 0 1-2.34-.232c-.065 0-.101 0-.165-.032-.164-.032-.297-.032-.461-.064-.132-.032-.233-.032-.36-.064a4.713 4.713 0 0 1-.694-.164 5.908 5.908 0 0 1-1.255-.46c-.561-.297-1.054-.662-1.483-1.186-.032-.064-.064-.101-.064-.164-.164-.329-.196-.625-.196-.922.1-1.55 2.208-2.704 3.299-3.657a36.028 36.028 0 0 1 2.31-1.583c.1-.063.195-.132.296-.196.328-.196.693-.396 1.054-.593.032-.031.064-.031.132-.063.064-.032.1-.064.164-.064.032-.032.064-.032.1-.064a31.264 31.264 0 0 0 2.013 2.175c.694.693 1.42 1.35 2.177 1.975a28.228 28.228 0 0 0 1.748 1.614c.032.032.1.064.132.133a42.068 42.068 0 0 0 1.812 1.55c.397.365.79.725 1.219 1.054.296.228.625.492.958.693-.561.164-1.351.064-1.848.164h-.1c-.233.032-.494.032-.726.032-.1 0-.233 0-.329.032-.493.032-.99.032-1.483.064h-.032c-.265 0-.53 0-.79.032h-1.683c-.959.1-1.913.1-2.87.063l-.005-.009Z"/>
    <path fill="#245D8A" d="M174.238 257.831c-.164-.624-.328-1.217-.492-1.847-.265-.953-.493-1.879-.758-2.832-.493-1.911-1.022-3.821-1.515-5.7-.99-3.722-1.976-7.479-2.966-11.205-.429-1.583-.858-3.165-1.251-4.748-.132-.46.165-.989.625-1.122.461-.132.991.165 1.123.625.99 3.721 1.976 7.415 2.966 11.137 1.023 3.79 2.013 7.579 3.035 11.369.233.825.429 1.651.662 2.472.1.397.196.757.296 1.154.032.164.101.328.101.492 0 .493-.397.926-.89.926a.93.93 0 0 1-.927-.725l-.009.004Z"/>
    <path fill="#245D8A" d="M179.418 259.052c-1.086-.164-5.275.165-5.01-1.418a.92.92 0 0 1 1.022-.789c2.24.397 4.486.493 6.758.297 1.451-.133 2.934-.265 4.285-.561a33.44 33.44 0 0 0 3.332-.922c.397-.164.858-.328 1.255-.264l.1.625c.032.196.064.397.132.625 0 .063.032.132.032.232-1.748 1.551-9.268 2.175-11.477 2.175h-.429Z"/>
    <path fill="#245D8A" d="M183.466 260.964c-2.706-.365-5.439-.826-7.981-1.847-.625-.196-1.419-.561-1.187-1.35.101-.36.461-.693.858-.661.662.1 1.255.497 1.912.661 4.253 1.286 8.739 1.979 13.125 1.286.429-.1 1.022-.296 1.451-.233 0 .064 0 .101.032.165.032.232.032.46.064.693.032.264.064.529.132.821-.064.032-.132.063-.196.1-1.552.429-3.199.593-4.814.593a39.718 39.718 0 0 1-3.396-.228Z"/>
    <path fill="#245D8A" d="M187.92 259.81c-.529-.032-.99-.032-1.255-.032-1.218-.164-2.569.064-3.691-.429-.726-.529-.233-1.747.693-1.614 1.022-.329 2.108-.329 3.231-.297 1.123.032 2.277.032 3.331-.328-.196-1.085.297-1.646.826-1.747v.101l.101.624c.032.196.064.397.132.625.032.164.064.297.101.461.031.164.063.328.1.492 0 .032 0 .064.032.101 0 .063.032.132.032.164v.032c0 .032 0 .064.032.132 0 .032 0 .1.032.132.032.164.032.361.064.529 0 .101.032.196.032.265 0 .068 0 .132.031.196-.365.561-1.451.693-2.541.693-.493-.064-.89-.064-1.287-.1h.004Z"/>
    <path fill="#2F75AE" d="M190.626 233.907c-2.144-1.943-3.924-4.251-5.736-6.494-.429-.429-.328-1.186.196-1.483.133-.063.297-.1.429-.1.064.032.133.064.197.1a.409.409 0 0 0 .196.064c.032.032.064.064.1.064.032.032.064.064.101.064l.032.032c.063.064.164.132.232.196.626.825 1.287 1.582 1.88 2.308.826.953 1.616 1.942 2.506 2.832.196.264.429.492.625.725.228.228.429.46.662.725 0 0 0 .032.032.032.095.529-.365 1.09-.927 1.09-.164.064-.36 0-.529-.164l.004.009Z"/>
    <path fill="#2F75AE" d="M173.841 236.282c1.812-.164 3.628-.461 5.44-.757 3.792-.529 7.52-1.482 11.18-2.536.429-.164.954-.264 1.383-.196l.196.196c.165.196.329.361.53.561 0 .064 0 .133-.032.228-.064.032-.101.064-.165.101-.1.063-.196.132-.296.164h.032c-.133.064-.297.132-.429.196-.133.032-.265.096-.397.132a3.02 3.02 0 0 1-.53.132c-.196.032-.36.064-.561.101l-.625.1c-.196.032-.361.032-.561.064-.165.032-.361.064-.53.096h.032c-.032 0-.064.032-.132.032h-.032c-.196.032-.397.1-.593.132-.064.032-.133.032-.165.1 0 .032-.032.032-.032.064-.032.064 0 .132.032.164 0 .032.032.064.032.096s.032.064.032.1v.064c-4.55 1.218-9.2 1.979-13.882 2.44-1.154 0-1.122-1.779.064-1.779l.009.005Z"/>
    <path fill="#2F75AE" d="M188.354 234.403c-.461-.1-1.055.1-1.42-.328-1.054.196-1.779-1.122-.789-1.715v-.032c0-.265.132-.529.36-.693-.264-.794-1.122-1.318-1.122-2.208 0-.825 1.022-1.386 1.647-.757.625.89 1.648 1.683 1.88 2.769.233.232.461.46.626.757.1.132.132.328.1.529 1.319.921-.064 2.175-1.287 1.682l.005-.004Z"/>
    <path fill="#245D8A" d="M172.386 240.299c-.064-.492.329-.926.794-.99 2.738-.497 5.44-1.121 8.109-1.942 2.113-.662 4.222-1.286 6.234-2.107 0 .064 0 .096.032.132 0 .032.032.064.032.1 0 .037.032.064.032.101.032.1.032.196.032.328.032.164.032.296.064.461.032.1.032.164.064.264 0 .032 0 .064.032.1v.197c0 .031 0 .063.031.132-1.154.46-2.341.889-3.527 1.254-3.596 1.154-7.219 2.175-10.916 2.8h.032c-.064.032-.132.032-.196.032-.397-.032-.79-.397-.858-.857l.009-.005Zm16.355-4.217h.032c0 .021-.01.021-.032 0 .032.032 0 .032 0 .064v-.064Zm.201-1.281c-.164.032-.296.064-.461.096h.032c-.032 0-.1.031-.132.031-.064 0-.1.032-.164.032a.994.994 0 0 1 .725-.164v.005Z"/>
    <path fill="#245D8A" d="M173.408 240.432c-1.848-1.943-3.167-4.319-4.517-6.626-.461-.821-.927-1.647-1.351-2.504a.946.946 0 0 1-.064-.793c0 .031-.032.063-.032.132v.064c.132-.958 1.515-.99 1.78-.101.625 1.318 1.383 2.568 2.108 3.822 1.022 1.646 1.944 3.329 3.331 4.711.858.793-.397 2.107-1.25 1.286l-.005.009Z"/>
    <path fill="#245D8A" d="M172.852 241.389c-1.287-1.053-1.944-2.736-2.903-4.086-.264-.429-.096-.99.297-1.254.429-.265.99-.101 1.255.296.821 1.286 1.483 2.472 2.373 3.626-.064-.101-.164-.164-.297-.228.99.529.297 2.075-.725 1.646Zm1.287 14.863c-.89-.593-.954-3.822-1.155-4.944-.228-4.154.265-9.161 3.728-11.93.397-.296.991-.132 1.251.265.429.661-.165 1.186-.657 1.582-2.542 2.832-2.77 6.987-2.474 10.544.133 1.154.329 2.308.593 3.43.265.725-.625 1.45-1.286 1.053Z"/>
    <path fill="#245D8A" d="M173.773 244.387c-.164-.757.461-1.386.858-1.979 1.583-2.176 3.988-3.494 6.329-4.679.429-.228.991 0 1.219.428.493 1.318-1.552 1.615-2.309 2.208-1.387.757-2.67 1.714-3.66 2.964-.493.492-.593 1.35-1.287 1.646-.461.132-1.022-.1-1.155-.593l.005.005Zm1.716 0c.064-.132.064-.296.032-.461v-.064c.032.197.032.397-.032.529v-.004Z"/>
    <path fill="#245D8A" d="M180.801 239.278c-.53-1.518 1.912-1.614 2.834-2.111.461-.164.99.132 1.154.593.297 1.386-1.684 1.35-2.542 1.847-.492.296-1.186.232-1.451-.329h.005Z"/>
    <path fill="#245D8A" d="M173.97 246.297c-2.013-1.021 2.012-4.383 3.003-5.108 2.537-1.942 5.508-3.228 8.506-4.25.662-.164 1.615-.725 2.309-.593v.032c.032.1.032.164.064.265 0 .032 0 .063.032.1v.196c0 .064.032.132.032.196v.064c.032.132.032.264.064.397.032.132.032.264.064.396a.475.475 0 0 1-.197.064c-1.451.397-2.834.958-4.221 1.482-2.902 1.218-5.805 2.769-7.849 5.209-.493.529-.726 1.614-1.515 1.614a1.3 1.3 0 0 1-.297-.064h.005Z"/>
    <path fill="#245D8A" d="M172.331 246.593c-.461-1.519-.858-3.033-1.351-4.515-.36-.826-.725-2.207.626-2.207.132-.064.264-.133.429-.133.196 0 .365.032.529.133a.978.978 0 0 1 .757-.228c.197.031.361.1.493.164 1.187-.89 2.41.46 1.319 1.514v.1c.794-.825 3.003-2.736 3.496-.757.064.794-.758.857-1.255 1.186-1.086.793-1.848 2.011-3.003 2.7a.788.788 0 0 1-.228.232c0 .1 0 .228-.032.329a1.07 1.07 0 0 1-.132.296c.232.661.296 1.614-.594 1.779-.461.095-.921-.165-1.054-.593Z"/>
    <path fill="#245D8A" d="M172.125 243.1c-.264-.296-.397-.661-.561-1.021-1.022-.297-.958-1.651-1.319-2.472-.328-1.35 1.616-1.647 1.812-.265.89.493.89 1.779 1.451 2.572.758.89-.625 2.075-1.383 1.186Z"/>
    <path fill="#0779B9" d="M102.017 197.067c-1.529-1.587-3.044-3.179-4.563-4.77-2.907-3.64-6.07-7.078-9.405-10.343a.928.928 0 0 0-.215-.206c-.265.023-.388-.196-.876-.209a17.599 17.599 0 0 0-4.522.041 20.763 20.763 0 0 0-5.408 1.55c-1.15.502-2.232 1.131-3.318 1.756-1.798.693-3.6 1.359-5.458 1.801-3.066.757-6.462 1.054-9.66.926-2.698-.191-5.545-.269-8.11-1.245a2.261 2.261 0 0 1-.068-.57c.009-.169.05-.337.105-.497.502-1.254 2.213-2.235 3.158-3.06a36 36 0 0 1 2.309-1.583c.1-.063.196-.132.296-.196.36-.232.909-.533.94-.561-.132-.132-.502-.766-.93-.574-1.32.857-2.812 1.701-4.099 2.59-2.728 1.824-3.65 3.475-3.454 4.944a.802.802 0 0 0 .173.684c.881 2.307 4.505 4.1 7.868 5.281.032 0 .064.032.1.032.758.264 1.515.492 2.31.725h-.033c.032 0 .064.032.1.032.022.021.043.032.065.032h.031c.064 0 .1.032.133.032h.032c.064.031.132.031.196.063h-.032c.379.11.748.224 1.118.342.1.051.2.101.301.155.53.165 1.086.329 1.616.493.032.032.1.032.164.064h-.032c1.219.36 2.474.661 3.692 1.021.021.022.043.032.064.032.424.101.849.228 1.273.361h.01-.033c.032 0 .064.032.1.032h.033c.031 0 .1.031.132.031h-.032c.306.083.607.16.913.242.278.091.566.196.862.319.032 0 .064-.032.1-.032l.055-.027c.041.014.092.037.21.059-.073-.022-.127-.05-.178-.073h.005c.593.151 1.19.247 1.784.374.1.032.21.06.32.087l.009.009c.032.009.064.014.091.023.014 0 .023.005.037.009-.005 0-.01 0-.014-.004.397.091.817.182 1.241.305.032 0 .1.032.132.064.165.064.265.264.197.429-.064.164-.1.328-.165.492.014.009.023.023.037.032a43.037 43.037 0 0 0-.562 1.683h.01a1.086 1.086 0 0 1-.046.128c.005 0 .01.004.014.009-.17.515-.338 1.03-.511 1.541-.461 1.35-.89 2.7-1.351 4.054-.461 1.35-.922 2.737-1.388 4.118-.46 1.419-.921 2.801-1.382 4.219-.43 1.318-.89 2.636-1.319 3.954-.032.132-.1.264-.132.397a1288.863 1288.863 0 0 0-3.003 10.247c-1.109 3.762-2.186 7.493-3.29 11.251-1.31 3.611-2.588 7.251-3.902 10.863-1.319 3.634-2.61 7.274-3.93 10.913-.497 1.117-.99 2.239-1.478 3.356-1.122 2.536-2.24 5.076-3.363 7.612 0 .032-.032.064-.032.1a.554.554 0 0 0-.032.461v.032s.032.031.032.063c.032.064.064.165.1.233.1.264.197.493.329.725.561 1.085 1.154 2.112 1.848 3.097.826 1.217 1.748 2.339 2.738 3.429a38.047 38.047 0 0 0 3.729 3.594 44.292 44.292 0 0 0 4.914 3.625c1.648 1.022 3.3 1.98 5.048 2.8a38.612 38.612 0 0 0 4.75 1.911c.329.101.726.233 1.123.329 1.241.46 3.363.793 3.363.793-.493 4.155-3.336 17.667-3.172 17.9 5.048 4.314 14.11 6.362 20.64 6.33.065 0 .859-10.745.991-13.184.329-5.637 1.127-13.518 1.456-19.15.329-5.801.662-11.565.99-17.366.329-5.536.625-11.041.959-16.577.296-5.669.625-11.37.958-17.07.296-5.669.625-11.369.958-17.038.192-3.343.383-6.677.571-10.01l1.674-10.881-.009-.005Zm-30.041.064-.018-.009.123.027c.018.014.032.032.055.041-.055-.023-.11-.041-.164-.064l.004.005Zm13.426-8.369s-.01 0-.014-.009c.036-.009.078-.013.114-.023-.032.01-.064.019-.1.032Z"/>
    <path fill="#245D8A" d="M167.777 230.842c-.694-.228-.53-1.249.196-1.286 1.615-.46 3.299-1.021 4.915-1.418 4.089-1.086 8.177-2.175 12.202-3.493.032.063.032.164.064.232.032.064.032.132.064.196v.032c.032.1.032.233.064.328 0 .032.032.101.032.133s0 .064.032.096c0 .031.032.063.064.1.032.036.064.032.1.064h-.032c.032 0 .032.032.064.032-.328.1-.694.232-1.022.328-3.861 1.218-7.785 2.276-11.673 3.297-1.351.36-2.67.757-3.989 1.154-.296.064-.593.196-.858.196-.1.032-.164.032-.233 0l.01.009Z"/>
    <path fill="#2F75AE" d="M186.135 235.362c0-.032.032-.101.064-.101.329-.063.662-.132 1.023-.196.794-.164 1.515-.36 2.277-.529.953-.228 1.88-.561 2.802-.889.032-.032.1-.032.132 0 .064.1-.1.164-.164.196-.79.297-1.584.561-2.41.757-1.218.297-2.405.593-3.628.826-.032.031-.1 0-.1-.064h.004Z"/>
    <path fill="#2F75AE" d="M184.922 235.722c0-.032.031-.101.063-.101.562-.1 1.123-.196 1.716-.328 1.684-.328 3.432-.693 4.979-1.45.032-.101.233-.064.164.064-.064.1-.196.132-.296.196-1.52.693-3.135 1.053-4.751 1.35-.593.1-1.186.232-1.78.328-.063 0-.1-.032-.1-.064l.005.005Z"/>
    <path fill="#294D6A" d="M144.097 218.19c.265 1.254-.1 2.568-.794 3.626-.858 1.286-2.309 2.175-3.893 2.175h-.064a3.872 3.872 0 0 1-2.541-1.09c-.662-.725-1.055-1.646-1.086-2.604-.064-1.418.529-2.832 1.551-3.822a4.526 4.526 0 0 1 1.483-.989c.032-.032.064-.032.101-.032.036 0 .032-.032.064-.032h.063c.064-.032.133-.032.197-.064.021 0 .042-.011.064-.032h.1c.032 0 .064 0 .064-.032a3.72 3.72 0 0 1 2.902.429c.99.492 1.584 1.45 1.78 2.472l.009-.005Z"/>
    <path fill="#fff" d="M138.626 213.28a3.736 3.736 0 0 1 2.902.428c.922.561 1.483 1.514 1.684 2.536.265 1.254-.1 2.572-.794 3.626-.858 1.286-2.309 2.175-3.892 2.175h-.064c-.954-.032-1.844-.429-2.538-1.086a4.11 4.11 0 0 1-1.09-2.604c-.064-1.418.529-2.836 1.551-3.821a4.53 4.53 0 0 1 1.483-.99c.032-.032.064-.032.101-.032.036 0 .032-.032.064-.032h.064c.064-.032.132-.032.196-.064.021 0 .042-.01.064-.031h.1c.101-.064.133-.064.164-.101l.005-.004Z"/>
    <path fill="#294D6A" d="M144.097 258.428c.265 1.249-.1 2.567-.794 3.625-.858 1.286-2.373 2.176-3.956 2.176h-.064a3.872 3.872 0 0 1-2.569-1.086 3.913 3.913 0 0 1-1.086-2.604c-.064-1.418.561-2.832 1.583-3.821a4.665 4.665 0 0 1 1.515-.99c.032-.032.064-.032.1-.032.037 0 .064-.032.064-.032h.064c.064-.032.133-.032.197-.064.021 0 .042-.01.063-.032h.101c.032 0 .064 0 .064-.032.99-.264 2.076-.1 2.966.429.922.493 1.551 1.45 1.748 2.472l.004-.009Z"/>
    <path fill="#fff" d="M138.526 253.548c.99-.264 2.076-.1 2.966.429.926.561 1.519 1.514 1.716 2.535.264 1.255-.096 2.573-.79 3.626-.858 1.286-2.373 2.175-3.956 2.175h-.064a3.892 3.892 0 0 1-2.574-1.085 3.918 3.918 0 0 1-1.086-2.604c-.064-1.418.561-2.832 1.583-3.822a4.662 4.662 0 0 1 1.515-.989c.032-.032.064-.032.101-.032.036 0 .064-.032.064-.032h.064c.064-.032.132-.032.196-.064.021 0 .042-.011.064-.032h.1c.032-.096.064-.096.101-.096v-.009Z"/>
    <path fill="#294D6A" d="M146.169 300.735c.264 1.255-.101 2.573-.794 3.626-.858 1.286-2.373 2.175-3.957 2.175h-.064a3.871 3.871 0 0 1-2.569-1.085 3.918 3.918 0 0 1-1.086-2.604c-.064-1.418.561-2.832 1.583-3.822a4.662 4.662 0 0 1 1.515-.989c.032-.032.064-.032.101-.032.036 0 .064-.032.064-.032h.064c.063-.032.132-.032.196-.064.021 0 .042-.011.064-.032h.1c.032 0 .064 0 .064-.032.99-.264 2.076-.096 2.966.429.922.492 1.515 1.45 1.748 2.472l.005-.01Z"/>
    <path fill="#fff" d="M140.597 295.861a3.891 3.891 0 0 1 2.966.428c.926.561 1.52 1.519 1.716 2.541.265 1.254-.1 2.567-.79 3.625-.857 1.286-2.373 2.175-3.956 2.175h-.064a3.87 3.87 0 0 1-2.574-1.09 3.923 3.923 0 0 1-1.086-2.604c-.064-1.418.561-2.832 1.584-3.821a4.682 4.682 0 0 1 1.519-.99c.032-.032.064-.032.096-.032s.064-.032.064-.032h.064c.064-.032.132-.032.196-.064.021 0 .043-.01.064-.031h.1c.032-.101.064-.101.096-.101l.005-.004Z"/>
    <path fill="#DF8F3E" d="M170.177 194.053c-1.123-1.186-2.442-2.176-3.692-3.197-.196-.133-.429-.265-.625-.397a2.69 2.69 0 0 0-.329.1c-.132.032-.233.064-.36.101a4.4 4.4 0 0 1-.726.228c-.89.264-1.78.497-2.701.725h-.233c-.228.064-.493.132-.758.196-1.451.328-2.902.625-4.353.921-2.241.429-4.486.826-6.759 1.154-2.77.429-5.54.793-8.342 1.122-1.912.232-3.892.428-5.868.625-3.3.296-6.595.56-9.926.757-3.495.196-6.991.36-10.487.46-3.495.101-12.001.246-12.992.215-.032.031-1.748 7.693-1.816 8.915-.164 2.44-.297 4.875-.46 7.315-.252 3.927-.498 7.872-.75 11.807-.004.018-.013.037-.018.055-.027.429-.054.857-.077 1.281a.339.339 0 0 0-.055.169c-.032 1.022-.164 2.075-.233 3.097h-.064c0 .164-.031.328-.031.492-.032.397-.064.757-.1 1.122-.033.329-.065.661-.101.99 0 .096-.032.228-.032.36-.032.068-.032.164-.032.228-.032.196-.032.429-.064.661 0 .133-.032.233-.032.365v.164c-.032.069-.032.101-.032.165-.032.031-.032.068-.064.068-.064 1.35-.132 2.668-.196 4.022-.132 1.514-.297 3.033-.429 4.547-.023.123-.032.287.055.388-.005.077-.014.159-.019.241v.954c-.031.164-.031.328-.031.492-.019.192-.028.388-.037.593-.141 1.651-.27 3.302-.429 4.943v.529c.032.096 0 .228 0 .361-.032.068-.032.164-.032.264 0 .164-.032.329-.032.497v.096c-.032.069-.032.164-.032.265 0 .132-.032.296-.032.428 0 .196 0 .397-.032.593v.069c0 .232-.032.492-.032.725v.196c0 .196-.032.365-.032.561v.068c-.031.757-.063 1.551-.1 2.34-.132 2.964-.233 5.933-.365 8.897-.11 2.572-.22 5.163-.324 7.744-.078 1.272-.16 2.544-.237 3.821-.329 5.272-.662 10.512-.99 15.752-.33 5.272-2.798 10.653-2.985 13.686.83.187 3.286.671 4.13.73 1.588.232 4.536.625 4.536.625s6.001-89.686 6.343-97.243c.201-4.446 2.428-7.438 4.226-9.144 1.798.055 3.587.096 5.344.128h1.122c3.464-.032 6.923-.068 10.355-.233 3.559-.164 7.123-.36 10.651-.821.397-.068.821-.1 1.218-.164h.133c.196 0 .397-.032.593-.068.032-.032.1-.032.132-.032h-.1c.064 0 .132-.032.196-.032 6.626-.921 13.257-2.175 19.751-3.854a573.682 573.682 0 0 0 9.893-2.832c.064-.032.164-.032.228-.068-.132-.1-.228-.228-.328-.328Z"/>
    <path fill="#185889" d="M161.703 191.604h-.164s-.529.132-.794.196c-1.451.328-2.902.625-4.354.921-2.24.429-4.485.826-6.758 1.154-2.77.429-5.54.793-8.342 1.122-1.912.232-3.893.429-5.869.625-1.989.177-3.906.337-5.9.488-.352.912-.785 1.828-1.15 2.74a.575.575 0 0 0-.101.329c0 .593.032 1.186.032 1.778.014.415.019.839.028 1.259 3.386-.16 6.772-.36 10.126-.798.397-.068.822-.1 1.219-.164h.132c.196 0 .397-.032.593-.064.032-.032.101-.032.132-.032h-.1c.064 0 .132-.032.196-.032 6.626-.921 13.257-2.175 19.751-3.853 3.299-.922 6.17-1.624 9.465-2.614.063-.032.707-.237.771-.269 0-.004-1-1.45-3.514-3.32-.26-.219-.926-.825-1.045-.898-.557.118-4.358 1.432-4.358 1.432h.004Z"/>
    <path fill="#DF8F3E" d="M188.08 317.162s.032.032.064.032c.1.032.232.032.328.064-.1-.032-.164-.032-.264-.064-.032 0-.101-.032-.133-.032h.005Zm-11.505-9.125c-.032.1-.101.196-.133.297.064-.064.101-.165.133-.297Zm22.261 20.267c-.1.593-.164 1.186-.265 1.779.133-.789.233-1.583.361-2.372.032-.132.032-.264.064-.397-.032.165-.064.361-.101.529-.032.165-.032.297-.064.461h.005Zm-1.383 8.698c.022 0 .034-.011.034-.033 0 0-.034 0-.034.033Z"/>
    <path fill="#185889" d="M165.426 296.568v-.064c-.232-1.054-.429-2.144-.661-3.197-.822-3.922-1.616-7.812-2.442-11.734-.794-3.79-1.583-7.58-2.373-11.369-.794-3.891-1.615-7.776-2.409-11.666-.429-1.943-.826-3.89-1.219-5.833-.36-1.715-.725-3.393-1.054-5.076-.1-.492-.529-.825-1.022-.757-.461.064-.858.529-.758 1.022.265 1.286.53 2.54.794 3.821.822 3.922 1.616 7.808 2.442 11.73.771 3.648 1.51 7.329 2.277 10.981.155.789.306 1.578.465 2.367.366 1.911.758 3.822 1.123 5.733h.091c.288 1.382.571 2.768.858 4.15.397 1.911.794 3.853 1.187 5.801.296 1.45.561 2.868.89 4.314.032.429.429.757.921.825a.872.872 0 0 0 .653-.301 8.495 8.495 0 0 1-.082-.424c.1 0 .196 0 .296.005a.945.945 0 0 0 .023-.201v-.132.005Zm-89.429-2.455 6.243-58.191s-7.836 55.186-26.774 47.547c0 0 8.748 8.661 20.53 10.644Zm-2.342-96.486s12.427.447 16.862.283c2.67-.1 11.5-.844 11.5-.844l-1.816 8.916s-16.556-2.978-26.546-8.355Z"/>
    <path fill="#3D9FD4" d="M57.241 179.856s-6.37 3.717-6.808 5.901c0 0-.265 1.035 3.308 1.382s12.162.853 16.826-1.145c4.664-1.997 10.4-6.827 17.29-4.286l4.628 4.806s-11.993-2.627-18.094.944c-5.458 3.197-21.672 1.355-24.999-.018-.374-.155-.693-.415-.689-.821 0-.588.169-1.487.908-2.463 1.657-2.184 6.7-4.879 6.7-4.879s.095-.347.93.574m-2.857 102.574s-4.965-4.811-6.348-8.939c0 0-.09-.159.064-.561.762-1.938 4.212-9.759 7.306-17.813 1.342-3.493 1.675-4.419 2.515-7.643 3.057-11.688 15.25-47.205 15.25-47.205s-20.01 72.306-18.791 82.161h.004Zm18.446 29.588 3.172-17.9 6.964-64.982s-1.634 71.645-1.634 76.711c0 5.067-1.698 9.992-1.698 9.992s-5.084-1.86-6.804-3.821Z"/>
  </g>
  <defs>
    <clipPath id="a">
      <path fill="#fff" d="M48 174h151v163H48z"/>
    </clipPath>
  </defs>
</svg>
