<svg xmlns="http://www.w3.org/2000/svg" width="250" height="414" fill="none" viewBox="0 0 250 414">
  <g clip-path="url(#a)">
    <path fill="#0779B9" d="M153.094 225.112c11.41 12.285 4.775 28.839 4.775 28.839 11.94 14.152 3.98 26.971 3.98 26.971 12.739 21.094-1.593 27.501-1.593 27.501-40.07 15.22-64.22 6.407-79.61 2.137-15.389-4.275-12.739-17.089-12.739-17.089-9.374-2.312-16.451-9.258-16.451-9.258-9.733-9.079 3.538-24.564 3.538-24.564-7.256-15.486 11.677-30.083 11.677-30.083-10.436-15.131 12.74-30.441 12.74-30.441-7.43-1.069-27.067-7.656-31.137-14.417-4.07-6.767 6.227-10.208 6.227-10.208s3.5 9.651 14.647 10.912c10.075 1.14 16.297 1.381 19.046 1.423a3.17 3.17 0 0 1 2.598 1.428l7.195 10.857 7.411-11.424a3.261 3.261 0 0 1 2.546-1.489c8.426-.506 41.795-1.982 51.574-3.154 11.898-1.424 23.695-2.539 29.983-5.533 3-1.52 4.5-4.02 4.5-4.02s10.488 1.633 9.957 6.437c-.531 4.804-10.084 15.977-30.958 17.4 0 0 17.162 6.942 11.499 27.77 0 0 18.045 14.777 6.898 31.686 0 0 15.198 10.705 6.988 26.966a4.633 4.633 0 0 1-1.748 1.868c-3.722 2.227-16.161 8.828-29.948 6.757 0 0-2.002-7.821-4.835-11.471"/>
    <path fill="#3D9FD4" d="M52.594 175.312s-3.86 7.66-.707 13.041c0 0-4.558-3.012-4.83-6.861 0 0 .028-2.077 1.943-3.992 1-1 3.594-2.188 3.594-2.188ZM51.46 284.213s-2.139-14.237 6.691-20.181l-3.153-4.388 3.787 2.374s-3.5-15.41 10.776-29.43c0 0-1.857-1.334-2.886-3.026l3.393.959s-8.172-14.847 13.614-28.422l-7.1-.865s-18.125 11.958-11.312 25.869l1.4 2.454S47 245.274 54.994 259.649c0 0-13.623 15.845-3.538 24.564h.004Z"/>
    <path fill="#3D9FD4" d="M78.185 224.048S67.16 235.037 74.1 256.443c0 0-4.248 6.766-3.863 13.92.263 4.942 1.255 12.294 3.863 13.675 0 0-7.293 4.728-6.344 12.355.95 7.627 4.822 11.193 8.858 12.682 0 0-6.316-19.694-.211-24.857 0 0-4.131-20.701 1.78-26.683 0 0-4.304-13.727 0-33.482v-.005Z"/>
    <path fill="#185889" d="M96.704 202.014c-5.442-.265-17.293-2.894-17.293-2.894l-2.829 2.113c9.333 1.759 20.122.781 20.122.781Zm-26.405 66.269c0-4.889 3.801-11.84 3.801-11.84-3.89-9.925-1.15-22.787-1.15-22.787 1.348-4.648 3.5-7.726 5.206-9.584-5.085 2.005-5.3 3.825-6.396 5.745a1.493 1.493 0 0 1-1.696.704l-3.393-.959c1.349 2.397 3.266 3.385 4.629 3.797-1.861 8.402-1.043 19.254-.39 21.183a1.634 1.634 0 0 1-.353 1.617c-1.65 1.839-3.505 5.282-3.75 7.192-.098.766-.775 1.296-1.532 1.177-4.534-.704-10.281-4.884-10.281-4.884 2.504 4.998 6.348 7.154 9.553 8.067 0 0 1.856 8.402 0 15.343-1.856 6.942-13.092 1.159-13.092 1.159 9.112 8.19 16.452 9.258 16.452 9.258.883-5.073 6.194-9.433 6.194-9.433-5.306-3.206-3.802-15.75-3.802-15.75v-.005Z"/>
    <path fill="#185889" d="M191.454 256.849c1.79-2.212 3.707-6.047 3.557-12.265-.273-11.504-10.517-19.472-10.517-19.472 2.829-7.476-.009-15.249-.009-15.249l-3.67-1.504c2.876.884 3.67 1.504 3.67 1.504-2.82-8.96-11.49-12.521-11.49-12.521 25.146-1.135 30.644-16.091 30.644-16.091-16.729 14.375-103.707 21.037-103.707 21.037 39.511 0 60.859 2.109 72.217 4.1 9.606 11.688 6.748 22.304 6.095 24.271-8.693 5.57-19.14 5.868-19.14 5.868h-.004c-.86-3.816-2.651-7.802-6.006-11.415l-2.354-1.149c.127.534.249 1.055.362 1.575-19.925 4.066-39.972 3.215-54.05 1.607.427-11.551.822-21.949 1.052-28.011l-.235-.014a4436.311 4436.311 0 0 0-1.898 27.898c-9.6-1.145-16.217-2.606-17.787-2.97 1.466-1.589-.023.029-.023.029 5.855 1.952 11.809 3.508 17.697 4.723-.733 11.311-1.443 22.654-1.87 30.149 0 .071-.01.146-.014.222-11.885-1.097-19.868-2.723-19.868-2.723a191.704 191.704 0 0 0 19.769 4.397c-.512 8.629-1.245 19.959-1.363 28.059v.066c-11.236-2.1-18.402-4.927-18.402-4.927 6.382 2.756 12.519 4.922 18.379 6.582-.07 4.43-.108 8.861.004 13.301.104 2.251.038 4.478.499 6.709 1.203 2.771 4.088 4.407 6.921 4.909l.047-.232a10.58 10.58 0 0 1-1.696-.69c-1.786-.875-3.426-2.289-4.13-4.157-.113-.265-.095-.596-.123-.96.024-4.903.4-11.873.729-18.261 28.04 7.414 49.477 3.324 60.267-1.622 1.48 2.667 2.913 6.956 2.368 13.207-.291 3.333-5.07 7.343-9.755 9.792 5.747-1.782 7.203-1.711 12.645-4.184 0 0 14.328-6.407 1.593-27.501 0 0 1.692-2.728 2.345-7.05 3.976-1.097 15.413-4.539 22.119-9.495 2.284 2.421 5.414 6.719 6.494 12.899 1.767 10.148-26.127 15.117-26.127 15.117 19.873 2.123 29.948-6.757 29.948-6.757s4.135-2.132 4.14-12.658c0-10.525-9.319-16.124-9.319-16.124l-.004-.019Zm-94.473-27.822c22.89 4.563 44.563 3.977 55.079 1.343 3.609 21.098-3.477 26.115-3.477 26.115s.023.043.052.104c-18.214 4.284-38.101 3.977-52.753 2.748.328-9.476.723-20.257 1.094-30.31h.005Zm58.9 51.493c-.395 1.173-1.325 2.615-2.138 3.745-21.65 8.625-43.567 7.693-58.91 5.111.146-2.893.278-5.608.348-7.877.113-4.53.353-11.835.644-20.347 24.901 3.863 43.787 1.357 54.219-1.716 2.543 5.343 7.378 16.493 5.842 21.079l-.005.005Zm8.144-14.365c-.734-3.731-2.524-7.906-6.152-12.204 0 0 2.204-5.518 1.88-12.545 8.632-.425 15.127-5.092 19.295-9.324 2.265 2.766 7.965 10.152 8.106 14.568.178 5.499-3.393 15.311-3.421 15.382-4.196 1.806-10.479 3.532-19.708 4.123Z"/>
  </g>
  <defs>
    <clipPath id="a">
      <path fill="#fff" d="M47 173h157v144H47z"/>
    </clipPath>
  </defs>
</svg>
