<svg xmlns="http://www.w3.org/2000/svg" width="250" height="414" fill="none" viewBox="0 0 250 414">
  <path fill="#AF8041" d="m157.5 285 1.5 7.5 10.026 2.091-8.277-37.848L152.5 251l5 34Zm12.531-18.102 3.995 30.824h8.636l-5.214-25.097-7.417-5.727Z"/>
  <path fill="#D1A057" d="m162.627 262.012 5.329 34.423 9.493-.912-5.91-27.461-8.912-6.05Z"/>
  <path fill="#AF8041" d="m184.408 276.657 1.837 18.618h8.974l-1.816-15.663-8.995-2.955Z"/>
  <path fill="#D1A057" d="m179.664 284.947 1.326 8.529h7.512l-1.627-15.668-7.211 7.139Z"/>
  <path fill="#E8BD84" d="m167.012 290.34 8.327-4.613.403 1.873-8.43 4.684-.3-1.944Z"/>
  <path fill="#54A1A0" d="M51.498 278.035s20.904 1.68 32.753-37.843l-20.843-8.765-11.906 46.608h-.004Z"/>
  <path fill="#348E8A" d="m77.827 260.857-2.323 22.922s9.97 4.869 24.001 4.869l4.736-40.546-18.12-7.91-8.298 20.665h.004Z"/>
  <path fill="#54A1A0" d="M151.861 248.333s17.025 41.198 42.493 37.934l-8.068-51.006-34.425 13.072Z"/>
  <path fill="#0C5A70" d="M151.862 248.333s19.953 40.53 42.492 37.934l.082 2.262c-15.493 2.797-33.057-14.018-45.161-39.804l2.587-.392Z"/>
  <path fill="#D1A057" d="m147.303 217.228 6.276 36.775 10.547-3.252-7.775-35.553-9.048 2.03Z"/>
  <path fill="#9B6032" d="m159.611 251.96 1.363 4.234 9.048-2.93-8.174-39.3-5.498 1.234 7.775 35.553-4.514 1.209Z"/>
  <path fill="#0C5A70" d="M51.499 278.035s21.921-.408 32.752-37.843l2.986.115s-8.932 41.133-36.66 40.753l.926-3.029-.004.004Z"/>
  <path fill="#D1A057" d="m169.186 249.249 6.12-1.461-8.879-34.851-4.579 1.027 7.338 35.285Z"/>
  <path fill="#9B6032" d="m45.45 230.54-1.829 4.23 6.894 3.152 18.12-34.212-7.552-4.944L45.45 230.54Z"/>
  <path fill="#D1A057" d="m56 201-17.64 23.763 8.986 6.643 15.238-31.658L56 201Z"/>
  <path fill="#AF8041" d="m71.229 205.41-11.725 36.255 10.366 3.062 9.986-33.557-8.627-5.76Zm18.232 12.02-7.59 33.635 10.494 1.655 7.264-28.659-10.168-6.631Z"/>
  <path fill="#A07238" d="m77.106 239.882-1.004 5.307 10.18 1.357 6.004-27.271-9.636-6.285-5.544 26.892Z"/>
  <path fill="#D1A057" d="m53.188 232.876 10.756 2.909 9.979-28.613-5.288-3.462-15.448 29.166Zm18.396 6.103 9.97 1.233 3.023-25.963-4.72-3.079-8.273 27.809Zm33.498-11.361-2.573 23.232-9.65-1.386 6.77-25.403 5.453 3.557Z"/>
  <path fill="#9B6032" d="m61.61 235.153 2.334.632 9.979-28.613 5.934 3.998-1.058 3.566-4.156-3.949-8.706 29.623-5.46-1.753 1.132-3.504Zm15.497 4.729 4.448.33 3.022-25.963 7.71 5.026-.383 1.733-5.712-3.475-3.324 25.778-6.47.314.709-3.743Z"/>
  <path fill="#E8BD84" d="m94.527 243.208 8.698-2.03.416-4.618-7.664 1.197-1.45 5.451Zm-.99 3.702 9.423-1.762.14-1.758-9.147 1.956-.416 1.564Z"/>
  <path fill="#9B6032" d="m172.445 248.469 1.923 5.48 12.227-3.313-10.811-39.8-9.356 2.101 8.879 34.851-2.862.681Z"/>
  <path fill="#348E8A" d="M116.135 288.648s33.74-2.257 40.864-6.148l-4.088-38.826-34.544 1.672-2.232 43.302Z"/>
  <path fill="#AF8041" d="m127.954 257.023 7.964-.156-1.05-36.173-8.368 1.135 1.454 35.194Z"/>
  <path fill="#D1A057" d="m134.869 220.694.573 38.145 8.261-1.444-2.562-37.551-6.272.85Z"/>
  <path fill="#AF8041" d="m141.141 219.844 2.561 37.551-2.467.433.132 5.575 13.838-2.336-5.338-42.411-8.726 1.188Z"/>
  <path fill="#0C5A70" d="m57.31 197.879 48.225 30.544-.782 4.572-48.76-31.79 1.317-3.326Z"/>
  <path fill="#9B6032" d="m159.611 251.96 4.514-1.209-7.775-35.553 5.498-1.234.741 3.561-3.328 1.531 7.463 33.016-6.454 1.931-.659-2.043Z"/>
  <path fill="#316D83" d="m119.302 227.817 75.917-30.037v5.629L118.5 234.5l.802-6.683Z"/>
  <path fill="#D1A057" d="m118 234.5-.732 32.65 10.876-4.502L127 231l-9 3.5Z"/>
  <path fill="#6EBCB8" d="m57.999 252.5 3 1-5.123 23.652s-3.048.652-4.378.883l6.501-25.535Z"/>
  <path fill="#9B6032" d="M144.5 224c-.111.029-3.823 1.455-4 1.5l3.207 31.895-2.467.429.058 2.426 6.013-.957L144.5 224Z"/>
  <path fill="#D1A057" d="m184.469 246.051 14.867-7.642-15.625-30.659-9.752 3.812 10.51 34.489Z"/>
  <path fill="#54A1A0" d="M77.282 193.555H59.623l-2.314 4.328 46.931 31.093 2.471-31.134s-18.515-.342-29.433-4.283l.004-.004Zm42.938 4.072-1.046 31.345 75.916-30.037v-7.691l-26.62-.706s-27.152 6.883-48.246 7.085l-.004.004Z"/>
  <path fill="#2C847C" d="M77.283 193.555h-2.582s54.703 25.934 104.176-2.736c-15.938-2.876-46.812 15.074-101.594 2.736Z"/>
  <path fill="#9B6032" d="m197.281 234.378 5.292-3.607-13.628-25.068-5.234 2.047 13.57 26.628Z"/>
  <path fill="#D1A057" d="m188.945 205.703 16.461 30.428 7.59-9.788-18.009-22.996-6.042 2.356Z"/>
  <path fill="#E8BD84" d="m117.523 261.728 10.263-7.638-.329-7.923-9.711 6.61-.223 8.951Zm.655-12.355 9.155-6.165v-1.556l-9.04 5.39-.115 2.331Zm63.364-12.928 10.744-11.864-3.216-6.243-10.086 9.714 2.558 8.393Z"/>
  <path fill="#D1A057" d="m50.571 281.064-3.624 14.216 7.636 1.394.84-15.985-4.852.375Z"/>
  <path fill="#A07238" d="M54.7 294.504h5.736v-15.21l-5.012 1.395-.725 13.815Z"/>
  <path fill="#D1A057" d="M60.435 279.294v20.021l5.745-1.473-1.029-20.946-4.715 2.398Z"/>
  <path fill="#A07238" d="m65.15 276.896.865 17.612 10.428-3.136-.63-3.062-.795.338-2.887-17.685s-4.526 4.683-6.98 5.933Z"/>
  <path fill="#D1A057" d="m72.164 289.263 4.345-.998 1.017-24.441-5.555 7.304.193 18.135Z"/>
  <path fill="#E8BD84" d="m48.636 288.648 6.532-3.045-.235 4.898-7.384 2.418 1.087-4.271Zm.399-1.555 6.198-2.802v-1.209l-5.868 2.715-.33 1.296Zm23.24-4.882 4.56-4.052.086-2.707-4.609 4.333-.037 2.426Z"/>
  <path fill="#AF8041" d="M72.18 200.103c.127.322 16.362 3.24 16.757 6.355 0 0-3.542 2.154-5.869 1.911-4.954-.632-10.435-3.161-10.888-8.266Z"/>
  <path fill="#0C5A70" d="M106.717 197.834s12.668-.041 13.508-.207c.836-.169-4.086 91.021-4.086 91.021h-16.63l7.208-90.814Z"/>
  <path fill="#AF8041" d="M113.122 202.161c.111.095 1.276 2.901 1.499 2.748 5.053.66 2.879.359.865 3.202.935 5.043.552 2.843-2.772 1.816-.28-.029-3.072 2.1-2.977 1.023-.033-.144.667-3.099.399-3.103-2.858-2.777-3.006-2.377.951-2.938.56.004 1.302-3.652 2.035-2.748Z"/>
  <path fill="#9B6032" d="M117.632 205.833c.507-.681-1.046-.573-1.33-.681-.083.153-2.072 1.841-1.899 2.039-.107.268 1.042 3.569.05 3.156l-2.545-1.341c-.186-.194-1.804.859-1.994.904.013.305-.519 1.618.256 1.358.144-.021 2.738-1.589 2.825-1.341.284-.021 3.068 2.096 2.977 1.023-.617-3.586-.934-2.579 1.66-5.113v-.004Z"/>
  <path fill="#E8BD84" d="M110.26 208.008s-.032-.008-.049-.017c.198.429-1.326 4.263.321 3.083l.4-2.344c.074-.277-.486-.553-.672-.722Zm2.862-5.847c-.551-.925-1.573 2.434-1.812 2.583-.498.681-4.954-.07-2.656 1.659-.263-.747 2.813-.69 3.146-.871.342 0 1.339-2.686 1.582-2.839l-.26-.528v-.004Z"/>
  <path fill="#AF8041" d="M111.122 239.161c.111.095 1.276 2.901 1.499 2.748 5.053.66 2.879.359.865 3.202.935 5.042.552 2.843-2.772 1.816-.28-.029-3.072 2.1-2.977 1.023-.033-.144.667-3.099.399-3.103-2.858-2.777-3.006-2.377.951-2.938.56.004 1.302-3.652 2.035-2.748Z"/>
  <path fill="#9B6032" d="M115.632 242.837c.507-.681-1.046-.573-1.33-.681-.083.153-2.072 1.841-1.899 2.039-.107.268 1.042 3.569.05 3.157l-2.545-1.341c-.186-.194-1.804.858-1.994.903.013.306-.519 1.618.256 1.358.144-.021 2.738-1.589 2.825-1.341.284-.021 3.068 2.096 2.977 1.023-.617-3.586-.934-2.579 1.66-5.113v-.004Z"/>
  <path fill="#E8BD84" d="M108.26 245.012s-.032-.008-.049-.017c.198.43-1.326 4.263.321 3.083l.4-2.344c.074-.276-.486-.553-.672-.722Zm2.862-5.851c-.551-.925-1.573 2.434-1.812 2.583-.498.681-4.954-.07-2.656 1.659-.263-.747 2.813-.69 3.146-.871.342 0 1.339-2.686 1.582-2.839l-.26-.528v-.004Z"/>
  <path fill="#AF8041" d="M141.318 203.458c8.752 6.949 22.82 2.794 30.34-3.384-8.245-5.389-21.008-3.226-30.34 3.384Zm-32.765 71.243c.112.095 1.277 2.901 1.499 2.748 5.054.661 2.879.359.865 3.202.935 5.043.552 2.844-2.771 1.816-.28-.029-3.073 2.1-2.978 1.023-.033-.144.667-3.099.4-3.103-2.858-2.777-3.007-2.377.951-2.938.56.004 1.301-3.652 2.034-2.748Z"/>
  <path fill="#9B6032" d="M113.064 278.374c.506-.681-1.046-.574-1.331-.681-.082.152-2.071 1.84-1.898 2.038-.107.268 1.042 3.57.049 3.157l-2.545-1.341c-.185-.194-1.804.858-1.993.904.012.305-.519 1.617.255 1.357.145-.02 2.739-1.589 2.826-1.341.284-.021 3.068 2.096 2.977 1.023-.618-3.585-.935-2.579 1.66-5.112v-.004Z"/>
  <path fill="#E8BD84" d="M105.69 280.548s-.033-.008-.049-.016c.197.429-1.326 4.262.321 3.082l.399-2.344c.075-.276-.486-.553-.671-.722Zm2.864-5.847c-.552-.924-1.573 2.435-1.812 2.583-.498.681-4.954-.07-2.656 1.659-.264-.747 2.813-.689 3.146-.871.342 0 1.339-2.686 1.582-2.839l-.26-.528v-.004Z"/>
  <path fill="#AF8041" d="M96.45 216.279c-1.125-5.983-2.18-10.84 4.599-14.781 0 0 2.566 3.928 2.566 5.084 0 1.155-.766 7.824-7.166 9.693v.004Z"/>
  <path fill="#D1A057" d="M99.65 226.001c-1.614-8.414-5.073-14.385-10.168-18.681-8.66 3.636-16.893-.326-18.017-7.163 11.778-.862 25.854 6.895 29.326 26.574l-1.14-.73Zm-26.57-24.684c1.824 5.434 8.73 7.65 15.245 5.092-3.6-3.281-12.886-5.489-15.246-5.092Z"/>
  <path fill="#D1A057" d="M96.718 216.84c-2.01-3.247-3.888-13.634 4.716-15.457 4.299 4.559 3.714 12.069-4.716 15.457Zm4.291-14.03c-5.827 1.366-5.287 9.268-3.69 12.351 5.98-2.604 6.845-8.645 3.69-12.351Z"/>
  <path fill="#AF8041" d="M132.138 219.613c-9.789-3.148-4.262-12.606-1.676-16.972 5.383 7.056 3.419 9.788 1.676 16.972Z"/>
  <path fill="#D1A057" d="m132.27 224.061-1.235-.053c-.618-16.828 24.763-37.406 41.088-23.451-3.229 3.578-19.859 11.348-30.562 4.085-8.657 7.841-9.283 19.283-9.291 19.419Zm10.287-20.281c12.491 6.809 24.887-1.275 27.679-3.309-2.619-3.619-18.029-5.142-27.679 3.309Z"/>
  <path fill="#9B6734" d="M148.187 200.281a26.172 26.172 0 0 0-4.777 2.814c6.791-1.011 13.763-2.719 20.744-5.335-3.707-.784-9.007-.648-15.967 2.521Z"/>
  <path fill="#AF8041" d="M147.678 199.15a26.892 26.892 0 0 0-6.639 4.267c2.833.049 4.493-2.1 7.149-3.14 6.964-3.169 12.261-3.306 15.967-2.522.663-.235 1.31-.499 1.964-.763-3.966-1.254-10.089-1.642-18.441 2.158Z"/>
  <path fill="#D1A057" d="M132.538 219.659c-9.06-.95-6.387-14.315-1.622-17.402l.403.434c.165-.046 6.865 8.24 1.219 16.968Zm-1.717-15.631c-3.179 2.768-5.313 12.969 1.071 14.277 3.83-6.936.222-12.602-1.071-14.277Z"/>
  <path fill="#AF8041" d="M129.008 204.288s2.182.387 3.402-.116c0 0-1.121-1.667-1.495-1.915 0 0-1.009.834-1.907 2.031Z"/>
  <path fill="#9B6734" d="M130.471 204.431s.469.021.646 0l-.296-.399-.35.399Z"/>
  <path fill="#6EBCB8" d="m57.309 197.879 2.85 1.89 1.98-4.692h16.169l-3.608-1.522H59.623l-2.314 4.324Z"/>
</svg>
