<svg xmlns="http://www.w3.org/2000/svg" width="250" height="414" fill="none" viewBox="0 0 250 414">
  <g clip-path="url(#a)">
    <path fill="#E4C5AE" d="M72.862 198.012 47.3 270.493s3.658 18.007 21.957 21.176c7.795 1.351 7.776 18.035 14.233 18.035h73.248l-4.517-76.155s25.043 58.191 33.175 46.188c0 0 3.913-74.592-19.264-90.733 0 0-24.357 24.365-51.843 24.913-12.136.241-26.061-17.908-36.766-21.503l-4.661 5.603v-.005Z"/>
    <path fill="#E4C5AE" d="M108.773 213.729s2.338.303 6.49.185l5.227 98.021s-17.982 4.904-30.63-5.621l18.913-92.589v.004Z"/>
    <path fill="#397557" d="m70.893 289.809-.01 1.672 2.232-6.49-25.23-5.253s-.413.189-.505.671c-.024.137-.168 1.2-.36 2.636 2.348 1.776 8.583 6.49 23.873 6.764Z"/>
    <path fill="#397557" d="m69.971 294.126.836-2.433a69.889 69.889 0 0 1-4.426-.217c-11.18-.907-16.883-4.256-19.658-6.226-.1.761-.206 1.545-.302 2.31 1.627 1.03 10.714 6.405 23.55 6.566Zm-.724 10.944-.067 2.641a98.757 98.757 0 0 0 14.492 4.979l1.262-2.083a100.545 100.545 0 0 1-15.687-5.537Zm17.823 2.014-6.686-4.02-9.942-1.625-1.085-.978-.062 2.555a98.374 98.374 0 0 0 16.662 5.91l1.114-1.838v-.004Zm-17.943 2.844s.144 1.332.96 1.776c.811.444 8.948 4.18 11.655 4.18l.912-1.507a99.725 99.725 0 0 1-13.522-4.629v.18h-.005Z"/>
    <path fill="#FDF8EF" d="M85.956 308.921a98.447 98.447 0 0 1-16.662-5.909l-.053 2.059a100.594 100.594 0 0 0 15.688 5.536l1.022-1.691.005.005Zm-16.826.826a99.949 99.949 0 0 0 13.523 4.629l1.023-1.686a98.33 98.33 0 0 1-14.492-4.979l-.053 2.036Z"/>
    <path fill="#397557" d="M159.892 303.385c-.173-.76-.35-1.521-.523-2.229-4.609 3.481-11.161 5.848-19.509 7.043a78.152 78.152 0 0 1-10.733.779c-.821 0-1.306-.019-1.369-.019l.072-1.889c.207.009 20.503.661 31.02-7.927-.139-.491-.254-.859-.336-1.044-.509-1.157-1.805-1.601-1.805-1.601l-32.44 6.561 3.912 8.229c2.798.047 21.582.043 31.706-7.908l.005.005Z"/>
    <path fill="#397557" d="M140.263 312.411c-4.882.676-9.02.78-11.089.78h-.081l1.281 2.697s18.026-.283 29.321-6.41c0 0 1.176-.345 1.176-1.148 0-.279-.221-1.445-.528-2.9-4.752 3.448-11.497 5.8-20.08 6.986v-.005Z"/>
    <path fill="#FDF8EF" d="m127.83 307.07-.072 1.89c.062 0 .547.019 1.368.019 2.006 0 6.01-.104 10.733-.78 8.348-1.195 14.901-3.562 19.509-7.043a63.922 63.922 0 0 0-.518-2.008c-10.518 8.588-30.814 7.932-31.02 7.927v-.005Zm0 4.213-.072 1.89c.062 0 .537.019 1.33.019l-.903-1.899c-.216 0-.341-.01-.355-.01Z"/>
    <path fill="#FDF8EF" d="M140.263 312.412c8.583-1.186 15.323-3.538 20.08-6.987-.134-.642-.288-1.336-.446-2.04-10.124 7.95-28.908 7.955-31.707 7.907l.903 1.899h.082c2.068 0 6.211-.104 11.088-.779Zm-70.935-16.41.644-1.875c-12.837-.161-21.928-5.537-23.551-6.566-.096.741-.192 1.454-.278 2.102 2.808 1.648 10.157 5.37 20.372 6.197.912.076 1.858.113 2.813.137v.005Z"/>
    <path fill="#397557" d="M66.515 295.86c-10.215-.827-17.565-4.554-20.373-6.198l-.364 2.792s-.034.978.921 1.412c.653.298 6.889 2.853 13.307 4.053.485.09.97.17 1.454.246 2.492.378 4.95.515 7.057.184l.811-2.357a53.91 53.91 0 0 1-2.813-.137v.005Z"/>
    <path fill="#358060" d="M194.963 282.675s-.744-1.199-1.627-1.067c-.883.132-30.223 8.937-30.223 8.937s-.475.798-.475 1.601c0 .26.254 1.389.595 2.783 16.696-2.173 28.648-8.083 32.681-10.312a581.19 581.19 0 0 0-.951-1.942Z"/>
    <path fill="#397557" d="M107.515 212.723a.7.7 0 0 0 .033.023c-.01-.009-.019-.014-.033-.023Zm.451.293c.043.028.077.052.115.075a1.5 1.5 0 0 0-.115-.075Z"/>
    <path fill="#1A7957" d="M98.932 209.719c-3.783-2.679-9.193-7.067-10.791-9.557-1.57-2.442-2.026-3.382-2.545-5.021-1.013-.132-2.05-.444-3.034-.68.788 3.623 3.02 11.2 16.37 15.253v.005Z"/>
    <path fill="#1A7957" d="M83.21 200.337c-1.9-2.962-2.48-4.847-2.783-6.576-1.695-.425-2.905-1.351-2.905-1.351.413 56.893 25.193 26.599 29.393 21.115a39.704 39.704 0 0 1-2.155-.718c-7.014-1.285-16.418-4.492-21.55-12.47Z"/>
    <path fill="#397557" d="m107.549 212.742.317.208a18.034 18.034 0 0 0-.317-.208Zm1.92 1.266s.024.014.029.019c-.005 0-.015-.01-.029-.019Zm-.168-.11c.077.052.134.09.168.109a3.95 3.95 0 0 0-.168-.109Zm-.053-.037s.039.025.059.04c-.015-.01-.039-.025-.059-.04Zm-1.167-.765c.072.047.154.099.23.151-.072-.047-.153-.099-.23-.151Zm.235.15c.255.165.461.302.624.411-.196-.127-.412-.274-.624-.411Zm.624.412s.024.014.034.024a.142.142 0 0 1-.034-.024Zm.035.024c.11.07.201.132.273.179l-.273-.179Z"/>
    <path fill="#FDF8EF" d="m107.242 213.626.278-.907s-.211.297-.6.803l.326.099-.004.005Z"/>
    <path fill="#FDF8EF" d="m105.144 211.107-.322 1.715-.062-.014c.696.25 1.411.491 2.155.718.389-.505.6-.803.6-.803-.83-.548-1.613-1.087-2.371-1.616Zm-9.135-2.806c2.371 1.681 5.256 3.245 8.746 4.511.019 0 .043.009.062.014l.322-1.715-.293-.203c-3.437-.647-6.36-1.544-8.842-2.602l.005-.005Z"/>
    <path fill="#1A7957" d="M148.951 192.859a545.89 545.89 0 0 1-5.588 1.03c-6.312 9.315-12.936 14.157-17.838 16.665 5.271-1.214 11.468-3.849 16.994-9.362.052-.052 3.859-3.883 6.432-8.333ZM166.137 189c-.85.335-2.453.77-4.436 1.233-1.498 2.296-4.604 6.538-9.457 10.831-5.194 4.597-13.258 9.906-24.15 11.904 27.573-2.697 40.976-21.923 40.976-21.923-.677-.798-2.938-2.045-2.938-2.045h.005Z"/>
    <path fill="#1A7957" d="M136.451 209.227c9.116-4.601 18.707-14.1 21.77-18.219a421.99 421.99 0 0 1-6.27 1.275c-2.688 5.499-7.666 10.51-7.728 10.567-1.368 1.365-6.361 5.319-7.777 6.377h.005Z"/>
    <path fill="#397557" d="m169.074 191.045.014.013c0-.004-.009-.009-.014-.013Zm.155.185c.124.152.244.289 0 0Zm-.048-.056.054.064c-.015-.02-.03-.04-.054-.064Zm-.02-.026.02.025c-.005-.01-.015-.015-.02-.025Zm-.048-.056Zm-.029-.033s.019.024.029.033c-.015-.014-.024-.029-.029-.033Z"/>
    <path fill="#FDF8EF" d="M117.975 213.19c.489.024.974.043 1.454.057v-.345c-.931.227-1.454.288-1.454.288Zm18.86-4.578c1.416-1.058 6.025-4.393 7.393-5.758.062-.061 5.04-5.073 7.728-10.567-1.051.203-2.064.397-3.005.576-2.573 4.45-6.379 8.281-6.432 8.333-5.525 5.513-11.723 8.148-16.993 9.362a38.52 38.52 0 0 1-1.181.581c5.995-.661 8.016-.264 12.495-2.522l-.005-.005Zm-16.004 5.146a49.543 49.543 0 0 0 7.268-.789 66.66 66.66 0 0 1-3.432.245 39.71 39.71 0 0 1-3.836.544Z"/>
    <path fill="#FDF8EF" d="M161.702 190.232a164.98 164.98 0 0 1-3.476.775c-3.067 4.119-10.959 12.183-20.075 16.783-6.956 2.254-8.842 4.531-13.484 5.423a66.982 66.982 0 0 0 3.432-.245c10.892-1.998 18.952-7.313 24.151-11.904 4.853-4.289 7.954-8.531 9.456-10.832h-.004Zm-42.272 23.014v.538c.475 0 .941-.014 1.401-.028a39.691 39.691 0 0 0 3.836-.543 69.418 69.418 0 0 1-5.237.038v-.005Z"/>
    <path fill="#FDF8EF" d="M119.425 212.902v.345a65.9 65.9 0 0 0 5.237-.038c4.637-.888 10.1-2.81 15.376-6.74a45.781 45.781 0 0 1-15.698 4.662c-2.102.973-3.802 1.497-4.915 1.771Zm-48.618 78.797.077-.218.01-1.672c-15.294-.274-21.525-4.988-23.873-6.764-.09.671-.192 1.426-.293 2.211 2.775 1.974 8.478 5.323 19.658 6.225 1.387.114 2.866.189 4.426.218h-.005Z"/>
    <path fill="#F2E1D6" d="M109.91 214.229c.111-.699-.408-1.337-1.123-1.393-3.715-.289-14.425-1.503-21.717-6.141-8.947-5.692-9.548-14.285-9.548-14.285l-8.976 9.57-15.001 48.282-1.805 6.225s-4.517 4.625-4.517 6.226c0 1.602.542 7.468 0 8.536-.543 1.068-1.805 5.513-2.17 6.401-.365.888 1.085 3.377 3.614 4.624 2.53 1.247 12.107 6.401 22.409 4.799l-2.631 10.804s.643 2.428 1.91 2.961c1.268.534 13.312 4.625 13.312 4.625l-1.925 10.42 10.82 2.098a1.083 1.083 0 0 0 1.282-.884l16.071-102.868h-.005Zm4.383-.316 2.304 101.475c.015.581.471 1.058 1.061 1.039 2.837-.08 9.692-.146 12.923-.543l-1.22-11.738s19.101-.265 28.86-7.204c0 0 1.219-1.332 1.085-3.869l-3.912-32.886 3.441 27.818s1.897 2.532 3.797 2.532c1.901 0 25.558-2.801 32.739-9.736 0 0 .677-2.669 0-4.402-.677-1.734-3.389-7.469-3.389-7.469s-1.997-7.576-2.304-8.422a3.971 3.971 0 0 1-.13-2.291c.557-2.315 1.704-7.553 1.08-8.89-.811-1.734-4.608-10.402-4.2-11.469.408-1.068 1.627-5.603.95-8.937-.677-3.335-7.181-23.024-7.997-23.827-.816-.803-7.455-12.589-10.302-14.053 0 0-24.337 24.644-53.797 21.975-.533-.047-.994.363-.984.893l-.005.004Z"/>
    <path fill="#399551" d="M109.91 214.229a1.216 1.216 0 0 0-1.123-1.393c-3.716-.289-14.425-1.503-21.717-6.141-8.948-5.692-9.548-14.285-9.548-14.285l-8.977 9.57s2.184 17.341 10.456 34.413L68.32 298.169c-.058.331.12.855.269 1.158.302.619.912 1.629 1.766 1.988 1.267.534 12.831 4.625 12.831 4.625l-1.445 9.948 10.82 2.097a1.075 1.075 0 0 0 1.277-.883l16.072-102.873Zm4.383-.317 2.304 101.556a.994.994 0 0 0 .989.959c2.352.014 8.516 0 12.995-.544l-1.22-11.738s19.101-.265 28.86-7.204c0 0 1.219-1.332 1.085-3.868l-7.081-59.529s27.967-27.648 27.151-28.446c-.816-.798-7.455-12.589-10.301-14.053 0 0-24.338 24.644-53.798 21.975a.891.891 0 0 0-.984.892Z"/>
    <path fill="#E4C5AE" d="m77.46 233.029-8.555 30.44.12 4.936-1.747 3.335 1.027 6.401s-9.15 6.32-15.932 5.895c0 0 8.751 4.587 17.925 3.146l8.506-49.694.187-1.095c-.226-.482-1.114-2.669-1.54-3.364h.009Z"/>
    <path fill="#397557" d="m79 236.392 2.017-9.986-3.557 6.623s1.517 3.33 1.54 3.363Zm75.731-5.332-2.496 2.499-2.016-9.957 4.512 7.458Z"/>
    <path fill="#FDF8EF" d="m148.409 251.996-1.224-20.345-7.388-6.594-11.928.472-7.364 7.69 1.339 20.785 7.81 6.844 12.856-.982 3.523 2.399 5.285-8.176-2.909-2.093Zm-10.071-1.724-7.306.666c.053.071-.739-.595-.816-1.483l-1.138-13.208a1.072 1.072 0 0 1 .965-1.148l7.081-.893a1.487 1.487 0 0 1 1.637 1.281l1.656 13.439c.081.68-.427 1.289-2.079 1.346Z"/>
    <path fill="#4C9A52" d="m145.788 260.839-3.408-2.14-12.011.95-7.118-6.104-1.162-19.466 6.658-6.745 11.06-.506 6.106 5.829 1.397 19.651 2.89 2.026-4.407 6.5-.005.005Zm-3.163-3.108 2.885 1.814 3.37-4.97-2.501-1.757-1.402-19.736-5.544-5.295-10.264.472-6.101 6.179 1.114 18.654 6.509 5.579 11.929-.945.005.005Z"/>
    <path fill="#358060" d="M196.744 286.323c-4.273 2.348-16.326 8.234-33.051 10.449.207.817.423 1.644.615 2.381 18.404-2.466 30.962-9.434 33.386-10.87-.302-.628-.629-1.303-.95-1.965v.005Z"/>
    <path fill="#358060" d="M198.511 290.007c-2.938 1.71-15.525 8.507-33.718 10.987l.216.817s.61 1.866 2.779 1.932c2.17.066 20.397-2.749 30.295-10.269 0 0 1.493-1.134.677-2.934-.067-.151-.153-.33-.249-.538v.005Z"/>
    <path fill="#FDF8EF" d="M195.913 284.617c-4.037 2.23-15.985 8.134-32.681 10.312.144.581.298 1.209.461 1.847 16.729-2.215 28.778-8.101 33.051-10.449-.293-.6-.576-1.185-.831-1.705v-.005Zm1.776 3.67c-2.424 1.431-14.982 8.404-33.386 10.869.187.728.36 1.37.485 1.843 18.193-2.48 30.784-9.278 33.717-10.988a238.99 238.99 0 0 0-.816-1.719v-.005Z"/>
    <path fill="#FEF8EF" d="M105.172 219.124c.923 0 1.671-.736 1.671-1.644 0-.908-.748-1.644-1.671-1.644-.922 0-1.67.736-1.67 1.644 0 .908.748 1.644 1.67 1.644Zm-3.345 18.361c.922 0 1.67-.736 1.67-1.644 0-.908-.748-1.644-1.67-1.644-.923 0-1.671.736-1.671 1.644 0 .908.748 1.644 1.671 1.644Zm-3.342 19.627c.923 0 1.67-.736 1.67-1.644 0-.908-.747-1.644-1.67-1.644-.923 0-1.67.736-1.67 1.644 0 .908.747 1.644 1.67 1.644Zm-2.477 19.627c.923 0 1.67-.736 1.67-1.644 0-.908-.747-1.644-1.67-1.644-.922 0-1.67.736-1.67 1.644 0 .908.748 1.644 1.67 1.644Zm-2.822 19.287c.923 0 1.67-.736 1.67-1.644 0-.908-.747-1.644-1.67-1.644-.923 0-1.67.736-1.67 1.644 0 .908.747 1.644 1.67 1.644Zm-2.65 18.352c.922 0 1.67-.736 1.67-1.644 0-.908-.748-1.644-1.67-1.644-.923 0-1.67.736-1.67 1.644 0 .908.747 1.644 1.67 1.644Z"/>
    <path fill="#D0A98B" d="m155.389 260.192-.658-29.131-2.51 2.489 3.168 26.642Z"/>
    <path fill="#F3E6D3" d="M47.434 261.911c.024-.066.062-.142.096-.218-.034.076-.068.147-.096.218Zm.168-.373c.921-1.743 4.195-5.229 4.195-5.229s-3.159 3.235-4.195 5.229Zm6.005-11.451-.513 1.777c.561-1.857 1.277-4.205 2.097-6.864l-1.579 5.087h-.005Zm-6.202 11.89a1.564 1.564 0 0 0-.125.557c0 .326.024.822.053 1.422-.072-1.365.029-1.838.072-1.979Z"/>
    <path fill="#F3E6D3" d="M47.333 263.955c.086 1.71.25 4.228.163 5.81.115-1.762-.096-4.487-.163-5.81Zm-2.266 13.974c0-.284.043-.458.043-.458a.983.983 0 0 0-.043.458Zm.745-2.579c.523-1.582 1.195-3.581 1.468-4.28-.34.671-.964 2.664-1.468 4.28Z"/>
    <path fill="#FDF5F0" d="M47.424 261.924s-.01.014-.019.052c.01-.024.02-.042.029-.066 0 0 0 .01-.005.014h-.005Zm4.373-5.615 1.291-4.45c-.797 2.641-1.286 4.299-1.291 4.45Zm-6.73 21.619c-.004.874.39 2.825 3.658 4.166-2.18-1.072-3.552-3.066-3.658-4.166Zm2.213-6.859c.12-.236.188-.699.216-1.303-.038.552-.1 1.011-.216 1.303Zm-2.17 6.402c.135-.331.394-1.162.696-2.121-.388 1.176-.696 2.121-.696 2.121Zm10.077-32.475 13.416-43.189S60.093 229.029 55.188 245v-.004Z"/>
    <path fill="#1A7957" d="M87.785 195.434Zm1.863-.071-1.555.756a25.77 25.77 0 0 0 1.718 3.113c2.362 3.647 6.798 8.403 14.8 11.498-11.252-8.007-13.158-13.468-13.48-15.135-.024 0-.792-.099-1.483-.232Z"/>
    <path fill="#FDF8EF" d="M89.816 199.236a24.578 24.578 0 0 1-1.719-3.113c-.11-.237-.456-.907-.547-1.129-.585-.09-1.488-.326-2.198-.449.192.51.648 1.776.912 2.348.485 1.053 1.118 2.073 1.886 3.268 1.599 2.49 6.572 6.514 10.354 9.198 2.482 1.058 2.924.897 6.361 1.544l-.245-.17c-8.002-3.094-12.433-7.855-14.8-11.497h-.004Z"/>
    <path fill="#FDF8EF" d="M83.052 195.92s-.019-.047-.024-.066a15.254 15.254 0 0 1-.36-1.039c-.004-.019-.014-.043-.019-.062-.029-.094-.283-.822-.307-.916-.74-.208-2.035-.558-2.035-.558s.283 1.134.312 1.243c.038.132.076.274.12.415.062.218.134.435.206.666.048.137.091.274.14.421.057.16.12.321.182.486.043.118.09.237.139.359.072.17.144.345.22.52.053.123.111.246.169.373.081.18.153.421.245.605 0 0 .72 1.285 1.17 1.984 5.132 7.978 13.653 11.11 20.287 11.866-3.49-1.262-5.117-2.225-7.488-3.902-7.686-3.278-11.161-8.106-12.73-11.824a.297.297 0 0 1-.025-.061c-.072-.165-.134-.331-.197-.496l-.005-.014Z"/>
    <path fill="#399551" d="m88.092 196.123 1.555-.756c-.897-.137-1.358-.255-2.102-.373.096.222.442.898.547 1.129Zm-5.75-2.29c.029.094.278.822.307.916.005.019.014.043.02.062a22.741 22.741 0 0 0 .383 1.105l.197.496a18.019 18.019 0 0 0 .571 1.238l2.386-.855c-.264-.577-.672-1.743-.864-2.254-1.315-.269-2.035-.439-3.005-.713l.005.005Z"/>
    <path fill="#399551" d="M85.597 195.141c.192.51.422 1.233.686 1.809-.264-.576-.49-1.299-.681-1.809h-.005Zm-2.569.713Zm.251.626s-.02-.044-.025-.064c.01.02.02.045.025.064Zm-.629-1.732.02.064c-.006-.019-.016-.044-.02-.064Zm-1.023 2.632c-.077-.174-.149-.349-.221-.519-.048-.123-.096-.241-.14-.359-.062-.166-.124-.326-.182-.487a7.419 7.419 0 0 1-.139-.42 15.011 15.011 0 0 1-.206-.666 18.278 18.278 0 0 1-.12-.416c-.029-.113-.058-.217-.087-.326a50.654 50.654 0 0 1-.225-.916c-1.085-.326-1.853-.534-2.78-.865.015 1.356.576 3.571 2.3 6.675l2.189-.784c-.092-.18-.135-.369-.216-.548a14.071 14.071 0 0 1-.168-.373l-.005.004Z"/>
    <path fill="#399551" d="M80.532 194.191c.029.109.053.218.087.326a16.438 16.438 0 0 0-.087-.326Zm1.268 3.563c.081.179.125.368.216.548-.091-.18-.135-.373-.216-.548Zm-1.067-2.82c.063.217.135.434.207.666a15.011 15.011 0 0 1-.207-.666Z"/>
    <path fill="#FDF5F0" d="M50.17 274.915c1.987-2.602 2.266-5.271 2.266-5.271l.806-7.558s5.574-4.53 5.406-5.154c-.159-.595 10.479-42.995 11.467-46.944-1.113-4.993-1.516-8.191-1.516-8.191l-13.417 43.194a1987.89 1987.89 0 0 0-2.098 6.863l-1.291 4.45s-3.27 3.486-4.196 5.229c-.029.052-.053.104-.077.156-.033.075-.072.151-.096.217a.863.863 0 0 1-.029.066c-.043.142-.144.614-.072 1.98.072 1.322.279 4.048.164 5.81-.034.6-.096 1.067-.216 1.303-.274.7-.946 2.698-1.47 4.28-.302.964-.56 1.79-.695 2.121 0 0-.044.17-.044.458.106 1.101 1.479 3.094 3.658 4.167 0 0-.542-4.578 1.445-7.18l.005.004Z"/>
    <path fill="#5FB366" d="m70.197 209.699 9.635-10.614c-.413-1.153-1.959-3.278-2.3-6.675l-8.924 9.396s.404 3.198 1.517 8.191l.072-.293v-.005Z"/>
    <path fill="#1A7957" d="m179.386 205.113-.014-.014-3.893-6.013 1.44 9.216c.801-.94 2.649-2.896 2.467-3.189Z"/>
    <path fill="#E4C5AE" d="M195.366 276.402c-.7-1.639-3.389-7.468-3.389-7.468l-2.304-8.422s-.221-.581-.245-1.257c-.024-.675.519-2.801.519-2.801s.648-3.132.706-3.907c0-.056.096-.713.115-1.133.029-.643.081-1.186-.034-1.72 0 0-.35-.869-.586-1.398-.235-.534-3.489-8.271-3.59-9.202-.101-.935-.259-.779-.039-1.511.221-.733.797-2.135 1.042-5.815 0 0 .298-2.013-.859-5.376-.408-1.19-.859-2.844-1.373-4.492a371.634 371.634 0 0 0-2.314-7.161c-.566-1.644-3.206-8.956-3.206-8.956l-.428-.685c-.523 1.152-1.651 2.258-2.453 3.202 0 0 7.287 20.09 7.287 22.759 0 2.669-1.445 7.648-1.445 7.648s5.06 11.677 5.06 12.239c0 .562-1.805 6.505-1.627 7.978.182 1.474 1.627 11.493 1.627 11.493s3.432 6.009 3.255 7.511c-.183 1.502-12.438 10.113-15.592 10.732-3.154.619 15.14-2.385 19.888-7.855 0 0 .701-2.764 0-4.403h-.015Z"/>
  </g>
  <defs>
    <clipPath id="a">
      <path fill="#fff" d="M45 189h154v129H45z"/>
    </clipPath>
  </defs>
</svg>
