<svg xmlns="http://www.w3.org/2000/svg" width="250" height="414" fill="none" viewBox="0 0 250 414">
  <g clip-path="url(#a)">
    <path fill="#C76666" d="M155.945 208.916c-.494-4.112-.46-8.319-.434-12.353l-5.023.168 1.599 12.181c1.276-.004 2.565 0 3.862.004h-.004Z"/>
    <path fill="#878EAF" d="M158.699 219.013c-1.529-3.18-2.337-6.602-2.758-10.097-1.298-.004-2.587-.013-3.863-.004l1.315 10.028c1.757-.009 3.527.03 5.302.073h.004Z"/>
    <path fill="#878EAF" d="M160.916 231.297c-.714-.621-1.603-1.169-1.603-1.493 0-3.339.95-7.628-.477-10.489-.047-.099-.09-.198-.137-.298a200.508 200.508 0 0 0-5.303-.073l1.65 12.578a53.133 53.133 0 0 0 5.87-.22v-.005Z"/>
    <path fill="#19578B" d="M164.302 242.883c-.748-3.569-1.392-7.197-2.612-10.697-.151-.302-.443-.604-.774-.889a51.91 51.91 0 0 1-5.869.22l1.405 10.719c2.574.25 5.203.496 7.85.647Z"/>
    <path fill="#DD565B" d="m172.109 270.412.025-.078a.934.934 0 0 0-.618.268c.129-.035.257-.07.386-.108.069-.022.138-.056.211-.087l-.004.005Z"/>
    <path fill="#19578B" d="M171.899 270.494c-.129.038-.258.069-.387.107-.198.182-.331.432-.331.687 0-.199.013-.402.03-.6-3.536.923-7.304.876-10.922.807l.692 5.29s4.477 1.04 10.922.983c-1.027-2.217-.589-4.949.202-7.356-.069.026-.138.06-.211.086l.005-.004Z"/>
    <path fill="#878EAF" d="M171.215 270.684c.223-2.546 1.761-5.07 2.234-7.271-4.701.302-9.461 0-14.226-.056l1.065 8.138c3.622.069 7.391.116 10.922-.807l.005-.004Z"/>
    <path fill="#19578B" d="M172.608 259.84a21.994 21.994 0 0 1-3.421-3.853c-3.544.591-7.197.777-10.853.6l.889 6.766c4.765.06 9.526.358 14.227.056.288-1.329.184-2.542-.838-3.569h-.004Z"/>
    <path fill="#878EAF" d="m156.452 242.236 1.882 14.351c3.66.181 7.308-.009 10.853-.6-2.78-4-3.923-8.505-4.89-13.109-2.642-.151-5.276-.397-7.85-.647l.005.005Z"/>
    <path fill="#E6D2C3" d="M171.198 208.222c-1.568-4.13-3.996-8.03-5.921-11.978l-9.766.323c-.022 4.03-.06 8.242.434 12.354 5.083.021 10.29.034 15.253-.695v-.004Z"/>
    <path fill="#86A6CE" d="M172.625 218.707c.533-3.741-.176-7.189-1.426-10.485-4.963.733-10.171.716-15.254.694.421 3.495 1.225 6.913 2.759 10.097 4.666.112 9.362.25 13.925-.306h-.004Z"/>
    <path fill="#E6D2C3" d="M176.406 224.558c0-1.433-4.275-4.294-3.798-5.722a.966.966 0 0 1 .017-.125c-4.559.557-9.26.414-13.926.306.047.1.09.199.138.298 1.426 2.861.477 7.154.477 10.489 0 .328.889.876 1.602 1.493 5.393-.492 10.716-1.717 16.005-3.085-.167-1.204-.335-2.425-.511-3.654h-.004Zm-5.22 46.73c0-.255.133-.505.33-.686-.098.025-.202.056-.3.082-.018.198-.03.401-.03.599v.005Z"/>
    <path fill="#D0A98B" d="M184.208 266.584c-.593-.772-1.422-1.445-2.578-1.971 3.313-.475 5.68-1.424 5.697-4.734-.077.043-.154.082-.232.13-4.46 2.239-9.027 3.111-13.646 3.408-.473 2.201-2.011 4.725-2.234 7.271l.301-.082a.934.934 0 0 1 .618-.268l-.025.078c1.357-.539 2.732-1.847 4.537-2.3 2.574-.371 5.074-.953 7.562-1.527v-.005Z"/>
    <path fill="#878EAF" d="M176.651 268.112c-1.805.453-3.184 1.76-4.537 2.3-.791 2.407-1.229 5.138-.202 7.356 3.961-.034 8.67-.483 13.543-1.838.12-3.391.64-6.891-1.242-9.346-2.488.578-4.988 1.161-7.562 1.528Z"/>
    <path fill="#86A6CE" d="M182.103 254.119c0-.479 1.426-.954 1.426-1.433a44.651 44.651 0 0 1-.709-1.419c-4.193 2.377-8.816 3.917-13.629 4.72a21.793 21.793 0 0 0 3.421 3.853c.146.147.266.298.378.449 3.557-1.118 6.294-3.672 9.156-6.101-.013-.026-.026-.048-.034-.074l-.009.005Z"/>
    <path fill="#878EAF" d="M182.143 254.192c-2.862 2.429-5.599 4.984-9.157 6.101.662.924.709 1.981.464 3.12 4.619-.293 9.187-1.165 13.647-3.404.077-.048.154-.087.232-.13v-.034c0-2.831-4.177-3.331-5.186-5.649v-.004Z"/>
    <path fill="#E6D2C3" d="M164.303 242.883c.966 4.604 2.109 9.109 4.889 13.108 4.813-.802 9.432-2.343 13.629-4.72-1.452-3.02-2.513-6.045-3.33-9.113-4.859.971-10.041 1.018-15.184.725h-.004Z"/>
    <path fill="#86A6CE" d="M161.69 232.186c1.22 3.5 1.865 7.129 2.612 10.697 5.143.298 10.325.25 15.185-.725-1.208-4.522-1.895-9.135-2.57-13.946-5.289 1.368-10.613 2.589-16.005 3.086.331.284.623.586.774.888h.004Zm12.344-36.236-8.757.289c1.93 3.948 4.353 7.849 5.921 11.978 3.364-.496 6.617-1.337 9.642-2.757-1.156-3.857-3.197-7.59-6.806-9.514v.004Z"/>
    <path fill="#0A79BA" d="M180.841 205.469c-3.025 1.415-6.273 2.261-9.642 2.757 1.255 3.301 1.959 6.744 1.427 10.485 3.317-.406 6.565-1.182 9.672-2.602-.018-2.39-.245-6.584-1.457-10.64Z"/>
    <path fill="#86A6CE" d="M182.834 218.306s-.533-.967-.541-2.201c-3.107 1.42-6.351 2.201-9.672 2.602-.005.043-.009.086-.017.125-.477 1.432 3.798 4.293 3.798 5.721.176 1.235.344 2.451.511 3.655 2.926-.759 5.848-1.558 8.761-2.308.296-2.322.133-5.131-2.844-7.599l.004.005Z"/>
    <path fill="#0A79BA" d="M185.472 226.607s.099-.267.211-.703c-2.918.746-5.835 1.549-8.761 2.308.674 4.816 1.362 9.424 2.569 13.946 3.61-.721 7.034-1.959 10.136-3.944l-4.155-11.607Z"/>
    <path fill="#86A6CE" d="M193.516 259.37s.099-.052.253-.156c-2.084-.591-4.421-.466-6.445.661-.017 3.309-2.384 4.258-5.697 4.733 1.156.526 1.985 1.2 2.578 1.972 3.175-.738 6.329-1.459 9.569-1.713.73-.483 2.556-2.153-.262-5.502l.004.005Z"/>
    <path fill="#19578B" d="M193.516 265.022s.107-.051.262-.151c-3.24.255-6.389.975-9.569 1.713 1.878 2.455 1.358 5.955 1.242 9.346 2.741-.763 5.534-1.808 8.275-3.236 0 0 7.498-3.473-.21-7.667v-.005Z"/>
    <path fill="#0A79BA" d="M192.536 249.087s-.017-.021-.03-.034c0 0 3.055-4.069-.563-5.13a35.965 35.965 0 0 1-9.126 7.352c.228.475.464.945.709 1.42 0 .479-1.426.953-1.426 1.432.008.026.025.048.034.074 1.439-1.222 2.913-2.408 4.542-3.366 1.95-.785 3.901-.923 5.847-1.743l.013-.005Z"/>
    <path fill="#19578B" d="M192.536 249.088c-1.951.815-3.902.958-5.848 1.743-1.628.953-3.102 2.144-4.542 3.365 1.01 2.322 5.187 2.818 5.187 5.649v.034c2.023-1.126 4.356-1.256 6.445-.66.988-.665 4.283-3.564-1.238-10.127l-.004-.004Z"/>
    <path fill="#878EAF" d="M191.942 243.923a4.478 4.478 0 0 0-.305-.082l-2.015-5.627c-3.102 1.989-6.531 3.223-10.136 3.944.817 3.068 1.878 6.092 3.33 9.113a35.775 35.775 0 0 0 9.126-7.353v.005Zm-126.614 21.85c1.057 2.343 1.104 4.872 1.061 7.284 2.793 1.475 5.96 2.856 9.436 3.905l1.757-11.491-.786 1.351c-4.318.125-8.142-.315-11.464-1.049h-.004Zm13.174-10.243c-2.251.315-4.838-.017-7.025.858h-.116c.017 2.067-.42 3.81-1.44 5.239 3.546.647 6.502.694 8.152.643l1.005-6.568v-.017l-.571-.155h-.005Z"/>
    <path fill="#86A6CE" d="m78.501 255.53-7.407-2.002a18.7 18.7 0 0 1 .266 2.86h.116c2.187-.88 4.774-.543 7.025-.858Z"/>
    <path fill="#C76666" d="M79.074 255.685v.017l.005-.017h-.005Z"/>
    <path fill="#86A6CE" d="m84.5 220.226 3.275-21.406-4.138.138c-1.714 6.994-3.398 13.906-4.434 20.931l5.298.341v-.004Zm-6.281 15.179c0 2.386-1.426 5.722-2.849 8.108a5.87 5.87 0 0 0-.27.518l5.435.453-.017 1.79 2.053-13.414-4.386-.203c0 .914 0 1.829.034 2.748Z"/>
    <path fill="#E6D2C3" d="M75.293 252.099c-1.396.052-2.797 1.424-4.193 1.424l7.897 2.136c-.533-1.773-1.9-3.102-3.704-3.56Z"/>
    <path fill="#D0A98B" d="M75.1 244.031c-1.084 2.334-.611 5.406.27 8.064-.026 0-.052 0-.078.004 1.805.458 3.171 1.787 3.704 3.56l.082.022 1.44-9.407.016-1.79-5.435-.453Zm-5.18 17.591c-1.03 1.441-2.642 2.559-4.996 3.349.15.263.283.535.408.807 3.321.733 7.15 1.173 11.464 1.048l.786-1.351.49-3.205c-1.65.047-4.606 0-8.151-.643v-.005Z"/>
    <path fill="#F2E1D6" d="M57.8 260.203c0-.479 2.85.478 2.85 0 .197-.397.403-.825.6-1.269a31.668 31.668 0 0 1-4.678-2.636c-1.302.397-4.58 1.587-4.572 3.426 0 .185.013.362.026.535a35.559 35.559 0 0 0 5.048 2.783c.086-1.01.293-1.972.727-2.844v.005Z"/>
    <path fill="#0A79BA" d="M69.81 229.494a123.87 123.87 0 0 0-1.564 7.823c-.125.746-.215 1.721-.318 2.822l.266.345 6.845 3.547h.056c.081-.173.171-.346.27-.514 1.427-2.386 2.849-5.721 2.849-8.107-.03-.92-.039-1.834-.034-2.749l-.443-.022-7.932-3.145h.005Zm1.546 26.614a19.048 19.048 0 0 0-.262-2.585l-4.49-2.511-.697-.915a1.486 1.486 0 0 1-.038.087c-2.372-2.857-5.212-2.386-6.639 1.411 5.14-1.131 7.97 2.705 12.121 4.509l.005.004Z"/>
    <path fill="#878EAF" d="M71.356 256.108c-4.15-1.808-6.982-5.644-12.12-4.509 0 .008-.005.013-.01.021 2.634.794 3.223 2.468 2.978 4.294 3.115 0 6.23.017 9.152.794 0-.199.004-.393 0-.596v-.004Z"/>
    <path fill="#19578B" d="M62.205 255.909c-.133 1.006-.515 2.054-.95 3.025 3.017 1.381 6.008 2.205 8.667 2.688.967-1.35 1.405-2.994 1.435-4.919-2.921-.776-6.037-.794-9.152-.794Zm3.123 9.864a41.82 41.82 0 0 1-8.254-2.731c-.112 1.277-.026 2.623.077 3.974a60.265 60.265 0 0 0 9.238 6.041c.047-2.412 0-4.941-1.061-7.284Z"/>
    <path fill="#0A79BA" d="m76.981 219.746 2.222.143c1.035-7.025 2.72-13.941 4.434-20.931l-4.022.133c-2.217 6.007-4.417 11.927-6.36 18.006l3.722 2.649h.004Z"/>
    <path fill="#86A6CE" d="m68.194 240.479-.266-.345c-.284 3.081-.65 7.15-2.02 9.963l.696.915 4.49 2.511c1.427 0 2.849-1.432 4.276-1.432-.881-2.658-1.354-5.73-.271-8.065h-.056l-6.845-3.551-.004.004Zm-7.544 19.724c0 .479-2.85-.479-2.85 0-.434.871-.64 1.834-.726 2.843a41.816 41.816 0 0 0 8.254 2.732c-.12-.272.15.263 0 0 2.355-.79 3.562-2.715 4.593-4.151-2.664-.488-5.65-1.308-8.666-2.689-.198.445-.404.868-.602 1.269l-.004-.004Z"/>
    <path fill="#F2E1D6" d="M79.202 219.889c-.618 4.203-1.005 8.448-1.022 12.772l4.387.203L84.5 220.23l-5.298-.341Z"/>
    <path fill="#86A6CE" d="M73.26 217.097c-1.288 4.039-2.461 8.147-3.45 12.397l7.932 3.145.443.022c.017-4.324.4-8.565 1.022-12.772l-2.221-.143-3.72-2.649h-.005Z"/>
    <path fill="#878EAF" d="m57.8 260.203 6.472 2.653-3.623-2.653s-2.698-.333-2.848 0Z"/>
    <path fill="#C76666" d="m54.045 253.204 8.16 2.727s-.344 1.734-.95 3.003c0 0-3.665-1.735-4.68-2.636-1.018-.907-2.53-3.094-2.53-3.094Zm3.884-2.831 1.293 1.243 1.603.742s-2.853.298-2.896-.164c-.043-.461-1.474-1.191-1.474-1.191l1.474-.634v.004Z"/>
    <path fill="#86A6CE" d="M70.867 214.918c-.026.112-.056.25-.086.414l2.48 1.765c1.937-6.079 4.137-11.999 6.359-18.006 0 0-8.323 14.006-8.753 15.827Zm-2.18 13.821c-1.065 2.584-2.999 6.688-3.394 7.335a3.472 3.472 0 0 0-.193.397l2.831 3.668c.103-1.101.194-2.076.318-2.822a124.44 124.44 0 0 1 1.564-7.823l-.099-.039-1.022-.716h-.005Zm-13.369 16.219c.051 1.321.769 3.081 2.612 5.42 0 0-4.511 1.696-3.889 2.826.623 1.135 2.85 2.995 2.531 3.094a31.668 31.668 0 0 0 4.68 2.636c1.22-2.735 2.057-6.084-2.029-7.313 1.427-3.815 4.276-4.294 6.647-1.433.013-.03.026-.06.039-.086l-3.906-5.144c-4.438-1.38-6.685 0-6.685 0Z"/>
    <path fill="#F2E1D6" d="m62.008 244.958 3.905 5.144c1.371-2.818 1.732-6.883 2.02-9.963l-2.832-3.668c-.82 1.855-3.093 8.487-3.093 8.487Zm7.389-18.256c-.005.242-.293 1.023-.71 2.037l1.023.716.099.039c.988-4.25 2.161-8.358 3.45-12.397l-2.479-1.764c-.468 2.494-1.362 10.558-1.38 11.369h-.004Z"/>
    <path fill="#A2C8E9" d="M66.217 211.272c.017.151.021.436.013.82l4.55 3.24c.03-.164.06-.302.086-.414.43-1.825 8.752-15.827 8.752-15.827l-3.317.112s-10.252 10.632-10.084 12.073v-.004Zm-3.441 20.176c-.266.38-.52.721-.76 1.027l3.085 3.996c.081-.181.146-.319.193-.397.395-.643 2.329-4.751 3.394-7.335l-3.416-2.395c-.107.639-.554 2.343-2.492 5.104h-.004Zm-.769 13.51-2.878-3.788c-1.629.354-3.906 1.299-3.812 3.788 0 0 2.248-1.38 6.686 0h.004Z"/>
    <path fill="#FDF5F0" d="m59.129 241.17 2.879 3.788s2.273-6.632 3.093-8.487l-3.085-3.996c-2.01 2.589-1.998 8.501-2.887 8.695Zm6.177-15.119s0 .099-.034.293l3.415 2.395c.417-1.014.705-1.795.71-2.037.02-.807.914-8.876 1.378-11.37l-4.55-3.24c-.06 3.271-.923 13.959-.923 13.959h.004Z"/>
    <path fill="#0A79BA" d="m74.549 283.356-1.977 15.249c2.269.919 4.572 1.795 6.892 2.628.425-5.183.902-10.356 1.435-15.53a73.966 73.966 0 0 1-6.35-2.351v.004Z"/>
    <path fill="#86A6CE" d="M71.043 310.458s2.393 2.589 7.39 5.316c.292-4.854.64-9.7 1.036-14.541a180.873 180.873 0 0 1-6.892-2.628l-1.534 11.853Zm6.694-47.584-2.346 13.988-.842 6.494a73.975 73.975 0 0 0 6.35 2.352c.7-6.822 1.483-13.635 2.346-20.44a143.56 143.56 0 0 1-5.512-2.39l.004-.004Z"/>
    <path fill="#0A79BA" d="m80.306 245.623-.447 4.599-2.123 12.652c1.81.832 3.648 1.631 5.513 2.39.756-5.967 1.568-11.935 2.432-17.894a623.993 623.993 0 0 1-5.375-1.747Z"/>
    <path fill="#86A6CE" d="m81.639 231.889-1.332 13.734c1.77.587 3.562 1.169 5.375 1.747a1150.08 1150.08 0 0 1 2.067-13.742c-2.028-.6-4.065-1.187-6.11-1.739Z"/>
    <path fill="#0A79BA" d="m83.568 217.106-1.268 6.179-.39 5.812-.271 2.796c2.045.557 4.077 1.143 6.11 1.739.773-4.945 1.568-9.89 2.393-14.835a246.83 246.83 0 0 1-6.57-1.691h-.004Z"/>
    <path fill="#19578B" d="m85.927 205.633-2.359 11.473c1.216.626 5.388 6.071 6.256 6.295 0 0 .314-4.353.314-4.604.687-4.133 1.392-8.267 2.11-12.396a497.762 497.762 0 0 0-6.325-.764l.004-.004Z"/>
    <path fill="#DD565B" d="m87.344 198.72-1.422 6.913c2.092.241 4.198.496 6.325.763.455-2.627.92-5.259 1.383-7.887l-6.286.207v.004Z"/>
    <path fill="#86A6CE" d="M97.566 289.224c-5.658-.668-11.231-1.782-16.662-3.516a749.69 749.69 0 0 0-1.435 15.529c5.706 2.045 11.558 3.806 17.483 5.186.129-1.419.215-2.839.215-4.258.159-4.324.283-8.634.395-12.941h.004Z"/>
    <path fill="#F2E1D6" d="M78.434 315.774c3.948 2.153 9.517 4.388 16.825 5.505.237-5.07 1.25-9.98 1.693-14.856-5.93-1.38-11.781-3.145-17.483-5.186a655.608 655.608 0 0 0-1.035 14.541v-.004Zm4.816-50.51a860.003 860.003 0 0 0-2.346 20.44c5.431 1.734 11.004 2.847 16.663 3.516.167-6.312.305-12.608.451-18.899a132.742 132.742 0 0 1-14.768-5.061v.004Z"/>
    <path fill="#86A6CE" d="M85.678 247.37a1011.221 1011.221 0 0 0-2.432 17.894 132.538 132.538 0 0 0 14.768 5.061c.146-6.377.3-12.754.507-19.136-4.357-1.178-8.654-2.481-12.847-3.819h.004Z"/>
    <path fill="#F2E1D6" d="M87.744 233.627c-.713 4.579-1.405 9.161-2.066 13.743 4.193 1.338 8.49 2.641 12.847 3.819.154-4.746.33-9.493.563-14.252-3.781-1.044-7.554-2.192-11.344-3.31Z"/>
    <path fill="#86A6CE" d="M90.137 218.797a1459.31 1459.31 0 0 0-2.393 14.835c3.79 1.117 7.562 2.265 11.343 3.309.258-5.316.632-10.636 1.036-15.982a195.658 195.658 0 0 1-9.986-2.157v-.005Z"/>
    <path fill="#D0A98B" d="M92.246 206.396a1843.82 1843.82 0 0 0-2.11 12.397 191.66 191.66 0 0 0 9.986 2.157c.335-4.457.666-8.94 1.135-13.427-3.025-.367-6.033-.755-9.015-1.127h.004Z"/>
    <path fill="#E1737B" d="M93.63 198.509c-.469 2.628-.928 5.255-1.384 7.887 2.982.376 5.99.76 9.015 1.127.322-3.094.678-6.192 1.078-9.303l-8.705.289h-.004Z"/>
    <path fill="#86A6CE" d="M95.258 321.275c3.79.578 8.044.855 12.783.66l4.413-7.128c.064-1.907.12-3.805.18-5.713-5.646-.599-11.283-1.613-16.847-2.955-.288 8.064-.464 13.613-.533 15.136h.004Z"/>
    <path fill="#0A79BA" d="M96.431 289.09c-.253 6.382-.468 12.177-.64 17.053 5.564 1.346 11.201 2.36 16.847 2.955.202-6.347.391-12.685.563-19.015-5.641-.009-11.249-.285-16.77-.997v.004Z"/>
    <path fill="#86A6CE" d="M97.24 270.11a3225.69 3225.69 0 0 0-.812 18.981c5.521.712 11.128.988 16.77.996.15-5.523.292-11.046.429-16.56-5.508-.716-10.999-1.886-16.387-3.417Z"/>
    <path fill="#0A79BA" d="M98.19 251.098c-.349 6.399-.662 12.807-.946 19.007 5.388 1.532 10.884 2.697 16.388 3.418.154-6.278.305-12.557.455-18.83-5.341-.919-10.664-2.171-15.898-3.595Z"/>
    <path fill="#86A6CE" d="M99.014 236.92a1692.54 1692.54 0 0 0-.825 14.183c5.234 1.424 10.557 2.675 15.898 3.594.116-4.828.232-9.652.352-14.485-5.203-.673-10.324-1.886-15.42-3.292h-.005Z"/>
    <path fill="#0A79BA" d="M100.126 220.955a1068.86 1068.86 0 0 0-1.108 15.965c5.1 1.411 10.217 2.623 15.42 3.292.099-3.965.159-4.354.267-8.323l-1.586-9.152a143.354 143.354 0 0 1-12.993-1.782Z"/>
    <path fill="#86A6CE" d="M101.682 207.536c-.412 4.155-1.25 8.66-1.62 13.415 4.903.914 8.138 1.441 13.058 1.786-.67-8.116-1.461-14.067-1.461-14.067-3.484-.315-6.514-.711-9.977-1.13v-.004Z"/>
    <path fill="#E1737B" d="m150.724 196.615-12.894.427c.602 3.767 1.199 7.577 1.783 11.413 4.224-.617 8.366-1.58 12.396-2.99l-1.289-8.846.004-.004Z"/>
    <path fill="#E6D2C3" d="M152.009 205.464c-4.03 1.411-8.172 2.378-12.396 2.991.615 4.03 1.203 8.086 1.766 12.154 4.172-1.186 8.224-2.834 12.104-5.026l-1.474-10.119Z"/>
    <path fill="#F2E1D6" d="m158.449 249.735-2.371-16.293c-4.087 1.739-8.293 3.132-12.59 4.241.469 4.389.877 8.755 1.195 13.079.094 1.484.189 2.955.288 4.427 4.657-.859 9.212-2.235 13.603-4.246l-.125-1.208Z"/>
    <path fill="#86A6CE" d="M158.574 250.943c-4.391 2.011-8.946 3.387-13.603 4.246.369 5.574.769 11.063 1.186 16.517 4.816-1.333 9.495-3.202 13.968-5.678l-1.551-15.085Z"/>
    <path fill="#E1737B" d="M162.085 285.358a82.31 82.31 0 0 1-14.605 2.865c.495 5.981 1.006 11.983 1.526 18.058a76.012 76.012 0 0 0 14.566-5.981l-1.483-14.942h-.004Z"/>
    <path fill="#E6D2C3" d="m149.006 306.281.868 10.187c0 .009 9.891-3.736 14.656-6.507l-.958-9.66a76.045 76.045 0 0 1-14.566 5.98Zm12.216-29.617-1.095-10.632c-4.473 2.477-9.152 4.345-13.969 5.678.421 5.523.864 11.012 1.319 16.513a82.256 82.256 0 0 0 14.605-2.865l-.864-8.694h.004Z"/>
    <path fill="#86A6CE" d="M153.483 215.578c-3.88 2.192-7.932 3.841-12.104 5.027.786 5.691 1.504 11.4 2.11 17.078 4.296-1.109 8.503-2.502 12.589-4.241l-2.6-17.864h.005Zm-23.734 24.746c-.236-5.825-.589-11.646-.963-17.462-3.931.336-7.918.367-11.931.159l-2.153 8.867s-.181 5.001-.266 8.324c5.001.647 10.088.785 15.309.116l.004-.004Z"/>
    <path fill="#F2E1D6" d="M129.749 240.324c-5.224.669-10.307.531-15.309-.116-.12 4.828-.236 9.656-.352 14.484 5.315.92 10.647 1.506 15.923 1.623.065-5.342-.047-10.666-.262-15.991Z"/>
    <path fill="#86A6CE" d="M130.977 274.213c-.4-4.617-1.19-9.273-1.048-14.01.038-1.295.06-2.594.077-3.888-5.276-.112-10.609-.703-15.924-1.622-.15 6.273-.3 12.552-.455 18.83 5.607.729 11.807.983 17.35.686v.004Z"/>
    <path fill="#F2E1D6" d="M113.627 273.523a7109.75 7109.75 0 0 1-.43 16.56c6.325.013 12.697-.306 19.035-.729-.709-5.005-1.393-10.041-1.835-15.137-5.543.298-11.163.035-16.77-.694Z"/>
    <path fill="#878EAF" d="M142.11 208.083c-4.554.799-9.212.298-13.917.372.189 4.522.387 9.898.589 14.407 4.907-.393 9.728-1.256 14.385-2.706-.292-4.038-.627-8.068-1.057-12.073Z"/>
    <path fill="#0A79BA" d="M143.854 237.589c-.331-5.782-.649-11.599-1.07-17.402-4.658 1.454-9.479 2.313-14.386 2.705.258 5.799.52 11.616.774 17.506a47.76 47.76 0 0 0 1.706-.229c4.387-.63 8.722-1.472 12.976-2.589v.009Z"/>
    <path fill="#86A6CE" d="M145.001 255.185a282.99 282.99 0 0 1-.318-4.423c-.318-4.354-.576-8.755-.829-13.173-4.25 1.113-8.585 1.959-12.976 2.589-.572.086-1.139.159-1.706.228.223 5.226.434 10.516.623 15.909 5.143.125 10.235-.207 15.206-1.126v-.004Z"/>
    <path fill="#0A79BA" d="M145.001 255.185c-4.971.919-10.063 1.247-15.206 1.126.047 1.294.09 2.584.133 3.892.181 5.424.374 9.933.602 14.01 5.487-.302 10.896-1.156 16.138-2.649-.649-5.385-1.233-10.818-1.671-16.375l.004-.004Z"/>
    <path fill="#86A6CE" d="M148.813 288.068c-.73-5.497-1.469-10.977-2.14-16.509-5.241 1.493-10.651 2.348-16.138 2.65.31 5.462.683 10.144 1.186 15.179 4.202-.276 8.391-.595 12.546-.893a83.701 83.701 0 0 0 4.551-.431l-.005.004Z"/>
    <path fill="#0A79BA" d="M148.813 288.068c-1.508.181-3.02.332-4.55.431-4.155.298-8.344.622-12.546.894.558 5.63 1.272 11.71 2.221 19.835 5.784-.6 11.498-1.761 17.071-3.568-.662-5.951-1.427-11.784-2.2-17.592h.004Z"/>
    <path fill="#86A6CE" d="M131.716 289.393c-6.338.422-12.19.707-18.514.694-.172 6.33-.361 12.669-.563 19.016 5.25.556 9.899.733 14.763.5a216.248 216.248 0 0 0 5.448-9.147c-.283-3.676-.61-7.348-1.134-11.059v-.004Z"/>
    <path fill="#F2E1D6" d="M119.059 321.858s3.579-4.695 8.305-12.198a106.65 106.65 0 0 1-14.725-.561c-.06 1.902-.116 3.805-.18 5.713l.279-.449 6.145 7.607s.872 0 2.419-.082c-.744 0-1.491 0-2.239-.026l-.004-.004Z"/>
    <path fill="#19578B" d="M149.985 247.047c.305 18.126-8.744 38.497-17.131 53.405.223 2.878.421 5.751.675 8.647a99.02 99.02 0 0 1-6.123.5.626.626 0 0 1-.039.06s17.604-1.035 23.645-4.004c.365 3.288.7 6.615.988 9.989 7.743-2.93 12.71-5.79 12.71-5.79s-4.142-42.808-5.878-57.034c-.391-3.219-1.019-7.896-1.749-13.204-2.406.208-4.804.389-7.188.523.021 2.222.051 4.517.09 6.908Z"/>
    <path fill="#878EAF" d="M149.895 240.139c2.385-.134 4.782-.32 7.188-.522-2.479-17.963-6.178-43.11-6.178-43.11s-1.281 14.666-1.01 43.632Z"/>
    <path fill="#D0A98B" d="M152.143 204.981c-.391.479-1.225.859-1.779 1.036a531.403 531.403 0 0 0-.352 11.361 58.907 58.907 0 0 0 3.656-1.873l-1.525-10.524Zm6.351 45.112c-.039-.306-.082-.617-.121-.936l-2.285-15.711a84.84 84.84 0 0 1-6.218 2.356c.017 3.517.052 7.262.121 11.249a59.107 59.107 0 0 1-.327 7.085 55.665 55.665 0 0 0 8.92-3.189l-.086-.854h-.004Z"/>
    <path fill="#878EAF" d="M149.397 288.003c-.731-5.497-2.058-10.921-2.724-16.448-.31.086-.619.168-.928.25-1.908 5.894-4.31 11.668-6.884 17.078 1.805-.133 3.61-.263 5.406-.392 1.525-.1 3.626-.307 5.134-.488h-.004Zm12.885-2.351c-4.739 1.385-7.893 1.838-12.886 2.356.495 5.98 1.096 11.576 1.612 17.652 4.975-1.467 8.12-2.956 12.843-5.498l-1.569-14.51Z"/>
    <path fill="#D0A98B" d="M160.651 269.428c-4.739 1.385-8.989 1.618-13.977 2.136.494 5.98 1.34 10.524 2.724 16.443 4.387-.405 7.682-.785 12.886-2.355l-1.633-16.224Zm-9.638 35.99c.374 3.348.696 6.787.988 10.226 2.226-.781 5.539-2.131 8.37-3.564.628-.319 1.289-.608 1.788-.854 1.435-.712 2.225-1.135 2.625-1.428l-.975-9.834c-4.284 2.304-12.929 5.523-12.796 5.458v-.004Z"/>
    <path fill="#878EAF" d="M151.039 305.427c-5.801 1.881-11.747 3.089-17.771 3.715.399 3.43.842 7.21 1.327 11.456a111.32 111.32 0 0 0 12.083-2.887c1.907-.617 3.639-1.428 5.319-2.067-.301-3.512-.58-6.796-.958-10.222v.005Z"/>
    <path fill="#D0A98B" d="M134.909 320.58c.026-3.715-1.066-7.792-1.383-11.477-2.445.276-3.266.371-6.162.561-4.722 7.503-8.305 12.198-8.305 12.198.747.021 9.744-.173 15.85-1.277v-.005Z"/>
    <path fill="#878EAF" d="M132.851 300.452a221.657 221.657 0 0 1-5.449 9.147 93.174 93.174 0 0 0 6.123-.5c-.249-2.896-.451-5.774-.674-8.647Zm27.8-31.024-2.071-18.485a56.289 56.289 0 0 1-8.92 3.189c-.572 5.488-1.646 9.402-3.219 15.524.026.324.202 1.58.228 1.908 6.406-.682 9.509.34 13.977-2.136h.005Z"/>
    <path fill="#19578B" d="M108.446 237.101a3.019 3.019 0 0 0 3.012-3.025 3.018 3.018 0 0 0-3.012-3.024 3.018 3.018 0 0 0-3.012 3.024 3.018 3.018 0 0 0 3.012 3.025Zm-.76 25.134a3.019 3.019 0 0 0 3.012-3.025 3.018 3.018 0 0 0-3.012-3.024 3.018 3.018 0 0 0-3.012 3.024 3.018 3.018 0 0 0 3.012 3.025Z"/>
    <path fill="#0A79BA" d="M106.719 284.211a3.02 3.02 0 0 0 3.012-3.025 3.019 3.019 0 0 0-3.012-3.025 3.019 3.019 0 0 0-3.012 3.025 3.02 3.02 0 0 0 3.012 3.025Z"/>
    <path fill="#19578B" d="M106.354 307.179a3.02 3.02 0 0 0 3.012-3.025 3.019 3.019 0 0 0-3.012-3.025 3.018 3.018 0 0 0-3.012 3.025 3.019 3.019 0 0 0 3.012 3.025Z"/>
    <path fill="#E6D2C3" d="M108.041 236.393a3.018 3.018 0 0 0 3.012-3.024 3.018 3.018 0 0 0-3.012-3.025 3.019 3.019 0 0 0-3.012 3.025 3.018 3.018 0 0 0 3.012 3.024Zm-.759 25.134a3.018 3.018 0 0 0 3.011-3.025 3.018 3.018 0 0 0-3.011-3.024 3.018 3.018 0 0 0-3.012 3.024 3.018 3.018 0 0 0 3.012 3.025Zm-.967 21.976a3.019 3.019 0 0 0 3.012-3.025 3.02 3.02 0 0 0-3.012-3.025 3.019 3.019 0 0 0-3.012 3.025 3.018 3.018 0 0 0 3.012 3.025Zm-.366 22.968a3.018 3.018 0 0 0 3.012-3.025 3.019 3.019 0 0 0-3.012-3.025 3.018 3.018 0 0 0-3.011 3.025 3.018 3.018 0 0 0 3.011 3.025Z"/>
    <path fill="#878EAF" d="m83.572 217.196.928-3.741-3.764-3.93-.43 3.836 1.646 2.019 1.62 1.816Zm-7.18-12.681-1.006-1.32-.563-1.743s-1.181 3.974.378 5.229l1.096 1.506.928-2.666-.83-1.006h-.003Z"/>
    <path fill="#19578B" d="m128.789 231.612 14.394-5.475-.67-6.485-13.728 3.21.004 8.75Z"/>
    <path fill="#878EAF" d="m128.79 231.612-.005-8.75-4.322.349 3.463 8.677.864-.276Zm14.395-5.475-.4-2.956 8.25-3.529-1.126 3.503-6.724 2.982Zm15.239-7.724s-.524-2.386-1.268-1.963l18.992-19.119s1.843 1.726 3.029 4.03c0 0-13.127 14.744-20.758 17.057l.005-.005Z"/>
    <path fill="#86A6CE" d="M136.314 225.563s-.447.626 10.304-3.927a82.988 82.988 0 0 0-4.374-9.268c-4.078.988-5.337.665-11.129 1.89 4.881 8.604 5.199 11.305 5.199 11.305Z"/>
    <path fill="#0A79BA" d="M120.617 197.331c.907 1.829 9.461 13.851 10.497 16.931 7.751-1.225 7.059-.927 11.128-1.89-2.294-6.334-11.807-14.778-12.447-15.805-7.665.781-4.477.341-9.178.764Z"/>
    <path fill="#878EAF" d="M164.01 201.409c-2.411-2.96-6.2-6.253-9.311-8.324-6.815 1.157-15.64 2.378-24.908 3.482 3.377 3.871 9.753 11.486 12.447 15.806 5.431-.553 9.599-2.831 14.343-5.567 2.655-1.514 5.152-3.3 7.429-5.397Z"/>
    <path fill="#F2E1D6" d="M142.239 212.372a84.015 84.015 0 0 1 4.374 9.269c7.527-3.185 15.747-7.612 21.934-13.45a44.235 44.235 0 0 0-4.541-6.783c-6.063 5.58-13.647 8.937-21.772 10.964h.005Z"/>
    <path fill="#19578B" d="M164.01 201.408a37.651 37.651 0 0 0 7.274-9.164L168.5 190s-2 .5-14 3c3.111 2.071 7.1 5.448 9.51 8.408Z"/>
    <path fill="#86A6CE" d="M171.288 192.244a37.891 37.891 0 0 1-7.274 9.164 44.528 44.528 0 0 1 4.541 6.783c3.201-3.02 5.861-7.059 7.597-10.856l-4.86-5.087-.004-.004Zm-95.85 11.072s1.508 1.976 4.21 5c.439-2.144 1.144-4.219 2.003-6.243-2.402-1.83-4.744-3.681-7.025-5.441-.228 1.959-.19 4.423.816 6.684h-.004Z"/>
    <path fill="#19578B" d="M85.092 195.191c-3.338-.622-6.608-1.351-9.654-2.214 0 0-.568 1.528-.817 3.655 2.286 1.76 4.623 3.612 7.025 5.441.993-2.352 2.192-4.634 3.446-6.882Z"/>
    <path fill="#878EAF" d="m90.138 218.797 9.99 2.158-3.17 7.784-7.546-5.549.726-4.393Z"/>
    <path fill="#F2E1D6" d="M79.644 208.321a136.786 136.786 0 0 0 8.263 8.479c.64-2.861 1.702-5.605 3.098-8.181-3.227-1.994-6.342-4.246-9.358-6.546-.855 2.024-1.564 4.099-2.003 6.244v.004Z"/>
    <path fill="#878EAF" d="M100.401 197.331c-4.885-.496-10.174-1.187-15.309-2.14-1.25 2.248-2.449 4.535-3.445 6.882.425.323.854.643 1.284.962 3.18 1.148 6.39 2.153 9.629 3.008 2.14-3.254 4.812-6.197 7.841-8.712Z"/>
    <path fill="#86A6CE" d="M91.005 208.619a34.736 34.736 0 0 1 1.556-2.576c-3.24-.85-6.45-1.856-9.63-3.008 2.617 1.959 5.303 3.871 8.074 5.584Zm-3.098 8.18c2.904 2.736 3.514 2.853 7.17 5.614 0 0 1.217-3.715 5.045-9.376-4.623-1.178-4.902-1.812-9.122-4.414-1.396 2.576-2.457 5.32-3.098 8.181l.005-.005Z"/>
    <path fill="#0A79BA" d="M91.006 208.619c4.22 2.606 4.498 3.236 9.122 4.414 1.19-1.756 1.4-2.546 2.78-4.414-5.234-.656-5.216-1.226-10.347-2.576a34.736 34.736 0 0 0-1.555 2.576Z"/>
    <path fill="#19578B" d="M109.82 199.16h.108s-.078-.025-.108 0Z"/>
    <path fill="#19578B" d="M103.5 207.79c2.797.328 5.349.626 8.159.876l-1.731-11.18s-3.846 6.65-6.424 10.3l-.004.004Z"/>
    <path fill="#19578B" d="M109.928 197.491h-1.835c-1.779-.031-3.141 0-7.571-.264-.88.73-1.843 1.605-2.655 2.404a39.085 39.085 0 0 0-5.306 6.416c5.13 1.35 5.113 1.92 10.346 2.576.206-.281.404-.557.597-.833 2.578-3.655 6.424-10.299 6.424-10.299Zm6.926 25.561 9.336-17.156-5.573-8.565-3.763 25.721Zm-39.633-17.536 3.515 4.009-.43 3.836-4.013-5.178.928-2.667Z"/>
    <path fill="#878EAF" d="m100.127 220.955 9.448-12.488-6.075-.677-1.611 2.33-1.066 1.821-.696 9.014Z"/>
    <path fill="#F2E1D6" d="M116.854 223.052s8.576.768 11.931-.186l-.382-13.531-2.213-3.439-9.336 17.156Z"/>
    <path fill="#D0A98B" d="m128.786 222.862-.382-13.531-2.213-3.439-5.134 9.436 3.463 8.013s2.629 0 4.266-.479Z"/>
    <path fill="#19578B" d="m171.534 209.145 1.229-1.174-1.564.251.335.923Z"/>
  </g>
  <defs>
    <clipPath id="a">
      <path fill="#fff" d="M52 190h145v132H52z"/>
    </clipPath>
  </defs>
</svg>
