<svg xmlns="http://www.w3.org/2000/svg" width="250" height="414" fill="none" viewBox="0 0 250 414">
  <path fill="#F5E4D3" d="M96.338 197.432s10.073.97 30.248-.363l-.901 118.86s-19.005 2.576-28.729 0l-.618-118.497Z"/>
  <path fill="#E5CAB2" d="M94.5 196.5s17.5 2 32.086.569l-.028 4.983s-14.546-.989-18.458 8.012c-3.906 8.997-7.431 106.566-7.431 106.566l-1.981.292L94.5 196.5Z"/>
  <path fill="#1D4D76" d="M98.687 321.765s-21.67.673-26.997-5.888l5.506-37.945s-21.85-7.272-23.09-19.151l27.53-62.418 20.354 1.21-3.298 124.192h-.005Z"/>
  <path fill="#1D4D76" d="M81.103 195.519s-2.133 10.108 1.33 17.823c0 0 6.662-10.903 16.254-10.107 0 0-14.385-3.194-17.584-7.716Zm44.583 126.067.901-124.517s7.586.664 23.878-2.124c11.899-2.04 19.536-5.445 19.536-5.445s10.745 8.991 15.897 25.661c5.152 16.669 15.098 51.599 15.098 51.599s-15.277 17.022-37.655 19.858l2.666 26.244s-15.632 7.876-40.321 8.724Z"/>
  <path fill="#1D4D76" d="M126.559 202.052s11.031 4.239 12.63 18.605c0 0 27.087-7.979 32.239-26.066 0 0-27.71 7.8-44.869 7.461Z"/>
  <path fill="#173955" d="m81.38 198.491-.971 2.205c-.363 3.584-.51 9.698 1.77 14.775 0 0 10.091-14.163 19.683-13.367l.123-4.531c-3.732-.245-17.174 3.928-20.307 1.008l-.297-.085v-.005Zm64.649.636c-5.478.924-14.457-2.242-19.458-2.058v2.176h-.005c.335.132 10.791 6.213 12.367 20.348 0 0 29.287-10.499 31.066-30.093 0 0-8.15 6.952-20.05 8.991-1.368.236-2.67.443-3.911.636h-.009Z"/>
  <path fill="#1D4D76" d="M81.001 194s-2.03 9.63 1.434 17.345c0 0 9.903-13.499 19.552-13.772 0 0-12.486-1.573-20.995-3.526L81 194Zm45.585 3.069s10.998 6.029 12.597 20.395c0 0 25.665-9.877 30.817-27.964 0 0-14.5 4.5-43.414 7.569Z"/>
  <path fill="#173955" d="m83.59 232.183-6.393 45.749s-13.046-5.129-16.853-9.156c0 0 14.277-2.986 23.246-36.588v-.005Z"/>
  <path fill="#43809B" d="M126.398 222.913s3.728-4.389 5.86-5.454c0 0 4.36 4.121 5.242 7.847 0 0-2.859 16.537-11.248 17.512l.141-19.905h.005Z"/>
  <path fill="#173955" d="m158.373 235.419 4.968 51.203s11.347-1.465 19.571-6.335c0 0-16.282 6.335-24.539-44.864v-.004Z"/>
  <path fill="#5AA8A6" d="M126.256 242.818s.939-12.326 9.464-16.711c8.526-4.39 17.854-.796 17.854-.796s-1.751 19.994-27.318 17.512v-.005Z"/>
  <path fill="#43809B" d="M126.256 242.818s4.227-6.693 12.753-11.083c8.526-4.389 14.565-6.429 14.565-6.429s-1.751 19.995-27.318 17.512Z"/>
  <path fill="#5AA8A6" d="M132.257 217.464s1.421 10.88-1.689 15.251l6.931-7.404s-2.312-5.987-5.242-7.847Zm-39.452-16.311s-1.897 4.941-.962 9.726c0 0 6.662.664 9.856-3.057l.288-10.249s-4.133.49-9.182 3.58Z"/>
  <path fill="#44809B" d="M92.805 201.153s-1.897 4.941-.962 9.726c0 0 1.486-1.305 3.6-3.561a25.216 25.216 0 0 0 3.52-4.795l2.736-4.813s-4.213.442-8.894 3.438v.005Z"/>
  <path fill="#32688A" d="m99.348 201.845 2.638-4.272s-4.251-.141-9.182 3.58c0 0-.58 1.822-1.019 4.564 2.02-2.398 4.751-3.561 7.563-3.872Z"/>
  <path fill="#44809B" d="M99.57 285.897s-.89-13.028-15.385-10.146c0 0-.972 16.91 15.108 18.252l.273-8.106h.005Z"/>
  <path fill="#5AA8A6" d="M99.57 285.897s-.892-13.028-15.386-10.146c0 0 13.673 9.557 15.107 18.252l.274-8.106h.004Z"/>
  <path fill="#45809B" d="M90.389 275.506s.561-6.603 3.515-9.231c0 0 4.892 1.097 6.185 4.267l-.57 16.881-9.13-11.917Z"/>
  <path fill="#5AA8A6" d="M97.768 276.208s-1.901-6.806-3.864-9.933c0 0 4.893 1.097 6.186 4.267l-.571 16.881-1.75-11.215Zm28.191 7.574s1.326-12.679 10.564-13.744c0 0 9.606 12.058-10.564 20.037v-6.298.005Z"/>
  <path fill="#45809B" d="M136.517 270.038s9.606 12.058-10.564 20.037v-1.564c6.426-4.988 7.54-8.37 10.564-18.473Z"/>
  <path fill="#EBA741" d="M82.631 239.036s3.09-9.693-1.439-12.529c-4.53-2.835-4.793 1.154-4.793 1.154s2.307 10.165 2.222 11.375c0 0-5.417-5.082-8.615-4.107-3.2.975-8.347 6.208-5.063 8.511 3.284 2.303 13.055 2.558 13.055 2.558s-9.502 3.382-6.752 11.45c2.756 8.068 8.654 1.135 8.654 1.135l2.731-19.547Z"/>
  <path fill="#45809B" d="M62.213 270.358s.141-5.322 3.907-7.013c3.765-1.691 6.836-2.054 13.276-1.126l-1.137 8.139s-.948 4.291-10.337 3.495c0 0-5.28-2.929-5.704-3.495h-.005Z"/>
  <path fill="#5AA8A6" d="M63.883 271.418s4.317-.264 8.082-1.955c3.765-1.691 3.61-3.056 7.426-7.244l-1.137 8.139s-.948 4.291-10.337 3.495c0 0-3.605-1.87-4.03-2.435h-.004Zm98.037-24.695s12.791-5.497 16.344 5.318c0 0-10.126 7.8-16.344-5.318Z"/>
  <path fill="#45809B" d="M161.92 246.723s12.791-5.497 16.344 5.318c0 0-3.416-2.464-8.172-3.863-2.491-.73-3.662-.725-8.172-1.455Zm20.991 5.318s-3.586-4.47 1.387-8.62c0 0 4.68 4.894-1.387 8.62Z"/>
  <path fill="#EBA741" d="M159.66 248.682s-1.472-15.793-7.511-12.067c-6.039 3.726 1.42 15.426 1.42 15.426s-10.224-8.818-16.928.706c-1.359 1.931-1.038 4.621.849 6.039 2.01 1.507 5.813 2.199 12.97-1.159 0 0-12.611 12.5-6.662 16.49 5.95 3.989 11.456-9.364 11.456-9.364s-1.109 14.484 7.072 11.484l-2.675-27.559.009.004Zm24.932-37.337s-8.993-12.142-16.632-5.85c0 0-4.298 6.222 10.177 10.391 0 0-17.462-1.079-16.216 7.164 1.246 8.247 18.679-.372 18.679-.372s-12.862 8.921-8.983 17.295a3.03 3.03 0 0 0 1.226 1.338c2.416 1.408 9.758 4.239 13.796-10.061 0 0-2.095 11.375 7.776 12.628 0 0-8.592-31.049-9.823-32.528v-.005Zm-12.373 73.323s-4.463.023-3.265-3.505c1.199-3.528 6.728-3.989 6.728-3.989s-8.459-5.389-5.996-10.508c2.463-5.12 13.253 2.063 14.522 5.652 0 0-4.93-14.032 0-15.03 4.931-.999 7.662 4.121 5.129 14.497 0 0 3.133-9.773 5.996-8.643 2.864 1.131 3.251 4.875 2.289 6.896-.958 2.016-16.778 12.906-25.403 14.63Z"/>
  <path fill="#D5863D" d="M174.163 277.428c-1.727.405-4.411 1.399-5.204 3.726-.958 2.821 1.765 3.617 3.265 3.514 3.794-1.065 7.634-2.572 10.691-4.4 0 0-3.845 1.493-8.747-2.845l-.005.005Z"/>
  <path fill="#EBA741" d="M125.686 298.855s5.817-3.99 10.125 12.5c0 0-3.685-20.216 5.77-19.283 9.46.933-.533 19.283-.533 19.283s8.488-9.246 15.249-5.577a3.803 3.803 0 0 1 1.991 2.963c.302 2.925-.967 8.337-14.155 9.043 0 0 2.35-.023 3.298 1.098 0 0-16.06 3.5-21.745 2.708v-22.735Zm-44.564-49.023s4.6 1.135 4.332 4.507c-.27 3.373-5.36 2.831-5.36 2.831m-5.577 39.212s.854-7.456 4.874-6.571c4.02.886 2.156 5.85 2.156 5.85l-3.298 7.183s5.077-9.133 10.404-6.118c5.326 3.014-2.84 7.093-8.616 8.864 0 0 14.476 3.457 11.456 8.864-3.02 5.408-12.79-4.7-12.79-4.7s6.194 8.657 1.363 10.329c0 0-4.916-.579-8.384-4.216l2.83-19.495.005.01Z"/>
  <path fill="#45809B" d="M101.613 229.168s-3.864-1.464-6.327 0c0 0-1 9.176 6.327 15.294v-15.294Z"/>
  <path fill="#5AA8A6" d="M101.613 233.888s-1.198-2.661-6.327-4.72c0 0-1 9.176 6.327 15.294v-10.574Z"/>
  <path fill="#EAA742" d="M137.734 195.741s-1.442 3.856 1.111 6.47c2.821 2.892 9.341 1.757 11.04-2.666 1.699-4.423 1.241-5.939 1.241-5.939s-11.472 1.871-13.392 2.135Z"/>
  <path fill="#457D99" d="M101.853 202.547s-1.699-.74-2.505-.702l2.637-4.272-.132 4.974Zm62.487 93.915s-4.643-6.783-10.101-2.398c0 0-.217 10.353 10.615 7.438l-.509-5.045-.005.005Z"/>
  <path fill="#EBA741" d="M55.743 255.055s4.624-1.818 6.464 3.368c1.84 5.186-6.464 5.106-6.464 5.106s-1.599-2.139-1.641-4.753l1.642-3.725v.004Z"/>
  <path fill="#D5863D" d="M71.926 259.04c2.94 5.454 7.973-.452 7.973-.452l3.69-26.4c-3.472 13.004-7.738 21.416-11.663 26.852Z"/>
  <path fill="#32688A" d="M63.883 271.418s4.317-.264 8.082-1.955c3.765-1.691 3.61-3.056 7.427-7.244-4.516-.65-7.37-.664-9.974-.033-2.714 3.071-5.115 4.739-6.766 5.629a11.244 11.244 0 0 0-.44 2.543c.562.405 1.18.815 1.841 1.225a1.43 1.43 0 0 1-.17-.165Z"/>
  <path fill="#5AA8A6" d="m78.254 270.363.052-.391-.052.391Z"/>
  <path fill="#457D99" d="M71.965 269.463c-3.765 1.691-8.082 1.955-8.082 1.955a.944.944 0 0 0 .17.165 58.435 58.435 0 0 0 4.133 2.289c9.134.693 10.068-3.514 10.068-3.514l.057-.391 1.085-7.752c-3.817 4.187-3.661 5.553-7.426 7.244l-.005.004Z"/>
  <path fill="#1D4D76" d="m72.248 316.481-.043-.044.043.044Z"/>
  <path fill="#3D9FD4" d="M68.993 244.961c-1.628-.367-3.11-.857-4.058-1.521-3.284-2.303 1.864-7.536 5.063-8.511.764-.236 1.656-.118 2.571.188l8.422-23.183c-1.01-4.159-.864-8.459-.58-11.243l.09-.691c-.859-.16-.038-.007 0 0v-1.5l-1.5 4-23.257 52.55s4.624-1.818 6.464 3.368c1.84 5.186-6.464 5.106-6.464 5.106 1.133 1.917 2.75 3.669 4.596 5.238l8.648-23.81.005.009Z"/>
  <path fill="#1D4D76" d="m81.382 198.491-.972 2.205c-.283 2.783-.43 7.084.58 11.243l.803-2.214s-1.015-6.321 1.906-10.273c-.859-.16-1.557-.433-2.024-.871l-.298-.085.005-.005Z"/>
  <path fill="#F8D181" d="M70.002 234.929c-3.2.975-8.347 6.208-5.063 8.511.944.664 2.425 1.154 4.058 1.521l3.576-9.844c-.915-.306-1.807-.424-2.571-.188Z"/>
  <path fill="#3D9FD4" d="M72.248 316.48c.642.621 1.85 1.596 3.694 2.36a14.73 14.73 0 0 1-1.698-.91c-.764-.433-1.44-.918-1.996-1.455v.005Zm-.298-.302c-.089-.099-.178-.198-.259-.301 0 0 .09.118.26.301Zm2.628-20.23 2.614-18.016-.18-.061-5.326 38.011 2.83-19.496s.02-.164.062-.433v-.005Zm-2.372 20.489a10.46 10.46 0 0 1-.255-.259c.07.076.156.16.255.259Z"/>
  <path fill="#3D9FD4" d="M71.686 315.877c.085.103.17.202.26.301.08.09.165.175.255.259l.042.043c.557.537 1.232 1.017 1.996 1.455a13.11 13.11 0 0 1-2.557-2.058h.004Zm7.567-14.597.047-.73-1.052 2.294s.368-.659 1.005-1.564Z"/>
  <path fill="#EBA741" d="M90.427 237.764c-3.043-2.049-5.728-.004-7.068 1.404l-.42 6.349c4.001-.009 11.404-5.12 7.488-7.753Z"/>
  <path fill="#3D9FD4" d="M74.578 295.948c.255-1.577 1.378-6.895 4.813-6.137.221.047.42.113.608.184l2.175-32.881c-1.113.16-2.076.061-2.076.061l-.198 1.413s-.08.089-.217.235l-2.67 19.053c.118.042.179.061.179.061l-2.614 18.016v-.005Z"/>
  <path fill="#3D9FD4" d="m83.359 239.168.826-12.486-.609 4.352-3.892 27.78c.136-.146.217-.236.217-.236l.198-1.413 1.024-7.338 1.51-10.8s1.047-3.288 1.023-6.59c.02 3.307-1.024 6.59-1.024 6.59l-1.51 10.8s.68.17 1.496.565l.321-4.879c-.443 0-.85-.057-1.189-.194l.708-5.058s.33-.49.901-1.093Z"/>
  <path fill="#F8D181" d="M79.914 257.17s1.147.104 2.26-.061l.444-6.712c-.821-.396-1.666-.66-1.666-.66l-1.038 7.433Z"/>
  <path fill="#3D9FD4" d="M74.243 317.935a15.36 15.36 0 0 0 1.699.909c.627.259 1.325.5 2.1.688-1.407-.443-2.7-.966-3.804-1.592l.005-.005Zm.273-21.553-2.83 19.495 2.892-19.929c-.043.274-.062.434-.062.434Z"/>
  <path fill="#F8D181" d="M74.243 317.935c1.104.627 2.397 1.154 3.803 1.592l1.207-18.247c-.636.905-1.004 1.564-1.004 1.564l1.052-2.294.698-10.555a4.144 4.144 0 0 0-.609-.184c-3.43-.758-4.553 4.56-4.812 6.137l-2.892 19.929c.802.838 1.68 1.517 2.557 2.058Zm8.022-77.533-.689 4.913c.34.136.92.202 1.364.202l.42-6.349a25.394 25.394 0 0 0-1.095 1.234Z"/>
</svg>
