<svg xmlns="http://www.w3.org/2000/svg" width="250" height="414" fill="none" viewBox="0 0 250 414">
  <g clip-path="url(#a)">
    <path fill="#815A9F" d="M110.522 307.677c-10.441-.215-20.909-1.201-30.977-3.909-1.084-.351-3.62-1-5.674-1.593-.35 1.708-.821 5.954-.871 6.337 0 0 .104.53.367.589 12.473 2.552 25.14 4.639 37.926 4.876.699.009 1.406.014 2.1.023 9.284 0 18.6-.918 27.648-2.885 4.69-1.023 9.357-2.27 13.97-3.58 2.349-.657 4.69-1.356 6.989-2.164-.163-1.548-.322-3.096-.485-4.639-16.129 5.744-33.871 7.365-50.997 6.945h.004Z"/>
    <path fill="#2F74AE" d="M155.445 262.083v.01l.005.005v-.015h-.005Zm0-.031v.027s.014-.032 0-.027Z"/>
    <path fill="#EBA741" d="M161.002 295.819c-25.077 8.703-59.556 9.917-85.576 1.662l-.621-.205-.54-.178c-.136 1.689-.258 3.383-.39 5.072.068.018.136.041.204.06.114.032.227.068.34.1 2.05.589 4.041 1.078 5.125 1.434 10.07 2.707 20.537 3.693 30.978 3.908 17.121.42 34.864-1.201 50.997-6.945-.172-1.634-.34-3.273-.513-4.908h-.004Z"/>
    <path fill="#5D2057" d="m153.5 247.5 2.5 5-2.5 1v-6Z"/>
    <path fill="#815A9F" d="M133.055 200.83a43.173 43.173 0 0 1-3.266 9.287c-1.424 2.913-3.297 5.734-5.651 8.058-1.243 1.224-2.594 2.338-4.114 3.247a17.406 17.406 0 0 1-5.011 2.004c-.93.21-1.878.315-2.831.315a14.25 14.25 0 0 1-7.542-2.196c-2.944-1.872-5.198-4.566-6.808-7.534-1.596-2.935-2.63-6.09-3.293-9.327a41.12 41.12 0 0 1-.802-7.529c-.186-.055-.363-.11-.54-.169-.644-.201-1.275-.415-1.91-.63a39.755 39.755 0 0 0-.367 4.643 38.077 38.077 0 0 0 .259 4.598c.186 1.388.449 2.767.793 4.127.34 1.247.749 2.47 1.23 3.671a30.49 30.49 0 0 0 1.596 3.246 29.05 29.05 0 0 0 1.769 2.635c.63.799 1.302 1.561 2.027 2.283a24.69 24.69 0 0 0 2.018 1.734c.703.516 1.434.996 2.196 1.43.666.365 1.356.689 2.059.986.725.283 1.465.529 2.218.735.725.182 1.46.324 2.199.429.735.091 1.479.142 2.218.151.735 0 1.465-.041 2.195-.114a22.991 22.991 0 0 0 2.359-.411 23.709 23.709 0 0 0 2.422-.735 25.466 25.466 0 0 0 2.617-1.169 29.018 29.018 0 0 0 2.567-1.557 29.084 29.084 0 0 0 2.794-2.237 32.297 32.297 0 0 0 2.671-2.795 34.577 34.577 0 0 0 2.581-3.556 36.437 36.437 0 0 0 2.222-4.178c.005-.014.014-.027.018-.045a39.296 39.296 0 0 0 1.669-4.575 40.724 40.724 0 0 0 1.062-4.913c0-.032.009-.064.013-.096-.068 0-.14.009-.213.009-1.147.06-2.295.101-3.429.165l.005.013Z"/>
    <path fill="#815A9F" d="M156.001 252.5c-.105.155-3.547-.552-5.466-6.958-1.846-6.159-1.447-24.084-1.41-25.394.036-1.352-.254-20.185-.25-20.436-1.061.086-6.971.643-8.028.712l-.494.027a39.414 39.414 0 0 1-3.111 11.2c-2.327 5.145-5.779 9.853-10.4 13.387-4.246 3.246-9.593 5.401-15.099 5.401-.045.009-.091.009-.136.009a22.311 22.311 0 0 1-4.191-.406c-1.492-.293-2.93-.758-4.322-1.334-2.567-1.063-4.93-2.68-6.89-4.574a27.215 27.215 0 0 1-5.252-7.073 32.21 32.21 0 0 1-2.472-6.469c-.054-.197-.104-.398-.154-.598a34.61 34.61 0 0 1-.308-1.361c-.05-.251-.105-.502-.154-.753a35.295 35.295 0 0 1-.53-4.639c-.133.685-.269 1.37-.391 2.059-.44 2.452-.84 4.908-1.184 7.369-.345 2.484-.617 4.968-.939 7.456a1001.27 1001.27 0 0 1-2.045 15.121c-.74 5.114-1.515 10.218-2.286 15.327a1924.442 1924.442 0 0 0-2.259 15.236c-.72 5.036-1.397 10.081-2.09 15.117-.336 2.447-.708 4.89-1.008 7.337a223.677 223.677 0 0 0-.798 7.775c-.032.352-.059.708-.086 1.06l.54.178.621.205c26.02 8.255 60.504 7.045 85.576-1.662-.195-1.885-4.771-42.988-4.984-43.319Zm-.549 9.593-.005-.005v-.036.041h.005Z"/>
    <path fill="#EBA741" d="M87.877 207.884c.045.252.1.503.154.754a34.791 34.791 0 0 0 .463 1.958c.594 2.229 1.401 4.402 2.472 6.47a27.146 27.146 0 0 0 5.252 7.072c1.96 1.895 4.318 3.511 6.889 4.575 1.393.575 2.83 1.041 4.323 1.333 1.383.27 2.78.397 4.19.407.046 0 .091 0 .136-.01 5.507 0 10.854-2.155 15.099-5.401 4.617-3.534 8.073-8.241 10.4-13.386a39.509 39.509 0 0 0 3.111-11.2c-1.229.078-2.453.142-3.66.201 0 .032-.009.064-.013.096a39.811 39.811 0 0 1-1.062 4.913 39.348 39.348 0 0 1-1.669 4.574c-.004.014-.013.028-.018.046a37.454 37.454 0 0 1-2.222 4.178 34.577 34.577 0 0 1-2.581 3.556 31.554 31.554 0 0 1-2.671 2.794 30.383 30.383 0 0 1-2.794 2.238 29.018 29.018 0 0 1-2.567 1.557 26.58 26.58 0 0 1-2.617 1.168c-.794.288-1.597.535-2.422.735-.78.178-1.565.315-2.359.411-.73.073-1.46.114-2.195.114a20.15 20.15 0 0 1-2.218-.15 22.602 22.602 0 0 1-2.2-.429 22.304 22.304 0 0 1-2.217-.735 22.234 22.234 0 0 1-2.059-.987 22.508 22.508 0 0 1-2.196-1.429 24.494 24.494 0 0 1-2.018-1.735 25.279 25.279 0 0 1-2.027-2.282 28.347 28.347 0 0 1-1.77-2.635 30.78 30.78 0 0 1-1.596-3.246 31.938 31.938 0 0 1-1.229-3.671 36.783 36.783 0 0 1-.794-4.127 38 38 0 0 1-.258-4.598c.032-1.552.154-3.1.367-4.643-.24-.082-.48-.165-.725-.247a35.265 35.265 0 0 1-1.502-.671c-.036-.014-.077-.036-.113-.05a267.451 267.451 0 0 0-1.605 7.862 35.268 35.268 0 0 0 .53 4.639l-.009-.019Z"/>
    <path fill="#5D2357" d="M133.69 196.557c-.173 1.128-.381 3.159-.635 4.269 1.134-.064 2.281-.105 3.429-.165.068 0 .14-.009.213-.009.149-1.127.258-3.168.313-4.296-1.102.082-2.205.146-3.316.201h-.004Zm6.943-.516c-.041 1.169-.136 3.251-.281 4.41l.494-.027c1.052-.068 6.966-.625 8.028-.712.013-1.374-.037-3.479-.05-4.712-2.708.425-5.443.772-8.191 1.041Z"/>
    <path fill="#EBA741" d="M110.019 282.552c11.409 0 20.659-9.311 20.659-20.797s-9.25-20.797-20.659-20.797c-11.41 0-20.66 9.311-20.66 20.797s9.25 20.797 20.66 20.797Z"/>
    <path fill="#D6773A" d="M121.82 244.62a20.78 20.78 0 0 1 4.449 12.889c0 11.487-9.252 20.796-20.659 20.796a20.475 20.475 0 0 1-12.436-4.191c3.782 4.817 9.638 7.913 16.21 7.913 11.411 0 20.659-9.31 20.659-20.797a20.809 20.809 0 0 0-8.223-16.606v-.004Zm15.184-48.264c-.054 1.128-.158 3.169-.313 4.296 1.207-.059 2.431-.123 3.661-.201.145-1.159.235-3.241.281-4.41-1.207.119-2.413.228-3.629.315Z"/>
    <path fill="#5D2357" d="M110.018 239.543c-12.187 0-22.065 9.948-22.065 22.212 0 12.263 9.883 22.212 22.065 22.212 12.183 0 22.065-9.949 22.065-22.212 0-12.264-9.882-22.212-22.065-22.212Zm0 2.063c11.058 0 20.02 9.022 20.02 20.153 0 11.131-8.962 20.153-20.02 20.153-11.057 0-20.02-9.022-20.02-20.153 0-11.131 8.963-20.153 20.02-20.153Z"/>
    <path fill="#5D2357" d="m94.24 248.336-1.824.918c1.587 3.214 2.395 4.73 3.633 6.62 3.243 4.959 7.434 8.698 13.552 11.437 5.588 2.502 11.452 3.233 20.387 2.096l-.254-2.045c-8.581 1.091-14.069.411-19.298-1.932-5.747-2.575-9.652-6.054-12.69-10.697-1.175-1.799-1.956-3.251-3.507-6.397Z"/>
    <path fill="#5D2357" d="m118.581 242.054-2.05.05s0 .594-.018 1.032c-.032.662-.1 1.406-.191 2.237-.258 2.301-.744 4.835-1.505 7.538-2.132 7.593-6.01 15.158-12.097 22.23a64.733 64.733 0 0 1-3.728 3.977l1.442 1.484a68.736 68.736 0 0 0 3.842-4.109c6.291-7.31 10.323-15.149 12.532-23.02a49.932 49.932 0 0 0 1.551-7.862c.1-.882.158-1.676.19-2.384.023-.479.037-.863.032-1.127v-.051.005Z"/>
    <path fill="#5D2357" d="m105.251 241.748-1.937.662c.023.069.341 1.087.463 1.498a79.84 79.84 0 0 1 1.057 3.803c.313 1.255.571 2.497.798 3.707 1.152 6.132 3.288 10.972 6.45 12.259 4.254 1.735 8.3.552 11.923-2.931.826-.795 1.665-1.767 2.495-2.849a42.98 42.98 0 0 0 2.399-3.479c.259-.416.485-.813.69-1.16.072-.123.244-.429.254-.452l-1.792-.981c-.041.068-.109.205-.222.401-.191.329-.427.699-.671 1.096a40.421 40.421 0 0 1-2.273 3.319c-.771 1.009-1.542 1.89-2.29 2.612-3.084 2.968-6.318 3.926-9.747 2.529-2.25-.917-4.177-5.305-5.202-10.743a72.211 72.211 0 0 0-.83-3.817 84.712 84.712 0 0 0-1.071-3.899c-.127-.424-.471-1.488-.494-1.561v-.014Zm-14.675 25.321-.209 2.046c2.005.214 3.41.224 6.05.096.808-.037 1.062-.05 1.456-.064 3.425-.11 5.928.315 9.761 1.949 2.295.977 3.987 2.617 5.152 4.767.699 1.283 1.157 2.675 1.442 4.059.1.484.182.922.223 1.319.027.233.027.393.031.466l2.05-.082c-.018-.448-.095-1.178-.29-2.128a16.78 16.78 0 0 0-1.664-4.625c-1.379-2.538-3.397-4.515-6.146-5.684-4.118-1.753-6.917-2.228-10.627-2.109-.412.013-.67.027-1.487.063-2.54.119-3.869.119-5.747-.082l.005.009Z"/>
  </g>
  <defs>
    <clipPath id="a">
      <path fill="#fff" d="M73 195h89v119H73z"/>
    </clipPath>
  </defs>
</svg>
