<svg xmlns="http://www.w3.org/2000/svg" width="250" height="414" fill="none" viewBox="0 0 250 414">
  <g clip-path="url(#a)">
    <path fill="#fff" d="M112.115 226.161a11.528 11.528 0 0 1-11.265 7.147l-1.097-.878-.945.587a10.82 10.82 0 0 1-1.764-.576c-5.881-2.443-8.682-9.227-6.252-15.144 2.43-5.917 9.179-8.728 15.065-6.28 3.501 1.455 5.909 4.446 6.772 7.871l-.956 1.021 1.261.763a11.66 11.66 0 0 1-.83 5.489h.011Zm37.433-4.374c0 5.05-3.211 9.342-7.694 10.934l-1.349-.395-.644.905c-.601.093-1.218.148-1.846.148-6.367 0-11.533-5.192-11.533-11.592s5.166-11.593 11.533-11.593c3.79 0 7.148 1.839 9.256 4.671l-.497 1.317 1.458.215a11.609 11.609 0 0 1 1.321 5.384v.011l-.005-.005Z"/>
    <path fill="#E6883C" d="M77.397 283.576s30.917 24.08 75.263 9.984l-20.543-96.501s-14.514 1.35-28.264.247l-26.456 86.275v-.005Z"/>
    <path fill="#E2733D" d="M84.517 288.291s10.358 4.847 11.63 5.149c0 0 15.744-62.223 18.878-62.168 4.166.076 6.848.076 9.54-.352 0 0 2.315 3.096 3.396 3.744 1.18.702 5.324 1.295 5.324 1.295s-6.902-38.192-14.918-38.274c-8.016-.083-34.03 85.606-33.85 90.606Z"/>
    <path fill="#845C2F" d="M107.195 218.614c-.082-.033-.163-.06-.24-.093.322.126.601.263.24.093Z"/>
    <path fill="#21B0B2" d="M82.098 194.534s40.321 9.32 86.288-4.051l9.403 8.102a7.883 7.883 0 0 1 2.501 4.051l16.715 76.834s-4.701 18.114-45.596 19.535a2.264 2.264 0 0 1-2.288-1.751c-3.216-13.552-23.737-98.916-30.743-99.558-5.024-.462-27.892 82.927-31.262 95.321a1.737 1.737 0 0 1-1.987 1.252c-13.548-2.427-18.72-4.485-33.55-17.055a1.62 1.62 0 0 1-.465-1.828l30.984-80.852Z"/>
    <path fill="#1195AE" d="M133.291 235.91s3.02.73 7.06.461l1.087-1.081 1.212.57s7.864-3.002 7.929-10.094c.066-7.097-2.343-9.386-2.343-9.386l-16.9 12.811 1.955 6.724v-.005Z"/>
    <path fill="#664228" d="M109.532 216.907s10.113 3.793 18.113-.209v7.756s-9.949 3.618-18.741-.549l.628-6.998Z"/>
    <path fill="#6C4A26" d="M149.548 221.743c0 5.05-3.211 9.342-7.694 10.934l-1.349-.395-.644.905c-.601.094-1.218.148-1.846.148-6.367 0-11.533-5.192-11.533-11.592s5.166-11.593 11.533-11.593c3.79 0 7.148 1.839 9.256 4.671l-.497 1.317 1.458.215a11.609 11.609 0 0 1 1.321 5.384v.011l-.005-.005Z"/>
    <path fill="#D2A157" d="M147.632 221.402c0 4.589-2.649 8.558-6.504 10.429l-1.283-.532-.579 1.246c-1.01.285-2.07.445-3.173.445-6.367 0-11.532-5.193-11.532-11.593s5.165-11.593 11.532-11.593 11.533 5.193 11.533 11.593l.006.005Z"/>
    <path fill="#6C4A26" d="M136.104 228.071c3.664 0 6.629-2.986 6.629-6.663 0-3.678-2.971-6.664-6.629-6.664-3.659 0-6.629 2.986-6.629 6.664 0 3.677 2.97 6.663 6.629 6.663Z"/>
    <path fill="#4B301B" d="M133.003 226.957c-3.053-2.036-3.877-6.175-1.857-9.238 1.229-1.855 2.894-2.892 4.958-2.969a6.615 6.615 0 0 0-5.771 2.969c-2.026 3.069-1.196 7.202 1.856 9.238a6.545 6.545 0 0 0 3.91 1.109c-1.18-.044-2.031-.406-3.091-1.109h-.005Z"/>
    <path fill="#E8B46C" d="M124.997 221.49c0-6.4 5.166-11.593 11.533-11.593 1.092 0 2.146.154 3.145.434a11.432 11.432 0 0 0-3.588-.576c-6.367 0-11.532 5.192-11.532 11.592 0 5.308 3.402 9.782 8.245 11.154-4.614-1.515-7.798-5.873-7.798-11.022l-.005.011Z"/>
    <path fill="#6C4A26" d="m145.724 214.481-1.185 1.937h1.955l-.77-1.937Z"/>
    <path fill="#1195AE" d="M93.652 229.235s2.108 3.711 5.428 4.704l.748-.346 1.027.758s2.441.23 3.271-.357l1.491-4.764H93.652v.005Z"/>
    <path fill="#4B301B" d="m145.538 214.783 1.726.088-.497 1.317s1.453.159 1.469.236h-3.697l.999-1.636v-.005Zm-5.033 17.548-.655-.983 1.283.533.726.84-1.349-.39h-.005Zm-.617-9.49c-.644-.494-1.289-.983-1.939-1.477.344-.39.683-.768 1.022-1.158.191-.214.376-.423.567-.642.334-.374.394-.994 0-1.356-.36-.335-.993-.395-1.348 0l-1.759 1.992c-.507-.384-1.01-.768-1.518-1.158l-.72-.543c-.399-.302-1.082-.077-1.306.346-.267.499-.087.988.344 1.311l1.939 1.477c-.344.384-.683.768-1.027 1.158-.191.214-.376.428-.567.642-.334.374-.394.988 0 1.356.36.335.993.395 1.348 0l1.759-1.992c.502.389 1.01.768 1.518 1.158.234.181.48.362.72.543.399.302 1.082.077 1.306-.346.267-.505.087-.988-.344-1.311h.005Z"/>
    <path fill="#D2A157" d="M139.548 222.484c-.644-.494-1.289-.983-1.938-1.477.344-.39.682-.768 1.021-1.158.191-.214.377-.423.568-.642.333-.373.393-.994 0-1.356-.361-.335-.994-.395-1.349 0-.584.664-1.174 1.328-1.758 1.993-.503-.385-1.011-.769-1.518-1.159l-.721-.543c-.399-.302-1.081-.077-1.305.346-.268.499-.088.982.344 1.312l1.938 1.476c-.344.384-.682.769-1.021 1.158-.191.214-.377.428-.568.643-.333.373-.393.988 0 1.355.361.335.994.395 1.349 0 .584-.664 1.174-1.328 1.764-1.992.502.39 1.01.768 1.518 1.158l.721.543c.398.302 1.081.077 1.305-.345.267-.505.087-.988-.344-1.312h-.006Z"/>
    <path fill="#6C4A26" d="M112.115 226.161a11.528 11.528 0 0 1-11.265 7.147l-1.097-.878-.945.587a10.82 10.82 0 0 1-1.764-.576c-5.881-2.443-8.682-9.227-6.252-15.144 2.43-5.917 9.179-8.728 15.065-6.28 3.501 1.455 5.909 4.446 6.772 7.871l-.956 1.021 1.261.763a11.66 11.66 0 0 1-.83 5.489h.011Z"/>
    <path fill="#D2A157" d="M110.477 225.107a11.536 11.536 0 0 1-9.971 7.142l-.983-.983-1.01.928a11.448 11.448 0 0 1-3.096-.807c-5.881-2.448-8.682-9.227-6.252-15.144 2.43-5.917 9.179-8.728 15.066-6.285 5.881 2.448 8.682 9.227 6.246 15.144v.005Z"/>
    <path fill="#6C4A26" d="M99.828 227.352c3.664 0 6.63-2.986 6.63-6.663 0-3.678-2.971-6.664-6.63-6.664-3.658 0-6.629 2.986-6.629 6.664 0 3.677 2.97 6.663 6.63 6.663Z"/>
    <path fill="#4B301B" d="M94.848 224.624c-2.043-3.051-1.24-7.196 1.802-9.249 1.84-1.246 3.779-1.564 5.712-.839a6.596 6.596 0 0 0-6.466.532c-3.036 2.053-3.839 6.197-1.802 9.249a6.59 6.59 0 0 0 3.19 2.525c-1.071-.494-1.726-1.158-2.43-2.212l-.006-.006Z"/>
    <path fill="#E8B46C" d="M89.536 216.501c2.43-5.912 9.18-8.728 15.066-6.28a11.65 11.65 0 0 1 2.741 1.614 11.595 11.595 0 0 0-3.101-1.91c-5.881-2.448-12.63.362-15.066 6.279-2.02 4.907-.573 10.347 3.375 13.476-3.686-3.173-4.97-8.426-3.02-13.179h.005Z"/>
    <path fill="#6C4A26" d="m111.366 217.939-1.835 1.334 1.808.752.022-2.086h.005Z"/>
    <path fill="#4B301B" d="m111.077 218.153 1.567.741-.956 1.021s1.283.702 1.262.779l-3.419-1.421 1.546-1.131v.011ZM99.764 232.43l-.235-1.158.983.982.344 1.06-1.092-.879v-.005Zm3.013-8.964-1.229-2.108 1.387-.675.764-.373c.448-.219.743-.768.514-1.246-.208-.45-.765-.752-1.24-.516-.792.39-1.589.774-2.386 1.164-.317-.549-.645-1.098-.961-1.652-.153-.258-.306-.522-.459-.78-.251-.433-.972-.488-1.332-.181-.437.362-.453.878-.18 1.339l1.228 2.108-1.387.675-.764.373c-.448.22-.743.769-.514 1.246.208.451.765.752 1.245.516.798-.389 1.59-.773 2.387-1.163.316.549.644 1.103.961 1.652.153.258.306.521.458.779.252.434.972.489 1.333.182.437-.363.453-.879.18-1.34h-.005Z"/>
    <path fill="#D2A157" d="m102.603 223.005-1.229-2.102c.459-.225.923-.45 1.387-.675l.765-.373c.447-.22.742-.769.513-1.252-.208-.45-.765-.752-1.24-.516-.797.39-1.589.774-2.386 1.164-.317-.549-.644-1.104-.961-1.652-.153-.258-.306-.522-.459-.78-.25-.434-.972-.488-1.332-.181-.437.362-.453.878-.18 1.339l1.228 2.103c-.464.225-.922.45-1.387.675l-.764.373c-.448.22-.743.763-.514 1.246.208.45.765.752 1.246.516.797-.39 1.589-.774 2.386-1.164.317.549.644 1.104.961 1.652.153.258.306.522.459.78.251.433.972.488 1.332.181.437-.362.453-.878.18-1.339l-.005.005Z"/>
    <path fill="#EFAF43" d="M147.801 291.782s34.057-1.932 47.96-18.037l-3.484-16.017s-7.677 12.729-48.25 18.745l3.768 15.303.006.006Zm-87.77-39.68s14.307 15.463 33.621 17.384l-4.396 15.693s-15.453 1.054-35.565-16.533l6.34-16.538v-.006Z"/>
    <path fill="#E2733D" d="m56.968 268.92 10.921 7.372c.54.368 1.267-.077 1.196-.724l-1.567-13.822a.77.77 0 0 0-1.201-.549l-9.354 6.45a.78.78 0 0 0 0 1.279l.005-.006Zm15.537 8.904 12.75 4.27a.836.836 0 0 0 1.06-1.048l-3.708-11.829a.836.836 0 0 0-1.333-.395l-9.042 7.553a.84.84 0 0 0 .273 1.443v.006Z"/>
    <path fill="#8E589D" d="M83.147 262.213 71.21 256.01a.832.832 0 0 0-1.207.873l1.84 12.262a.84.84 0 0 0 1.257.599l10.096-6.06a.844.844 0 0 0-.043-1.471h-.006Zm10.909 5.857-5.99-3.113a.834.834 0 0 0-1.207.873l1.84 12.263a.84.84 0 0 0 1.256.598l1.332-.796 2.769-9.82v-.005Z"/>
    <path fill="#A781B5" d="m67.441 253.925-6.766-3.519s-4.384 10.874-4.215 10.995c.257.192.617.23.923.043l10.096-6.059a.844.844 0 0 0-.043-1.471l.005.011Z"/>
    <path fill="#8E589D" d="m168.872 265.665-13.089 3.069a.84.84 0 0 0-.355 1.454l9.316 8.13a.83.83 0 0 0 1.338-.363l3.773-11.197c.208-.621-.344-1.241-.977-1.087l-.006-.006Zm-17.004 4.814-8.813 2.064 2.047 8.288 2.632 2.3a.83.83 0 0 0 1.338-.362l3.774-11.197c.207-.621-.344-1.241-.978-1.087v-.006Zm31.568-11.944-12.341 5.347a.84.84 0 0 0-.093 1.493l10.599 6.339a.828.828 0 0 0 1.25-.598l1.742-11.686a.835.835 0 0 0-1.157-.895Zm8.338-3.117-4.019 1.74a.84.84 0 0 0-.093 1.493l5.499 3.293-1.387-6.521v-.005Z"/>
    <path fill="#E2733D" d="m151.563 290.245 15.525-2.267c.655-.099.912-.966.431-1.449l-9.501-9.408c-.377-.368-.972-.269-1.218.209l-6.023 11.675c-.311.603.153 1.328.792 1.24h-.006Zm18.178-4.1 14.88-4.99c.628-.208.726-1.114.164-1.504l-11.009-7.574c-.431-.297-1.004-.094-1.163.422l-3.871 12.564c-.202.648.387 1.285.999 1.076v.006Zm17.899-7.762 7.907-5.653-1.496-6.894-6.624-2.092c-.497-.159-.983.209-.988.747l-.06 13.151c0 .681.743 1.115 1.267.736l-.006.005Z"/>
    <path fill="#A781B5" d="M67.485 255.396a.844.844 0 0 0 .252-1.203l-.426 1.301.169-.098h.005Z"/>
    <path fill="#6EC0C8" d="m66.558 257.86.765-2.36-2.135 1.279c.43.357.884.713 1.37 1.081Zm-12.867 10.781-2.577 6.734a1.65 1.65 0 0 0 .464 1.828c2.55 2.163 4.805 4.007 6.88 5.605l2.687-8.294a90.17 90.17 0 0 1-7.459-5.868l.005-.005Zm6.991-18.224 6.765 3.513a.849.849 0 0 1 .3.269l19.064-58.781c-3.042-.505-4.702-1.093-4.702-1.093l-21.427 56.092Z"/>
    <path fill="#F8D183" d="M57.394 261.455a.838.838 0 0 1-.923-.043l-2.774 7.234a87.037 87.037 0 0 0 7.46 5.868l.731-2.262-4.914-3.321a.772.772 0 0 1 0-1.279l8.267-5.703 1.321-4.083c-.48-.374-.939-.73-1.37-1.082l-7.792 4.677v-.011l-.006.005Z"/>
    <path fill="#EFAF43" d="m56.968 268.92 4.914 3.321 3.342-10.303-8.267 5.704a.779.779 0 0 0 0 1.278h.01Z"/>
    <path fill="#6EC0C8" d="M60.681 250.417s-4.385 10.868-4.215 10.995l2.282-5.961 1.928-5.034h.005Z"/>
    <path fill="#A781B5" d="m67.443 253.925-6.766-3.519-.65 1.691-1.278 3.343-2.282 5.961c.256.192.617.23.923.043l7.792-4.676 2.135-1.285.426-1.3a.787.787 0 0 0-.3-.269v.011Z"/>
    <path fill="#1195AE" d="M82.584 194.331h-.48c4.783 1.926 18.151 4.177 34.489 5.187.726-1.219 1.321-1.877 1.78-1.833.617.06 1.338.774 2.146 2.036 15.65.681 34.161-.242 52.662-5.11L167.764 190c-46.415 12.987-85.18 4.331-85.18 4.331Z"/>
  </g>
  <defs>
    <clipPath id="a">
      <path fill="#fff" d="M51 190h146v109H51z"/>
    </clipPath>
  </defs>
</svg>
