<svg xmlns="http://www.w3.org/2000/svg" width="250" height="414" fill="none" viewBox="0 0 250 414">
  <path fill="#1E1E1E" d="M145.39 194.9s6.85 78.62-.41 96.29c-36.96 9.8-61.92.36-61.92.36l-.98-96.7s23.42 6.39 63.32.05h-.01Zm18.881 100.44 1.76 5.7c.15.96 1.13 1.57 2.08 1.29l26.35-7.87c.8-.24 1.29-1.04 1.13-1.85l-1.15-5.76c-.2-.99-1.26-1.56-2.21-1.18l-20.441 6.01-3.149-5.53-.64 6.64-2.73.8c-.7.28-1.11 1-.99 1.74l-.01.01Z"/>
  <path fill="#000" d="M101.481 284.7c-.81-16.68-1.19-33.35-4.53-49.74-.86-4.21-1.82-8.4-2.9-12.56-.96-3.67-2-7.27-2.24-11.08-.32-5.09-.39-9.95 1.5-14.57-7.34-.83-11.25-1.89-11.25-1.89l.98 96.7s6.91 2.61 18.84 3.66c-.11-3.5-.24-7.01-.41-10.51l.01-.01Z"/>
  <path fill="#1E1E1E" d="m52.33 280.07-1.55 6.68c-.1.58.52 1.57.94 1.97 2.6 2.43 12.35 10.51 24.06 7.74.68-6.21.88-8.34.88-8.34l-24.34-8.04.01-.01Z"/>
  <path fill="#B13A32" d="m81.16 196.87-3.81 1.4a4.216 4.216 0 0 0-2.59 2.73l-23.17 76.02a3.66 3.66 0 0 0 .74 3.46c3.41 3.94 13.07 13.58 24.01 11.09-.44 4.82-.57 6.28-.57 6.28s18.69 1.45 20.1.14c1.41-1.31-.06-23.33-.06-23.33l-14.65-77.79Z"/>
  <path fill="#1E1E1E" d="m77.36 198.27-12.51 41.1-12.51 41.1 2.4 2.56 25.6-84.77-2.98.01Z"/>
  <path fill="#B13A32" d="M195.85 285.43c-.07.06-.14.12-.22.18-.97.81-2.24 1.74-3.77 2.7-4.76 3-11.91 6.31-19.54 7.31-.6.08-1.89-4.31-3.34-8.41-.26 3.67.4 8.68-.17 8.7-1.25.04-2.51 0-3.76-.12-.88-.08-1.61-.72-1.81-1.57-3.98-16.05-9.5-56.51-9.5-56.51l3.92 56.12c.08 1.1-.74 2.06-1.85 2.17-6.98.7-30.07 2.87-32.07.87-2.36-2.35 4.43-37.41 4.43-37.41l23.74-64.16 14.89-3.91 4.02 1.22c1.77.59 3.31 2.12 3.71 3.6l22.7 84.84c.43 1.6-.1 3.3-1.37 4.39l-.01-.01Z"/>
  <path fill="#1E1E1E" d="M193.72 287.07 170 196.64l-6.01-2-6.63 2.76s7.07-.13 8.13 1.47c1.03 1.55 20.95 81.04 22.64 91.56l5.59-3.37v.01Z"/>
  <path fill="#FCCC00" d="M195.63 285.61c-.97.81-2.24 1.74-3.77 2.7-4.95-20.45-21.84-89.61-24.3-90.93-2.79-1.5-9.9-.04-10.2.02l4.74-2.14s9.57-1.52 9.81 1.37c.2 2.42 17.97 67.89 23.71 88.98h.01Z"/>
  <path fill="#1E1E1E" d="M181.885 288.553c1.662-.004 3.006-1.342 3.002-2.988-.004-1.646-1.355-2.976-3.018-2.972-1.662.004-3.006 1.342-3.002 2.988.004 1.646 1.356 2.976 3.018 2.972Zm-91.935-9.519c1.663-.005 3.007-1.342 3.003-2.988-.005-1.646-1.356-2.977-3.018-2.972-1.663.004-3.007 1.342-3.002 2.987.004 1.646 1.355 2.977 3.017 2.973Zm39.85-.105c1.662-.004 3.007-1.342 3.002-2.988-.004-1.645-1.355-2.976-3.018-2.972-1.662.005-3.006 1.342-3.002 2.988.005 1.646 1.356 2.977 3.018 2.972Z"/>
  <path fill="#771C19" d="M168.961 189.75s-21.02 4.9-23.57 5.15c0 0-.06 8.64-8.35 19.4-1.05 1.36-1.89 2.86-2.44 4.48-4 11.72-7.6 43-8.83 53.85-.05.47 0 .48.1.02 2.73-11.49 12.22-44.91 19-52.01 8.18-8.58 11.38-10.57 12.56-11.96 1.49-1.74 10.63-8.29 7.33-13.77l4.2-5.16ZM78.92 241.84l-2.58 49.71c-2.22.51-4.39.51-6.46.17l9.04-49.88Zm61.771 55.42.93-.06-.94.06h.01Z"/>
  <path fill="#FCCC00" d="M52.34 280.47a3.634 3.634 0 0 1-.74-3.46l23.17-76.02a4.216 4.216 0 0 1 2.59-2.73l-12.51 41.1-12.51 41.1v.01Zm84.9-36.12 6-8.02c.16-.22.49-.23.67-.01l6.49 7.99c.22.27.03.67-.33.67l-12.48.03c-.35 0-.54-.39-.34-.66h-.01Z"/>
  <path fill="#E5BA03" d="m139.64 243.78 3.8-5.09c.1-.14.31-.14.42 0l4.12 5.07c.14.17.02.43-.21.43l-7.92.02c-.22 0-.35-.25-.21-.42v-.01Z"/>
  <path fill="#771C19" d="M71.59 211.41c.04 2.98 8.32 7.41 10.98 15.83 2.28 7.2 13.47 51.88 13.47 51.88 1.89-14.04-10.04-70.03-10.56-73.54-.52-3.51-.04-8.28.47-9.93-1.8-.29-6.6-1.59-6.6-1.59s-.87-.22-4.34-1.35c-.08.09 1.75 4.08 1.66 4.18-2.2 2.64-5.17 7.29-5.08 14.53v-.01Zm63.69 32.27 16.41-.35c.2 0 .37.14.38.34l.25 3.36c.02.21-.15.38-.36.39l-16.71.42c-.21 0-.39-.16-.39-.37l.05-3.44c0-.19.17-.35.37-.36v.01Z"/>
  <path fill="#5E0B0B" d="M77.04 199.52c2.88 1.2 5.4 3.12 7.66 5.25-2.67-4.28-5.57-8.42-9.23-11.91-.15-.05-.3-.1-.47-.15-.08.09 1.75 4.08 1.66 4.18-.47.57-.98 1.24-1.49 2 .63.18 1.25.39 1.86.65l.01-.02Zm66.76 3.22c.51-.35 1.02-.68 1.55-1.01 3.93-2.41 8.45-4.3 13.06-4.92 2.39-.32 4.74-.17 7.05.2-.06-.71-.28-1.42-.69-2.11l3.41-4.19c-2.08.24-4.13.8-6.11 1.47-4.23 1.44-8.33 3.42-12.23 5.58a21.733 21.733 0 0 0-6.04 4.98Z"/>
  <path fill="#771C19" d="M157.66 293.82c.08 1.1-.74 2.06-1.85 2.17-.09 0-.19.02-.3.03-.06 0-.12.01-.18.02-.15.02-.31.03-.48.05-.38.04-.8.08-1.24.12-.24.02-.49.05-.75.07-2.93.27-6.86.61-10.23.86-.34.03-.68.05-1.01.07l-.93.06c-7.91.52-15.82.73-16.95-.41-.31-.31-.46-1.2-.49-2.5.52-.04 1.03-.07 1.52-.09 5.69-.21 11.53-.26 16.94-2.29.02 0 .03-.01.05-.02 3.2-1.21 5.66-3.78 6.86-6.95 7.75-20.56.19-49.61.04-50.21l2.59 3.21s1.69-3.3 3.72-6.71c-.99 3.01-1.21 6.4-1.21 6.4l3.92 56.12h-.02Z"/>
  <path fill="#771C19" d="M142.63 297.13c3.38-.25 7.3-.59 10.23-.86-2.77.26-6.44.59-10.23.86Z"/>
  <path fill="#E55D5A" d="M78.1 257.82c.08 1.58-.16 14.19-.08 15.76.2 4.19.02 8.58.83 12.71 1.58 8.08 10.13 10.02 17.43 10.29-.1.74-.23 1.24-.41 1.41-1.16 1.08-14.91.29-19.7-.03-.9-.06-1.57-.83-1.49-1.72.09-.98.22-2.48.43-4.68l2.99-33.74Z"/>
</svg>
