<svg xmlns="http://www.w3.org/2000/svg" width="250" height="414" fill="none" viewBox="0 0 250 414">
  <path fill="#002028" fill-rule="evenodd" d="M193.849 284.95c-12.675 7.65-30.069 9.51-31.673 7.99-2.012-1.9-7.292-33.92-7.292-33.92s3.716 25.8 3.379 30.52c.817.64 1.338 1.15 1.634 2.06.582 1.77-.184 3.72-1.767 4.75-16.893 10.94-35.725 12.92-49.677 11.46a79.782 79.782 0 0 1-6.73-.99 85.367 85.367 0 0 1-8.774-2.16 87.39 87.39 0 0 1-13.267-5.19l-4.617-3.18a1.253 1.253 0 0 1-.367-.88v-.12a3.518 3.518 0 0 1-.092-.81v-.79l-.01-.01c-.46.03-.91.02-1.359.01-11.868-.18-19.1-5.31-21.949-7.83a3.744 3.744 0 0 1-1.256-3.1c.153-1.93.409-4.94.572-5.99.245-1.61 2.38-1.15 2.38-1.15s1.113-12.69 4.953-15.8c-1.021-11.66 4.79-15.12 6.66-17.46 3.544-35.36 12.889-40.21 12.889-40.21l27.566 6.17 69.769-8.31 3.932 9.19s9.059 37.08 11.378 47.65c.255 1.16.827 2.22 1.614 3.13 2.206 2.54 3.105 6.62 1.899 7.94-1.317 1.43-2.788 5.34-1.317 5.97.367.15.643.46.837.8 1.216 2.13 1.665 6.05 1.828 8.13.072.86-.367 1.68-1.113 2.13h-.03Z" clip-rule="evenodd"/>
  <path fill="#013642" fill-rule="evenodd" d="M59.929 285.17c-2.063-3.34-2.472-6.88-1.716-10.27.092-1.83.582-3.63 1.512-5.11.582-1.17 1.48-2.22 2.757-3.08-.224-4.73.521-9.72 2.38-14.07 1.011-2.36 2.502-4.47 4.76-5.85 1.327-.81 2.85-1.23 4.228-1.88-1.706-1.25-3.136-2.74-3.677-4.92-1.052-4.26.807-9.13 1.552-13.32 1.124-6.36.94-13.69 4.75-19.07 1.583-2.24 10.816-1.58 13.44-1.58l-12.45-3.85s-9.345 4.85-12.889 40.22c-1.869 2.34-7.67 5.8-6.66 17.46-3.84 3.11-4.953 15.8-4.953 15.8s-2.134-.46-2.38 1.15c-.163 1.06-.408 4.06-.571 6a3.744 3.744 0 0 0 1.256 3.1c2.696 2.39 9.345 7.12 20.13 7.76-4.667-1.52-8.885-4.25-11.49-8.47l.02-.02Z" clip-rule="evenodd"/>
  <path fill="#000C0F" fill-rule="evenodd" d="M194.972 282.82c-.153-2-.572-5.71-1.696-7.88-.245-.47-.653-.82-1.103-1.12-1.235-.81.184-4.51 1.451-5.9 1.205-1.31.296-5.39-1.9-7.94-.786-.91-1.369-1.97-1.614-3.13-2.308-10.56-11.378-47.65-11.378-47.65l-3.932-9.19-67.552 8.05c-.123.63.123 1.32.439 1.96 9.325-.23 18.548-1.74 27.842-2.5 8.569-.7 17.241-.48 25.718 1.02 3.125.55 7.047 1.26 8.978 4 1.623 2.29 1.848 5.48 2.635 8.1 2.502 8.4 5.474 16.65 8.038 25.03 1.072 3.49 2.042 6.67.704 10.23-.623 1.66-1.593 3.2-2.226 4.84 1.185-.43 2.318-.99 3.289-1.65.715-.48 1.705-.37 2.42 0 3.187 1.66 4.484 4.58 3.258 7.94-.531 1.47-1.787 2.97-2.012 4.51-.245 1.66 1.451 3.24 2.411 4.42.898 1.11 1.021 2.93-.491 3.69-5.362 2.7-9.958 6.97-15.647 9.04-1.787.65-3.707.93-5.495 1.59-1.715.64-5.076.86-4.923 2.66 2.442 1.99 21.633-1.33 31.673-7.99.725-.48 1.184-1.27 1.113-2.13Z" clip-rule="evenodd"/>
  <path fill="#BA324E" d="M106.972 206.02s-6.71-8.62-10.898-9.76c-4.187-1.15-18.68-3.07-19.446-2.45-.766.62-2.053 3.82-1.042 4.69-1.787 1.15-2.696 5.74-.98 6.67 1.715.93 7.2-2.16 28.904 7.01 3.718-.49 3.82-2.24 3.462-6.16Z"/>
  <path fill="#7A0A25" d="M106.972 206.02s-6.71-8.62-10.898-9.76c-.398-.11-.878-.22-1.44-.34 1.083.97 2.053 2.07 2.972 3.18 1.073 1.31 2.186 2.62 3.085 4.06.48.77.888 1.64 1.001 2.54.112.94-.102 1.88 0 2.83.051.49-.511 1.06-1.022 1-2.175-.26-4.36-.63-6.536-.93 2.737.91 5.852 2.08 9.396 3.58 3.718-.49 3.82-2.24 3.452-6.16h-.01Z"/>
  <path fill="#BA324E" d="M176.036 189.68c.388.72.715 1.82.664 3.47 2.737.54 8.324 4.87 1.92 15.17 0 0-2.727-6.03-7.221-5.83-4.218.19-55.827 4.32-64.284 8.78-.97.51-2.206.08-2.594-.93-.93-2.42.776-5.53 2.594-6.7 1.501-.95 7.098-3.16 10.959-4.64a42.017 42.017 0 0 1 7.629-2.1l48.004-8.31c.929-.16 1.889.25 2.339 1.07l-.01.02Z"/>
  <path fill="#7A0A25" d="M110.005 209.34c1.495 0 2.707-1.186 2.707-2.65s-1.212-2.65-2.707-2.65c-1.494 0-2.706 1.186-2.706 2.65s1.212 2.65 2.706 2.65Zm-10.233.01c1.495 0 2.707-1.187 2.707-2.65 0-1.464-1.212-2.65-2.707-2.65-1.495 0-2.707 1.186-2.707 2.65 0 1.463 1.212 2.65 2.707 2.65Z"/>
  <path fill="#fff" d="M111.282 265.13h-1.971c-.99 0-1.787-.8-1.767-1.77l1.185-55.64c.021-.94.807-1.7 1.767-1.7.97 0 1.757.76 1.767 1.71l.786 55.64c.011.97-.786 1.76-1.767 1.76Zm-11.367-28.68H99.2c-.99 0-1.787-.8-1.767-1.77l.766-26.96c.02-.94.807-1.7 1.767-1.7.97 0 1.757.76 1.767 1.71l-.051 26.96c.01.97-.787 1.76-1.767 1.76Z"/>
  <path fill="#BA324E" d="M108.974 263.359h2.584c.848 0 1.553.651 1.614 1.481l.674 8.739c.071.92-.674 1.711-1.624 1.711h-4.443c-.98 0-1.736-.85-1.614-1.8l1.175-8.75a1.603 1.603 0 0 1 1.614-1.381h.02ZM98.505 231.37h2.584c.848 0 1.553.65 1.614 1.48l.674 8.74c.072.92-.674 1.71-1.624 1.71H97.31c-.98 0-1.736-.85-1.613-1.8l1.174-8.75c.102-.79.797-1.39 1.614-1.38h.02Zm55.878 25.21v.03s-1.256 1-2.951 1.88c-1.369.71-3.034 1.35-4.566 1.33 0 0-4.994-.2-7.926-3.86-1.603 1.84-5.893 2.53-8.344-.23-7.435 5.38-14.503-6.83-14.503-6.83s5.975-.61 7.946-7.65c.95-3.41 4.412-5.33 7.762-4.17.204.07.327.12.327.12s1.134-6.69 7.742-7.36c5.076-.51 10.152 3.53 12.307 5.51.644.59 1.032 1 1.073 1.05v1.56l-1.226-.91-.286 3.36c-.276 5.59.306 11.25-.204 16.83.5-.35.878-.67 1.093-.87l1.644-1.55.102 1.75.01.01Z"/>
  <path fill="#fff" d="M154.383 256.62v-.03l-.092-1.75-1.644 1.56c-.225.2-.603.52-1.093.87-1.205.83-3.135 1.81-5.403 1.71h-.02c-2.155-.1-4.229-1.16-6.19-3.14.143-.45.225-.94.246-1.46.061-2.72-1.624-5.33-3.994-6.22-2.114-.79-4.238 0-5.679 2.12-.255.37-.153.9.225 1.18.378.28.899.2 1.154-.17 1.042-1.53 2.39-2.08 3.8-1.56 1.644.62 2.849 2.55 2.808 4.49 0 .51-.112.96-.306 1.35-.419.85-1.277 1.39-2.41 1.5-1.635.16-3.422-.57-4.566-1.86l-.521-.58-.592.43c-1.553 1.13-3.136 1.47-4.852 1.05-3.544-.86-6.567-4.77-7.833-6.6 1.981-.58 5.862-2.4 7.415-7.96.418-1.48 1.399-2.71 2.706-3.38a5.016 5.016 0 0 1 3.8-.34 7.19 7.19 0 0 0 .367 2.93c.623 1.78 2.176 4.02 6.088 4.56 2.798.39 5.014-.57 6.066-2.62.889-1.75.695-4-.459-5.34-.909-1.06-2.268-1.41-3.708-.96a.8.8 0 0 0-.5 1.04c.153.44.633.69 1.062.55.797-.25 1.44-.11 1.89.42.704.82.786 2.31.204 3.47-.429.83-1.573 2.18-4.412 1.79-2.431-.33-4.004-1.47-4.678-3.38-.45-1.3-.388-2.79.184-4.09 1.409-3.22 3.36-5.03 5.791-5.39 5.066-.76 11.102 4.76 12.348 5.97l.449.34 1.216.91v-1.56l.01-.34-.235-.24c-.051-.06-.347-.35-.817-.78-2.114-1.94-7.946-6.72-13.278-5.92-3.002.45-5.352 2.57-6.996 6.3-.112.25-.204.5-.286.76-1.665-.46-3.381-.3-4.892.48-1.696.87-2.962 2.45-3.493 4.34-1.798 6.4-7.058 7.05-7.282 7.08l-1.206.12.634 1.11c.163.29 4.146 7.09 9.519 8.41 1.961.48 3.84.18 5.597-.9 1.266 1.16 2.962 1.87 4.616 1.95.307.01.603 0 .899-.02 1.256-.12 2.329-.64 3.064-1.46 2.196 2.12 4.565 3.27 7.068 3.39h.041c2.032.09 3.789-.5 5.137-1.22 1.716-.9 2.768-1.99 2.85-2.07l.234-.25-.03-.54-.021-.05Z"/>
  <path fill="#000C0F" d="M82.408 232.71c-1.246 8.28-5.627 46.4-7.241 63.79a3.77 3.77 0 0 1-.562-2v-.79c-1.94.03-3.769-.07-5.474-.27 4.933-23.61 13.277-60.73 13.277-60.73Z"/>
  <path fill="#000C0F" fill-rule="evenodd" d="M158.5 289.5c.827.64 1.411 1.7 1.707 2.61.582 1.78-.184 3.72-1.767 4.75-11.562 7.49-25.093 10.34-35.684 11.21-.256-.02-.501-.04-.756-.07 3.687-2.36 8.232-2.97 11.807-5.54 4.494-3.23 4.31-8.14 6.383-12.7 2.329-5.1 6.455-9.12 8.529-14.38 2.206-5.58 2.584-11.69 3.125-17.59.521-5.59-.061-11.25.214-16.85l1.195-13.94 2.567 40c0-1 1.428 3.95 2.68 22.5Z" clip-rule="evenodd"/>
  <path fill="#BA324E" d="m107.503 307.7-5.781-.87a85.402 85.402 0 0 1-8.773-2.16 87.392 87.392 0 0 1-13.267-5.19l-4.495-3.09-.122-.08c-.04-.08-.082-.16-.112-.24a3.622 3.622 0 0 1-.184-.5c-.02-.09-.051-.17-.072-.26l1.992-13.76v-.04c.174-1.63.347-3.3.531-4.99 2.073-1.36 8.079-4.37 12.154 3 .51.92.787 1.93.827 2.95l.276 2.36s5.975.79 6.557 7.87c2.707.79 4.913 1.8 5.597 5.85.603 3.56 4.075 7.87 4.984 8.94.072.09 0 .22-.112.2v.01Z"/>
  <path fill="#fff" d="M108.269 306.969c-.705-.83-4.228-5.15-4.81-8.549-.664-3.89-2.482-5.951-5.7-6.451-.255-5.97-4.8-7.65-6.832-8.1.081-.46.122-.94.102-1.42a7.415 7.415 0 0 0-.93-3.309c-1.593-2.88-3.646-4.591-6.118-5.071-2.665-.52-5.178.56-6.659 1.42-.04.34-.071.69-.112 1.03-.184 1.69.03-.37-.133 1.26l.184-.28c.817-.6 3.544-2.38 6.404-1.82 1.95.38 3.626 1.801 4.974 4.241.439.8.694 1.699.715 2.579.03.9-.174 1.78-.593 2.54-.776 1.43-2.318 2.88-4.075 2.23-1.205-.44-2.012-1.55-1.991-2.75.01-1.08.398-2.37 2.155-2.45.46-.02.817-.4.796-.85a.833.833 0 0 0-.868-.78c-2.737.11-3.728 2.18-3.758 4.06-.02 1.89 1.215 3.62 3.084 4.31 2.288.84 4.698-.34 6.149-3 .071-.12.132-.25.194-.38 1.583.31 5.699 1.63 5.668 7.14-.02.05-.02.1-.03.15-.184 1.99-1.124 3.43-2.666 4.06-1.42.58-3.126.35-4.26-.56-1.02-.83-1.399-2.099-1.072-3.579.123-.59.634-1.031 1.195-1.061.674-.03 1.063.46 1.093.5.276.36.787.44 1.165.18.377-.27.46-.77.194-1.14-.337-.46-1.257-1.23-2.523-1.17a2.963 2.963 0 0 0-2.758 2.35c-.46 2.08.143 3.97 1.644 5.19 1.594 1.29 3.984 1.62 5.965.81 1.9-.78 3.177-2.46 3.585-4.68 1.777.3 3.524 1.31 4.167 5.08.48 2.82 2.595 6.01 4.055 7.93 1.131.871 1.131.871 2.584 1.2.082-.29.02-.6-.184-.84v-.02Z"/>
  <path fill="#7A0A25" d="M176.7 193.15c.051-1.66-.265-2.76-.664-3.47-.449-.82-1.409-1.24-2.338-1.07l-4.096.71c.572.74.96 1.58 1.011 2.46.153 2.75-3.758 2.41-5.576 2.61-4.709.5-10.398.87-15.086 2.78 5.005-.57 9.979-1.19 15.024-.27 1.471.27 1.195 2.17.041 2.61-.459.37-.96.69-1.542.83-.031 0-.051 0-.072.01-2.124.71-4.279 1.23-6.455 1.63-3.779.98-7.558 1.92-11.398 2.6-.878.16-1.757.31-2.635.47 13.727-1.49 26.494-2.47 28.496-2.56 4.504-.2 7.343 6.72 7.343 6.72 6.414-10.3.705-15.52-2.032-16.06h-.021Z"/>
  <path fill="#D84E6F" d="M80.223 204.639c-.94-.6-2.247-1.49-2.277-2.71-.03-1.52 1.981-2.25 3.227-2.45 2.002-.32 4.014.17 5.945.65 1.286.32 2.665.7 4.024.72-.98-.6-2.043-1.07-3.126-1.45-1.44-.51-2.93-.88-4.432-1.16-.705-.13-1.42-.22-2.135-.33-.552-.09-1.093-.08-1.644-.13-1.308-.13-1.86-1.04-1.94-2.27-.042-.65.163-1.29.54-1.81-.98-.04-1.634-.02-1.787.1-.766.62-2.053 3.82-1.042 4.69-1.787 1.15-2.696 5.74-.98 6.67.888.48 2.778-.11 7.405.47-.603-.31-1.206-.62-1.778-.99Z"/>
  <path fill="#9E1536" fill-rule="evenodd" d="m154.414 257.16-.235.25c-.072.08-1.124 1.17-2.85 2.07l.092-.98c.031-.41.072-.82.112-1.22v-.02c.511-5.58-.061-11.23.205-16.83l.286-3.36.143-1.7.02-.31c.47.43.766.73.817.78l.235.24v.34l1.021 18.41.092 1.75v.03l.031.54.031.01Z" clip-rule="evenodd"/>
  <path fill="#BFBBBC" fill-rule="evenodd" d="m153.26 237.98-1.215-.91.143-1.7.02-.31c.47.43.766.73.817.78l.235.24v.34l-.01 1.56h.01Zm1.154 19.18-.235.25c-.072.08-1.124 1.17-2.85 2.07l.092-.98c.031-.41.072-.82.112-1.22v-.02c.501-.35.879-.67 1.093-.87l1.645-1.55.092 1.75v.03l.03.54h.021Z" clip-rule="evenodd"/>
  <path fill="#7A0A25" d="M102.693 232.85c-.062-.83-.777-1.47-1.624-1.47h-.899c.674 2.93 1.317 6.32-.051 9-.644 1.25-1.696 2.24-2.952 2.91.04 0 .082.01.123.01h4.453c.95 0 1.695-.79 1.624-1.71l-.685-8.74h.011Zm10.479 31.99c-.061-.83-.766-1.47-1.614-1.47h-.684c.613 3.01 1.328 6.01-.082 8.96-.531 1.12-1.266 2.15-2.165 2.97h3.605c.95 0 1.696-.79 1.624-1.71l-.674-8.74-.01-.01Z"/>
</svg>
