<svg xmlns="http://www.w3.org/2000/svg" width="250" height="414" fill="none" viewBox="0 0 250 414">
  <path fill="#D6711E" d="M100.94 212.05s16.31 9.25 28.5.22c-.21 27.18.51 90.94.51 90.94s-20.22 3.9-30.9-.66c.15-18.95 1.88-90.5 1.88-90.5h.01Z"/>
  <path fill="#00252D" d="M81.21 258.99c-.15 18.76-1.6 36.66-6.04 44.07-1.6.01-3.15-.1-4.63-.3-12.99-1.8-21.44-11.03-21.44-11.03s.07-8.86.55-10c.47-1.14 2.07-1.47 2.07-1.47s3.07-9.16 3.17-10.62c.11-1.46-2.4-4.09-3.14-4.48-.75-.38-2.86-5.17-.36-6.01 2.5-.84 6.7-7.65 7.44-9.25.56-1.23-.79-5.2-1.45-8.13-.21-.92-.35-1.73-.35-2.32 0-1.09 2.27-7.51 4.9-14.51 3.42-9.1 7.47-19.19 8.01-19.86.37-.45 1.72-1.1 3.25-1.74 2.53-1.06 5.56-2.07 5.56-2.07s2.67 29.82 2.45 57.73l.01-.01Z"/>
  <path fill="#0D5060" d="M54.27 296.04c-1.18-2.91-1.56-6.93.33-9.64.55-.78.97-.87.56-1.71-.31-.63-.95-1.07-1.24-1.75-.54-1.26-.34-2.7.03-3.97.87-2.96 2.74-5.49 4-8.28.34-.74 1.33-1 2.04-.83 1.65.41 4.05.11 6.07-.67-1.01-.08-2.05-.07-3.03-.22a8.696 8.696 0 0 1-5.26-2.84c-2.47-2.77-1.75-6.07.52-8.67 1.25-1.43 2.81-2.58 4.33-3.69.63-.46 1.27-.9 1.9-1.35.41-.3.9-.84 1.33-1.06 0-.01.02-.02.02-.04-.49-.32-1.11-1.11-1.42-1.44-.84-.88-1.53-1.88-2.04-3-.82-1.81-1.03-3.76-1.07-5.72-.23-.66-.22-1.43.19-2.22 2.07-4 4.17-8 5.82-12.2 1.29-3.3 2.15-6.71 3.1-10.12 1.45-5.16 3.91-9.61 8.61-11.58-.19-2.42-.31-3.79-.31-3.79s-3.03 1.02-5.56 2.07c-1.54.64-2.89 1.29-3.25 1.74-.54.67-4.59 10.76-8.01 19.86-2.63 7-4.89 13.42-4.9 14.51 0 .6.14 1.41.35 2.32.66 2.93 2.01 6.91 1.45 8.13-.74 1.6-4.93 8.41-7.44 9.25-2.51.84-.39 5.62.36 6.01.74.39 3.25 3.03 3.14 4.48-.11 1.45-3.17 10.62-3.17 10.62s-1.59.33-2.07 1.47c-.48 1.14-.55 10-.55 10s1.87 2.04 5.2 4.4c-.01-.03-.03-.06-.04-.1l.01.03Z"/>
  <path fill="#AA510E" d="M119.64 301.48c-2.62-.16-5.64-.72-7.22-3.1-1.54-2.33-1.66-5.44-1.64-8.15.02-2.86.38-5.69.46-8.55.14-4.78.18-9.59.15-14.37-.07-9.79-.77-19.55-.71-29.35.03-5 .03-10.01.34-15 .16-2.54 1.1-4.74 1.91-7.01-6.75-.93-11.99-3.9-11.99-3.9s-1.74 71.55-1.88 90.5c10.68 4.55 30.9.66 30.9.66l-.03-3.09c-3.4 1.17-7.17 1.55-10.28 1.36h-.01Z"/>
  <path fill="#00181C" d="M81.21 258.99c-.15 18.76-3.46 36.17-4.82 44.07-1.6.01-5.85-.3-8.09-.69 3.45-13.25 5.28-32.4 4.39-37.8-4.19-5.15-.9-18.88.62-21.32 1.52-2.44 2.93-11.04-.9-18.24-1.34-2.51-1.51-6.43-1.16-10.46.35-4.03 4.08-7.04 6.08-9.8 2.53-1.06 1.4.67 1.4.67s.4-.03.85 6.59c.76 11.17 1.76 29.45 1.63 46.97v.01Z"/>
  <path fill="#00252D" d="M77.5 193.25s15.45 4.15 24.6 4.22c1.52.01 2.91.9 3.62 2.27 1.91 3.71 2.38 4.95 2.38 4.95s5.12.26 4.47 7.52a3.654 3.654 0 0 1-1.85 2.86c-2.03 1.13-2.85 1.25-2.85 1.25l-1.46 78.97-.16 8.88s-16.32 7.67-30.85-2.42c.03-3.6.15-7.22.31-10.71.6-13.03 1.78-24.38.85-27.38-1.18-3.81-4.92-4.38-.73-16.87 4.2-12.48 5.11-15.2 1.95-21.03-3.16-5.83.01-24.02.01-24.02s-.95-.64-1.27-1.4c-.32-.75.98-7.1.98-7.1v.01Zm115.409 95.64c.33.57 2.71 2.73 2.55 6.66-5.14 5.69-23.55 6.62-29.22 6.77-.96.03-1.79-.69-1.92-1.66-.21-1.6-.46-3.93-.34-5.19-2.37-1.88-1.48-3.33-1.2-6.23.28-2.9-4.53-17.71-4.53-17.71s-.77 13.04 1.54 18.96c2.31 5.93-.61 10.61-.61 10.61-19.85 8.89-35.48 3.24-35.48 3.24s-.23-4.84.03-9.97c1.12-21.78 4.02-79 3.49-80.08-.64-1.34-1.36-8.05-.73-10.38.37-1.4 3.1-3.94 5.23-5.77a10.95 10.95 0 0 1 5.66-2.54c7.03-.95 24.51-3.49 34.33-6.47 2.78 2.44 1.56 6.06 1.56 6.06s8.57 3.26 10.39 6.54c3.88 7.6 5.99 18.13 6.98 27.17.35 3.19.56 6.2.66 8.83.06 1.68.08 3.2.06 4.52 0 .66.06 1.31.21 1.94.26 1.11.75 2.17 1.45 3.07 3.18 4.09 5.27 8.08 5.59 10.35.38 2.67-3.3 5.48-4.28 8.38-.26.88-.38 1.98-.38 3.21-.03 5.17 1.84 12.49 2.16 14.13.38 2.03-1.78 3.79-3.2 5.56Z"/>
  <path fill="#BA324E" d="M194.34 265.99c-.26.88-.38 1.98-.38 3.21-3.71.92-7.49.5-9.97.25-1.69-.17-3.05-1.48-3.33-3.18-.62-3.7-1.64-10.1-1.89-15.88-.07-1.57 1.03-2.98 2.56-3.18 6.01-.81 9.01-2.24 10.26-3.02.26 1.11.75 2.17 1.45 3.07 3.18 4.09 5.27 8.08 5.59 10.35.38 2.67-3.3 5.48-4.28 8.38h-.01Z"/>
  <path fill="#F7AF22" d="m191.31 237.72-6.04 1.4-1.48-8.61 6.86-1.61c.35 3.19.56 6.2.66 8.83v-.01Zm-117.97-6.26c-1.05 4.14-2.41 8.74-3.21 11.4a3.028 3.028 0 0 1-3.21 2.17 22.21 22.21 0 0 1-9.54-3.27c-.21-.92-.35-1.73-.35-2.32 0-1.09 2.27-7.51 4.9-14.51 1.41 1.26 4.47 3.38 9.15 3.52 1.53.05 2.64 1.5 2.26 3.01Z"/>
  <path fill="#2A6872" d="m182.09 240.15-1.43.26-1.56-9.14 1.43-.25 1.56 9.13Zm-3.88.69-1.43.26-1.56-9.14 1.43-.25 1.56 9.13Z"/>
  <path fill="#00323D" d="M173.39 194.69c-.06.31-.12.49-.12.49-9.87 10.18-46.05 19.1-46.05 19.1-.09-.19-.18-.49-.28-.87-.15-.65-.3-1.53-.42-2.5-.05-.45-.1-.91-.14-1.39l-.03-.41c-.03-.42-.06-.85-.07-1.27-.02-.45-.03-.89-.03-1.32 0-.24 0-.47.01-.69.02-.5.05-.97.11-1.36.03-.21.07-.4.11-.57.35-1.3 2.74-3.61 4.79-5.39 1.84-1.61 4.1-2.65 6.51-2.97 7.28-.99 24.29-3.49 33.92-6.41.42.37.75.76 1 1.16.27.42.46.85.58 1.28.14.48.21.95.23 1.38.04.72-.05 1.35-.13 1.75l.01-.01Zm-60.791 17.03c-.01.26-.04.52-.07.79-.09.85-.94 1.39-1.72 1.09-4.15-1.62-7.5-3.65-13.23-4.31-13.25-1.51-19.8-7.13-19.8-7.13s-.94-1.06-1.26-1.82a.634.634 0 0 1-.04-.23c-.03-.28 0-.75.07-1.31.05-.45.12-.96.2-1.48v-.02c.06-.42.14-.85.21-1.26.1-.57.2-1.1.28-1.55.14-.74.25-1.24.25-1.24s.09.02.24.06c1.96.52 15.29 3.96 23.9 4.15 1.81.04 3.45 1.07 4.29 2.7.52 1.02.93 1.84 1.24 2.49.51 1.07.77 1.65.87 1.9.01.03.02.05.03.07.02.05.03.07.03.07s.08 0 .21.02c.44.07 1.54.32 2.51 1.22.48.44.93 1.05 1.26 1.87.22.55.39 1.19.48 1.95.06.59.08 1.24.05 1.97Zm46.571 89.38c-.72.32-1.44.63-2.14.91-.18.07-.37.15-.56.22-.2.08-.41.16-.61.23-.24.09-.47.18-.71.26-.51.18-1.01.36-1.51.53-.27.09-.54.17-.82.26-.32.11-.65.2-.97.3-.5.15-.99.29-1.48.42-.28.08-.56.15-.84.22-.25.06-.51.13-.76.19-.21.05-.42.1-.62.14-.99.23-1.96.42-2.9.58-12.77 2.16-21.56-1.02-21.56-1.02s-.12-7.06.03-9.97c9.59 1.29 21.88-.72 29.35-2.29 4.07-.86 6.71-1.59 6.71-1.59 2.31 5.93-.61 10.61-.61 10.61Zm-52.761-5.8-.16 8.88s-16.32 7.67-30.85-2.42c.03-3.6.15-7.22.31-10.71 0 0 15.73 7.24 30.7 4.25Z"/>
  <path fill="#2A6872" d="M173.29 191.56c-11.66 6.59-39.53 12.55-47.03 14.26.02-.5.05-.97.11-1.36 29.21-6.25 43.26-12.09 46.33-14.18.27.42.46.85.58 1.28h.01Z"/>
  <path fill="#2A6872" d="M173.389 194.69c-12.33 5.55-38.68 12.49-47.01 14.83l-.03-.41c-.03-.42-.06-.85-.07-1.27 30.1-7.72 44.54-12.98 47.25-14.9.04.72-.05 1.35-.13 1.75h-.01Zm-96.249.36c5.12 2.61 14.72 8.34 24.32 8.91 1.69.1 4.88.55 6.19 1.07l.24.09c1 .41 1.86.86 2.51 1.22.09.05.19.11.27.15-.14-.39-.3-.74-.47-1.04-1.14-2.06-2.81-2.32-2.81-2.32s-.22-.07-.61-.07h-.03c-.58-.11-1.22-.21-1.92-.3a11.9 11.9 0 0 0-1.69-.12c-8.27.03-20.5-6.32-25.75-8.89l-.26 1.29.01.01Z"/>
  <path fill="#2A6872" d="M111.44 210.03c-2.45-1.01-10.27-3.28-13.05-3.73-13.5-2.18-18.38-6.86-21.64-8.97v-.02c.06-.42.14-.85.21-1.26 3.78 2.18 12.93 7.89 21.44 8.73 0 0 9.66 1.42 13.07 3.29.04.59.03 1.24-.04 1.98l.01-.02Z"/>
  <path fill="#0D5060" d="M61.36 241.17c.01.88.07 1.77.2 2.64-1.33-.48-2.75-1.15-4.18-2.04-.21-.92-.35-1.73-.35-2.32 0-1.09 2.27-7.51 4.9-14.51.94.84 2.62 2.07 5.02 2.83-1.57 3.83-3.51 7.51-5.41 11.18-.41.79-.43 1.56-.19 2.22h.01Z"/>
  <path fill="#FCCE7C" d="M61.36 241.17c.01.88.07 1.77.2 2.64-1.33-.48-2.75-1.15-4.18-2.04-.21-.92-.35-1.73-.35-2.32 0-1.09 2.27-7.51 4.9-14.51.94.84 2.62 2.07 5.02 2.83-1.57 3.83-3.51 7.51-5.41 11.18-.41.79-.43 1.56-.19 2.22h.01Z"/>
  <path fill="#002028" d="M106.64 216.32s1.49-.1 3.66-1.1c1.32-.61 2.2-1.91 2.3-3.38.44-6.9-4.5-7.15-4.5-7.15l-1.45 11.62-.01.01Z"/>
  <path fill="#00181C" d="M145.26 305.35c4.26-.72 8.95-2.03 13.92-4.26 0 0 2.92-4.68.61-10.61-2.3-5.93-1.54-18.96-1.54-18.96s-2.15-21.96.95-25.75c.05-6.86-2.55-17.15-2.55-17.15l2.16-7.31-4.84 7.29s3.92 13.69 2.95 15.95c-.81 1.89-3.55 15.72-2.72 23.37.35 3.17.27 6.38-.35 9.51-.92 4.67-1.82 10.97-.81 14.22 1.02 7.9-7.78 13.7-7.78 13.7Z"/>
  <path fill="#2A6872" d="M105.94 203.13h.76c.69.01 1.25.67 1.24 1.48l-1.68 98.52s-.02.45-.02 1.04c-.72.31-1.11.46-2.35.91.16-11.87.71-89 .79-100.52 0-.8.57-1.44 1.26-1.43Z"/>
  <path fill="#D6711E" d="m150.139 260.45-5.15 5.04 3.51 1.33-9.64 7.6 5.32-6.84-4.16-1.94 10.12-5.19Zm-69.629.33 5.07 5.12-3.53 1.28 9.52 7.75-5.21-6.92 4.19-1.88-10.04-5.35Z"/>
  <path fill="#00181C" d="M196.109 283.33c-.31-1.64-2.19-8.96-2.16-14.13 0-1.22.12-2.33.38-3.21.97-2.91 4.65-5.71 4.28-8.38-.32-2.27-2.41-6.26-5.59-10.35-.7-.9-1.19-1.96-1.45-3.07-.15-.63-.21-1.29-.21-1.94.02-1.31 0-2.84-.06-4.52-.1-2.63-.31-5.64-.66-8.83-1-9.04-3.11-19.57-6.98-27.17-1.82-3.28-10.39-6.54-10.39-6.54s1.22-3.62-1.56-6.06c-.97.29-2.01.58-3.11.87.51 3.34-.28 6.8-1.65 9.97 4.64.75 9.74 1.57 12.74 5.21 3.5 4.24 3.26 10.47 3.57 15.69.2 3.28.56 6.56.92 9.83.41 3.67.59 7.54 1.42 11.14 1.27 5.54 7.18 11.93 4.04 17.71-1.41 2.59-4.16 4.61-6.5 6.27a49 49 0 0 1-1.92 1.27c1.81.03 3.61.05 5.42.07 1.2 0 2.56.93 2.78 2.19.86 4.75 1.21 10.01-1.76 14.11a31.94 31.94 0 0 1-2.41 2.9c-.29.31-.57.63-.86.93.06-.07.04.02 0 .11.1.46.27.9.43 1.34.34.88.76 1.73 1.12 2.6.66 1.57 1.14 3.13.61 4.83-.6 1.88-2.23 3.32-3.67 4.56 5.3-1 10.27-2.59 12.58-5.14.16-3.92-2.22-6.09-2.55-6.66 1.42-1.77 3.58-3.53 3.2-5.56v-.04Z"/>
  <path fill="#BA324E" d="M194.339 265.99c-.26.88-.38 1.98-.38 3.21-1.5.37-3.01.53-4.45.56-.02-.15-.05-.29-.07-.43-.23-1.26-1.58-2.18-2.78-2.19-1.81-.01-3.62-.04-5.42-.07a49 49 0 0 0 1.92-1.27c2.34-1.65 5.09-3.67 6.5-6.27 2.38-4.36-.42-9.08-2.47-13.51 2.27-.66 3.65-1.37 4.4-1.83.26 1.11.75 2.17 1.45 3.07 3.18 4.09 5.27 8.08 5.59 10.35.38 2.67-3.3 5.48-4.28 8.38h-.01Z"/>
  <path fill="#F7AF22" d="m191.31 237.72-6.04 1.4-.57-3.33-.91-5.28.37-.09 6.49-1.53c.35 3.19.56 6.2.66 8.83Z"/>
  <path fill="#D18B0F" d="m191.31 237.72-6.04 1.4-.57-3.33c-.17-1.72-.32-3.44-.5-5.11l-.03-.26 6.49-1.53c.35 3.19.56 6.2.66 8.83h-.01Z"/>
  <path fill="#89132F" d="M194.339 265.99c-.26.88-.38 1.98-.38 3.21-1.5.37-3.01.53-4.45.56-.02-.15-.05-.29-.07-.43-.23-1.26-1.58-2.18-2.78-2.19-1.81-.01-3.62-.04-5.42-.07a49 49 0 0 0 1.92-1.27c2.34-1.65 5.09-3.67 6.5-6.27 2.38-4.36-.42-9.08-2.47-13.51 2.27-.66 3.65-1.37 4.4-1.83.26 1.11.75 2.17 1.45 3.07 3.18 4.09 5.27 8.08 5.59 10.35.38 2.67-3.3 5.48-4.28 8.38h-.01Z"/>
  <path fill="#002028" d="M173.389 194.69c-.01.07-.03.14-.04.19-.01.07-.03.12-.04.17-.02.06-.03.1-.03.12-1.53 1.58-3.69 3.13-6.25 4.62.26-.61.5-1.24.71-1.87.21-.61.38-1.22.53-1.83.14-.6.26-1.19.34-1.79.08-.56.13-1.11.15-1.67.04-.89-.01-1.77-.14-2.65 1.1-.28 2.14-.57 3.11-.87.09.08.17.16.26.24a5.203 5.203 0 0 1 .76.96c.04.08.09.15.13.22v.02c.02.03.04.07.05.1 0 .01.01.03.02.03.03.06.06.13.09.19.11.23.2.46.26.69.03.09.05.18.07.27.02.08.04.16.05.23.04.18.07.37.09.55l.03.32c.04.74-.05 1.36-.13 1.76h-.02Z"/>
  <path fill="#F7AF22" d="m133.95 233.66 9.93.87-5.81 13.68 8.09 1.14-17.06 21.55 8.2-17.69-7.64-.71 4.29-18.84Z"/>
  <path fill="#D6711E" d="m131.75 243.29.46 7.19 5.18-14.77.68 12.5 3.76.53-3.35 6.52 7.68-5.91-17.06 21.55 8.2-17.69-7.64-.71 2.09-9.21Z"/>
  <path fill="#B77500" d="m140.219 247.5 4.53-11.44-.87-1.53-5.81 13.68 1.74.25.41-.96Zm5.941 1.85L129.1 270.9l18.35-20.3-1.29-1.25Z"/>
  <path fill="#F7AF22" d="m96.73 232.76-9.95.72 5.6 13.77-8.11 1.02L101 270.08l-7.93-17.82 7.65-.59-3.99-18.91Z"/>
  <path fill="#D6711E" d="m98.77 242.43-.57 7.18-4.94-14.85-.88 12.49-3.77.47 3.25 6.57-7.59-6.02L101 270.08l-7.93-17.82 7.65-.59-1.95-9.24Z"/>
  <path fill="#B77500" d="M90.24 246.51 85.9 235l.88-1.52 5.6 13.77-1.75.22-.39-.96Zm-5.97 1.76L101 270.08l-18.04-20.59 1.31-1.22Z"/>
  <path fill="#002028" d="M159.17 301.1c-.72.32-1.44.63-2.14.91-.18.07-.37.15-.56.22-.2.08-.41.16-.61.23-.24.09-.47.18-.71.26-.51.18-1.01.36-1.51.53-.27.09-.54.17-.82.26-.32.11-.65.2-.97.3-.5.15-.99.29-1.48.42-.28.08-.56.15-.84.22-.25.06-.51.13-.76.19-.21.05-.42.1-.62.14-.99.23-1.96.42-2.9.58 0 0 8.48-5.59 7.82-13.28 4.07-.86 6.71-1.59 6.71-1.59 2.31 5.93-.61 10.61-.61 10.61Z"/>
  <path fill="#D6711E" d="m144.39 245.48 3.63-6.6 3.13.43-6.76 6.17Zm-58.76-.93-3.32-6.24-2.94.35 6.26 5.89Z"/>
  <path fill="#2A6872" d="M173.289 191.56c-1.35.76-2.91 1.51-4.63 2.25.04-.4.07-.79.09-1.18v-.34c1.94-.84 3.24-1.53 3.96-2.01 0 0 .01.02.02.03.04.08.09.15.13.22v.02c.02.03.04.07.05.1 0 .01.01.03.02.03.03.06.06.13.09.19.11.23.2.46.26.69h.01Zm.101 3.13a89.66 89.66 0 0 1-5.34 2.18c.07-.26.14-.51.2-.77.06-.27.12-.53.17-.79 2.67-1.04 4.34-1.83 5.09-2.37.04.72-.05 1.35-.13 1.75h.01Z"/>
  <path fill="#00323D" d="M173.289 191.56c-1.35.76-2.91 1.51-4.63 2.25.04-.4.07-.79.09-1.18v-.34c1.94-.84 3.24-1.53 3.96-2.01 0 0 .01.02.02.03.04.08.09.15.13.22v.02c.02.03.04.07.05.1 0 .01.01.03.02.03.03.06.06.13.09.19.11.23.2.46.26.69h.01Zm.101 3.13a89.66 89.66 0 0 1-5.34 2.18c.07-.26.14-.51.2-.77.06-.27.12-.53.17-.79 2.67-1.04 4.34-1.83 5.09-2.37.04.72-.05 1.35-.13 1.75h.01Z"/>
</svg>
