<svg xmlns="http://www.w3.org/2000/svg" width="250" height="414" fill="none" viewBox="0 0 250 414">
  <path fill="#F9F9F9" d="M112.08 307.11c-6.38.69-11.97.81-16.75.61-.88-.04-1.72-.09-2.54-.15l-.88-.06c-.69-.06-1.36-.12-2.01-.18-6.92-.73-11.58-2.12-13.88-3.1a3.03 3.03 0 0 1-1.81-3.18c.32-2.51.9-7.32 1.67-14.98.06-.56.11-1.13.17-1.71.05-.48.09-.98.14-1.48.11-1.07.21-2.18.32-3.35.04-.45.09-.91.13-1.38.14-1.56.29-3.21.45-4.93.19-2.13.39-4.4.6-6.79-8.08-1.72-13.55-5.63-17.08-9.31-.64-.66-1.22-1.32-1.73-1.95-.28-.34-.52-.65-.75-.96v-.02c-.88-1.16-1.54-2.2-2.02-3.05a4.615 4.615 0 0 1-.23-4.08c.74-1.74 1.92-4.53 3.32-7.82 1.02-2.4 2.17-5.07 3.35-7.8.18-.41.36-.83.54-1.24l.51-1.17c.68-1.58 1.37-3.15 2.05-4.69.21-.48.43-.96.63-1.44.14-.3.27-.6.4-.9.26-.59.51-1.16.77-1.72.41-.92.81-1.8 1.19-2.65 1.58-3.49 2.91-6.3 3.7-7.71 1.56-2.79 3.38-5.41 4.93-7.45 1.9-2.51 3.36-4.14 3.36-4.14l1.84.76 1.66.69 7.33 3.03 5.84 2.4 14.31 20.76.04 7.06.08 13.45.1 17.05.07 11.6.19 32.05-.01-.07Z"/>
  <path fill="#D6D4D4" d="m112.08 307.11-.19-32.05-.07-11.6-.1-17.05-.08-13.45-.05-8.22-3.46-1.22-15.36-8.59-.57 1.09c-.43.82-.15 1.84.64 2.33l14.96 7.94c1.07.61 1.72 1.76 1.7 3l-1.15 78.17 3.73-.36v.01Z"/>
  <path fill="#BA324E" d="M105.97 235.47c-.83-.87-5.39-6.14-8.48.45-2.04 6.44 7.34 12.68 8.99 13.7l-3.89-6.64 4.45-3.64-1.07-3.87Z"/>
  <path fill="#BA324E" d="M111.73 246.41c-.89.75-1.76 1.39-2.5 1.9a30.81 30.81 0 0 1-1.99 1.29l-2.7-6.33 4.45-3.64-1.32-4.5s.71-.7 1.76-1.32c.63-.37 1.39-.71 2.21-.85l.08 13.45h.01Z"/>
  <path fill="#84142F" d="M111.73 246.41c-.89.75-1.76 1.39-2.5 1.9l.21-14.5c.63-.37 1.39-.71 2.21-.85l.08 13.45Z"/>
  <path fill="#BA324E" d="m81.13 259.23 4.26 6.45c-.94-.51-4.31-2.46-6.87-5.2-.31-.33-.61-.68-.9-1.04-1.61-2.04-2.63-4.42-1.99-6.92 1.08-2.7 2.64-3.53 4.17-3.51h.03l.27.02c2.21.19 3.46 2.03 3.96 2.5l1.29 3.81-4.23 3.89h.01Z"/>
  <path fill="#BA324E" d="M86.15 265.62s11.91-7.84 8.53-13.91c-3.55-6.56-8.91-.56-8.91-.56l1.57 4.42-4.23 3.89 3.05 6.16h-.01Zm2.35 37.03 3.41 4.85c-.69-.06-1.36-.12-2.01-.18-3.37-2.36-8.11-6.64-6.9-11.37 2.72-6.76 7.56-1.81 8.44-.99l1.29 3.81-4.23 3.89v-.01Z"/>
  <path fill="#BA324E" d="M95.33 307.71c-.88-.04-1.72-.09-2.54-.15l-2.32-4.69 4.23-3.89-1.57-4.42s5.36-6 8.91.56c2.53 4.55-3.52 10.09-6.72 12.58l.01.01Zm8.58-37.36c-.88-.82-5.72-5.77-8.44.99-1.68 6.55 8.05 12.24 9.76 13.16l-4.26-6.45 4.23-3.89-1.29-3.81Z"/>
  <path fill="#BA324E" d="M111.89 279.35c-1.03 1.15-2.17 2.19-3.17 3.02-1.53 1.27-2.74 2.07-2.74 2.07l-3.04-6.16 4.23-3.89-1.57-4.42s1.45-1.62 3.34-2.25c.9-.3 1.89-.38 2.88.04l.07 11.6v-.01Zm-35.84 4.99 1.39 2.64c-.3-.16-.86-.48-1.57-.93.06-.56.11-1.13.17-1.71h.01Zm1.8-7.7-1.19 1.49c.14-1.56.23-2.47.38-4.2l.81 2.71Z"/>
  <path fill="#BA324E" d="m78.2 286.92-2.01-4.06c.11-1.07.21-2.18.32-3.35l2.87-2.64-1.57-4.42s5.36-6 8.91.56c3.38 6.07-8.53 13.91-8.53 13.91h.01Zm-14.68-42.57-.65 3.96-5.56 1.4.83 4.45c-.88-1.16-1.54-2.2-2.02-3.05a4.615 4.615 0 0 1-.23-4.08c.74-1.74 1.92-4.53 3.32-7.82 3.25-.08 4.03 4.28 4.32 5.15l-.01-.01Z"/>
  <path fill="#BA324E" d="M72.87 249.17c.09 5.4-8.44 7.33-12.26 7.92-.64-.66-1.22-1.32-1.73-1.95l.15-4.69 5.56-1.4.7-4.64s7.55-2.71 7.58 4.76Z"/>
  <path fill="#D6D4D4" d="m95.71 212.26 1.98-3.33-18.41-9.13-2.02 2.62s7.26 6.57 18.45 9.84Z"/>
  <path fill="#84142F" d="M111.89 279.35c-1.03 1.15-2.17 2.19-3.17 3.02l.22-14.66c.9-.3 1.89-.38 2.88.04l.07 11.6Z"/>
  <path fill="#BA324E" d="m63.08 230.16.65 2.35c-.24-.21-.67-.59-1.19-1.11.18-.41.36-.83.54-1.24Zm3.24-7.58-.05.27c.14-.3.27-.6.4-.9l-.35.63Zm-1.83 10.03-.9-3.62c.68-1.58 1.37-3.15 2.05-4.69l2.16-1.25-.36-2.81c.41-.92.81-1.8 1.19-2.65 2.04-.93 5.7-1.77 7.15 3.28 2.01 6.66-11.29 11.74-11.29 11.74Zm25.85-14.74c-.88-.82-5.72-5.77-8.44.99-1.68 6.55 8.05 12.24 9.76 13.16l-4.26-6.45 4.23-3.89-1.29-3.81Z"/>
  <path fill="#BA324E" d="M101.06 222.72c-1.9 4.79-8.65 9.23-8.65 9.23l-3.05-6.16 4.23-3.89-1.57-4.42s.02-.03.07-.07c.22-.24 1.03-1.05 2.12-1.66 1.88-1.07 4.62-1.59 6.72 2.29.32.58.51 1.18.57 1.78.11.96-.08 1.94-.45 2.9h.01Zm-18.17-14.74c-.8-.6-3.52-2.74-5.62-5.55l-.01-.01.69-.9.03-.03c.5-.64.95-1.2 1.34-1.67l1.15.57-.86.59 2.29 4.87 1 2.13h-.01Zm6.26-3.28a34.322 34.322 0 0 1-4.51 2.83c-.62.33-.99.5-.99.5l-.44-1.34-1.69-5.2.49-.33 7.15 3.54h-.01Z"/>
  <path fill="#F9F9F9" d="M195.42 245.64a71.049 71.049 0 0 1-3.09 2.83c-.2.18-.41.36-.64.55-5.64 4.78-10.91 7.78-15.41 9.66-1.62.68-3.14 1.21-4.54 1.62-.26.08-.53.15-.78.23-.64.18-1.25.33-1.84.46-4.55 1.03-7.31.77-7.31.77s.05 2.21.11 5.67c.06 2.75.13 6.3.2 10.15.06 3.08.11 6.36.15 9.58.04 2.71.08 5.39.1 7.88 0 .43 0 .84.01 1.25v.49c0 .65 0 1.28.01 1.9 0 .96 0 1.86.01 2.71v1.17c0 1.32-.83 2.5-2.07 2.94-4.09 1.41-10.77 2.19-17.9 2.58a180.202 180.202 0 0 1-4.15.18c-.29 0-.58.02-.87.03-.3 0-.61.02-.91.03-10.29.3-20.35 0-24.1-.15a2.291 2.291 0 0 1-2.03-1.46l.02-1.84v-1.23l.03-1.68.04-4.08.02-1.27.06-5.64.11-10.36.15-13.14.23-20.51.16-13.9.08-6.78v-.18l.28-.27.05-.05 2.01-1.95 17.86-17.31 7.08-2.6 24.36-8.94 8.45-3.1s.36.3 1 .93a43.986 43.986 0 0 1 1.61 1.69l.04.04c.98 1.09 2.2 2.54 3.57 4.38 3.85 5.14 8.88 13.31 13.38 25.18.76 2 1.5 4.11 2.22 6.32 1.16 3.58 2.26 7.44 3.26 11.6.31 1.3-.07 2.68-1.03 3.61l.01.01Z"/>
  <path fill="#BA324E" d="M137.46 250.73c-.88-.82-5.72-5.35-8.44 1.42-1.68 6.55 8.05 12.24 9.76 13.16l-4.26-6.88 4.23-3.89-1.29-3.81Z"/>
  <path fill="#BA324E" d="M139.53 265.24s11.91-7.84 8.53-13.91c-3.55-6.56-8.91-.56-8.91-.56l1.57 4.42-4.23 3.89 3.05 6.16h-.01Zm-18.22-33.74c-.88-.82-5.72-5.77-8.44.99-1.68 6.55 8.05 12.24 9.76 13.16l-4.26-6.45 4.23-3.89-1.29-3.81Z"/>
  <path fill="#BA324E" d="M123.38 245.58s11.91-7.84 8.53-13.91c-3.55-6.56-8.91-.56-8.91-.56l1.57 4.42-4.23 3.89 3.05 6.16h-.01Zm13.21 62.69-3.34-4.72 4.23-3.89-1.29-3.81c-.88-.82-5.73-5.77-8.44.99-1.23 4.81 3.69 9.16 7.06 11.49l1.78-.06Z"/>
  <path fill="#BA324E" d="M140.74 308.08c-1.08.06-2.17.11-3.26.15h-.05l-2.21-4.46 4.23-3.89-1.57-4.42s4.52-5.07 8.01-.81c.31.38.61.83.9 1.36 2.37 4.25-2.76 9.37-6.05 12.06v.01Zm-18.58-36.56c-.88-.82-5.72-5.77-8.44.99-1.68 6.55 8.05 12.24 9.76 13.16l-4.26-6.45 4.23-3.89-1.29-3.81Z"/>
  <path fill="#BA324E" d="M124.23 285.6s11.91-7.84 8.53-13.91c-3.55-6.56-8.91-.56-8.91-.56l1.57 4.42-4.23 3.89 3.05 6.16h-.01Zm38.18 15.79c-3.35-2.21-8.97-6.78-7.66-11.89 1.91-4.77 5.31-3.72 7.45-2.39.03.02.05.03.08.05.04 2.71.08 5.39.1 7.88l-.06.06-1.22 1.12 1.28 2.41.03.06c0 .96 0 1.86.01 2.71l-.01-.01Z"/>
  <path fill="#BA324E" d="m162.39 296.78-.17-.34.17-.15v.49Zm-7.81-13.02c-.38-.21-1.15-.64-2.1-1.28-.43-.28-.89-.6-1.38-.96-3.29-2.43-7.41-6.48-6.27-10.92 2.72-6.76 7.56-1.8 8.44-.99l.57 1.67.37 1.11.35 1.02-.98.9-.4.36-2.86 2.63 1.36 2.57.34.65 2.56 3.23v.01Z"/>
  <path fill="#BA324E" d="M162.12 277.57s-.05.06-.07.09c-2.71 3.39-6.71 6.03-6.71 6.03l-2.21-4.46-.73-1.47-.11-.23.28-.26 1.16-1.06 2.79-2.57-1.43-4.04-.06-.18-.07-.21.14-.14c.06-.06.14-.14.23-.22 1-.96 3.91-3.3 6.57-1.46 0 0 .02.01.03.02.06 2.75.13 6.3.2 10.15l-.01.01Zm-11.11-46.88c-.88-.82-5.72-5.77-8.44.99-1.68 6.55 8.05 12.24 9.76 13.16l-4.26-6.45 4.23-3.89-1.29-3.81Z"/>
  <path fill="#BA324E" d="M153.08 244.77s11.91-7.84 8.53-13.91c-3.55-6.56-8.91-.56-8.91-.56l1.57 4.42-4.23 3.89 3.05 6.16h-.01Z"/>
  <path fill="#84142F" d="m101.06 222.72-8.22-4.36c-.36-.22-.62-.57-.74-.95.22-.24 1.03-1.05 2.12-1.66l7.3 4.08c.11.96-.08 1.94-.45 2.9l-.01-.01ZM79.6 200.98l2.29 4.87c-2.78-1.8-4.41-3.24-4.61-3.42l-.01-.01.69-.9.03-.03 1.3-1.69.04.02 1.15.57-.86.59h-.02Zm9.55 3.72a34.322 34.322 0 0 1-4.51 2.83c-.5-.28-.98-.57-1.43-.84l-1.69-5.2.49-.33 7.15 3.54h-.01Z"/>
  <path fill="#D6D4D4" d="M195.421 245.64c-.95.85-1.7 1.62-3.09 2.83-.2.18-.41.36-.64.55-.63-3.36-1.42-7.39-2.42-11.68-.27-1.17-.56-2.35-.87-3.55-.11-.43-.22-.86-.34-1.29-.04-.16-.09-.32-.13-.48-.1-.4-.21-.79-.32-1.19l-.42-1.49a.865.865 0 0 1-.06-.23c-.14-.5-.29-.99-.44-1.49-.19-.62-.38-1.24-.58-1.86-.16-.5-.32-1-.49-1.5v-.03c-3.39-10.11-8.21-19.45-15.16-23.08-5.9 4.17-14.95 10.71-15.72 11.06-.5.23-3.46.34-6.94.39h-.71c-.37 0-.74 0-1.11.01h-1.06c-2.04.01-4.07 0-5.76 0h-1.87c-1.32 0-2.16-.02-2.16-.02l.06.06.05.05.11.12c.06.06.13.13.2.22.06.06.11.12.18.18.09.09.18.19.28.3.07.08.15.16.23.24l.07.07c.06.06.13.13.19.2.21.21.43.45.65.69.06.06.11.12.17.18.34.36.69.74 1.02 1.1.06.07.13.14.19.21l.36.39c.06.06.11.12.17.18.5.56.29 1.45-.42 1.71-.67.25-1.55.55-2.58.9l-1.38.45c-.79.25-1.63.51-2.53.79-5.76 1.76-13.42 3.86-18.63 4.89h-.01c-.51.1-.99.19-1.45.27l1.79-1.53.23-.2 13.97-11.98 3.89-3.34 1.3-.44 14.23-4.82 17.51-5.94 3.8-1.29 2.77-.94 2.41-.82.04.04c.24.25 1.55 1.64 3.46 4.2 4.74 6.33 13.21 19.84 18.45 40.99 1.49 3.88 0 5.44-.51 5.91l.02.01Z"/>
  <path fill="#BA324E" d="m110.4 303.65.94 1.77c-.21-.11-.54-.3-.95-.54v-1.23h.01Zm1.339-8.58-1.26 1.55.06-5.64c.14.12.04.22.12.29l1.07 3.81.01-.01Z"/>
  <path fill="#BA324E" d="m112.1 305.35-1.67-3.39.04-4.08 2.82-2.59-1.57-4.42s5.36-6 8.91.56c3.38 6.07-8.53 13.91-8.53 13.91v.01Zm25.83-80.6c-.81-.44-3.41-1.94-5.75-4.1-2.48-2.28-4.66-5.3-4.11-8.56.02-.17.06-.34.1-.51 1.41-3.51 3.39-3.86 5.09-3.28 1.58.54 2.92 1.9 3.35 2.29l.68 2.02.6 1.79-.56.52-3.67 3.37 1.03 1.56 3.22 4.89.02.01Z"/>
  <path fill="#BA324E" d="m138.691 224.68-2.61-5.27-.44-.9 2.72-2.5 1.51-1.39-.71-2-.86-2.42s5.36-6 8.91.56c.33.6.51 1.21.58 1.83.59 5.7-9.11 12.09-9.11 12.09h.01Zm28.589-15.05c-.99-.67-6.55-4.65-8.17 2.46-.62 6.74 9.88 10.79 11.71 11.43l-5.23-5.82 3.57-4.52-1.87-3.55h-.01Z"/>
  <path fill="#BA324E" d="M171.561 223.34s10.52-9.65 6.23-15.1c-4.54-5.91-8.88.87-8.88.87l2.25 4.11-3.57 4.52 3.98 5.59-.01.01Zm10.329 3.63c-.99-.67-6.55-4.65-8.17 2.46-.62 6.74 9.88 10.79 11.71 11.43l-5.23-5.82 3.57-4.52-1.87-3.55h-.01Z"/>
  <path fill="#BA324E" d="M193.189 230.43c-.62 2.45-2.33 4.98-3.92 6.91-1.62 1.98-3.1 3.34-3.1 3.34l-3.98-5.6 3.57-4.52-2.24-4.11s.81-1.27 2.1-2.23c1.37-1.03 3.29-1.71 5.35-.12.76 2 1.5 4.11 2.22 6.32v.01Zm-26.089 26.1 3.86 4.01c-.64.18-1.25.33-1.84.46-.62-.3-1.46-.64-2.36-1.02-1.8-.75-3.88-1.67-5.02-2.79l-.14-9.55c.47-.37 1.01-.59 1.59-.7 2.56-.51 4.99 1.11 5.61 1.53l1.87 3.55-3.57 4.52v-.01Z"/>
  <path fill="#BA324E" d="M176.28 258.68c-1.62.68-3.14 1.21-4.54 1.62l-2.66-3.74 3.57-4.52-2.24-4.11s4.35-6.78 8.88-.87c2.65 3.36-.33 8.31-3.01 11.62Z"/>
  <path fill="#fff" d="M114.13 224.08c-1.44 1.04-2.55 1.86-2.94 2.14l-.15.12-17.77-9.24a1.464 1.464 0 0 1-.49-2.17l3.8-5.08-17.05-8.58c-1.3-.77-2.14-1.45-1.7-2.62.64-1.69 2.18-3.51 3.17-4.62.33.08.65.15.98.23.15.03.32.07.49.11.35.08.71.16 1.07.23.16.04.32.07.48.1.17.04.34.07.51.11h.03c3.46.74 8.66 1.74 11.85 1.9 0 0 .68 1.48 1.79 3.75 3.29 6.72 10.42 20.38 15.19 23.24.26.16.52.28.77.37l-.03.01Z"/>
  <path fill="#590418" d="M116.3 233.42a2.6 2.6 0 0 0 2.59-2.61 2.6 2.6 0 0 0-2.59-2.61 2.6 2.6 0 0 0-2.59 2.61 2.6 2.6 0 0 0 2.59 2.61Zm.42 22.3a2.6 2.6 0 0 0 2.59-2.61 2.6 2.6 0 0 0-2.59-2.61 2.6 2.6 0 0 0-2.59 2.61 2.6 2.6 0 0 0 2.59 2.61Zm0 22.72a2.6 2.6 0 0 0 2.59-2.61 2.6 2.6 0 0 0-2.59-2.61 2.6 2.6 0 0 0-2.59 2.61 2.6 2.6 0 0 0 2.59 2.61Z"/>
  <path fill="#84142F" d="m133.67 218.3 1.03 1.56c-.79.25-1.63.51-2.53.79-2.48-2.28-4.66-5.3-4.11-8.56l3.89-3.34 1.3-.44c1.58.54 2.92 1.9 3.35 2.29l.68 2.02c-1.32 0-2.16-.02-2.16-.02s1.06 1.11 2.2 2.32l-3.67 3.37.02.01Z"/>
  <path fill="#590418" d="M116.72 303.02a2.6 2.6 0 0 0 2.59-2.61 2.6 2.6 0 0 0-2.59-2.61 2.6 2.6 0 0 0-2.59 2.61 2.6 2.6 0 0 0 2.59 2.61Z"/>
  <path fill="#84142F" d="M147.79 212.6c-2.89.04-6.15.04-8.63.03l-.86-2.42s5.36-6 8.91.56c.33.6.51 1.21.58 1.83Z"/>
  <path fill="#D6D4D4" d="m80.72 244.64-3.02 21.77-1.46-.34 4.48-21.43Z"/>
  <path fill="#84142F" d="M173.7 202.51c-1.44-.5-8.27-3.12-10.79-7.52l8.46-3.11s-.49.3.15.93l-3.06 3.87 5.23 5.82.01.01Z"/>
  <path fill="#84142F" d="M177.59 198.92c-1.65 2.02-3.15 3.4-3.15 3.4l-1.62-2.27-2.25-3.16-.11-.16 1.11-1.41 1.45-1.85c.29.3.61.64.96 1.03l.04.04c.98 1.09 2.2 2.54 3.57 4.38Zm-97.48 50.11-1.59 11.45c-.31-.33-.61-.68-.9-1.04l2.18-10.43h.03l.27.02h.01Z"/>
  <path fill="#F9F9F9" d="M173.981 194.5c-.15.22-.35.41-.58.56l-2.83 1.83-1.22.78-2.31 1.49-4.09 2.64-11.15 7.2c-.47.3-1.01.48-1.57.51l-3.66.22-8.26.49-1.97.12-3.22.19 2.02 2.07.06.06.05.05.11.12 1.63 1.66c.07.07.13.15.17.24a1.026 1.026 0 0 1-.52 1.41l-1.15.47-5.16 2.1-16.79 6.82h-.01l-1.9.78h-.02c-.11.04-.23.02-.32-.03a.236.236 0 0 1-.09-.06c-.17-.14-.23-.39-.04-.55l.18-.15c.09-.07.17-.15.26-.22.6-.51 1.18-1.04 1.76-1.59 6.3-5.9 11.84-13.66 15.49-19.7 1.99-3.29 3.42-6.07 4.1-7.77 1.73 0 5.87-.54 10.85-1.33h.04c6.3-1 13.94-2.4 19.69-3.59 4.6-.95 7.99-1.77 8.56-2.15 1.01 1.03 1.5 2.04 2.05 3.1.38.74.29 1.6-.17 2.24l.01-.01Z"/>
  <path fill="#D6D4D4" d="M161.33 239.68c-.87 15.04-6.85 32.64-12.01 46.77-2.5 6.85-5.62 13.25-9.89 19.17-.65.9-1.33 1.79-2.01 2.68.29 0 .58-.02.87-.03l.83-.03c1.11-.04 2.22-.09 3.32-.15 7.14-.4 13.81-1.17 17.9-2.58a3.1 3.1 0 0 0 2.07-2.94v-1.17c0-.85 0-1.76-.01-2.71 0-.62 0-1.25-.01-1.9v-.49c0-.41 0-.82-.01-1.25-.02-2.49-.06-5.17-.1-7.88-.05-3.22-.1-6.5-.15-9.57-.07-3.86-.14-7.4-.2-10.15-.07-3.46-.11-5.67-.11-5.67l-.48-22.08-.01-.02Z"/>
  <path fill="#84142F" d="M162.41 301.39c-3.35-2.21-8.97-6.78-7.66-11.89 1.91-4.77 5.31-3.72 7.45-2.39l.12 7.98.02 1.24v.36l.03 1.94.04 2.77v-.01Zm-21.67 6.69c-1.08.06-2.17.11-3.26.15.66-.87 1.32-1.73 1.96-2.61 2.52-3.49 4.64-7.14 6.46-10.96.31.38.61.83.9 1.36 2.37 4.25-2.76 9.37-6.05 12.06h-.01Zm13.82-34.66-.98.9c.21-.63.42-1.28.63-1.92l.35 1.02Zm-2.54 7.11 2.56 3.23c-.38-.21-1.15-.64-2.1-1.28-.43-.28-.89-.6-1.38-.96.19-.54.39-1.09.58-1.65l.34.65v.01Z"/>
  <path fill="#84142F" d="M162.12 277.57s-.05.06-.07.09c-2.71 3.39-6.71 6.03-6.71 6.03l-2.21-4.46-.73-1.47c.06-.16.11-.33.17-.49l1.16-1.06 2.79-2.57-1.43-4.04c.08-.25.15-.5.23-.75 1-.96 3.91-3.3 6.57-1.46 0 0 .02.01.03.02.06 2.75.13 6.3.2 10.15v.01Zm31.07-47.14c-.62 2.45-2.33 4.98-3.92 6.91-.99-4.25-2.19-8.75-3.66-13.12 1.37-1.03 3.29-1.71 5.35-.12.76 2 1.5 4.11 2.22 6.32l.01.01Z"/>
  <path fill="#BA324E" d="M138.66 218.52c-.67.25-1.55.55-2.58.9l-.44-.9 2.72-2.5c.25.28.5.54.72.78.5.56.29 1.45-.42 1.71v.01Z"/>
  <path fill="#D6D4D4" d="M96.38 196.72s.68 1.48 1.79 3.75c-5.96-1.45-11.46-3.39-16.22-5.94 0-.04-.97-.46-.97-.5.33.08.65.15.98.23.51.12 1.04.24 1.56.34.16.04.32.07.48.1.17.04.34.07.51.11h.03c3.46.74 8.66 1.74 11.85 1.9l-.01.01Zm77.6-2.22c-.15.22-.35.41-.58.56l-2.83 1.83-1.22.78-2.31 1.49-4.09 2.64c-4.76.7-9.99 1.28-15.46 1.68-2.92.21-5.91.36-8.94.45-3.2.1-6.44.12-9.69.07 1.99-3.29 3.42-6.07 4.1-7.77 1.73 0 5.87-.54 10.85-1.33h.04c6.97-.98 13.63-2.21 19.69-3.59 3.01-.69 5.88-1.41 8.56-2.15 1.01 1.03 1.5 2.04 2.05 3.1.38.74.29 1.6-.17 2.24Z"/>
</svg>
