<svg xmlns="http://www.w3.org/2000/svg" width="250" height="414" fill="none" viewBox="0 0 250 414">
  <path fill="#A680B3" d="M68.51 204.88s-9.12 18.52-8.67 32.04c-1.06 10.15-2.54 17.14-5.08 19.46-2.54 2.33-11.88 12.28-5.41 23.38-.9 2.33-1.44 4.33-1.76 5.9-.46 2.25.45 4.55 2.31 5.89 4.97 3.58 15.69 9.86 24.7 5.41 7.22-51.14 8.12-90.74 8.12-90.74l-14.21-1.35v.01Z"/>
  <path fill="#8C5DA5" d="M68.51 204.88s-.44.89-1.12 2.42c.15.25.24.55.25.91.05 2.62.83 4.53 2.18 6.71 1.3 2.1 2.4 4.05 2.85 6.51.48 2.61.48 5.27.85 7.88l.24 1.64c.78 2.72 1.76 5.43 2.07 8.24.65 5.79-1.63 11.22-3.39 16.6-.89 2.72-1.67 5.51-1.73 8.39-.06 3.13.54 6.23.07 9.35-.37 2.46-1.35 5.04-3.29 6.68-.68.57-1.43 1-2.23 1.37 1.86.52 4.2.36 5.73.27.96-.06 1.9.89 1.85 1.85-.15 3-.92 6.14-3.84 7.56-2.64 1.28-6.08.87-8.85.35-3.27-.61-6.51-2.25-9.33-3.96-1.05-.64-2.16-1.35-3.2-2.16-.01.06-.03.12-.04.18-.31 1.53 0 3.08.83 4.34.04-.48.08-.95.06-1.43-.02-.57.48-.99 1.02-1.02.56-.03 1 .49 1.02 1.02.04 1.1-.18 2.18-.21 3.27.43.3.9.62 1.4.95v-2.26c0-.57.47-.99 1.02-1.02.55-.02 1.02.49 1.02 1.02v3.52c.55.32 1.13.64 1.72.95 0-.88.02-1.77.02-2.65 0-1.31 2.04-1.31 2.04 0 0 1.21-.02 2.43-.02 3.64.66.3 1.33.58 2.02.84v-3.38c0-1.31 2.04-1.31 2.04 0v4.07c.73.22 1.48.4 2.23.56 0-1.36-.02-2.72-.02-4.07 0-1.31 2.03-1.31 2.04 0 0 1.46.01 2.92.02 4.39.8.08 1.6.12 2.4.1v-5.04c0-1.31 2.04-1.31 2.04 0v4.87c1.47-.22 2.94-.65 4.35-1.36 7.22-51.14 8.12-90.74 8.12-90.74l-14.21-1.35-.02-.01Z"/>
  <path fill="#C39CD3" d="M57.01 281.31c-2.29-1.47-4.57-3.07-6.09-5.27-2.05-2.96-1.52-6.34.57-9.12 2.28-3.04 6-6.28 9.85-3.91 2.2 1.35 4.59 3.5 7.16 4.23-3.95-2.76-7.06-6.27-7.39-11.62-.06-.96.69-1.63 1.49-1.96 2.32-.95 2.29-4.93 2.31-6.95.02-2.92-.37-5.81-.52-8.73-.46-8.96 2.99-17.3 6.06-25.52.11-.29.26-.53.44-.72.13-2.21.5-4.38.96-6.54l-3.34-.32s-9.12 18.52-8.67 32.04c-1.06 10.15-2.54 17.14-5.08 19.46-2.54 2.33-11.88 12.28-5.41 23.38-.9 2.33-1.44 4.33-1.76 5.9-.27 1.33-.06 2.68.54 3.84-.34-1.89-.06-3.88 1.02-5.5s2.7-2.46 4.6-2.65c.94-.09 2.16.07 3.25-.05l.01.01Z"/>
  <path fill="#F7AF22" d="M178.069 209.51c-20.92 10.8-23.76 39.01-22.44 56.05 5.06 19.55 4.38 34.59 2.15 37.33.51 1.42.63 3.02.65 4.71.02 1.59-.95 3.03-2.44 3.59-39 14.59-71.27.96-80.25-3.57a4.236 4.236 0 0 1-2.32-4.06c.32-4.78 1.09-15.21 2.41-25.82-7.85-5.7 3.44-29.8 2.9-34.68 1.21-15.28-7-35.19-7-35.19l35.16 7.11 71.19-5.48-.01.01Z"/>
  <path fill="#EF9D0A" d="M123.73 213.33c1.42-1.02 2.91-1.96 4.45-2.79 0 0 42.55-8.88 44.94 2.11 5.02 23-18.81 35.87-17.5 52.91 5.06 19.55 4.38 34.59 2.15 37.33.51 1.42.63 3.02.65 4.7.02 1.59-.95 3.03-2.44 3.59-4.01 1.5-7.95 2.7-11.8 3.64a28.1 28.1 0 0 0 4.16-3.1c3.16-2.86 5.49-6.65 6.28-10.86.46-2.42.47-4.83-.03-7.25-.54-2.65-1.99-4.69-3.11-7.09-1.58-3.4-.2-7.2-.77-10.8-.68-4.25-3.05-7.84-4.47-11.83-1.6-4.51-.22-9 .12-13.63.28-3.79.27-7.64-.21-11.42-.41-3.21.02-6.46 1.36-9.4 2.01-4.43 7.87-10.31 6.62-12.8-2.38-4.75-15.5-1.07-20.62.83-5.12 1.9-24.07 5.73-24.93 3.29-.86-2.44 15.15-7.45 15.15-7.45v.02Z"/>
  <path fill="#FFC050" d="M84.68 278.52c-3.47.61-4.99-.79-6.61-3.42-2.45-3.97-.52-6.2-.59-10.6-.08-4.75-.85-10.21 1.63-14.54 1.89-3.31 3.58-4.81 7.22-6.07-1.44-1.03-2.85-2.1-4.09-3.36-2.14-2.18-1.29-4.85-2.07-7.78-1.86-6.99-3.5-14.41-3.11-21.68.02-.46.17-.84.4-1.13 0-.58.01-1.18.05-1.79l-5.79-.27s8.21 19.91 7 35.19c.54 4.88-10.75 28.98-2.9 34.68-1.32 10.61-2.1 21.03-2.41 25.82-.11 1.7.8 3.29 2.32 4.06 1.99 1 5.13 2.46 9.23 3.95-.62-1.12-1.2-2.28-1.71-3.48-3.2-7.54-4.52-10.46-4.55-18.58 0-.57-.27-4.61-.27-5.65 0-2.43.78-3.39 2.38-3.76 1.23-.28 2.66-.76 3.87-1.58v-.01Z"/>
  <path fill="#A680B3" d="M152.79 229.36s10.45-29.96 31.48-11.35c7.72 8.93 4.54 30.71 4.99 32.07.45 1.36 5.75 10.44 5.75 13.31 0 2.87-.3 6.51-2.72 8.77 1.98 1.36 2.45 5.68 1.98 7.61 1.17 1.89 3.03 8.86 1.88 10.01-1.88 1.9-17.51 8.35-30.42 6.64a3.4 3.4 0 0 1-2.78-2.28c-1.14-3.38-.43-6.19-.43-6.19s-5.57-4.78-5.09-10.36c.48-5.59-5.62-18.61-4.37-25.89 1.25-7.28-1.35-17.77-.28-22.34h.01Z"/>
  <path fill="#8C5DA5" d="M187.9 286.24c.45-.29 1.15-.11 1.39.37.94 1.81 2.22 3.42 3.17 5.23.44-.19.85-.38 1.22-.56-1.3-1.74-2.54-3.61-2.77-5.8-.06-.57.52-1 1.02-1.02.59-.03.96.49 1.02 1.02v.09c.01.06.02.12.04.18a4.93 4.93 0 0 0 .24.82c.03.08.06.15.09.23 0 .01 0 .02.01.03.25.57.55 1.11.88 1.64.39.63.82 1.23 1.26 1.83.29-.19.52-.36.67-.51 1.14-1.15-.71-8.12-1.88-10.01.47-1.92 0-6.24-1.98-7.61 2.42-2.27 2.72-5.9 2.72-8.77 0-2.87-5.29-11.95-5.75-13.31-.45-1.36 2.72-23.15-4.99-32.07-1.7-1.5-12.41-8.26-17.54-5.31 5.56.89 13.43 4.77 15.61 7.19 4.34 4.82 4.36 10.08 3.56 16.11-.8 6.04-1.32 12.97-5.73 17.3 1.67-.39 3.32-.94 4.85-1.43.65-.2 1.42.14 1.75.71 2.54 4.47 6.59 10.05 5.35 15.49-.87 3.79-3.84 6.16-6.69 8.55 1.26-.16 2.45-.6 3.29-1.45.77-.79 2.37-.48 2.59.68.57 2.98 1.7 5.11-.89 7.5-2.49 2.29-5.72 3.76-8.89 4.83-3.71 1.25-7.39 1.73-11.27 1.15-2.18-.32-4.32-.89-6.51-1.19-.41-.05-.82-.1-1.23-.14-.08.36-.62 3 .44 6.14.1.31.25.6.43.86v-4.65c0-1.31 2.04-1.31 2.04 0v6.01c.1.02.2.05.31.06.38.05.77.09 1.16.13-.07-1.85 0-3.7 0-5.56 0-1.31 2.04-1.31 2.04 0 0 1.89-.1 3.79-.02 5.69.7.02 1.39.03 2.09.01-.14-1.78-.52-3.55-.53-5.34 0-.55.47-1.02 1.02-1.02s1.02.47 1.02 1.02c0 1.76.38 3.5.52 5.26.68-.04 1.36-.1 2.04-.18-.56-1.57-1.1-3.15-1.33-4.81-.08-.55.12-1.09.71-1.25.48-.13 1.18.17 1.25.71.24 1.76.84 3.42 1.43 5.09.54-.08 1.08-.17 1.61-.26-.57-1.54-1.28-3.03-1.64-4.64-.12-.56.16-1.07.71-1.25.5-.16 1.14.19 1.25.71.37 1.66 1.11 3.2 1.69 4.79.73-.15 1.45-.32 2.16-.5-.82-1.52-1.64-3.05-2.56-4.52-.3-.48-.09-1.1.37-1.39.47-.3 1.11-.09 1.39.37 1.02 1.62 1.91 3.32 2.82 5.01.5-.14.99-.29 1.47-.44-.64-1.64-1.5-3.18-2.25-4.84-.23-.5-.15-1.09.37-1.39.44-.26 1.17-.14 1.39.37.79 1.75 1.73 3.44 2.43 5.24.78-.27 1.52-.54 2.21-.81-.93-1.71-2.13-3.26-3.03-4.98-.26-.51-.12-1.08.37-1.39l.01-.02Z"/>
  <path fill="#F7AF22" d="M79.6 304.86c-.74-.19-1.48-.37-2.22-.57-.04 1.35-.11 2.7-.21 4.04.74.35 1.58.74 2.51 1.14-.02-1.54-.06-3.08-.08-4.62v.01Zm4.09 1-2.23-.54c.03 1.64.07 3.29.08 4.94.71.29 1.47.59 2.27.89-.01-1.76-.08-3.53-.12-5.29Z"/>
  <path fill="#E08C26" d="M87.59 306.79c-.68-.16-1.37-.32-2.05-.49.05 1.84.11 3.68.11 5.52.63.22 1.27.44 1.94.67v-5.7Zm4.06.95c-.74-.17-1.48-.34-2.22-.52v5.85c.71.22 1.44.44 2.19.65.01-2 .03-3.99.03-5.99v.01Zm3.66.81-1.82-.39c0 2.03-.02 4.06-.04 6.08.61.16 1.23.32 1.86.48v-6.17Zm3.86.77-2.02-.39v6.23c.66.15 1.34.3 2.02.44v-6.28Zm7.31 1.15c-.58-.07-1.16-.15-1.74-.23v6.35c.57.09 1.16.17 1.74.25v-6.37Zm3.72.4-1.87-.18v6.38c.61.07 1.24.14 1.86.2-.05-2.13-.17-4.27 0-6.39l.01-.01Zm3.38.24-1.56-.09c-.16 2.13-.03 4.27.01 6.41.51.04 1.03.08 1.55.11v-6.43Zm3.59.11c-.58 0-1.16-.01-1.74-.03v6.46c.58.03 1.16.05 1.74.06v-6.49Zm3.59 0c-.58 0-1.16.02-1.74.02v6.51h1.74v-6.53Zm3.65-.12c-.6.03-1.21.05-1.81.07v6.54c.6-.01 1.2-.04 1.81-.06v-6.55Zm3.65-.22c-.6.04-1.21.09-1.81.13v6.55c.6-.04 1.21-.08 1.81-.13v-6.55Zm3.59-.29c-.58.06-1.16.11-1.74.16v6.52c.58-.06 1.16-.12 1.74-.19v-6.5.01Zm3.79-.42c-.65.08-1.3.16-1.95.23v6.46c.65-.09 1.3-.18 1.95-.28v-6.41Zm13.52-2.31c-.51.16-1.02.3-1.54.43v5.69c.51-.14 1.02-.29 1.54-.44v-5.68Z"/>
  <path fill="#F7AF22" d="M155.029 305.07c-.35.2-.7.4-1.05.59v6.26c.35-.12.7-.25 1.05-.38v-6.47Zm2.921-1.62c-.36.19-.73.38-1.08.58v6.67c.97-.71 1.57-1.86 1.56-3.1-.02-1.47-.11-2.88-.47-4.15h-.01Zm-5.82 3.16c-.44.21-.88.41-1.33.6v5.77c.44-.14.89-.28 1.33-.43v-5.94Z"/>
  <path fill="#E08C26" d="M145.58 308.7c-.58.11-1.16.22-1.74.31v5.9c.58-.14 1.16-.29 1.74-.44v-5.78.01Zm-3.59.59-1.47.21v6.15c.49-.1.98-.21 1.47-.32v-6.04Zm-3.31.46c-.47.06-.93.12-1.4.19v6.33c.46-.08.93-.17 1.4-.26v-6.26Zm-35.78.21c-.63-.1-1.26-.2-1.88-.31v6.31c.62.12 1.25.23 1.88.34v-6.34Z"/>
  <path fill="#F7AF22" d="M75.56 303.8c-.71-.2-1.42-.4-2.12-.62 0 .13-.02.27-.03.39-.1 1.57.67 3.05 1.98 3.87.08-1.21.13-2.42.16-3.64h.01Z"/>
  <path fill="#E08C26" d="M106.879 214.99s-8.14-22.78-24.16-21.51c-1.23.39-1.69.4-1.69.4s-13.73-4.2-15.23-5.87c-3.04 4.97-3.93 12.9 1.75 20.6 2.84 3.85 6.44 3.76 9.34 2.71 4.11-1.5 8.63-1.36 12.54.6 5 2.51 11.101 5.68 13.551 7.41a8.253 8.253 0 0 0 3.469 1.41c3.89.64 1.441-4.09.421-5.74l.009-.01Z"/>
  <path fill="#CE7717" d="M74.77 194c1.13.38 1.46 1.98.34 2.62-.94.53-2.01 1.29-2.95 2.19 1.61-.82 3.33-1.46 5.03-2.13 2.92-1.15 14.72.02 22.38 10.92 1.68 2.4 3.28 4.88 3 7.8-.24 2.49.6 4.01.67 4.09.37.23 1.58 1.05 3.62 1.3 2.24-.01 1.57-3.82-.87-8.19-9.89-20.73-21.5-19.25-23.27-19.11-1.23.39-1.69.4-1.69.4s-8.26-2.53-12.66-4.44c1.6 2.15 4.18 3.82 6.4 4.57V194Z"/>
  <path fill="#E08C26" d="M105.609 219.82s-11.16-22.82 57.82-29.71c8.17-.82 17.47-1.41 28.05-1.71 5.02-1.8 5.55-8.31.41-12.97 4.61-5.74 7.85-12.09 7.92-14.31 7.54 6.7 8.31 16.92 8.2 18.13-.11 1.21-4.84 18.38-13.75 24.21 1.43 3.22.22 14.25-8.58 16.53-11.46-7.95-32.03-17.12-74.1.97-1.74.75-3.77.58-5.31-.53-.48-.35-.67-.61-.67-.61h.01Z"/>
  <path fill="#CE7717" d="M182.8 205.64c2.16 2.63-2.62 5.59-5.4 5.75-3.05.17-6.22-.74-9.15-1.49-3.04-.77-6.21-1.44-9.44-1.91-.78.01-1.56.03-2.33.06-6.07.23-12.1 1.29-18.15 1.65-10.07 1.36-20.06 5.97-28.63 11.7.64-.03 1.28-.18 1.89-.44 42.06-18.08 62.64-8.92 74.1-.97 8.8-2.27 10.01-13.31 8.58-16.53 8.91-5.83 13.64-23 13.75-24.21.11-1.21-.66-11.44-8.2-18.13-.05 1.71-2 5.88-5 10.34 3.92 3.32 5.83 7.84 4.29 13.36-.73 2.63-1.98 5.12-3.19 7.55-1.2 2.41-2.5 4.76-4.99 6.04-2.27 1.17-4.83 1.2-7.33 1.02-3.28-.24-6.53-.39-9.82-.37-5.58.02-11.09.39-16.52 1.44 3.01-.34 6.07-.32 9.11-.3 0 0 12.06.13 16.42 5.45l.01-.01Z"/>
  <path fill="#AF620E" d="M163.439 190.11c9.35-.75 17.47-1.41 28.05-1.71 5.02-1.8 5.55-8.31.41-12.97 0 0-5.07 9.61-28.46 14.69v-.01Z"/>
  <path fill="#C39CD3" d="M153.07 251.7c-1.26 7.28 4.85 20.31 4.37 25.89-.28 3.21 1.44 6.15 2.95 8.07-.22-.74-.53-1.46-.78-2.19-.55-1.57-.74-3.43.92-4.38.85-.49 1.81-.58 2.76-.72-1.74-1.12-3.22-2.33-4.24-4.51-.77-1.67-1.14-3.4-1.51-5.18-.37-1.74-.96-3.24-1.66-4.86-.89-2.06-2.53-5.55-.94-7.69.59-.8 1.4-.83 2.32-.85.87-.02 1.73-.08 2.58-.19-1.54-.96-3.07-1.93-3.95-3.59-1.34-2.56-.33-5.41-.2-8.11.16-3.29-.17-6.72-.49-10-.23-2.35-.27-8.77 2.71-13.52-2.85 3.49-5.11 9.48-5.11 9.48-1.07 4.57 1.53 15.06.28 22.34l-.01.01Z"/>
  <path fill="#C97417" d="m99.86 247.54 6.15-13.27c.43-.93 1.78-.86 2.12.11l4.46 12.99c.17.48.63.79 1.13.77l15.44.41c1.16-.05 1.65 1.45.69 2.09l-13.01 9.07c-.44.29-.62.85-.44 1.35l4.86 13.49c.41 1.11-.93 2.03-1.82 1.26l-14-10.99c-.4-.35-.98-.38-1.41-.07l-11.98 9.03c-.92.65-2.13-.29-1.73-1.34l4.88-12.76c.18-.46.04-.98-.34-1.29l-9.31-7.61c-.81-.66-.37-1.98.68-2.03l12.65-.54c.43-.02.81-.27.99-.66l-.01-.01Z"/>
</svg>
