<svg xmlns="http://www.w3.org/2000/svg" width="250" height="414" fill="none" viewBox="0 0 250 414">
  <path fill="#3E3E3E" d="M121.817 199.203h74.833c13.014 0 23.562 10.548 23.562 23.562v50.371c0 13.013-10.548 23.561-23.562 23.561h-74.833c-4.853 0-8.786-21.819-8.786-48.747 0-26.927 3.933-48.747 8.786-48.747Z"/>
  <path fill="#0A0A0A" d="M199.233 199.34c-4.012 4.559-7.006 24.207-7.006 47.749 0 26.927 3.933 48.747 8.786 48.747h1.957c9.942-2.759 17.26-11.879 17.26-22.7v-50.372c0-12.152-9.197-22.133-20.997-23.424Z"/>
  <path fill="#505050" d="M224.968 186.053c0-12.72-3.934-23.053-8.787-23.053h-98.394c-4.853 0-8.787 10.313-8.787 23.053 0 12.739 3.934 23.052 8.787 23.052h98.394c4.853 0 8.787-10.332 8.787-23.052Z"/>
  <path fill="#E6E6E6" d="M216.824 169.791s-12.054 18.082-9.902 26.047c2.153 7.965 10.548 8.395 11.84 6.673 1.291-1.722 4.951-24.54 3.014-28.845-1.938-4.305-4.952-3.875-4.952-3.875Z" opacity=".54"/>
</svg>
