<svg xmlns="http://www.w3.org/2000/svg" width="255" height="414" fill="none" viewBox="0 0 255 414">
  <path fill="#686868" d="m102.74 290.105-.235.239s0 .119-.117.119c.117-.238.235-.358.352-.358Zm86.772-61.184c.469 8.945.821 17.89.469 26.835-.235 4.771-.586 9.542-.938 14.193-.118 3.936-.118 7.753-.352 11.688-.117 2.863-.117 5.725-.235 8.468.235.835.118 1.789-.351 2.386-.352.954-1.525 1.789-2.697 2.146-2.58 1.312-5.277 2.505-8.091 3.459-11.257 3.936-23.218 5.844-35.061 5.606-11.491-.477-23.1-2.386-33.653-7.037a134.853 134.853 0 0 1-5.863-2.982c-.704-.477-1.055-1.192-.938-2.027-.821-3.936-.469-8.11-.586-12.046-.469-23.854-1.29-48.542 7.035-71.322 3.635-8.945 10.202-16.817 18.41-21.945 3.869-2.266 8.208-3.817 12.547-5.128 4.221-1.312 8.559-2.386 13.015-2.386 11.961-.596 23.921 5.486 29.901 16.101 3.284 6.202 5.043 13 5.981 20.037.117.239.234.477.234.835.117.954.117 1.789.235 2.743.351 3.578.703 7.037.938 10.376Z"/>
  <path fill="#040404" d="M89.37 294.041c0 .12 0 .12 0 0-.118.12-.235.239-.353.239 0 0 0 .119-.117.119.235-.119.352-.238.47-.358Zm88.061-62.615c.469 9.184.821 18.367.469 27.551-.235 4.89-.586 9.78-.938 14.67-.117 4.055-.117 7.99-.352 12.046-.117 2.862-.117 5.844-.234 8.706.234.835.117 1.789-.352 2.505-.352 1.073-1.525 1.789-2.697 2.266-2.58 1.431-5.394 2.504-8.208 3.458-11.374 4.056-23.569 5.964-35.647 5.725-11.609-.477-23.452-2.504-34.123-7.156a91.15 91.15 0 0 1-5.862-3.101c-.821-.477-1.056-1.312-.939-2.027-.82-4.055-.469-8.349-.586-12.404-.469-24.569-1.407-49.854 7.153-73.349 3.752-9.184 10.436-17.294 18.644-22.542 3.987-2.385 8.326-3.935 12.664-5.247 4.221-1.312 8.677-2.386 13.25-2.386 12.195-.596 24.273 5.606 30.371 16.459 3.4 6.321 5.042 13.358 6.097 20.514.117.239.235.477.235.835.117.954.234 1.908.234 2.743.352 3.578.586 7.156.821 10.734Z"/>
  <path fill="#040404" d="M218.471 202.563c.821 4.294.821 8.707-.352 12.881-.586 2.028-1.407 4.055-2.228 6.083-.352.954-.703 1.908-1.172 2.743-.352.358-.821.119-.938-.358-.469-1.67-1.759-2.981-3.166-3.816-1.877-1.074-4.222-.955-6.098 0a10.713 10.713 0 0 0-2.462 2.146c-1.759 2.028-2.815 4.533-3.87 7.037l-.703 1.789c-.118.358-.469.835-.821.597a.658.658 0 0 1-.352-.597 8.381 8.381 0 0 0-.586-1.55c-.704-1.67-2.228-2.863-3.987-2.743-4.104.477-5.16 5.486-6.215 8.825-.352 1.074-.586 2.028-.821 2.982-.117.358-.117.954-.586.954-.352 0-.469-.358-.469-.596 0-.477-.117-.954-.117-1.312-.118-.835-.352-1.67-.821-2.385-1.876-3.698-6.098-5.845-10.084-5.725-1.994 0-3.87.954-5.394 2.147-.352.238-.704.596-1.056.954l-1.407 1.789c-.234.357-.469.596-.821.954-.703 1.073-1.289 2.147-1.876 3.22-.469.835-.821 1.789-1.29 2.624-.234.358-.469 1.193-1.055.835-.469-.358 0-.954.235-1.312.586-1.074 1.055-2.266 1.641-3.34 0-.119.118-.119.118-.238h-.118c-.586-.239-.234-.835 0-1.193.235-.477.704-1.193 1.173-.715l.352-.358v-.239c.351-1.55.586-3.22.82-4.77h-.117c-.117.715-.234 1.311-.352 2.027 0 .239-.234.477-.469.358-.234 0-.351-.239-.351-.477.586-4.055 1.289-8.11 1.876-12.046.234-.835.234-1.789.586-2.624v-5.725c-.352 0-.821 0-1.173-.238-.351-.239-.117-.835.235-.835.704.119 1.524.119 2.228.119 2.345-.239 4.573-.477 6.801-1.073 4.808-1.432 9.263-4.055 13.367-7.037 3.87-2.863 7.271-6.441 9.85-10.615 1.173-2.027 2.111-4.174 2.932-6.321.351-.954.586-1.908.821-2.862.117-.358.117-.716.234-1.074 0-.119.117-.358.235-.477.82-.596 1.876.239 2.697.596 1.172.597 2.462 1.312 3.517 2.028 5.863 4.532 10.085 11.688 11.609 18.963Zm-163.574-9.064c-1.876 3.936-2.931 8.229-2.697 12.642.118 2.147.47 4.294.704 6.441.117.954.234 2.027.469 2.981.234.477.82.239.938-.119.938-1.55 2.462-2.504 3.987-2.982 2.11-.596 4.338.12 5.98 1.551.82.716 1.407 1.67 1.993 2.743 1.173 2.385 1.642 5.129 2.111 7.752.117.597.235 1.312.235 1.909 0 .357.234.954.703.835.235 0 .352-.239.47-.478.234-.477.585-.954.937-1.431 1.056-1.431 2.814-2.266 4.456-1.669 3.87 1.431 3.752 6.559 3.987 10.137 0 1.074.117 2.147.117 3.101 0 .358-.117.954.352 1.074.352.119.586-.239.586-.477.118-.358.352-.955.47-1.312a6.773 6.773 0 0 1 1.406-2.147c2.697-3.101 7.27-4.175 11.14-3.101 1.876.477 3.518 1.789 4.808 3.339.234.358.586.716.82 1.193.352.716.587 1.431.939 2.147.117.358.351.715.469 1.192.469 1.193.703 2.386 1.055 3.698.234.954.352 1.908.586 2.862.117.477.117 1.193.821 1.074.586-.239.117-.835.117-1.312-.234-1.193-.469-2.505-.821-3.698 0-.119 0-.119-.117-.238h.117c.587 0 .469-.716.352-1.193-.117-.477-.352-1.312-.938-.954-.117-.119-.117-.239-.234-.477v-.119c.117-1.551.234-3.221.351-4.771l.118.119c0 .716-.118 1.312-.118 2.028 0 .238.118.477.352.477.235 0 .469-.119.469-.477.352-4.055.704-8.11.938-12.165 0-.955.118-1.789.118-2.744.234-1.312.586-2.623.938-3.816l.351-1.431c0-.12 0-.12.118-.239.351.119.82.239 1.172.119.352-.119.352-.715-.117-.834-.704 0-1.524-.239-2.111-.478-2.228-.715-4.338-1.669-6.449-2.743-4.338-2.504-8.09-6.202-11.374-10.137-3.049-3.698-5.511-8.111-7.153-12.643-.703-2.266-1.055-4.532-1.29-6.917-.117-.954-.117-2.028-.117-2.982v-1.073c0-.12 0-.358-.117-.477-.587-.716-1.994-.239-2.697-.12-1.29.358-2.697.716-3.987 1.193-6.801 2.624-12.664 8.468-15.713 15.147Zm64.963-7.156c.352.477-.469 1.074-.821.477l-.117-.119c-.821 3.697-4.104 6.321-7.622 7.394-1.29.358-2.579.716-3.869.835 0 .358-.469.716-.821.358-.117-.119-.235-.238-.235-.358h-.117a.922.922 0 0 1-.469-.477c-.234-.715-.469-1.312-.586-2.027-.587-1.431-.938-2.863-1.173-4.413-.234-1.551-.117-2.982.117-4.532v-.597c.118-2.027.235-4.055.939-5.844 0-.119 0-.119.117-.119 0-.119 0-.358.234-.477.821-.477 5.629 1.67 6.684 2.147 1.407.596 2.697 1.55 3.752 2.624 1.407 1.312 2.697 3.22 3.987 5.128Zm50.54 15.743c.586-.596 1.173-1.192 1.642-1.789-.587.477-1.173 1.193-1.876 1.551-.118 0-.235.119-.352.119.234.119.469.119.586.119Zm7.153-20.037c.703 2.147.938 4.652.703 6.918-.469 2.504-1.289 4.89-2.345 7.275-1.172 2.147-2.579 4.175-4.221 5.964-.469.357-.938 1.073-1.524.834-3.753-.954-5.863-2.862-8.091-5.844-.938-1.192-1.876-2.385-2.58-3.578-.469-.835-.704-1.789-1.055-2.624-.118-.477-.235-.954-.235-1.431 0-.238.235-.477.469-.477.704 0 .469.835.586 1.312 0 .239.118.358.235.596-.117-1.431.117-2.862.586-4.293a10.772 10.772 0 0 0-2.11 2.504c0 .716-1.056.597-.938-.119.117-.238.234-.477.469-.715.703-1.074 1.641-2.028 2.579-2.863 2.58-2.147 5.629-3.697 8.795-4.293 1.993-.358 3.869-.597 5.863-.835.469 0 .938-.12 1.29 0 .351 0 .586.119.703.357.352.239.586.716.821 1.312Z"/>
</svg>
