<svg xmlns="http://www.w3.org/2000/svg" width="250" height="414" fill="none" viewBox="0 0 250 414">
  <path fill="#96533D" fill-rule="evenodd" d="M71.818 208.862s-9.24-4.978-10.101-13.383C60.66 185.165 74.72 178.023 79.77 182.29c5.048 4.267 7.749 12.643 7.749 12.643s-9.944 4.99-15.701 13.924" clip-rule="evenodd"/>
  <path fill="#96533D" d="M81.695 253.397c4.1 21.793 17.71 39.186 40.865 44.387 4.8 1.078 16.687 1.086 21.839 1.086 30.113 0 62.537-21.417 64.033-60.095l-19.685 9.488s-71.745 4.961-107.052 5.13v.004Z"/>
  <path fill="#B77C6C" d="M208.433 238.779c0-33.189-34.305-61.111-69.67-61.111-6.631 0-12.814-.739-18.827 1.016-26.068 7.609-39.565 33.127-39.565 60.095 0 5.027.443 9.926 1.325 14.623 35.303-.174 71.778-5.188 107.052-5.131l19.685-9.487v-.005Z"/>
  <path fill="#82492F" d="M125.693 297.858c35.364 0 64.033-26.905 64.033-60.095s-28.669-60.095-64.033-60.095c-35.364 0-64.033 26.905-64.033 60.095s28.669 60.095 64.033 60.095Z"/>
  <path fill="#575858" d="M197.72 232.055c-.973-8.262-3.897-20.984-12.573-29.918-14.521-14.957-37.962-24.92-57.374-24.436l7.48-.186c13.978-.607 34.027 6.704 51.376 23.189 8.644 8.215 12.433 21.792 13.601 30.343l-2.514 1.012.004-.004Z"/>
  <path fill="#96533D" fill-rule="evenodd" d="M182.93 197.35s5.732-8.778 14.201-8.943c10.391-.202 16.376 14.358 11.696 19.025-4.68 4.668-13.27 6.667-13.27 6.667s-4.17-10.293-12.627-16.749Z" clip-rule="evenodd"/>
  <path fill="#62302B" fill-rule="evenodd" d="M209.271 203.422c-3.061 3.052-7.604 4.927-11.928 4.927-1.897 0-3.69-.314-5.355-.884 2.39 3.71 3.574 6.634 3.574 6.634s8.594-1.999 13.27-6.667c1.234-1.231 1.719-3.151 1.586-5.307-.368.462-.753.896-1.151 1.292l.004.005Z" clip-rule="evenodd"/>
  <path fill="#481E13" d="M73.214 187.849c-.547 2.954-1.09 5.911-1.636 8.865l-.236 1.28c-.1.549.149 1.115.724 1.272.502.136 1.172-.169 1.276-.723.547-2.953 1.09-5.91 1.636-8.864l.236-1.28c.1-.55-.15-1.116-.725-1.272-.5-.137-1.172.169-1.275.722Z"/>
  <path fill="#481E13" d="M78.64 193.137c-2.961-.546-5.927-1.087-8.888-1.632l-1.284-.235c-.55-.1-1.118.148-1.276.722-.136.5.17 1.169.725 1.273 2.962.545 5.927 1.086 8.888 1.631l1.284.236c.55.099 1.118-.149 1.276-.723.136-.5-.17-1.169-.725-1.272Zm123.983 7.348-8.809-2.148-1.239-.302c-1.296-.314-1.847 1.677-.55 1.991 2.936.715 5.872 1.434 8.809 2.148.414.099.824.203 1.238.302 1.296.314 1.847-1.677.551-1.991Z"/>
  <path fill="#481E13" d="m197.092 205.54 2.154-8.785.302-1.235c.315-1.293-1.681-1.842-1.996-.55-.716 2.929-1.437 5.858-2.154 8.786-.099.413-.203.822-.302 1.235-.315 1.293 1.682 1.842 1.996.549Z"/>
  <path fill="#606161" fill-rule="evenodd" d="M197.787 232.315s-.348-2.631 2.079-2.383c2.282.231 11.828 6.22 11.828 6.22l-6.08 7.328-7.831-11.165" clip-rule="evenodd"/>
</svg>
