<svg xmlns="http://www.w3.org/2000/svg" width="250" height="414" fill="none" viewBox="0 0 250 414">
  <path fill="#27354F" fill-rule="evenodd" d="M68.446 257.111s-6.777 1.723-9.053 0c0 0-1.42 32.032 0 35.719 1.42 3.686 8.63 7.464 13.272 8.689l-4.22-44.403v-.005Z" clip-rule="evenodd"/>
  <path fill="#51799B" d="m84.46 283.893-13.554-84.175S86.968 159.835 155.6 160.9c45.33.704 55.315 40.064 57.303 52.044.313 1.873.454 3.767.433 5.665l-.815 69.88c-.066 5.762-21.636 16.858-27.406 16.667L94.848 295.09c-5.982-.196-10.654-5.229-10.388-11.197Z"/>
  <path fill="#1D4267" d="m63.991 290.403 3.454-78.097s.418-41.807 69.055-40.742c53.477.829 56.392 51.31 56.392 51.31l-.84 72.125c-.066 5.762-4.869 10.338-10.639 10.147l-107.034-3.547c-5.982-.195-10.655-5.229-10.388-11.196Z"/>
  <path fill="#395478" d="m117.594 170.575 14.073-1.562V147.55a.74.74 0 0 0-1.012-.688l-11.873 4.666a1.87 1.87 0 0 0-1.188 1.743v17.304Zm50.1 1.889-14.073-3.12v-23.025a.741.741 0 0 1 1.012-.688l11.873 4.666a1.87 1.87 0 0 1 1.188 1.743v20.424Z"/>
  <path fill="#65A683" fill-rule="evenodd" d="M222.235 260.24h-25.709c-1.999 0-4.038-.828-4.038-2.822l.403-57.122a3.642 3.642 0 0 1 3.635-3.627h25.709a3.642 3.642 0 0 1 3.635 3.627v56.313c0 1.994-1.636 3.626-3.635 3.626v.005Z" clip-rule="evenodd"/>
  <path fill="#8FC6A8" fill-rule="evenodd" d="M205.553 204.611h-4.123v55.986a12.747 12.747 0 0 0 4.123 1.638v-57.624Zm-5.328 0h-1.405v53.977c.453.432.922.814 1.405 1.18v-55.157Z" clip-rule="evenodd"/>
  <path fill="#848484" fill-rule="evenodd" d="M192.892 199.789v4.917c0 1.934 7.381 3.496 16.489 3.496 9.109 0 16.49-1.567 16.49-3.496v-4.917h-32.984.005Z" clip-rule="evenodd"/>
  <path fill="#D6D6D6" fill-rule="evenodd" d="M205.553 199.613h-4.123v8.137a68.52 68.52 0 0 0 4.123.236v-8.378.005Zm-5.328 0h-1.405v7.846c.453.06.922.12 1.405.17v-8.021.005Z" clip-rule="evenodd"/>
  <path fill="#CCAE9E" d="M209.384 203.666c9.107 0 16.49-1.565 16.49-3.496s-7.383-3.496-16.49-3.496-16.489 1.565-16.489 3.496 7.382 3.496 16.489 3.496Z"/>
  <path fill="#CCAE9E" d="M225.875 193.454h-32.984v6.711h32.984v-6.711Z"/>
  <path fill="#FDF5F0" d="M209.384 196.951c9.107 0 16.49-1.566 16.49-3.496 0-1.931-7.383-3.497-16.49-3.497s-16.489 1.566-16.489 3.497c0 1.93 7.382 3.496 16.489 3.496Z"/>
  <path fill="#F2E1D6" fill-rule="evenodd" d="M210.377 223.934c-.015-1.637-.03 6.686 0 10.217 8.645-.111 15.498-1.633 15.498-3.491v-10.217c0 1.864-6.853 3.381-15.498 3.491Z" clip-rule="evenodd"/>
  <path fill="#395478" fill-rule="evenodd" d="M192.499 256.569s25.653-.191 33.377-8.56v-5.103s4.596 2.13 4.596 4.254v26.381s-.996 1.984-2.134 3.406c-1.138 1.421-24.883 28.701-43.221 28.214 0 0 6.823-2.969 6.969-13.602.146-10.634.413-34.985.413-34.985v-.005Z" clip-rule="evenodd"/>
  <path fill="#68A68A" d="M209.183 194.941c4.674 0 8.463-.665 8.463-1.486 0-.822-3.789-1.487-8.463-1.487-4.675 0-8.464.665-8.464 1.487 0 .821 3.789 1.486 8.464 1.486Z"/>
  <path fill="#326E50" d="M209.183 194.314c2.511 0 4.547-.385 4.547-.859s-2.036-.859-4.547-.859c-2.511 0-4.546.385-4.546.859s2.035.859 4.546.859Z"/>
  <path fill="#ECDFE2" fill-rule="evenodd" d="m211.419 193.55-1.435.296c-.7.05-1.405.051-2.099-.01l-1.158-.281V160.88h4.692v32.675-.005Z" clip-rule="evenodd"/>
  <path fill="#CDA89F" d="M209.073 161.538c1.296 0 2.346-.297 2.346-.663 0-.366-1.05-.663-2.346-.663s-2.346.297-2.346.663c0 .366 1.05.663 2.346.663Z"/>
  <path fill="#08233B" fill-rule="evenodd" d="M225.875 248.009s2.215-1.703 1.646-2.768c-.568-1.064-1.646-1.416-1.646-1.416v4.184Zm2.463 28.927c1.138-1.416 2.135-3.405 2.135-3.405v-8.524c-1.913 2.22-5.03 6.947-8.716 9.026-21.529 12.131-29.595-8.152-29.595-8.152-.026 2.175-.051 24.01-.076 25.662-.141 10.639-8.469 13.442-8.469 13.442 20.795 1.075 43.588-26.632 44.721-28.054v.005Z" clip-rule="evenodd"/>
  <path fill="#17253A" fill-rule="evenodd" d="M65.502 259.547s-5.604.799-6.122-2.436c-.519-3.235 6.334-4.571 6.334-4.571l-.212 7.007Z" clip-rule="evenodd"/>
</svg>
