<svg xmlns="http://www.w3.org/2000/svg" width="250" height="414" fill="none" viewBox="0 0 250 414">
  <path fill="#E28D1A" d="M127.134 199.528h74.832c13.016 0 23.564 10.548 23.564 23.564v50.374c0 13.016-10.548 23.564-23.564 23.564h-74.832c-4.849 0-8.79-21.82-8.79-48.744s3.927-48.744 8.79-48.744v-.014Z"/>
  <path fill="#FF9700" d="M222.141 210.799c.17 1.134.283 2.297.283 3.488v50.375c0 13.015-10.548 23.564-23.564 23.564h-74.832c-.765 0-1.503-.539-2.212-1.56 1.489 6.494 3.375 10.364 5.416 10.364h74.832c13.016 0 23.564-10.548 23.564-23.564v-50.375c0-4.508-1.29-8.705-3.487-12.292Z" opacity=".5"/>
  <path fill="#F9B024" d="M204.559 199.669c-4.013 4.566-7.004 24.202-7.004 47.752 0 26.924 3.927 48.744 8.79 48.744h1.957c9.939-2.764 17.254-11.881 17.254-22.699v-50.374c0-12.151-9.201-22.132-20.997-23.423Z"/>
  <path fill="#EDEDED" d="M230.293 186.385c0-12.718-3.927-23.054-8.79-23.054h-98.396c-4.849 0-8.791 10.308-8.791 23.054 0 12.746 3.928 23.053 8.791 23.053h98.396c4.849 0 8.79-10.336 8.79-23.053Z"/>
  <path fill="#606060" d="M221.504 204.632h-98.396c-4.551 0-8.28-9.046-8.733-20.658a65.456 65.456 0 0 0-.043 2.396c0 12.747 3.927 23.054 8.79 23.054h98.396c4.849 0 8.791-10.336 8.791-23.054 0-.808-.014-1.616-.043-2.396-.453 11.598-4.197 20.658-8.733 20.658h-.029Z" opacity=".3"/>
  <path fill="#606060" d="M222.143 170.122s-12.052 18.077-9.897 26.045c2.155 7.969 10.549 8.394 11.839 6.678 1.29-1.715 4.948-24.542 3.006-28.838-1.943-4.31-4.948-3.871-4.948-3.871v-.014Z"/>
  <path fill="#000" d="M192.155 191.049c-4.311-1.134-10.691-.142-14.108-3.389-3.048-2.906-4.395-7.188-7.812-9.981-3.629-2.963-8.379-4.636-13.072-4.679-9.031-.099-17.014 5.416-21.054 13.328-3.899 7.628-3.318 15.936-.468 23.606h71.854c-.099-4.735-1.843-9.442-5.132-12.987-2.737-2.949-6.338-4.877-10.208-5.884v-.014Zm-14.049-23.28c-.539 1.857-.808 3.828-.666 5.756.283 4.126 2.424 7.883 5.572 10.506 3.473 2.878 8.209 4.849 12.76 3.814 4.466-1.007 7.798-4.424 9.556-8.564 2.254-5.302 1.248-11.37-2.198-15.454h-23.663c-.028.156-.056.298-.071.454-.056.44-1.006 2.495-1.29 3.488Zm-56.105 23.309c1.971-.156 3.53-.964 4.622-2.623.51-.766.822-1.645 1.347-2.411.042-.056.099-.127.156-.198.142-.142.269-.298.397-.454.312-.34.652-.638.978-.964 2.042-1.999 3.162-4.509 2.51-7.387-.256-1.134-.78-2.112-1.461-2.991-.368-4.126-2.977-8.025-7.358-9.103a10.836 10.836 0 0 0-2.368-.312c-3.743 2.638-6.508 11.57-6.508 22.246 0 .794.015 1.588.043 2.368 1.248.709 2.58 1.276 4.041 1.545 1.162.213 2.396.383 3.587.284h.014Zm-.324 17.226c1.205.709 2.595 1.077 3.984.737 1.531-.383 2.68-1.602 3.148-3.091.227-.723.283-1.531.255-2.297-.028-.779-.113-1.573-.312-2.325-.269-1.006-.751-1.857-1.418-2.637a2.377 2.377 0 0 0-.269-.255 5.158 5.158 0 0 0-3.559-3.814c-1.971-.581-3.984.099-5.501 1.389-.766.653-1.219 1.532-1.574 2.453-.141.369-.184.723-.241 1.106-.056.411-.113.794-.085 1.191.468 1.616 1.007 3.077 1.631 4.324.212.256.425.525.638.752.935.992 2.126 1.772 3.303 2.453v.014Zm87.621-42.648c.028.128.057.227.099.355.128.34.27.709.454 1.035.184.312.439.609.666.893.312.383.752.681 1.149.964.581.411 1.276.681 1.971.865.496.128 1.035.184 1.545.241a4 4 0 0 0 .709.014c1.148-.057 2.183-.283 3.204-.836 1.205-.653 2.127-1.843 2.495-3.162.114-.411.156-.865.185-1.276a3.628 3.628 0 0 0-.085-.865c-.057 0-.128-.028-.185-.028h-12.306a4.655 4.655 0 0 0-.043.624c0 .397.071.808.142 1.191v-.015Z"/>
  <path fill="#fff" d="M125.942 166.932h98.396c.808 0 1.588.312 2.34.851-1.446-2.793-3.233-4.452-5.175-4.452h-98.396c-4.849 0-8.791 10.308-8.791 23.054 0 10.605 2.737 19.509 6.437 22.202-2.183-4.196-3.601-10.945-3.601-18.601 0-12.732 3.927-23.054 8.79-23.054Z" opacity=".5"/>
</svg>
