<svg xmlns="http://www.w3.org/2000/svg" width="250" height="415" fill="none" viewBox="0 0 250 415">
  <path fill="#6967A3" d="m225.372 195.222 19.445 39.364a1.385 1.385 0 0 1-1.237 1.999H21.73c-1.09 0-1.75-1.197-1.172-2.123l24.75-39.364c.252-.4.693-.648 1.172-.648h177.654a1.38 1.38 0 0 1 1.238.768v.004Z"/>
  <path fill="#7474AD" d="M202.392 194.454H46.712c-.475 0-.916.244-1.168.649l-24.75 39.364c-.582.921.082 2.123 1.171 2.123h3.325l23.744-37.762c.252-.4.693-.648 1.167-.648h152.224c0-1.239-.013-2.483-.037-3.722l.004-.004Z"/>
  <path fill="#8784BB" d="m35.941 236.581 26.702-38.406h3.816L40.45 236.581h-4.509Zm6.934 0 26.706-38.406h7.454l-25.836 38.406h-8.324Z"/>
  <path fill="#5E5CA3" d="M122.741 186.081H66.496c0-15.551 12.59-28.158 28.12-28.158 15.532 0 28.121 12.607 28.121 28.158h.004Z"/>
  <path fill="#5A4194" d="M94.62 157.923c-2.173 0-4.29.256-6.323.723 12.486 2.875 21.801 14.061 21.801 27.435h12.643c0-15.551-12.589-28.158-28.12-28.158Z"/>
  <path fill="#789FD1" d="M83.61 179.753a6.58 6.58 0 0 0 6.576-6.584 6.58 6.58 0 0 0-6.576-6.584 6.58 6.58 0 0 0-6.575 6.584 6.58 6.58 0 0 0 6.576 6.584Z"/>
  <path fill="#4E4F89" d="M208.112 236.581h-84.296v-38.406h82.415v29.071l.673.591a3.554 3.554 0 0 1 1.204 2.66v6.084h.004Z"/>
  <path fill="#7474AD" d="M206.244 198.175h20.819l-1.46-2.953a1.387 1.387 0 0 0-1.237-.772h-18.159c.025 1.239.033 2.482.037 3.721v.004Z"/>
  <path fill="#A4A0CB" d="M122.691 186.081H66.912a3.942 3.942 0 0 0-3.94 3.945v75.803a3.942 3.942 0 0 0 3.94 3.945h55.779a3.942 3.942 0 0 0 3.94-3.945v-75.803a3.942 3.942 0 0 0-3.94-3.945Z"/>
  <path fill="#C9C2DE" d="M90.186 186.081H69.367v76.489h20.82v-76.489Z"/>
  <path fill="#7B74B1" d="M110.098 186.081s4.76 2.693 4.76 7.497v61.558s-.8 5.262-4.76 7.434h16.483v-72.544s-.127-3.945-3.889-3.945h-12.594Z"/>
  <path fill="#DEDFED" d="M75.264 186.081h-3.135v76.489h3.135v-76.489Zm10.754 0h-7.264v76.489h7.264v-76.489Z"/>
  <path fill="#5E59A0" d="M126.581 229.377H62.655a2.919 2.919 0 0 0-2.917 2.921v8.566a2.919 2.919 0 0 0 2.917 2.921h63.926a2.918 2.918 0 0 0 2.916-2.921v-8.566a2.918 2.918 0 0 0-2.916-2.921Zm0 33.194H62.655a2.918 2.918 0 0 0-2.917 2.92v8.567a2.918 2.918 0 0 0 2.917 2.92h63.926a2.917 2.917 0 0 0 2.916-2.92v-8.567a2.917 2.917 0 0 0-2.916-2.92Z"/>
  <path fill="#4E4F89" d="M59.746 241.117a2.926 2.926 0 0 0 2.912 2.813h63.927a2.927 2.927 0 0 0 2.912-2.813h-69.75Zm.322 33.036c-.111 0-.219-.013-.326-.017v.066a2.927 2.927 0 0 0 2.917 2.921h63.926a2.926 2.926 0 0 0 2.916-2.921v-.049H60.068Z"/>
  <path fill="#7B74B1" d="M69.206 262.571s-.87.57-.87 1.297v12.296s.074.814.437.814h21.211s-.726-.45-.726-.739v-12.735s.17-.933 1.102-.933H69.206Z"/>
  <path fill="#A4A0CB" d="M72.128 262.571s-.87.57-.87 1.297v12.296s.074.814.437.814h3.197s-.726-.45-.726-.739v-12.735s.17-.933 1.101-.933h-3.139Zm6.516 0s-.87.57-.87 1.297v12.296s.074.814.437.814h7.314s-.727-.45-.727-.739v-12.735s.17-.933 1.102-.933h-7.256Z"/>
  <path fill="#7B74B1" d="M69.206 229.377s-.87.57-.87 1.297v12.297s.074.814.437.814h21.211s-.726-.45-.726-.74v-12.734s.17-.934 1.102-.934H69.206Z"/>
  <path fill="#A4A0CB" d="M72.128 229.377s-.87.57-.87 1.297v12.297s.074.814.437.814h3.197s-.726-.45-.726-.74v-12.734s.17-.934 1.101-.934h-3.139Zm6.516 0s-.87.57-.87 1.297v12.297s.074.814.437.814h7.314s-.727-.45-.727-.74v-12.734s.17-.934 1.102-.934h-7.256Z"/>
  <path fill="#5E5CA3" d="M199.48 186.081h-56.246c0-15.551 12.59-28.158 28.121-28.158 15.531 0 28.121 12.607 28.121 28.158h.004Z"/>
  <path fill="#5A4194" d="M171.359 157.923c-2.174 0-4.29.256-6.324.723 12.487 2.875 21.801 14.061 21.801 27.435h12.644c0-15.551-12.59-28.158-28.121-28.158Z"/>
  <path fill="#789FD1" d="M160.349 179.753a6.58 6.58 0 0 0 6.575-6.584 6.58 6.58 0 0 0-6.575-6.584 6.58 6.58 0 0 0-6.576 6.584 6.58 6.58 0 0 0 6.576 6.584Z"/>
  <path fill="#A4A0CB" d="M199.43 186.081h-55.78a3.942 3.942 0 0 0-3.939 3.945v75.803a3.942 3.942 0 0 0 3.939 3.945h55.78a3.942 3.942 0 0 0 3.939-3.945v-75.803a3.942 3.942 0 0 0-3.939-3.945Z"/>
  <path fill="#C9C2DE" d="M166.925 186.081h-20.82v76.489h20.82v-76.489Z"/>
  <path fill="#7B74B1" d="M186.836 186.081s4.76 2.693 4.76 7.497v61.558s-.8 5.262-4.76 7.434h16.484v-72.544s-.128-3.945-3.89-3.945h-12.594Z"/>
  <path fill="#DEDFED" d="M151.998 186.081h-3.135v76.489h3.135v-76.489Zm10.755 0h-7.265v76.489h7.265v-76.489Z"/>
  <path fill="#5E59A0" d="M203.319 229.377h-63.926a2.918 2.918 0 0 0-2.916 2.921v8.566a2.918 2.918 0 0 0 2.916 2.921h63.926a2.92 2.92 0 0 0 2.917-2.921v-8.566a2.92 2.92 0 0 0-2.917-2.921Zm0 33.194h-63.926a2.917 2.917 0 0 0-2.916 2.92v8.567a2.917 2.917 0 0 0 2.916 2.92h63.926a2.918 2.918 0 0 0 2.917-2.92v-8.567a2.918 2.918 0 0 0-2.917-2.92Z"/>
  <path fill="#4E4F89" d="M136.48 241.117a2.927 2.927 0 0 0 2.913 2.813h63.926a2.925 2.925 0 0 0 2.912-2.813H136.48Zm.322 33.036c-.111 0-.218-.013-.325-.017v.066a2.926 2.926 0 0 0 2.916 2.921h63.926a2.927 2.927 0 0 0 2.917-2.921v-.049h-69.434Z"/>
  <path fill="#7B74B1" d="M145.941 262.571s-.871.57-.871 1.297v12.296s.075.814.438.814h21.211s-.726-.45-.726-.739v-12.735s.169-.933 1.101-.933h-21.153Z"/>
  <path fill="#A4A0CB" d="M148.863 262.571s-.871.57-.871 1.297v12.296s.074.814.437.814h3.197s-.726-.45-.726-.739v-12.735s.169-.933 1.102-.933h-3.139Zm6.519 0s-.87.57-.87 1.297v12.296s.074.814.437.814h7.314s-.726-.45-.726-.739v-12.735s.169-.933 1.101-.933h-7.256Z"/>
  <path fill="#7B74B1" d="M145.941 229.377s-.871.57-.871 1.297v12.297s.075.814.438.814h21.211s-.726-.45-.726-.74v-12.734s.169-.934 1.101-.934h-21.153Z"/>
  <path fill="#A4A0CB" d="M148.863 229.377s-.871.57-.871 1.297v12.297s.074.814.437.814h3.197s-.726-.45-.726-.74v-12.734s.169-.934 1.102-.934h-3.139Zm6.519 0s-.87.57-.87 1.297v12.297s.074.814.437.814h7.314s-.726-.45-.726-.74v-12.734s.169-.934 1.101-.934h-7.256Z"/>
  <path fill="#8ECCD2" d="M71.692 276.978s-20.056 17.89.437 32.731c0 0-6.06-19.633 7.215-16.366 13.279 3.268 1.65 12.144 0 24.077-1.283 9.265 12.115 10.042 12.115 10.042s-5.812-12.338 4.36-17.026c11.373-5.238-1.695-16.01 3.102-20.376 4.798-4.366 18.147-.748 12.582 10.479-3.337 6.737-5.981 6.336-5.981 6.336s28.958-1.532 17.222-29.756l-51.048-.145-.004.004Z"/>
  <path fill="#E1E2ED" d="M74.887 276.978s-6.431 6.828-6.559 11.338c0 0 11.5-6.113 15.712-1.891 4.212 4.221 7.413 10.623 6.976 14.262 0 0 .437-17.17 7.994-18.046 7.558-.876 16.134 1.454 16.278 5.238 0 0 4.36-7.787 0-10.756l-40.405-.145h.004Z"/>
  <path fill="#6288C2" d="M72.128 309.808s-6.06-19.633 7.215-16.366c13.274 3.268 1.65 12.144 0 24.077-1.283 9.265 12.115 10.042 12.115 10.042s-5.812-12.338 4.36-17.026c11.373-5.238-1.695-16.01 3.102-20.376 4.798-4.366 18.142-.748 12.582 10.479-2.554 5.155-4.699 6.129-5.569 6.303 2.945-.269 20.741-2.586 19.549-19.178-2.83 6.076-9.896 12.288-9.896 12.288 4.55-5.944-2.909-16.154-12.788-16.01-9.884.145-6.831 8.588-5.38 14.99 1.453 6.402-2.326 8.149-7.12 10.335-4.797 2.18-2.907 14.262-2.907 14.262-11.336-5.386-.87-17.464 1.019-26.485 1.889-9.021-9.158-7.711-15.696-7.86-6.538-.145-4.905 13.032-4.905 13.032-5.19-5.593-.008-20.806 0-20.831-4.583 6.233-9.908 18.01 4.323 28.319l-.004.005Z"/>
  <path fill="#8ECCD2" d="M196.418 276.978s20.056 17.89-.437 32.731c0 0 6.059-19.633-7.215-16.366-13.279 3.268-1.65 12.144 0 24.077 1.283 9.265-12.116 10.042-12.116 10.042s5.813-12.338-4.36-17.026c-11.373-5.238 1.696-16.01-3.102-20.376-4.797-4.366-18.146-.748-12.581 10.479 3.337 6.737 5.981 6.336 5.981 6.336s-28.958-1.532-17.222-29.756l51.048-.145.004.004Z"/>
  <path fill="#E1E2ED" d="M193.222 276.978s6.431 6.828 6.559 11.338c0 0-11.501-6.113-15.713-1.891-4.212 4.221-7.413 10.623-6.975 14.262 0 0-.438-17.17-7.995-18.046-7.557-.872-16.133 1.454-16.277 5.238 0 0-4.361-7.787 0-10.756l40.405-.145h-.004Z"/>
  <path fill="#6288C2" d="M195.981 309.808s6.06-19.633-7.215-16.366c-13.278 3.268-1.65 12.144 0 24.077 1.283 9.265-12.115 10.042-12.115 10.042s5.812-12.338-4.36-17.026c-11.373-5.238 1.695-16.01-3.102-20.376-4.798-4.366-18.142-.748-12.582 10.479 2.554 5.155 4.699 6.129 5.569 6.303-2.945-.269-20.741-2.586-19.548-19.178 2.829 6.076 9.896 12.288 9.896 12.288-4.55-5.944 2.908-16.154 12.787-16.01 9.884.145 6.831 8.588 5.379 14.99-1.452 6.402 2.327 8.149 7.12 10.335 4.798 2.18 2.908 14.262 2.908 14.262 11.336-5.386.871-17.464-1.018-26.485-1.89-9.021 9.157-7.711 15.695-7.86 6.539-.145 4.905 13.032 4.905 13.032 5.19-5.593.008-20.806 0-20.831 4.583 6.233 9.909 18.01-4.323 28.319l.004.005Z"/>
</svg>
