<svg xmlns="http://www.w3.org/2000/svg" width="250" height="419" fill="none" viewBox="0 0 250 419">
  <path fill="#8E8E8E" d="M200.9 272.175c-.2 0-.4.1-.5.1-1.2.1-2.5-.8-3.7-.2-.9.5-.6 2 .5 2.2.3 0 .6.1.9.1-.3 1.7 2 1.6 3.1 2 1.3.2 3.7 1.6 3.9-.4 1.4 0 2.1-2.1.6-2.6-1.6-.5-3.2-1-4.8-1.2Zm2.1 27.799c-1.5.3-4.7-.8-5.5.7-1.1.1-1.5 1.6-.5 2.2.8 1.4 3.2 1.1 4.6 1.3 1.5.3 2.6-.4 2.2-1.9 1.8-.4.9-3-.8-2.3Z"/>
  <path fill="#606060" d="M204.8 280.174c-2.3.5-4 2.5-5 4.5-.3.2-.6.6-.6 1s.1.7.4.9c.1.4.2.8.5 1.1-.1.7-.2 1.5.3 2.1-1.5-.2-2.2 1.8-.7 2.4-.3.2-.5.5-.6.8v.1c-.8.6-.5 2 .5 2.1 1.3.2 2.5.2 3.8.2 1.5-.2 4.7.8 5.1-1.3.1-.1.1-.2.2-.3.2-.6 0-1.2-.5-1.6.8-.3 1.1-1.3.6-1.9.1-.1.2-.3.3-.4 0-.1.1-.1.1-.2.7-.2 1-1 .7-1.7-.6-1.3-1.2-2.6-1.8-4 .9-1.9-1.1-4.3-3.3-3.8Z"/>
  <path fill="#BCBCBC" d="M204.6 282.375c4.8 1.4 3.4 13.5-2 12.5-2.6-1.9-2.8-13.4 2-12.5Zm-9.3 14.1c0 .1 0 .1 0 0v.2c.1.1.1.3.2.4 0 0 0 .1.1.1v.2c.9 2 2.1 3.8 3.9 5.1.8.6 1.7 1.1 2.6 1.4 1 .3 2 .4 3.1.3 2.8-.3 5.2-2.1 6.8-4.3 1.9-2.5 2.9-5.6 3.3-8.7.4-2.9.2-6-.7-8.9-.7-2.3-1.9-4.6-3.6-6.3-.5-.5-1-.9-1.6-1.2-.3-.2-.6-.3-.9-.5-.1 0-.1-.1-.2-.1-.4-.2-.8-.3-1.2-.5-.3-.1-.5-.1-.8-.2-.4-.1-.8-.1-1.1-.1-2.4-.1-4.6 1.1-6.2 2.6-1.2 1.2-2.2 2.6-2.9 4.1-.6 1.2-1.1 2.5-1.4 3.9-.2.8-.3 1.5-.4 2.3 0 .4-.1.7-.1 1.1v3.4c.1 2.1.4 3.9 1.1 5.7Z"/>
  <path fill="#555" d="M218.2 173.475c-.2 0-.4 0-.5.1-1.2-.1-2.4-1.1-3.6-.7-1 .4-.9 1.9.1 2.2l.9.3c-.5 1.6 1.8 1.8 2.8 2.4 1.2.4 3.4 2.1 3.9.1 1.4.2 2.4-1.8 1-2.4-1.5-.8-3-1.5-4.6-2Zm-1.9 27.799c-1.5.1-4.6-1.4-5.5 0-1.1 0-1.7 1.4-.8 2.1.6 1.5 3 1.5 4.4 1.9 1.4.5 2.7 0 2.4-1.6 1.8-.2 1.3-2.8-.5-2.4Z"/>
  <path fill="#BCBCBC" d="M220.5 184.075c4.6 2 1.4 13.8-3.8 12.1-2.3-2.2-.9-13.6 3.8-12.1Zm-11.4 12.7c0 .1 0 .1 0 0v.2c0 .1.1.3.1.4v.4c.6 2.1 1.6 4 3.1 5.6.7.7 1.5 1.3 2.4 1.7.9.4 2 .7 3 .7 2.8.1 5.5-1.4 7.3-3.3 2.2-2.3 3.7-5.2 4.5-8.2.8-2.9 1.1-5.9.6-8.9-.4-2.4-1.2-4.8-2.7-6.8-.4-.5-.9-1-1.4-1.4-.2-.2-.5-.4-.8-.6-.1-.1-.1-.1-.2-.1-.4-.2-.7-.4-1.1-.6-.2-.1-.5-.2-.8-.3-.4-.1-.7-.2-1.1-.3-2.3-.4-4.7.4-6.5 1.8-1.4 1-2.5 2.3-3.5 3.6-.8 1.1-1.4 2.4-2 3.7-.3.7-.6 1.5-.8 2.2-.1.4-.2.7-.3 1.1 0 .2-.1.4-.1.5v.2c0 .2-.1.4-.1.6-.1.7-.2 1.3-.2 2 .1 2.1.2 3.9.6 5.8Z"/>
  <path fill="#004F77" d="M187.2 326.975c4.9-2.8 9.8-6.6 10.2-12.5 1.1-7.8 1.1-15.7 1.9-23.6.9-8.2 2.3-16.4 3.3-24.7 2.8-17.2 2.9-34.6 5.1-51.9 2.7-14.7 7.5-28.9 11.7-43.3 2.7-9.9 4-21.6-2.6-30.5-7.1-8.6-18.1-14.2-29.3-16-1-.2-2-.3-3-.4-14.9-1.6-29.9 6.1-37.9 18.2-7.5 11.8-5.1 35.7-4.1 49.4 1 21.8 2.8 43.6 3.4 65.4.1 7.4.5 14.8.7 22.1.1 7.8-1.1 15.5-2 23.2-.1.1-.2.2-.3.2-.2.3-.6.5-.9.7-.3.2-.7.5-1 .7-.7.5-1.3.9-2 1.4-.9.7-1.7 1.5-2.5 2.3-.8.8-1.5 1.6-2.1 2.5-.5.7-.9 1.4-1.3 2.1-.2.3-.3.6-.4 1 0 .1-.1.2-.1.3 0 .1 0 .3-.1.4v1c.1.3.1.6.2.9.2.5.3 1 .6 1.5.2.4.4.7.6 1.1l.6.9.6.6c1.1.4 2.3.8 3.5 1.2 2.7.8 5.4 1.4 8.2 1.9 3.4.6 6.9 1.3 10.3 2l5.4 1.2c1.7.4 3.3.8 5 1.2 1.7.4 3.4.7 5.1 1.1 1.7.4 3.4.7 5.1 1 .3.1.7.1 1 .2.6-.1 1.2-.2 1.6-.4 1.7.3 4.4-2.1 5.5-2.4Z"/>
  <path fill="#0078B8" d="M212.9 136.875c-4.4-5.3-10.4-9.5-16.9-12.4l21.1 22.1c-.7-3.5-2-6.8-4.2-9.7ZM178 257.674v-43h-17.1l-18.9-23.4 36-57.6-13-11.6c-9.1 2.8-17.2 8.8-22.3 16.6-7.5 11.8-5.1 35.7-4.1 49.4 1 21.8 2.8 43.6 3.4 65.4 0 .9 0 1.9.1 2.9v31.2c-.4 3.8-.9 7.5-1.4 11.3-.1.1-.2.2-.3.2-.2.3-.6.5-.9.7-.3.2-.7.5-1 .7-.7.5-1.3.9-2 1.4-.9.7-1.7 1.5-2.5 2.3-.8.8-1.5 1.6-2.1 2.5-.5.7-.9 1.4-1.3 2.1-.2.3-.3.6-.4 1 0 .1-.1.2-.1.3 0 .1 0 .3-.1.4v1c.1.3.2.6.2.9.2.5.3 1 .6 1.5.2.4.4.7.6 1.1l.6.9.6.6c1.1.4 2.3.8 3.5 1.2 2.7.8 5.4 1.4 8.2 1.9 3.4.6 6.9 1.3 10.3 2l5.4 1.2c1.7.4 3.3.8 5 1.2 1.7.4 3.4.7 5.1 1.1 1.7.4 3.4.7 5.1 1 .3.1.7.1 1 .2.6-.1 1.2-.2 1.6-.4 1.6-.1 4.3-2.4 5.4-2.8 4.9-2.8 9.8-6.6 10.2-12.5 1.1-7.8 1.1-15.7 1.9-23.6.9-8.2 2.3-16.4 3.3-24.7 1.4-8.4 2.1-16.9 2.7-25.4l-23.3 20.8Zm37.5-90.3c.9-3.4 1.7-7.1 2-10.7l-27.8 18.8 13 44.4c.3-3.1.6-6.1 1-9.2 2.8-14.7 7.5-29 11.8-43.3Z"/>
  <path fill="#F9B024" d="M217.5 156.675c.3-3.4.2-6.8-.4-10.1l-21.1-22.1c-1.5-.7-3-1.2-4.6-1.7l25.5 30.3-34.4 22.4 17.4 55.4-38.6 31.9.5 15.4-10.7-16.5 32.7-30.9-32.7-40.3 34.8-57.1-17.1-12.4c-1.2.2-2.2.5-2.9.7l-.9.3 13 11.6-36 57.6 32 39.6s-30 31-30 31.1l25.9 35.5-2.1-30.8 33.6-29.6c.4-5.8.8-11.5 1.4-17.3l-13-44.4 27.7-18.6Z"/>
  <path fill="#F68926" d="m212 152.575-36.2 25 19.3 51.4-38.6 32.4 32.7-32.4-30.5-40.5 32.7-53-18.1-15.1c-1.6.2-3.1.4-4.4.6l17.1 12.4-34.8 57.1 32.7 40.3-32.7 30.9 10.7 16.5-.5-15.4 38.6-31.9-17.4-55.4 34.4-22.4-25.5-30.3c-.6-.2-1.3-.4-1.9-.6l22.4 30.4Z"/>
  <path fill="#DB2852" d="m173.2 120.474 18.1 15.1-32.7 53 30.5 40.5-32.6 32.3 38.6-32.4-19.3-51.4 36.2-25-22.5-30.4c-.2-.1-.5-.1-.7-.2-1.5-.4-3.6-.8-5.5-1.2h-.1c-.8-.1-1.6-.2-2.3-.3h-.3c-.7-.1-1.4-.1-2.1-.1-1.8-.1-3.6-.1-5.3.1Z"/>
  <path fill="#F68926" d="M217.1 146.574s3.8 2.7 3.9 3.2c.1.5.4 2.1.5 3.5l-4 3.4s.6-3.9-.4-10.1Zm-14.4 73.199 3.6 8.3-.5 6.1-4.5 2.9 1.4-17.3Z"/>
  <path fill="#E6D2C3" d="M203.4 156.174c.6-.6.2-1.5-.5-2.1-.1-.2-.3-.3-.5-.5 1-1.1 1.7-2.5 1.6-4.2-.1-.6-.2-1.2-.5-1.7-.3-.6-.8-1.2-1.3-1.6-.5-.4-1.1-.8-1.7-1.1-.6-.3-1.3-.5-1.9-.6-1.4-.3-2.7-.3-4-.1-1.2.2-2.3.5-3.4 1-.4.2-.7.4-1.1.6 0 0-.1 0-.1.1 0 0-.1 0-.1.1-.1.1-.2.1-.2.2l-.3.3s-.1 0-.1.1c-1.1.9-2.1 2-2.5 3.4-.2.7-.3 1.4-.1 2.2.1.8.5 1.5 1 2.2 1.1 1.3 2.6 2.1 4.2 2.5-.2.2-.2.4-.1.7 0 .2.1.4.2.6.3.7.9 1.3 1.5 1.3.7.2 1.4 0 1.8-.6.4-.5.4-1.2.2-1.8.4 0 .7-.1 1.1-.1v.2c-.9 1.4 3.4 2.8 3.7 0v-1c.4.7 1.8 1 2.7.6.2 0 .4-.1.6-.1-.3-.4-.3-.5-.2-.6Zm-4.7-2.7-.1.1c-.2.1-.4.1-.7.1-.4 0-.8-.3-1.1-.6-.3-.2-.6-.5-.8-.8-.3-.4-.6-.9-.8-1.3-.2-.7-.3-1.3-.2-2 .1-.7.5-1.4 1-1.7.3-.2.5-.3.8-.4.2-.1.4-.1.6-.2h.6c.5 0 1.1.2 1.5.5.4.2.7.5.9.9.1.2.3.5.4.7.1.4.2.9.2 1.3s-.1.7-.3 1.1c-.1.3-.3.6-.4.9-.2.3-.4.6-.6.8-.3.3-.5.4-.9.6.1-.1 0-.1-.1 0Zm-8.8-4.9c.3-.1.7-.1 1.1 0 .4 0 .7.1 1.1.3.5.2.9.5 1.3.9.1.1.3.3.4.5.3.3.5.6.7 1 .3.5.5 1.1.5 1.6 0 .4 0 .8-.2 1.2-.1.3-.4.5-.6.7-.1.1-.2.2-.4.2-.2.1-.4.2-.5.2h-.7c-.2 0-.5-.1-.7-.2-.5-.2-1-.5-1.4-.8-.2-.2-.5-.3-.7-.5l-.6-.6c-.2-.3-.4-.7-.6-1-.1-.3-.2-.5-.3-.8-.1-.4-.1-.7 0-1.1.1-.5.3-.9.7-1.2.2-.1.4-.2.6-.2 0 0 .1 0 .1-.1-.1 0 0-.1.2-.1Z"/>
</svg>
