<svg xmlns="http://www.w3.org/2000/svg" width="250" height="414" fill="none" viewBox="0 0 250 414">
  <path fill="#219AAA" d="m168.758 195.984 16.724-83.197s21.738-5.428 45.276 6.533l-37.694 85.239-24.306-8.575Z"/>
  <path fill="#136B7F" d="M231.036 119.503c.4-2.895-9.443-6.643-21.983-8.372-12.54-1.729-23.029-.784-23.428 2.111-.399 2.895 9.443 6.643 21.983 8.372 12.54 1.729 23.029.784 23.428-2.111Z"/>
  <path fill="#C2F23B" d="m212.985 133.136-4.057 12.774c.07.194.117.412.163.63-.046-.218-.069-.218-.046.048 0 .242 0 .266.046.048a9.43 9.43 0 0 1-.163.799c-.443 1.863-1.375 3.581-1.818 5.444-1.049 4.355.28 9.121 3.543 12.097 0 0 .024 0 .047.024l9.058-20.5 6-14c-3.94-.121-8.903 1.765-12.75 2.636h-.023Zm-26.25 43.373c1.932-5.287-2.099-12.09 3.482-15.835 2.91-1.944 5.891-3.248 7.083-6.851 1.145-3.461.048-7.206-2.242-9.956-3.41-4.101-9.611-6.376-14.762-4.812l-8.538 42.242c2.361.166 4.65 1.351 7.083 1.256 3.792-.142 6.63-2.607 7.894-6.044Zm15.339-14.587c-.609-.562-1.344-.894-2.18-.919-1.8-.051-3.625.714-4.892 1.991-1.09 1.097-1.774 2.603-2.028 4.135-.177 1.021-.329 2.017-.101 3.038.203.919.811 1.787 1.622 2.272a4.154 4.154 0 0 0 2.129.561c1.09 0 2.155-.332 3.067-.919l3.067-9.189c-.152-.383-.355-.741-.659-1.021l-.025.051Zm5.41-35.583c-4.749-.695-9.078-1.688-12.565-2.78-.717.397-1.385.868-1.929 1.464-.074.075-.173.124-.223.224-1.706 2.085-2.572 4.964-1.608 7.596.94 2.656 2.993 4.691 5.763 5.362 2.696.645 5.937.595 7.792-1.763 1.137-1.44 2.053-3.128 2.572-4.915.272-.943.495-1.936.47-2.929 0-.77-.099-1.514-.297-2.234l.025-.025Zm-13.056 52.22c-4.893 0-4.893 7 0 7h.051l2.279-6.262c-.596-.429-1.346-.715-2.33-.715v-.023Z"/>
  <path fill="#136B7F" d="M214.847 128.559s-3.661 10.836 6.911 11.561l-23.593 53.189-5.407 2.25 22.114-66.976-.025-.024Z" opacity=".4"/>
  <path fill="#136B7F" d="M185.799 114.05c.805 2.537 3.074 4.688 5.099 6.306 6.831 5.437 15.858 7.733 24.323 9.135l-.854-1.499c-6.245 18.438-12.466 36.875-18.712 55.288-.878 2.61-1.756 5.219-2.634 7.805-.488 1.474 1.854 2.102 2.342.652 6.245-18.437 12.466-36.874 18.711-55.287.879-2.61 1.757-5.22 2.635-7.805.195-.58-.219-1.378-.854-1.498-8.026-1.354-16.711-3.408-23.225-8.53-1.659-1.305-3.976-3.649-4.464-5.22-.464-1.474-2.83-.846-2.342.653h-.025Z"/>
  <path fill="#6B3E20" d="M117.818 210.871h74.832c13.015 0 23.564 10.548 23.564 23.564v50.375c0 13.015-10.549 23.564-23.564 23.564h-74.832c-4.849 0-8.791-21.821-8.791-48.745 0-26.924 3.928-48.744 8.791-48.744v-.014Z"/>
  <path fill="#462610" d="M212.824 222.142c.17 1.135.284 2.297.284 3.488v50.375c0 13.015-10.549 23.564-23.564 23.564h-74.832c-.766 0-1.503-.539-2.212-1.56 1.489 6.494 3.374 10.364 5.416 10.364h74.832c13.015 0 23.564-10.548 23.564-23.564v-50.374c0-4.509-1.29-8.706-3.488-12.293Z" opacity=".5"/>
  <path fill="#85593B" d="M195.246 211.013c-1.134 1.29-2.183 3.785-3.119 7.245-2.354 8.748-3.885 23.62-3.885 40.506 0 26.925 3.928 48.745 8.791 48.745h1.956c9.939-2.765 17.255-11.882 17.255-22.699v-50.375c0-12.151-9.202-22.132-20.998-23.422Z"/>
  <path fill="#6B3E20" d="M210.5 217.322c2.439 1.574 4.806 10.548 4.806 10.548l-25.208.809 1.843-11.357s14.66-2.51 18.559 0Z"/>
  <path fill="#00B5B7" d="M220.977 197.728c0-12.718-3.928-23.054-8.791-23.054H113.79c-4.848 0-8.79 10.308-8.79 23.054 0 12.746 3.927 23.053 8.79 23.053h98.396c4.849 0 8.791-10.336 8.791-23.053Z"/>
  <path fill="#69D1CC" d="M116.626 178.275h98.396c.808 0 1.588.312 2.339.851-1.446-2.793-3.232-4.452-5.175-4.452H113.79c-4.848 0-8.79 10.308-8.79 23.054 0 10.605 2.736 19.509 6.437 22.203-2.184-4.197-3.601-10.946-3.601-18.602 0-12.732 3.927-23.054 8.79-23.054Z"/>
  <path fill="#0993AC" d="M212.188 215.975h-98.396c-4.551 0-8.28-9.046-8.734-20.657a67.785 67.785 0 0 0-.042 2.396c0 12.746 3.927 23.053 8.79 23.053h98.396c4.849 0 8.79-10.336 8.79-23.053 0-.808-.014-1.617-.042-2.396-.454 11.597-4.197 20.657-8.734 20.657h-.028Z" opacity=".5"/>
  <path fill="#136B7F" d="M212.826 181.466s-12.051 18.077-9.896 26.045c2.155 7.968 10.548 8.393 11.839 6.678 1.29-1.716 4.948-24.543 3.005-28.839-1.942-4.31-4.948-3.87-4.948-3.87v-.014Z"/>
  <path fill="#136B7F" d="M131.782 219.392c-3.658-9.273-5.303-19.467-3.573-29.363.638-3.63 1.716-7.217 3.417-10.492.652-1.233 1.418-2.424 2.311-3.488.326-.383.666-.765.993-1.063.113-.114.269-.213.397-.312h-.171c-.255.213-.241-.014-.056 0h-4.254c-.978.723-1.9 1.531-2.679 2.41-5.686 6.395-7.288 16.021-7.203 24.273.071 6.65 1.46 13.2 3.757 19.424h6.196c.638-.482 1.007-.978.851-1.389h.014Z" opacity=".5"/>
  <path fill="#C93" d="M132.45 174.66h.028c.028-.028.043-.028.085-.071.426-.468.213-.099.184 0 .043-.042.086-.071.128-.113-.113.142-.142.142-.128.113a.539.539 0 0 1-.099.085h.241c.1 0 .213-.014.284-.014.042 0 .085 0 .142.014h9.953c.737 0 1.446.27 2.126.709.057-.127.071-.241 0-.326-4.48-5.543-12.023-4.225-17.226-.383h4.282v-.014Z"/>
  <path fill="#C93" d="M129.075 219.392c-3.658-9.273-5.303-19.467-3.573-29.363.638-3.63 1.716-7.217 3.417-10.492.652-1.233 1.418-2.424 2.311-3.488.326-.383.666-.765.992-1.063.114-.114.27-.213.397-.312h-.17c-.255.213-.241-.014-.056 0h-4.254c-.978.723-1.9 1.531-2.679 2.41-5.686 6.395-7.288 16.021-7.203 24.273.071 6.65 1.46 13.2 3.757 19.424h6.196c.638-.482 1.007-.978.851-1.389h.014Z"/>
  <path fill="#136B7F" d="m159.187 94.767-.156.354a.72.72 0 0 0 .156-.354Z"/>
  <path fill="#6B3E20" d="M195.969 247.89s1.375 25.69 5.146 26.229c0 0 13.753-5.87 17.213-11.47 0 0 2.637-12.278-1.971-19.481l-20.388 4.736v-.014Z"/>
  <path fill="#136B7F" d="M195.899 219.392c-3.658-9.273-5.302-19.467-3.573-29.363.638-3.63 1.716-7.217 3.417-10.492.652-1.233 1.418-2.424 2.311-3.488.326-.383.667-.765.993-1.063.113-.114.269-.213.397-.312h-.17c-.256.213-.241-.014-.057 0h-4.254c-.978.723-1.899 1.531-2.679 2.41-5.686 6.395-7.288 16.021-7.203 24.273.071 6.65 1.461 13.2 3.757 19.424h6.196c.638-.482 1.007-.978.851-1.389h.014Z" opacity=".5"/>
  <path fill="#C93" d="M196.961 174.66h.029c.028-.028.042-.028.085-.071.425-.468.213-.099.184 0 .043-.042.085-.071.128-.113-.114.142-.142.142-.128.113a.539.539 0 0 1-.099.085h.241c.099 0 .213-.014.284-.014.042 0 .085 0 .141.014h9.953c.738 0 1.447.27 2.127.709.057-.127.071-.241 0-.326-4.48-5.543-12.023-4.225-17.226-.383h4.281v-.014Z"/>
  <path fill="#C93" d="M193.598 219.392c-3.658-9.273-5.302-19.467-3.572-29.363.638-3.63 1.715-7.217 3.416-10.492.653-1.233 1.418-2.424 2.311-3.488.327-.383.667-.765.993-1.063.113-.114.269-.213.397-.312h-.17c-.255.213-.241-.014-.057 0h-4.253c-.979.723-1.9 1.531-2.68 2.41-5.685 6.395-7.288 16.021-7.202 24.273.07 6.65 1.46 13.2 3.757 19.424h6.196c.638-.482 1.006-.978.85-1.389h.014Z"/>
  <path fill="#9E6F4F" d="M193.456 244.771s19.183-.908 22.77-10.336c0 0 4.934 6.678 6.536 5.161 0 0-15.639 15.312-20.105 16.645l-9.216-11.47h.015Z"/>
  <path fill="#583218" d="M193.458 244.771s-1.05 30.426 7.656 29.362c8.705-1.063 1.12.029 1.12.029s.482-22.586-8.776-29.391Z"/>
</svg>
