<svg xmlns="http://www.w3.org/2000/svg" width="250" height="414" fill="none" viewBox="0 0 250 414">
  <path fill="#844A2C" d="m196.913 145.219 5.804-.936 19.655-56.518s6.136-1.571 6.825-2.942c.604-1.207 6.404-14.992 8.622-22.977.684-2.474-.223-5.136-2.314-6.631-1.517-1.087-2.999-1.664-2.999-1.664l-7.614 25.786-10.172 5.49-18.525 59.289.727 1.107-.009-.004Z"/>
  <path fill="#04424C" d="M198.279 140.451s-35.84-13.003-49.061 10.401c-5.72 12.301-1.251 30.172-6.513 33.958-5.326 3.832-63.353 42.901-5.032 79.688 54.168 34.167 96.199-3.765 78.426-46.745-5.792-13.743 1.385-22.38 1.385-22.38s34.61-37.489-19.209-54.922h.004Z"/>
  <path fill="#022023" d="M147.316 218.744c16.127.434 32.3.994 48.401-.193.651-.676 1.579-1.119 2.802-1.119h17.453c-5.539-13.551 1.517-22.054 1.517-22.054s.121-.134.344-.389c-3.893-.109-7.786-.234-11.675-.322-.626.518-1.458.848-2.503.848h-27.248c-15.295 0-30.662-.434-45.941.389-.47.025-.94.05-1.411.079-6.026 5.846-12.368 13.585-15.383 22.41 11.217-.013 22.435.054 33.648.359l-.004-.008Zm56.284-36.671c-2.104 0-3.998-1.111-5.115-2.758H145.19c-.403 2.558-1.108 4.509-2.482 5.499-.617.443-1.94 1.362-3.708 2.691 5.745-.121 11.495-.05 17.24-.05h40.506c.638-.572 1.508-.94 2.616-.936 7.997.013 16.001.393 23.997.548a45.362 45.362 0 0 0 2.264-4.538c-7.341-.18-14.686-.439-22.027-.452l.004-.004Z"/>
  <path fill="#115A6B" d="M187.296 139.014s-33.795-10.806-45.558 13.906c-4.931 12.586-.655 29.943-5.258 33.858-4.616 3.928-52.484 42.136-2.961 75.017 47.511 31.547 86.489-3.652 70.227-45.27-5.358-13.442 1.554-22.347 1.554-22.347s34.786-40.527-18.004-55.164Z"/>
  <path fill="#33818E" d="M123.377 248.432c-1.852-8.959-1.02-18.386.668-27.307 1.659-8.758 6.123-16.3 12.809-22.2 2.991-2.641 6.027-5.156 7.896-8.048.831-1.287 1.176-3.476 1.234-4.926.084-2.022-.05-4.049-.176-6.067-.285-4.63-.453-9.419.983-13.898 1.323-4.116 3.649-7.968 6.866-10.897 9.886-9.005 23.523-9.055 36.038-7.601 9.071 1.057 22.271 3.447 25.593 12.352.059.037.118.071.176.108-2.624-8.219-10.482-16.033-28.171-20.938 0 0-33.795-10.806-45.559 13.906-4.93 12.585-.655 29.943-5.258 33.858-4.342 3.694-46.944 37.715-10.78 69.108-.991-2.407-1.789-4.889-2.319-7.45Z"/>
  <path fill="#D1BC9D" fill-rule="evenodd" d="m187.577 138.055-.01-.003a42.273 42.273 0 0 0-1.497-.422 59.664 59.664 0 0 0-4.058-.901c-3.4-.636-8.07-1.226-13.127-1.028-10.102.395-21.945 3.957-28.054 16.789l-.015.032-.013.033c-2.542 6.489-2.698 14.161-2.821 20.526l-.002.123c-.061 3.173-.115 5.992-.425 8.267-.321 2.357-.885 3.83-1.727 4.546l-.444.374c-3.205 2.688-15.479 12.987-21.603 26.629-3.243 7.224-4.794 15.455-2.305 24.013 2.489 8.558 8.971 17.286 21.486 25.595 24.002 15.937 46.096 15.148 60.175 4.774 14.071-10.369 19.806-30.08 11.537-51.241l-.002-.006c-2.59-6.497-2.205-11.859-1.197-15.583a20.298 20.298 0 0 1 1.705-4.317c.267-.494.5-.869.664-1.116a9.061 9.061 0 0 1 .232-.334l.002-.002.007-.008.078-.094a45.978 45.978 0 0 0 1.327-1.695 61.326 61.326 0 0 0 3.273-4.871c2.469-4.082 5.234-9.726 6.313-15.877 1.082-6.17.472-12.899-3.884-19.029-4.341-6.108-12.3-11.479-25.615-15.174Zm16.961 55.472.004-.005.016-.019.068-.081a42.3 42.3 0 0 0 1.261-1.612 59.252 59.252 0 0 0 3.164-4.71c2.404-3.974 5.036-9.377 6.055-15.188 1.016-5.791.424-11.939-3.545-17.524-3.982-5.605-11.467-10.787-24.536-14.41l-.019-.006-.018-.005v-.001l-.003-.001-.016-.004-.067-.021a38.132 38.132 0 0 0-1.337-.374 56.73 56.73 0 0 0-3.921-.871c-3.304-.618-7.817-1.186-12.68-.996-9.727.38-20.653 3.766-26.312 15.619-2.376 6.09-2.547 13.375-2.67 19.802l-.004.209c-.059 3.101-.115 6.02-.441 8.412-.326 2.392-.953 4.557-2.413 5.799l-.648-.762.648.762-.443.373c-3.207 2.695-15.15 12.728-21.075 25.926-3.11 6.928-4.529 14.66-2.209 22.636 2.32 7.977 8.425 16.355 20.671 24.486l-.515.777.515-.777c23.509 15.611 44.66 14.574 57.882 4.831 13.23-9.749 18.854-28.445 10.862-48.9l.002.003.928-.37-.931.364.001.003c-2.767-6.945-2.375-12.754-1.267-16.843a22.347 22.347 0 0 1 1.875-4.745c.298-.55.563-.976.756-1.269.097-.146.176-.259.233-.338l.067-.092.02-.026.007-.009.002-.003.001-.001s.001-.001.791.612l-.79-.613.015-.019.016-.019Z" clip-rule="evenodd"/>
  <path fill="#073D3C" d="m143.563 218.522 33.358 9.473a1.598 1.598 0 0 1 1.079 2.056l-.932 2.703a1.61 1.61 0 0 1-1.882 1.036l-4.724-1.094c-.471-.109-.962 0-1.344.292l-2.902 2.231c-.403.31-.924.41-1.415.276l-16.098-4.483a1.599 1.599 0 0 1-1.125-1.158l-1.004-4.053a1.592 1.592 0 0 0-.949-1.095l-3.696-1.504a1.593 1.593 0 0 1-.907-2.01l.588-1.659a1.604 1.604 0 0 1 1.953-1.002v-.009Z"/>
  <path fill="#054049" d="M166.837 218.76c8.747 0 15.837-7.054 15.837-15.757 0-8.702-7.09-15.757-15.837-15.757-8.746 0-15.837 7.055-15.837 15.757 0 8.703 7.091 15.757 15.837 15.757Z"/>
  <path fill="#331E06" d="m169.125 173.524 36.054-92.796s-5.031-1.675-4.304-6.004c.726-4.329 7.483-24.716 12.183-25.075 4.699-.36 19.768 1.93 20.856 5.528 1.083 3.598-4.057 22.163-7.514 25.907-1.91 2.068-7.194 3.321-7.194 3.321l-34.215 94.493c-.793 2.198-3.179 3.384-5.426 2.707l-7.618-2.306c-2.448-.74-3.746-3.397-2.826-5.771l.004-.004Z"/>
  <path fill="#D1BC9D" d="M151.457 226.562a1.79 1.79 0 0 0 1.794-1.785 1.79 1.79 0 0 0-1.794-1.784c-.99 0-1.793.799-1.793 1.784a1.79 1.79 0 0 0 1.793 1.785Zm7.582 2.227a1.79 1.79 0 0 0 1.794-1.785 1.79 1.79 0 0 0-1.794-1.784c-.99 0-1.793.799-1.793 1.784a1.79 1.79 0 0 0 1.793 1.785Zm45.266-170.723c.832-2.358.198-4.727-1.417-5.291-1.615-.565-3.599.89-4.432 3.248-.832 2.358-.198 4.727 1.418 5.291 1.615.564 3.599-.89 4.431-3.248Zm-4.215 11.946c.832-2.358.198-4.727-1.417-5.291-1.615-.565-3.599.89-4.432 3.248-.832 2.358-.197 4.727 1.418 5.29 1.615.565 3.599-.889 4.431-3.247Zm-33.473 160.899c.991 0 1.794-.798 1.794-1.784a1.79 1.79 0 0 0-1.794-1.784c-.99 0-1.793.799-1.793 1.784 0 .986.803 1.784 1.793 1.784Zm77.465-162.303c.832-2.358.198-4.727-1.417-5.291-1.615-.564-3.599.89-4.431 3.248-.833 2.358-.198 4.727 1.417 5.291 1.615.565 3.599-.89 4.431-3.248Zm-4.5 12.741c.832-2.358.198-4.727-1.417-5.291-1.615-.565-3.599.89-4.431 3.247-.833 2.358-.198 4.727 1.417 5.292 1.615.564 3.599-.89 4.431-3.248Zm-13.679-4.638c.497-1.409.118-2.824-.847-3.161-.965-.337-2.151.531-2.648 1.94-.497 1.409-.118 2.824.847 3.161.965.338 2.151-.531 2.648-1.94Zm4.273-12.107c.498-1.408.118-2.824-.847-3.16-.965-.338-2.15.53-2.647 1.94-.498 1.408-.118 2.823.847 3.16.965.338 2.15-.53 2.647-1.94ZM211.88 60.71c.497-1.408.118-2.824-.848-3.16-.965-.338-2.15.53-2.647 1.94-.498 1.408-.118 2.824.847 3.16.965.338 2.15-.53 2.648-1.94Zm-3.789 10.736c.497-1.409.117-2.824-.848-3.161-.965-.337-2.15.531-2.647 1.94-.498 1.409-.118 2.824.847 3.161.965.337 2.15-.531 2.648-1.94Z"/>
  <path fill="#D1BC9D" fill-rule="evenodd" d="M224.628 51.906c-4.449-.968-9.283-1.43-11.493-1.26-.251.019-.662.193-1.233.733-.554.523-1.156 1.291-1.787 2.272-1.259 1.957-2.54 4.612-3.715 7.431-2.355 5.654-4.194 11.752-4.539 13.807-.282 1.684.521 2.859 1.529 3.688a7.5 7.5 0 0 0 2.075 1.192l.029.01h.003l.001.001.994.331-36.482 93.896a3.378 3.378 0 0 0 2.227 4.334l7.617 2.307c1.744.525 3.586-.398 4.197-2.09l34.399-95.001.526-.125h.002l.009-.002.039-.01.161-.04a28.496 28.496 0 0 0 2.556-.798c1.561-.573 3.148-1.338 3.923-2.177.73-.79 1.643-2.498 2.594-4.822.934-2.28 1.855-5.028 2.638-7.781.784-2.754 1.423-5.491 1.799-7.75.188-1.13.307-2.125.348-2.933.043-.837-.005-1.377-.088-1.654-.051-.166-.223-.436-.67-.782-.436-.338-1.051-.682-1.829-1.022-1.554-.677-3.615-1.273-5.83-1.755Zm-4.66 33.336.368-.103a30.468 30.468 0 0 0 2.096-.68c1.558-.572 3.568-1.468 4.703-2.697.999-1.082 2.025-3.099 2.976-5.421.968-2.366 1.912-5.186 2.711-7.992.798-2.805 1.457-5.618 1.848-7.969.195-1.174.327-2.25.373-3.16.045-.882.016-1.71-.171-2.331l-.001-.002c-.221-.733-.758-1.32-1.361-1.786-.614-.476-1.392-.897-2.253-1.273-1.724-.752-3.928-1.381-6.204-1.876-4.532-.986-9.582-1.49-12.071-1.3-.925.07-1.753.612-2.453 1.273-.718.678-1.421 1.595-2.096 2.644-1.352 2.101-2.686 4.88-3.879 7.744-2.38 5.712-4.284 11.972-4.665 14.245-.444 2.645.905 4.473 2.231 5.564.632.52 1.279.894 1.779 1.142l-35.629 91.701-.005.005-.076.197c-1.131 2.918.465 6.181 3.469 7.089l7.618 2.306.001.001c2.75.828 5.679-.622 6.655-3.326l34.036-93.995Z" clip-rule="evenodd"/>
  <path fill="#03281C" fill-rule="evenodd" d="M166.837 190.246c-7.104 0-12.837 5.726-12.837 12.757s5.733 12.757 12.837 12.757 12.837-5.726 12.837-12.757-5.733-12.757-12.837-12.757ZM148 203.003c0-10.373 8.448-18.757 18.837-18.757s18.837 8.384 18.837 18.757c0 10.374-8.448 18.757-18.837 18.757S148 213.377 148 203.003Z" clip-rule="evenodd"/>
</svg>
