<svg xmlns="http://www.w3.org/2000/svg" width="250" height="414" fill="none" viewBox="0 0 250 414">
  <path fill="#5FB366" d="M121.754 321.571s85.749 5.265 97.308-70.89c7.6-50.085-6.588-98.318-80.685-100.923l-16.623 171.813Z"/>
  <path fill="#EFAE42" d="M181.733 238.033c4.449-46.02-18.15-85.858-50.476-88.981-32.326-3.123-62.139 31.652-66.588 77.672-4.449 46.021 18.15 85.859 50.476 88.982 32.326 3.122 62.138-31.653 66.588-77.673Z"/>
  <path fill="#DF8F3E" d="M86.4 238.041c3.816-42.391 29.36-74.423 57.058-71.546 11.24 1.168 21.114 7.911 28.617 18.339-7.785-16.418-20.149-27.506-34.873-29.035-27.697-2.877-53.242 29.155-57.058 71.546-2.268 25.183 3.65 48.358 14.632 63.625-6.86-14.468-10.16-33.075-8.372-52.934l-.004.005Z"/>
  <path fill="#DF8F3E" d="M166.619 166.666c7.239 15.115 10.723 34.553 8.833 55.294-4.024 44.284-30.991 77.743-60.227 74.737-11.869-1.219-22.283-8.262-30.202-19.161 8.215 17.152 21.271 28.73 36.809 30.332 29.235 3.007 56.198-30.452 60.227-74.737 2.393-26.31-3.849-50.519-15.44-66.465Z"/>
  <path fill="#328559" d="M126.366 324.693c-1.627 0-3.258-.079-4.893-.236-18.333-1.773-34.415-13.3-45.281-32.466-10.345-18.237-14.77-41.444-12.46-65.343 2.31-23.895 11.101-45.827 24.754-61.746 14.34-16.728 32.331-24.962 50.668-23.189 18.332 1.774 34.415 13.301 45.281 32.467 10.345 18.237 14.771 41.444 12.461 65.343-2.31 23.895-11.102 45.827-24.755 61.746-13.061 15.236-29.157 23.429-45.775 23.429v-.005Zm7.974-167.047c-11.86 0-23.669 6.221-33.579 17.776-11.504 13.421-18.942 32.166-20.933 52.782-1.992 20.616 1.709 40.437 10.427 55.811 8.196 14.451 19.834 23.096 32.775 24.348 12.941 1.251 26.02-5.006 36.831-17.619 11.504-13.42 18.943-32.166 20.934-52.782 1.991-20.616-1.71-40.437-10.428-55.811-8.196-14.451-19.834-23.096-32.775-24.348a33.48 33.48 0 0 0-3.257-.157h.005Zm79.933 34.004s-4.352 5.907-1.746 14.774c2.605 8.867 7.831 10.23 7.831 10.23s-.342-3.182-.485-6.18c-.144-2.997-2.001-16.69-2.726-17.281-2.532-2.06-2.879-1.543-2.879-1.543h.005Zm2.555 69.717s-7.494-2.47-8.543-9.435c-1.238-8.216.416-14.58 4.879-17.207 5.1-3.007 8.519-2.222 8.519-2.222s-1.03 1.986-1.025 3.201c.004 3.39 1.552 16.935-1.303 19.803-1.645 1.653-2.523 5.86-2.523 5.86h-.004Zm-8.478-45.138s6.777-1.312 7.697 2.992c.919 4.304-2.098 7.168-4.833 7.657-2.735.49-8.727-6.253-2.869-10.649h.005Zm-10.567-46.22s-5.345 5.907-3.954 9.338c1.39 3.432 6.089 14.035 10.09 14.211 4.001.175 8.783-5.09 8.783-5.09s-.832-2.032-1.788-4.465c-.957-2.434-7.984-13.093-10.844-13.897-.891-.249-2.287-.101-2.287-.101v.004Zm2.218 88.966s4.305-2.868 6.652-1.044c2.347 1.825 5.253 4.434 4.39 6.909-.864 2.476-8.695 5.607-11.957 4.692-3.262-.914-1.548-9.352.915-10.562v.005Z"/>
  <path fill="#EFAE42" d="M213.488 190.011s-4.352 5.907-1.746 14.774c2.605 8.867 8.343 9.421 8.343 9.421s.938-1.857.795-4.854c-.143-2.997-2.532-16.044-4.518-17.794-2.449-2.157-2.879-1.543-2.879-1.543l.005-.004Zm3.769 69.708s-8.704-2.466-9.753-9.431c-1.238-8.216.416-14.58 4.879-17.207 5.1-3.007 8.519-2.222 8.519-2.222s2.061 1.529 2.061 2.739c.004 3.39-1.045 21.775-3.9 24.643-1.644 1.653-1.806 1.478-1.806 1.478Zm-9.688-45.13s6.777-1.311 7.697 2.993c.919 4.304-2.098 7.167-4.833 7.657-2.735.489-8.727-6.253-2.869-10.65h.005Z"/>
  <path fill="#F6CB8A" d="M213.994 235.011c3.238-1.321 6.001-1.82 8.935-.055.018-.568.028-1.03.028-1.354 0-1.21-2.061-2.738-2.061-2.738s-3.419-.781-8.519 2.221c-1.793 1.058-3.128 2.73-4.006 4.872 1.686-1.265 3.659-2.142 5.627-2.946h-.004Zm-7.471-15.965c.998-1.349 2.564-2.208 4.145-2.697 1.145-.351 2.591-.499 3.899-.259-1.987-2.466-7-1.501-7-1.501-2.735 2.051-2.887 4.614-1.991 6.715.143-.785.421-1.547.952-2.258h-.005Z"/>
  <path fill="#EFAE42" d="M196.998 168.365s-5.345 5.907-3.955 9.338c1.391 3.432 6.09 14.035 10.091 14.211 4.001.175 8.782-5.09 8.782-5.09s.957-.651 0-3.085c-.956-2.433-9.771-14.473-12.631-15.277-.892-.249-2.287-.101-2.287-.101v.004Z"/>
  <path fill="#F6CB8A" d="M220.883 209.347c-.144-2.997-2.532-16.043-4.519-17.794-2.448-2.156-2.878-1.542-2.878-1.542s-1.164 1.588-1.931 4.346c1.76-.125 3.363.928 4.236 2.604 1.068 2.051 1.299 4.905 1.802 7.145.702 3.122.92 6.313 1.34 9.476.014.111.023.222.028.328.688.25 1.127.291 1.127.291s.938-1.856.795-4.854Zm-8.967-25.603c-.956-2.434-9.771-14.474-12.631-15.277-.892-.25-2.287-.102-2.287-.102s-4.241 4.692-4.181 8.142c1.608-3.417 6.246-4.466 9.139-1.644 1.797 1.755 3.123 4.078 4.393 6.221 1.368 2.309 2.994 4.517 4.246 6.886.019.037.032.074.051.111.79-.721 1.27-1.252 1.27-1.252s.957-.651 0-3.085Z"/>
  <path fill="#EFAE42" d="M199.219 257.331s4.306-2.868 6.653-1.044c2.347 1.825 5.253 4.434 4.389 6.909-.864 2.476-8.695 5.607-11.956 4.692-3.262-.914-1.548-9.352.914-10.562v.005Z"/>
  <path fill="#328559" d="M189.873 302.031s-4.218-8.317-2.135-13.143c2.084-4.826 8.769-13.028 8.769-13.028l-.679 22.546-5.955 3.621v.004Z"/>
  <path fill="#EFAE42" d="M193.007 299.523s-3.091-4.161-2.569-9.55c.522-5.39 5.738-17.91 13.047-18.602 7.309-.693 9.666.711 9.666.711s.767 1.03.767 2.42c0 1.164-4.87 15.974-12.308 23.317-2.26 2.231-5.651 2.873-8.603 1.704Z"/>
  <path fill="#F6CB8A" d="M207.276 257.276a30.748 30.748 0 0 0-1.322-1.076c-2.347-1.825-6.653 1.043-6.653 1.043-1.21.596-2.24 2.938-2.582 5.274 2.453-2.895 6.606-4.803 10.557-5.241Zm-9.946 23.659c4.726-4.009 10.496-7.74 16.595-6.064.051-.217.078-.378.078-.462 0-1.39-.766-2.419-.766-2.419s-2.361-1.409-9.666-.712c-5.853.559-10.363 8.696-12.192 14.686 2.005-1.889 4.218-3.556 5.96-5.034l-.009.005Z"/>
  <path fill="#DF8F3E" d="M169.479 181.033c-23.183-3.764-34.895-5.325-47.443-5.232-9.148.069-23.327 5.135-23.47 5.186l-.629-1.737c.592-.212 14.618-5.227 24.085-5.297 12.691-.092 23.23 1.27 46.52 5.057l.937 2.023Zm-52.676 61.63c-5.946 0-11.333-.18-15.893-.508-13.09-.937-20.301-5.486-20.601-5.68l.998-1.556c.069.046 7.156 4.489 19.737 5.394 18.595 1.334 51.121.175 78.596-5.519l.375 1.81c-20.916 4.337-44.746 6.059-63.212 6.059Zm10.084-36.378c-20.785 0-40.231-.217-41.871-.235l.018-1.847c.832.009 83.157.923 92.693-.989l.365 1.811c-5.036 1.006-28.894 1.256-51.205 1.256v.004Zm-2.087 68.383c-6.075 0-11.499-.369-16.091-.877-15.422-1.709-25.124-5.339-25.217-5.376l.656-1.727c.093.037 9.629 3.597 24.833 5.274 14.022 1.547 35.88 1.764 60.371-5.99l.559 1.759c-16.803 5.321-32.387 6.937-45.106 6.937h-.005Z"/>
  <path fill="#3A9360" d="M98.311 163.271c18.984-16.833 46.095-20.532 46.649-20.685-.041-.009-.088-.018-.129-.028l-3.9-.678a44.307 44.307 0 0 0-1.774-.204c-18.337-1.768-36.327 6.466-50.668 23.189-13.653 15.919-22.44 37.846-24.755 61.746-1.011 10.478-.73 20.823.777 30.674.018-.125-3.308-61.113 33.8-94.018v.004Z"/>
</svg>
