<svg xmlns="http://www.w3.org/2000/svg" width="251" height="415" fill="none" viewBox="0 0 251 415">
  <path fill="#7CB3D1" d="M115.547 274.417s-34.027-11.012-41.238 4.048c-7.206 15.06-3.445 24.23-6.29 26.386-2.846 2.156-8.135.504-7.422 2.895.712 2.392 4.332 6.143 6.361 2.173 2.03-3.969 6.477-1.041 7.629-.673 1.151.367 31.956 24.684 40.956-34.833l.004.004Z"/>
  <path fill="#7BC6D2" d="M35.03 173.057a40.106 40.106 0 0 0-.05-.446c.021.141.038.285.05.446Z"/>
  <path fill="#E4D1E4" d="M80.09 213.388c7.165 5.118 12.537 14.007 16.422 22.921-3.753-8.067-9.046-16.444-16.43-22.925h.004l.004.004Zm-16.152.158c1.29-.227 2.11-1.691 1.832-3.27-.28-1.58-1.552-2.676-2.843-2.449-1.29.227-2.11 1.691-1.832 3.271.28 1.579 1.552 2.675 2.843 2.448Z"/>
  <path fill="#B0DADF" d="M34.969 172.545s.004.042.008.062c0-.02-.004-.037-.008-.058v-.008.004Z"/>
  <path fill="#CAE6EA" d="M41.048 189.109c8.01 12.255 15.858 1.082 40.716 14.271 21.88 11.611 31.849 59.137 33.783 71.037-3.164-10.83-16.74-50.876-26.742-60.248-10.847-10.161-26.527-14.68-32.59-15.006-6.064-.327-12.98-.975-17.246-10.438-4.208-9.331-4.005-15.717-3.997-15.895 0 .021.005.037.009.058.016.136.033.285.05.446.223 2.33.285 7.006 6.017 15.775Z"/>
  <path fill="#7BC6D2" d="M88.856 214.136c-11.025-9.971-26.527-14.68-32.59-15.007-6.064-.326-12.98-.974-17.246-10.437-4.208-9.331-4.005-15.717-3.997-15.895-.128-.896-.385-1.338-1.317-1.487-3.147-.491-7.579 11.107-4.021 26.043 2.87 12.033 8.88 8.311 6.817 13.953 0 0 .737 22.004 6.316 28.406l5.583 6.402s2.282 14.486 7.537 21.661c2.415 3.292 15.386 13.85 37.635 11.995 12.102-1.177 17.8-4.539 21.155-6.53-.016-.12-12.035-46.593-25.872-59.104Z"/>
  <path fill="#B0DCF2" d="M35.698 228.13a41.11 41.11 0 0 1-.249-1.483c.07.438.141.884.224 1.343l.025.14Z"/>
  <path fill="#C49DC4" d="M85.225 214.632c-7.923-8.204-18.617-13.458-32.93-11.178a4.071 4.071 0 0 0-1.702.711 31.312 31.312 0 0 0-4.121 3.474c-2.99 3.007-6.183 7.521-5.935 12.969.514 11.26 4.87 18.361 15.274 25.399-.327-.252-.476-.388-.476-.388s-8.453-16.927-2.92-22.342c5.533-5.411 22.037 6.258 22.037 6.258s-5.727-7.873-5.84-13.863c-.111-5.952 16.426-1.094 16.617-1.04h-.004Zm-36.4 6.29c-1.293.228-2.564-.867-2.842-2.445-.277-1.578.543-3.044 1.83-3.271 1.293-.227 2.564.867 2.842 2.449.277 1.578-.543 3.04-1.83 3.267Z"/>
  <path fill="#B0DCF2" d="M60.176 248.754s-.004 0-.008-.004c.522.285 1.09.582 1.706.896a22.53 22.53 0 0 1-1.698-.892Zm.913 16.506c-2.634-2.462-5.276-13.09-5.276-13.09 25.512 12.532 50.634 18.468 50.634 18.468-6.042 6.224-37.953 1.557-45.362-5.374l.004-.004Zm-5.273-19.257a83.526 83.526 0 0 0 4.357 2.747c-2.327-1.272-3.698-2.243-4.357-2.747Zm50.366 16.547.227.281c-23.971-4.346-37.506-9.624-44.534-13.181 10.408 4.986 39.569 12.107 43.95 13.057.145.033.274-.033.357-.153v-.004Z"/>
  <path fill="#E4D1E4" d="M98.936 236.581c-3.202-7.674-6.56-15.977-13.709-21.954-.19-.053-16.728-4.915-16.616 1.041.112 5.99 5.84 13.862 5.84 13.862s-16.504-11.668-22.037-6.257c-5.534 5.411 2.92 22.342 2.92 22.342s.148.136.476.388a83.526 83.526 0 0 0 4.356 2.747c.522.285 1.086.586 1.707.896 15.473 7.786 39.568 12.107 43.95 13.057.145.033.274-.033.356-.153a.646.646 0 0 0 .108-.351c-.526-2.763-2.862-14.176-7.355-25.618h.004Zm.223 17.89c-3.648-.74-22.803-4.66-27.794-6.37-5.52-1.891-11.19-10.838-7.546-14.353 3.645-3.515 17.648 4.378 17.648 4.378s-7.521-17.39-4.076-18.86c3.45-1.47 8.192 2.297 8.192 2.297 4.225.826 14.181 33.027 14.181 33.027s-.215-.041-.605-.119Zm-60.567-61.686c-2.415-5.283-4.365-6.968-5.347-12.854a.547.547 0 0 0-.045-.153c-.133-.318-.477-.372-.613-.037-1.048 2.524-3.223 9.273.116 15.94 1.014 2.023 2.754 3.164 4.419 2.75.352-.086.712-.384 1.023-.813.79-1.087 1.259-3.057.447-4.833Zm12.063 24.866c.278 1.578-.542 3.044-1.83 3.267-1.288.223-2.564-.867-2.841-2.445-.278-1.578.542-3.044 1.83-3.267 1.292-.228 2.564.867 2.841 2.445Z"/>
  <path fill="#B0DCF2" d="M96.933 255.47s-.269-.037-.75-.111c.481.07.746.107.75.107v.004Zm10.133 26.989s-25.18 2.487-26.377 6.159c0 0-3.508 3.672-2.854 7.009.535 2.726 10.139.562 13.643-.322-2.05 2.805-5.438 8.026-3.964 10.207 2.063 3.052 9.215.136 11.278-3.573 1.805-3.247 6.792-15.746 8.005-18.803.17-.433.265-.673.269-.677Z"/>
  <path fill="#fff" d="m40.274 191.294 1.23-.909c.369-.273.638-.657.77-1.099l.435-1.462a.267.267 0 0 1 .468-.083l.912 1.227a2.13 2.13 0 0 0 1.101.769l1.466.433a.266.266 0 0 1 .083.467l-1.23.909a2.116 2.116 0 0 0-.77 1.098l-.435 1.463a.266.266 0 0 1-.468.082l-.911-1.226a2.124 2.124 0 0 0-1.102-.769l-1.466-.433a.266.266 0 0 1-.083-.467Zm-11.8-19.244 1.23-.909c.368-.273.637-.657.77-1.099l.435-1.462a.267.267 0 0 1 .468-.083l.91 1.227c.274.368.66.636 1.102.768l1.467.434a.265.265 0 0 1 .082.467l-1.23.909a2.116 2.116 0 0 0-.77 1.098l-.435 1.463a.266.266 0 0 1-.468.082l-.91-1.227a2.128 2.128 0 0 0-1.103-.768l-1.466-.434a.265.265 0 0 1-.082-.466Zm11.485 67.262.526-.389a.112.112 0 0 0-.033-.198l-.63-.186a.933.933 0 0 1-.472-.33l-.39-.525a.114.114 0 0 0-.157-.025.118.118 0 0 0-.04.058l-.187.628a.932.932 0 0 1-.332.471l-.526.388a.112.112 0 0 0 .033.198l.63.186c.19.058.352.174.472.331l.39.524a.113.113 0 0 0 .198-.033l.187-.628a.925.925 0 0 1 .331-.47Zm30.935 37.662.588-.289a.111.111 0 0 0 .05-.153c-.012-.021-.029-.042-.05-.05l-.584-.297a.928.928 0 0 1-.405-.409l-.29-.587a.111.111 0 0 0-.154-.049.115.115 0 0 0-.05.049l-.297.583a.921.921 0 0 1-.41.404l-.589.29a.11.11 0 0 0-.05.152c.013.021.03.042.05.05l.584.297a.908.908 0 0 1 .406.409l.29.587a.111.111 0 0 0 .153.049c.021-.012.042-.028.05-.049l.298-.583a.92.92 0 0 1 .41-.404Z"/>
  <path fill="#52A9B2" d="M109.902 276.577s35.853-11.045 42.55 4.246c6.697 15.292 1.557 23.33 4.332 25.581 2.771 2.251 9.182 1.78 8.391 4.143-.791 2.363-4.535 5.993-6.428 1.962-1.892-4.032-6.44-1.256-7.604-.925-1.163.33-45.01 6.026-41.241-35.003v-.004Z"/>
  <path fill="#8ECCD6" d="M210.004 160.81c-1.354.24-1.648.732-1.669 1.69.046.186.762 7.005-3.669 17.253-4.494 10.393-13.833 11.21-22.758 12.103-8.929.892-31.663 7.538-45.777 19.26-13.017 10.81-23.636 53.722-26.229 65.465-.033.748 37.95 5.453 38.658 5.453 24.642-2.693 44.253-13.503 47.176-17.187 6.399-8.059 6.975-23.59 6.975-23.59l7.032-7.274c7.033-7.274 3.86-30.616 3.86-30.616-4.15-5.782 5.48-2.387 7.401-15.373 2.382-16.114-6.436-27.985-11.004-27.184h.004Z"/>
  <path fill="#B0DCF2" d="M187.58 262.529c3.226-2.614 7.492-14.737 7.492-14.737-20.517 12.841-75.517 21.929-75.517 21.929 20.48 2.379 58.947.161 68.025-7.192Z"/>
  <path fill="#7BC6D2" d="M188.903 148.518c-.033-.165-.058-.322-.083-.471.021.145.05.302.083.471Z"/>
  <path fill="#B0DADF" d="M188.805 147.981c0 .021.008.045.012.066a.254.254 0 0 0-.008-.058v-.008h-.004Z"/>
  <path fill="#B0DCF2" d="M207.49 204.644c-.042-.537-.1-1.066-.166-1.586.054.462.108.941.158 1.433l.012.153h-.004Z"/>
  <path fill="#E4D1E4" d="M176.839 205.509c.107-1.693-1.393-3.167-3.352-3.291-1.958-.124-3.633 1.149-3.741 2.843-.108 1.694 1.393 3.167 3.351 3.291 1.959.124 3.634-1.149 3.742-2.843Z"/>
  <path fill="#B0DADF" d="M202.214 180.125c-9.501 13.684-23.301 2.573-57.593 18.761-30.188 14.25-34.155 64.924-34.719 77.687 2.593-11.739 13.357-54.829 26.374-65.638 14.114-11.723 36.479-17.919 45.404-18.811 8.929-.892 19.051-2.202 23.545-12.594 4.431-10.248 3.106-17.208 3.114-17.038.12 2.482.675 7.835-6.121 17.629l-.004.004Z"/>
  <path fill="#C49DC4" d="M209.115 213.69c-.688-5.783-6.291-10.273-11.311-13.185a53.567 53.567 0 0 0-6.78-3.3 8.183 8.183 0 0 0-2.663-.595c-21.656-1.124-36.487 5.399-46.646 14.787.269-.074 23.843-6.704 24.829-.396.989 6.344-5.973 15.188-5.973 15.188s22.203-13.829 31.456-8.604c9.252 5.225 0 23.895 0 23.895s-.195.157-.63.454c14.057-8.385 19.138-16.282 17.718-28.24v-.004Zm-8.474-1.764c-.108 1.694-1.781 2.97-3.74 2.846-1.959-.124-3.458-1.599-3.35-3.292.107-1.694 1.781-2.97 3.74-2.846 1.959.124 3.458 1.598 3.35 3.292Z"/>
  <path fill="#B0DCF2" d="M185.461 245.235s.009-.005.013-.009c-.717.347-1.5.715-2.357 1.103a35.2 35.2 0 0 0 2.344-1.094Zm5.938-3.305a119.676 119.676 0 0 1-5.922 3.296c3.205-1.557 5.052-2.705 5.922-3.296Zm-71.461 22.041-.282.318c34.69-6.758 53.733-13.561 63.462-17.956-14.467 6.213-56.309 16.374-62.621 17.77a.665.665 0 0 1-.559-.132Z"/>
  <path fill="#D9C0DA" d="M192.03 217.585c-9.253-5.225-31.456 8.604-31.456 8.604s6.966-8.844 5.972-15.188c-.985-6.308-24.559.322-24.828.396-9.368 7.237-12.727 16.08-16.07 24.457-5.334 13.375-5.926 25.523-6.875 29.224-.029.107 28.482-5.754 49.066-12.417 15.241-4.932 24.186-11.181 24.186-11.181s9.253-18.666 0-23.895h.005Zm-23.276 27.972c-7.066 2.259-34.706 8.129-39.97 9.24-.555.115-.87.182-.87.182s8.519-34.961 14.62-36.213c0 0 6.303-4.411 11.7-3.168 5.396 1.243-2.386 20.314-2.386 20.314s19.229-9.608 25.309-6.221c6.08 3.387-.588 13.363-8.407 15.862l.004.004Z"/>
  <path fill="#E4D1E4" d="M212.653 168.816c-.327-.38-.919-.232-1.073.194a.647.647 0 0 0-.037.202c-.236 7.567-3.255 10.136-6.183 17.295-.986 2.408.348 4.75 2.025 5.919.658.458 1.371.743 2.017.768 3.048.12 5.835-1.714 7.111-4.478 4.204-9.103-1.358-17.005-3.86-19.9Zm-19.105 42.66c-.107 1.693 1.392 3.168 3.351 3.292 1.959.124 3.632-1.149 3.74-2.846.107-1.698-1.392-3.168-3.351-3.292-1.959-.124-3.632 1.148-3.74 2.846Z"/>
  <path fill="#B0DCF2" d="m127.914 254.979.87-.182-.87.182Z"/>
  <path fill="#93CADF" d="M138.619 306.21c.883-3.858-7.604-12.59-7.604-12.59.013 0 11.054 1.697 11.655-2.181 1.723-11.144-26.146-7.472-26.158-7.472 0 0 2.489 14.601 11.927 20.417 3.98 2.449 9.298 5.684 10.176 1.826h.004Z"/>
  <path fill="#fff" d="m116.653 228.114 1.409-.595a2.122 2.122 0 0 0 1.006-.884l.77-1.322a.266.266 0 0 1 .365-.095.298.298 0 0 1 .112.124l.596 1.404c.178.422.489.773.886 1.004l1.321.768c.129.075.17.236.096.364a.292.292 0 0 1-.125.111l-1.408.595a2.122 2.122 0 0 0-1.006.884l-.77 1.318a.266.266 0 0 1-.365.095.297.297 0 0 1-.112-.124l-.596-1.405a2.114 2.114 0 0 0-.886-1.003l-1.322-.769a.264.264 0 0 1-.095-.363.297.297 0 0 1 .124-.112v.005Zm64.086-39.096 1.408-.595a2.114 2.114 0 0 0 1.007-.884l.77-1.322a.266.266 0 0 1 .365-.095.295.295 0 0 1 .111.124l.597 1.405c.178.421.489.772.886 1.003l1.321.769c.129.074.17.235.096.363a.294.294 0 0 1-.125.112l-1.408.594a2.122 2.122 0 0 0-1.006.884l-.771 1.318a.265.265 0 0 1-.364.095.291.291 0 0 1-.112-.124l-.596-1.404a2.111 2.111 0 0 0-.886-1.004l-1.322-.768a.265.265 0 0 1-.095-.364.295.295 0 0 1 .124-.111v.004Z"/>
  <path fill="#E4D1E4" d="M124.247 260.241c-.013.442-.013.677-.013.677l.261-.33a.643.643 0 0 1-.248-.347Zm-16.457 1.665c.004.441 0 .677 0 .677l-.216-.335a.696.696 0 0 0 .216-.342Z"/>
</svg>
