<svg data-testid="body-svg" width="250" height="414" viewBox="0 0 230 380" fill="FFFFFF" xmlns="http://www.w3.org/2000/svg" class="transition-all"><path fill="#3D5E2E" d="M178.471 269.902L171.047 221.043L163.871 191.479C163.135 
 188.44 161.92 185.595 160.32 183.025C160.292 182.988 160.274 182.952 160.246 
 182.915C158.562 180.253 156.456 177.885 154.018 175.921C153.972 175.884 153.926 175.847 
 153.88 175.81C153.484 175.498 153.079 175.186 152.665 174.893C152.656 174.893 152.647 
 174.893 152.638 174.893C134.596 179.243 100.648 184.365 76.2316 178.509C76.2224 178.537 
 76.204 178.573 76.1948 178.601C59.0092 216.784 49.616 257.639 47.546 268.663C47.1044 
 278.86 63.1492 280.292 69.8468 279.741C69.8468 291.297 67.8872 291.389 69.5432 
 327.342C69.7548 331.867 72.5056 335.888 76.6456 337.558C80.6108 339.174 84.8244 339.624 
 89.59 339.137C94.8616 338.595 99.0568 334.401 99.71 329.05C102.36 307.525 103.979 292.307 
 105.754 277.52C106.923 289.957 110.124 314.299 114.964 329.628C117.365 337.219 124.697 
 342.028 132.453 341.009C133.014 340.936 133.584 340.844 134.146 340.743C141.745 339.376 
 147.302 332.648 147.403 324.791C147.964 284.065 140.107 248.277 141.11 209.974C141.607 
 225.119 147.881 257.373 152.941 275.482C154.422 280.815 159.363 284.386 164.809 
 284.046C166.658 283.936 168.563 283.596 170.329 283.055C175.904 281.384 179.354 
 275.73 178.471 269.902Z"></path><path opacity="0.26" fill="#202020" d="M62.79 279.63C65.4856 279.915 68.0064 279.915 69.8464
 279.759C69.3312 277.96 75.4492 222.896 76.9028 213.121C76.9028 213.121 66.2492 261.346 
 62.7992 279.639L62.79 279.63Z"></path><path opacity="0.26" fill="#202020" d="M160.319 183.033C160.319 183.033 160.273 182.96 160.246 
 182.923C158.562 180.261 156.455 177.902 154.017 175.929C153.971 175.892 153.925 175.856 
 153.879 175.819C153.474 175.498 153.051 175.204 152.637 174.91C134.596 179.261 100.648 
 184.383 76.2311 178.527C76.2219 178.554 76.2035 178.591 76.1943 178.618C99.2863 190.844 
 141.478 187.953 160.328 183.033H160.319Z"></path></svg>