<?xml version="1.0" encoding="UTF-8" standalone="no" ?>
<!DOCTYPE svg PUBLIC "-//W3C//DTD SVG 1.1//EN" "http://www.w3.org/Graphics/SVG/1.1/DTD/svg11.dtd">
<svg xmlns="http://www.w3.org/2000/svg" xmlns:xlink="http://www.w3.org/1999/xlink" version="1.1" width="250" height="414" viewBox="0 0 250 414" xml:space="preserve">
<desc>Created with Fabric.js 5.2.4</desc>
<defs>
</defs>
<rect x="0" y="0" width="100%" height="100%" fill="transparent"></rect>
<g transform="matrix(0 0 0 0 0 0)" id="0d4aa007-83c1-45d1-aef2-5820e471ea73"  >
</g>
<g transform="matrix(1 0 0 1 125 207)" id="ab12bbe4-122d-4d27-b254-a6cbda9b8f94"  >
<rect style="stroke: none; stroke-width: 1; stroke-dasharray: none; stroke-linecap: butt; stroke-dashoffset: 0; stroke-linejoin: miter; stroke-miterlimit: 4; fill: rgb(255,255,255); fill-rule: nonzero; opacity: 1; visibility: hidden;" vector-effect="non-scaling-stroke"  x="-125" y="-207" rx="0" ry="0" width="250" height="414" />
</g>
<g transform="matrix(1 0 0 1 94.06 165.75)"  >
<g style="" vector-effect="non-scaling-stroke"   >
		<g transform="matrix(1.08 0 0 1.08 26.61 -4.1)"  >
<path style="stroke: none; stroke-width: 1; stroke-dasharray: none; stroke-linecap: butt; stroke-dashoffset: 0; stroke-linejoin: miter; stroke-miterlimit: 4; fill: rgb(139,0,0); fill-rule: nonzero; opacity: 1;" vector-effect="non-scaling-stroke"  transform=" translate(-69.58, -89.99)" d="M 69.5766 102.288 C 73.7966 102.288 77.1866 96.7985 77.1866 89.9885 C 77.1866 83.1785 73.7966 77.6885 69.5766 77.6885 C 65.3566 77.6885 61.9766 83.1785 61.9766 89.9885 C 61.9766 96.7985 65.3666 102.288 69.5766 102.288 Z" stroke-linecap="round" />
</g>
		<g transform="matrix(1.08 0 0 1.08 -26.61 -7.56)"  >
<path style="stroke: none; stroke-width: 1; stroke-dasharray: none; stroke-linecap: butt; stroke-dashoffset: 0; stroke-linejoin: miter; stroke-miterlimit: 4; fill: rgb(139,0,0); fill-rule: nonzero; opacity: 1;" vector-effect="non-scaling-stroke"  transform=" translate(-20.13, -86.77)" d="M 20.1364 98.4084 C 24.3464 98.4084 27.7364 93.2184 27.7364 86.7684 C 27.7364 80.3184 24.3464 75.1284 20.1364 75.1284 C 15.9264 75.1284 12.5264 80.3184 12.5264 86.7684 C 12.5264 93.2184 15.9164 98.4084 20.1364 98.4084 Z" stroke-linecap="round" />
</g>
		<g transform="matrix(1.08 0 0 1.08 -2.79 9.53)"  >
<path style="stroke: none; stroke-width: 1; stroke-dasharray: none; stroke-linecap: butt; stroke-dashoffset: 0; stroke-linejoin: miter; stroke-miterlimit: 4; fill: rgb(0,0,0); fill-rule: nonzero; opacity: 1;" vector-effect="non-scaling-stroke"  transform=" translate(-42.23, -102.67)" d="M 41.5642 103.49 C 36.3256 114.922 23.371 104.573 31.2352 97.5149 C 31.5482 97.234 32.0007 97.6031 31.8404 97.992 C 30.6547 100.869 30.0445 104.985 34.0652 105.99 C 36.7094 106.431 40.129 103.376 41.2459 100.933 C 41.3368 100.734 41.7823 100.736 41.8671 100.938 C 42.968 103.554 46.4803 107.318 50.5652 105.99 C 54.5914 104.682 54.6356 101.471 52.9224 97.0214 C 52.7624 96.6059 53.2601 96.2984 53.5313 96.6515 C 61.3668 106.853 45.8362 114.405 41.5642 103.49 Z" stroke-linecap="round" />
</g>
		<g transform="matrix(1.08 0 0 1.08 19.03 13.66)"  >
<circle style="stroke: none; stroke-width: 1; stroke-dasharray: none; stroke-linecap: butt; stroke-dashoffset: 0; stroke-linejoin: miter; stroke-miterlimit: 4; fill: rgb(248,133,107); fill-rule: nonzero; opacity: 1;" vector-effect="non-scaling-stroke"  cx="0" cy="0" r="1" />
</g>
		<g transform="matrix(1.08 0 0 1.08 26.57 14.75)"  >
<circle style="stroke: none; stroke-width: 1; stroke-dasharray: none; stroke-linecap: butt; stroke-dashoffset: 0; stroke-linejoin: miter; stroke-miterlimit: 4; fill: rgb(248,133,107); fill-rule: nonzero; opacity: 1;" vector-effect="non-scaling-stroke"  cx="0" cy="0" r="1" />
</g>
		<g transform="matrix(1.08 0 0 1.08 21.18 19.05)"  >
<circle style="stroke: none; stroke-width: 1; stroke-dasharray: none; stroke-linecap: butt; stroke-dashoffset: 0; stroke-linejoin: miter; stroke-miterlimit: 4; fill: rgb(248,133,107); fill-rule: nonzero; opacity: 1;" vector-effect="non-scaling-stroke"  cx="0" cy="0" r="1" />
</g>
		<g transform="matrix(1.01 -0.39 0.39 1.01 -29.1 12.13)"  >
<circle style="stroke: none; stroke-width: 1; stroke-dasharray: none; stroke-linecap: butt; stroke-dashoffset: 0; stroke-linejoin: miter; stroke-miterlimit: 4; fill: rgb(248,133,108); fill-rule: nonzero; opacity: 1;" vector-effect="non-scaling-stroke"  cx="0" cy="0" r="1" />
</g>
		<g transform="matrix(1.01 -0.39 0.39 1.01 -21.68 10.42)"  >
<circle style="stroke: none; stroke-width: 1; stroke-dasharray: none; stroke-linecap: butt; stroke-dashoffset: 0; stroke-linejoin: miter; stroke-miterlimit: 4; fill: rgb(248,133,108); fill-rule: nonzero; opacity: 1;" vector-effect="non-scaling-stroke"  cx="0" cy="0" r="1" />
</g>
		<g transform="matrix(1.01 -0.39 0.39 1.01 -25.15 16.37)"  >
<circle style="stroke: none; stroke-width: 1; stroke-dasharray: none; stroke-linecap: butt; stroke-dashoffset: 0; stroke-linejoin: miter; stroke-miterlimit: 4; fill: rgb(248,133,108); fill-rule: nonzero; opacity: 1;" vector-effect="non-scaling-stroke"  cx="0" cy="0" r="1" />
</g>
		<g transform="matrix(1.08 0 0 1.08 24.41 -9.24)"  >
<ellipse style="stroke: none; stroke-width: 1; stroke-dasharray: none; stroke-linecap: butt; stroke-dashoffset: 0; stroke-linejoin: miter; stroke-miterlimit: 4; fill: rgb(230,230,229); fill-rule: nonzero; opacity: 1;" vector-effect="non-scaling-stroke"  cx="0" cy="0" rx="3" ry="4" />
</g>
		<g transform="matrix(1.08 0 0 1.08 -29.38 -12.46)"  >
<ellipse style="stroke: none; stroke-width: 1; stroke-dasharray: none; stroke-linecap: butt; stroke-dashoffset: 0; stroke-linejoin: miter; stroke-miterlimit: 4; fill: rgb(230,230,229); fill-rule: nonzero; opacity: 1;" vector-effect="non-scaling-stroke"  cx="0" cy="0" rx="3" ry="4" />
</g>
</g>
</g>
</svg>