<svg xmlns="http://www.w3.org/2000/svg" width="251" height="414" fill="none" viewBox="0 0 251 414">
  <path fill="#000" d="M166.567 153.177c.042.035.336-.112.392.119.328 1.397-.434 1.935 1.035 3.319 3.197 2.998 8.115 3.78 10.745 8.134 2.644 4.367.35 6.205.818 10.23.413 3.521 5.268 6.498 6.226 10.747 1.581 7.015-3.84 11.537-3.169 18.217.483 4.835 4.722 8.888 6.688 13.137 3.672 7.938 2.378 19.789-.958 27.699-.805 1.908-1.994 3.655-2.869 5.521-4.694 9.992-2.574 13.346 1.309 22.745-4.394-2.313-7.368.505-8.213 5.045-1.175 6.317-10.248 4.898-12.781 2.481-6.612-4.193-4.116 5.992-13.024 3.752-3.158-.793-6.51-.962-9.569.153-22.966 8.369-66.696 4.157-66.696-6.477-5.709 1.02-10.57-4.269-10.871-9.72-.217-3.892.91-6.862.168-11.124-.686-3.955-3.19-7.219-3.939-11.125-1-5.262-.007-11.544 1.574-16.624 1.798-5.786 4.73-8.825 4.289-15.338-.441-6.512-4.002-8.259-6.947-13.074-3.77-6.156-2.889-12.487-.685-19.042 5.484 7.072 12.83 9.993 21.287 12.18 17.39 4.5 38.985 3.564 56.837 1.922 8.661-.797 20.581-2.048 28.717-4.857 2.266-.782 9.352-6.387 10.465-8.413 2.056-3.773-2.47-3.634-2.98-6.114-.511-2.481 1.14-3.648 1.301-5.856.14-2.013-.63-4.004-1.917-5.527-2.889-3.417-9.171-2.754-8.373-8.756.16-1.202 1.098-2.159 1.126-3.354h.014Z"/>
  <path fill="#262626" d="M190.225 90.664c-1.994 1.63-2.12 1.78 2.673 2.097 1.416 1.352 2.315 2.646 3.05 4.388.056.133.279.3.384.573-1.573 2.598-.568 2.096 1.141 3.808.468 1.51 2.462 3.557 3.399 5.087 7.471 12.187 5.897 31.271 5.373 45.12-.336 8.826-1.91 19.992.482 28.503 1.896 6.765 8.85 7.435 9.444 14.961.399 5.038-4.631 9.923-3.19 15.765 1.05 4.241 7.017 3.305 6.429-.895-.049-.356-.706-1.139-.112-1.034 3.239.587 4.491 6.813 2.882 9.301-.993 1.53-3.686 2.438-5.428 2.103-1.032-.196-1.677 2.906-.189 2.474-.853 9.084-8.276 14.073-10.325 22.367-1.042 4.207.07 9.853 4.351 11.901 2.462 1.181 4.869-.629 5.463-3.047.49-2.005-1.455-2.809-1.189-3.662.231-.74 2.183.462 2.637.755 2.701 1.768 3.764 3.934 3.645 7.128-1.889 6.771-6.995 8.511-13.291 5.751-2.819-1.237-5.527-3.921-6.121-7.037-.161-.825.273-2.76-1.245-2.306-1.106.328-2.736 3.864-3.029 4.989-.56 2.166-.434 3.934.223 6.031 1.532 4.898 7.639 11.341 4.233 16.903-2.015 3.298-11.291 8.085-15.201 7.868-.553-.028-2.952-.44-2.491-1.328.217-.426 1.595-1.67 2.008-2.201 4.246-5.478 2.931-8.308.581-14.003-3.883-9.399-6.003-12.76-1.309-22.745.875-1.866 2.064-3.613 2.869-5.521 3.329-7.917 4.63-19.768.958-27.699-1.966-4.249-6.205-8.302-6.688-13.137-.671-6.687 4.75-11.208 3.169-18.217-.958-4.249-5.806-7.225-6.226-10.747-.475-4.025 1.819-5.863-.818-10.23-2.63-4.354-7.548-5.136-10.745-8.134-1.469-1.377-.707-1.922-1.035-3.319-.056-.231-.343-.084-.392-.119-1.015-.825-1.099-.377-2.113-.657-4.617-1.258-7.387-3.683-7.807-8.588-.084-1.013.21-2.592-.147-3.473-.391-.957-2.098-1.642-2.889-2.257-3.42-2.669-2.903-6.876-1.385-10.502.595-1.426 2.595-3.865 2.33-5.297-.161-.86-1.861-.322-2.687-.566-2.049-.608-2.581-3.159-1.518-4.864-5.393-2.187 1.05-4.458 1.141-7.435-1.036.273-1.7 1.035-2.813 1.286-2.483.573-4.197-.3-6.351-1.384-2.61-1.306-5.072-2.997-7.751-4.262-8.528-4.046-19.175-6.603-28.591-7.267-2.742-.196-5.582.314-8.233-.727-.896-.356-1.945-.783-1.987-1.838-.049-1.223 2.057-4.074 2.84-5.192 2.197-3.137 4.694-5.646 7.101-8.532.181-.216.461-.307.377-.664l-2.952 2.104c-2.945 2.445-5.652 5.178-7.995 8.21-.84 1.09-2.526 4.067-3.414 4.591-2.56 1.51-8.24.72-11.29.916-6.094.391-9.249 2.795-14.215 5.716-.742.433-1.518 1.257-2.477 1.334-.112-.104-.51-2.438-.804-2.914-.168-.279-.553-.503-.728-.321-.147.161.21 1.6.203 1.998-.014.909-.378 2.341-1.07 2.956-.364.322-1.169.552-1.21.601-.091.112 0 .776-.12 1.125-.153.461-.531 1.258-.762 1.719-5.47 11.006-7.758 23.43-8.122 35.715-.363 12.284 1.085 27.098 8.976 37.265-2.211 6.555-3.085 12.886.685 19.042 2.945 4.815 6.527 6.806 6.946 13.074.42 6.268-2.49 9.552-4.288 15.338-1.58 5.08-2.581 11.362-1.574 16.624.742 3.906 3.246 7.17 3.939 11.125.741 4.262-.385 7.232-.168 11.124-3.148 2.6-4.995 6.736-1.91 10.202.833.937 4.05 2.593.959 2.572l-2.96-2.858c-2.497-3.152-3.294-7.156-2.93-11.125.405-4.381 3.553-7.854 1.797-12.529-.112-.3 0-.664-.483-.552-.153-5.157-4.064-6.17-5.757-10.16-.454-1.069-.657-1.998-.538-3.179-1.602.37-4.268 1.879-4.198 3.703.098 2.739 2.917 3.878 3.001 6.925.07 2.627-2.693 5.052-5.204 5.192-3.456.196-7.422-3.375-7.338-6.869.126 0 .258-.014.377 0 .441 2.627 4.526 3.186 5.765.894 1.49-2.76-1.588-4.402-2.42-6.806-1.869-5.422 5.21-6.093 5.763-9.671.553-3.578-2.28-7.246-4.337-9.957-.524-1.349-1.203-2.893-.951-4.382.154-.908.797-1.411.951-2.285-1.168.364-2.133 1.111-3.386 1.286-2.56.349-4.735-.203-6.911-1.474-2.644-3.55-2.854-6.974 1.525-9.147-1.126 2.089-2.155 3.913-.483 6.1 3.561 4.661 10.29.363 10.78-4.486.602-5.919-1.154-7.316-4.575-11.334-.056-.07-.133-.126-.189-.189l-.189-.189c-2.51-3.039-2.86-8.231-1.427-11.809.616-1.53 1.791-2.76 2.386-4.29 2.217-5.695-3.12-9.685-5.058-14.395-3.84-9.35 1.84-14.968 4.764-23.06 1.378-3.815.392-4.081-.567-7.428-2.315-8.113 1.553-14.038 6.394-20.097 1.441-1.802 6.261-6.603 6.485-8.574.14-1.201-.189-2.634 0-4.004.385-2.795 2.33-5.75 4.19-7.819.357-.391 2.21-1.977 2.267-2.124.175-.517-.035-1.607.035-2.25.49-4.626 2.56-6.555 6.827-8.05.434-.154 1.343-.182 1.567-.336.161-.111.917-2.291 1.336-2.857 1.532-2.097 7.185-5.206 9.773-5.01.644.048 1.644.782 1.93.705.287-.077 1.239-1.544 1.56-1.894 3.771-4.066 9.06-6.652 14.558-7.56 2.113-.35 3.68-.035 5.638-.126 7.646-.357 14.222-3.816 22.407-1.314.699.21 1.357.769 2.042.825.945.077 2.253-.357 3.232-.399 2.757-.125 6.436-.174 9.164.007 4.337.3 8.15 2.418 12.263 3.564 3.743 1.048 7.744 1.544 11.445 2.67 7.205 2.194 17.16 7.47 21.867 13.409 1.015 1.279 2.428 4.095 3.358 4.933l-.042-.014ZM62.384 100.37c.553-.384-.455-1.956-.944-2.173-.602-.265-3.512-.58-2.847.461.055.091 1.538.434 2.035.734.448.28 1.245 1.335 1.763.978h-.007Z"/>
  <path fill="#6B6B6B" d="M60.11 253.989c.49-.112.371.252.483.552 1.756 4.668-1.392 8.141-1.798 12.529-.363 3.969.427 7.98 2.932 11.125l2.959 2.858c-9.633-.077-12.83-12.075-8.36-19.307 1.749-2.83 3.896-3.802 3.778-7.757h.007Zm-23.658-45.93c.748-.371 1.203-.867 2.196-.776 1.693.154-.077.915-.385 1.16-1.315 1.048-1.532 3.557.35 4.032 3.659.922 7.038-3.836 6.597-7.162-.315-2.383-2.386-4.71-3.036-6.974 3.428 4.018 5.176 5.415 4.575 11.334-.49 4.849-7.22 9.14-10.78 4.486-1.672-2.187-.644-4.018.483-6.1Z"/>
  <path fill="#000" d="M221.131 258.371c-.126 3.207-1.693 5.813-4.407 7.511-5.841 3.655-13.851-.097-15.823-6.365-2.701.482-3.197 3.997-3.239 6.289-.658-2.097-.784-3.865-.224-6.031.287-1.118 1.924-4.654 3.029-4.989 1.518-.454 1.084 1.474 1.245 2.306.595 3.116 3.302 5.793 6.121 7.036 6.296 2.761 11.403 1.021 13.291-5.75l.007-.007Zm-4.575-35.449c-1.812.524-4.057-.79-5.428-1.915-3.33-2.725-5.198-7.009-4.869-11.327.091-1.174.448-3.48 1.903-3.529-.91 3.822.21 8.35 3.155 11.048 1 .915 4.176 3.004 5.428 3.249-.406.65-.119 1.684-.189 2.481v-.007Z"/>
  <path fill="#6B6B6B" d="M40.46 249.608c1.07.105 1.4 1.964 3.764 1.188 3.483-1.146-.875-3.997-1.707-5.625-.833-1.628-.72-3.746.07-5.339 1.259-2.543 4.7-3.836 5.1-6.911.468-3.571-1.28-5.786-2.463-8.846 2.057 2.711 4.904 6.331 4.337 9.957-.566 3.627-7.632 4.249-5.764 9.671.832 2.404 3.91 4.046 2.42 6.806-1.23 2.285-5.323 1.726-5.764-.894l.007-.007Z"/>
  <path fill="#000" d="M196.332 97.715c.476 1.223.755 2.557 1.147 3.808-.657.112-.93.755-1.462 1.111-.909.608-2.868 1.132-3.966 1.181-.987.049-5.806-.643-6.016-1.628-.168-.81 1.993-.112 2.567-.084 2.204.098 3.533-.747 5.156-2.11.86-.72 1.546-1.845 2.581-2.278h-.007Zm-6.107-7.051c.805.727 1.686 1.16 2.672 2.097-2.224-.147-4.274.496-5.918 1.998l-2.861 2.767c.462-2.97 2.903-6.512 6.107-6.862Z"/>
  <path fill="#6B6B6B" d="M41.987 198.151c-.056-.07-.134-.119-.19-.19l.19.19Z"/>
  <path fill="#000" d="M159.9 90.664c2.841-.482 5.639-.265 8.066 1.37 2.162 1.453 3.715 3.85 3.372 6.54-.035.266-.112.567-.378.28-.049-.056-.21-1.027-.406-1.405-2.259-4.367-8.527-5.68-12.955-4.388-1.959-6.827-9.696-9.357-15.901-6.631-3.686-4.528-9.814-3.892-14.711-1.859-1.021-.901-1.819-1.998-2.973-2.76-2.267-1.482-5.967-2.41-8.66-2.208-.63.049-1.309.356-1.917.377-1.133.035-.035-.713.427-.908 2.469-1.049 7.506-.888 10.017.014 1.546.552 2.665 1.754 3.896 2.767 3.589-1.048 9.136-1.74 12.41.384.483.315 1.679 1.684 1.896 1.726.196.035 1.469-.608 1.924-.685 1.805-.314 4.729-.126 6.541.23 3.504.693 8.646 3.327 9.345 7.15l.007.006Zm17.397 20.817c-.084.091-.203.734-.391 1.041-1.861 2.998-3.561 4.004-7.185 3.676-.713-.063-4.267-.902-2.959-1.999.588-.496 5.394-.796 7.045-1.914.783-.532 2.994-3.571 3.343-4.473.078-.201.378-1.034.863-1.869.101-.175.347-.091.332.11l-.138 1.962c.126.126 3.141-.636 3.483-.804 1.337-.663 2.455-4.047 2.806-5.485.22-.905.22-.905.475-1.908 1.092 2.306.847 5.828-.622 7.952-.875 1.265-3.302 3.075-4.799 3.396-.511.112-1.994.049-2.26.322l.007-.007Zm-13.591.335c-.067-.081-.282-.79.422-.963.826-.202.83 2.004.886 2.605.392 4.095-1.077 7.841-5.61 8.267-.665.063-3.484.126-3.827-.37-.636-.916 1.525-1.014 2.064-1.195 3.309-1.132 5.568-5.032 6.051-8.344h.014Z"/>
  <path fill="#6B6B6B" d="M103.608 80.183c-2.19-1.656-4.98-2.257-7.674-1.28-.63.231-1.875 1.245-1.987 1.266-.133.02-1.658-1.09-2.343-1.237-2.896-.601-4.953.769-6.975 2.592-4.197-3.473-10.115-1.3-13.64 2.09-.288-.37 1.37-2.257 1.713-2.572 3.001-2.788 8.423-3.529 11.927-1.293 2.4-2.906 6.296-3.675 9.248-1.09 2.015-3.724 8.465-1.921 9.731 1.524Z"/>
  <path fill="#000" d="M186.371 99.085c.077.14.112.538-.056.538-3.665-1.922-7.737-1.824-10.584 1.425.189.538 2.805 1.677 2.288 2.194-.301.294-1.637-.608-2.05-.712-3.833-1.028-7.478-.231-10.157 2.725-.427.475-.56 1.376-1.336 1.237.594-3.578 3.952-7.33 7.869-6.806.448.062 1.49.531 1.742.482.21-.042 1.812-2.055 2.316-2.439 2.133-1.614 4.687-1.405 7.037-.356.35.153 2.854 1.579 2.938 1.726l-.007-.014Zm-34.11 11.97c.65-2.446 4.057-5.451 6.576-5.716 2.518-.266 5.568 1.46 7.261 3.235.287.3 1.357 1.74.343 1.377-.707-.252-1.441-.797-2.169-1.084-2.756-1.083-6.079-2.208-8.716-.328l-3.302 2.516h.007Z"/>
  <path fill="#6B6B6B" d="M66.218 102.481c-.245.069-.672-.049-.952 0 .553-1.517 1.428-2.523 1.134-4.277-.273-1.621-3.785-2.18-5.142-2.012-.23-.72.602-.727 1.231-.769 2.82-.196 6.625-.021 5.932 3.83-.147.817-1.427 3.018-2.203 3.228Zm-8.416-2.837c.161.251-.524 2.382-.531 2.948-.021 2.09 1.042 2.803 3.029 2.747.273.643-.658.761-1.224.74-1.61-.049-3.372-1.146-3.337-2.914.007-.503 1.063-3.55 1.322-3.731.063-.049.706.16.734.21h.007Zm4.582.726c-.518.357-1.316-.698-1.763-.978-.497-.307-1.973-.643-2.036-.734-.664-1.04 2.253-.726 2.847-.46.49.216 1.497 1.781.945 2.172h.007Z"/>
  <path fill="#262626" d="m106.755 80.37-.475.474.089.09.475-.475-.089-.09Z"/>
</svg>
