<svg xmlns="http://www.w3.org/2000/svg" width="251" height="414" fill="none" viewBox="0 0 251 414">
  <g clip-path="url(#a)">
    <g filter="url(#b)">
      <path fill="#1A5989" d="M146.163 106.916c-1.606-1.204-15.717-4.848-22.572-6.52 1.003-2.843 4.213-9.731 9.029-14.547 5.617.402 15.883 6.02 20.063 9.029-1.003 2.508-4.113 8.828-6.52 12.038Z"/>
    </g>
    <path fill="#1A5989" d="M75.117 91.417c1.34-1.746 5.38-6.687 7.76-9.584a.494.494 0 0 0-.332-.807c-1.714-.173-4.385-.4-6.056-.405a.45.45 0 0 0-.096.01c-3.7.778-9.071 6.374-11.845 9.724a.492.492 0 0 0 .382.803c2.823.022 7.44.132 9.707.452a.51.51 0 0 0 .48-.193Z"/>
    <g filter="url(#c)">
      <path fill="#1A5989" d="M128.573 86.913c-1.857 2.494-5.252 8.713-7.307 12.172a.5.5 0 0 1-.534.233c-4.02-.814-18.085-2.636-25.372-3.354a.497.497 0 0 1-.353-.788c2.7-3.712 8.026-10.555 11.418-13.252a.458.458 0 0 1 .251-.1c4.716-.41 15.237 1.684 21.507 3.574.46.139.677 1.13.39 1.515Z"/>
    </g>
    <g filter="url(#d)">
      <path fill="#1A5989" d="M130.818 83.74c-4.373-1.469-15.296-2.754-21.21-3.311a.491.491 0 0 1-.3-.844c2.16-2.067 6.187-5.62 9.712-7.747a.43.43 0 0 1 .116-.05c2.779-.712 13.757 1.78 19.669 3.309.373.097.496.56.223.833l-7.688 7.688a.506.506 0 0 1-.522.122Z"/>
    </g>
    <g filter="url(#e)">
      <path fill="#1A5989" d="M171.547 77.192c-8.581 3.71-17.808 20.777-21.625 29.443-.13.294.052.625.363.704 5.476 1.394 13.876 8.446 18.745 15.131a.517.517 0 0 0 .538.2c7.079-1.61 27.608 5.556 34.489 10.066.34.223.802-.013.802-.42.013-22.725-16.663-47.59-32.922-55.117a.472.472 0 0 0-.39-.007Z"/>
    </g>
    <g filter="url(#f)">
      <path fill="#1A5989" fill-rule="evenodd" d="M146.21 102.568a4.397 4.397 0 0 0 .593-2.141c.036-2.63-2.279-4.795-5.172-4.835-2.892-.04-5.267 2.059-5.304 4.689-.03 2.146 1.507 3.982 3.645 4.607-.685 1.367-.663 2.983.204 4.254a4.001 4.001 0 0 0 2.236 1.592 4.219 4.219 0 0 0 .488 3.778 4.19 4.19 0 0 0 2.369 1.685c-.815 1.294-.845 2.988.061 4.317a3.892 3.892 0 0 0 2.563 1.643c-.893 1.263-.967 2.983-.056 4.318a3.723 3.723 0 0 0 1.903 1.438 3.285 3.285 0 0 0 .452 2.725c1.031 1.511 3.111 1.888 4.645.841 1.535-1.047 1.943-3.121.912-4.633a3.26 3.26 0 0 0-1.234-1.08 3.764 3.764 0 0 0-.338-3.615 3.742 3.742 0 0 0-2.368-1.562c.986-1.32 1.086-3.157.118-4.576a3.875 3.875 0 0 0-1.981-1.497c1.01-1.418 1.096-3.356.07-4.858a4.175 4.175 0 0 0-1.957-1.55c.647-1.352.611-2.933-.24-4.18a3.948 3.948 0 0 0-1.609-1.36Z" clip-rule="evenodd"/>
    </g>
    <g filter="url(#g)">
      <path fill="#1A5989" fill-rule="evenodd" d="M124.553 83.164a4.13 4.13 0 1 1 4.676-.51c1.974.956 2.954 3.077 2.192 4.818a3.085 3.085 0 0 1-.694.993 3.539 3.539 0 0 1 1.385 5.755 3.539 3.539 0 0 1 1.338 5.757 2.95 2.95 0 0 1-.279 5.204 2.95 2.95 0 1 1-3.293-.555 2.95 2.95 0 0 1-.36-3.82l-.055-.024a3.54 3.54 0 0 1-1.163-5.666 3.54 3.54 0 0 1-1.305-5.792 4.82 4.82 0 0 1-.776-.264c-2.09-.914-3.149-3.107-2.366-4.898.168-.384.407-.719.7-.998Z" clip-rule="evenodd"/>
    </g>
    <g filter="url(#h)">
      <path fill="#1A5989" fill-rule="evenodd" d="M113.734 97.488a5.125 5.125 0 1 1 5.803-.634c2.45 1.187 3.665 3.819 2.72 5.979a3.815 3.815 0 0 1-.861 1.232 4.393 4.393 0 0 1 1.718 7.142 4.393 4.393 0 0 1 1.661 7.144 3.66 3.66 0 0 1-.346 6.459 3.663 3.663 0 0 1 .808 4.099 3.661 3.661 0 1 1-4.894-4.788 3.661 3.661 0 0 1-.448-4.741 4.393 4.393 0 0 1-1.511-7.061 4.394 4.394 0 0 1-1.62-7.187 6.009 6.009 0 0 1-.963-.327c-2.593-1.135-3.907-3.856-2.935-6.079a3.82 3.82 0 0 1 .868-1.238Z" clip-rule="evenodd"/>
    </g>
    <g filter="url(#i)">
      <path fill="#1A5989" d="M140.447 76.521c-1.822 1.58-4.723 5.52-6.32 7.83-.209.302-.032.718.326.798 4.909 1.1 13.952 5.826 18.449 8.388.246.14.559.051.694-.198 1.072-1.98 3.288-5.837 5.406-8.796.145-.202.124-.475-.076-.623-2.425-1.798-13.268-6.968-18.127-7.51a.452.452 0 0 0-.352.111ZM91.35 95.751c1.695-2.802 7.05-8.888 10.092-12.211a.496.496 0 0 0-.277-.827c-4.457-.78-12.436-1.806-14.671-.655-2.25 1.16-6.975 7.756-9.443 11.483a.496.496 0 0 0 .359.767c2.974.342 8.724 1.032 13.427 1.692a.516.516 0 0 0 .512-.249Zm11.936-14.464c-4.027-.986-10.572-1.245-14.226-1.257-.427-.002-.66-.497-.373-.814 2.29-2.535 6.64-6.578 10.225-7.34 3.614-.768 10.793.002 14.865.619a.494.494 0 0 1 .21.892c-2.869 2.049-7.712 5.6-10.248 7.792a.504.504 0 0 1-.453.108Zm36.037-6.952c-8.754-2.14-14.785-2.72-17.786-2.758-.486-.006-.738-.65-.359-.955 2.463-1.983 6.393-4.772 8.758-5.139 2.589-.401 11.959.798 17.335 1.595.448.066.586.656.222.926-1.488 1.105-4.149 3.181-7.722 6.225a.51.51 0 0 1-.448.106Zm11.581-6.566c-3.27.839-6.728 4.428-8.406 6.56a.487.487 0 0 0 .231.762c6.676 2.35 13.294 5.532 17.7 7.443a.52.52 0 0 0 .559-.101c1.595-1.467 5.638-4.028 7.729-5.932a.471.471 0 0 0-.101-.768c-4.098-2.22-12.453-6.455-17.46-7.959a.463.463 0 0 0-.252-.005ZM87.14 79.195c1.16-2.121 4.177-4.594 6.235-6.06.367-.261.236-.796-.213-.759-3.3.269-7.257 3.569-9.638 6.043-.34.353.016.986.505.955a12.166 12.166 0 0 1 2.55.105.55.55 0 0 0 .561-.284Zm29.083-7.628c-5.026-1.954-13.071-1.265-17.704-.476-.488.084-.77-.476-.37-.769 5.879-4.31 17.93-4.465 24.552-3.886.448.04.596.592.23.854-1.173.837-3.231 2.258-6.242 4.23a.513.513 0 0 1-.466.047Z"/>
    </g>
    <g filter="url(#j)">
      <path fill="#1A5989" fill-rule="evenodd" d="M92.423 81.742a3.512 3.512 0 1 0-2.63-3.013c-1.786-.539-3.62.223-4.146 1.75-.116.335-.16.68-.138 1.021a3.01 3.01 0 0 0-4.18 2.801 3.01 3.01 0 0 0-4.153 2.83 2.508 2.508 0 0 0-2.824 3.415 2.509 2.509 0 1 0 2.379 1.55 2.509 2.509 0 0 0 2.426-2.182 3.01 3.01 0 0 0 4.039-2.857 3.01 3.01 0 0 0 4.152-2.87c.2.11.412.205.637.282 1.833.633 3.758-.129 4.3-1.7.117-.337.16-.684.138-1.027Z" clip-rule="evenodd"/>
    </g>
    <g filter="url(#k)">
      <path fill="#1A5989" fill-rule="evenodd" d="M84.045 78.547a3.511 3.511 0 1 0-2.383-3.212c-1.737-.678-3.625-.064-4.271 1.417a2.625 2.625 0 0 0-.219 1.006c-.06-.03-.12-.06-.183-.087a3.01 3.01 0 0 0-4.206 2.549 3.01 3.01 0 0 0-4.364 2.491 2.508 2.508 0 0 0-3.085 3.18 2.51 2.51 0 1 0 2.248 1.734 2.509 2.509 0 0 0 2.592-1.983l.045.02a3.01 3.01 0 0 0 4.207-2.547 3.01 3.01 0 0 0 4.367-2.532c.19.125.395.236.612.331 1.778.776 3.757.17 4.422-1.354.143-.327.213-.67.218-1.013Z" clip-rule="evenodd"/>
    </g>
    <g filter="url(#l)">
      <path fill="#1A5989" fill-rule="evenodd" d="M66.705 94.866a3.512 3.512 0 1 0-3.468-1.991c-1.864.072-3.349 1.39-3.349 3.006 0 .355.072.694.203 1.01a3.01 3.01 0 0 0-3.04 4.01 3.01 3.01 0 0 0-3.004 4.028 2.51 2.51 0 0 0-1.555 4.151 2.508 2.508 0 1 0 2.754.689 2.51 2.51 0 0 0 1.582-2.853h.05a3.01 3.01 0 0 0 2.837-4.017 3.01 3.01 0 0 0 2.99-4.067c.224.039.456.059.694.059 1.94 0 3.511-1.348 3.511-3.01 0-.356-.072-.698-.205-1.015Z" clip-rule="evenodd"/>
    </g>
    <g filter="url(#m)">
      <path fill="#1A5989" fill-rule="evenodd" d="M87.773 93.847a4.63 4.63 0 0 0 2.262-.598c2.412-1.364 3.15-4.62 1.65-7.272-1.5-2.653-4.672-3.697-7.083-2.333-1.968 1.113-2.821 3.486-2.253 5.763-1.608.104-3.066.982-3.76 2.445a4.216 4.216 0 0 0-.26 2.88 4.44 4.44 0 0 0-3.177 2.451 4.41 4.41 0 0 0-.274 3.05c-1.61-.053-3.167.819-3.894 2.349a4.1 4.1 0 0 0-.133 3.205c-1.623-.141-3.226.705-3.957 2.243a3.925 3.925 0 0 0-.296 2.495 3.458 3.458 0 0 0-2.238 1.858c-.827 1.741-.064 3.833 1.704 4.672 1.767.84 3.87.109 4.697-1.632.26-.547.363-1.13.327-1.697a3.962 3.962 0 0 0 3.108-2.228c.46-.97.489-2.035.162-2.982 1.725.194 3.449-.691 4.225-2.325a4.08 4.08 0 0 0 .308-2.598c1.827.165 3.635-.786 4.457-2.517a4.4 4.4 0 0 0 .37-2.604c1.572-.13 2.99-1.002 3.673-2.439.332-.7.45-1.45.382-2.186Z" clip-rule="evenodd"/>
    </g>
    <g filter="url(#n)">
      <path fill="#1A5989" fill-rule="evenodd" d="M162.945 80.627a3.328 3.328 0 1 1 3.41-1.657c1.758.19 3.077 1.534 2.972 3.062a2.495 2.495 0 0 1-.257.942 2.853 2.853 0 0 1 2.613 3.992 2.853 2.853 0 0 1 2.578 4.006 2.378 2.378 0 0 1 1.201 4.024 2.378 2.378 0 1 1-2.649.473 2.378 2.378 0 0 1-1.311-2.801l-.048-.003a2.853 2.853 0 0 1-2.421-3.985 2.853 2.853 0 0 1-2.563-4.041 3.872 3.872 0 0 1-.66.01c-1.834-.126-3.233-1.503-3.125-3.075.023-.337.114-.655.26-.947Z" clip-rule="evenodd"/>
    </g>
    <g filter="url(#o)">
      <path fill="#1A5989" fill-rule="evenodd" d="M158.353 90.655a4.383 4.383 0 0 0 .743-2.094c.223-2.62-1.933-4.944-4.815-5.19-2.883-.245-5.4 1.68-5.623 4.301-.182 2.139 1.22 4.08 3.309 4.854-.78 1.316-.873 2.929-.099 4.258a4.002 4.002 0 0 0 2.118 1.747 4.213 4.213 0 0 0 .219 3.803 4.185 4.185 0 0 0 2.244 1.848c-.906 1.234-1.056 2.922-.246 4.311a3.892 3.892 0 0 0 2.44 1.821c-.98 1.196-1.176 2.907-.362 4.303a3.723 3.723 0 0 0 1.796 1.57 3.275 3.275 0 0 0 2.171 4.245 3.012 3.012 0 0 0 1.659 3.762 3.04 3.04 0 0 0-.163 3.294c.846 1.452 2.726 1.932 4.2 1.073 1.473-.858 1.982-2.731 1.136-4.182a3.003 3.003 0 0 0-1.419-1.252c.676-.95.781-2.235.163-3.294a3.002 3.002 0 0 0-1.516-1.292 3.295 3.295 0 0 0-.161-2.993 3.265 3.265 0 0 0-1.155-1.165 3.763 3.763 0 0 0-.081-3.63 3.738 3.738 0 0 0-2.251-1.725c1.077-1.248 1.308-3.073.443-4.557a3.881 3.881 0 0 0-1.871-1.633c1.108-1.344 1.331-3.27.415-4.842a4.18 4.18 0 0 0-1.842-1.684c.741-1.303.817-2.882.057-4.187a3.947 3.947 0 0 0-1.509-1.47Z" clip-rule="evenodd"/>
    </g>
    <g filter="url(#p)">
      <path fill="#1A5989" fill-rule="evenodd" d="M134.941 67.78c.861.082 1.661-.085 2.245-.42.499.366 1.18.625 1.946.698a4.16 4.16 0 0 0 1.591-.142c.483.596 1.372 1.045 2.422 1.146 1.654.159 3.081-.606 3.187-1.71.107-1.102-1.149-2.126-2.803-2.285a4.178 4.178 0 0 0-1.592.143c-.482-.596-1.371-1.045-2.421-1.146-.861-.083-1.661.085-2.245.42-.499-.366-1.18-.625-1.946-.699-1.564-.15-2.925.525-3.159 1.531-.537-.333-1.257-.537-2.049-.537-1.662 0-3.01.899-3.01 2.007s1.348 2.006 3.01 2.006c1.48 0 2.711-.713 2.963-1.651.49.334 1.137.57 1.861.639Z" clip-rule="evenodd"/>
    </g>
    <g filter="url(#q)">
      <path fill="#1A5989" fill-rule="evenodd" d="M113.025 68.08c-.643.57-1.63.936-2.736.936-.961 0-1.832-.276-2.466-.723-.568.784-1.723 1.54-3.163 1.977-2.278.693-4.406.33-4.753-.81-.346-1.14 1.22-2.625 3.498-3.318 1.306-.397 2.563-.447 3.463-.203.361-1.11 1.756-1.939 3.421-1.939 1.345 0 2.513.54 3.103 1.333.63-.804 1.701-1.333 2.916-1.333 1.206 0 2.27.521 2.902 1.315a4.156 4.156 0 0 1 1.612-.312c1.663 0 3.01.898 3.01 2.007 0 1.108-1.347 2.006-3.01 2.006a4.158 4.158 0 0 1-1.612-.312c-.632.794-1.696 1.315-2.902 1.315-1.499 0-2.779-.806-3.283-1.94Z" clip-rule="evenodd"/>
    </g>
  </g>
  <defs>
    <filter id="b" width="29.093" height="21.067" x="123.591" y="85.849" color-interpolation-filters="sRGB" filterUnits="userSpaceOnUse">
      <feFlood flood-opacity="0" result="BackgroundImageFix"/>
      <feBlend in="SourceGraphic" in2="BackgroundImageFix" result="shape"/>
      <feColorMatrix in="SourceAlpha" result="hardAlpha" values="0 0 0 0 0 0 0 0 0 0 0 0 0 0 0 0 0 0 127 0"/>
      <feOffset dy="1"/>
      <feComposite in2="hardAlpha" k2="-1" k3="1" operator="arithmetic"/>
      <feColorMatrix values="0 0 0 0 0.223529 0 0 0 0 0.54902 0 0 0 0 0.709804 0 0 0 1 0"/>
      <feBlend in2="shape" result="effect1_innerShadow_1495_21432"/>
    </filter>
    <filter id="c" width="33.792" height="17.557" x="94.91" y="81.772" color-interpolation-filters="sRGB" filterUnits="userSpaceOnUse">
      <feFlood flood-opacity="0" result="BackgroundImageFix"/>
      <feBlend in="SourceGraphic" in2="BackgroundImageFix" result="shape"/>
      <feColorMatrix in="SourceAlpha" result="hardAlpha" values="0 0 0 0 0 0 0 0 0 0 0 0 0 0 0 0 0 0 127 0"/>
      <feOffset dy="1"/>
      <feComposite in2="hardAlpha" k2="-1" k3="1" operator="arithmetic"/>
      <feColorMatrix values="0 0 0 0 0.223529 0 0 0 0 0.54902 0 0 0 0 0.709804 0 0 0 1 0"/>
      <feBlend in2="shape" result="effect1_innerShadow_1495_21432"/>
    </filter>
    <filter id="d" width="30.02" height="12.103" x="109.155" y="71.663" color-interpolation-filters="sRGB" filterUnits="userSpaceOnUse">
      <feFlood flood-opacity="0" result="BackgroundImageFix"/>
      <feBlend in="SourceGraphic" in2="BackgroundImageFix" result="shape"/>
      <feColorMatrix in="SourceAlpha" result="hardAlpha" values="0 0 0 0 0 0 0 0 0 0 0 0 0 0 0 0 0 0 127 0"/>
      <feOffset dy="1"/>
      <feComposite in2="hardAlpha" k2="-1" k3="1" operator="arithmetic"/>
      <feColorMatrix values="0 0 0 0 0.223529 0 0 0 0 0.54902 0 0 0 0 0.709804 0 0 0 1 0"/>
      <feBlend in2="shape" result="effect1_innerShadow_1495_21432"/>
    </filter>
    <filter id="e" width="54.98" height="55.669" x="149.879" y="77.153" color-interpolation-filters="sRGB" filterUnits="userSpaceOnUse">
      <feFlood flood-opacity="0" result="BackgroundImageFix"/>
      <feBlend in="SourceGraphic" in2="BackgroundImageFix" result="shape"/>
      <feColorMatrix in="SourceAlpha" result="hardAlpha" values="0 0 0 0 0 0 0 0 0 0 0 0 0 0 0 0 0 0 127 0"/>
      <feOffset dx="-10"/>
      <feComposite in2="hardAlpha" k2="-1" k3="1" operator="arithmetic"/>
      <feColorMatrix values="0 0 0 0 0.105882 0 0 0 0 0.254902 0 0 0 0 0.384314 0 0 0 1 0"/>
      <feBlend in2="shape" result="effect1_innerShadow_1495_21432"/>
    </filter>
    <filter id="f" width="19.991" height="36.48" x="136.327" y="95.592" color-interpolation-filters="sRGB" filterUnits="userSpaceOnUse">
      <feFlood flood-opacity="0" result="BackgroundImageFix"/>
      <feBlend in="SourceGraphic" in2="BackgroundImageFix" result="shape"/>
      <feColorMatrix in="SourceAlpha" result="hardAlpha" values="0 0 0 0 0 0 0 0 0 0 0 0 0 0 0 0 0 0 127 0"/>
      <feOffset dx="1" dy="-1"/>
      <feComposite in2="hardAlpha" k2="-1" k3="1" operator="arithmetic"/>
      <feColorMatrix values="0 0 0 0 0.223529 0 0 0 0 0.54902 0 0 0 0 0.709804 0 0 0 1 0"/>
      <feBlend in2="shape" result="effect1_innerShadow_1495_21432"/>
    </filter>
    <filter id="g" width="12.49" height="34.851" x="122.391" y="75.402" color-interpolation-filters="sRGB" filterUnits="userSpaceOnUse">
      <feFlood flood-opacity="0" result="BackgroundImageFix"/>
      <feBlend in="SourceGraphic" in2="BackgroundImageFix" result="shape"/>
      <feColorMatrix in="SourceAlpha" result="hardAlpha" values="0 0 0 0 0 0 0 0 0 0 0 0 0 0 0 0 0 0 127 0"/>
      <feOffset dx="1" dy="-1"/>
      <feComposite in2="hardAlpha" k2="-1" k3="1" operator="arithmetic"/>
      <feColorMatrix values="0 0 0 0 0.223529 0 0 0 0 0.54902 0 0 0 0 0.709804 0 0 0 1 0"/>
      <feBlend in2="shape" result="effect1_innerShadow_1495_21432"/>
    </filter>
    <filter id="h" width="15.499" height="43.248" x="111.051" y="87.856" color-interpolation-filters="sRGB" filterUnits="userSpaceOnUse">
      <feFlood flood-opacity="0" result="BackgroundImageFix"/>
      <feBlend in="SourceGraphic" in2="BackgroundImageFix" result="shape"/>
      <feColorMatrix in="SourceAlpha" result="hardAlpha" values="0 0 0 0 0 0 0 0 0 0 0 0 0 0 0 0 0 0 127 0"/>
      <feOffset dx="1" dy="-1"/>
      <feComposite in2="hardAlpha" k2="-1" k3="1" operator="arithmetic"/>
      <feColorMatrix values="0 0 0 0 0.223529 0 0 0 0 0.54902 0 0 0 0 0.709804 0 0 0 1 0"/>
      <feBlend in2="shape" result="effect1_innerShadow_1495_21432"/>
    </filter>
    <filter id="i" width="91.903" height="30.602" x="76.968" y="65.403" color-interpolation-filters="sRGB" filterUnits="userSpaceOnUse">
      <feFlood flood-opacity="0" result="BackgroundImageFix"/>
      <feBlend in="SourceGraphic" in2="BackgroundImageFix" result="shape"/>
      <feColorMatrix in="SourceAlpha" result="hardAlpha" values="0 0 0 0 0 0 0 0 0 0 0 0 0 0 0 0 0 0 127 0"/>
      <feOffset dy="1"/>
      <feComposite in2="hardAlpha" k2="-1" k3="1" operator="arithmetic"/>
      <feColorMatrix values="0 0 0 0 0.223529 0 0 0 0 0.54902 0 0 0 0 0.709804 0 0 0 1 0"/>
      <feBlend in2="shape" result="effect1_innerShadow_1495_21432"/>
    </filter>
    <filter id="j" width="24.891" height="20.737" x="71.904" y="74.825" color-interpolation-filters="sRGB" filterUnits="userSpaceOnUse">
      <feFlood flood-opacity="0" result="BackgroundImageFix"/>
      <feBlend in="SourceGraphic" in2="BackgroundImageFix" result="shape"/>
      <feColorMatrix in="SourceAlpha" result="hardAlpha" values="0 0 0 0 0 0 0 0 0 0 0 0 0 0 0 0 0 0 127 0"/>
      <feOffset dx="1"/>
      <feComposite in2="hardAlpha" k2="-1" k3="1" operator="arithmetic"/>
      <feColorMatrix values="0 0 0 0 0.223529 0 0 0 0 0.54902 0 0 0 0 0.709804 0 0 0 1 0"/>
      <feBlend in2="shape" result="effect1_innerShadow_1495_21432"/>
    </filter>
    <filter id="k" width="25.997" height="19.196" x="62.688" y="71.71" color-interpolation-filters="sRGB" filterUnits="userSpaceOnUse">
      <feFlood flood-opacity="0" result="BackgroundImageFix"/>
      <feBlend in="SourceGraphic" in2="BackgroundImageFix" result="shape"/>
      <feColorMatrix in="SourceAlpha" result="hardAlpha" values="0 0 0 0 0 0 0 0 0 0 0 0 0 0 0 0 0 0 127 0"/>
      <feOffset dy="1"/>
      <feComposite in2="hardAlpha" k2="-1" k3="1" operator="arithmetic"/>
      <feColorMatrix values="0 0 0 0 0.207843 0 0 0 0 0.521569 0 0 0 0 0.690196 0 0 0 1 0"/>
      <feBlend in2="shape" result="effect1_innerShadow_1495_21432"/>
      <feColorMatrix in="SourceAlpha" result="hardAlpha" values="0 0 0 0 0 0 0 0 0 0 0 0 0 0 0 0 0 0 127 0"/>
      <feOffset dy="-1"/>
      <feComposite in2="hardAlpha" k2="-1" k3="1" operator="arithmetic"/>
      <feColorMatrix values="0 0 0 0 0.105882 0 0 0 0 0.254902 0 0 0 0 0.384314 0 0 0 1 0"/>
      <feBlend in2="effect1_innerShadow_1495_21432" result="effect2_innerShadow_1495_21432"/>
    </filter>
    <filter id="l" width="19.061" height="26.083" x="50.859" y="87.856" color-interpolation-filters="sRGB" filterUnits="userSpaceOnUse">
      <feFlood flood-opacity="0" result="BackgroundImageFix"/>
      <feBlend in="SourceGraphic" in2="BackgroundImageFix" result="shape"/>
      <feColorMatrix in="SourceAlpha" result="hardAlpha" values="0 0 0 0 0 0 0 0 0 0 0 0 0 0 0 0 0 0 127 0"/>
      <feOffset dx="1"/>
      <feComposite in2="hardAlpha" k2="-1" k3="1" operator="arithmetic"/>
      <feColorMatrix values="0 0 0 0 0.207843 0 0 0 0 0.521569 0 0 0 0 0.690196 0 0 0 1 0"/>
      <feBlend in2="shape" result="effect1_innerShadow_1495_21432"/>
      <feColorMatrix in="SourceAlpha" result="hardAlpha" values="0 0 0 0 0 0 0 0 0 0 0 0 0 0 0 0 0 0 127 0"/>
      <feOffset dx="-1"/>
      <feComposite in2="hardAlpha" k2="-1" k3="1" operator="arithmetic"/>
      <feColorMatrix values="0 0 0 0 0.105882 0 0 0 0 0.254902 0 0 0 0 0.384314 0 0 0 1 0"/>
      <feBlend in2="effect1_innerShadow_1495_21432" result="effect2_innerShadow_1495_21432"/>
    </filter>
    <filter id="m" width="28.435" height="34.359" x="64.026" y="83.045" color-interpolation-filters="sRGB" filterUnits="userSpaceOnUse">
      <feFlood flood-opacity="0" result="BackgroundImageFix"/>
      <feBlend in="SourceGraphic" in2="BackgroundImageFix" result="shape"/>
      <feColorMatrix in="SourceAlpha" result="hardAlpha" values="0 0 0 0 0 0 0 0 0 0 0 0 0 0 0 0 0 0 127 0"/>
      <feOffset dx="1"/>
      <feComposite in2="hardAlpha" k2="-1" k3="1" operator="arithmetic"/>
      <feColorMatrix values="0 0 0 0 0.223529 0 0 0 0 0.54902 0 0 0 0 0.709804 0 0 0 1 0"/>
      <feBlend in2="shape" result="effect1_innerShadow_1495_21432"/>
    </filter>
    <filter id="n" width="16.734" height="25.532" x="160.125" y="74.008" color-interpolation-filters="sRGB" filterUnits="userSpaceOnUse">
      <feFlood flood-opacity="0" result="BackgroundImageFix"/>
      <feBlend in="SourceGraphic" in2="BackgroundImageFix" result="shape"/>
      <feColorMatrix in="SourceAlpha" result="hardAlpha" values="0 0 0 0 0 0 0 0 0 0 0 0 0 0 0 0 0 0 127 0"/>
      <feOffset dx="1" dy="-1"/>
      <feComposite in2="hardAlpha" k2="-1" k3="1" operator="arithmetic"/>
      <feColorMatrix values="0 0 0 0 0.223529 0 0 0 0 0.54902 0 0 0 0 0.709804 0 0 0 1 0"/>
      <feBlend in2="shape" result="effect1_innerShadow_1495_21432"/>
      <feColorMatrix in="SourceAlpha" result="hardAlpha" values="0 0 0 0 0 0 0 0 0 0 0 0 0 0 0 0 0 0 127 0"/>
      <feOffset dx="-1"/>
      <feComposite in2="hardAlpha" k2="-1" k3="1" operator="arithmetic"/>
      <feColorMatrix values="0 0 0 0 0.105882 0 0 0 0 0.254902 0 0 0 0 0.384314 0 0 0 1 0"/>
      <feBlend in2="effect1_innerShadow_1495_21432" result="effect2_innerShadow_1495_21432"/>
    </filter>
    <filter id="o" width="20.847" height="45.637" x="148.642" y="83.351" color-interpolation-filters="sRGB" filterUnits="userSpaceOnUse">
      <feFlood flood-opacity="0" result="BackgroundImageFix"/>
      <feBlend in="SourceGraphic" in2="BackgroundImageFix" result="shape"/>
      <feColorMatrix in="SourceAlpha" result="hardAlpha" values="0 0 0 0 0 0 0 0 0 0 0 0 0 0 0 0 0 0 127 0"/>
      <feOffset dx="1" dy="-1"/>
      <feComposite in2="hardAlpha" k2="-1" k3="1" operator="arithmetic"/>
      <feColorMatrix values="0 0 0 0 0.223529 0 0 0 0 0.54902 0 0 0 0 0.709804 0 0 0 1 0"/>
      <feBlend in2="shape" result="effect1_innerShadow_1495_21432"/>
      <feColorMatrix in="SourceAlpha" result="hardAlpha" values="0 0 0 0 0 0 0 0 0 0 0 0 0 0 0 0 0 0 127 0"/>
      <feOffset dx="-1"/>
      <feComposite in2="hardAlpha" k2="-1" k3="1" operator="arithmetic"/>
      <feColorMatrix values="0 0 0 0 0.105882 0 0 0 0 0.254902 0 0 0 0 0.384314 0 0 0 1 0"/>
      <feBlend in2="effect1_innerShadow_1495_21432" result="effect2_innerShadow_1495_21432"/>
    </filter>
    <filter id="p" width="19.231" height="5.318" x="127.107" y="63.764" color-interpolation-filters="sRGB" filterUnits="userSpaceOnUse">
      <feFlood flood-opacity="0" result="BackgroundImageFix"/>
      <feBlend in="SourceGraphic" in2="BackgroundImageFix" result="shape"/>
      <feColorMatrix in="SourceAlpha" result="hardAlpha" values="0 0 0 0 0 0 0 0 0 0 0 0 0 0 0 0 0 0 127 0"/>
      <feOffset dy="1"/>
      <feComposite in2="hardAlpha" k2="-1" k3="1" operator="arithmetic"/>
      <feColorMatrix values="0 0 0 0 0.223529 0 0 0 0 0.54902 0 0 0 0 0.709804 0 0 0 1 0"/>
      <feBlend in2="shape" result="effect1_innerShadow_1495_21432"/>
    </filter>
    <filter id="q" width="23.973" height="6.622" x="99.859" y="64" color-interpolation-filters="sRGB" filterUnits="userSpaceOnUse">
      <feFlood flood-opacity="0" result="BackgroundImageFix"/>
      <feBlend in="SourceGraphic" in2="BackgroundImageFix" result="shape"/>
      <feColorMatrix in="SourceAlpha" result="hardAlpha" values="0 0 0 0 0 0 0 0 0 0 0 0 0 0 0 0 0 0 127 0"/>
      <feOffset dy="1"/>
      <feComposite in2="hardAlpha" k2="-1" k3="1" operator="arithmetic"/>
      <feColorMatrix values="0 0 0 0 0.223529 0 0 0 0 0.54902 0 0 0 0 0.709804 0 0 0 1 0"/>
      <feBlend in2="shape" result="effect1_innerShadow_1495_21432"/>
    </filter>
    <clipPath id="a">
      <path fill="#fff" d="M.86 0h248.93v412.68H.86z"/>
    </clipPath>
  </defs>
</svg>
