<svg xmlns="http://www.w3.org/2000/svg" width="251" height="414" fill="none" viewBox="0 0 251 414">
  <path fill="#956BB6" d="M75.808 105.251c-.786 0-1.572.083-2.344.236-9.187 1.883-12.483 6.884-16.377 15.359-3.665 7.975-5.8 17.325-6.225 26.085-.445-.139-.361-.5-.389-.841-.431-5.223.042-12.038 1.245-17.158.73-3.112 2.267-5.995 2.56-9.19.083-.917-.084-1.897.02-2.821.23-2.091 1.912-5.911 3.394-7.405.424-.424 1.189-.688 1.377-1.091.299-.639.07-1.583.16-2.306.25-1.938 2.69-5.342 4.812-5.245.87.042 4.798 2.321 5.216 1.904.027-.91-1.28-1.39-1.899-1.987-1.898-1.827-5.542-6.474-6.634-8.815-1.676-3.592 1.509-6.579 4.082-8.712 1.106-.916 2.531-1.792 3.88-2.278-.23 2.341.39 6.071 1.002 8.378.494 1.855 2.462 6.912 4.026 7.919.244.16.41.208.473-.097.084-.417-1.272-2.543-1.55-3.182-2.734-6.308-2.942-13.588-.536-20.02.23-.25.41-.674.64-.882 1.28-1.188 3.24-2.606 5.056-2.53-.341 1.397-.48 3.717-.578 5.204-.25 3.744-.514 8.822.293 12.42.076.348.16 1.154.472 1.32.362-3.16.098-6.37.383-9.565.431-4.89 1.585-9.781 3.88-14.123.57-1.076 1.51-2.056 1.808-3.216.063-.042.14-.243.306-.347 2.483-1.48 5.32-2.196 8.227-1.925-1.78 3.37-2.482 7.301-3.755 10.747-.605 1.632-2.392 3.772-3.296 5.425-2.386 4.342-3.547 8.78-3.568 13.769.292.062.397-.098.577-.278.494-.487.967-3.279 1.266-4.23 3.38-10.567 8.255-15.332 17.942-20.348 7.267-3.765 15.188-3.556 22.824-6.752 1.203-.507 2.594-1.625 3.95-1.563.425.021 1.551.528 1.788.882.194.3.751 2.633.758 3.03.02 1.32-1.176 2.701-1.69 3.861-.098.07-.251.397-.466.57-.348.271-1.106.285-1.05.945 1.21.188 2.128-.64 3.261-1 2.066-.647 4.618-1.119 6.03.903 1.411 2.021-.292 4.244-1.558 5.925-9.055.514-18.311.514-27.039 3.21-10.431 3.223-17.163 7.724-23.074 16.929-.167.257-1.342 2.16-1.245 2.257.355.084.452-.201.66-.375 1.538-1.271 2.86-2.903 4.48-4.244 6.87-5.69 14.172-9.837 23.408-9.781 5.737.028 11.321 2.16 16.933 3.168 14.931 2.688 25.919 1.5 40.586-1.21 3.025-.555 9.513-1.86 11.607 1.175.897 1.306.32 4.39-.487 5.766-4.18 7.057-18.52 8.016-25.759 7.19-11.03-1.258-22.017-4.829-33.075-6.558-11.057-1.73-21.009-3.738-30.717 2.556-1.321.855-2.865 1.973-3.839 3.175 5.355-3.015 11.308-4.814 17.539-4.453 16.245.945 25.14 9.621 35.092 21.215 4.582 5.335 9.186 10.962 12.288 17.284.146.298.069.778.132.91-.452.868.021 1.84-.341 2.785-1.377 3.64-10.89 3.529-13.644 1.987-2.073-1.167-2.462-5.203-3.38-7.419-2.858-6.905-9.472-14.435-15.891-18.228-8.706-5.141-24.006-10.56-33.937-7.121-1.843.639-3.365 2.501-4.882 2.8h-5.208v.007Zm8.345-10.42v.187c.125-.062.125-.125 0-.187Zm3.602.757v.188c.125-.063.125-.126 0-.188Z"/>
  <path fill="#956BB6" d="M180.595 73.616c-4.834 7.405-14.583 8.606-22.664 9.468-12.65 1.355-23.276-.028-35.593-2.522-2.253-.458-4.464-1.264-6.752-1.59-6.266-.897-12.379.284-17.775 3.542.07-.27.598-.73.82-.875 12.393-8.225 31.608-6.537 45.85-7.065 8.429-.312 18.554-2.8 26.127-6.488.327-.16.842-.702.89-.722 1.016-.369 4.869-.966 5.974-.966 2.587 0 4.736 1.924 4.222 4.613-.042.229-.96 2.403-1.092 2.605h-.007Z"/>
  <path fill="#BC98C1" d="M60.73 91.99c1.092 2.34 4.736 6.98 6.635 8.815.619.59 1.926 1.077 1.898 1.987-.417.416-4.346-1.862-5.215-1.904-2.121-.104-4.562 3.307-4.813 5.245-.09.722.14 1.66-.16 2.306-.187.403-.952.667-1.377 1.091-1.488 1.493-3.164 5.314-3.393 7.405-.105.924.062 1.903-.021 2.82-.292 3.196-1.83 6.079-2.56 9.191-1.195 5.12-1.675 11.934-1.244 17.158.028.348-.056.709.39.841-.077 1.542-.3 3.223-.188 4.737h-.188a15.385 15.385 0 0 1-.856-2.271c-1.731-6.134-1.32-14.56-.855-20.93.73-9.976 2.504-22.911 6.6-32.053 1.07-2.39 3.046-3.424 5.34-4.418l.008-.02Zm67.325-44.522c-4.958 1.32-10.188.903-15.209 1.952-9.84 2.063-16.788 7.676-20.063 17.276 1.349-.555 2.49-1.563 3.783-2.278 9.089-5.016 16.989-3.48 26.134-6.481 2.838-.931 7.42-4.356 9.103-.104.71 1.799 1.155 4.119-.146 5.738-.313.097-1.919 1.076-2.274 1.326.508-1.16 1.711-2.542 1.69-3.862-.007-.403-.563-2.737-.758-3.029-.236-.354-1.363-.861-1.787-.882-1.356-.063-2.747 1.056-3.95 1.563-7.636 3.202-15.557 2.987-22.824 6.752-9.688 5.016-14.556 9.781-17.942 20.347-.306.945-.772 3.737-1.266 4.23-.18.181-.285.34-.577.278.02-4.987 1.182-9.426 3.567-13.768.904-1.646 2.692-3.793 3.297-5.425 1.272-3.446 1.975-7.378 3.755-10.747 2.344-4.432 10.056-10.163 14.743-11.893 6.934-2.563 13.658-1.243 20.724-.993Z"/>
  <path fill="#956BB6" d="M196.145 88.773c-.515.452-2.323 1.424-3.032 1.806-3.61 1.952-7.309 2.994-11.384 3.502 2.461-2.564 4.123-6.426 3.094-10.004-.236-.813-1.147-2.82-1.69-3.431-.361-.403-1.085-.709-1.404-1.153l4.742-1.522c2.852.285 7.428-2.244 10.049-1.23 2.128.82 2.879 3.988 2.636 6.037-.167 1.438-1.94 5.044-3.011 5.988v.007Z"/>
  <path fill="#BC98C1" d="M84.055 62.626c-.299 1.16-1.237 2.14-1.808 3.216-2.301 4.342-3.449 9.232-3.88 14.123-.285 3.195-.02 6.404-.383 9.565-.313-.166-.396-.972-.472-1.32-.807-3.598-.536-8.676-.293-12.42.098-1.487.237-3.807.578-5.203.619-2.557 4.082-6.537 6.258-7.954v-.007ZM68.694 81c.291-3.008 1.46-4.904 3.414-7.01-2.406 6.44-2.205 13.72.535 20.021.279.64 1.635 2.765 1.551 3.182-.062.305-.23.257-.473.097-1.564-1.007-3.532-6.065-4.026-7.92-.612-2.306-1.231-6.036-1.001-8.377V81Z"/>
  <path fill="#7B4796" d="M50.675 151.669c.007.104.334.459.188.758-.445-.063-.285-.55-.376-.758h.188Z"/>
  <path fill="#956BB6" d="M84.153 94.83c.126.064.126.126 0 .189v-.188Z"/>
  <path fill="#7B4796" d="M131.665 63.57c.424-.124 2.246-.368 2.74-.388 3.4-.14 5.271 2.743 4.61 5.932-.236 1.132-1.69 2.07-2.044 3.168 2.67-.32 5.361-.125 8.06-.382 6.433-.605 17.08-3.28 22.476-6.822 1.391.556 2.879 1.236 3.985 2.272-.056.02-.563.562-.89.722-7.573 3.689-17.699 6.176-26.128 6.488-14.242.528-33.457-1.16-45.85 7.065-.222.146-.75.611-.82.875 5.404-3.258 11.509-4.445 17.775-3.543 2.281.327 4.493 1.14 6.753 1.591 12.316 2.494 22.949 3.877 35.592 2.522 8.081-.868 17.831-2.063 22.664-9.468 1.454.826 2.998 1.771 4.34 2.764.563.417 1.391.869 1.537 1.591l-4.743 1.522c.32.444 1.043.75 1.405 1.153.542.611 1.453 2.619 1.689 3.431 1.037 3.578-.632 7.433-3.094 10.004 4.075-.507 7.775-1.55 11.384-3.501.709-.383 2.517-1.348 3.032-1.807.897.264 1.474 1.55 1.926 2.334 4.076 7.128 6.864 20.806 7.365 29.024.988 16.401-.779 44.396-11.753 57.407-.341.403-2.623 1.985-3.075 1.547.502-1.003.551-1.588.572-2.498.007-.467-.07-1.013-.341-2.182-1.343-5.781-4.048-17.103-8.637-21.02-4.59-3.918-12.323-5.579-18.207-6.065-1.196-.097-3.373.334-4.256-.486-.793-.737-2.037-6.356-2.573-7.85-1.078-2.994-2.726-5.752-4.075-8.53-.063-.126.014-.612-.132-.911-3.102-6.321-7.713-11.948-12.289-17.283-9.951-11.594-18.846-20.27-35.091-21.215-6.231-.361-12.177 1.438-17.539 4.453.974-1.195 2.518-2.313 3.839-3.175 9.708-6.294 19.91-4.244 30.717-2.556 10.807 1.688 22.052 5.3 33.075 6.557 7.239.827 21.579-.139 25.759-7.19.813-1.368 1.391-4.46.487-5.765-2.094-3.029-8.582-1.73-11.607-1.174-14.674 2.709-25.655 3.897-40.586 1.209-5.605-1.008-11.196-3.14-16.933-3.168-9.243-.049-16.538 4.091-23.409 9.78-1.62 1.342-2.941 2.974-4.478 4.245-.216.174-.306.459-.66.375-.098-.097 1.084-2 1.244-2.257 5.911-9.205 12.643-13.7 23.074-16.93 8.728-2.702 17.984-2.702 27.039-3.209 1.265-1.68 3.039-3.807 1.558-5.925-1.482-2.12-3.964-1.556-6.03-.903-1.14.36-2.051 1.188-3.261 1-.063-.66.695-.674 1.05-.945.222-.174.375-.5.466-.57.354-.25 1.968-1.229 2.274-1.326l.014.014ZM97.429 82.522v.188c.125-.063.125-.125 0-.188Zm29.11 12.692c1.815 1.257 3.672 2.403 5.404 3.793 9.298 7.474 14.736 15.435 21.454 24.987 3.136 4.467 12.086 13.81 16.92 16.068 4.833 2.257 13.143 1.32 17.615-1.431 4.02-2.473-1.565-4.293-3.408-5.377-5.167-3.029-10.445-7.072-14.833-11.136-8.046-7.44-15.091-17.061-24.931-22.27-5.654-2.995-12.031-3.35-18.214-4.634h-.007Zm43.249 4.925c-.083.354.118.368.313.535.835.722 3.06 1.952 4.11 2.529 7.33 4.015 17.393 6.238 22.4-2.321.389-.66 1.245-2.216 1.224-2.931-.035-1.146-1.676-2.126-2.733-2.181-1.92-.098-4.896.673-7.003.778-1.947.097-8.241-.55-9.382-.09-1.578.645-3.317 1.986-5.083 2.688-1.182.465-2.58.924-3.846.993Zm-20.014-.563 8.533 6.634c4.527 3.814 7.816 7.864 13.435 10.261 5.084 2.167 13.04 4.369 18.276 2.084 2.858-1.244 6.134-4.3 5.758-7.711-.153-1.383-1.314-.667-2.183-.646-10.313.222-19.041-2.633-26.795-9.434-5.696-.048-11.419-.111-17.024-1.18v-.008Z"/>
  <path fill="#956BB6" d="M87.755 95.588c.125.063.125.125 0 .188v-.188Zm38.784-.375c6.176 1.285 12.56 1.646 18.214 4.633 9.84 5.21 16.885 14.824 24.931 22.271 4.395 4.064 9.666 8.107 14.833 11.136 1.843 1.077 7.428 2.904 3.408 5.377-4.472 2.75-12.838 3.653-17.615 1.431-4.778-2.223-13.777-11.601-16.92-16.068-6.718-9.552-12.156-17.513-21.454-24.987-1.725-1.39-3.589-2.536-5.404-3.793h.007Zm23.234 4.362c5.606 1.063 11.329 1.133 17.025 1.181 7.754 6.801 16.481 9.663 26.795 9.434.869-.021 2.03-.73 2.183.646.376 3.411-2.907 6.467-5.758 7.711-5.237 2.285-13.192.083-18.276-2.084-5.619-2.397-8.908-6.447-13.436-10.261l-8.533-6.634v.007Z"/>
  <path fill="#956BB6" d="M169.788 100.138c1.259-.069 2.663-.528 3.846-.993 1.766-.695 3.505-2.043 5.083-2.689 1.141-.465 7.434.181 9.382.09 2.107-.104 5.083-.868 7.003-.777 1.057.048 2.698 1.028 2.733 2.18.021.71-.835 2.266-1.224 2.932-5 8.559-15.07 6.336-22.4 2.321-1.05-.577-3.276-1.807-4.11-2.529-.195-.167-.397-.181-.313-.535ZM97.429 82.521c.125.063.125.126 0 .188v-.188Zm30.627-35.053c4.019.146 8.046.014 12.01-.597 3.491-.542 10.181-2.57 13.345-1.334.904.354 1.398.799 1.676 1.737 1.592 5.272-5.737 8.231-9.534 9.815l-4.409 1.556c3.47.466 7.246-.667 10.577-1.653 2.963-.875 5.842-2.084 8.811-2.945 3.547-1.028 9.764-3.001 11.669 1.514 1.412 3.341-2.009 7.76-4.701 9.524-5.396 3.543-16.043 6.217-22.476 6.822-2.698.25-5.39.055-8.06.382.355-1.098 1.808-2.036 2.045-3.168.66-3.188-1.211-6.071-4.611-5.932-.501.02-2.323.257-2.74.389 1.307-1.619.855-3.932.146-5.738-1.683-4.252-6.266-.827-9.103.104-9.145 2.994-17.045 1.465-26.135 6.481-1.293.716-2.434 1.723-3.783 2.279 3.276-9.6 10.23-15.214 20.063-17.277 5.021-1.049 10.251-.632 15.21-1.952v-.007Z"/>
</svg>
