<svg xmlns="http://www.w3.org/2000/svg" width="251" height="414" fill="none" viewBox="0 0 251 414">
  <path fill="#8F2926" d="M173.339 211.771c-.724.623-3.505-.189-4.259.033-.314.092-1.009.971-1.411 1.268-1.243.911-2.625 1.263-4.179 1.183-.586-.029-1.888-.485-2.252-.368-.155.05-.779.958-1.081 1.226-2.056 1.811-4.727 2.978-7.495 2.141-.783-.238-2.245-1.447-2.542-1.476-.427-.046-.9.326-1.348.368-.67.063-1.487-.092-2.081.021-.344.067-1.763 1.384-2.291 1.719-3.978 2.514-8.55 2.769-12.587.213-4.476 4.405-11.402 4.76-16.49 1.155-4.589 3.003-9.568 1.915-13.889-.975-4.338 4.333-11.938 2.974-15.33-1.886-2.931.61-6.78-.452-8.865-2.623-.465-.481-1.746-2.769-1.91-2.865-.2-.121-2.105-.197-2.826-.423-1.842-.568-5.163-3.095-5.966-4.827-.394-.849-.453-2.455-.6-3.408-2.277-.544-4.643-2.251-5.606-4.422-.302-.677-.406-1.928-.687-2.367-.205-.322-1.7-1.071-2.177-1.456-4.958-3.994-7.152-11.247-4.02-16.998.427-.783 1.185-2.155 2.01-2.481.063.414 1.9 3.008 2.294 3.53 7.228 9.55 20.23 14.732 31.627 16.899 7.672 1.455 16.189 2.225 24.057 2.309 21.179.226 42.099-2.857 61.797-10.625.716-.455.871-1.187.779-1.986-1.876.518-3.899.56-5.733-.193.427-.552 1.223-.581 1.851-.92 2.667-1.447 4.464-5.107 5.552-7.818 2.09-5.203 3.22-10.13 2.094-15.748-.448-2.229-2.291-6.123-2.42-7.909-.072-.983.774-3.526.925-4.777a18.054 18.054 0 0 0-.93-8.382c-.51-1.439-1.293-2.719-1.913-4.104.385-.083.511.084.77.277 1.365.999 4.611 4.96 5.096 6.554.997 3.279-.578 7.249.536 10.733.775 2.422 1.847 4.488 2.446 7.106 2.717 11.863 2.864 24.03-.922 35.679-1.926 5.919-5.292 10.683-9.258 15.38-.226.268-.716 1.188-.77 1.238l.004.005Z"/>
  <path fill="#DE595D" d="M100.735 53.249c-10.464-.205-29.228 5.851-36.4 13.748-.888.98-2.718 4.116-3.434 4.589-.717.472-2.3.66-3.204 1-6.193 2.313-11.31 7.846-13.797 13.899-.276.673-.494 1.99-.775 2.472-.26.452-2.52 2.225-3.14 2.974-2.66 3.216-3.677 7.529-3.836 11.636-.038.967-.431 4.3 1.018 3.894.142-.041 1.503-1.355 1.566-1.501.21-.473.033-1.054.146-1.573.7-3.246 2.249-5.902 4.439-8.357 3.094-3.468 6.77-5.475 11.561-4.768l-4.388 1.627c-3.505 1.497-7.114 4.613-7.944 8.482-.276 1.293-.062 3.25-.36 4.221-.113.368-1.553 1.874-1.947 2.447-3.773 5.521-6.113 16.735-1.227 22.093.197.218.775.498.792.59.042.259-1.721 4.036-1.977 4.889-1.704 5.672-2.462 14.293-1 20.011.547 2.143 1.05 3.385-.461 7.173-.268 1.732-.08 5.806.23 7.575.633 3.597 2.894 9.039 7.395 6.354-.377 1.096-1.202 1.61-2.286 1.916-2.496.702-2.869-.385-2.676 3.049.26 4.689 2.441 11.205 6.319 14.117 2.83 2.124 5.866.589 6.29-2.753.38.113.468.757.518 1.1.578 3.92-2.813 6.923-6.398 7.638-.662.13-1.486-.171-1.955.431-5.285-.95-9.64-6.195-10.795-11.268-1.056-4.618-.964-9.428 2.395-13.08-3.932-5.366-4.192-11.975-.972-17.764-4.493-8.838-1.91-19.153 1.524-27.887-3.354-6.165-4.555-13.322-2.324-20.102.206-.627 1.114-2.296 1.148-2.652.042-.431-1.122-3.94-1.265-4.961-.808-5.788-.016-12.058 3.61-16.78.276-.365 1.114-.963 1.235-1.247.276-.649.352-2.43.624-3.388.988-3.514 3.337-6.693 6.155-8.939-.594-.799-1.23-.966-1.612-2-1.269-3.446.884-4.83 3.815-5.725 4.212-1.289 10.07-1.297 13.927-3.267 1.332-.682 3.421-3.104 4.807-4.17 8.136-6.27 19.894-7.37 29.797-6.5 1.612.142 3.296.405 4.874.76l-.012-.003Z"/>
  <path fill="#8F2926" d="M217.282 155.238c-.298.531-.926 1.263-1.051 1.531-.273.581.841 3.915.996 4.919.076.489.013.929.055 1.38-3.455-6.726-6.336-13.799-11.088-19.763-2.505-3.146-5.616-5.747-8.208-8.792.377-.017.804.217 1.131.393 4.748 2.547 10.816 8.984 13.923 13.393 1.566 2.225 2.701 4.697 4.237 6.935l.005.004Zm-.001-24.064c-.712 1.071-.054 1.64 0 2.773.076 1.631-.456 3.233-1.147 4.672-1.022-4.22-3.283-11.736-6.897-14.401-.368-.272-1.612-.816-1.679-.995-.243-.699.444-2.769.36-3.794-.138-1.711-2.131-5.141-3.257-6.488-.8-.957-1.851-1.652-2.668-2.58 3.132.87 6.143 4.839 7.487 7.696.494 1.05.812 3.062 1.214 3.752.218.376 1.311.928 1.721 1.338 2.002 1.991 4.079 5.338 4.866 8.031v-.004Zm-4.584 43.354c-.742.577-1.466 1.342-2.483 1.526-.75-1.338-.976-2.722-1.479-4.35-2.541-8.223-5.799-16.212-9.601-23.917.423-.1.423.247.611.44 7.144 7.324 9.409 17.011 12.956 26.301h-.004Zm.954-84.418c-1.746.034-2.86-.74-4.393-1.334l2.257 2.995c.607.795 1.047 1.694 1.562 2.543-4.573-4.79-9.296-9.219-14.652-13.142-.711-.523-4.25-2.677-4.467-2.983-.18-.255-.281-1.154-.176-1.254.448-.444 5.33 1.965 6.117 2.384 5.063 2.69 9.891 6.588 13.752 10.796v-.005Z"/>
  <path fill="#DE595D" d="M101.69 48.668c-2.345-2.66.515-3.442 2.96-3.246 5.766.469 12.998 5.5 17.294 9.165-4.707-2.882-12.085-5.032-17.537-5.865-.804-.12-2.005-.451-2.713-.054h-.004Z"/>
  <path fill="#B93220" d="M200.838 99.768c4.338 2.543 8.651 6.617 11.959 10.394.461.527 1.258 1.437 2.082 2.415 1.577 1.871 5.878 3.197 6.283.784.934-5.588-5.183-14.317-8.08-19.052-4.573-4.785-9.296-9.219-14.652-13.142-.712-.523-4.254-2.677-4.468-2.983-.184-.25-.28-1.154-.18-1.254.448-.444 5.331 1.966 6.118 2.384 5.062 2.69 9.89 6.588 13.751 10.796 1.704-.03 3.224-1.088 3.363-2.866.201-2.589-2.534-6.529-4.129-8.495-3.773-4.634-9.262-7.579-13.944-11.176-.507-.021-1.713-.85-2.102-1.242-.025-.147.176-.113.289-.097 1.792.26 4.799 1.991 6.591 2.677 1.616.615 5.28 2.376 6.21 0 1.134-2.894-2.069-6.144-4.317-7.529-1.139-.706-2.438-1.037-3.526-1.63-1.78-.98-3.58-2.59-5.498-3.673-8.413-4.727-18.814-7.199-28.499-6.647-5.176.226-16.21 3.88-16.725 4.24-.336-.329 6.051-4.326 6.527-4.515.17-.115.331-.218.484-.311 2.231-1.347 4.521-3.947 2.027-4.705-5.632-1.753-16.571 4.58-22.408 8.345-3.704 2.1-6.878 4.93-10.246 7.432-1.981-1.677-3.518-3.931-5.804-5.333-4.706-2.882-12.085-5.032-17.537-5.864-.808-.125-2.005-.452-2.713-.054 1.591 1.802 5.343 3.02 7.579 4.358 1.227.736 2.353 1.581 3.501 2.418-.277.401-.39.217-.716.155-3.786-.724-7.219-2.267-11.323-2.351-10.464-.205-29.228 5.852-36.396 13.749-.892.978-2.718 4.116-3.434 4.588-.729.481-2.303.661-3.207 1-6.194 2.313-11.31 7.847-13.798 13.9-.276.673-.494 1.99-.774 2.471-.264.452-2.521 2.225-3.14 2.974-2.66 3.217-3.677 7.53-3.836 11.637-.038.966-.428 4.299 1.017 3.894.147-.038 1.503-1.356 1.566-1.502.214-.473.038-1.054.147-1.573.699-3.245 2.248-5.901 4.442-8.357 3.095-3.467 6.767-5.475 11.557-4.772l-4.384 1.627c-3.509 1.497-7.114 4.613-7.947 8.487-.277 1.292-.059 3.25-.36 4.22-.113.368-1.554 1.874-1.947 2.447-3.773 5.521-6.11 16.735-1.227 22.093.197.218.774.498.791.59.042.259-1.72 4.041-1.976 4.89-1.705 5.671-4.425 17.755-.956 23.397 0 0-.28.502-.51 3.786-.268 1.732-.08 5.802.23 7.575.633 3.598 2.89 9.039 7.395 6.35-.38 1.096-1.202 1.614-2.286 1.916-2.496.702-2.868-.385-2.676 3.053.26 4.689 2.441 11.206 6.319 14.117 2.83 2.125 5.866.59 6.29-2.752.38.113.473.757.523 1.1.578 3.919-2.814 6.922-6.398 7.637-.662.13-1.491-.171-1.96.431 2.073.372 4.003-.192 5.62 0 .862.105 1.963.929 3.274.958.8.021 2.026-.527 2.621-.355.356.1 1.168 1.171 1.579 1.493 2.96 2.317 6.15 2.823 9.643 1.342-.394-.849-.452-2.459-.599-3.413-2.278-.543-4.644-2.25-5.61-4.421-.302-.678-.407-1.928-.688-2.367-.205-.322-1.7-1.071-2.173-1.456-4.957-3.994-7.152-11.247-4.02-16.995.423-.782 1.185-2.158 2.01-2.48-.125-.795.557-1.255.867-1.903 2.345-4.923-2.89-10.265-4.451-14.853-1.641-4.827-1.172-10.85.142-15.711-6.117-9.089-3.814-20.403-.33-30.032 2.32-6.424 5.31-11.448 9.697-16.66.93-1.104 3.723-3.547 4.209-4.387.335-.586.402-1.84.666-2.585 1.189-3.38 4.024-7.078 7.06-8.985 3.877-2.443 9.492-3.79 14.044-3.815.063.318-.067.402-.331.527-1.026.494-2.642.85-3.81 1.347-6.102 2.619-11.143 6.362-14.04 12.51-.269.57-.386 1.515-.725 1.95-.31.393-1.767 1.226-2.303 1.71-7.148 6.484-14.555 24.035-15.1 33.609-.13 2.301.448 10.177 2.11 11.754.168.159 1.395.807 1.68.899 2.479.816 4.748-.82 6-2.869 1.608-2.631.306-5.396.147-8.24-.092-1.623.017-3.271.2-4.877.277-.046.26.33.323.531.758 2.359 1.24 4.588 2.655 6.709 1.98 2.974 5.674 4.384 8.484 1.543-4.472-3.505-7.32-10.917-5.435-16.417.23-.669.95-1.585 1.034-2.02.435-2.359.301-4.61.975-7.236 1.437-5.584 5.603-13.356 10.402-16.723.326-.234.615-.443 1.047-.38-3.384 5.148-6.738 10.255-8.79 16.132-2.324 6.655-1.566 13.515.762 20.061.327.92 1.491 2.94 1.533 3.718 4.074.038 6.151-1.828 5.712-5.994-.084-.819-.947-2.877-.926-3.279.017-.309 1.043-1.322 1.294-1.74 1.512-2.505 1.122-5.651-.193-8.144-.184-.355-.69-.74-.82-1.096-.298-.828.858-4.069 1.235-5.057.858-2.267 2.11-4.701 3.635-6.583 1.239-3.752 6.436-9.44 10.213-10.704.82-.272 1.314-.268.43.43-7.067 5.623-9.295 13.515-6.444 22.216.679 2.074 1.906 4.094 3.635 5.437.075-.071.377-.038.657-.389.964-1.209 1.458-3.342 1.441-4.86-.004-.598-.482-1.995-.356-2.447.105-.372.678-.515.93-.803 1.934-2.238 2.533-6.781 2.11-9.633.52-.184 1.172-.297 1.654-.544 2.09-1.083 4.924-6.446 6.474-8.616 2.269-3.183 5.016-6.885 7.537-9.85.406-.478 2.215-2.62 2.575-2.774.239-.1.356.042.281.284-.151.51-1.738 2.3-2.178 2.978-1.75 2.707-3.036 6.174-4.886 8.58-.62 3.83-1.52 9.034.213 12.677.348.728 1.579 1.883 1.663 2.167.146.498-.189 1.711-.164 2.447.03.903.356 2.288.679 3.141.188.502 1.03 1.736 1.055 2.02.029.327-.972 1.586-1.106 2.523-.448 3.141.654 5.839 3.2 7.683 4.426-1.217 5.707-5.027 6.599-9.16.992-4.622 1.474-9.654-.867-13.95 1.03.03 1.784 1.247 2.253 2.042.992 1.677 1.57 4.145 1.57 6.077 0 1.331-1.403 2.025-1.126 4.371.071.598.594 1.552.557 1.924-.034.339-.645.858-.846 1.268-1.365 2.723-.067 5.626 1.796 7.713-2.286 3.848-6.499 7.403-3.593 12.188.536.879.834 1.201 1.872 1.469.771-1.222 1.813-2.196 2.563-3.451 3.283-5.488 3.827-15.355 3.559-21.671l-.578-6.199c.423-.418 1.432 1.376 1.625 1.715 2.261 3.982 3.207 13.406 2.768 17.957 1.817 3.555-1.885 10.674 3.584 11.979 6.7 1.598 8.086-7.027 8.27-11.682.348-8.78-2.102-16.886-4.974-25.034.301-.017.669.46.858.669 5.376 5.927 10.041 15.627 9.049 23.758-.49 4.036-2.948 7.83.498 11.206.285.28.729.309.683.652-.532.958-1.445 1.673-1.956 2.644-1.143 2.183-.98 5.383.034 7.579 5.297.042 8.63-3.388 10.372-8.065 1.775-4.772 2.751-10.139 2.621-15.237l.59.113c1.412 4.417 2.107 8.825 2.278 13.447.603.067.938.925 1.181 1.397 1.147 2.221 1.709 5.099 2.198 7.546 1.768 8.888 2.768 17.68.109 26.54-.64 2.133-2.244 5.052-2.152 7.198.13 2.92 2.437 6.433 5.159 7.55.427-.552 1.223-.577 1.851-.92 2.663-1.447 4.463-5.107 5.552-7.818 2.09-5.203 3.22-10.13 2.094-15.748-.448-2.229-2.291-6.119-2.421-7.905-.071-.987.775-3.526.926-4.777a18.195 18.195 0 0 0-.93-8.386c-.511-1.439-1.294-2.719-1.913-4.1.385-.083.511.084.77.276 1.365 1 4.615 4.961 5.1 6.555.997 3.283-.578 7.249.532 10.733.775 2.422 1.847 4.492 2.446 7.106 2.717 11.863 2.864 24.03-.922 35.679-1.922 5.919-5.292 10.683-9.258 15.38-.226.268-.716 1.188-.77 1.238 5.192 7.412 14.907 1.983 16.087-5.5 3.924-.87 5.457-3.204 6.546-7.065 1.735-6.156 1.441-12.708.248-18.854-.143-.739.533-1.325 1.107-.838 1.306 1.107 2.077 3.02 2.232 4.471.348 3.209-.398 10.006 1.114 12.448 1.512 2.447 3.944 3.656 6.725 2.732 3.819-2.732 2.706-5.084 3.2-8.054 0-4.012.52-9.53-.386-15.056-.749-1.339-.975-2.719-1.478-4.346-2.537-8.228-5.799-16.217-9.601-23.917.423-.105.423.242.611.435 7.144 7.324 9.405 17.011 12.952 26.301 3.756-2.932 5.02-6.839 4.585-11.461-3.451-6.726-6.336-13.799-11.084-19.759-2.508-3.145-5.62-5.751-8.207-8.796.376-.017.804.221 1.13.397 4.749 2.543 10.816 8.985 13.923 13.393 1.566 2.225 2.701 4.697 4.238 6.935 2.68-4.81.557-10.306-2.102-14.627-.093-.64.657-1.364.959-1.987-1.022-4.22-3.283-11.737-6.897-14.405-.369-.268-1.612-.812-1.679-.996-.243-.698.444-2.769.36-3.793-.138-1.711-2.131-5.141-3.254-6.488-.799-.958-1.85-1.656-2.671-2.585 3.136.87 6.143 4.84 7.487 7.701.494 1.045.816 3.061 1.214 3.752.218.376 1.311.928 1.721 1.334 2.002 1.991 4.079 5.337 4.862 8.031 1.468-2.202 2.729-5.191 1.566-7.379-4.74-8.817-10.825-17.015-18.374-23.657-.31-.272-.309-.318-.351-.368-.051-.451.564-.084.715 0Zm-4.284-33.722c.122.063.122.126 0 .188v-.188Zm-21.204 68.56c-.093-.113-.386-.243-.197-.377.104.122.385.251.197.377Zm23.495 12.607c.125.067.125.129 0 .192v-.192Z"/>
  <path fill="#DE595D" d="m137.802 52.487-.382.194c.13-.063.247-.13.382-.194Zm-.955.572c.05-.03.1-.142.192-.192l-.192.192Zm-84.832 89.002c-6.122-9.09-3.815-20.404-.335-30.033 2.32-6.42 5.31-11.444 9.702-16.66.93-1.104 3.723-3.547 4.209-4.387.335-.586.402-1.84.665-2.585 1.19-3.38 4.024-7.073 7.06-8.985 3.878-2.443 9.493-3.79 14.049-3.815.063.318-.072.402-.331.528-1.03.493-2.642.849-3.81 1.346-6.102 2.619-11.143 6.362-14.045 12.511-.268.569-.385 1.514-.724 1.95-.306.392-1.767 1.225-2.303 1.71-7.148 6.483-14.556 24.034-15.1 33.608-.13 2.305.448 10.177 2.11 11.754-.527.954-.862 2.008-1.147 3.058Z"/>
  <path fill="#8F2926" d="M147.926 143.969c5.293.042 8.626-3.388 10.368-8.064 1.742-4.677 2.751-10.139 2.625-15.238l.591.113c1.411 4.417 2.106 8.825 2.273 13.447.18 4.928-.632 8.801-4.685 12.03-3.769 2.999-9.083 2.229-11.172-2.288Z"/>
  <path fill="#DE595D" d="M72.65 132.7c-4.472-3.506-7.32-10.917-5.435-16.418.23-.673.95-1.585 1.034-2.024.44-2.359.306-4.61.98-7.232 1.436-5.588 5.599-13.36 10.397-16.727.327-.23.616-.443 1.051-.38-3.383 5.153-6.741 10.26-8.793 16.132-2.324 6.655-1.562 13.515.762 20.061.327.92 1.49 2.94 1.533 3.718.058 1.021-.85 2.179-1.529 2.865v.005Z"/>
  <path fill="#8F2926" d="M121.944 133.845c.77-1.222 1.813-2.196 2.562-3.455 3.283-5.488 3.828-15.355 3.56-21.671l-.583-6.199c.428-.418 1.437 1.38 1.625 1.715 2.261 3.982 3.208 13.406 2.768 17.957-.486 5.023-3.295 13.363-9.937 11.649l.005.004ZM84.115 97.942c1.24-3.752 6.436-9.441 10.213-10.704.82-.276 1.315-.268.431.43-7.068 5.622-9.296 13.515-6.444 22.211.678 2.075 1.905 4.095 3.635 5.442-.017.017.033.259-.134.385-2.144 1.602-4.204 1.577-5.984-.477-3.254-3.752-3.2-12.795-1.717-17.287Z"/>
  <path fill="#DE595D" d="M113.728 119.905c-1.36.372-1.524.585-3.052.092-4.003-1.297-4.489-5.705-2.525-9.01.247-.418.98-.945.988-1.292.009-.347-.565-1.113-.708-1.586-.154-.514-.402-1.576-.418-2.078-.03-.854.393-1.749.138-2.606-.063-.214-.892-1.096-1.139-1.535-3.199-5.71-2.651-9.667 1.177-14.644-.62 3.831-1.52 9.035.213 12.678.348.728 1.575 1.882 1.663 2.166.146.498-.189 1.715-.164 2.447.034.904.356 2.288.679 3.142.188.502 1.03 1.735 1.055 2.02.029.326-.972 1.585-1.106 2.518-.452 3.141.654 5.839 3.199 7.684v.004Z"/>
  <path fill="#8F2926" d="M175.153 134.23c.105.122.386.252.197.374-.092-.113-.386-.244-.197-.374Zm23.692 12.983c.125.062.125.125 0 .191v-.191Z"/>
  <path fill="#B93220" d="M196.554 66.047c.125.063.125.125 0 .192v-.192Z"/>
</svg>
