<svg xmlns="http://www.w3.org/2000/svg" width="250" height="414" fill="none" viewBox="0 0 250 414">
  <path fill="#B93220" d="M117.626 41.132c5.267.04 9.151 2.433 12.856 5.967 4.999-2.107 11.573.16 14.564 4.574.273.08 1.635-.954 2.062-1.174 5.64-2.947 12.028-3.567 18.208-1.993 6.181 1.573 11.247 7.767 11.548 14.288 4.431 1.113 7.989 4.814 7.382 9.627 2.936-.273 5.506 1.307 7.649 3.087 1.742 2.84 1.855 6.661.781 9.781-.855 2.474-4.079 4.988-6.508 5.861l-2.823.72c3.137.867 6.641.22 9.584-1.06 2.944-1.28 3.631-3.247 6.795-.487 5.079 4.427 5.927 12.468 5.453 18.729-.047.626-.327 1.273-.36 1.913-.167.354-.888 1.58-.721 1.814 7.262 3.127 10.386 12.301 7.649 19.562-.16.42-.728 1.013-.694 1.42.033.36.767 1.447.954 1.94 1.576 4.194.835 8.541-1.582 12.234-.24.367-1.361 1.567-1.395 1.707-.1.387.408 1.254.521 1.694-.674 1.9-1.295 3.193-2.823 4.547-.294.26-.768.313-.988.653-.3.467-.414 1.867-.801 2.661-1.402 2.88-4.539 3.393-7.409 2.506-.774 3.867-4.031 6.774-8.11 5.468-.393-.127-.827-.54-1.094-.56-.301-.027-1.348.54-2.003.56-2.175.066-4.024-1.381-5.359-2.914-.034-.3.026-.607 0-.907-3.591.02-6.121-2.293-7.743-5.267-1.732-3.172-4.946-1.129-6.981-6.107-.741-1.807-3.838-2.667-5.374-3.907-3.317-2.68-4.658-7.888-3.918-11.995-4.945.18-10.192-3.273-10.926-8.367-1.849.673-7.122 1.614-13.452-1.304-6.528-3.01-7.962-8.135-9.428-10.124-1.118-.911-1.536-.34-2.991.4-3.751 1.9-9.171 1.6-11.54-2.253-1.689.94-3.785 1.593-5.694 1.953-4.986.933-9.858-.087-13.69-3.487-.934-.827-1.494-1.833-2.282-2.627-.147-.153-.16-.26-.44-.193-.675 3.793-4.686 7.16-8.13 8.521-.588.233-2.817.7-2.937.786-.073.054-.487 1.28-.674 1.607-2.016 3.547-5.62 6.467-9.925 5.994-.08 3.02-1.389 6.874-3.017 9.441-1.736 2.734-3.992 4.007-6.261 6.014-4.158 3.674-7.89 7.481-7.282 13.548.08.793 1.081 3.073 1.055 3.24-.04.227-.628.854-.788 1.207-3.691 7.907-.6 16.368 6.595 20.882.453.287 1.815.787 1.969.947.153.16 1.074 3.007 1.515 3.76 1.822 3.12 6.147 6.341 9.678 7.154-4.886-.427-9.965-2.26-12.528-6.674-.44-.753-.922-2.407-1.302-2.88-.3-.367-1.175-.614-1.628-.92-6.749-4.567-11.347-12.321-8.01-20.509-4.025-3.574-6.348-10.054-4.365-15.275-3.571-2.62-6.134-7.207-4.359-11.641.194-.487 1.055-1.567 1.061-1.84.007-.227-1.334-2.32-1.548-3.18-.968-3.967.073-6.554 2.997-9.214a15.752 15.752 0 0 1-1.809-2.794l.2-3.707c.534-2.2 1.155-4.734 2.49-6.607.407-.574 2.323-2.194 2.376-2.354.187-.613-.033-1.78.04-2.507.628-6.254 4.92-12.241 11.093-13.921.107-.78-.507-1.36-.727-2.08-2.617-8.415 1.088-20.202 10.893-21.41 1.602-5.48 5.68-9.793 10.425-12.767 3.064-1.92 5.58-2.794 9.058-3.694.314-.08.688.114.574-.413 3.611.033 7.289.86 10.626 2.207l3.578 1.973c-.247.247-1.629.22-2.263.374-.948.226-2.51 1.02-3.197 1.72-.347.353-1.449 2.26-1.582 2.287-.327.066-1.195-.234-1.922-.147-2.71.32-4.946 2.874-5.6 5.407l1.735-1.813c.928-.76 2.843-1.834 4.018-1.994.761-.1 2.116.2 2.51.127.147-.027 1.174-.994 1.508-1.2 1.342-.82 3.678-1.847 5.246-1.847.541 0 2.997.72 3.184.54 1.836-7.948 8.577-12.568 15.993-14.861.307-.094.687.126.58-.414l-.02-.013Zm50.968 48.004c.867-5.807-2.523-11.787-8.01-13.908-3.351-1.293-7.455-1.12-10.733.274-.04.327.407.18.614.16 8.344-.787 13.73 3.033 17.074 10.447l1.055 3.034v-.007Zm-15.399.834c-5.626-6.234-15.899-7.627-23.134-3.407-1.295.753-2.71 1.92-3.337 3.3l4.692-2.127c7.803-2.347 16.073-.213 20.504 6.874.988 1.58 1.823 3.374 1.929 5.26 7.049-1.933 12.248 4.868 11.494 11.429 5.493 1.02 9.271 5.487 9.632 11.034.02.273-.408 1.553.08 1.353 1.762-1.9 1.234-4.68.587-6.947-1.021-3.587-3.324-6.974-6.561-8.901-.427-.253-1.228-.38-1.482-.7-.314-.4-.22-2.553-.36-3.273-.821-4.134-5.113-9.861-9.525-10.488-.614-.087-2.296.187-2.396.12-.08-.06-.547-1.454-.781-1.86-.374-.64-.861-1.12-1.342-1.66v-.007Zm-74.161-5.194c-2.71.02-5.774.167-7.91 2.007-1.875 1.607-2.957 4.3-3.09 6.734-10.406 2.64-19.25 13.368-15.746 24.416-3.397 1.546-6.307 5.773-6.567 9.48-.26 3.707.867 6.214 2.836 9.348.528.84 1.115 1.667 1.81 2.38.12-.906-.395-1.793-.581-2.693-1.362-6.528-.354-13.868 6.12-17.142-1.895-9.534 1.916-18.182 10.993-22.015.6-.254 3.237-.974 3.358-1.1.113-.114.727-2.534.974-3.114 1.242-2.96 3.49-5.527 6.107-7.36l1.696-.941Z"/>
  <path fill="#8F2926" d="M209.549 151.322c2.63 10.241.381 20.682-8.496 27.063-.488.347-2.964 1.7-3.057 1.853-.207.334-.494 2.047-.841 2.794-1.829 3.874-7.97 6.554-12.088 6.487-.861-.013-2.363-.48-3.077-.373-.461.067-1.248.787-1.736 1.007-2.216 1-4.385 1.38-6.834 1.173-.908-.08-2.143-.64-2.764-.673-.48-.027-1.208.493-1.428.493h-3.184c-.04-.267.314-.247.507-.307 1.309-.42 2.657-.686 3.958-1.14 7.196-2.52 14.471-7.247 18.836-13.554-2.229-1.014-3.838-2.987-5.246-4.941-1.629-2.267-2.837-4.12-3.13-6.967 1.335 1.533 3.183 2.98 5.359 2.914.654-.02 1.702-.581 2.003-.561.273.02.707.434 1.094.561 4.085 1.313 7.342-1.594 8.11-5.468 2.87.887 6.007.374 7.409-2.507.387-.793.494-2.193.801-2.66.22-.34.694-.393.988-.653 1.521-1.354 2.149-2.647 2.823-4.547l-.007.006Z"/>
  <path fill="#DE595D" d="M83.218 48.773c.107.526-.26.333-.574.413-3.477.9-5.994 1.773-9.057 3.694-4.752 2.98-8.824 7.287-10.426 12.767-9.805 1.2-13.51 12.988-10.893 21.41.22.713.834 1.293.728 2.08-6.174 1.68-10.466 7.66-11.094 13.921-.073.733.154 1.893-.04 2.507-.046.16-1.962 1.78-2.376 2.353-1.335 1.874-1.949 4.401-2.49 6.608l-.2 3.707c-2.196-4.294-1.622-9.615 1.048-13.588.254-.374 1.422-1.607 1.469-1.814.086-.353-.307-1.293-.334-1.787-.2-3.587.267-5.96 2.396-8.874 1.996-2.734 4.873-4.207 8.163-4.854-3.07-6.107-2.222-14.961 2.997-19.642 2.023-1.806 4.88-3.3 7.562-3.72 3.184-9.12 13.683-15.268 23.115-15.188l.006.007Z"/>
  <path fill="#8F2926" d="M55.553 142.415c-4.52 12.215-3.645 27.429 3.384 38.537 4.191 6.621 10.59 9.202 17.892 11.662 1.342.453 4.664 1.579 6.026 1.946-.06.347-1.832.714-2.08.78-2.415.654-5.466.087-7.788-.78-2.056-.767-2.497-.907-4.686-1.413-3.53-.807-7.856-4.027-9.678-7.154-.44-.754-1.362-3.594-1.515-3.761-.154-.166-1.515-.66-1.97-.946-7.195-4.521-10.285-12.975-6.594-20.883.167-.353.748-.98.788-1.206.026-.167-.975-2.447-1.055-3.241-.607-6.06 3.124-9.867 7.282-13.548l-.006.007Zm149.264-31.457c.04-.64.314-1.28.36-1.913.468-6.261-.373-14.301-5.453-18.728-3.164-2.76-3.898-.767-6.795.486-2.896 1.254-6.454 1.927-9.584 1.06l2.823-.72c2.43-.873 5.66-3.387 6.508-5.86 1.074-3.12.961-6.941-.781-9.781.38.32.741.446 1.188.907 1.996 2.066 3.985 5.253 3.998 8.187 4.712 2.713 8.51 6.527 9.351 12.114.701 4.681.387 9.961-1.615 14.248Z"/>
  <path fill="#DE595D" d="M117.626 41.132c.114.54-.273.32-.58.413-7.409 2.287-14.151 6.914-15.993 14.861-.18.18-2.643-.54-3.183-.54-1.57 0-3.905 1.027-5.247 1.847-.334.207-1.361 1.174-1.508 1.2-.4.08-1.756-.226-2.51-.126-1.168.153-3.09 1.233-4.018 1.993l-1.735 1.814c.654-2.527 2.89-5.087 5.6-5.407.727-.087 1.595.213 1.922.146.133-.026 1.235-1.933 1.582-2.287.68-.693 2.242-1.486 3.197-1.72.634-.153 2.022-.126 2.263-.373.287-.287 1.007-1.96 1.381-2.534 3.945-5.954 11.794-9.34 18.823-9.287h.006Z"/>
  <path fill="#8F2926" d="M153.195 89.97c.487.54.968 1.02 1.342 1.66.233.4.701 1.8.781 1.86.1.067 1.782-.206 2.396-.12 4.405.633 8.704 6.36 9.525 10.488.14.72.053 2.873.36 3.273.254.327 1.055.447 1.482.701 3.23 1.933 5.533 5.313 6.561 8.9.647 2.267 1.175 5.048-.587 6.948-.488.2-.067-1.074-.081-1.354-.36-5.547-4.138-10.021-9.631-11.034.761-6.561-4.445-13.361-11.494-11.428-.107-1.887-.934-3.68-1.929-5.26-4.432-7.088-12.701-9.221-20.504-6.874l-4.692 2.126c.627-1.386 2.042-2.546 3.337-3.3 7.235-4.22 17.507-2.827 23.134 3.407v.007Z"/>
  <path fill="#DE595D" d="m79.033 84.776-1.695.94c-2.616 1.834-4.86 4.4-6.107 7.36-.247.58-.861 3.001-.975 3.114-.127.127-2.763.847-3.357 1.1-9.078 3.841-12.889 12.482-10.993 22.016-6.468 3.274-7.483 10.614-6.12 17.141.186.901.7 1.787.58 2.694-.694-.713-1.282-1.54-1.809-2.38-1.969-3.127-3.104-5.501-2.837-9.348.267-3.847 3.17-7.934 6.568-9.481-3.504-11.054 5.34-21.782 15.746-24.415.133-2.434 1.214-5.127 3.09-6.734 2.142-1.84 5.206-1.98 7.91-2.007Z"/>
  <path fill="#8F2926" d="m168.593 89.136-1.054-3.033c-3.351-7.414-8.737-11.235-17.074-10.448-.2.02-.654.167-.614-.16 3.277-1.394 7.389-1.567 10.733-.273 5.486 2.113 8.884 8.1 8.009 13.908v.006Z"/>
</svg>
