<svg xmlns="http://www.w3.org/2000/svg" width="250" height="414" fill="none" viewBox="0 0 250 414">
  <path fill="#1E1E1E" fill-rule="evenodd" d="M93.02 69.05c-58.34 32.12-43.05 93.01-43.05 93.01 4.89 26.87 25.5 31.47 25.5 31.47s-.84 1.19-1.18 2.18c-.44 1.26.06 2.67.94 3.67 46.04 52.39 101.23 12.89 101.23 12.89s7.99-6.24-.34-10.49c2.52-7.6-3.14-9.88-3.14-9.88s20.77-9.83 25.88-21.06c8.54-17.55 2.96-56.25 1.77-59.97-1.62-5.07-1.83-5.39-4.01-8.74-8.32-12.8-20.28-22.84-34.26-28.97-5.81-2.55-10.6-5.09-16.87-6.96-8.93-2.66-17.98-4.86-27.28-4.33-8.83.51-17.45 2.93-25.19 7.19v-.01Zm60.54 100.6c-2.92 7.92-5.21 15.31-13.32 19.77-3.01 1.66-6.37 2.61-9.8 2.89-50.15 4.12-61.75-6.63-67.77-11.23-2.85-2.18-16.31-17.89-8.38-54.77 6.79-31.56 36.01-43.59 47.99-47.25 3.25-.99 6.76-.77 9.84.66 38.52 17.82 41.19 51.1 43.7 68.79 1.01 7.13.22 14.39-2.27 21.15l.01-.01Z" clip-rule="evenodd"/>
  <path fill="#554E99" fill-rule="evenodd" d="M78.3 105.53c22.63-2.26 46-.52 67.9 5.94-6-11.85-16.16-23.48-34.07-31.76a13.822 13.822 0 0 0-9.84-.66c-9.26 2.83-28.83 10.67-40.36 28.67 5.43-.91 10.9-1.64 16.38-2.18l-.01-.01Z" clip-rule="evenodd"/>
  <path fill="#3C3A83" fill-rule="evenodd" d="M112.21 80.98c9.75 7.34 17.7 17.13 23.64 27.81 3.48.78 6.93 1.67 10.35 2.68-6-11.85-16.16-23.48-34.07-31.76-1.06-.49-2.17-.83-3.3-1.04 1.2.74 2.34 1.52 3.38 2.31Z" clip-rule="evenodd"/>
  <path fill="#353333" fill-rule="evenodd" d="M200.64 110.87c-1.62-5.07-1.83-5.39-4.01-8.74-8.21-12.62-19.95-22.56-33.69-28.71 2.9 4.5 6.7 9.71 9.55 14.95 4.62 8.49 7.73 16.53 10.04 25.9 3.03 12.33 3.68 27.05 1.4 39.67-1.91 10.57-12.33 19.02-20.58 25.33-4.43 3.38 17.95-15.5 9.8-44.15-.38 35.4-30.27 52.51-32.92 54.31-2.43 1.65-6.54 2.78-9.56 2.86-.08 0-.16.02-.24.03-50.15 4.12-61.75-6.63-67.77-11.23-2.43-1.87-12.59-13.58-10.58-39.91-.39-2.33-.66-4.69-.8-7.07-.38-7 .55-14.18 2.3-21.05-9.52 25.51-3.62 49.01-3.62 49.01 3.91 21.5 17.89 28.74 23.32 30.78 1.36.62 1.65.59 2.29.81 2.34 2.56 42.87 45.45 101.08 12.22 2.38 1.2-.35 6.52-.2 6.4 5.5-4.41 3.04-7.51 2.93-7.71-.77-1.56-3.27-2.78-3.27-2.78s2.65-6.89-2.52-9.51c.02 0 .03-.01.04-.02-.39-.25-.66-.36-.66-.36s20.77-9.83 25.88-21.06c8.54-17.55 2.96-56.25 1.77-59.97h.02Zm-26.75 90.52c-12.43 6.39-57.66 16.27-98.07-7.65 8.24 3.26 16.85 4.7 25.61 6.01 7.13 1.06 15.74 1.51 23.5 1.39 7.77-.11 16.03-.8 23.12-1.93 8.01-1.27 15.89-3.03 23.43-6.06.22-.09.45-.18.68-.28 2.28 4.01 1.9 8.43 1.74 8.51l-.01.01Z" clip-rule="evenodd"/>
  <path fill="#353333" fill-rule="evenodd" d="M54.299 126.31c6.79-31.56 36.01-43.59 47.99-47.25 0 0 1.76-4.19 16.33-12.21-66.79 19.73-64.32 59.46-64.32 59.46Z" clip-rule="evenodd"/>
  <path fill="#575757" fill-rule="evenodd" d="M53.08 115.2s13.64-34.34 65.54-48.35l16.7-3.35s-13.01-3.57-28.62 0c-21.68 4.97-49.18 29.2-53.62 51.7Z" clip-rule="evenodd"/>
</svg>
