<svg xmlns="http://www.w3.org/2000/svg" width="250" height="414" fill="none" viewBox="0 0 250 414">
  <path fill="#345570" fill-rule="evenodd" d="M210.389 175.45s9.68-21.82-7.32-26.96c-.55 3.57-1.3 8.3-2.42 11.86 1.05 6.33 3.1 13.59 9.74 15.1Z" clip-rule="evenodd"/>
  <path fill="#345570" fill-rule="evenodd" d="M199.25 186.04s7.25-5.95 5.29-16.73c-1.96-10.78-3.54-10.15-3.54-10.15s-3.39 10.75-5.83 13.44c0 4.25 1.23 11.33 4.08 13.44Z" clip-rule="evenodd"/>
  <path fill="#173653" fill-rule="evenodd" d="M72.24 218.22s.7-25.22-1.66-27.59c13.46 6.29 47.06 12.53 99.14-.66 11.79-2.42 20.09-8.73 25.46-17.38 1.68 20.86 3.74 67.86 3.74 69.28 0 1.42-.49 3.02-4.42 2.84-3.93-.18-3.23 1.93-7.22 2.83-3.99.9-85.52 10.11-103.98 0-3.19-2.12-8.31 1.26-11.54.72-3.23-.53.5-30.05.5-30.05l-.02.01Z" clip-rule="evenodd"/>
  <path fill="#09273C" fill-rule="evenodd" d="M207.16 167.88c0-2.32.12-4.63.2-6.95.03-.85.03-1.69-.03-2.54 0-.07-.17-1.19-.12-.96-.08-.41-.16-.82-.26-1.22-.11-.42-.24-.84-.36-1.26-.06-.2-.22-.64-.22-.69-.33-.76-.76-1.5-1.24-2.18-.05-.05-.32-.37-.46-.52-.22-.22-.45-.44-.69-.66-.04 0-.74-.47-.86-.54l-.27-.18c-.01 0-.03 0-.05-.01-.52 3.29-1.21 7.16-2.16 10.19.89 5.34 2.48 11.33 6.94 13.99-.29-2.1-.42-4.25-.42-6.45v-.02Zm-7.2 7.68c.68-4.21.82-8.33-.38-12.23-1.21 3.33-2.97 7.7-4.4 9.27 0 3.66.92 9.42 2.99 12.3.62-3.11 1.29-6.21 1.8-9.34h-.01Z" clip-rule="evenodd"/>
  <path fill="#173653" fill-rule="evenodd" d="M200.929 119.36c-7.82-12.46-110.94-33.14-141.95-20.74.58-2 1.31-3.89 2.18-5.67 3.33-6.83 8.75-12.62 15.09-17.39 13.24-9.96 30.45-15.45 40.72-16.69 1.11-.13 2.15-.24 3.09-.33 3.95-.37 6.38-.41 6.38-.41 46.151 1.08 65.63 32.88 72.21 51.75 1.22 3.51 1.96 6.74 2.27 9.48h.01Z" clip-rule="evenodd"/>
  <path fill="#345570" fill-rule="evenodd" d="M58.98 98.62c.58-2 1.31-3.89 2.18-5.67 3.33-6.83 8.75-12.62 15.09-17.39 0 0-5.27 6.93-2.81 13.41-8.39 6.97-14.46 9.65-14.46 9.65Z" clip-rule="evenodd"/>
  <path fill="#204868" fill-rule="evenodd" d="M127.13 85.01c-8.3-15.55 4.74-23.41 17.73-24.66-5.97-1.28-12.5-2.06-19.64-2.23 0 0-2.44.04-6.38.41-.95.09-1.98.2-3.09.33-4.09.49-9.2 2.53-14.68 3.87.46 2.09 1.41 8.34.19 10.03-5.15 7.1-18.53 12.59-23.58 17l49.46-4.75h-.01Z" clip-rule="evenodd"/>
  <path fill="#09273C" fill-rule="evenodd" d="M200.929 119.36c-7.82-12.46-110.94-33.14-141.95-20.74.58-2 1.31-3.89 2.18-5.67 6.43-3.43 25.87-13.04 43.06-13.56 17.83-.54 48.431 2.67 83.051 23.19.39.23 5.24-2.21 2.22-11.08 3.13 3.98 7.209 13.35 9.149 18.38 1.22 3.51 1.961 6.74 2.271 9.48h.019Z" clip-rule="evenodd"/>
  <path fill="#09273C" fill-rule="evenodd" d="M121.709 58.53c-4.18 4.42-12.99 16.14-16.94 22.9-.59 0-1.17.02-1.76.03-.32 0-.65 0-.98.02 3.49-5.45 10.94-16.65 16.59-22.62 1.11-.13 2.15-.24 3.09-.33Z" clip-rule="evenodd"/>
  <path fill="#173653" fill-rule="evenodd" d="M202.28 153.32c-14.19-9.41-27.48-16.45-39.82-21.61-.92-.39-1.83-.76-2.74-1.12-2.26-.9-4.48-1.74-6.68-2.52-66.2-23.55-102.59 7.65-102.59 7.65s-.93-25.69 4.78-34.56c5.7-8.87 33.2-19.73 47.77-19.69 19.6-.5 39.48 4.71 56.21 11.26.21.08.42.16.62.25 2.65 1.05 5.23 2.13 7.71 3.23.3.13.59.26.89.39 18.33 8.21 31.28 17.13 33.08 19.41 4.07 5.17 6.11 35.84.77 37.32v-.01Z" clip-rule="evenodd"/>
  <path fill="#345570" fill-rule="evenodd" d="M172.24 116.07c.87-4.82 2.57-10.75 5.86-14.85-3.01-1.53-6.25-3.09-9.67-4.63-.3-.13-.59-.26-.89-.39-2.48-1.1-5.05-2.18-7.71-3.23-.21-.08-.41-.16-.62-.25l-1.8-.69c3.92 6.38 4.12 15.58 1.66 22.13-1.88 4.99-4.74 9.49-8.41 13.09.79.27 1.58.54 2.38.82 2.19.78 4.42 1.62 6.68 2.52.91.36 1.82.73 2.74 1.12 3.87 1.62 7.83 3.42 11.88 5.42-2.76-6.54-3.43-13.71-2.1-21.06Z" clip-rule="evenodd"/>
  <path fill="#09273C" fill-rule="evenodd" d="M195.17 172.6c-2.81 4.53-6.43 8.41-10.93 11.43.19 7.01.98 13.99 1.69 20.97.76 7.49 1.51 15.09 1.11 22.63-.36 6.81-2.57 13.92-7.34 18.51-1.3 1.25-2.78 2.16-4.36 2.88 6.63-.69 11.07-1.26 11.92-1.46 3.99-.9 3.29-3.01 7.22-2.83 3.93.18 4.42-1.42 4.42-2.84s-2.06-48.42-3.74-69.28l.01-.01Z" clip-rule="evenodd"/>
  <path fill="#345570" fill-rule="evenodd" d="M89.61 245.89c-.22-.23-.46-.45-.7-.68-2.16-.18-4.33-.37-6.26-1.46-5.04-2.85-4.75-8.61-3.79-13.49.09-.45.18-.9.29-1.35.11-.47-.04-1.13.1-.22.2 1.33.08-.74.11-1 .06-.5.11-1.01.17-1.51.25-2.28.49-4.57.69-6.85.72-8.29 1.56-16.58 1.56-24.9-4.62-1.14-8.36-2.47-11.2-3.79 2.36 2.37 1.66 27.59 1.66 27.59s-3.73 29.51-.5 30.04c3.23.53 8.35-2.84 11.54-.72 2.86 1.57 7.25 2.67 12.62 3.41-2.27-1.37-4.32-3-6.29-5.07ZM65.73 101.86c1.6-4.51 4.23-9.17 7.72-12.9-8.42 3.66-15.6 8.14-18.21 12.2-5.7 8.87-4.78 34.56-4.78 34.56s4.57-3.92 13.42-7.93c-.58-8.75-1.1-17.58 1.85-25.93Z" clip-rule="evenodd"/>
  <path fill="#09273C" fill-rule="evenodd" d="M201.51 116c-.9-1.14-4.62-3.97-10.42-7.53 1.13 3.56 1.83 7.27 2.24 11.03.58 5.25.79 10.72-.3 15.92-.66 3.12-1.83 6.64-3.52 9.91 4.17 2.45 8.43 5.1 12.77 7.98 5.34-1.48 3.3-32.15-.77-37.32v.01Z" clip-rule="evenodd"/>
</svg>
