<svg xmlns="http://www.w3.org/2000/svg" width="250" height="414" fill="none" viewBox="0 0 250 414">
  <g clip-path="url(#a)">
    <path fill="#202020" d="M196.977 123.687s.286-.112.459-.173c0-.627.056-1.258.056-1.829-3.15-10.113-7.848-18.055-10.253-21.315-21.764-6.572-77.783-16.343-127.842-3.087-2.635 6.969-5.5 16.628-7.502 27.087 19.303 6.745 44.391 10.856 71.599 10.856 10.825 0 21.248-.626 31.159-1.828 1.66 11.712 7.333 32.569 25.834 29.201 20.39-3.77 18.159-28.972 16.494-38.856v-.056h-.004Z" opacity=".26"/>
    <path fill="#010101" fill-rule="evenodd" d="M167.824 162.945c-5.842-6.744-3.32-19.084-3.32-19.084l29.215.286s-5.158 22.344-16.724 22.859c-3.095 5.598-8.707 15.141-13.231 20.286-6.016 6.801-21.478 7.371-24.46 7.713.689-.112 2.292-.683 4.468-1.544 3.549-1.37 6.761-3.657 9.049-6.684 5.326-6.974 12.199-18.686 15.064-23.827h-.056l-.005-.005Z" clip-rule="evenodd"/>
    <path fill="#010101" d="M198.697 115.515s.286-.112.46-.173c1.833-30.684-21.825-60.4-74.519-61.088-43.533-.57-75.495 30.516-73.549 61.205 19.589 7.259 45.938 11.544 74.177 11.544 10.826 0 21.248-.627 31.16-1.829 1.66 11.712 7.333 32.569 25.833 29.201 20.391-3.77 18.159-28.972 16.495-38.855h-.057v-.005Z"/>
    <path fill="#0779B9" d="M203.789 113.57c1.889-30.684-22.627-60.4-77.042-61.088-45.075-.57-77.665 30.46-75.658 61.144 20.278 7.26 47.082 11.601 76.296 11.601 11.168 0 21.994-.627 32.247-1.829 1.721 11.712 7.558 32.574 26.692 29.201 21.08-3.77 17.357-38.973 17.526-39.029h-.061Z"/>
    <path fill="#185889" d="M186.268 152.598c21.136-3.77 17.357-38.972 17.526-39.029 1.491-24.173-13.404-47.77-46.454-56.971 7.793 9.373 23.429 32.06 4.239 43.715-18.154 11.03-79.33 10.688-110.546 10.628 0 .856 0 1.772.056 2.685 20.278 7.198 47.082 11.6 76.297 11.6 11.168 0 21.993-.627 32.247-1.829 1.721 11.656 7.563 32.574 26.692 29.201h-.057Z"/>
    <path fill="#010101" d="M182.944 140.143c4.754 0 8.651-3.831 8.651-8.63 0-4.799-3.84-8.63-8.651-8.63-4.81 0-8.65 3.831-8.65 8.63 0 4.799 3.84 8.63 8.65 8.63Z"/>
    <path fill="#DCDBDB" d="m65.351 89.227-6.184-39.141 28.065 28c5.326 5.313 5.04 14.116-.745 18.915-.113.112-.23.173-.342.285-7.675 6.231-19.247 1.656-20.794-8.059Z"/>
    <path fill="#686969" d="M87.233 78.085 59.801 50.713C66.388 59.399 77.73 74.943 77.5 78.37c-.174 2.4-2.921 11.427-5.73 20 4.295 2.4 9.851 2.4 14.207-.972.112-.056.23-.173.342-.23 5.898-4.798 6.358-13.714.914-19.084Z" opacity=".26"/>
    <path fill="#DCDBDB" d="m94.218 70.945 1.318-31.03 17.239 25.828c3.264 4.916 1.66 11.6-3.549 14.458-.112 0-.173.113-.286.173-6.873 3.602-15.064-1.716-14.722-9.43Z"/>
    <path fill="#686969" d="m112.668 65.743-16.84-25.259c3.722 7.713 10.023 21.372 9.278 24-.516 1.773-4.009 8.345-7.502 14.515 2.921 2.516 7.159 3.372 11.056 1.426.112 0 .173-.112.286-.173 5.269-2.801 6.985-9.542 3.722-14.514v.005Z" opacity=".26"/>
    <path fill="#DCDBDB" d="M120.629 59.97 125.266 33l12.143 24.515c2.293 4.687.173 10.342-4.754 12.227-.113 0-.174.056-.286.112-6.414 2.4-12.945-3.143-11.801-9.884h.061Z"/>
    <path fill="#686969" d="m137.353 57.57-11.857-24c2.349 7.143 6.301 19.828 5.382 21.998-.628 1.544-4.468 6.858-8.19 11.83 2.231 2.516 5.898 3.77 9.508 2.516.112 0 .173 0 .286-.112 4.927-1.829 7.215-7.545 4.866-12.288v.056h.005Z" opacity=".26"/>
  </g>
  <defs>
    <clipPath id="a">
      <path fill="#fff" d="M51 33h153v162H51z"/>
    </clipPath>
  </defs>
</svg>
