<svg xmlns="http://www.w3.org/2000/svg" width="250" height="414" fill="none" viewBox="0 0 250 414">
  <path fill="#3476B2" d="M49.9 151.19s10.35-29.56 18.57-40.12c5.9-7.58 45.431-58.78 45.431-58.78s-11.43-7.29-27.29-.26-30.72 30.38-30.72 30.38-22.17 32.22-5.99 68.79v-.01Z"/>
  <path fill="#3476B2" d="M197.87 170.33c-4.98 11.5-12.73 16.06-26.38 18.89 0 0 5.85-15.7-5.22-35.94-6.74-12.32-19.69-24.83-28.8-32.74a116.03 116.03 0 0 0-18.02-12.83L88 85.83l25.9-33.54s17.77-10.1 49.25 8.83c0 0 63.82 42.03 34.72 109.21Z"/>
  <path fill="#589BCE" d="M48.87 118.33C50.25 99.57 59.4 81.66 71.41 67.6c4.96-5.8 10.66-11.02 16.38-16.07-.39.16-.78.32-1.18.49C70.75 59.05 55.89 82.4 55.89 82.4s-22.12 32.14-6.04 68.66c-.11-10.91-1.77-21.81-.97-32.73h-.01Z"/>
  <path fill="#215686" d="M122.81 56.39c14.37-1.17 28.02 7.04 39.06 16.17 9.16 7.57 18.43 18.89 24.24 29.28 6.77 12.1 10.06 23.96 13.06 37.55 1.6 7.21.99 16.54 1.41 23.99 21.99-63.12-37.44-102.25-37.44-102.25-31.48-18.93-49.25-8.83-49.25-8.83l-25.9 33.54 1.02.71c1.47-1.65 3.54-4.09 4.84-5.6.5-.58 57.43 15.29 80.76 56.95-16.97-45.76-77.03-61.12-76.64-61.56 2.15-2.43 2.2-2.36 4.93-4.82.43-.39 70.2 13.79 86.11 84.71-6.83-76.85-82.77-87.68-82.4-87.98 0 0 .75-.7 2.86-2.26.62-.46 61.97 8.57 85.08 73.54-19.53-74.64-78.48-78.43-77.9-78.8 2.68-1.72 4.14-4.17 6.15-4.33l.01-.01Z"/>
  <path fill="#215686" fill-rule="evenodd" d="m87.99 85.83 34.211 23.53s-36.25-6.73-53.73 1.71l19.52-25.24Z" clip-rule="evenodd"/>
</svg>
