<svg xmlns="http://www.w3.org/2000/svg" width="250" height="414" fill="none" viewBox="0 0 250 414">
  <path fill="#DCA61A" d="M203.778 142.003c-6.167 2.056-8.179-12.238-10.694-13.947a4014.855 4014.855 0 0 1-7.565-5.141c-.654-.443-1.525-.206-1.914.524-.52.96-.388 3.657-.899 4.617-1.485 2.751-3.609 3.765-5.09 6.521-6.582 11.538 2.52 32.097-2.62 36.722C172.336 173.693 160.5 175 160.5 166c0-4.725 12.44-21.427 8.329-25.025-7.704-10.365-14.179-20.15-21.883-30.511-3.083-1.028-4.65-4.518-5.358-5.466-.473-.643-.95-.523-1.541 0-1.609 5.675-3.296.435-4.718 1.694-8.378 7.398-16.869 33.769-24.064 31.714 0 0-1.028.513-5.14-3.084-1.542-1.028-2.917-2.364-2.917-2.364-1.195-1.234-2.894-4.937-3.765-6.374-1.045-1.729-.929-1.379-1.97-3.103-.479-.789-.953-1.574-1.428-2.358-.45-.746-1.404-.883-2.03-.294-.66.614-1.621 2.571-2.281 3.186-.843.79-1.386.232-2.234 1.018l-2.072 1.933c-.67.632-1.706.417-2.104-.445-.735-1.565-1.462-3.125-2.193-4.69-2.34-4.987-3.967-5.674-6.302-10.669-.298-.122-1.028-1.025-2.4 0-2.134.871-4.268 1.743-6.402 2.618-3.75 1.527-6.617 2.761-11.243 9.207-2.056 3.979-.514 12.849-7.71 11.307-7.709-4.626.606-19.375.79-20.514.106-.659.228-1.345.37-2.067a52.09 52.09 0 0 1 .359-1.648 1.24 1.24 0 0 0 1.09.067c2.186-.896 4.38-1.791 6.566-2.678 3.264-1.335 6.519-2.666 9.778-3.993 2.134-.876 4.268-1.743 6.402-2.614.65-.268 1.38.038 1.692.708l1.681 3.59c1.775 3.8 3.549 7.605 5.328 11.396.73 1.565 1.457 3.125 2.193 4.691.397.857 1.434 1.076 2.108.445.69-.649 1.383-1.289 2.072-1.938l.805-.751c1.233-1.147 2.467-2.303 3.705-3.454.627-.588 1.581-.451 2.035.3 1.154 1.904 2.311 3.822 3.469 5.735.362.604.729 1.2 1.091 1.805.871 1.431 1.737 2.858 2.603 4.29.441.732 1.372.886 2.001.329l2.887-2.547c9.075-8.015 18.154-16.034 27.229-24.044 1.427-1.263 2.848-2.513 4.271-3.776a1.29 1.29 0 0 1 1.925.21c1.499 2.011 2.993 4.026 4.491 6.041 6.912 9.299 13.824 18.606 20.74 27.909 1.426 1.925 2.853 3.84 4.279 5.759.601.81 1.76.708 2.25-.198.899-1.668 1.788-3.327 2.681-4.99 2.032-3.782 4.065-7.564 6.097-11.341.515-.956 1.026-1.911 1.542-2.867.388-.734 1.259-.967 1.913-.523 3.217 2.186 6.438 4.369 9.651 6.555 1.821 1.236 9.363 6.941 11.18 8.176.062 1.859 0 8.104-2.57 9.646Z"/>
  <path fill="#EEC32D" d="M202.969 139.759c-6.168 2.056-8.18-12.238-10.694-13.947-2.524-1.709-5.047-3.427-7.566-5.141-.654-.443-1.525-.206-1.913.524-.521.96-.389 3.657-.9 4.617-1.485 2.751-3.609 3.765-5.09 6.521-6.582 11.538 2.52 32.096-2.619 36.722-2.66 2.394-9.291 1.841-11.822 0-5.653-4.112 1.542-17.475-1.028-31.866-4.111-10.279-10.285-18.935-17.988-29.296-3.084-1.028-1.863-4.191-2.57-5.139-.474-.643-.951-.523-1.542 0-1.609 5.675-3.295.435-4.718 1.694-8.377 7.398-16.869 33.769-24.064 31.713 0 0-1.028.514-5.14-3.083-1.542-1.028-2.917-2.364-2.917-2.364-1.194-1.234-2.894-4.938-3.764-6.374-1.045-1.729-.93-1.379-1.97-3.103-.48-.79-.954-1.574-1.429-2.358-.45-.746-1.403-.883-2.03-.295-.66.615-1.62 2.572-2.28 3.186-.844.791-1.387.233-2.235 1.019l-2.072 1.933c-.67.632-1.706.417-2.103-.445-.736-1.565-1.462-3.125-2.193-4.69-2.34-4.987-3.968-5.674-6.303-10.669-.298-.122-1.028-1.025-2.4 0-2.133.871-4.267 1.742-6.402 2.618-3.75 1.527-6.617 2.761-11.242 9.206-2.056 3.98-.514 12.85-7.71 11.308-7.71-4.626.605-19.375.79-20.514.106-.659.227-1.345.369-2.067.108-.536.227-1.086.36-1.648a1.24 1.24 0 0 0 1.09.067c2.185-.896 4.38-1.791 6.565-2.678 3.264-1.335 6.52-2.666 9.778-3.993 2.135-.876 4.268-1.743 6.402-2.614.65-.268 1.38.038 1.692.708l1.682 3.59c1.774 3.8 3.548 7.605 5.327 11.396.731 1.565 1.458 3.125 2.193 4.691.398.857 1.434 1.076 2.109.445.689-.649 1.382-1.289 2.072-1.938.265-.249.535-.498.805-.752 1.233-1.146 2.467-2.302 3.705-3.453.626-.589 1.58-.452 2.035.3 1.153 1.904 2.31 3.821 3.468 5.735.362.604.73 1.2 1.091 1.804a2455.8 2455.8 0 0 1 2.604 4.291c.441.732 1.371.886 2.001.329l2.887-2.547c9.074-8.015 18.154-16.034 27.228-24.044 1.427-1.263 2.849-2.513 4.271-3.776a1.291 1.291 0 0 1 1.926.21c1.499 2.011 2.992 4.026 4.491 6.041 6.912 9.298 13.823 18.606 20.739 27.909 1.426 1.925 2.853 3.84 4.279 5.759.601.81 1.761.708 2.251-.199.898-1.667 1.787-3.326 2.681-4.989 2.032-3.782 4.064-7.564 6.096-11.341.516-.956 1.027-1.911 1.542-2.867.389-.734 1.26-.967 1.914-.524 3.216 2.187 6.438 4.37 9.65 6.556 1.821 1.236 9.364 6.941 11.18 8.176.062 1.859 0 8.104-2.569 9.646Z"/>
  <path fill="#FFD74B" d="M110.21 130.627s-5.981 1.913-.577 4.078c3.86.721 11.879-11.012 9.65-12.626-2.391-1.731-4.054 4.219-9.073 8.548Zm-60.59-15.943c-3.644 2.039-5.604 16.204-2.048 14.064 1.77-1.476 2.042-2.06 2.37-3.346.41-1.607 1.957-11.992-.322-10.718Z"/>
  <path fill="#fff" d="M132.479 51.823c-30.751 1.944-64.357 20.012-74.821 49.502-.076.21-2.64 6.873-2.711 7.083-2.19.887-1.922.647-4.112 1.542-.383.156-2.056.514-2.056-1.542.438-1.899 2.007-7.802 2.78-9.97 10.55-29.73 45.84-47.255 76.409-47.24 1.495.169 3.002.374 4.515.625h-.004Z"/>
  <path fill="#E5E5E5" d="m199.814 122.38-.001.009c-1.816-1.235-3.633-2.471-5.455-3.706-3.212-2.187-6.433-4.369-9.65-6.556-.654-.444-1.525-.211-1.914.524-.515.955-1.026 1.911-1.541 2.866-2.032 3.777-4.065 7.559-6.097 11.341-.894 1.663-1.782 3.322-2.681 4.99-.49.906-1.649 1.008-2.25.199-1.427-1.92-2.853-3.835-4.279-5.759-6.917-9.304-13.828-18.611-20.74-27.91-1.498-2.015-2.992-4.03-4.491-6.04a1.291 1.291 0 0 0-1.926-.21c-1.422 1.263-2.844 2.512-4.271 3.775-9.074 8.011-18.153 16.029-27.228 24.044l-2.887 2.547c-.629.557-1.56.403-2.001-.329-.866-1.432-1.733-2.858-2.603-4.29-.362-.605-.73-1.2-1.091-1.805-1.158-1.913-2.316-3.831-3.47-5.735-.453-.751-1.407-.888-2.034-.299-1.238 1.15-2.472 2.306-3.705 3.453-.27.253-.54.502-.805.752-.69.648-1.383 1.288-2.072 1.937-.675.631-1.71.412-2.109-.445-.735-1.565-1.461-3.126-2.192-4.691-1.78-3.791-3.553-7.596-5.328-11.396l-1.681-3.59c-.313-.67-1.043-.976-1.692-.708-2.134.872-4.268 1.739-6.402 2.614-3.26 1.327-6.514 2.658-9.779 3.994.072-.211.148-.42.219-.626.43-1.211.9-2.402 1.41-3.576 2.787-1.144 5.57-2.28 8.358-3.41 2.134-.875 4.268-1.747 6.402-2.618.65-.268 1.38.038 1.692.713l1.681 3.59c1.775 3.795 3.549 7.6 5.328 11.391.73 1.565 1.457 3.125 2.193 4.691.397.861 1.434 1.076 2.108.445.69-.649 1.383-1.289 2.072-1.933.266-.254.535-.503.805-.757 1.233-1.146 2.467-2.302 3.705-3.453.627-.584 1.581-.447 2.035.3 1.153 1.908 2.31 3.826 3.469 5.735.362.604.729 1.205 1.091 1.804.871 1.432 1.737 2.864 2.603 4.295.441.732 1.372.882 2.001.325.961-.848 1.926-1.695 2.887-2.547 9.075-8.01 18.154-16.029 27.229-24.044 1.426-1.259 2.848-2.513 4.27-3.772a1.29 1.29 0 0 1 1.926.207c1.499 2.01 2.993 4.025 4.491 6.04 6.912 9.303 13.823 18.611 20.74 27.909 1.426 1.925 2.853 3.84 4.279 5.764.601.81 1.76.703 2.25-.204.898-1.662 1.787-3.321 2.681-4.989l6.097-11.337 1.542-2.871c.388-.73 1.259-.967 1.913-.524 3.217 2.187 6.438 4.374 9.65 6.561 1.677 1.131 3.349 2.272 5.021 3.407.115 1.339.186 2.642.227 3.908Z"/>
  <path fill="#DDD" d="M199.815 127.679c-2.515-1.704-5.025-3.413-7.54-5.121-2.524-1.71-5.047-3.428-7.566-5.141-.654-.444-1.525-.207-1.913.524-.52.959-1.031 1.91-1.542 2.87-1.485 2.751-2.967 5.512-4.447 8.267-1.441 2.69-2.885 5.37-4.331 8.06-.489.906-1.649 1.013-2.25.203-1.426-1.924-2.857-3.839-4.284-5.764-7.703-10.365-15.406-20.74-23.109-31.1-.707-.953-1.41-1.896-2.117-2.845-.473-.642-1.335-.733-1.926-.21-1.422 1.258-2.848 2.513-4.27 3.771-8.378 7.398-16.761 14.805-25.144 22.203l-4.972 4.393c-.634.556-1.56.403-2.006-.33-.861-1.431-1.728-2.858-2.598-4.294-1.045-1.729-2.095-3.459-3.136-5.183l-1.428-2.357c-.45-.747-1.404-.884-2.03-.295-.66.614-1.325 1.228-1.986 1.842-.843.791-1.682 1.577-2.53 2.363-.688.644-1.382 1.288-2.071 1.933-.67.631-1.707.417-2.104-.445-.736-1.566-1.462-3.126-2.193-4.691-2.34-4.986-4.674-9.986-7.01-14.981a1.373 1.373 0 0 0-.738-.713 1.24 1.24 0 0 0-.953 0c-2.134.871-4.268 1.743-6.402 2.619-3.75 1.526-7.5 3.057-11.25 4.593a912.024 912.024 0 0 0-5.098 2.078c-.986.399-2-.508-1.816-1.646a51.854 51.854 0 0 1 .729-3.716c.318.178.703.223 1.09.068 2.186-.896 4.38-1.791 6.565-2.678 3.264-1.336 6.52-2.667 9.779-3.993 2.134-.876 4.268-1.743 6.402-2.615.649-.268 1.38.039 1.692.709l1.681 3.59c1.774 3.799 3.548 7.604 5.328 11.396.73 1.565 1.457 3.125 2.192 4.69.398.857 1.434 1.077 2.109.445.69-.649 1.383-1.288 2.072-1.937.265-.25.535-.499.805-.752 1.233-1.147 2.467-2.302 3.705-3.453.627-.589 1.58-.452 2.035.299 1.153 1.904 2.31 3.822 3.469 5.735.362.605.729 1.2 1.09 1.805.871 1.432 1.738 2.859 2.604 4.29.441.732 1.372.886 2.001.329l2.887-2.547c9.075-8.014 18.154-16.033 27.228-24.043L137.5 90.5l.5-1c.595-.522 2.247-1.44 2.717-.801 1.498 2.01 4.285 7.286 5.783 9.301 6.912 9.298 12.529 18.984 19.446 28.287 1.426 1.924 2.852 3.839 4.279 5.759.601.81 1.76.708 2.25-.199.898-1.667 1.787-3.326 2.681-4.99 2.032-3.782 4.064-7.563 6.097-11.341.515-.955 1.026-1.911 1.541-2.866.389-.735 1.26-.967 1.914-.524 3.217 2.187 6.438 4.369 9.65 6.556 1.822 1.235 3.639 2.471 5.455 3.706.062 1.859.056 3.628.002 5.29Z"/>
  <path fill="#F4F4F5" d="M199.588 118.472c-1.672-1.136-3.344-2.276-5.021-3.408-3.212-2.186-6.434-4.373-9.65-6.56-.654-.443-1.525-.206-1.914.524l-1.542 2.871-6.096 11.336c-.894 1.668-1.783 3.327-2.681 4.99-.49.907-1.65 1.013-2.251.203-1.426-1.924-2.852-3.839-4.279-5.763-6.916-9.299-13.827-18.606-20.739-27.91-1.498-2.014-2.992-4.03-4.491-6.04a1.29 1.29 0 0 0-1.926-.206 133351.92 133351.92 0 0 1-31.499 27.815c-.961.852-1.926 1.7-2.887 2.547-.629.557-1.56.408-2.002-.324-.866-1.432-1.732-2.863-2.603-4.295-.362-.6-.729-1.2-1.09-1.805-1.159-1.909-2.316-3.826-3.47-5.735-.454-.747-1.408-.883-2.034-.299-1.238 1.151-2.472 2.306-3.705 3.453-.27.253-.54.502-.805.756-.69.645-1.383 1.284-2.072 1.933-.675.632-1.711.417-2.109-.445-.735-1.565-1.462-3.125-2.192-4.691-1.78-3.791-3.554-7.596-5.328-11.391l-1.682-3.59c-.312-.674-1.042-.98-1.691-.713a3813.98 3813.98 0 0 0-6.403 2.62 2157.68 2157.68 0 0 0-8.358 3.408c11.81-27.374 43.924-44.064 73.411-45.93 25.424 4.17 52.841 19.755 63.155 48.25 2.133 5.882 3.268 11.611 3.811 16.84.056.523.104 1.046.143 1.559Z"/>
  <path fill="#fff" d="M130.059 63.54c.346 2.788-6.777 5.734-9.898 7.032-6.503 2.695-17.282 5.14-19.046 1.878-1.434-2.659 3.192-8.954 8.872-11.701 8.438-4.08 19.653-.553 20.067 2.795l.005-.004Z"/>
  <path fill="#DDD" d="M208.898 131.251c-.078 1.122-1.227 1.763-2.105 1.17-.719-.488-13.293-7.921-22.293-19.421 2 .86-4.271 2.09-12 22.5-11.5-12.5-30.862-46.226-32-47 3 0 14.5 1 15.5-7.5 3-9.5-14-23.703-39-29 1-.5 11.552-.8 11.844-.796 28.321.328 63.937 15.992 76.02 49.4 4.246 11.731 4.562 22.821 4.034 30.647Z"/>
  <path fill="#FFD74B" d="M167.783 169.596c-1.421-.135-3.371-.914-4.466-1.97-2.025-1.951-2.515-5.645-1.307-5.989 3.14-1.02.748 4.48 6.731 4.44 4.143-.028 4.021-5.511 5.549-4.148 2.526 2.255-1.447 8.147-6.507 7.667Z"/>
</svg>
