<svg xmlns="http://www.w3.org/2000/svg" width="250" height="414" fill="none" viewBox="0 0 250 414">
  <path fill="#69A3D9" d="M179.15 127.75c.66-4.16-4.75-16.04-11.24-24.32-3.21-4.09-7.32-7.36-12-9.64-37.53-18.26-72.65-11.53-82.93-6.2-11.63 6.04-21.31 42.37-21.31 42.37l-1.71-2.07c-3.21-4.16-1.29-43.88 22.42-54.97.45-.21.9-.41 1.37-.61 3.81-1.65 8.21-3.02 13.02-4.11 25.73-5.82 63.04-3.5 82.63 8.16 23.71 14.09 27.55 48.54 27.55 48.54s-10.91 2.2-17.8 2.85Z"/>
  <path fill="#1F79CC" d="M51.67 129.95s9.67-36.33 21.31-42.36c10.28-5.33 45.4-12.06 82.93 6.2 4.68 2.27 8.79 5.55 12 9.64 6.49 8.27 11.9 20.16 11.24 24.32l6.47-.84s-.68-19.98-17.74-33.71-42.84-18.57-58.26-18.52c-14.16.04-30.17-.05-42.33 9.36-10.02 7.75-17.99 38.76-15.61 45.91h-.01Z"/>
  <path fill="#1F79CC" d="M184.81 120.51a7.834 7.834 0 0 0-2.71 2.89c-.71 1.29-1.09 2.71-1.31 4.17 6.85-.8 16.16-2.67 16.16-2.67s-3.84-34.45-27.55-48.55c-6.07-3.61-13.84-6.32-22.43-8.17-.26 1.59-1.66 3.11-3.71 2.72-2.29-.44-4.55-.91-6.83-1.2.01.1.03.2.03.31 0 1.5-1.39 3.17-3 3-.96-.1-1.85-.3-2.71-.59 1.22 1.6 2.47 3.2 4.07 4.57 4.72 4.04 14.02 1.88 17.92-2.3.76-.81 2.18-1.12 3.23-.68 2.55.47 5.15.79 7.58 1.73 2.45.95 4.62 2.47 6.62 4.15.29.24.57.5.86.76 6.49 4.65 11.98 11.32 15.19 18.53 3.34 5.84 5.11 12.22 5.95 18.9.07.55-.46 1.11-.95 1.25-3.12.88-4.74 2.8-5.9 5.75-.6 1.53-3.1.86-2.49-.69.53-1.35 1.13-2.7 1.98-3.88ZM79.12 73.42c.76.55 1.48 1.27 2.34 1.67.67.31 1.43.31 2.15.28 3.04-.1 5.92-1.12 8.75-2.18l-5.58-5c-4.33.98-8.31 2.2-11.84 3.64 1.5.2 2.97.7 4.19 1.58l-.01.01Z"/>
  <path fill="#90D6DD" d="M55.33 176.26s-8.95-13.14-2.99-48.69c-1.21-4.8-14.75-2.54-12.69 11.18-7.52 2.58-7.81 14.05-1.37 17.5-3.09 6.35-4.46 16.29 7.03 17.84 1.03 4.97 6.8 5.03 10.02 2.18v-.01Z"/>
  <path fill="#69A3D9" d="M129.11 74.16s-7.99-20.08 12.43-28.96c2.44 0 2.88 4.66 2.88 4.66s12.86-23.8 39.28-11.43c24.63 11.54 23.08 50.93 4.44 46.27-9.32-2.66-16.09-15.12-16.09-18.38-13.52-2.19-21.52 2.69-26.3 9.06-3.99 5.33-16.64-1.22-16.64-1.22Z"/>
  <path fill="#1F79CC" d="M169.74 60.21c-.31.08-.67.04-1.03-.2-.38-.25-.75-.52-1.12-.79-.11-.03-.22-.06-.33-.08-3.14-.67-6.5.04-9.37 1.35-3.51 1.6-10.76 4.48-12.97 7.69-2.1 3.06-9.06 3.18-8.78 6.51.06.75 4.5 2.41 3.82 2.77 2.35.12 4.51-.36 5.79-2.07 4.77-6.36 12.77-11.24 26.27-9.06-.07-1.52-.28-3.07-.94-4.43-.34-.71-.8-1.26-1.35-1.68l.01-.01Z"/>
  <path fill="#1F79CC" d="M157.51 52.01c-2.8.86-5.38 2.68-7.19 5.02-.19.25-.37.53-.55.81 1.1-.97 2.32-1.8 3.7-2.39 4.26-1.85 8.35 1.75 12.64 2.48 1.27-.21 4.8 4.68 6.07 4.93.19.04.19-1.47-.04-3.22-.42-3.14-2.49-5.94-5.25-7.07s-6.4-1.47-9.37-.56h-.01Z"/>
  <path fill="#69A3D9" d="M99.37 72.72s8.21-16.64-8.21-25.96c-4.82-2.56-7.92 2.25-7.92 4.47-2.22-9.32-14.35-15.52-27.11-14.34-17.61 1.62-28.62 33.87-20.01 41.61 8.61 7.74 17 6.59 23.3-10.21 6.21-3.15 21.97 2 23.75 7.1 10.43-.44 16.2-2.66 16.2-2.66v-.01Z"/>
  <path fill="#FF94A2" d="M136.14 74.68s3.04 1.33 5.26.91c1.94-2.9 9.27-17.15 28.08-14.66.95.44 1.74 1.29 2.28 2.01.19.25.58.07.51-.24-.68-2.94-2.92-9.5-9.56-9.93-8.58-.55-12.73 4.98-14.66 5.81-1.93.83-11.2 3.16-11.9 16.1h-.01Z"/>
  <path fill="#0E4B83" d="M55.91 111.62c.24-3.97.72-8 1.57-11.93-4.67 11.69-7.31 25.74-5.8 30.26 0 0 1.5-5.62 4.02-12.79.04-1.85.1-3.69.22-5.54h-.01Zm129.71 15.29s-.29-8.29-5.05-17.85c.37 1.3.61 2.67.71 4.1.21 3-.28 6.15-2.87 8.02-.14.1-.29.18-.44.27.94 2.67 1.4 4.91 1.18 6.29l6.47-.84v.01Z"/>
  <path fill="#1F79CC" d="M86.22 63.6c-1.98-2.08-4.16-4.07-6.75-5.36-3.07-1.53-6.55-1.57-9.9-1.36-2.99.18-6.4.82-8.09 3.57a.98.98 0 0 1-1 .48c-.88 2.11-1.24 4.41-1.33 6.7 3.07-3.92 9.08-5.14 14.16-4.06 2.97.63 5.85 1.98 8.37 3.65 2.3 1.52 4.82 3.64 5.44 6.46.05-.01.09-.02.14-.04 1.45-.49 2.89-1.62 2.91-3.26.03-2.57-2.31-5.06-3.96-6.78h.01Z"/>
  <path fill="#69A3D9" d="M194.19 123.52s-6.69-8-16.5 0c-13.68-1.78-15.74 18.33-12.13 21.55-10.32 4.26-6.19 25.68 3.36 27.49-.77 4.45 5.16 11.87 13.42 9.03 8.26 6.19 22-2.06 21.19-10.07 6.68 0 11.07-14.04 5.91-19.66 3.87-5.37 3-16.78-4.17-20.03.27-3.65-2.67-11.08-11.08-8.31Z"/>
  <path fill="#FF94A2" d="M90.45 69.84c-.5-1.6-1.16-3.13-1.97-4.6-1.66-3-3.95-5.67-6.93-7.41a1.16 1.16 0 0 1-.29-.24c-7.56-3.37-14.17-4.58-17.64-1.9-2.38 1.83-3.07 4.73-3.27 6.52a.817.817 0 0 0 1.21.8c3.64-1.95 18.21-3.9 26.1 10.37 0 0 2.07-.28 3.31-.67-.1-.96-.23-1.93-.52-2.88v.01Z"/>
  <path fill="#90D6DD" d="M37.36 60.48c.12-.4.25-.81.39-1.23 1.09-4.19 2.97-8.15 5.86-11.57 4.44-5.27 10.41-9.17 17.02-10.91-1.48-.06-2.98-.03-4.49.1-17.61 1.62-28.62 33.87-20.01 41.61.35.32.7.61 1.06.9-2.52-5.84-1.63-12.97.18-18.9h-.01Z"/>
  <path fill="#1F79CC" d="M98.41 63.87c-.04 2.98-.91 5.78-3.24 7.76-1.19 1.01-2.54 1.77-3.93 2.47.52-.05 1.04-.14 1.54-.21 1.06-.15 2.11-.25 3.16-.47 1.04-.22 2.04-.53 3.06-.81.15-.04.32-.08.48-.12.89-1.98 7-17.05-8.31-25.74-4.82-2.56-7.92 2.25-7.92 4.47-.72-3.03-2.5-5.73-5-7.95 1.04 1.23 1.99 2.54 2.68 3.97 1.02 2.1 1.65 4.37 2.72 6.43 1.18-2.01 2.55-3.61 5.35-3.23 6.33.88 9.47 7.64 9.4 13.42l.01.01Zm-29.22-9.65s-15.82-.65-17.59 10.91c-.59 3.41 1.67 5.18 1.67 5.18s-1.45-13.08 15.92-16.09Zm92.94-2.57s12.56-.3 13.81 8.89c.42 2.71-1.39 4.09-1.39 4.09s1.32-10.36-12.41-12.97l-.01-.01Z"/>
  <path fill="#DA4F6A" d="M70.43 60.63c.26-2.05 1.7-3.8 3.56-4.68.5-.24 1.01-.41 1.52-.54-5.08-1.55-9.34-1.69-11.89.28-2.38 1.83-3.07 4.73-3.27 6.52a.817.817 0 0 0 1.21.8c1.5-.81 4.86-1.61 8.85-1.27-.02-.37-.02-.74.02-1.11Zm92.27-7.87c-5.7-.37-9.43 1.95-11.87 3.79 1.61-.04 3.26.17 4.56 1.12 1.4 1.02 2 2.55 1.89 4.13 3.4-1.07 7.43-1.52 12.2-.88.95.44 1.74 1.29 2.28 2.01.19.25.57.07.51-.24-.68-2.94-2.92-9.5-9.56-9.93h-.01Z"/>
  <path fill="#90D6DD" d="M129.83 63.13c.83-7.33 5.29-13.47 11.19-17.69a.3.3 0 0 1 .08-.04c-18.47 8.35-12.96 26.04-12.1 28.47.3.2.61.38.91.52 0-1.42.03-2.84.11-4.26-.37-2.29-.47-4.62-.2-7h.01Zm29.23-23.94c4.08-1.24 8.55-1.45 12.67-.27 3.78 1.08 7.15 3.17 10.41 5.31 2.85 1.87 5.68 3.72 8.79 5.12 1.08.48 2.32.98 3.66 1.4.35.11.7.21 1.05.29.11.03.45.09.59.12h.33c.23-.12.47-.19.71-.23-3.03-5.14-7.49-9.67-13.56-12.51-17.71-8.3-29.31-.34-35.05 5.81 3.3-2.02 6.69-3.92 10.4-5.05v.01Z"/>
  <path fill="#1F79CC" d="M200.35 57.79c.08 1.1.12 2.2.11 3.31-.03 4.21-.57 8.54-2.18 12.46-1.51 3.67-4.17 7.68-7.98 9.24-1.73.71-3.53.75-5.33.59 1.02.55 2.07 1.01 3.16 1.32 12.09 3.02 16.99-12.49 12.22-26.91v-.01Z"/>
  <path fill="#90D6DD" d="M187.65 182.57c-1.74-1.08-2.7-2.67-3.21-4.5-1.66.52-3.34 1.11-5.09.96-1.93-.17-3.72-1.25-4.58-3.01-.84-1.72-.75-3.71-.04-5.45-1.57.16-3.14.03-4.59-.65-4.95-2.33-5.43-9.53-4.52-14.2.77-3.95 2.82-7.74 6.11-9.82-1.1-.6-2.07-1.42-2.78-2.57-2.37-3.83-.55-8.83 2.23-11.91 2.5-2.76 5.89-4.08 9.35-3.86-.14-.27-.27-.54-.36-.82-.56-1.65-.02-3.27 1.03-4.6.51-.64 1.08-1.16 1.69-1.6-1.61.53-3.35 1.47-5.2 2.98-13.68-1.78-15.74 18.33-12.13 21.55-10.32 4.26-6.19 25.68 3.36 27.49-.77 4.45 5.16 11.87 13.42 9.03 2.37 1.78 5.19 2.36 7.98 2.11-.94-.27-1.84-.62-2.67-1.13Z"/>
  <path fill="#1F79CC" d="M196.75 128.13c2.8 1 5.17 3.03 6.73 5.63.46.77.83 1.58 1.11 2.42 2.39.28 4.51 1.19 6.34 2.52-.96-2.98-2.8-5.57-5.65-6.86.25-3.34-2.19-9.84-9.05-8.8.52 1.55.63 3.35.53 5.09h-.01Zm14.86 29.14a5.47 5.47 0 0 1-1.72 1.8c-1.11.71-2.33.81-3.56.76 0 .03.01.06.02.08.44 2.77-3.66 2.4-6.13 3.92-1.44.88-.08 4.48-1.66 3.97-.36-.12-.72-.26-1.07-.4.09.32.15.66.22.99.33 1.36.71 2.71.93 4.09.33 2.09.24 4.15-.37 6.19-.27.91-.64 1.83-1.08 2.72 3.92-2.35 6.72-6.13 6.35-9.87 5.02 0 8.74-7.93 8.08-14.26l-.01.01Zm-31.77-1.56s-3.54-11.4 6.86-9.01c-1.08-4.2 2.03-8.43 6.28-8 4.25.43 5.15 6.37 5.15 6.37s2.2-9.67-6.72-9.67c-8.22 0-7.26 8.6-7.26 8.6s-12.88.9-4.3 11.7l-.01.01Z"/>
  <path fill="#1F79CC" d="M209.44 151.86s-2.52 15.89-14.15 7.93c.89 1.66 4.27 3.33.62 5.92-1.67 1.19-7.74-1.24-7.79-1.9 0 0 6.31 7.15-4.02 5.87 2.05 5.08 8.41 3.46 8.58-.53 2.46 4.28 8.85-.35 8.25-4.56 12.04 3.58 12.67-8.36 8.51-12.73Z"/>
  <path fill="#69A3D9" d="M50.58 125.66c-2.28 4.02-1.93 9.13-2.05 13.62-.01.57-.38 1.03-.91 1.2-2.25.72-3.7-.45-4.45-2.15-.31 1.29-.25 2.69.33 3.71.6 1.05 1.49 1.89 2.06 2.95.64 1.19.77 2.47.84 3.8.2 3.39-.27 6.78-.09 10.16.18 3.39 1.22 6.75 2.33 9.94.22.64-.25 1.37-.87 1.53-1.8.49-2.69-.94-3.95-3.24-.05 1.76.75 3.34 1.39 3.85 1.43 1.13 1.92 1.25 3.64 1.47 1.43.19 2.16 1.05 2.96 2.18.62.87 1.23 1.79 1.92 2.64.57-.29 1.12-.65 1.6-1.07 0 0-8.94-13.14-2.99-48.69-.22-.89-.87-1.54-1.77-1.91l.01.01Z"/>
  <path fill="#90D6DD" d="M52.36 108.43c3.41-10.89 7.48-22.48 15.14-31.16 1.24-1.4 2.58-2.7 4-3.89-19.38 9.88-23.66 39.2-22.59 50.42.58-5.22 1.88-10.38 3.45-15.36v-.01ZM38.3 72s1.72 3.94 4.08 1.24c1.37 2.02 4.47 1.61 4.96-1.62-.05 4.88-3.25 5.38-4.98 2.88-2.18 1.82-4.9-.56-4.06-2.49V72Z"/>
  <path fill="#1F79CC" d="M189.13 70.73s2.05 3.78 4.17.88c1.54 1.89 4.59 1.22 4.8-2.04.37 4.86-2.78 5.64-4.72 3.29-2.02 2-4.93-.14-4.25-2.14v.01Z"/>
  <path fill="#90D6DD" d="M184.68 44.88s6.03 10.11-2.08 7.6c7.89 3.64 8.18-3.79 2.08-7.6Z"/>
</svg>
