<svg xmlns="http://www.w3.org/2000/svg" width="250" height="414" fill="none" viewBox="0 0 250 414">
  <path fill="#F9B024" d="m170.451 205.235.032 13.499a6.13 6.13 0 0 0-2.234-.399c-.876 0-1.743.182-2.545.534-.008-.024-.008-.048-.008-.072l-.04-14.416c1.58.75 3.271.933 4.787.854h.008Zm.718-52.09c-3.399 2.529-7.524 4.324-12.51 5.122l-2.393-2.394c-14.457-14.017-39.125-30.245-81.809-35.223l3.822-11.521 2.266.239 1.396.16 4.26.574 1.899.296 2.17.359 2.154.391c.718.127 1.428.271 2.138.414l2.114.447c1.404.3 2.803.622 4.197.966l2.074.518 2.051.543 2.034.566 4.013 1.205 1.979.63 1.954.654 3.599 1.277 2.154.806c1.247.476 2.486.971 3.718 1.484l1.93.813 3.192 1.404 2.114.982 1.667.798 1.7.845 1.683.862a138.21 138.21 0 0 1 8.002 4.476l1.516.933c1.613.995 3.201 2.03 4.763 3.104l1.005.694 1.484 1.053 2.186 1.612.543.414 1.061.83c.502.391.989.79 1.476 1.189l.965.798c.781.65 1.55 1.315 2.306 1.994l1.101 1.006a75.049 75.049 0 0 1 3.215 3.143c.286.287.565.579.838.878a65.229 65.229 0 0 1 3.287 3.781l.574.734c.04.048.072.096.112.144Zm14.999-39.716c-.215 8.058-1.285 16.531-3.989 23.935l-1.117-.934-1.133-.941a217.43 217.43 0 0 0-18.533-13.675l-3.032-1.962-3.12-1.947c-.023-.016-.039-.024-.055-.04l-2.617-1.572-4.037-2.321-3.215-1.763-3.806-1.995-2.92-1.46-5.018-2.37-.982-.438-.686-.303c-.359-.168-.718-.32-1.085-.479l-1.907-.822-1.938-.806a180.555 180.555 0 0 0-6.064-2.361 70.064 70.064 0 0 0-1.875-.686l-1.747-.615-4.46-1.484-2.066-.646-2.13-.63-1.995-.574-3.901-1.037-1.412-.351-1.532-.367-1.891-.439c-2.11-.477-4.23-.91-6.359-1.3l-1.5-.271a140.366 140.366 0 0 0-5.29-.846c2.401-5.888 5.082-11.912 7.97-17.544C110.999 77 123.49 80.38 138.313 85.891l.877.327.87.327 1.62.638 1.475.59c.244.093.486.192.726.295l1.5.622 1.676.718 1.46.638a170.259 170.259 0 0 1 12.414 6.095l1.404.766 2.745 1.572 2.202 1.308 2.959 1.843 1.229.79 2.386 1.588 1.093.75c1.188.822 2.345 1.651 3.454 2.473l1.899 1.428a139.808 139.808 0 0 1 4.412 3.535l1.452 1.236.002-.001Z"/>
  <path fill="#F9B024" d="m139.193 86.216-.877-.327a200.834 200.834 0 0 0-10.619-3.614l-1.405-.423-1.811-.543-1.843-.527a194.946 194.946 0 0 0-6.717-1.787l-1.492-.375-2.09-.495-1.317-.295-1.97-.447-2.051-.431-2.066-.431-4.5-.854-5.641-.965-2.066-.319-.75-.112-2.258-.327-3.798-.503-2.194-.271-8.058-.838c.032-.048.072-.088.104-.128l8.114.87 2.194.271 3.79.519 2.258.327.646.096 2.17.343 5.641.981 4.499.87 2.067.431 2.042.439 1.971.447 1.316.303 2.09.503 1.492.375 6.71 1.803 1.843.534 1.811.543 1.404.431a202.807 202.807 0 0 1 10.611 3.638l.75.287v.001Zm-38.407-25.467-.718 1.316-.168-.024.886-1.292Z"/>
  <path fill="#0078B8" d="m186.113 113.27-1.452-1.237-4.42-3.526-1.907-1.42-3.462-2.466-1.093-.75-2.386-1.579-1.236-.782-2.96-1.835-2.21-1.308-2.745-1.564-1.404-.758a168.89 168.89 0 0 0-12.43-6.063l-1.468-.638-1.556-.654c-.04-.024-.08-.04-.119-.056l-1.5-.622-.726-.295-1.357-.535-1.619-.638-.87-.327a27.123 27.123 0 0 1-.877-.327 200.834 200.834 0 0 0-10.619-3.614l-1.405-.423-1.811-.543-1.843-.526a194.718 194.718 0 0 0-6.717-1.787l-1.492-.375-2.09-.495-1.317-.295-1.97-.447a73.196 73.196 0 0 0-2.051-.431l-2.066-.431-4.5-.854-5.641-.965-2.066-.32-.75-.111-2.258-.327-3.798-.503-2.194-.271-8.058-.838c.032-.048.072-.088.104-.128l8.114.87 2.194.27 3.79.52 2.258.327.646.096c2.258-4.404 4.643-8.576 7.117-12.24l.175.025.359.048.359.048.75.104 1.556.239 3.422.534h.008l1.835.303 5.051.886 1.555.287 1.532.295c.016 0 .04 0 .056.008l2.154.423 2.816.575 2.593.55 2.745.614 3.494.814 2.793.678 1.875.479.47.12 2.641.694 2.832.782 2.362.67 3.199.949 2.059.638 4.922 1.604.838.287 4.827 1.723 2.64.997 2.625 1.037 2.601 1.077 2.585 1.117 2.561 1.157 2.234 1.053c.175.088.351.168.527.263l2.257 1.125c.83.415 1.644.846 2.458 1.285l2.409 1.324 2.37 1.372c.893 5.944 1.922 15.176 1.675 25.037ZM91.452 61.013a30.567 30.567 0 0 1-2.968 2.122l2.968-2.122Zm90.728 76.351c-2.306 6.351-5.816 11.919-11.01 15.781-.04-.048-.072-.096-.112-.144l-.574-.734a65.634 65.634 0 0 0-3.287-3.782l-.838-.877a75.072 75.072 0 0 0-3.215-3.144l-1.101-1.005a80.917 80.917 0 0 0-2.306-1.994 42.96 42.96 0 0 0-.965-.798l-1.476-1.189-1.061-.83-.543-.415-2.186-1.611-1.484-1.053-1.005-.694a114.593 114.593 0 0 0-4.763-3.104l-1.516-.933a138.21 138.21 0 0 0-8.002-4.476l-1.683-.862-1.7-.845-1.667-.798-2.114-.982-3.192-1.404-1.93-.814-3.718-1.483c-.71-.28-1.428-.543-2.154-.806l-3.599-1.277-1.954-.654-1.979-.63a130.28 130.28 0 0 0-4.013-1.205l-2.034-.566c-.678-.192-1.365-.367-2.051-.543a92.386 92.386 0 0 0-2.074-.519 140.117 140.117 0 0 0-4.197-.965l-2.114-.447-2.138-.415-2.154-.39-2.17-.359-1.9-.296-4.26-.574-1.395-.16-2.266-.239c1.819-5.21 4.005-11.138 6.478-17.201 1.769.248 3.532.53 5.29.846l1.5.27c2.128.39 4.248.824 6.359 1.3l1.89.44 1.533.367 1.412.35 3.901 1.038 1.995.574 2.13.63 2.066.646 4.46 1.484 1.747.615 1.875.686c2.059.758 4.077 1.547 6.064 2.361l1.938.806 1.907.822 1.085.479c.232.095.455.199.686.303l.982.438 5.018 2.37 2.92 1.46 3.806 1.995 3.215 1.763 4.037 2.321 2.617 1.572c.016.016.031.024.055.04l3.12 1.947 3.032 1.962a217.43 217.43 0 0 1 18.533 13.675l1.133.941 1.117.934-.001.001Zm-18.85 92.643a6.873 6.873 0 0 1-2.33-5.194c0-2.832 1.659-5.257 4.037-6.286a6.314 6.314 0 0 1 2.545-.527c.782 0 1.532.144 2.234.407a5.89 5.89 0 0 1 1.125.55s3.095 8.242-7.611 11.05Z"/>
  <path fill="#E28D1A" d="M200.058 99.827c-4.54-4.308-9.853-8.162-15.621-11.592l-.663-4.053c-.239-1.332.615-2.633 1.939-2.888 8.952-1.723 10.276-12.566 10.276-12.566 3.59 2.808 4.093 7.579 4.827 14.345a55.803 55.803 0 0 1-.758 16.754Z"/>
  <path fill="#00578A" d="M206.984 137.851s-1.133-2.314-3.822-6.088l-1.475-2.01-.687-.894-3.031-3.702-.511-.582-.59-.662-1.022-1.133-.917-.99-.239-.247-.91-.941-1.125-1.149-3.726-3.566-1.348-1.221-1.412-1.237c.271-9.853-.734-19.092-1.612-25.035 5.761 3.447 11.058 7.316 15.59 11.632a119.298 119.298 0 0 1 4.292 15.158 118.316 118.316 0 0 1 2.545 22.667Z"/>
  <path fill="#E28D1A" d="M206.074 154.908a22.779 22.779 0 0 1-1.18 4.978l-.367-.454-.399-.479c-1.604-1.915-5.729-6.654-12.167-12.805l-2.034-1.915-2.362-2.162-.798-.718-2.489-2.194-1.747-1.5-.351-.295c2.704-7.404 3.773-15.877 3.989-23.935l1.412 1.237 1.348 1.22a117.19 117.19 0 0 1 3.726 3.567l1.125 1.149.91.941.239.247.917.99 1.022 1.133.59.662.511.582a91.845 91.845 0 0 1 3.031 3.702c.235.293.464.591.686.894.543.71 1.038 1.38 1.476 2.01 2.689 3.774 3.822 6.087 3.822 6.087.09 5.7-.214 11.4-.91 17.058Z"/>
  <path fill="#00578A" d="M204.894 159.886c-2.928 8.138-5.992 13.938-9.135 18.725l-6.431 9.654c-1.053-3.311-2.92-8.353-5.138-13.244 0 0-5.257-11.6-12.765-21.541-.088-.112-.167-.223-.255-.335 5.194-3.862 8.704-9.43 11.01-15.781.12.104.239.199.351.295l1.747 1.5 2.489 2.194.798.718 2.362 2.162 2.034 1.915c6.439 6.151 10.563 10.89 12.167 12.805l.399.479c.247.295.367.454.367.454Z"/>
  <path fill="#E28D1A" d="m189.465 188.097-.902 1.349-.016.016c-4.236 6.238-6.869 9.749-8.855 11.815v-.016l-20.081-23.575-.894-19.515c4.986-.814 9.103-2.617 12.494-5.154.088.112.167.223.255.335 7.532 9.925 12.821 21.509 12.821 21.509 2.234 4.883 4.109 9.925 5.17 13.228l.008.008Z"/>
  <path fill="#00578A" d="M179.698 201.261v.016c-1.938 2.019-3.279 2.657-4.89 3.136-.862.255-2.481.734-4.348.822-1.516.071-3.208-.104-4.787-.854a8.025 8.025 0 0 1-1.237-.742c-3.758-2.713-3.981-7.787-4.013-8.768l-.79-17.185 20.081 23.575h-.016Zm-5.534 23.552c0 3.758-2.944 6.806-6.582 6.806a6.435 6.435 0 0 1-4.252-1.612c10.706-2.808 7.611-11.05 7.611-11.05 1.931 1.181 3.223 3.367 3.223 5.856Z"/>
  <path fill="#E28D1A" d="M131.71 57.382s-12.055.255-25.187 5.665h-.008l-3.423-.535-1.556-.239-.75-.104-.359-.048-.359-.056.718-1.316c2.314-4.069 6.183-9.015 12.175-11.768.335-.16.67-.311 1.005-.439 6.271 1.548 8.736 6.247 15.773 8.385.702.207 1.348.351 1.963.447h.008v.008Z"/>
  <path fill="#00578A" d="m100.068 62.066.718.104-.718-.096v-.008Z"/>
  <path fill="#F9B024" d="M195.989 68.72s-1.34 10.897-10.332 12.581c-1.3.24-2.13 1.524-1.891 2.816l.671 4.117-2.37-1.372-2.409-1.324-2.458-1.285-2.257-1.125-.527-.263-2.234-1.053-2.561-1.157-2.585-1.117-2.601-1.077-2.625-1.037-2.64-.997-4.827-1.723-.838-.287-4.922-1.604-2.059-.638-3.199-.949-2.362-.67-2.832-.782-2.641-.694-.47-.12-1.875-.479-2.793-.678-3.494-.814-2.745-.614-2.593-.55-2.816-.575-2.154-.423c-.016-.008-.04-.008-.056-.008l-1.532-.295-1.555-.287-5.051-.886-1.835-.303c13.133-5.409 25.188-5.665 25.188-5.665 2.194.351 3.925.128 6.079.447 5.042.766 12.255 2.53 21.493 7.085a104.535 104.535 0 0 1 7.189 3.885c4.748-.827 9.54-1.373 14.352-1.635 8.21-.447 12.367-.63 15.167 1.555Z"/>
  <path fill="#FFD37E" d="m113.965 48.543-1.005.439c-5.992 2.753-9.861 7.699-12.175 11.768l-.885 1.292-.822-.112-.359-.048-.718-.096-1.556-.207-.407-.048-.39-.048-1.078-.128c-.112-.016-.223-.024-.327-.04l-.51-.064c-.185-.024-.36-.04-.52-.056-.12-.016-.239-.032-.343-.04-.056 0-.112-.008-.168-.016-.056-.008-.104-.016-.15-.016-.105-.008-.208-.024-.296-.032-.024 0-.048-.008-.064-.008-.056-.008-.104-.008-.152-.016-.15-.016-.27-.024-.359-.032-.04-.008-.08-.008-.112-.016-.08-.008-.12-.008-.12-.008 7.563-6.07 9.207-11.608 15.924-12.805 2.043-.367 3.638-.167 4.787-.016.608.08 1.21.197 1.803.351l.002.002Z"/>
  <path fill="#F9B024" d="M112.96 48.981c-4.181 1.987-8.281 6.231-12.175 11.768 2.314-4.069 6.183-9.015 12.175-11.768Z"/>
  <path fill="#3C9FD4" d="M99.892 62.05c-2.473 3.662-4.859 7.835-7.117 12.239l-.646-.096-2.258-.327-3.79-.52-2.194-.27-8.114-.87c-.032.04-.072.08-.104.128-.016-.008-.04-.008-.056-.008 1.34-1.628 2.73-3 4.085-4.165 3.957-3.407 5.385-2.944 8.784-5.026a30.778 30.778 0 0 0 2.968-2.122c.04.004.08.007.12.008.032.008.072.008.112.016l.36.032c.047.008.095.008.151.016.016 0 .04.008.064.008.088 0 .192.024.295.032.048 0 .096.008.152.016.056 0 .112.016.167.016.104.016.223.032.343.04.16.024.335.04.52.056.16.024.334.04.51.064.104.016.215.024.327.04l1.077.128.391.048.407.048 1.556.207.718.096.36.048.813.12v-.002Z"/>
  <path fill="#F9B024" d="m99.078 61.93.822.112-.814-.12-.008.008Z"/>
  <path fill="#FFD37E" d="M92.727 74.384c-2.888 5.633-5.569 11.656-7.97 17.544l-1.18-.168-1.98-.263-2.68-.319-1.42-.144a30.399 30.399 0 0 0-1.198-.12l-4.34-.35-2.457-.153-1.628-.08a30.25 30.25 0 0 0-1.205-.048l-2.138-.072c.331-.37.653-.747.965-1.133a33.75 33.75 0 0 0 4.875-8.266c1.588-3.399 3.415-6.19 5.297-8.48 2.69.237 5.376.517 8.058.837l2.194.271 3.798.503 2.258.327.75.112.001.002Z"/>
  <path fill="#F9B024" d="m83.73 73.171-8.058-.838c.032-.048.072-.088.104-.128l8.114.87 2.194.271 3.79.52 2.258.326.646.096-.048.096-.75-.112-2.258-.327-3.798-.503-2.194-.27Z"/>
  <path fill="#3C9FD4" d="M84.759 91.928c-2.473 6.063-4.66 11.991-6.478 17.201l-2.122-.183-1.396-.112a150.382 150.382 0 0 0-22.211-.032c-1.657.122-3.31.271-4.962.447 4.484-6.487 11.138-12.606 15.996-17.975l.949-1.061 2.138.072c.402.008.803.024 1.205.048l1.627.08 2.457.152 4.34.35c.399.033.798.073 1.197.12.479.04.949.097 1.42.145l2.68.319 1.98.263 1.18.168v-.002Z"/>
  <path fill="#FFD37E" d="M52 128c1-5 3-7.5 8-8.5-12-3-17.043 1.181-17 1.5.8 6 6.333 7.333 9 7Z"/>
  <path fill="#FFD37E" d="m78.28 109.129-3.823 11.521c-6.828-.798-14.12-1.309-21.907-1.476 0 0-.223-.056-.542.04-1.556.135-6.111.606-8.977 1.731-.12-1.739.296-3.894 1.54-6.558.806-1.732 1.836-3.447 3.017-5.138 1.65-.175 3.306-.324 4.962-.447a150.382 150.382 0 0 1 22.21.032l1.396.112 2.123.183Z"/>
</svg>
