<svg xmlns="http://www.w3.org/2000/svg" width="250" height="414" fill="none" viewBox="0 0 250 414">
  <g clip-path="url(#a)">
    <path fill="#359545" d="M177.999 121.5s-8 14.5-22.973 8.141c-65.632-35.905-101.638-24.564-104.8-23.452.38-2.882 1.214-5.554 2.334-7.993 0 0 18.128-18.98 64.692-14.183 22.644 7.254 48.574 27.391 60.747 37.487Z"/>
    <path fill="#1B7856" d="M74.58 113.84c-6.772-.204-14.086.541-21.582 2.911-.589.186-1.172.384-1.75.582 0 0-.244.751 2.334 5.822-.123-1.671.25-2.8.583-3.493 2.461-5.164 11.794-5.607 16.332-5.822a42.228 42.228 0 0 1 4.083 0Zm128.68 47.45c-17.522-13.321-33.615-23.661-48.233-31.649C170 136 177.838 121.5 177.838 121.5c6.533 5.42 4.546 3.332 6.4 5.148 4.183 4.093 10.523 10.69 17.435 19.708a.725.725 0 0 1 .105.186c.42.949 3.651 8.675 1.482 14.748Z"/>
    <path fill="#1B7856" d="M203.258 161.29c-.6 1.694-1.627 3.26-3.249 4.512a.874.874 0 0 1-1.125-.023 195.842 195.842 0 0 0-9.397-7.691c-15.498-11.889-32.851-21.333-49.848-28.395-41.542-17.268-80.96-20.313-86.059-10.031-.005.005-.005.011-.011.017-.339.699-1.33.681-1.616-.041-1.038-2.625-1.843-5.758-1.942-9.292a25.58 25.58 0 0 1 .216-4.157c3.161-1.112 39.167-12.453 104.799 23.452 14.617 7.988 30.71 18.328 48.232 31.649Z"/>
    <path fill="#55C067" d="M117.253 84.013c-46.564-4.797-64.692 14.183-64.692 14.183 3.464-7.592 9.6-12.96 12.896-15.458a10.943 10.943 0 0 1 4.427-2.015 85.531 85.531 0 0 1 3.53-.652c15.281-2.486 30.173-.442 43.839 3.942Z"/>
  </g>
  <defs>
    <clipPath id="a">
      <path fill="#fff" d="M50 79h154v87H50z"/>
    </clipPath>
  </defs>
</svg>
