<svg xmlns="http://www.w3.org/2000/svg" width="250" height="415" fill="none" viewBox="0 0 250 415">
  <path fill="#7C5635" d="m77.691 69.179-7.64-6.878-13.889-1.636-16.277 19.133 3.7 28.282 9.083 6.935 20.733-6.935 4.29-38.901Z"/>
  <path fill="#BE9178" d="M170.014 136.184s5.652 2.858 7.05 10.087c1.398 7.228 5.742 10.731 8.696 8.864 2.953-1.867 2.103-9.228 2.103-9.228s7.141 8.53 12.846 6.663c5.705-1.867 2.962-7.956 2.962-7.956s9.5-.673 9.265-5.105c-.235-4.432-1.18-11.049-9.736-12.115-8.555-1.066-1.691-7.199-1.691-7.199s4.043-12.718-1.526-16.196c-5.565-3.478 4.034-7.642 4.034-7.642l-12.338-13.341-23.938-3.92-14.817 5.394-4.055 20.963 21.137 30.731h.008Z"/>
  <path fill="#A5735A" d="M170.016 136.184s5.651 2.858 7.049 10.087c1.399 7.228 5.743 10.731 8.696 8.864 2.954-1.867 2.104-9.228 2.104-9.228s7.14 8.53 12.845 6.663c5.705-1.867 2.962-7.956 2.962-7.956s9.5-.673 9.265-5.105c-.235-4.432-1.18-11.049-9.735-12.115-8.556-1.066-1.691-7.199-1.691-7.199s4.739-24.065-.801-27.584c-33.198-21.095-30.694 43.577-30.694 43.577v-.004Z"/>
  <path fill="#7C5635" fill-rule="evenodd" d="m174.886 114.082 5.965-20.339a.34.34 0 0 1 .247-.235l13.857-3.383a.34.34 0 0 1 .391.194l2.83 6.505a.344.344 0 0 1-.024.323l-2.344 3.618a.339.339 0 0 1-.408.132l-6.295-2.458c-.293-.115-.573.199-.425.48l4.971 9.289a.334.334 0 0 0 .334.178l12.928-1.355a.342.342 0 0 0 .281-.207l3.622-8.752a.368.368 0 0 0 .024-.161l-1.691-17.807a.335.335 0 0 0-.132-.236L192.319 66.94a.362.362 0 0 0-.252-.07l-31.268 3.899a.338.338 0 0 0-.198.1l-19.693 19.797a.334.334 0 0 0-.099.248c.062 2.102 1.035 26.257 13.662 27.298 12.285 1.012 19.359-3.329 20.279-3.936a.341.341 0 0 0 .136-.186v-.008Z" clip-rule="evenodd"/>
  <path fill="#683D23" d="M140.801 90.756s25.052 10.496 41.956-5.365h14.867l2.269 10.38-1.642 1.222-3.015-6.939-14.327 3.499-6.158 20.71-9.397 6.345-17.404-6.646-5.824-9.096.816-4.957-1.283-2.234s-1.241-4.238-.854-6.919h-.004Z"/>
  <path fill="#D896B1" fill-rule="evenodd" d="M160.672 131.608s17.42 12.234 33.462 3.523c16.043-8.707 16.262-15.374 16.262-15.374l-29.029-.173-19.255-1.632-1.436 13.66" clip-rule="evenodd"/>
  <path fill="#492F1C" d="M178.567 101.533c-8.568 0-15.713-3.804-21.554-11.008-4.36-5.374-5.874-9.872-5.952-10.095l2.71-2.714c.016.05 2.223 5.696 6.191 10.554 5.173 6.332 12.186 9.636 19.665 9.636.024 0-.025 0 0 0 0 0-1.036 3.623-1.065 3.623l.005.004Zm1.881-6.407c-.532-.553-14.087-13.28-10.824-25.464l3.749-.467c-2.718 10.153 9.269 23.792 9.385 23.912l-1.848.45-.462 1.57Zm8.245-3.424c-1.526-5.65-1.872-17.261 7.261-21.95l2.883 2.23c-10.911 4.714-6.571 18.716-6.559 18.754l-3.585.966Zm7.488.533-.949-2.18-1.947.445c.157-.38 3.841-8.897 16.092-7.955l.359 3.767c-10.007-1.045-13.435 5.642-13.555 5.923Zm12.572 10.81c-1.399-2.218-4.138-4.102-6.666-4.106h-.009c-2.033 0-5.106.05-5.123.054l.652-1.008.643-.995-.569-1.223c3.148-1.442 8.659-3.127 12.714 3.313l-1.642 3.965Z"/>
  <path fill="#5B3D29" d="m54.377 87.06-2.95-2.255c.133-.174 3.297-4.288 8.387-8.163 6.885-5.241 14.009-7.488 20.609-6.51l-.545 3.677c-13.662-2.032-25.385 13.102-25.5 13.255v-.004Zm5.828 18.091-3.28-1.743c.24-.45 6.023-11.09 22.804-15.014l.846 3.618c-15.04 3.52-20.32 13.044-20.37 13.139Zm99.761-16.877c-3.972-4.862-6.175-10.504-6.191-10.554l-2.711 2.714c.075.223 1.589 4.721 5.953 10.095a36.702 36.702 0 0 0 3.349 3.618 40.414 40.414 0 0 0 5.413-.52 27.524 27.524 0 0 1-5.809-5.353h-.004Zm13.408-19.084-3.75.468c-2.063 7.703 2.59 15.617 6.431 20.54a30.924 30.924 0 0 0 3.073-1.878c-3.321-4.908-7.475-12.714-5.754-19.13Zm18.31 13.822c.454-5.106 3.189-9.315 7.157-11.033l-2.883-2.23c-6.411 3.287-8.147 9.983-8.089 15.642h3.741c-.016-.76 0-1.557.074-2.38Z"/>
  <path fill="#D896B1" d="M61.195 118.357s-14.813-4.858-29.271 4.746c0 0 1.761 3.577 5.14 2.412 0 0 2.384-.231 2.821.236.438.466 4.905 8.236 11.67 5.481 6.761-2.755 9.64-12.871 9.64-12.871v-.004Z"/>
  <path fill="#5B3D29" d="m209.734 86.312-.358-3.767c-5.487-.421-9.253 1.058-11.757 2.85l.875 3.99c2.046-1.792 5.597-3.664 11.24-3.073Zm-10.015 8.666.173.797-1.642 1.222-.643.996-.652 1.008s3.09-.054 5.123-.054h.009c2.532 0 5.267 1.884 6.666 4.106l1.642-3.965c-3.28-5.209-7.508-5.102-10.676-4.106v-.004Z"/>
  <path fill="#492F1C" d="M197.021 108.08c-.515-4.568-2.739-7.592-2.599-7.563l1.234.483.771-1.086c.635.132 3.457.43 4.282 7.749l-3.688.417Z"/>
  <path fill="#996F50" d="m169.62 69.645-8.824 1.099a.34.34 0 0 0-.198.099l-6.823 6.86c.013.034.904 2.314 2.566 5.222l6.283-5.366 6.781-.863c-.412-2.31-.412-4.688.219-7.047l-.004-.004Zm-18.555 10.781-10.16 10.21c-.066.067-.074.158-.099.249-.392 1.462.087 2.416.384 4.981l12.263-10.48c-1.654-2.812-2.322-4.77-2.388-4.964v.004Zm44.888-10.69 2.813 2.177-6.456-4.998a.36.36 0 0 0-.251-.07l-19.809 2.47 1.114-.14c-.598 2.226-.483 4.621.053 7l17.619-2.242a13.62 13.62 0 0 1 4.913-4.2l.004.003Zm13.061 10.108-10.177-7.877c-1.485.644-2.801 1.64-3.886 2.9l14.426 7.666-.231-2.45a.338.338 0 0 0-.132-.235v-.004Z"/>
  <path fill="#7A5C47" d="M151.064 80.426c.066.194.735 2.152 2.389 4.965l2.887-2.47c-1.662-2.904-2.557-5.188-2.565-5.221l-2.711 2.722v.004Zm22.308-11.247-1.114.14-2.636.33c-.631 2.36-.631 4.742-.218 7.047l4.022-.512c-.537-2.383-.652-4.775-.054-7.001v-.004Z"/>
  <path fill="#C47699" d="M47.714 118.861c-1.101 2.057 3.482 4.238 3.482 4.238s-8.044-1.541-8.098.124c-.053 1.664 3.733 2.751 7.739 1.507 0 0-3.84 2.334-3.123 3.499.718 1.165 18.08-3.763 18.08-3.763s-15.96-9.558-18.08-5.609v.004Z"/>
  <path fill="#7A5C47" d="m198.841 71.967-.07-.054-2.813-2.177a13.63 13.63 0 0 0-4.913 4.201l1.745-.223 2.165 1.153c1.085-1.26 2.401-2.256 3.886-2.9Z"/>
  <path fill="#5B3D29" d="m64.025 107.96-5.998-4.956-5.123-21.454 1.55-5.366.677-4.01c-7.417 11.354-15.246 7.628-15.246 7.628l3.7 28.282 9.083 6.935 11.357-7.054v-.005Z"/>
  <path fill="#492F1D" d="M54.941 93.788c-3.514 0-10.057-1.78-15.056-13.99l2.186-2.569c5.507 13.445 12.557 12.929 12.866 12.842l.87 3.647c-.12.037-.87.07-.87.07h.004ZM51.614 106.8c-2.314 0-5.12-.554-8.432-2.115l-.635-4.536c8.287 4.994 14.772.946 14.97.723l.507 2.132 1.097 1.309c-.181.211-2.058 2.482-7.511 2.482l.004.005Z"/>
  <path fill="#492F1D" d="M54.454 76.18s-1.431 5.882-1.196 6.86l4.769 19.963 5.997 4.957-11.356 7.055S42.03 92.276 54.454 76.18Z"/>
  <path fill="#E4C5AE" d="M59.126 122.314s-10.086-9.282-25.634.867c0 0-2.433.409-2.433-1.194 0-1.602 8.386-10.933 17.523-11.71l15.786 2.02-5.242 10.017Z"/>
  <path fill="#342014" d="M54.943 93.788s.75-.037.87-.07l-.87-3.647c-.182.05-2.649.24-5.767-2.26-.28 1.33-.47 2.665-.59 3.982 2.467 1.615 4.736 1.995 6.36 1.995h-.003Zm-5.903 8.716c.238 1.491.535 2.9.853 4.197.602.066 1.176.099 1.72.099 5.45 0 7.33-2.272 7.512-2.483l-1.097-1.309-.508-2.132c-.144.157-3.523 2.289-8.48 1.632v-.004Z"/>
  <path fill="#C47699" d="M162.182 132.256s8.691-11.995 16.034-11.644c7.347.351-1.39 7.799-1.39 7.799s10.304-2.202 11.034.714c.731 2.916-5.111 4.54-5.111 4.54s2.925.198 3.626 1.796c.698 1.595-.622 2.801-.622 2.801s-13.18 1.793-23.575-6.006h.004Z"/>
  <path fill="#D6AE92" d="M73.867 93.148s-8.617-2.858-12.103 6.997c-.916 2.59 2.26 7.815 2.26 7.815s-10.733-1.169-12.597 5.072c-1.865 6.242 10.378 10.86 12.94 10.86 0 0-13.848 1.156-15.94 5.51 0 0-7.173 9.814-1.348 12.672 5.824 2.859 10.308-8.513 10.308-8.513s10.268 9.798 20.304-.818c10.036-10.611 25.373-50.582 25.373-50.582L73.867 93.148Z"/>
  <path fill="#BE9178" d="M101.576 85.932S69.359 91.31 65.263 94.71c0 0 5.77 8.294 12.428 5.204 0 0-2.157 8.769-1.947 15.101.743 22.161-16.62 12.38-16.62 12.38s-5.99 8.149-9.293 10.59c-3.304 2.441-4.105-3.717-4.105-3.717-1.386 2.267-2.14 8.971 3.309 8.265 5.453-.706 8.349-8.976 8.349-8.976s1.34 6.997 12.664 3.842c11.327-3.156 16.22-16.845 16.22-16.845s12.52 21.83 14.215-1.685c11.001 17.138 15.299-6.349 14.788-8.364.681 2.581 7.165 26.002 18.109 24.919 11.579-1.144 21.083-17.22 21.083-17.22l-52.891-32.272h.004Z"/>
  <path fill="#F2E1D6" d="M96.543 69.844s-9.628-7.192-22.907 1.904C60.357 80.843 65.25 90.29 65.25 90.29s5.94 10.495 30.05-2.099c0 0-22.712 19.596-14.325 25.544 8.386 5.948 20.617-8.047 20.617-8.047s3.494 17.844 12.928 16.444c9.434-1.4 10.481-11.198 10.481-11.198s4.542 29.042 24.111 26.94c0 0 8.931.107 17.936-10.343 7.487-8.687 19.021-2.371 27.597-1.206 8.576 1.168 18.641-6.419 15.729-7.468-2.504-.905-10.87 1.206-18.637-2.681-3.952-1.979-14.677-6.299-23.41-.351 0 0 2.446-8.749-11.53-8.398 0 0 9.084-.041 6.988-4.221-2.095-4.176-16.071 0-16.071 0s4.191-9.426 1.398-10.124c-2.796-.698-7.454 4.589-7.454 4.589s-1.629-5.518-.853-6.919l19.878-19.983s-24.692-3.11-29.35-6.064c-4.657-2.953 1.242-9.33-1.707-11.04-2.95-1.71-13.044-5.598-12.735 11.35 0 0-16.306-9.798-21.43-6.378-5.123 3.42 1.09 11.198 1.09 11.198l-.008.009Z"/>
  <path fill="#E4C5AE" d="M210.667 119.034c-3.576 3.069-9.566 2.565-13.938 2.057-6.431-.747-12.871-4.911-19.339-2.676-4.277 1.474-8.176 4.275-12.202 6.332-5.668 2.895-22.836 7.513-38.92-19.129-.618 1.781-11.756 16.514-22.308-4.068-3.143 2.664-26.273 8.377-1.465-17.67-4.467.854-37.249 6.414-35.632-5.61-4.426 6.592-1.617 12.02-1.617 12.02s5.94 10.496 30.051-2.098c0 0-22.712 19.595-14.326 25.543s20.617-8.046 20.617-8.046 3.494 17.844 12.928 16.443c9.434-1.4 10.482-11.198 10.482-11.198s4.541 29.042 24.111 26.94c0 0 8.931.107 17.936-10.343 7.487-8.687 19.02-2.371 27.596-1.206 8.209 1.119 17.779-5.783 16.026-7.295v.004Zm-50.622-17.612a16.834 16.834 0 0 0-2.018-.05c.652.029 1.345.066 2.018.05Z"/>
  <path fill="#FDF6F3" d="M116.884 65.023s-16.307-9.798-21.43-6.378c-5.123 3.42 1.089 11.198 1.089 11.198s-9.628-7.191-22.907 1.904c-3.209 2.202-5.358 4.42-6.769 6.523 0 0 14.459-7.634 33.558-3.404 0 0-2.797-12.8 0-12.8 2.796 0 21.665 7.579 21.665 7.579s-2.641-16.675 7.532-15.977c-2.95-1.71-13.044-5.597-12.734 11.35l-.004.005Z"/>
  <path fill="#F2E1D6" d="M31.924 123.099s5.255-5.754 8.634-7.27c3.378-1.516 10.87-2.801 10.87-2.801l1.27-2.23-4.117-.529s-6.687.686-11.154 4.742c0 0-4.08 3.412-5.792 5.725-1.254 1.693-.227 2.255.289 2.358v.005Z"/>
  <path fill="#5B3D29" d="M39.885 79.798s1.67.855 3.622.574L42.07 77.23l-2.186 2.57Z"/>
  <path fill="#996F50" d="m39.885 79.798 16.278-19.133 13.889 1.632 2.132 1.92s-12.173.901-15.262 2.64c-.87.488-13.96 9.323-15.73 13.573 0 0 3.028 24.147 2.389 27.65l-3.7-28.282h.004Z"/>
  <path fill="#7C5635" d="m43.355 100.608.29 4.543-.459-.471-.64-4.535.81.463Zm-1.734-17.08-1.736-3.73 2.186-2.569.474 1.04-1.349 2.161.425 3.098Z"/>
</svg>
