<svg xmlns="http://www.w3.org/2000/svg" width="250" height="414" fill="none" viewBox="0 0 250 414">
  <path fill="#D7D7D7" fill-rule="evenodd" d="M203.742 145.83c-56.193-27.32-104.607-37.02-150.722-23.99a71.269 71.269 0 0 1 2.218-9.77c21.863-72.55 147.802-60.68 148.755 25.81.03 2.58-.05 5.23-.251 7.95Z" clip-rule="evenodd"/>
  <path fill="#878B8B" fill-rule="evenodd" d="M203.993 137.89c-.302-27.02-12.799-46.76-30.516-58.92.803 2.15 1.596 4.3 2.308 6.49 2.329 7.13 3.283 14.57 4.206 22.01 1.145 9.27 1.807 18.79 1.115 28.16a411.976 411.976 0 0 1 22.636 10.21c.2-2.71.281-5.36.251-7.95ZM66.33 99.52c.964-.18 1.938-.35 2.901-.52-.14.37-.28.74-.411 1.11-.281.75-.552 1.5-.813 2.26-.241.05-.472.1-.703.15-.833.18-1.616.36-2.349.53a139.4 139.4 0 0 1 1.375-3.54v.01Zm2.77-6.39c.914-.16 1.828-.3 2.741-.44a92.609 92.609 0 0 0-1.485 3.47c-1.024.2-1.988.41-2.881.61.512-1.19 1.054-2.41 1.626-3.64Zm3.194-6.43c.873-.13 1.736-.26 2.6-.37-.573 1.11-1.135 2.24-1.697 3.41-.953.17-1.857.34-2.73.51.582-1.17 1.184-2.36 1.817-3.55h.01Zm6.644-7.63-.702 1.19c-.572.97-1.135 1.97-1.707 3.01-.893.14-1.756.27-2.59.42.171-.3.342-.61.522-.91.171-.16.342-.31.512-.46.191-.16.382-.33.563-.5.2-.17.391-.34.592-.51.2-.17.401-.34.612-.51.16-.14.331-.28.502-.41.01 0 .02-.02.03-.03.07-.05.13-.11.2-.16.041-.03.091-.07.131-.1.11-.09.231-.19.352-.27.12-.09.24-.19.351-.27.01-.01.03-.02.04-.03.19-.15.392-.3.592-.44v-.02Zm-3.543 24.83c.974-.12 1.948-.23 2.922-.33-.422 1.38-.814 2.78-1.185 4.21-1.044.12-2.058.24-3.062.37.402-1.37.844-2.78 1.325-4.24v-.01Zm2.189-6.1c.913-.11 1.827-.21 2.74-.3-.361.99-.703 2-1.044 3.02-.984.12-1.927.24-2.84.38.36-1.02.742-2.05 1.144-3.1Zm2.538-6.17c.864-.09 1.727-.17 2.58-.25-.422.99-.833 2-1.235 3.04a93 93 0 0 0-2.68.34c.422-1.03.863-2.07 1.335-3.13Zm2.933-6.21c.813-.07 1.626-.13 2.439-.19-.472.98-.944 1.99-1.416 3.02-.863.09-1.706.18-2.53.28.483-1.03.985-2.06 1.507-3.1v-.01Zm3.833-6.02 1.676-.12c-.491.9-.993 1.82-1.485 2.77-.813.07-1.616.14-2.4.21.302-.55.603-1.12.914-1.68l.633-1.14c.22-.02.431-.03.652-.05l.01.01Zm4.829-5.52c-.431.71-.873 1.44-1.315 2.19-.783.06-1.546.11-2.299.18.442-.75.904-1.49 1.376-2.24.753-.05 1.495-.09 2.238-.13Zm-5.039 29c.963-.06 1.927-.1 2.89-.14a116.03 116.03 0 0 0-1.093 4.1c-1.024.06-2.038.12-3.022.19.371-1.34.783-2.72 1.225-4.14v-.01Zm2.057-6.03c.913-.05 1.827-.1 2.74-.13-.321.94-.632 1.89-.943 2.85-.964.04-1.898.1-2.821.16.321-.95.663-1.9 1.024-2.88Zm2.359-6.01c.873-.04 1.747-.06 2.61-.09-.372.91-.733 1.83-1.084 2.78-.914.04-1.807.09-2.68.14.37-.93.752-1.88 1.154-2.83Zm2.711-6.02c.843-.02 1.677-.04 2.51-.05-.422.9-.843 1.83-1.255 2.77-.873.03-1.727.06-2.57.1.422-.93.854-1.88 1.315-2.83v.01Zm2.981-5.88 2.44-.03c-.453.86-.904 1.73-1.356 2.63-.843.01-1.666.03-2.48.06.452-.88.924-1.77 1.396-2.66Zm3.011-5.31h2.389c-.392.67-.793 1.35-1.195 2.06-.813 0-1.616.02-2.409.03.392-.69.803-1.38 1.215-2.08v-.01Z" clip-rule="evenodd"/>
  <path fill="#fff" fill-rule="evenodd" d="M73.146 86.67a67.152 67.152 0 0 1 4.045-6.7c-9.988 7.74-17.828 18.42-21.943 32.1a71.254 71.254 0 0 0-2.219 9.77c4.287-1.21 8.583-2.22 12.92-3.04.431-11.13 1.927-22.13 7.207-32.14l-.01.01Z" clip-rule="evenodd"/>
  <path fill="#878B8B" fill-rule="evenodd" d="M105.459 68.36c-.421.65-.863 1.33-1.305 2.04h-2.369c.432-.69.873-1.37 1.325-2.06.783 0 1.566 0 2.349.02Z" clip-rule="evenodd"/>
  <path fill="#CCCBCB" fill-rule="evenodd" d="M58.591 104.84c1.245-.42 3.393-1.07 6.364-1.78-.33.9-.652 1.78-.953 2.65-2.128.41-4.256.87-6.395 1.38a63.995 63.995 0 0 1 .793-1.82c.06-.14.13-.28.191-.43Zm17.837-3.94a218.94 218.94 0 0 0-1.034 3c-2.76.34-5.531.75-8.322 1.24.301-.94.613-1.86.924-2.77 2.419-.51 5.24-1.02 8.422-1.48l.01.01Zm11.284-1.17a141.714 141.714 0 0 0-1.034 3.149c-2.77.16-5.56.39-8.362.69.312-1.03.633-2.05.964-3.05 2.6-.32 5.41-.59 8.432-.79Zm20.788-.14c-.321 1.11-.622 2.2-.893 3.26-5.892-.31-11.915-.36-18.039-.11.311-1.08.633-2.13.964-3.17 5.41-.28 11.413-.31 17.968.02Zm12.288.999c-.261 1.12-.502 2.22-.723 3.29-3.212-.36-6.485-.66-9.797-.88.261-1.1.532-2.2.813-3.27 3.122.2 6.354.48 9.707.87v-.01Zm13.55 2c-.151 1.13-.291 2.24-.422 3.32a225.08 225.08 0 0 0-10.58-1.63c.201-1.1.412-2.2.642-3.3 3.343.43 6.806.96 10.37 1.61h-.01Zm27.917 6.871c0 1.09 0 2.19-.031 3.3-7.368-2.25-15.428-4.35-24.021-6.04.141-1.09.281-2.19.432-3.31 7.458 1.5 15.338 3.48 23.62 6.05Zm10.108 6.63c-2.339-.82-4.768-1.64-7.287-2.44 0-1.08-.02-2.18-.051-3.3 2.4.77 4.819 1.6 7.278 2.48.04 1.08.06 2.16.06 3.26Zm8.894.12c.02 1.05.02 2.11 0 3.18-.281-.11-.552-.22-.843-.33-1.576-.62-3.222-1.23-4.919-1.85-.03-1.06-.06-2.15-.12-3.26 1.596.59 3.212 1.21 4.828 1.85.352.13.693.27 1.044.41h.01Z" clip-rule="evenodd"/>
  <path fill="#99999A" fill-rule="evenodd" d="M197.419 123.24c.02 1.04.03 2.09.02 3.15-3.544-1.7-7.981-3.69-13.15-5.8 0-1.04-.03-2.1-.06-3.18 4.316 1.77 8.713 3.71 13.19 5.83Zm6.093 6.18c-.914-.48-1.998-1.03-3.222-1.64-.021-1.05-.051-2.12-.091-3.21.934.45 1.857.91 2.791 1.37.06.38.12.76.181 1.13.04.22.07.44.1.66.08.57.16 1.13.231 1.69h.01Z" clip-rule="evenodd"/>
  <path fill="#CCCBCB" fill-rule="evenodd" d="M62.054 98.17a89.87 89.87 0 0 1 5.42-1.39c-.401.93-.783 1.84-1.144 2.74-1.887.35-3.784.74-5.682 1.17.231-.43.462-.87.713-1.3.2-.36.412-.72.623-1.08.02-.04.05-.08.08-.13l-.01-.01Zm16.745-3.42a136.86 136.86 0 0 0-1.215 3.05 159.576 159.576 0 0 0-8.342 1.2c.372-.96.743-1.91 1.124-2.84.452-.09.924-.18 1.396-.27 2.108-.4 4.457-.78 7.037-1.13v-.01Zm11.141-1.08c-.422 1.08-.834 2.14-1.215 3.18-2.791.15-5.592.36-8.412.65.37-1.04.762-2.07 1.154-3.08 2.62-.31 5.44-.56 8.472-.75Zm20.438-.05c-.371 1.1-.732 2.19-1.064 3.25-5.832-.32-11.794-.39-17.837-.16.371-1.08.752-2.14 1.154-3.19 5.36-.25 11.283-.26 17.757.09l-.01.01Zm11.905 1.01c-.301 1.11-.582 2.2-.843 3.27-3.152-.36-6.354-.66-9.596-.87.321-1.1.662-2.19 1.004-3.26 3.031.2 6.183.49 9.435.86Zm12.888 1.89c-.161 1.12-.311 2.23-.462 3.31a222.1 222.1 0 0 0-10.148-1.55c.24-1.1.501-2.2.772-3.28 3.183.41 6.465.92 9.838 1.52Zm27.034 9.86a246.809 246.809 0 0 0-23.219-5.75c.141-1.1.281-2.21.422-3.32a232.256 232.256 0 0 1 22.656 5.71c.06 1.11.11 2.23.141 3.36Zm9.958 3.2c-2.329-.8-4.748-1.6-7.247-2.37-.051-1.1-.121-2.22-.201-3.36 2.369.75 4.778 1.55 7.207 2.4.091 1.1.171 2.21.241 3.34v-.01Zm8.812.02c.07 1.07.131 2.16.181 3.25-.442-.17-.894-.34-1.355-.52a318.65 318.65 0 0 0-4.608-1.7c-.08-1.09-.17-2.2-.281-3.33 1.426.51 2.851 1.05 4.296 1.6.593.22 1.175.45 1.777.68l-.01.02Z" clip-rule="evenodd"/>
  <path fill="#99999A" fill-rule="evenodd" d="M197.116 116.51c.071 1.06.141 2.13.191 3.22a244.776 244.776 0 0 0-13.24-5.73c-.06-1.07-.141-2.16-.231-3.26a276.61 276.61 0 0 1 13.29 5.77h-.01Zm5.151 5.62a157.6 157.6 0 0 0-2.248-1.11c-.07-1.07-.161-2.17-.261-3.28l1.626.78c.04.12.07.25.1.37.251.93.472 1.85.673 2.77.04.15.07.31.1.46l.01.01Z" clip-rule="evenodd"/>
  <path fill="#CCCBCB" fill-rule="evenodd" d="M66.862 91.03c1.094-.26 2.309-.52 3.614-.78-.482.97-.934 1.93-1.376 2.88-1.445.25-2.89.51-4.346.8.281-.41.572-.83.873-1.24.13-.19.271-.37.412-.56.27-.37.542-.73.823-1.1Zm14.686-2.51c-.491 1.05-.963 2.08-1.415 3.11-1.857.19-3.714.41-5.581.67-.894.12-1.797.25-2.7.39.441-1 .903-1.99 1.365-2.96 1.275-.23 2.63-.45 4.065-.66 1.355-.2 2.78-.39 4.266-.56v.01Zm10.942-.88a119.27 119.27 0 0 0-1.395 3.19c-2.78.11-5.581.29-8.392.54.452-1.07.904-2.11 1.375-3.14 2.62-.25 5.431-.47 8.412-.6v.01Zm20.017.21c-.432 1.1-.844 2.18-1.235 3.25-5.732-.37-11.604-.5-17.567-.34.442-1.09.894-2.17 1.345-3.21 5.3-.17 11.132-.1 17.446.31l.011-.01Zm11.401 1.08c-.331 1.11-.652 2.19-.953 3.26-3.042-.37-6.134-.68-9.266-.92.392-1.1.783-2.18 1.195-3.25 2.911.23 5.923.52 9.034.91h-.01Zm12.127 1.84c-.171 1.11-.341 2.21-.502 3.3-3.122-.57-6.314-1.07-9.566-1.51.291-1.1.582-2.19.893-3.26 2.982.4 6.033.89 9.175 1.47Zm25.868 9.61a248.39 248.39 0 0 0-22.184-5.51c.14-1.11.281-2.21.411-3.31a231.48 231.48 0 0 1 21.462 5.42c.11 1.12.211 2.25.301 3.41l.01-.01Zm2.579.79c-.1-1.12-.22-2.26-.361-3.41 2.339.73 4.718 1.52 7.117 2.35.151 1.11.291 2.25.412 3.4-2.309-.78-4.698-1.57-7.168-2.33v-.01Zm15.941 2.32c.131 1.09.241 2.19.341 3.32a281.276 281.276 0 0 0-6.133-2.27c-.13-1.11-.281-2.24-.442-3.39a279.823 279.823 0 0 1 6.254 2.34h-.02Z" clip-rule="evenodd"/>
  <path fill="#99999A" fill-rule="evenodd" d="M196.535 110.34c.13 1.08.241 2.17.341 3.29a241.21 241.21 0 0 0-13.32-5.73 103.47 103.47 0 0 0-.392-3.33c4.367 1.75 8.824 3.67 13.371 5.77Zm3.925 5a44.47 44.47 0 0 0-.994-.48c-.12-1.1-.261-2.22-.411-3.35.04.02.08.03.12.06.04.1.08.2.111.31.09.23.17.47.251.71.16.44.311.87.451 1.31.171.49.321.97.472 1.45v-.01Z" clip-rule="evenodd"/>
  <path fill="#CCCBCB" fill-rule="evenodd" d="M73.377 83.78c.18-.03.371-.07.562-.1a128.96 128.96 0 0 0-1.636 3.02c-.693.1-1.386.21-2.078.32.13-.14.26-.29.401-.44.16-.18.341-.36.512-.55.17-.18.341-.36.522-.54.18-.19.361-.38.552-.56.341-.35.703-.69 1.064-1.04l.12-.12-.02.01Zm11.313-1.52c-.572 1.06-1.114 2.11-1.636 3.16-.874.07-1.747.16-2.63.25-1.837.19-3.674.4-5.531.65.542-1.05 1.084-2.07 1.626-3.06 2.208-.34 4.617-.64 7.207-.91l.964-.09Zm10.7-.66c-.552 1.08-1.084 2.15-1.586 3.21-2.75.07-5.521.21-8.312.41.532-1.09 1.064-2.15 1.596-3.18 2.6-.2 5.37-.36 8.302-.45v.01Zm19.525.49a159.2 159.2 0 0 0-1.385 3.23c-5.622-.42-11.364-.62-17.206-.55a108.03 108.03 0 0 1 1.556-3.22c5.22-.08 10.912.07 17.045.54h-.01Zm10.8 1.13c-.372 1.1-.713 2.18-1.054 3.24a219.42 219.42 0 0 0-8.804-.95c.442-1.1.894-2.18 1.356-3.23 2.75.24 5.581.55 8.502.94Zm11.254 1.79c-.191 1.1-.372 2.2-.553 3.29a212.85 212.85 0 0 0-8.863-1.45c.331-1.1.662-2.19.994-3.25 2.74.4 5.541.87 8.411 1.4l.011.01Zm24.322 9.26a246.2 246.2 0 0 0-20.859-5.18c.13-1.12.271-2.23.401-3.32 6.364 1.31 13.03 2.96 19.986 5.04.171 1.13.331 2.28.472 3.46Zm9.536 3.02a236.02 236.02 0 0 0-7.067-2.27c-.16-1.14-.331-2.3-.522-3.47 2.309.71 4.638 1.47 6.997 2.28.211 1.12.401 2.28.592 3.46Zm8.733-.08c.18 1.1.351 2.23.502 3.39-1.185-.45-2.389-.9-3.634-1.35-.884-.32-1.777-.64-2.69-.96-.191-1.14-.392-2.3-.623-3.46.592.21 1.175.42 1.777.64 1.546.56 3.102 1.14 4.678 1.75l-.01-.01Z" clip-rule="evenodd"/>
  <path fill="#99999A" fill-rule="evenodd" d="M182.754 101.64c-.171-1.12-.362-2.26-.563-3.4 4.397 1.74 8.884 3.65 13.462 5.75.18 1.09.351 2.22.512 3.37a242.102 242.102 0 0 0-13.411-5.71v-.01Z" clip-rule="evenodd"/>
  <path fill="#CCCBCB" fill-rule="evenodd" d="M82.07 76.87a147.1 147.1 0 0 1 6.033-.62 155.04 155.04 0 0 0-1.867 3.2c-2.66.2-5.32.47-8 .81l-.984.12.03-.03c.07-.05.13-.11.2-.16.041-.03.091-.07.131-.1.11-.09.231-.19.352-.27.12-.09.24-.19.351-.27.01-.01.03-.02.04-.03.19-.15.392-.3.592-.44.11-.09.221-.17.332-.25l.662-.48c.221-.16.442-.32.673-.47.23-.15.452-.31.682-.47.251-.17.512-.34.773-.52v-.02Zm16.512-1.16a155.86 155.86 0 0 0-1.797 3.23c-2.72.06-5.45.17-8.21.34.511-.93 1.023-1.83 1.525-2.71.1-.17.19-.33.291-.5.1 0 .21-.01.311-.02 2.48-.17 5.11-.29 7.87-.34h.01Zm19.043.62a156.08 156.08 0 0 0-1.556 3.22c-5.501-.44-11.132-.67-16.854-.64a148.12 148.12 0 0 1 1.767-3.23c5.119-.03 10.68.16 16.633.65h.01Zm10.128 1.1c-.401 1.09-.793 2.17-1.164 3.23-2.71-.35-5.461-.66-8.241-.92.512-1.11 1.024-2.18 1.525-3.22 2.55.24 5.17.54 7.87.9l.01.01Zm10.289 1.63c-.211 1.1-.412 2.2-.602 3.29-2.64-.47-5.331-.92-8.061-1.31.361-1.11.733-2.19 1.084-3.23 2.469.36 4.989.78 7.569 1.25h.01Zm22.275 8.62a247.911 247.911 0 0 0-19.153-4.62c.131-1.14.271-2.25.402-3.32a228.63 228.63 0 0 1 18.088 4.41c.231 1.14.452 2.32.663 3.53Zm9.277 2.82c-2.229-.73-4.538-1.44-6.907-2.14-.221-1.17-.451-2.35-.712-3.54 2.248.66 4.527 1.38 6.836 2.13.271 1.15.542 2.33.793 3.54l-.01.01Zm8.651-.24c.251 1.12.482 2.28.703 3.48-1.878-.69-3.825-1.38-5.843-2.07l-.692-.24c-.141-.65-.291-1.29-.442-1.95v-.01c-.12-.52-.251-1.05-.371-1.58 2.188.75 4.406 1.53 6.645 2.37Z" clip-rule="evenodd"/>
  <path fill="#99999A" fill-rule="evenodd" d="M193.334 99.52a261.15 261.15 0 0 0-11.815-4.82c-.241-1.15-.492-2.31-.763-3.49 3.162 1.21 6.364 2.51 9.626 3.89l.512.72c.161.22.322.45.472.67.311.45.613.91.914 1.36l.441.68c.151.23.291.46.432.69.06.1.12.2.181.29v.01Z" clip-rule="evenodd"/>
  <path fill="#CCCBCB" fill-rule="evenodd" d="M90.34 72.31c.101-.05.201-.1.312-.14-.402.61-.783 1.22-1.175 1.83-.993.07-1.987.14-2.98.22.21-.12.43-.23.641-.35.522-.27 1.044-.54 1.576-.8.272-.13.532-.27.804-.39.27-.12.542-.25.823-.38v.01Zm11.445-1.91c-.693 1.08-1.345 2.16-1.987 3.23-2.109.02-4.227.07-6.355.17-.572.02-1.144.05-1.726.08a144.12 144.12 0 0 1 1.857-2.94v-.01l.18-.27.623-.03h.01c1.074-.06 2.158-.1 3.272-.14 1.345-.04 2.701-.07 4.106-.08l.02-.01Zm18.529.78c-.592 1.08-1.154 2.14-1.696 3.2-5.36-.47-10.851-.73-16.432-.75.662-1.13 1.325-2.21 1.967-3.23 4.999.02 10.4.26 16.171.78h-.01Zm9.427 1.08c-.431 1.08-.853 2.15-1.255 3.22-2.509-.34-5.059-.64-7.629-.88.563-1.11 1.135-2.18 1.687-3.2 2.339.24 4.738.53 7.197.87v-.01Zm9.346 1.5c-.221 1.09-.442 2.18-.663 3.28-2.389-.43-4.808-.83-7.278-1.19.402-1.12.783-2.2 1.165-3.22 2.208.33 4.467.71 6.766 1.13h.01Zm20.066 7.99a238.044 238.044 0 0 0-17.346-4.07c.14-1.16.271-2.27.391-3.32 5.17 1.03 10.54 2.29 16.111 3.81.281 1.14.563 2.34.834 3.58h.01Zm9.014 2.65c-2.189-.69-4.447-1.36-6.756-2.01a104.41 104.41 0 0 0-.893-3.59c1.957.55 3.935 1.14 5.932 1.77.241.08.492.15.733.23.13.46.261.93.391 1.4.191.72.392 1.45.593 2.21v-.01Zm8.583-.39c.301 1.13.593 2.31.894 3.55-2.158-.77-4.397-1.53-6.716-2.29-.321-1.19-.662-2.4-1.024-3.61 2.259.74 4.538 1.52 6.846 2.35Z" clip-rule="evenodd"/>
  <path fill="#99999A" fill-rule="evenodd" d="M187.311 91.23c-2.279-.91-4.698-1.84-7.238-2.78-.301-1.18-.622-2.37-.964-3.57 1.095.4 2.199.82 3.303 1.25.03.03.06.05.08.08.211.19.412.39.613.58.22.2.421.4.632.61.422.41.823.83 1.225 1.25.2.21.401.42.592.63.201.21.391.42.582.63.392.43.783.87 1.164 1.31l.011.01Z" clip-rule="evenodd"/>
  <path fill="#878B8B" fill-rule="evenodd" d="M101.604 68.35a46.6 46.6 0 0 1 1.786-.44c-.09.14-.19.28-.281.43h-1.505v.01Z" clip-rule="evenodd"/>
  <path fill="#CCCBCB" fill-rule="evenodd" d="M123.257 66.03c-.643 1.07-1.255 2.13-1.847 3.18-5.2-.49-10.53-.78-15.951-.86.231-.35.462-.69.673-1.02 4.607-.89 9.606-1.41 15.037-1.5.682.06 1.375.13 2.068.19l.02.01Zm8.631 1.04c-.461 1.07-.903 2.14-1.345 3.19-2.278-.31-4.587-.59-6.916-.83.632-1.13 1.245-2.19 1.837-3.18 2.098.23 4.236.5 6.414.81l.01.01Zm8.363 1.35c-.25 1.08-.491 2.17-.722 3.26-2.118-.38-4.277-.73-6.455-1.06.442-1.16.853-2.23 1.235-3.21 1.947.3 3.925.63 5.942 1v.01Zm17.416 7.25a240.663 240.663 0 0 0-15.208-3.44c.141-1.22.271-2.34.391-3.32 4.447.86 9.045 1.9 13.793 3.13.341 1.13.693 2.34 1.034 3.63h-.01Zm8.704 2.42c-.733-.22-1.485-.44-2.238-.66-1.416-.41-2.841-.81-4.307-1.2-.341-1.21-.702-2.42-1.084-3.65.572.15 1.135.31 1.717.47 1.335.37 2.69.76 4.055 1.17h.02c.141.06.271.13.412.19.05.03.1.05.15.07.04.02.071.03.111.05.381 1.09.763 2.28 1.154 3.55l.01.01Zm10.438 3.37c-.281-.1-.572-.2-.853-.3-2.218-.76-4.527-1.51-6.906-2.25-.311-.97-.633-1.95-.974-2.93.221.12.452.24.673.36.883.48 1.746.97 2.59 1.47.281.17.552.34.833.51.241.15.472.29.702.44.041.03.071.05.111.07.271.17.532.34.793.51.01 0 .02.02.03.02.261.17.522.35.773.52l.783.54c.15.11.311.21.462.32.1.07.2.14.311.22l.572.42c.03.03.06.05.09.07l.01.01Z" clip-rule="evenodd"/>
  <path fill="#878B8B" fill-rule="evenodd" d="M107.607 102.84c.894.05 1.777.1 2.66.16a89.772 89.772 0 0 0-.823 3.84c-.933-.05-1.857-.09-2.77-.13.281-1.25.602-2.54.943-3.86l-.01-.01Zm1.706-5.97c.844.04 1.687.1 2.52.15-.261.89-.512 1.79-.763 2.7-.873-.05-1.727-.1-2.58-.14.261-.89.522-1.79.813-2.71h.01Zm1.957-5.77c.803.05 1.616.11 2.42.17-.282.82-.563 1.66-.844 2.5-.833-.05-1.646-.1-2.469-.14.281-.83.582-1.67.893-2.53Zm2.25-5.78c.783.06 1.566.12 2.339.19-.331.82-.663 1.66-.984 2.51-.803-.06-1.596-.12-2.379-.17.321-.83.663-1.68 1.024-2.53Zm2.548-5.77c.763.06 1.526.12 2.289.19-.381.83-.763 1.67-1.134 2.54-.783-.07-1.546-.14-2.309-.19.371-.84.763-1.69 1.164-2.54h-.01Zm2.551-5.17 2.248.21c-.321.63-.652 1.28-.974 1.94-.763-.07-1.515-.14-2.258-.2.321-.65.652-1.3.994-1.95h-.01Zm5.008-4.95c-.361.63-.723 1.28-1.084 1.96l-2.229-.21c.352-.65.713-1.31 1.095-1.97.742.07 1.485.14 2.228.22h-.01Zm71.934 34.04c.11.21.221.42.321.63-.08-.04-.161-.08-.241-.11l-.09-.52h.01Zm3.484 8.04c-.843-.4-1.677-.79-2.5-1.17-.12-1.01-.241-2.01-.371-2.98.552.26 1.094.51 1.616.76.05.1.09.2.13.3.091.21.171.42.261.62.101.24.191.47.292.71l.21.54c.111.26.211.53.301.79v.01l.061.42Zm-1.927 5c-.071-.98-.151-1.93-.231-2.88.903.42 1.766.83 2.58 1.23.11.98.21 1.94.291 2.89-.884-.42-1.767-.84-2.64-1.24Zm3.08 8.059c-.933-.45-1.857-.9-2.79-1.33-.021-1.19-.061-2.36-.121-3.51.964.45 1.867.88 2.71 1.29.081 1.21.141 2.39.191 3.55h.01Zm-.079 12.301c-1.004-.68-2.007-1.34-3.021-1.99.22-2.89.321-5.73.341-8.49 1.024.49 1.977.96 2.851 1.39.05 3.22-.02 6.26-.171 9.09Zm-21.001-51.99a85.42 85.42 0 0 0-2.369-.86c-.261-1-.532-1.95-.793-2.85l-.12-.41c.1.07.201.14.311.22l.572.42c.03.03.061.05.091.07.281.2.552.41.823.62.241.19.492.37.723.57.04.03.09.06.13.1.221.72.422 1.43.622 2.13l.01-.01Zm1.636 6.33c-.843-.32-1.676-.64-2.509-.95-.191-.93-.402-1.83-.602-2.7.823.3 1.646.59 2.439.89.241.93.462 1.85.672 2.76Zm1.436 7.03c-.884-.35-1.767-.69-2.64-1.03-.191-1.19-.392-2.35-.612-3.47.873.32 1.726.64 2.569.96.251 1.19.472 2.37.673 3.54h.01Zm.975 6.33c-.924-.37-1.837-.73-2.751-1.08-.11-.98-.231-1.94-.361-2.89.913.35 1.817.7 2.69 1.04.151.99.291 1.97.412 2.93h.01Zm.662 6.16c-.953-.39-1.897-.77-2.841-1.13-.06-.95-.13-1.88-.22-2.8.953.37 1.887.73 2.8 1.09.101.96.191 1.9.261 2.83v.01Zm.391 6.68c-.994-.41-1.978-.81-2.961-1.2-.02-1.13-.051-2.25-.101-3.36.994.38 1.958.76 2.901 1.14.071 1.16.121 2.3.161 3.42Zm-.039 9.9c-1.044-.56-2.098-1.1-3.142-1.63.131-2.13.211-4.23.231-6.29 1.034.4 2.038.8 3.021 1.2.021 2.35-.02 4.6-.11 6.71v.01Zm-14.285-45.65c-.913-.3-1.817-.59-2.71-.87-.271-.94-.542-1.83-.803-2.69.903.27 1.797.54 2.67.82.301.92.572 1.84.843 2.75v-.01Zm1.695 6.24c-.211-.07-.411-.14-.622-.21-.733-.25-1.456-.49-2.178-.73-.211-.88-.422-1.73-.633-2.56l1.054.33c.572.18 1.135.36 1.697.54.231.88.461 1.76.672 2.62l.01.01Zm1.516 6.93c-.964-.34-1.917-.68-2.861-1-.2-1.14-.421-2.25-.652-3.32.953.31 1.897.62 2.821.93.25 1.14.481 2.27.692 3.39Zm1.076 6.32c-.984-.36-1.958-.7-2.932-1.04-.13-.95-.261-1.89-.411-2.82.984.33 1.947.66 2.901 1 .161.96.301 1.92.442 2.86Zm.732 6.16c-1.004-.36-2.008-.72-3.001-1.07-.081-.93-.171-1.84-.271-2.74 1.003.35 1.997.69 2.971 1.04.11.94.211 1.86.291 2.77h.01Zm.481 6.64c-1.034-.38-2.057-.76-3.081-1.12-.03-1.09-.081-2.18-.151-3.25 1.034.35 2.038.71 3.042 1.06.08 1.13.15 2.23.19 3.31Zm.112 9.06a131.3 131.3 0 0 0-3.233-1.45c.081-1.85.111-3.67.091-5.46 1.064.37 2.118.75 3.142 1.12.04 2.02.04 3.96 0 5.79Zm-16.764-50.42c-.713-.19-1.406-.37-2.108-.55-.111-.36-.211-.7-.322-1.04.733.24 1.456.5 2.159.76.09.28.18.56.261.84l.01-.01Zm1.777 6.2c-.743-.21-1.476-.42-2.208-.62-.211-.87-.432-1.7-.653-2.5.723.18 1.446.38 2.158.57.241.86.472 1.71.693 2.55h.01Zm1.444 6.04c-.773-.23-1.546-.45-2.309-.67-.16-.82-.331-1.62-.502-2.4.763.21 1.516.42 2.259.63.201.82.381 1.63.552 2.45v-.01Zm1.275 6.71c-.814-.25-1.627-.49-2.42-.73-.16-1.07-.321-2.11-.502-3.13.793.23 1.586.45 2.359.69.201 1.07.392 2.13.563 3.18v-.01Zm.884 6.22c-.843-.27-1.687-.53-2.53-.78-.09-.92-.191-1.82-.301-2.71.833.25 1.666.5 2.479.75.131.93.251 1.84.352 2.75v-.01Zm-2.059 5.26c-.05-.9-.1-1.77-.17-2.64.873.26 1.736.52 2.579.78.091.9.161 1.8.221 2.67-.883-.28-1.766-.56-2.64-.82l.01.01Zm2.963 7.33c-.934-.3-1.857-.6-2.781-.89 0-1.04-.02-2.07-.04-3.08.914.27 1.807.55 2.7.83.051 1.07.091 2.12.121 3.14Zm.049 3.3c0 1.7-.03 3.34-.09 4.91l-2.971-1.12c.1-1.58.17-3.14.21-4.69.964.3 1.918.59 2.861.89l-.01.01Zm-45.01-9.77c1.095.13 2.189.26 3.263.4-.231 1.25-.442 2.5-.623 3.74l-3.393-.39c.231-1.21.482-2.46.753-3.75Zm4.496-5.6c-.21.9-.401 1.8-.592 2.7-1.074-.14-2.128-.27-3.182-.39.211-.88.422-1.78.653-2.7 1.044.12 2.088.24 3.121.38v.01Zm1.396-5.71c-.211.81-.421 1.62-.622 2.43-1.024-.13-2.048-.26-3.052-.37.211-.8.432-1.62.673-2.44 1.004.12 2.007.25 3.001.38Zm1.605-5.71c-.241.81-.472 1.62-.713 2.45-.993-.14-1.967-.26-2.941-.38.241-.81.492-1.63.753-2.46.974.13 1.937.26 2.901.4v-.01Zm1.819-5.82c-.281.84-.552 1.7-.823 2.57-.954-.14-1.898-.27-2.841-.39.281-.84.572-1.7.873-2.56.934.12 1.867.25 2.781.38h.01Zm1.766-5.19c-.221.64-.452 1.29-.683 1.96-.913-.13-1.817-.26-2.71-.38.231-.65.482-1.3.733-1.95.893.12 1.776.24 2.66.37Zm1.916-5.22c-.251.64-.492 1.31-.753 2-.863-.13-1.717-.26-2.57-.37.261-.66.532-1.33.803-2l2.52.36v.01Zm1.626-4.16c-.12.3-.251.62-.381.95-.813-.12-1.616-.24-2.419-.35.12-.28.231-.55.361-.83.803.06 1.616.14 2.439.23Zm-2.95 59.88c-.03.33-.04.5-.04.5s-.883-.41.04-.5Zm2.168-20.44c1.446.26 2.871.53 4.296.81-.17 1.31-.341 2.58-.512 3.81-1.425-.3-2.84-.58-4.246-.84.141-1.22.301-2.48.462-3.78Zm.802-6.08c1.446.25 2.871.52 4.287.8-.121.93-.241 1.86-.362 2.78-1.445-.29-2.881-.56-4.296-.82.12-.91.241-1.83.371-2.76Zm.814-5.75c1.406.25 2.801.52 4.186.79l-.301 2.44c-1.425-.28-2.851-.55-4.246-.79.121-.81.231-1.62.351-2.44h.01Zm.904-5.77c1.345.25 2.69.5 4.005.78-.101.82-.201 1.65-.301 2.48-1.376-.28-2.751-.54-4.096-.78l.392-2.47v-.01Zm1.014-5.96c1.254.23 2.489.47 3.724.71-.111.89-.221 1.79-.332 2.7-1.305-.27-2.589-.52-3.864-.75.15-.89.311-1.77.472-2.66Zm.983-5.31c1.135.2 2.269.41 3.383.64-.08.67-.16 1.36-.241 2.07-1.184-.24-2.359-.47-3.523-.68.12-.67.251-1.35.391-2.02l-.01-.01Zm1.094-5.36c.983.17 1.967.35 2.941.54-.081.68-.161 1.39-.251 2.13-1.044-.21-2.088-.41-3.122-.6.14-.7.291-1.39.442-2.08l-.01.01Zm3.473-4.04c-.051.39-.091.81-.151 1.26-.873-.17-1.736-.33-2.6-.49.091-.4.181-.8.281-1.19.833.13 1.657.27 2.47.41v.01Z" clip-rule="evenodd"/>
  <path fill="#878B8B" fill-rule="evenodd" d="M122.705 108.02c-1.134-.14-2.268-.27-3.393-.39l3.393.39Zm9.034 18.33c-.03.33-.04.5-.04.5s-.883-.41.04-.5Zm33.246-7.78c-.994-.38-1.988-.76-2.971-1.12l2.971 1.12Z" clip-rule="evenodd"/>
  <path fill="#CCCBCB" fill-rule="evenodd" d="M203.742 145.829c-56.193-27.32-104.607-37.02-150.722-23.99a71.269 71.269 0 0 1 2.218-9.77c9.757-2.71 76.541-18.76 148.755 25.81.03 2.58-.05 5.23-.251 7.95Z" clip-rule="evenodd"/>
  <path fill="#fff" fill-rule="evenodd" d="M66.591 109.59c-.341 3.04-.542 6.12-.662 9.21-3.243.62-6.475 1.34-9.697 2.18-.502.13-1.014.26-1.506.4-.572.15-1.134.31-1.706.47a71.269 71.269 0 0 1 2.218-9.77c1.847-.52 5.752-1.51 11.363-2.48l-.01-.01Z" clip-rule="evenodd"/>
  <path fill="#F2F2F2" fill-rule="evenodd" d="M66.591 109.59c-.341 3.04-.542 6.12-.662 9.21-3.253.61-6.475 1.34-9.697 2.18-.502.13-1.004.26-1.506.4-.572.15-1.134.31-1.706.47a71.269 71.269 0 0 1 2.218-9.77c1.847-.52 5.752-1.51 11.363-2.48l-.01-.01Z" clip-rule="evenodd"/>
  <path fill="#727576" fill-rule="evenodd" d="M203.742 145.83c-2.058-1-4.096-1.97-6.134-2.92-.732-.35-1.455-.68-2.178-1.01-2.098-.97-4.186-1.91-6.274-2.83-.823-.36-1.656-.73-2.479-1.08-.934-.41-1.867-.8-2.791-1.2-.03-.02-.07-.03-.1-.04-.893-.38-1.787-.75-2.67-1.12h-.02c.241-3.29.321-6.6.271-9.91a215.956 215.956 0 0 1 22.626 12.17c.03 2.58-.05 5.23-.251 7.95v-.01Z" clip-rule="evenodd"/>
  <path fill="#727576" fill-rule="evenodd" d="M203.742 145.83c-2.058-1-4.096-1.97-6.134-2.92-.732-.35-1.455-.68-2.178-1.01-2.098-.97-4.186-1.91-6.274-2.83-.823-.36-1.656-.73-2.479-1.08-.934-.41-1.867-.8-2.791-1.2-.03-.02-.07-.03-.1-.04-.893-.38-1.787-.75-2.67-1.12h-.02c.241-3.29.321-6.6.271-9.91a215.956 215.956 0 0 1 22.626 12.17c.03 2.58-.05 5.23-.251 7.95v-.01Z" clip-rule="evenodd"/>
</svg>
