<svg xmlns="http://www.w3.org/2000/svg" width="250" height="414" fill="none" viewBox="0 0 250 414">
  <path fill="#DB9A4B" d="M70.322 81.05s3.82-50.72 68.104-40.73c80.641 12.54 75.574 63.05 66.807 77.61-24.591-11-134.91-36.88-134.91-36.88Z"/>
  <path fill="#C17D33" d="M195.854 65.01c1.588 3.81 2.955 7.71 3.86 11.71 2.795 12.45 2.524 26.23-2.453 38.13 3.197 1.12 5.902 2.16 7.983 3.09 5.63-9.35 9.722-33.51-9.39-52.93Z"/>
  <path fill="#F2C594" d="M81.311 68.9c2.453-10.54 10.385-19.99 19.062-26.32-27.92 10.14-30.05 38.47-30.05 38.47s3.86.91 10.304 2.45c-.362-4.89-.442-9.77.684-14.61v.01Z"/>
  <path fill="#D6410D" d="M70.342 78.12s-7.992 8.46-7.68 11.71c.31 3.25 141.606 40.41 141.606 40.41s5.489-12.69.744-17.04-62.243-46.87-134.68-35.08h.01Z"/>
  <path fill="#A82F0F" d="M205.023 113.2c-.724-.66-2.685-2.22-5.731-4.34-.794 3-1.77 5.98-1.88 9.04-.131 3.47.161 7.18.694 10.7 3.931 1.04 6.183 1.63 6.183 1.63s5.489-12.69.744-17.04l-.01.01Z"/>
  <path fill="#EF5830" d="M71.77 92.58c1.257-1.65 2.584-3.23 3.73-4.97 1.136-1.72 2.04-3.58 3.036-5.38.905-1.64 1.94-3.36 1.91-5.28v-.14c-3.338.32-6.706.75-10.104 1.3 0 0-7.992 8.46-7.68 11.71.05.48 3.216 1.72 8.575 3.47.181-.24.352-.48.533-.71Z"/>
  <path fill="#A82F0F" d="M63.044 88.02c-.282.69-.432 1.31-.382 1.81.312 3.25 141.607 40.41 141.607 40.41s1.266-2.93 2.061-6.46c-.825-.9-1.649-1.79-2.494-2.67 0 0-75.171-48.65-140.792-33.09Z"/>
  <path fill="#DB9A4B" d="M51.05 129.76s-26.15-13.48-15.483-27.13c13.754-8.76 23.888-8.93 27.105-12.81 3.217-3.88 76.801-7.99 140.923 38.26 6.595 5.23 10.235 14.61 13.241 18.69 2.654 3.61-.895 18.53-18.087 17.27.553-.74 1.086-2.19 1.569-3.95 1.447-5.28 2.463-13.33 2.463-13.33s-56.985-42.23-145.327-41.15c-2.674 8.18-4.624 14.76-5.63 19.16-.513 2.27-.784 3.95-.764 4.98l-.01.01Z"/>
  <path fill="#C17D33" d="M204.501 143.44c2.362 5.83 4.423 11.84 7.138 17.52 5.972-4.31 6.967-11.76 5.198-14.17-3.006-4.08-6.656-13.47-13.241-18.69a194.835 194.835 0 0 0-6.344-4.39c1.186 6.84 4.735 13.52 7.249 19.73Z"/>
  <path fill="#F2C594" d="M61.677 98.38c4.695-3.08 9.5-6.15 13.954-9.55.493-.38.986-.77 1.468-1.16-8.395.2-13.633 1.19-14.437 2.16-3.217 3.88-13.341 4.04-27.105 12.81-3.8 4.86-2.926 9.7-.231 13.92 8.153-6.93 17.413-12.31 26.34-18.18h.01ZM41.54 123.34c4.664 3.93 9.51 6.43 9.51 6.43-.02-1.03.251-2.71.764-4.98.654-2.85 1.71-6.63 3.096-11.16-4.634 3-9.168 6.12-13.37 9.71Z"/>
  <path fill="#F4B571" d="M51.05 129.76s-11.07-4.82-14.92-12.16c-2.755-5.25-3.258-11.31 2.473-12.9 21.444-5.92 31.599-4.73 43.19-3.84 21.114 1.61 42.367.68 112.411 34.71 10.607 5.84 14.729 9.77 17.735 13.86 2.654 3.61 3.951 10.7-13.2 14.63.553-.74 1.085-2.19 1.568-3.95 1.448-5.28 2.463-13.33 2.463-13.33s-56.984-42.23-145.326-41.15c-2.675 8.18-4.625 14.76-5.63 19.16-.513 2.27-.785 3.95-.764 4.98v-.01Z"/>
  <path fill="#895319" d="M51.814 124.78c1.005-4.4 2.956-10.97 5.63-19.16 0 0-15.16-.72-19.283 3.88-4.122 4.6 13.653 15.27 13.653 15.27v.01Zm150.956 22s-1.016 8.05-2.463 13.33c0 0 6.645.53 8.927-5.25.754-2.95-4.413-7.13-6.464-8.08Z"/>
  <path fill="#754015" d="M74.697 75.53h-.06a.507.507 0 0 1-.443-.56c.02-.2.634-5 2.574-8.06.151-.23.463-.3.694-.16a.51.51 0 0 1 .16.69c-1.83 2.87-2.422 7.6-2.432 7.64a.508.508 0 0 1-.503.44l.01.01Zm2.502-.85h-.06a.507.507 0 0 1-.443-.56c.02-.2.634-5 2.574-8.06.15-.23.463-.3.694-.16a.51.51 0 0 1 .16.69c-1.819 2.87-2.422 7.6-2.432 7.64a.508.508 0 0 1-.503.44l.01.01Zm22.098-.61h-.06a.507.507 0 0 1-.443-.56c.02-.2.633-5 2.574-8.06.151-.23.462-.3.693-.16a.51.51 0 0 1 .161.69c-1.829 2.87-2.423 7.6-2.433 7.64a.508.508 0 0 1-.502.44l.01.01Zm3.55-2.46h-.06a.507.507 0 0 1-.442-.56c.02-.2.633-5 2.574-8.06.15-.23.462-.3.693-.16.231.15.302.46.161.69-1.83 2.87-2.423 7.6-2.433 7.64a.508.508 0 0 1-.503.44l.01.01Zm2.502 2.54h-.06a.507.507 0 0 1-.442-.56c.02-.2.633-5 2.574-8.06.15-.23.462-.3.693-.16.231.15.302.46.161.69-1.83 2.87-2.423 7.6-2.433 7.64a.508.508 0 0 1-.503.44l.01.01ZM81.03 70.23a.473.473 0 0 1-.351-.15c-.403-.4-.433-1.53 1.689-4.64.16-.23.472-.29.693-.13.231.15.292.47.131.69-1.72 2.53-1.74 3.35-1.72 3.48a.503.503 0 0 1-.432.75h-.01Zm9.662-18.16s-.09 0-.13-.02a.504.504 0 0 1-.352-.61c.04-.15 1.076-3.67 7.44-5.88.261-.09.543.05.643.31.09.26-.05.55-.312.64-5.82 2.03-6.796 5.17-6.806 5.21a.494.494 0 0 1-.483.36v-.01Z"/>
  <path fill="#754015" d="M92.703 52.99h-.08a.504.504 0 0 1-.412-.57c.02-.13.553-3.09 3.75-4.09a.51.51 0 0 1 .633.33c.09.27-.06.54-.332.63-2.594.82-3.046 3.2-3.056 3.3a.505.505 0 0 1-.493.42l-.01-.02Zm44.899 25.99a.497.497 0 0 1-.413-.79c.031-.04 2.574-3.65 3.167-7.17a.509.509 0 0 1 .583-.41c.272.05.463.3.413.58-.634 3.75-3.228 7.42-3.338 7.58a.499.499 0 0 1-.412.21Zm4.333-1.66a.493.493 0 0 1-.452-.7c.02-.04 1.97-4.41 1.97-7.65 0-.28.221-.5.503-.5.281 0 .503.22.503.5 0 3.46-1.971 7.87-2.061 8.06a.504.504 0 0 1-.463.3v-.01Zm2.01 2.93a.5.5 0 0 1-.422-.77c.02-.04 2.413-3.79 2.715-6.63.03-.28.271-.47.553-.45.271.03.472.27.452.55-.322 3.09-2.755 6.91-2.865 7.07a.499.499 0 0 1-.423.23h-.01Zm32.917 13.49a.51.51 0 0 1-.242-.06.506.506 0 0 1-.201-.68c.02-.04 2.494-4.54 2.644-8.33.01-.28.232-.5.523-.48.282.01.493.24.483.52-.161 4.03-2.664 8.58-2.765 8.77a.491.491 0 0 1-.442.26Zm2.623-.46c-.1 0-.191-.03-.281-.09a.497.497 0 0 1-.141-.69c.02-.03 1.729-2.61 1.82-6.97a.5.5 0 0 1 .503-.49h.01a.49.49 0 0 1 .492.51c-.1 4.68-1.91 7.4-1.99 7.51a.51.51 0 0 1-.413.22Zm10.597 5.97a.498.498 0 0 1-.422-.77c.02-.03 1.669-2.64 1.669-7.01 0-.28.221-.5.502-.5.282 0 .503.22.503.5 0 4.68-1.759 7.44-1.83 7.55-.1.15-.261.23-.422.23Zm-14.094-9.24a.5.5 0 0 1-.422-.77c.02-.03 1.91-3.04 1.599-6.6a.503.503 0 0 1 .462-.54c.271-.03.523.18.543.46.332 3.91-1.669 7.09-1.759 7.23a.511.511 0 0 1-.423.23v-.01Zm-19.585-8.27a.57.57 0 0 1-.281-.08.497.497 0 0 1-.141-.69c.02-.03.925-1.52 1.478-6.24.03-.27.282-.47.553-.44.271.03.473.28.442.55-.593 5.05-1.598 6.6-1.638 6.67a.49.49 0 0 1-.423.22l.01.01Zm1.558 2.19a.516.516 0 0 1-.312-.11.494.494 0 0 1-.08-.7c.03-.04 3.046-3.87 2.744-9.44a.504.504 0 0 1 .473-.53c.322-.03.513.2.533.47.332 5.96-2.825 9.95-2.956 10.12a.512.512 0 0 1-.392.19h-.01Z"/>
  <path fill="#754015" d="M190.957 100.499a.516.516 0 0 1-.312-.11.493.493 0 0 1-.08-.7c.03-.04 3.046-3.87 2.744-9.44a.504.504 0 0 1 .473-.53c.292-.03.513.2.533.47.332 5.96-2.825 9.95-2.956 10.12a.51.51 0 0 1-.392.19h-.01ZM120.32 74.07a.501.501 0 0 1-.503-.49c-.02-.6-.12-5.92 1.428-7.59a.51.51 0 0 1 .714-.03c.201.19.221.5.03.71-1.076 1.17-1.206 5.36-1.156 6.88 0 .28-.211.51-.493.51h-.01l-.01.01Zm2.734 1.22h-.02a.497.497 0 0 1-.483-.52c0-.22.241-5.52 2.252-9.9a.513.513 0 0 1 .664-.25c.251.11.362.41.251.66-1.93 4.19-2.151 9.47-2.162 9.52a.499.499 0 0 1-.502.48v.01Zm3.398-3.68a.496.496 0 0 1-.503-.5c0-.08.01-2.01 1.649-5.6a.501.501 0 0 1 .915.41c-1.538 3.35-1.558 5.16-1.558 5.18 0 .28-.222.5-.503.5v.01Zm76.098 32.48a.526.526 0 0 1-.433-.24.5.5 0 0 1 .161-.68c.06-.05 2.182-1.7 1.981-10.4 0-.28.211-.5.492-.51a.49.49 0 0 1 .513.49c.221 9.38-2.172 11.1-2.443 11.27a.488.488 0 0 1-.261.07h-.01Z"/>
  <path fill="#754015" d="M203.525 108.43a.494.494 0 0 1-.392-.8c.05-.06 4.685-6.22 2.976-15.69a.5.5 0 0 1 .985-.18c1.78 9.92-2.965 16.21-3.167 16.48-.1.13-.251.2-.402.2v-.01Zm-1.859-7.76a.494.494 0 0 1-.372-.83c1.136-1.29.904-5.28.713-6.71a.504.504 0 0 1 .433-.56c.271-.04.523.16.563.43.07.57.683 5.65-.955 7.5a.523.523 0 0 1-.382.17Zm-69.241-57.75s-.091 0-.141-.02c-8.093-2.3-18.469-.02-18.569 0a.502.502 0 1 1-.221-.98c.432-.1 10.717-2.36 19.062 0 .271.08.422.35.341.62a.494.494 0 0 1-.482.36l.01.02Zm-3.569 1.77s-.081 0-.121-.01c-5.56-1.33-11.2-.01-11.25 0a.492.492 0 0 1-.603-.37c-.061-.27.1-.54.372-.6.241-.06 5.931-1.39 11.722 0a.496.496 0 0 1-.12.98ZM79.702 61.63c-.05 0-.1 0-.15-.02a.496.496 0 0 1-.323-.63c.07-.23 1.88-5.64 6.646-7.79.251-.11.553 0 .664.25.11.25 0 .55-.252.66-4.353 1.96-6.082 7.13-6.102 7.18a.507.507 0 0 1-.483.35Zm120.696 11.76a.509.509 0 0 1-.453-.28c-3.257-6.66-12.346-11.19-12.436-11.23a.5.5 0 0 1-.232-.67.505.505 0 0 1 .674-.23c.382.19 9.481 4.72 12.889 11.69a.499.499 0 0 1-.453.72h.011Z"/>
  <path fill="#754015" d="M197.252 72.13a.51.51 0 0 1-.432-.24c-1.971-3.29-7.923-6.4-7.983-6.44a.497.497 0 1 1 .463-.88c.251.13 6.263 3.28 8.384 6.81.141.24.061.54-.171.69-.08.05-.17.07-.261.07v-.01ZM77.2 98.31a.496.496 0 0 1-.303-.89c2.011-1.56 8.033-8.07 8.094-8.13a.51.51 0 0 1 .714-.03c.2.19.22.5.03.71-.252.27-6.143 6.63-8.214 8.24a.514.514 0 0 1-.312.11l-.01-.01Zm5.58-1.78a.567.567 0 0 1-.321-.11.492.492 0 0 1-.07-.7l5.237-6.41a.5.5 0 0 1 .704-.07c.211.17.251.49.07.7l-5.238 6.41a.5.5 0 0 1-.392.18h.01Zm29.638 5.32a.497.497 0 0 1-.211-.95c1.065-.49 3.941-5.35 5.499-8.31a.502.502 0 0 1 .674-.21c.251.13.341.43.211.68-.704 1.32-4.283 7.97-5.972 8.75a.546.546 0 0 1-.211.05l.01-.01Zm4.746-1.73a.503.503 0 0 1-.332-.88c.955-.85 2.503-4.41 3.016-5.71a.5.5 0 0 1 .653-.28c.262.1.382.39.282.65-.201.5-1.981 4.93-3.278 6.09-.1.09-.221.13-.331.13h-.01Zm-8.115 0a.514.514 0 0 1-.443-.26.5.5 0 0 1 .212-.68c1.397-.74 2.734-3.64 3.136-4.7a.5.5 0 0 1 .644-.29c.261.1.392.39.291.64-.06.17-1.588 4.16-3.599 5.23a.537.537 0 0 1-.241.06Zm37.682 11.82a.494.494 0 0 1-.472-.67l3.146-8.28a.496.496 0 0 1 .644-.29c.261.1.392.39.291.64l-3.146 8.28a.51.51 0 0 1-.473.32h.01Zm3.157-2.57a.502.502 0 0 1-.462-.7l2.262-5.27a.507.507 0 0 1 .664-.26c.251.11.372.4.261.66l-2.262 5.27a.504.504 0 0 1-.463.3Zm2.252 3.69h-.05a.49.49 0 0 1-.452-.54c.191-2.07 1.83-8.76 1.9-9.04a.51.51 0 0 1 .603-.37c.272.07.432.34.372.6-.02.07-1.689 6.89-1.87 8.89a.494.494 0 0 1-.503.45v.01Zm25.557 11.14a.504.504 0 0 1-.483-.37c-.824-2.96-.05-9.56-.01-9.84.03-.27.302-.47.553-.44.272.03.473.28.442.56 0 .07-.784 6.68-.01 9.45a.506.506 0 0 1-.482.64h-.01Zm-2.585-4.14a.503.503 0 0 1-.482-.37c-.382-1.47-.051-6.58-.02-7.16.02-.28.291-.48.532-.47a.51.51 0 0 1 .473.53c-.101 1.52-.302 5.73-.02 6.84.07.27-.091.54-.362.61-.04.01-.08.02-.131.02h.01Zm4.455 1.56a.506.506 0 0 1-.493-.39c-.432-1.95-.1-5.09-.08-5.22.03-.27.282-.48.553-.44.271.03.473.28.442.55 0 .03-.321 3.11.071 4.9.06.27-.111.54-.382.6-.041 0-.071.01-.111.01v-.01Zm14.266 12.33a.519.519 0 0 1-.331-.12c-1.9-1.65-2.142-10.27-2.172-11.25 0-.28.211-.5.493-.51.241.02.502.21.512.49.081 3.52.644 9.49 1.83 10.52.211.18.231.5.05.71a.52.52 0 0 1-.382.17v-.01Zm.885-4.33a.48.48 0 0 1-.453-.29c-1.156-2.42-.955-6.17-.945-6.33a.51.51 0 0 1 .533-.47c.282.02.493.25.473.53 0 .04-.201 3.66.844 5.85a.503.503 0 0 1-.452.72v-.01Zm-3.761 1.77a.517.517 0 0 1-.483-.35c-.422-1.35-.874-4.35-.894-4.48a.504.504 0 0 1 .422-.57c.271-.04.533.15.573.42 0 .03.462 3.05.854 4.33.081.26-.07.54-.331.63-.051.02-.101.02-.151.02h.01Zm22.552 13.89a.517.517 0 0 1-.483-.35c-1.045-3.42-9.119-13.17-9.199-13.26a.484.484 0 0 1 .07-.7.49.49 0 0 1 .704.07c.342.41 8.284 10 9.39 13.61.081.26-.07.54-.332.62-.05.02-.1.02-.15.02v-.01Z"/>
  <path fill="#754015" d="M209.315 142.83a.497.497 0 0 1-.493-.42c-.563-3.26-4.343-7.36-4.373-7.41a.503.503 0 1 1 .744-.68c.161.18 4.021 4.36 4.635 7.92.05.27-.141.53-.412.58h-.081l-.02.01Zm-164.288-42.2a.513.513 0 0 1-.493-.39c-.06-.27.1-.54.372-.6 5.972-1.39 18.328-8.83 18.449-8.9a.503.503 0 1 1 .523.86c-.513.31-12.618 7.59-18.74 9.02-.04 0-.081.01-.111.01Zm10.023-2.32a.502.502 0 0 1-.442-.27.494.494 0 0 1 .212-.67c3.72-1.94 9.742-5.94 9.802-5.99a.503.503 0 0 1 .694.14c.15.23.09.54-.141.69-.06.04-6.133 4.08-9.893 6.04-.07.04-.15.06-.231.06Zm6.857-2.17a.499.499 0 0 1-.16-.97c2.975-1.04 6.705-4.95 6.746-4.99a.502.502 0 1 1 .734.69c-.162.17-3.942 4.12-7.139 5.24-.05.02-.11.03-.17.03h-.01Zm129.352-2.42c-1.839 0-2.252-.08-2.312-.09a.507.507 0 0 1-.372-.6c.06-.26.322-.43.593-.37.071.01 1.257.19 8.184-.09.271-.03.513.2.523.48.01.28-.201.51-.483.52-2.935.12-4.866.16-6.133.16v-.01Zm3.368 2.69c-3.116 0-5.59-.78-5.72-.82a.495.495 0 0 1-.322-.63c.09-.26.372-.41.633-.32.041.01 3.921 1.23 7.943.57.271-.05.533.14.573.41.04.27-.141.53-.412.57-.925.15-1.84.21-2.705.21l.01.01Zm-15.272-30.19a.544.544 0 0 1-.352-.14c-13.079-12.5-39.541-14-39.812-14.01a.491.491 0 0 1-.473-.53c.02-.28.262-.49.533-.47.271.01 27.105 1.54 40.456 14.29.201.19.211.51.01.71a.51.51 0 0 1-.362.15Z"/>
  <path fill="#754015" d="M174.238 65.58a.497.497 0 0 1-.302-.1c-11.511-8.41-34.514-10.3-34.746-10.32a.498.498 0 0 1-.462-.54c.02-.28.271-.48.543-.46.231.02 23.526 1.93 35.268 10.51.222.16.272.48.111.7a.51.51 0 0 1-.402.2l-.01.01Zm5.116-6.44a.507.507 0 0 1-.372-.16c-5.62-6.07-22.51-9.66-22.681-9.7a.508.508 0 0 1-.392-.59c.06-.27.332-.44.593-.39.704.15 17.373 3.69 23.214 10 .191.2.171.52-.03.71-.1.09-.221.13-.342.13h.01Z"/>
  <path fill="#754015" d="M167.884 66.3a.499.499 0 0 1-.342-.14.502.502 0 0 1-.02-.71c3.609-3.77.101-9.03-.05-9.25a.503.503 0 0 1 .13-.69.5.5 0 0 1 .694.13c.04.06 4.122 6.14-.05 10.51a.523.523 0 0 1-.362.16v-.01Zm3.64 1.37a.502.502 0 0 1-.352-.86c3.348-3.2 1.377-8.52 1.357-8.57a.487.487 0 0 1 .291-.64c.262-.1.553.03.654.29.09.24 2.222 5.99-1.599 9.64a.52.52 0 0 1-.351.14Zm-62.473-12.5s-.101 0-.141-.02a.491.491 0 0 1-.332-.62c.724-2.39 1.689-4.06 1.729-4.13a.5.5 0 0 1 .865.5c0 .02-.955 1.64-1.639 3.91a.494.494 0 0 1-.482.36Zm-3.702 1.25h-.05a.495.495 0 0 1-.442-.55c.362-3.39 2.473-7.16 2.563-7.32a.499.499 0 0 1 .684-.19c.241.14.332.44.191.68-.02.04-2.101 3.75-2.443 6.93a.501.501 0 0 1-.503.45Z"/>
</svg>
