<svg xmlns="http://www.w3.org/2000/svg" width="250" height="414" fill="none" viewBox="0 0 250 414">
  <path fill="#9878BA" d="M209.995 137.939c-2.622 1.51-10.285.37-13.693-5-1.989-3.14-.51-5.77 1.072-7.41-.765.14-1.276.24-1.408.3-.735.32-5.694-3.08-5.694-3.08s-.061-.13-.142-.35c-6.5 0-12.703-4.61-15.03-7.58-.479-.61-.795-1.14-.918-1.56-.653.19-2.051-.13-3.816-1.02l-.081-.04c-.307-.15-.623-.33-.949-.52-3.306-1.92-7.5-5.58-10.53-11.16-4.673-8.62 8.713-12.4 11.907-9.32.153-.48.337-.97.561-1.47.633-1.41 1.847-2.52 3.347-3.09 5.601-2.13 9.928-1.44 12.937.17 1.113.59 2.051 1.31 2.786 2.06.102.1.194.21.296.31.785.86.592 2.21-.112 3.71 2.387-1.55 5.04-2.27 7.07-.04 4.724 5.2 6.132 8.45 4.888 11.32-.419.96-1.49 2.01-2.97 2.9.449.35.786.84.898 1.43.072.34.113.69.133 1.06 6.52 2.35 8.744 6.93 9.071 10.32.102 1.1-.817 2.02-2.235 2.78 2.714.14 5.163 1.07 5.428 3.9.602 6.61-.204 9.87-2.816 11.39v-.01Z"/>
  <path fill="#7E60A5" d="M212.811 126.55c-.255-2.83-2.704-3.76-5.428-3.9 1.408-.76 2.336-1.68 2.234-2.78-.245-2.61-1.622-5.91-5.203-8.37-1.694 5.65-7.418 10.5-13.203 11.87 1.479.97 4.224 2.68 4.755 2.45.132-.06.642-.16 1.408-.3-1.582 1.64-3.061 4.27-1.072 7.41 3.408 5.37 11.071 6.51 13.693 5 2.612-1.51 3.418-4.78 2.816-11.39v.01Zm-40.353-27.16c3.224 3.61 3.765 15.43 3.765 15.43h-1.133c-.479-.61-.795-1.14-.918-1.56-.653.19-2.051-.13-3.816-1.02l-.081-.04-.949-.52-8.051-16.86 26.284-8.02a11.38 11.38 0 0 1 2.785 2.06c-2.275 3.79-7.407 9.53-17.896 10.54l.01-.01Z"/>
  <path fill="#9878BA" d="M140.38 79.3a21.35 21.35 0 0 1-.031 4.48c-.592 5.36-3.01 9.78-6.01 11.67-.347.22-.704.4-1.061.55-.857.35-1.745.5-2.653.4-1.193-.13-2.275-.66-3.214-1.51-1.346-1.22-2.397-3.1-3.03-5.37-3.296-.5-7.479-1.88-11.611-4.75-1.888-1.32-2.735-2.85-2.867-4.39-.327-3.68 3.408-7.36 6.377-8.09.673-.17 1.316-.19 1.857-.01-.092-.45-.164-.94-.204-1.44a5.27 5.27 0 0 1 1.306-3.89c1.275-1.46 2.581-2.55 3.877-3.33 2.336-1.42 4.622-1.86 6.622-1.76 1.234.06 2.346.33 3.295.7 1 .39 1.439 1.57 1.531 3.1 1.204-2.24 2.999-3.91 5.581-2.89 6.01 2.37 8.55 4.48 8.826 7.35.255 2.67-3.245 8.03-8.602 9.2l.011-.02Z"/>
  <path fill="#7E60A5" d="M134.338 95.45c-.164.31-.531.49-1.061.55-1.235.16-3.347-.31-5.867-1.11-8.499-2.69-21.672-9.21-21.672-9.21l4.173-5.3 6.377-8.09 1.643-2.09 5.193-6.59c2.337-1.42 4.622-1.86 6.622-1.76-.653 4.73-2.775 16.54-7.826 19.57 0 0 10.326 6.57 12.428 13.02.143.43.132.77 0 1.02l-.01-.01Z"/>
  <path fill="#9878BA" d="M134.064 78.73c3-.69 8.193-1.47 11.744-4.49 1.03-.87 2.591-.77 3.428.27 2.898 3.6 3.326 12.66-1.775 15.45-6.224 3.4-15.264.83-16.938-.92-1.081-1.14-.306-4.61.378-6.92.377-1.29 1.826-3.09 3.163-3.39Z"/>
  <path fill="#5BBB68" d="M142.164 91.46s-15.387-.07-18.315 15.18c-.214 1.1.653 2.41 1.714 2.58 10.326 1.7 18.631-1.74 22.223-12.12 1.265-4.25-5.622-5.64-5.622-5.64Z"/>
  <path fill="#3E9E47" d="M131.879 103.56c.326-.18.479-.32.51-.63.051-.51-.174-1.06-.357-1.54-.388-1.01-.97-1.98-1.612-2.86-.572-.5-1.143-1-1.715-1.51-1.704 1.71-3.183 3.95-4.152 6.88 2.489.22 5.02.95 7.326-.34Z"/>
  <path fill="#3D9345" d="M142.165 91.46s-4.438-.02-8.999 2.32c.367.25.755.48 1.163.65.847.37 1.653.22 2.551.2.908-.02 1.602.22 2.265.82.255.23.48.51.765.71.296.21.653.32.97.48.479.23 1.122.64 1.397 1.12.306.53.164 1.33.082 1.9-.255 1.89-.184 3.72.173 5.6 0 .04.021.08.021.11 2.214-2 3.989-4.73 5.214-8.27 1.265-4.25-5.622-5.64-5.622-5.64h.02Z"/>
  <path fill="#1B7957" fill-rule="evenodd" d="M104.759 89.19s7.622 15.82 25.855 13.44c.99-.13 1.673-1.05 1.51-2.01-.816-4.82-5.928-17.22-22.396-16.04-3.826.49-6.826-.08-4.979 4.62l.01-.01Z" clip-rule="evenodd"/>
  <path fill="#116344" fill-rule="evenodd" d="M114.003 90.92c-.633-.52-.51-1.57.071-2.09.112-.13.265-.24.459-.31 1.204-.43 2.204-1.22 3.092-2.1.337-.33.694-.65 1.041-.99-2.521-.75-5.469-1.11-8.928-.86-3.826.49-6.826-.08-4.979 4.62 0 0 4.285 8.89 14.111 12.339-.541-4.01-1.888-8.16-4.877-10.61h.01Z" clip-rule="evenodd"/>
  <path fill="#1B7957" fill-rule="evenodd" d="M159.183 115.55s9.346-18.6-5.203-29.77c-.786-.61-2.092-.34-2.867.58-3.867 4.58-11.775 18.54.469 29.43 3.04 2.35 4.561 4.98 7.601-.24Z" clip-rule="evenodd"/>
  <path fill="#116042" fill-rule="evenodd" d="M154.041 101.6c.623.07 1.133.36 1.327.99 1.122 3.64 2.948 6.65 5.193 9.45 1.918-5.93 4.071-18.08-6.581-26.26-.785-.61-2.091-.34-2.867.58-1.949 2.31-4.918 6.99-5.826 12.47 2.622 1.64 5.673 2.41 8.754 2.77Z" clip-rule="evenodd"/>
  <path fill="#1B7957" fill-rule="evenodd" d="M192.936 121.529s8.121-16.17-4.52-25.88c-.684-.53-1.827-.3-2.5.5-3.367 3.99-10.234 16.12.408 25.58 2.643 2.05 3.959 4.33 6.612-.21v.01Z" clip-rule="evenodd"/>
  <path fill="#0F5E40" fill-rule="evenodd" d="M194.057 107.509c-.99.39-1.653.21-2.408-.52-.857-.83-2.153-3.28-3.337-1.79-1.204 1.52-1.918 3.32-2.193 5.21-.092.62-.857.88-1.398.77-1.367-.28-2.724-.52-4.102-.66.174 3.73 1.704 7.66 5.693 11.21 2.643 2.05 3.959 4.33 6.612-.21 0 0 3.551-7.06 2.296-14.66-.388.22-.755.48-1.174.64l.011.01Z" clip-rule="evenodd"/>
  <path fill="#1B7957" fill-rule="evenodd" d="M108.209 84.44c-6.928 2.4-6.316-.66-7.367-4.43-.051-.29-.102-.58-.143-.86 0-.04-.02-.09-.02-.13a19.22 19.22 0 0 1-.163-1.67v-.12c-.041-.95-.011-1.87.091-2.75.031-.21.051-.42.082-.62.071-.44.143-.88.255-1.3.541-2.27 1.571-4.26 2.898-6.02 5.071-6.72 14.631-9.89 19.386-10.8 1.071-.2 2.142.06 2.734.61.061.06.123.12.174.18.03.03.051.07.071.1.01.01.02.03.031.04.03.04.051.08.071.13 0 .01.01.02.02.04.021.05.051.11.062.17 5.071 17.96-18.172 27.43-18.172 27.43h-.01Z" clip-rule="evenodd"/>
  <path fill="#116344" fill-rule="evenodd" d="M108.209 84.44c-6.928 2.4-6.316-.66-7.367-4.43-.051-.29-.102-.58-.143-.86 0-.04-.02-.09-.02-.13a19.22 19.22 0 0 1-.163-1.67v-.12c-.041-.95 0-1.87.092-2.75.03-.21.051-.42.081-.62.225.11.255-.45.255-1.3.541-2.27 1.572-4.26 2.898-6.02 1.286 1.55-1.775 8.67 2.551 12.88.704.68 1.887.76 2.673.34 5-2.65 9.336-5.71 12.519-10.41 2.663-3.92 3.969-8.38 4.367-12.99.061.06.123.12.174.18.03.03.051.07.071.1.01.01.02.03.031.04.03.04.051.08.071.13 0 .01.01.02.021.04.02.05.051.11.061.17 5.071 17.96-18.172 27.43-18.172 27.43v-.01Z" clip-rule="evenodd"/>
  <path fill="#E16F7D" d="M102.147 87.6s14.682-.83 13.896 17.36c-.04.91-.959 1.55-1.918 1.34-12.641-2.77-15.856-13.2-11.978-18.69v-.01Z"/>
  <path fill="#CC5A6E" d="M102.147 87.6c-.184.27-.357.55-.51.83.887.07 1.765.21 2.612.46 1.357.4 2.612 1.06 3.744 1.88 2.306 1.67 4.02 3.92 4.847 6.63.755 2.48 1.051 5.44-1.225 7.27a4.53 4.53 0 0 1-.979.59c1.071.42 2.234.77 3.5 1.05.959.21 1.877-.43 1.918-1.34.775-18.19-13.897-17.36-13.897-17.36l-.01-.01Z"/>
  <path fill="#1B7957" d="M76.731 90.33s-12.233 13.169 8.05 22.939c1.47.71 4.092.58 5.184-.24 10.662-8.05 12.131-16.82-.44-24.83-5.305-3.1-12.804 2.14-12.804 2.14l.01-.01Z"/>
  <path fill="#116344" d="M80.353 99.41c.53-1 1.082-2.17 2.367-2.31 1.133-.12 2.184 1.02 3.276.54.744-.33 1.601.05 1.632.92.072 2.21-.775 4.81.255 6.89 1.092 2.2 3.806.65 5.663.31 1.143-.21 2.469-.46 3.785-.83 2.765-5.62.674-11.35-7.775-16.74-5.305-3.1-12.805 2.14-12.805 2.14s-7.734 8.33-.704 16.65c1.888-2.21 2.95-4.95 4.327-7.56l-.02-.01Z"/>
  <path fill="#1B7957" d="M186.802 116.03c-2.071-2.42-5.213-3.67-8.438-3.6-5.009.11-12.866 2.27-15.406 14.18-.276 1.3.551 3.14 1.642 3.63 10.601 4.84 19.386 2.83 23.631-8.96.632-2.04-.214-3.84-1.429-5.25Z"/>
  <path fill="#0F5E40" d="M172.426 117.77c.184-1.19-.398-2.46-1.02-3.68-1.388.71-2.755 1.7-4 3.06 1.735 1.05 4.694 2.7 5.01.61l.01.01Zm13.162-2.951c-.52 1.41-1.326 2.79-1.948 3.95-1.255 2.34-2.878 4.61-4.969 6.3-2.112 1.71-4.826 2.88-7.571 3.13-2.816.26-5.448-.4-8.162-.63.142 1.11.826 2.29 1.663 2.68 10.601 4.84 19.386 2.83 23.63-8.96.837-2.68-.898-4.95-2.643-6.46v-.01Z"/>
  <path fill="#E16F7D" d="M101.495 91.78s2.203 11.64-13.928 12.91c-.806.06-1.459-.61-1.367-1.39 1.184-10.38 10.06-14.04 15.295-11.52Z"/>
  <path fill="#CC5A6E" d="M101.496 91.78a6.207 6.207 0 0 0-1.011-.39c-.112 1.54-.459 3.05-1.112 4.47-1.398 2.99-4.234 5.04-7.162 6.48-1.714.84-3.714 1.62-5.734 1.89.255.31.642.5 1.091.46 16.121-1.27 13.928-12.91 13.928-12.91Z"/>
  <path fill="#1B7957" d="M68.15 96.13s-22.927-1-18.54 26.45c.164 1.04 1.46 1.5 2.256.79 6.938-6.15 14.202-14.45 16.284-27.24Z"/>
  <path fill="#116344" d="M59.273 102.53c.378-.11.837.2.806.6-.142 1.95-.612 3.94-.245 5.89.256 1.38.837 2.62 1.623 3.77 3.122-4.56 5.622-10 6.703-16.67 0 0-10.06-.44-15.58 7.25 2.265-.04 4.51-.19 6.703-.84h-.01Z"/>
  <path fill="#359445" d="M49 78.32c-1.46.32-2.337 1.74-1.93 3.1 1.521 5.06 6.786 15.92 23.733 13.28 6.367-.98 8.683-4.42 8.683-4.42S71.57 73.3 48.99 78.32H49Z"/>
  <path fill="#167023" d="M62.57 77.92c.01.71.051 1.42.164 2.12.142.97.653 2.13-.347 2.82-.837.58-1.643 1.02-2.061 1.99-.47 1.08-.551 2.31-.857 3.44-.072.28-.347.59-.653.64-2.123.32-4.184.83-6.132 1.59 3.611 3.24 9.274 5.56 18.13 4.18 6.367-.98 8.683-4.42 8.683-4.42s-4.632-9.94-16.927-12.36Z"/>
  <path fill="#359445" d="M87.495 53.3c.755-1.28 2.54-1.68 3.918-.88 5.142 2.96 15.611 11.21 8.132 26.4-2.785 5.71-7.193 6.86-7.193 6.86s-16.468-12.6-4.867-32.38h.01Z"/>
  <path fill="#167023" d="M98.087 71.18c-1.816-1.13-2.52-1.13-5.081-2.26-1.082-.48-.112-.93-.888-1.86a8.268 8.268 0 0 0-2.796-2.2c-1.765-.84-3.744-1.06-5.693-1.13-2.071 13.67 8.734 21.94 8.734 21.94s4.408-1.15 7.193-6.86c.939-1.9 1.592-3.7 2.01-5.39-1.061-.68-2.357-1.56-3.48-2.25v.01Z"/>
  <path fill="#EBDFF7" d="M76.66 82.99s-7.141 2.85-10.865-3.78a4.425 4.425 0 0 1-.378-3.43c1.796-6.07 5.99-7.91 9.02-8.05 3.295-.15 4.55 10.33 4.805 10.92.255.59-2.581 4.35-2.581 4.35v-.01Z"/>
  <path fill="#1B7957" d="M68.426 93.83s-12.672-6.92-22.783 5.14c-.5.6-.306 1.509.398 1.859 7.928 3.85 19.049-2.45 22.385-7Zm120.928 35.319s19.12-.84 15.457 22.06c-.143.87-1.214 1.25-1.877.66-5.785-5.13-11.846-12.05-13.58-22.71v-.01Z"/>
  <path fill="#0F5E40" d="M199.097 139.509c1.439.52 3.755 1.34 5.673 1.31-2.703-12.22-15.416-11.66-15.416-11.66.285 1.78.704 3.45 1.203 5.03 2.449 2.26 5.398 4.19 8.54 5.33v-.01Z"/>
  <path fill="#1B7957" d="M189.088 124.19s12.142-9.39 21.824 6.97c.48.81.296 2.05-.377 2.52-7.601 5.22-18.254-3.32-21.447-9.49Z"/>
  <path fill="#0F5E40" d="M201.25 128.73c-.51-.54-.357-1.26.215-1.67 1.296-.92 2.785-1.54 4.132-2.37-8.305-6.84-16.519-.5-16.519-.5 2.582 4.99 10.04 11.52 16.815 11.08-1.112-2.41-2.735-4.54-4.653-6.55l.01.01Z"/>
  <path fill="#5BBB68" d="M71.63 88.57s-13.162 7.31-9.213 21.63c.285 1.04 1.581 1.73 2.56 1.37 9.53-3.51 15.173-10.4 13.846-20.9-.714-4.2-7.183-2.09-7.183-2.09l-.01-.01Z"/>
  <path fill="#3D9345" d="M69.436 93.28c1.683.4 3.449.48 5.173.36 1.05-.07 2.255-.32 3.377-.64.327-.09.663-.2 1-.32a22.98 22.98 0 0 0-.173-2.01c-.715-4.2-7.183-2.09-7.183-2.09s-2.347 1.3-4.755 3.88c.857.28 1.694.62 2.561.83v-.01Z"/>
  <path fill="#EBDFF7" d="M77.496 75.67s-2.99-9.97 2.46-10.19c5.447-.22 8.131.53 9.365 2.63 1.225 2.11.225 8.07-4.224 10.54-4.448 2.47-7.59-2.98-7.59-2.98h-.01Z"/>
  <path fill="#CEBCDB" d="M87.455 75.67s-2.357-6.8-10.5-4.63c-8.131 2.16-7.784 11.17-5.876 12.28 1.908 1.11 9.59 1.45 9.59 1.45l6.775-9.1h.01Z"/>
  <path fill="#F7AF22" d="M81.187 84.466c3.66-1.181 5.753-4.746 4.673-7.962-1.08-3.215-4.923-4.865-8.585-3.684-3.66 1.181-5.753 4.746-4.673 7.962 1.08 3.215 4.924 4.865 8.585 3.684Z"/>
  <path fill="#F9C470" d="M76.926 75.44c2.193-1.07 4.907-1.24 7.315-1.12.092 0 .174.01.266.02-1.715-1.71-4.52-2.39-7.224-1.52-3.48 1.12-5.53 4.4-4.806 7.48.888-2.05 2.306-3.81 4.449-4.86Z"/>
  <path fill="#B39DC6" d="M95.178 83.84c-3.56 4.72-11.407 5.82-13.304 5.05-.541 1.4-6.908 4.34-15.111 2.76-8.214-1.58-2.99-12.71.54-11.28 0 0 3.296 3.08 9.51 1.31.775-.18 1.959.93 2.99 2.35-.031-.19-.062-.38-.093-.56-.163-1.12.306-2.99 1.225-3.68 2.05-1.55 5.754-3.91 7.407-7.43.48-1.02 1.714-1.47 2.735-.96 3.49 1.77 7.03 8.57 4.112 12.44h-.01Z"/>
  <path fill="#A086BC" d="M92.598 72.48c-.398 1.64-.959 3.24-1.02 4.95-.061 1.65-.02 3.52-1.826 4.2-1.061.4-2.215.49-3.296.9a17.296 17.296 0 0 0-4.071 2.19c-2.102 1.52-3.234 3.61-2.735 5.8 1.266-.57 2.051-1.18 2.225-1.64 1.898.77 9.744-.33 13.305-5.05 2.49-3.3.285-8.73-2.582-11.36v.01Z"/>
  <path fill="#F7AF22" d="M63.233 64.12c2.214 0 4.01-1.76 4.01-3.93s-1.796-3.93-4.01-3.93c-2.215 0-4.01 1.76-4.01 3.93s1.795 3.93 4.01 3.93Z"/>
  <path fill="#DD910A" d="M63.233 56.26c-.714 0-1.388.19-1.97.51 3.235.95 3.419 5.71.562 7.11.439.16.908.25 1.408.25 2.214 0 4.01-1.76 4.01-3.93s-1.796-3.93-4.01-3.93v-.01Z"/>
  <path fill="#E16F7D" d="M103.209 88.47s-.99-11.8 15.182-11.47c.806.02 1.388.75 1.225 1.52-2.245 10.21-11.448 12.97-16.407 9.95Zm48.649-25.17c1.938 0 3.509-1.54 3.509-3.44s-1.571-3.44-3.509-3.44c-1.939 0-3.51 1.54-3.51 3.44s1.571 3.44 3.51 3.44Z"/>
  <path fill="#E16F7D" d="M102.198 88.63s-12.04-1.01-9.01-16.58c.153-.78.98-1.22 1.735-.93 9.907 3.87 11.142 13.23 7.275 17.51Z"/>
  <path fill="#E16F7D" d="M99.138 88.17s-6.592 9.92-19.172-.06a1.235 1.235 0 0 1-.01-1.94c8.162-6.72 17.161-3.37 19.182 1.99v.01Zm-52.628 22.3c1.386 0 2.51-1.102 2.51-2.46 0-1.359-1.124-2.46-2.51-2.46-1.386 0-2.51 1.101-2.51 2.46 0 1.358 1.124 2.46 2.51 2.46Z"/>
  <path fill="#F7AF22" d="M203.627 90.3c1.386 0 2.51-1.102 2.51-2.46 0-1.359-1.124-2.46-2.51-2.46-1.386 0-2.51 1.101-2.51 2.46 0 1.358 1.124 2.46 2.51 2.46Z"/>
  <path fill="#1B7957" d="M140.164 92.98s1.97-14.47-16.569-14.42c-.919 0-1.878.76-1.939 1.54-.684 8.74 11.744 13.28 18.508 12.89v-.01Z"/>
  <path fill="#116042" d="M132.338 82.52c.224 2.91.714 5.9 1.928 8.58.225.49.469.95.745 1.41 1.857.39 3.642.55 5.153.46 0 0 1.275-9.41-7.959-13.03.02.86.061 1.72.133 2.58Z"/>
  <path fill="#CC5A6E" d="M102.571 92.9c3.58-1.156 5.865-3.933 5.102-6.205-.763-2.271-4.284-3.176-7.865-2.021-3.58 1.155-5.865 3.933-5.102 6.204.763 2.272 4.284 3.177 7.865 2.022Z"/>
  <path fill="#E16F7D" d="M188.047 124.74s-1.397-9.38-14.631-6.39c-.663.15-1 .82-.714 1.39 3.765 7.6 11.846 8.19 15.345 4.99v.01Z"/>
  <path fill="#E16F7D" d="M190.385 123.72s-12.336-.89-11.999 13.67c.02.73.785 1.25 1.591 1.1 10.683-2.02 13.571-10.31 10.408-14.77Z"/>
  <path fill="#5BBB68" d="M195.812 120.849s11.091-3.58 10.968-14.77c0-.81-.826-1.51-1.612-1.38-7.683 1.26-13.162 5.59-14.223 13.58-.286 3.23 4.877 2.57 4.877 2.57h-.01Z"/>
  <path fill="#3E9E47" d="M202.2 116.109c-1.908.08-3.786.43-5.704.48-.571.01-1.102-.5-1.082-1.06.062-1.84-.336-3.53-1.244-5.08-1.684 2.06-2.806 4.66-3.235 7.84-.285 3.23 4.877 2.57 4.877 2.57s4-1.3 7.173-4.76c-.265 0-.53 0-.796.01h.011Z"/>
  <path fill="#E16F7D" d="M190.781 125.219s-2.489 11.02 11.469 12.49c.694.07 1.306-.55 1.265-1.3-.51-9.88-8.05-13.49-12.734-11.18v-.01Zm-1.601-.259s10.152-4.58 2.133-16.55c-.398-.6-1.276-.71-1.837-.23-7.305 6.29-5.152 14.43-.306 16.78h.01Z"/>
  <path fill="#E16F7D" d="M191.334 123.819s7.285 6.63 15.743-3.29c.419-.5.255-1.22-.347-1.51-7.968-3.87-14.733.27-15.386 4.81l-.01-.01Z"/>
  <path fill="#5BBB68" d="M157.846 98.54s1.061 14.27 13.815 18.96c.918.34 1.938-.29 2-1.26.653-9.36-2.776-17.52-11.581-22.19-3.592-1.72-4.234 4.48-4.234 4.48v.01Z"/>
  <path fill="#3E9E47" d="M163.1 101.49c1.112-.21 2.235-.38 3.286.12 2.204 1.03 3.703 4.03 4.693 6.09 1.225 2.52 2.224 5.39 2.592 8.28.571-9.25-2.878-17.3-11.591-21.93-3.592-1.72-4.234 4.48-4.234 4.48s.102 1.34.602 3.34c1.561 0 3.071-.08 4.642-.38h.01Z"/>
  <path fill="#CC5A6E" d="M195.274 125.631c.181-1.969-2.198-3.789-5.312-4.064-3.115-.275-5.787 1.098-5.968 3.068-.181 1.969 2.197 3.788 5.312 4.063 3.115.276 5.787-1.098 5.968-3.067Z"/>
  <path fill="#1B7957" d="M164.682 96.18s18.702 7.33 26.528-15.16c.387-1.11-.225-2.54-1.245-2.88-11.509-3.81-22.937 9.7-25.283 18.04Z"/>
  <path fill="#0F5E40" d="M189.965 78.14c-.122-.04-.235-.07-.357-.11.163 4.56-2.479 8.84-6.989 11.26-.725.39-1.959.25-2.327-.6-1.642-3.74-5.203-3.91-8.774-3.82-3.388 3.61-5.877 7.89-6.836 11.31 0 0 18.702 7.329 26.528-15.16.387-1.11-.225-2.54-1.245-2.88Z"/>
  <path fill="#CEBCDB" fill-rule="evenodd" d="M145.133 72.29s.949-3.46-1.816-3.47c-2.765-.01-9.438 1.12-9.765 9.62-.326 8.5 5.551 11.55 5.551 11.55l6.03-17.69v-.01Zm26.599 10.61s7.306-.2 4.418 9.99c-2.244 7.46-17.58 5.87-17.58 5.87l13.173-15.86h-.011Z" clip-rule="evenodd"/>
  <path fill="#EBDFF7" fill-rule="evenodd" d="M146.153 85.75s-5.367-10.88-1.347-15.73 13.662-2.24 15.356.76c1.581 2.8 1.367 5.92 0 8.72-1.367 2.8-.918 7.87-14.009 6.25Z" clip-rule="evenodd"/>
  <path fill="#EBDFF7" d="M156.387 79.58s3.908-7.21 7.621-6.6c3.714.61 8.938 2.43 9.183 9.03.245 6.6-13.427 5.99-13.427 5.99l-3.377-8.42Z"/>
  <path fill="#F7AF22" d="M147.562 84.42a5.365 5.365 0 0 0 1.929 4.99c1.51 1.23 3.897 2.53 7.346 2.71 3.653.09 11.193-9.8 4.867-13.7-6.316-3.89-9.693-3.15-10.836-2.07-.938.88-2.714 4.17-3.295 8.07h-.011Z"/>
  <path fill="#F9C470" d="M150.307 85.29c.489-7.21 8.54-5.87 13.753-3.51-.224-1.3-.938-2.48-2.356-3.36-6.316-3.89-9.693-3.15-10.836-2.07-.939.88-2.714 4.17-3.296 8.07a5.363 5.363 0 0 0 1.929 4.99c.326.27.704.54 1.122.8-.306-1.7-.398-3.39-.296-4.92h-.02Z"/>
  <path fill="#B39DC6" fill-rule="evenodd" d="M148.369 98.04a2.475 2.475 0 0 1-.674-3.25c1.725-3.01 5.612-9.05 8.948-9.04 3.337.01 11.112 0 13.724 2.73s-6.377 11.77-11.785 11.86c-4.295.07-7.856-.56-10.203-2.3h-.01Z" clip-rule="evenodd"/>
  <path fill="#B39DC6" fill-rule="evenodd" d="M140.429 94.09c-1.714-1.45-2.775-3.46-2.979-5.63-.439-4.71-.337-12.92 5.754-12.76 8.54.21 11.815 10.48 11.815 10.48s-3.326 10.71-7.376 11.26c-2.327.31-5.194-1.63-7.214-3.34v-.01Z" clip-rule="evenodd"/>
  <path fill="#A086BC" fill-rule="evenodd" d="M151.541 80.03c.163 4.55.592 9.84-3.418 12.76-3.704 2.69-7.938.51-10.387-2.83a8.521 8.521 0 0 0 2.684 4.12c2.02 1.71 4.887 3.65 7.213 3.34 4.051-.54 7.377-11.26 7.377-11.26s-1.041-3.26-3.469-6.14v.01Z" clip-rule="evenodd"/>
  <path fill="#D88F0F" d="M203.627 85.38c-.388 0-.765.09-1.092.25 1.806.79 2.092 3.31.867 4.65.072 0 .153.01.225.01 1.388 0 2.51-1.1 2.51-2.46 0-1.36-1.122-2.46-2.51-2.46v.01Z"/>
  <path fill="#C64F63" d="M151.857 56.43c-.347 0-.673.05-.989.14 1.969 1.6 1.795 5.14-.511 6.4.46.21.96.33 1.5.33 1.939 0 3.51-1.54 3.51-3.44s-1.571-3.44-3.51-3.44v.01Z"/>
  <path fill="#C64A5F" d="M46.51 105.55c-.215 0-.429.03-.633.08 1.234 1.24 1.428 3.32.581 4.83h.052c1.387 0 2.51-1.1 2.51-2.46 0-1.36-1.123-2.46-2.51-2.46v.01Z"/>
  <path fill="#CC5A6E" d="M190.384 123.72s-.143-.01-.398-.01c-.021 1.82-.408 3.59-1.204 5.23-.704 1.46-1.724 2.76-2.888 3.89-1.091 1.07-2.203 2.14-3.418 3.08-1.163.9-2.428 1.68-3.775 2.2.296.31.776.47 1.276.38 10.682-2.02 13.57-10.31 10.407-14.77Z"/>
  <path fill="#CC5A6E" d="M191.312 108.41c-.398-.6-1.275-.71-1.836-.23-.459.4-.888.8-1.276 1.21.715.22 1.265.7 1.704 1.28.908 1.19 1.49 2.62 1.847 4.06.367 1.47.622 3.04.337 4.54-.49 2.54-2.806 3.58-5.143 4.02.643.7 1.388 1.28 2.214 1.68 0 0 10.153-4.58 2.133-16.55l.02-.01Z"/>
  <path fill="#A086BC" fill-rule="evenodd" d="M170.366 88.48c-.857-.9-2.275-1.51-3.908-1.91-1.347 4.35-5.234 8.29-9.295 10.03-2.775 1.19-6.05 1.62-9.132 1.14.102.11.215.21.337.3 2.347 1.74 5.918 2.369 10.203 2.299 5.408-.09 14.397-9.12 11.785-11.86h.01Z" clip-rule="evenodd"/>
  <path fill="#E6E6E5" d="M194.409 124.9c.167-1.798-2.109-3.471-5.083-3.736-2.974-.266-5.521.977-5.688 2.776-.167 1.798 2.109 3.471 5.083 3.737 2.975.265 5.521-.978 5.688-2.777Z"/>
  <path fill="#CC5A6E" d="M206.719 119.019c-1.592-.77-3.122-1.22-4.581-1.41 1.02 1.28 1.081 3.08.367 4.52-1.143 2.27-3.51 3.42-6.081 3.83 2.836.29 6.601-.68 10.642-5.41.418-.5.255-1.22-.347-1.51v-.02ZM118.391 77a47.1 47.1 0 0 0-1.694.01 10.78 10.78 0 0 1-.408 2.16c-.826 2.79-2.479 5.46-5.162 6.86-2.419 1.26-5.214 1.52-7.918 1.53-.031.56 0 .9 0 .9 4.948 3.03 14.162.27 16.407-9.95.173-.77-.419-1.5-1.225-1.52V77Z"/>
  <path fill="#CC5A6E" d="M195.098 124.669c.632.52 1.214 1.12 1.724 1.68 1.398 1.56 2.816 3.26 3.591 5.21.623 1.58.898 3.72-.469 5.02-.245.23-.51.42-.796.58.939.24 1.97.42 3.112.54.694.07 1.306-.55 1.265-1.3-.367-7.16-4.428-11.02-8.417-11.74l-.01.01ZM94.924 71.12a1.292 1.292 0 0 0-.908-.01c.397.14.795.31 1.173.51 1.98 1.07 3.54 2.88 4.673 4.78 1.082 1.81 1.888 3.89 1.969 6 .01.29-.173.63-.439.76-.857.4-1.622.91-2.305 1.55-.653.62-1.245 1.31-1.878 1.96 2.46 1.74 5 1.95 5 1.95 3.867-4.28 2.622-13.64-7.275-17.51l-.01.01Z"/>
  <path fill="#E6E6E5" d="M101.782 92.023c3.372-1.088 5.521-3.71 4.801-5.855-.721-2.146-4.039-3.003-7.41-1.915-3.373 1.088-5.522 3.709-4.802 5.855.72 2.145 4.039 3.003 7.411 1.915Z"/>
</svg>
