<svg xmlns="http://www.w3.org/2000/svg" width="250" height="414" fill="none" viewBox="0 0 250 414">
  <path fill="#103E8E" d="m215.271 195.429-13.867-67.82.272 70.17c0 1.52 1.438 2.65 2.946 2.33l8.769-1.87c1.297-.28 2.132-1.53 1.87-2.81h.01Z"/>
  <path fill="#103E8E" d="m218.468 156.59-17.044-27.75 9.985 32.13c.412 1.33 2.072 1.83 3.168.94l3.449-2.79c.764-.62.955-1.7.442-2.53Z"/>
  <path fill="#072D5B" d="M206.07 159.439c.443-1.19.805-2.38 1.106-3.58l-5.772-28.25.161 40.82c1.76-2.87 3.329-5.84 4.505-8.98v-.01Z"/>
  <path fill="#072D5B" d="m208.654 140.61-7.23-11.77 6.737 21.68c.392-3.27.483-6.58.493-9.91Z"/>
  <path fill="#103E8E" d="M204.329 145.04c-9.452-6.4-19.196-11.33-28.96-15.08-.724-.28-1.448-.55-2.182-.82-8.487-3.11-16.984-5.33-25.331-6.86-.432-.08-.854-.16-1.287-.23-.04 0-.07-.01-.11-.02-.744-.14-1.479-.26-2.223-.38-2.272-.37-4.535-.68-6.777-.96a178.92 178.92 0 0 0-17.849-1.25c-.221 0-.433-.01-.654-.02l-1.82-.03c-1.82-.02-3.61 0-5.38.02-.231 0-.462.01-.694.02-.231 0-.462 0-.693.02a207.65 207.65 0 0 0-24.476 2.06c-.201.02-.412.06-.614.09l-.623.09c-2.434.36-4.766.75-6.979 1.15-.09.02-.18.03-.281.05-5.46 1-10.247 2.09-14.209 3.1-5.973 1.52-10.076 2.86-11.765 3.43-2.112.16-2.625-2.08-2.323-5.27.251-2.65 1.066-5.97 1.991-9.08a108.01 108.01 0 0 1 1.548-4.81c1.157-3.36 3.35-6.24 6.215-8.31.523-.39 1.076-.74 1.65-1.07 4.615-2.65 9.964-4.72 15.827-6.29 3.208-.86 6.566-1.57 10.056-2.14.261-.05.533-.09.794-.13.271-.05.533-.08.794-.12 3.067-.46 6.215-.83 9.423-1.09 5.158-.42 10.478-.6 15.848-.55h1.367c2.303.04 4.606.11 6.918.22h.131c.211.01.423.02.634.04 6.194.3 12.388.88 18.422 1.65 3.922.51 7.773 1.1 11.514 1.77.372.07.744.13 1.106.2 22.736 4.16 41.218 11.05 45.794 17.51 11.564 16.3 5.198 33.1 5.198 33.1v-.01Z"/>
  <path fill="#12447F" d="m113.919 90.55 4.877 11.84-7.723 17.05c-.231 0-.462 0-.693.02-6.597.16-12.872.64-18.684 1.31-1.991.23-3.912.48-5.792.74l-.614.09-4.112-18.99 6.003-10.3c.261-.05.533-.08.794-.12 3.067-.47 6.215-.83 9.433-1.09 5.158-.43 10.478-.6 15.848-.56h.673l-.01.01Z"/>
  <path fill="#FDFEFF" d="m100.877 102.35 8.678-5.13 1.498 2.82-10.176 2.31Z"/>
  <path fill="#3569B5" d="M90.6 119.79c.352.35.714.67 1.086.97-1.99.23-3.911.48-5.792.74l-.613.09-4.113-18.99 6.003-10.3c.262-.05.533-.08.795-.12 3.067-.47 6.214-.83 9.432-1.09-3.319 1.29-6.506 3.27-6.918 6.8-.06.53.02 1.05.1 1.56.07.42.13.84.11 1.25-.01.21-.05.38-.11.53-.12.34-.342.61-.643.98-1.338 1.68-2.705 3.07-3.198 5.23-1.016 4.39.674 9.2 3.861 12.34v.01Z"/>
  <path fill="#FDFEFF" d="m95.104 102.69-6.667-4.76-1.418 2.18 8.085 2.58Z"/>
  <path fill="#FDFEFF" d="M87.17 92.31c-.26.04-.532.08-.794.13l-5.862 10.07 4.143 19.18.623-.09.614-.09-4.063-18.8 6.134-10.52-.794.12Zm26.749-1.76h.684l4.877 11.84-7.713 17.02c-.231 0-.463 0-.694.02-.231 0-.462 0-.694.02l7.743-17.08-4.867-11.83h.674l-.01.01Z"/>
  <path fill="#FFD550" d="M147.858 122.28c-.432-.08-.855-.16-1.287-.23-.04 0-.071-.01-.111-.02-.744-.14-1.478-.26-2.222-.38-2.273-.37-4.535-.68-6.778-.96a178.92 178.92 0 0 0-17.849-1.25l7.07-17.52-4.405-11.12c6.194.3 12.389.88 18.422 1.65 3.922.51 7.773 1.1 11.514 1.77.372.07.744.13 1.106.2 5.591 9.88-.442 21.11-5.47 27.86h.01Zm-74.182-19.23 3.992 19.79c-.09.02-.181.03-.282.05a231.34 231.34 0 0 0-9.331 1.91c-1.75.4-3.37.8-4.888 1.19-5.973 1.52-10.075 2.86-11.765 3.43-2.111.16-2.624-2.08-2.323-5.27.232-2.42.925-5.38 1.75-8.24l.241-.85a106.69 106.69 0 0 1 1.549-4.81c1.156-3.36 3.349-6.24 6.215-8.31.522-.39 1.085-.73 1.649-1.07 4.625-2.78 12.388-5.73 19.176-7.12l-6.003 9.31.02-.01Z"/>
  <path fill="#AF4149" d="m175.369 129.97-.784-.3c-.201-.07-.402-.15-.593-.22-.262-.1-.533-.2-.795-.29-.201-.07-.402-.15-.603-.22-.07-.02-.141-.05-.221-.08-.493-.18-.976-.35-1.468-.51a8.775 8.775 0 0 0-.473-.16c-.382-.14-.764-.26-1.146-.39-.523-.17-1.046-.34-1.559-.51-.322-.11-.633-.21-.955-.31l-1.539-.48c-.392-.12-.794-.24-1.186-.35-.754-.23-1.519-.44-2.283-.66-.593-.17-1.187-.33-1.78-.48-.593-.16-1.186-.31-1.78-.46h-.04c-.583-.15-1.156-.29-1.74-.43-.593-.14-1.186-.28-1.769-.42a160.907 160.907 0 0 0-5.3-1.12c-.583-.12-1.166-.23-1.749-.33l-1.006-.18c-.04 0-.07-.01-.111-.02-3.398-3.51-4.273-9.52-4.263-11.72.02-3.07-6.255-3.32-7.834-5.62-1.588-2.3-.02-2.84 1.82-5.24.302-.39.765-.72 1.348-.97a6.937 6.937 0 0 1 1.75-.49c.402-.07.824-.11 1.277-.12.583-.03 1.196-.01 1.84.05 2.755.24 5.913 1.25 8.467 3.22 2.946 2.27 8.557 4.28 12.841 5.59 3.69 1.13 6.576 3.99 7.713 7.63.553 1.78 1.146 3.76 1.709 5.71 1.177 4.14 2.192 8.16 2.253 9.9l-.041-.02Z"/>
  <path fill="#AF4149" d="M139.893 98.86s-.091-2.64-1.046-4.24c-.051-.08.02-.18.12-.16 2.635.79 2.856 4.13 2.856 4.13l-1.93.27Zm-2.302.76s.03-2.64-.855-4.28c-.04-.08.03-.18.121-.15 2.604.9 2.675 4.25 2.675 4.25l-1.941.19v-.01Zm-66.551 9.39c-.27 2.52-5.5 4.53-4.032 7.28 1.107 2.07 2.947 5.64 1.056 8.52-1.75.4-3.368.8-4.887 1.19-5.973 1.52-10.076 2.86-11.765 3.43-2.112.16-2.624-2.08-2.323-5.27.231-2.42.925-5.38 1.75-8.24 1.89-1.77 3.6-3.68 4.465-5.39 1.246-2.5 3.459-4.31 5.691-5.31.513-.23 1.036-.42 1.539-.56.382-.12.764-.19 1.136-.25.613-.1 1.187-.12 1.72-.06.613.06 1.166.22 1.618.49 2.695 1.63 4.294 1.66 4.033 4.18v-.01Z"/>
  <path fill="#AF4149" d="M63.167 106.03s-1.267-2.36-1.287-4.09c0-.09-.11-.15-.181-.1-1.79 1.55-.272 4.57-.272 4.57l1.74-.39v.01Zm2.724-.66s-1.267-2.36-1.287-4.09c0-.09-.11-.15-.18-.1-1.79 1.55-.272 4.57-.272 4.57l1.74-.39v.01Z"/>
  <path fill="#0A3575" d="M199.132 111.94c-1.891-2.67-6.164-5.42-12.128-8.01.161.62.282 1.23.352 1.81.795 6.25-3.891 10.95-9.492 13.01-6.818 2.5-14.199 2.3-21.359 2.75-2.956.18-5.933.46-8.919.74 18.744 3.42 38.292 10.33 56.755 22.81 0 0 6.365-16.8-5.199-33.1l-.01-.01Z"/>
  <path fill="#FFE8A9" d="M63.127 119.13c-2.243-3.99-2.112-8.59-.574-12.79.956-2.61 2.243-5.57 3.882-8.39a58.33 58.33 0 0 0-5.933 2.92c-.573.33-1.116.68-1.649 1.07-2.866 2.08-5.058 4.95-6.215 8.31a108.01 108.01 0 0 0-1.548 4.81c-.925 3.11-1.74 6.43-1.991 9.08-.302 3.19.211 5.44 2.323 5.28 1.69-.57 5.782-1.91 11.765-3.43 1.569-.4 3.278-.81 5.098-1.23-2.071-1.52-3.881-3.37-5.138-5.63h-.02Z"/>
  <path fill="#721621" d="m175.369 129.97-.784-.3c-.201-.07-.402-.15-.593-.22-.463-.17-.925-.34-1.398-.51-.07-.02-.141-.05-.221-.08-.493-.18-.976-.35-1.468-.51a8.775 8.775 0 0 0-.473-.16l-1.146-.39c-.523-.17-1.046-.34-1.559-.51-.322-.11-.644-.21-.955-.31l-1.539-.48c-.392-.12-.794-.24-1.186-.35-.755-.23-1.519-.44-2.283-.66-.593-.17-1.187-.33-1.78-.48-.593-.16-1.186-.31-1.78-.46h-.04c-.583-.14-1.156-.29-1.74-.43-.593-.14-1.186-.28-1.769-.42-1.187-.27-2.364-.52-3.54-.77-.583-.12-1.177-.24-1.76-.35l-1.75-.33c2.987-.28 5.964-.56 8.92-.74 5.531-.34 11.192-.31 16.622-1.42 1.177 4.14 2.192 8.16 2.253 9.9l-.031-.02Z"/>
  <path fill="#FCE9B4" d="M64.173 102.37c-.231.51-.452 1.01-.654 1.51.03-.54.212-1.09.654-1.51Z"/>
  <path fill="#AF4149" d="M63.58 103.74c-.09-.88.05-1.86.845-2.55.06-.06.171.01.171.1v.15a62 62 0 0 0-1.035 2.3h.02Z"/>
  <path fill="#CE5967" d="M68.275 124.76c-.221.05-.453.1-.674.16-.06.01-.12.02-.18.04-.393.09-.765.18-1.137.27-.04 0-.08.02-.12.03-.393.09-.775.18-1.147.28-.624.15-1.237.3-1.82.46-5.973 1.52-10.076 2.86-11.765 3.43-2.112.16-2.625-2.08-2.323-5.27.04-.45.1-.92.17-1.41v-.03c.02-.15.05-.3.071-.46.09-.53.191-1.07.302-1.63l.09-.42c.05-.26.11-.52.181-.79.05-.23.11-.47.171-.71 0-.05.02-.1.04-.16.06-.26.131-.52.202-.78.06-.25.13-.51.2-.77l.302-1.08c1.89-1.77 3.6-3.68 4.465-5.39 1.247-2.5 3.46-4.31 5.692-5.31-.262-1.01-.352-2.44.704-3.36.06-.05.17.01.18.1.01.87.342 1.89.654 2.7.241-.07.493-.13.734-.18-.14.33-.271.67-.392.99-.09.23-.171.46-.261.69-.02.07-.05.13-.07.19-1.53 4.2-1.67 8.8.572 12.79 1.237 2.21 2.997 4.03 5.018 5.53l.12.09h.02Z"/>
</svg>
