<svg xmlns="http://www.w3.org/2000/svg" width="250" height="415" fill="none" viewBox="0 0 250 415">
  <path fill="#EFAE42" fill-rule="evenodd" d="M58.192 99.852s-25.563-.934-25.563 5.365 3.729 13.057 20.266 13.644c16.538.586 23.064 13.254 23.064 13.254s3.96 9.492 19.334 1.562c15.374-7.931 14.908 3.032 20.732 4.196 5.825 1.165 15.61-2.565 19.104-2.098 3.494.467 16.772 21.429 29.585 21.562 12.812.132 17.936-12.272 22.362-12.367 4.426-.095 9.665 5.861 16.946 6.435 7.28.574 15.341-.805 15.341-5.365 0-6.531-6.638-13.565-11.427-14.598L58.192 99.852Z" clip-rule="evenodd"/>
  <path fill="#E6883C" fill-rule="evenodd" d="M207.936 131.442s-30.398 4.011-90.748-7.555c-36.573-7.009-58.997-24.035-58.997-24.035 10.313-28.456 45.945-53.102 87.13-45.333 41.185 7.774 68.076 43.697 62.615 76.919v.004Z" clip-rule="evenodd"/>
  <path fill="#EFAE42" fill-rule="evenodd" d="M67.28 105.647c10.313-28.456 46.016-53.255 87.201-45.482a84.416 84.416 0 0 1 22.63 7.687c-9.1-6.237-19.842-10.863-31.784-13.118-41.185-7.774-76.817 16.662-87.13 45.122 0 0 2.653 1.966 3.894 2.656 2.731 1.52 5.577 3.391 5.194 3.135h-.004Z" clip-rule="evenodd"/>
  <path fill="#E2723C" fill-rule="evenodd" d="M107.053 95.04c-2.446 0-2.45 3.804 0 3.804s2.45-3.804 0-3.804Zm-3.812-5.754a2.578 2.578 0 0 0-.412-1.297 2.67 2.67 0 0 0-.899-.98 2.61 2.61 0 0 0-1.184-.623c-.891-.202-1.894-.16-2.686.351l-.705.546c-.433.433-.73.95-.895 1.54l-.36 1.074c-.143.463-.164.93-.06 1.392.02.463.16.897.412 1.297.218.405.52.731.899.98.338.309.73.515 1.184.623.89.202 1.893.16 2.685-.351l.706-.545c.433-.434.73-.95.895-1.541.119-.36.239-.715.359-1.074.144-.463.165-.93.061-1.392ZM85.95 82.784c-4.484 0-4.492 6.977 0 6.977s4.492-6.977 0-6.977Zm.136 15.726c-.215-.843-.858-1.649-1.6-2.087-.747-.438-1.849-.623-2.686-.35-.841.272-1.658.796-2.083 1.602a3.875 3.875 0 0 0-.462 1.73c-.219.447-.35.93-.35 1.467 0 .855.379 1.879 1.018 2.466.664.611 1.535 1.061 2.463 1.02.883-.041 1.864-.326 2.463-1.02.268-.314.569-.649.763-1.02.19-.368.387-.785.482-1.194.207-.876.21-1.74-.016-2.615h.008Zm7.734 2.383c-3.667 0-3.675 5.708 0 5.708s3.675-5.708 0-5.708Z" clip-rule="evenodd"/>
  <path fill="#E47F3A" fill-rule="evenodd" d="M69.594 95.481a2.133 2.133 0 0 0-.59-.916 2.178 2.178 0 0 0-.916-.591 2.176 2.176 0 0 0-1.097-.248c-.251.033-.503.066-.759.103a2.84 2.84 0 0 0-1.258.736c-.511.557-.833 1.243-.833 2.02v.714c-.017.392.066.76.247 1.099.116.355.314.66.59.917.26.276.565.475.916.59.338.178.705.261 1.097.248.252-.033.508-.066.76-.103a2.84 2.84 0 0 0 1.257-.735c.512-.558.834-1.244.834-2.02v-.715a2.14 2.14 0 0 0-.244-1.099h-.004Zm39.609-37.216c-3.667 0-3.676 5.709 0 5.709 3.675 0 3.675-5.709 0-5.709Z" clip-rule="evenodd"/>
  <path fill="#E2723C" fill-rule="evenodd" d="M144.976 79.401c-3.667 0-3.675 5.709 0 5.709 3.676 0 3.676-5.709 0-5.709Zm6.797 28.299c-3.667 0-3.675 5.708 0 5.708s3.675-5.708 0-5.708Z" clip-rule="evenodd"/>
  <path fill="#E47F3A" fill-rule="evenodd" d="M85.95 71.355c-2.038 0-2.042 3.172 0 3.172s2.042-3.172 0-3.172Z" clip-rule="evenodd"/>
  <path fill="#E2723C" fill-rule="evenodd" d="M127.448 65.267c-2.038 0-2.042 3.172 0 3.172s2.042-3.172 0-3.172Zm-15.74 10.743c-2.038 0-2.042 3.172 0 3.172s2.042-3.172 0-3.172Zm21.461 31.525c-2.038 0-2.042 3.172 0 3.172 2.041 0 2.041-3.172 0-3.172Zm.359-15.763c-2.038 0-2.042 3.173 0 3.173s2.042-3.172 0-3.172Zm-23.971 20.418c-2.038 0-2.042 3.172 0 3.172s2.042-3.172 0-3.172Zm54.022-24.713c-2.038 0-2.042 3.172 0 3.172s2.042-3.172 0-3.172Zm4.65 25.072c-2.038 0-2.042 3.172 0 3.172s2.042-3.172 0-3.172Zm-12.166 8.596c-2.038 0-2.042 3.172 0 3.172s2.042-3.172 0-3.172Zm26.475 0c-2.038 0-2.042 3.172 0 3.172s2.042-3.172 0-3.172Zm-3.936-32.954c-2.038 0-2.042 3.172 0 3.172s2.042-3.172 0-3.172Zm-18.603-23.998c-2.038 0-2.042 3.172 0 3.172s2.042-3.172 0-3.172Z" clip-rule="evenodd"/>
  <path fill="#D34F39" fill-rule="evenodd" d="M152.487 73.148c-2.038 0-2.042 3.172 0 3.172s2.042-3.172 0-3.172ZM140.682 62.04c-2.038 0-2.042 3.173 0 3.173s2.042-3.172 0-3.172Zm-14.666 15.763c-2.038 0-2.042 3.172 0 3.172s2.042-3.172 0-3.172Zm45.789-10.748c-2.038 0-2.042 3.172 0 3.172s2.042-3.172 0-3.172ZM122.081 98.58c-2.038 0-2.042 3.172 0 3.172s2.042-3.172 0-3.172Zm9.298 16.476c-2.037 0-2.041 3.173 0 3.173 2.042 0 2.042-3.173 0-3.173Zm17.532-18.984c-2.038 0-2.042 3.172 0 3.172s2.042-3.172 0-3.172Zm36.845 1.074c-2.037 0-2.041 3.172 0 3.172 2.042 0 2.042-3.172 0-3.172Zm13.237 29.732c-2.038 0-2.042 3.172 0 3.172s2.042-3.172 0-3.172Zm-17.527-52.892c-3.263 0-3.267 5.077 0 5.077s3.267-5.077 0-5.077Zm-12.879 3.222c-3.263 0-3.267 5.076 0 5.076s3.267-5.076 0-5.076Zm1.432 19.344c-3.263 0-3.267 5.076 0 5.076s3.267-5.076 0-5.076Zm22.176-6.494c-3.263 0-3.267 5.077 0 5.077s3.267-5.077 0-5.077Zm7.871 19.748c-3.263 0-3.267 5.077 0 5.077s3.267-5.077 0-5.077Zm-16.455-2.507c-3.263 0-3.267 5.077 0 5.077s3.267-5.077 0-5.077Zm-12.578 14.482c-3.263 0-3.267 5.076 0 5.076s3.267-5.076 0-5.076Z" clip-rule="evenodd"/>
  <path fill="#268961" fill-rule="evenodd" d="M169.004 40.512c-1.019 4.032-6.596 21.913-23.69 13.904a.811.811 0 0 1-.466-.665c-.289-3.135-.862-20.727 23.575-14.23a.818.818 0 0 1 .581.995v-.004Z" clip-rule="evenodd"/>
  <path fill="#399551" fill-rule="evenodd" d="M133.694 30.801c4.026 1.02 21.884 6.605 13.885 23.722a.81.81 0 0 1-.664.467c-3.131.29-20.7.863-14.211-23.606a.818.818 0 0 1 .994-.583h-.004Z" clip-rule="evenodd"/>
  <path fill="#F3C27C" fill-rule="evenodd" d="M37.72 115.056s1.666-8.145 7.025-9.781c5.358-1.635 22.535.368 22.535.368l-9.088-5.791s-20.753-1.31-25.018 3.895c-4.266 5.204 4.545 11.309 4.545 11.309Z" clip-rule="evenodd"/>
  <path fill="#5FB366" fill-rule="evenodd" d="M133.694 30.801a.82.82 0 0 0-.995.583c-2.664 10.054-1.27 15.878 1.518 19.232 0 0-4.013-12.722.792-16.423 3.243-2.5 5.404-.83 5.433-.814a31.936 31.936 0 0 0-6.748-2.578Z" clip-rule="evenodd"/>
</svg>
