<svg xmlns="http://www.w3.org/2000/svg" width="250" height="414" fill="none" viewBox="0 0 250 414">
  <g clip-path="url(#a)">
    <path fill="#C36477" d="M161.385 145.834s9.989 23.54 19.821 19.876c9.833-3.663 14.731-11.064-.534-26.405l-14.316-6.917-4.962 13.447-.009-.001Z"/>
    <path fill="#000" d="M122.979 72.971c5.359-6.149 5.447-14.137 1.15-18.652-4.559-4.776-12.56-4.135-13.541-4.046-1.611.153-5.028.472-7.6 2.585-4.276 3.517-4.798 10.824-1.083 17.989l21.067 2.124h.007Z"/>
    <path fill="#F4F1ED" d="M166.999 131c-1.398-.154-16.43 1.185-18 1-57.468-6.665-68.31-8.269-79.614-14.161-3.363-1.753-4.988-3.646-11.386-8.339-1.5-15.5 4.137-33.622 31.501-44 3.548-2.015 7.454-1.527 10.919-2.847 4.506-.149 9.203-.138 14.068.078 22.002.965 41.038 5.746 56.382 11.321 0 0 .004.027.019.082l.013.062c.503 2.725 17.291 37.538-3.902 56.804Z"/>
    <path fill="#191919" d="M105.501 87c-7.5 12.21-17.36 14.867-22.577 14.428-4.247-.361-7.489-3.241-7.832-3.557-3.278-2.992-3.637-6.675-3.725-7.595C73.5 78.5 89.5 68.779 96 67c2.813-.641 10.329.338 12.194 1.78 2.363 1.826 1.513 5.668 1.208 7.038-.97 4.367-2.539 9.898-3.901 11.182Z"/>
    <path fill="#F4F1ED" d="M204.017 132.082c-.689.387-1.398.764-2.125 1.127-20.392-1.127-23.392-1.127-35.373-2.209-2.064-.208 4.03.453 0 0 21.193-19.266 4.886-54.079 4.383-56.804 3.54 14.42 14.256 22.223 22.19 20.583 3.453 6.434 7.114 15.001 9.275 25.481a93.11 93.11 0 0 1 1.65 11.822Z"/>
    <path fill="#000" d="M203.525 83.772c-1.112 5.512-5.764 9.567-10.433 11.007-7.513 2.312-15.174-2.013-19.049-7.517l-1.836-3.33c21.968 3.422 19.376-15.808 18.8-19.01 2.239.802 3.869 1.985 4.767 2.652.181.133.592.442 1.134.919 2.566 2.203 8.102 7.928 6.617 15.28Z"/>
    <path fill="#191919" d="m172.206 83.933 1.837 3.328a10.23 10.23 0 0 1-.316-.46c-3.452-5.248-3.078-10.827-2.857-12.749 3.651-6.294 9.712-10.235 15.932-9.97 1.568.072 2.97.394 4.199.84h.006c.576 3.202 3.168 22.432-18.801 19.01Zm-64.935 28.295c-.085-3.005-6.159-4.857-7.889-5.387-2.984-.911-7.68-2.343-9.802.158-2.008 2.365-.878 7.251 2.013 9.56 2.295 1.834 5.099 1.546 6.608 1.397 4.029-.405 9.15-2.932 9.07-5.728Z"/>
    <path fill="#F4F1ED" d="M97.331 89.998a3.348 3.348 0 1 0 .672-6.662 3.348 3.348 0 0 0-.672 6.662Z"/>
    <path fill="#191919" d="M109.5 86c1.256 11.944 1.82 18.056 5.307 23.428.4.617.915 1.158 1.586 1.682 3.355 2.63 7.696 2.719 8.158 2.726 4.439.045 7.207-2.411 7.899-3.025C141 101 145.5 84 129 74.078c-3-2.078-7.059-2.566-9.308-2.739-2.394-.187-5.151.768-6.677 2.739-1.865 2.406-4.031 6.997-3.515 11.922Z"/>
    <path fill="#F4F1ED" d="M116.386 95.253a3.348 3.348 0 1 0 .671-6.663 3.348 3.348 0 0 0-.671 6.663Z"/>
    <path fill="#191919" d="m204 132-7 4.5c-1.144.356-10.328 5.564-22.667 8.217a138.04 138.04 0 0 1-3.595.731l-.026.008c-2.582.492-4.946.853-6.906 1.02-12.04 1.029-100.935-5.129-122.435-20.193-21.5-15.064 16.418-19.091 16.418-19.091a191.113 191.113 0 0 0 21.215 9.428c14.584 5.446 26.364 7.278 99.496 15.38 1.998.224 7.5.5 11 .5 5.5 0 11.876-.77 14.5-.5Z"/>
    <ellipse cx="69.5" cy="101" fill="#C36477" rx="6.5" ry="4" transform="rotate(28.926 69.5 101)"/>
    <ellipse cx="135.182" cy="117.248" fill="#C36477" rx="6.5" ry="4" transform="rotate(-11.83 135.182 117.248)"/>
  </g>
  <defs>
    <clipPath id="a">
      <path fill="#fff" d="m42.238 43.002 169.043 17.042-11.237 111.454-169.043-17.042z"/>
    </clipPath>
  </defs>
</svg>
