<svg xmlns="http://www.w3.org/2000/svg" width="250" height="415" fill="none" viewBox="0 0 250 415">
  <path fill="#54A1A0" d="M175.534 70.872c3.643-.041 7.788-1.995 10.218-4.23-2.409.372-4.67 1.078-6.909 1.871 1.996-.916 4.347-2.114 6.216-3.42.446-3.928.627-7.724.693-10.537.029-1.169-7.516 1.69-7.103.917.528-.983 7.082-4.923 7.082-4.923L175.6 33.098l-13.819 55.387 17.948-6.225c2.36-2.582 3.812-7.472 4.699-12.685-2.603 1.334-6.435 2.516-8.894 1.293v.004Z"/>
  <path fill="#97CFD0" d="M175.601 33.098s-4.579 53.582-14.326 59.24L149.65 77.972s5.177-7.15 8.939-14.589c.409-.805 4.039 3.193 6.25 5.006.709.583-4.921-7.914-4.579-8.769.8-1.999 1.473-4.04 1.926-6.038.071-.302 5.157 4.865 5.215 4.564.099-.508-4.839-6.481-4.773-6.98.251-1.872.276-3.681 0-5.37l12.977-12.698h-.004Z"/>
  <path fill="#54A1A0" d="M186.289 89.716c2.512.958 5.886.739 8.159-.137-1.753-.396-3.498-.524-5.251-.586 1.617-.087 3.56-.277 5.189-.665a90.15 90.15 0 0 0 3.321-7.047c.334-.793-5.619-.876-5.128-1.293.627-.533 6.196-1.462 6.196-1.462l-2.244-14.73-24.445 34.292 14.005.587c2.318-1.132 4.632-4.102 6.649-7.44-2.149.211-5.098-.016-6.456-1.52h.005Z"/>
  <path fill="#97CFD0" d="M196.532 63.792s-17.614 35.556-25.836 36.799l-4.104-13.011s5.486-3.51 10.077-7.6c.495-.442 1.91 3.284 2.942 5.13.33.59-1.242-6.766-.776-7.261 1.089-1.157 2.1-2.376 2.954-3.627.127-.19 2.227 4.738 2.347 4.548.206-.323-1.576-5.763-1.395-6.085.681-1.214 1.184-2.453 1.448-3.688l12.338-5.205h.005Z"/>
  <path fill="#5D3F93" d="M54.591 133.024c21.059 3.68 84.977 9.839 143.685-7.988 3.184-.967 5.49-3.743 5.894-7.051 1.139-9.36 4.88-31.818-11.426-35.163-8.993-1.843-15.077.359-19.062 3.519-3.275 2.602-8.081 1.652-10.012-2.061-5.936-11.421-19.746-30.335-48.729-29.236-30.006 1.136-41.865 24.948-45.797 36.799-1.266 3.816-7 5.163-9.582 2.081-3.33-3.973-6.423-5.894-8.325-3.874-9.673 10.264-3.564 28.476-1.386 38.79.483 2.292 2.442 3.775 4.744 4.18l-.004.004Z"/>
  <path fill="#312B6B" d="M205.214 104.73c-.186 4.395-.78 8.488-1.126 11.351-.404 3.308-2.706 6.084-5.895 7.051-58.708 17.823-122.626 11.668-143.685 7.988-.053-.008-.107-.021-.16-.033-1.89-.095-2.834-.826-4.418-1.941.239 1.028.466 2.011.66 2.928.482 2.293 2.442 3.776 4.743 4.18 21.059 3.681 84.152 9.839 142.86-7.988 3.185-.967 5.491-3.742 5.895-7.051.482-3.961 1.431-10.269 1.126-16.485Z"/>
  <path fill="#B18A3F" d="M52.265 96.118c1.902-2.02 5.037.934 8.366 4.907 2.582 3.081 8.53 1.941 10.366-4.767 3.296-12.044 14.97-34.01 44.972-35.146 28.982-1.1 40.318 17.815 46.254 29.236 1.931 3.713 9.211 4.663 12.487 2.06 3.98-3.16 10.069-5.365 19.062-3.519 6.629 1.36 9.945 5.878 11.467 11.388-.445-8.393-3.213-16.567-12.54-18.48-8.993-1.842-15.077.36-19.062 3.52-3.275 2.602-8.081 1.652-10.011-2.061-5.936-11.421-19.747-30.335-48.73-29.236-30.006 1.135-43.928 24.948-47.859 36.798-1.266 3.817-4.897 6.196-7.479 3.115-3.329-3.974-6.464-6.923-8.365-4.907-6.634 7.038-5.846 17.815-3.993 27.22-.718-7.373.057-14.816 5.065-20.128Z"/>
  <path fill="#CCA566" d="M84.87 65.114c-1.32 1.185-2.55 2.024-3.688 3.292v8.674c1.113-1.322 2.326-2.4 3.688-3.837v-8.129Zm20.345-9.922c-6.11 1.392-11.282 3.516-15.643 6.527v7.732c4.167-3.21 9.31-5.423 15.643-6.968v-7.29Z"/>
  <path fill="#312B6B" d="M126.429 111.244c.862 2.767.318 6.572 1.568 10.206.293.847 2.689 2.578 2.689 2.578l13.526-6.704-6.476-13.123-2.69-2.577c.611 1.251 1.312 1.834 1.312 1.834 5.449-5.506 5.322-6.564 6.336-14.33 1.011-7.764-14.33-15.869-31.862-11.14-17.531 4.726-22.758 18.906-22.758 25.66 0 4.742 6.98 5.902 11.138 6.175 0 0 5.35.578 8.155-.306.248-.078.371-.157 0 0-1.642.694-2.495 1.087-5.672 1.863l-6.699 8.431 2.69 2.577 15.201 5.837c.156-5.754.338-10.604.305-16.221h2.875c.029 4.924-2.442 8.29-2.471 13.742 0 .578 2.69 2.578 2.69 2.578l10.902-2.561.916-.455c-1.539-4.7-3.416-9.149-4.546-14.064h2.875-.004Zm-19.615-7.538c-2.235.078-4.372-.719-5.894-2.384-2.228-2.44-2.187-6.06-.685-8.86 1.291-2.412 3.527-3.787 5.957-4.176 1.695-.475 3.481-.297 5.259.459a4.98 4.98 0 0 1 2.298 1.445c.045.05.082.104.123.153a7.022 7.022 0 0 1 1.127 1.47c.033.055.061.108.094.162.145.256.264.516.359.785.306.789.471 1.635.471 2.515 0 4.73-4.666 8.274-9.113 8.435l.004-.004Zm15.135-7.844c-1.386-2.503-1.167-5.965.466-8.307 2.298-3.284 6.757-3.255 9.414-.36.218.236.416.492.598.757 1.815 2.243 2.141 5.799.264 8.298-2.619 3.486-8.531 3.602-10.742-.392v.004Z"/>
  <path fill="#B18A3F" d="M123.74 108.666a403.65 403.65 0 0 0 4.257 12.78l13.526-6.703-6.476-13.123-4.905.458c2.834-.863 4.129-2.024 4.129-2.024 5.449-5.506 4.719-5.741 5.734-13.507 1.01-7.765-14.331-15.87-31.862-11.14-17.532 4.726-22.758 18.906-22.758 25.659 0 4.742 6.98 5.903 11.137 6.175 0 0 5.351.579 8.156-.305.247-.079.371-.157 0 0-1.642.694-2.496 1.086-5.672 1.863l-4.01 11.003 15.201 5.837c.157-5.754.338-10.603.305-16.221h2.876c.033 5.448.317 9.959.218 16.32l10.903-2.561.915-.454c-1.538-4.701-3.415-9.149-4.545-14.065h2.875l-.004.008Zm-19.615-7.538c-2.236.079-4.373-.718-5.895-2.383-2.227-2.441-2.186-6.06-.684-8.86 1.29-2.412 3.526-3.788 5.956-4.176 1.695-.475 3.482-.297 5.26.458a4.977 4.977 0 0 1 2.297 1.446c.046.05.083.103.124.153.421.421.788.892 1.089 1.404.012.021.025.042.037.066.033.054.062.108.095.161.144.257.264.517.359.785.305.79.47 1.636.47 2.516 0 4.73-4.665 8.273-9.112 8.434l.004-.004Zm15.135-7.844c-1.386-2.503-1.168-5.964.466-8.306 2.298-3.284 6.757-3.255 9.413-.36.219.236.417.492.599.756 1.815 2.243 2.14 5.8.264 8.299-2.62 3.486-8.531 3.601-10.742-.393v.004Z"/>
  <path fill="#C0975A" d="M96.573 94.247c-.03-1.479.35-2.983 1.06-4.308a7.942 7.942 0 0 1 3.189-3.235 967.733 967.733 0 0 1 4.95-8.653c.437-.756.882-1.508 1.32-2.264a39.22 39.22 0 0 0-3.024 1.062c-.198.355-.4.706-.598 1.061a662.856 662.856 0 0 0-11.299 21.108c-1.101 2.156-2.31 4.32-3.486 6.518a12.1 12.1 0 0 0 1.556.627c1.448-4.196 4.15-8.108 6.328-11.916h.004Zm14.57-6.58c.045.05.082.103.124.153a7.096 7.096 0 0 1 1.126 1.47l.095.161c.144.256.264.517.358.785.19.487.318 1 .392 1.528 1.159-1.462 2.323-2.92 3.482-4.386 3.242-4.098 6.336-8.303 9.384-12.54-3.824-.819-8.204-1.042-12.853-.397a591.436 591.436 0 0 0-6.493 11.165c.693.115 1.39.318 2.083.611a4.98 4.98 0 0 1 2.298 1.446l.004.004Zm-9.897 19.802c.631-.897 1.271-1.793 1.922-2.681a297.839 297.839 0 0 1 2.904-3.87 9.708 9.708 0 0 1-1.868.264c-1.931.07-3.783-.52-5.23-1.751a212.547 212.547 0 0 1-1.779 3.131c-.87 1.499-1.716 2.99-2.355 4.572.619.07 1.213.124 1.753.161 0 0 2.281.248 4.645.17l.008.004Zm-3.494 5.047a629.15 629.15 0 0 1 2.784-4.031c-.425.115-.899.235-1.448.371l-1.332 3.66h-.004Z"/>
  <path fill="#CCA566" d="M87.468 103.71c0-6.754 5.226-20.934 22.758-25.66 12.602-3.394 24.07-.169 29.147 4.8-3.102-6.402-16.376-11.602-31.226-7.6-17.532 4.726-22.758 18.906-22.758 25.659 0 1.681.878 2.912 2.198 3.813a4.422 4.422 0 0 1-.12-1.012Zm47.575-2.082c-1.208.107-2.702.178-4.9.454 0 0 2.516.641 5.515.793l-.615-1.247Zm-28.17 7.96c.248-.079.371-.157 0 0Zm17.704-.731-.833-.19c.998 3.089 3.135 9.566 4.261 12.763l.945-.467c-1.163-3.403-3.572-9.533-4.373-12.102v-.004Zm-23.277.731c.816-.541 1.732-1.954 3.374-2.648-2.805.88-5.672 1.863-5.672 1.863-.016 0-.61 1.9-.627 1.9l-3.387 9.104 2.785 1.069 3.523-11.288h.004Zm14.429 15.667c-.017-4.734-.636-11.367-.664-15.828h-1.696c.083 4.291.343 11.078.26 16.319l2.096-.491h.004Z"/>
</svg>
