<svg xmlns="http://www.w3.org/2000/svg" width="250" height="414" fill="none" viewBox="0 0 250 414">
  <mask id="a" width="185" height="154" x="46" y="31" maskUnits="userSpaceOnUse" style="mask-type:luminance">
    <path fill="#fff" d="M46 31h185v153.09H46V31Z"/>
  </mask>
  <g mask="url(#a)">
    <path fill="#CFBDE5" d="m71 75.06-1.8-1.84-3.82-5.46 4.32-1.67-9.7-6.12 8.4-10.48 4.21 2.92 3.63-3.38 1.33-6.67 5.62-.71C95.5 59.97 71.01 75.06 71.01 75.06H71Z"/>
    <path fill="#A780B4" d="m103.95 47.56 6.42 2.66-.94 6.88-4.13 3.14 2.44 5.5-4.28 4.83c-12.74-1.79-25.33 1.95-32.96 3.93L69 73c16.78-9.52 16.97-22.8 14.2-31.36l5.75-.74-1.7 6.36 3.59-1.81L94.26 37l5.47 1.05-2.88 9.2 4.3.05-2.46 7.5 5.26-7.25v.01Z"/>
    <path fill="#284570" d="m219.8 139.53-.39.31.4-.3-.01-.01Z"/>
    <path fill="#3C8994" d="M219.4 139.84v.02h-.02l.01-.02h.01Zm.4-.31-.39.31.4-.3-.01-.01ZM59.24 91.44l-.41.37.21-.34.2-.03Z"/>
    <path fill="#345488" d="M182.84 124.27c-3.74 1.18-8.35 1.87-14.02 1.81C145 109.05 111.92 91.13 74 86.7c3.7-5.25 10.13-11.92 19.07-12.29 31.58 12.83 63.06 28.4 89.78 49.87l-.01-.01Z"/>
    <path fill="#3C8994" d="m140.74 115.91-1.52-.77a219.914 219.914 0 0 0-37.93-15.04 214.71 214.71 0 0 0-24.35-5.64l-.64-.1a184.043 184.043 0 0 0-6.66-.98l.32-.16c-2.1-.27-4.23-.5-6.37-.7l.17-.42-4.52-.66A261.41 261.41 0 0 1 75.38 94c.39.05.77.12 1.16.18a197.48 197.48 0 0 1 25.17 5.75c6.08 1.8 11.9 3.83 17.48 6.05a212.256 212.256 0 0 1 20.04 9.16l1.5.78.01-.01Zm59.42 45.49a159 159 0 0 1-.97-1.04l-1.11-1.2c-.757-.809-1.523-1.61-2.3-2.4a166.43 166.43 0 0 0-5.63-5.58c-.48-.48-.98-.94-1.46-1.4a177.162 177.162 0 0 1 8.2 8.04 86.065 86.065 0 0 1 3.27 3.59v-.01Zm13.83-5-.01.02-.01-.05s0 .02.02.03Z"/>
    <path fill="#345488" d="M189.08 121.47a27.365 27.365 0 0 1-6.24 2.8C155.5 103.5 124.66 87.23 93.08 74.4c0 0 7.9-5.22 21.19-9.14 27.8 12.36 55.08 32.98 74.82 56.2l-.01.01Z"/>
    <path fill="#345488" d="M195.11 115.96a21.18 21.18 0 0 1-6.03 5.5c-15.06-17.71-53.27-46.2-74.82-56.2a104.078 104.078 0 0 1 20.05-3.82c21.14 14.44 46.4 32.93 60.8 54.52Z"/>
    <path fill="#3C8994" d="m213.991 156.4-.01.02-.01-.05s0 .02.02.03Z"/>
    <path fill="#345488" d="M198.9 106.43a20.1 20.1 0 0 1-3.79 9.53c-14.4-21.6-39.66-40.08-60.8-54.52 3.25-.3 6.65-.45 10.19-.4 22.09 9.18 41.25 25.42 54.4 45.4v-.01Z"/>
    <path fill="#3C8994" d="M219.399 139.84v.02h-.02l.01-.02h.01Z"/>
    <path fill="#345488" d="M219.401 139.85v.02-.02Zm-46.4-3.21a25.557 25.557 0 0 1-7.76 14.64 155.219 155.219 0 0 0-16.53-11.13c3.4-4.45 6-9.53 7.76-14.84l.25.16a209.156 209.156 0 0 1 16.28 11.17Zm19.88 17.2c-.94 5.75-4.34 10.95-9.55 13.66a166.617 166.617 0 0 0-14.28-13.2 29.84 29.84 0 0 0 8.19-14.36 207.048 207.048 0 0 1 15.63 13.9h.01Z"/>
    <path fill="#345488" d="M194.561 180.27c-28.42-35.45-93.84-66.45-138.67-60.02 0-17.25 3.35-28.8 3.35-28.8 34.26 4.3 67.98 15.18 97.34 33.52a212.816 212.816 0 0 1 36.3 28.86c2.55 2.51 4.9 5.23 7.44 7.76.47 6.34-1.06 14.13-5.76 18.68Z"/>
    <path fill="#284570" d="M76.541 94.17c-8 6-13.58 15.25-11.92 25.46-1.69.06-3.3.16-4.83.27-1.5-9.9 2.83-20.45 10.48-26.83 2.1.35 4.18.76 6.27 1.1Zm25.17 5.75-.42.18-.32.15c-7.97 3.72-13.74 9.93-15.56 17.21a23.705 23.705 0 0 0-.5 2.62 139.978 139.978 0 0 0-4.8-.34c.13-1.16.33-2.31.62-3.44 1.8-7.22 6.76-13.52 13.69-17.92a.5.5 0 0 1 .19-.12c.12-.09.23-.16.35-.22 2.28.58 4.53 1.21 6.75 1.88Zm23.51 8.55-.2.08-.31.13a37.883 37.883 0 0 0-17.6 14.93c-1.67-.4-3.32-.75-4.96-1.07a42.432 42.432 0 0 1 16.49-16.27l.3-.17c.1-.05.17-.1.25-.13 2.05.8 4.06 1.64 6.03 2.5Zm14.01 6.65-.01.02-.02.03a286.45 286.45 0 0 0-10.41 15.26c-1.54-.61-3.07-1.2-4.6-1.75a290.06 290.06 0 0 1 10.69-15.76c1.47.73 2.93 1.46 4.35 2.2Zm17.35 9.85c-2.05 5.46-4.3 10.5-7.87 15.18-1.42-.82-2.83-1.62-4.24-2.38 3.27-4.25 6.98-10 7.88-15.4 1.42.85 2.83 1.73 4.23 2.6Zm20.68 14.84c-.76 5.37-4.33 10.78-8.21 14.5a156.605 156.605 0 0 0-3.81-3.03c4.37-4.05 6.53-9.12 7.8-14.82 1.43 1.1 2.83 2.22 4.22 3.35Zm19.64 18.01c-1.23 5.5-5.33 10.5-10.17 13.3a181.59 181.59 0 0 0-3.4-3.62c5.35-2.78 8.14-8.06 9.55-13.73 1.59 1.55 2.92 2.92 4.01 4.05h.01Z"/>
    <path fill="#284570" d="m194.561 180.27-.07.08c-2.45 2.33-5.9 3.88-10.77 3.73-24.72-40.08-100.78-63.02-127.19-57.1 0 0-.46-5.06-.64-6.73 53.11-8.36 105.96 19.22 138.67 60.02Zm-25.74-54.19a83.119 83.119 0 0 1-12.24-1.1l-2.06-1.28-.4-.25-1.78-1.07a214.558 214.558 0 0 0-11.58-6.45l-.02-.02-1.5-.79a211.021 211.021 0 0 0-20.04-9.16h-.01a204.831 204.831 0 0 0-42.64-11.79l-1.17-.18c-1.72-.33-3.43-.64-5.1-.92 0 0 1.25-2.88 3.72-6.38 37.91 4.44 71 22.36 94.82 39.4v-.01Z"/>
    <path fill="#1C3862" d="M200.16 161.4a159 159 0 0 1-.97-1.04l-1.11-1.2c-.756-.81-1.522-1.61-2.3-2.4a197.224 197.224 0 0 0-15.08-14l-1.8-1.48-.25-.2-1.41-1.14a209.064 209.064 0 0 0-20.51-14.47l-.26-.16a224.85 224.85 0 0 0-21.95-11.9 241.379 241.379 0 0 0-33.9-12.99h-.01a267.328 267.328 0 0 0-23.67-5.97l-.62-.11-4.51-.88h-.03l-1.61-.3h-.07a299.25 299.25 0 0 0-10.86-1.72A259.557 259.557 0 0 1 75.38 94c.39.05.77.12 1.16.18a197.498 197.498 0 0 1 25.17 5.75c6.08 1.8 11.9 3.83 17.48 6.05a211.021 211.021 0 0 1 20.04 9.16l1.5.78.03.02a214.57 214.57 0 0 1 15.82 9.04l.7.45.72.46.32.2.58.38.47.3 1.19.78.04.03.04.03c.46.3.92.6 1.38.92l1.11.75c.67.45 1.33.91 2 1.38l.3.22.24.16 1.2.85 1.03.74c.926.664 1.843 1.341 2.75 2.03l.33.25 1.92 1.45.13.11c.534.393 1.058.8 1.57 1.22.43.34.87.68 1.3 1.04.46.35.91.72 1.36 1.1l1.11.9c.83.672 1.65 1.355 2.46 2.05a133.492 133.492 0 0 1 3.73 3.24c.94.83 1.86 1.68 2.79 2.54.2.17.38.35.57.53.261.229.518.462.77.7 2.811 2.6 5.545 5.281 8.2 8.04a86.767 86.767 0 0 1 3.27 3.59v-.02Z"/>
    <path fill="#284570" d="M198.961 105.56v.02l-.01-.04v.02h.01Z"/>
    <path fill="#307277" d="m215.97 121.48-.15-.56h.01l.14.56Z"/>
    <path fill="#1C3862" d="M200.16 161.4c-13.17-13.8-27.47-26.17-43.58-36.43 4.55.73 8.61 1.08 12.24 1.11a281.677 281.677 0 0 1 24.82 20c4.54 4.1 8.09 7.57 10.51 10.05-2 3.65-3.99 5.28-3.99 5.28v-.01Z"/>
    <path fill="#284570" d="M207.2 147.9a31.55 31.55 0 0 1-3.05 8.23 272.363 272.363 0 0 0-35.33-30.05c5.67.06 10.28-.63 14.03-1.81 9.52 6.06 17.49 14.72 24.36 23.63h-.01Z"/>
    <path fill="#284570" d="m197.56 131.84-3.14 2.24c-3.71-3.44-7.57-6.713-11.57-9.81a27.398 27.398 0 0 0 6.23-2.8c2.96 3.35 5.74 6.85 8.48 10.38v-.01Z"/>
    <path fill="#284570" d="M208.2 137.84c.03 2.28-.1 4.39-.34 6.31-7.36-7.65-12.31-15.34-18.78-22.68a21.167 21.167 0 0 0 6.03-5.5 252.271 252.271 0 0 1 12.74 16.4c.22 1.93.33 3.75.35 5.47Z"/>
    <path fill="#284570" d="M207.86 144.15a37.485 37.485 0 0 1-.65 3.75 92.267 92.267 0 0 0-12.79-13.82l3.15-2.24a69.895 69.895 0 0 1 10.29 12.31Z"/>
    <path fill="#284570" d="m194.53 134.18.19.17-.2-.17h.01Zm13.32-1.81a256.13 256.13 0 0 0-12.74-16.4c2.87-3.9 3.6-7.83 3.78-9.53 5.17 7.84 7.91 16.56 8.96 25.93Z"/>
    <path fill="#284570" d="m208.199 137.84-5.49-6.58-7.6-15.3 1.34 1.6a247.59 247.59 0 0 1 9.93 12.76l1.01 1.4.46.65c.22 1.93.33 3.75.35 5.47Z"/>
    <path fill="#45689B" d="M70.5 93a36.703 36.703 0 0 0-10.73 26.82c-4.37.38-8.73.94-13.05 1.69-3.91-12.17 5.08-23.25 12.52-30.07 3.59.5 7.7.91 11.26 1.56Z"/>
    <path fill="#284570" d="M65.66 125.71a53.27 53.27 0 0 0-14.2 2.68 15.167 15.167 0 0 1-4.74-6.88c4.32-.75 8.68-1.32 13.05-1.69a6.538 6.538 0 0 0 5.9 5.9l-.01-.01Z"/>
    <path fill="#345488" d="M74.001 86.7c-2.47 3.5-3.73 6.37-3.73 6.37-3.78-.65-7.46-1.18-11.03-1.63l-.2.03 3.55-5.69c3.85.16 7.65.48 11.41.91v.01Z"/>
    <path fill="#284570" d="m59.04 91.47.2-.03-.41.37.21-.34Z"/>
    <path fill="#45689B" d="M93.07 74.4c-8.94.37-15.36 7.04-19.07 12.3-3.79-.45-7.597-.756-11.41-.92 5.91-11.28 8.25-13.1 18-16.22 4.21 1.46 8.36 3.16 12.48 4.84Z"/>
    <path fill="#45689B" d="M114.26 65.26c-13.29 3.92-21.19 9.14-21.19 9.14-4.13-1.68-8.26-3.38-12.48-4.84A52.063 52.063 0 0 1 99.03 59.3c4.94 0 10.86 3.97 15.23 5.96Z"/>
    <path fill="#45689B" d="M134.301 61.44c-7.55.68-14.3 2.13-20.04 3.82-4.01-1.83-11.1-5.96-15.23-5.96 10.59-3.28 21.52-2.85 32.04 0l3.24 2.14h-.01Z"/>
    <path fill="#45689B" d="M144.5 61.03a99.499 99.499 0 0 0-10.2.41l-3.23-2.14 2.13-.73c2.6.32 5.13.67 7.59 1.04l.02.01c.16.05 1.48.5 3.69 1.41Z"/>
    <path fill="#307277" d="m213.991 156.4-.01.02-.01-.05s0 .02.02.03Zm5.41-16.56v.02h-.02l.01-.02h.01Zm0 .01v.02-.02Zm.4-.32-.39.31.4-.3-.01-.01Z"/>
    <path fill="#307277" d="M213.971 156.37s0 .02.02.03l-.01.02-.01-.05Zm1.86-35.45.14.56-.15-.56h.01Zm3.57 18.92v.02h-.02l.01-.02h.01Zm0 .01v.02-.02Zm.4-.32-.39.31.4-.3-.01-.01Z"/>
    <path fill="#CFBDE5" d="m154.48 72.18-.82-.45-4.64-5.63 5.05-6.06 7.24 5-3.65-15.9L176.63 47l1.32 7.17 7.05.23 8.03-5.4 6.4 4.92c-5.79 11.4-18.5 25.48-44.96 18.26h.01Z"/>
    <path fill="#A780B4" d="m218.24 89.83-3.81-9.13-12.57 2.04 10-5.1v-.01l-4.29-4.36 12.13-6.39-4.46-6.53-11.93 5.09c-1.81-.6-3.63-1.2-5.44-1.78l8.1-4.7-6.54-5.03c-10 15.61-28.18 21.66-45.93 17.57-2.19 3.2-3.3 7.07-5.49 10.27l3.03 8.59 7.58-11.12 3.03 5.05-6.06 10.61 12.63 11.12 3.03-19.2 2.53 7.07 4.04-.5 2.02-3.54-.5 17.18 11.11 1.52 1.52-9.1 8.05 3.4 3.05-8 7.31.97 7.86-6v.01Z"/>
  </g>
</svg>
