<svg xmlns="http://www.w3.org/2000/svg" width="250" height="414" fill="none" viewBox="0 0 250 414">
  <path fill="#913F45" d="M54.22 98s9.186-19.64 16.69-23.61c7.504-3.97 19.291-6.15 19.291-6.15s25.845-16.86 57.482-6.74c31.638 10.12 53.561 22.22 60.374 60.9C172.187 118.25 54.221 98 54.221 98Z"/>
  <path fill="#803134" d="M132.625 86.12c5.172-8.03 11.066-15.9 14.488-24.8a71.195 71.195 0 0 0-4.253-1.17c-11.786 13.91-25.664 29.74-26.745 48.23 1.501.25 3.022.5 4.543.75 1.401-8.6 7.214-15.65 11.957-23.01h.01Zm59.652 20.89c-2.011 4.17-3.812 8.22-6.713 11.93-.1.12-.201.24-.291.37 9.166 1.35 17.04 2.43 22.793 3.09-1.991-11.3-5.283-20.33-9.715-27.71-1.801 4.26-4.163 8.38-6.064 12.32h-.01Zm-11.776 8.75c2.711-3.48 4.432-7.28 6.293-11.2 2.372-5 5.784-10.36 7.354-15.93a57.423 57.423 0 0 0-5.973-6.46c-1.291 3.51-2.862 6.93-4.492 10.29-2.622 5.4-5.143 10.89-8.335 16.01-1.951 3.12-4.633 5.64-7.174 8.27 3.522.54 6.944 1.07 10.246 1.56.71-.83 1.41-1.67 2.081-2.53v-.01Zm-10.785-9.62c3.132-4.89 5.543-10.17 8.095-15.34 2.041-4.14 3.972-8.34 5.393-12.71 0-.02.01-.04.02-.07a72.14 72.14 0 0 0-7.014-4.64c-4.743 14.71-14.528 27.56-22.353 41.1 2.482.39 4.943.78 7.365 1.16 2.851-3.16 6.203-5.93 8.484-9.5h.01Zm1.181-35.62c-2.592-1.29-5.303-2.5-8.115-3.64-2.601 8.51-6.433 16.72-9.795 24.95-2.011 4.93-4.163 9.97-7.384 14.31-1.661 2.24-3.662 4.18-5.664 6.12 2.542.41 5.073.81 7.595 1.22 7.954-14.06 18.88-27.5 23.363-42.95v-.01Zm-30.739 32.94c3.222-4.13 5.303-9.06 7.245-13.84 3.341-8.23 7.164-16.41 9.715-24.92-1.401-.51-2.822-1.01-4.262-1.5-3.332 8.65-8.795 16.39-13.888 24.17-2.682 4.1-5.433 8.17-8.085 12.28-2.131 3.31-3.712 6.69-4.252 10.44 2.071.34 4.152.68 6.243 1.01 2.472-2.52 5.133-4.88 7.294-7.66l-.01.02Zm-4.001-44.57a69.402 69.402 0 0 0-8.344-.62c-5.664 6.65-10.817 13.71-15.159 21.21-4.733 8.16-8.895 17.35-9.105 26.821 2.151.36 4.342.72 6.564 1.09 1.34-18.49 14.097-34.33 26.064-48.5h-.02ZM107.09 77.08c3.692-6.46 8.005-12.6 12.698-18.45-2.322.24-4.543.58-6.654.99-9.846 13.5-20.272 27.98-21.372 44.72 1.86.31 3.772.63 5.723.95.42-9.93 4.693-19.63 9.605-28.21ZM104.078 62c-6.254 2.05-10.727 4.41-12.708 5.55-1.96 3.19-3.642 6.55-5.073 9.92-3.351 7.88-5.783 16.39-6.133 24.93 1.791.3 3.652.61 5.573.94 1.18-15.25 9.425-28.74 18.341-41.34ZM80.666 75.37c.79-1.84 1.65-3.69 2.571-5.51-1.54.42-3.222.91-4.923 1.47-2.561 3.06-4.612 6.57-6.303 10.02-2.852 5.79-4.973 12.24-5.663 18.7 2.321.39 4.942.84 7.794 1.32.49-8.92 2.992-17.8 6.534-26.01l-.01.01Zm-13.898 3.05c.2-.41.4-.81.61-1.22C60.804 83.93 54.221 98 54.221 98l6.133 1.05c.84-7.14 3.252-14.19 6.414-20.63Z"/>
  <path fill="#682328" d="M184.524 79.02c4.293 6.09 7.465 13.06 7.545 20.42.03 2.291-2.422 4.151-4.743 3.471-4.783-1.41-9.736-2.29-14.388-4.09-4.633-1.79-9.185-3.58-14.018-4.87-8.135-2.19-16.509-3.4-24.894-4.29-8.865-.94-17.86-2.17-26.785-2.44-16.43-.5-32.649 2.75-49.028 3.11A129.408 129.408 0 0 0 54.211 98s117.966 20.25 153.837 24.4c-3.692-20.96-11.827-34.12-23.534-43.38h.01Z"/>
  <path fill="#803134" d="m51.9 128.92 1.54-8.38s60.824-28.16 150.175 24.01c-.921 4.92-1.231 6.26-1.231 6.26s6.544 1.22 8.655-8.29c1.871-3.51 5.293-12.28.58-19.12-10.336-9.6-58.933-36.6-119.117-33.01-53.3 3.18-47.647 12.65-48.237 18.93 0 5.12-2.462 21.3 7.624 19.61l.01-.01Z"/>
  <path fill="#9E494F" d="M51.479 109c.41-4.49 1.65-8.8 3.042-13.08-12.017 4.13-9.886 9.4-10.256 13.39 0 5.12-2.462 21.3 7.624 19.61l1.39-7.55c-1.51-3.93-2.19-8.09-1.8-12.36V109Z"/>
  <path fill="#682328" d="M69.358 92.62c-2.27.34-4.342.69-6.223 1.07-1.631 4.81-3.502 9.7-4.093 14.73a21.53 21.53 0 0 0 1.031 9.72 104.32 104.32 0 0 1 7.304-1.93c-1.99-7.84.06-15.71 1.991-23.6l-.01.01Zm12.778 10.281c.92-4.1 2.421-8.02 3.562-12.05-3.022.23-5.824.49-8.415.77-1.751 7.32-4.973 15.72-2.701 23.19 2.29-.38 4.752-.72 7.374-1.01-.68-3.54-.66-7.14.18-10.91v.01Zm15.9-1.231c1.13-3.92 2.672-7.73 3.932-11.6-2.771.02-5.573.11-8.395.26-1.02 4.39-2.641 8.59-3.822 12.95-.92 3.4-1.05 6.67-.35 9.91 2.271-.13 4.643-.21 7.104-.24-.13-3.78.45-7.56 1.531-11.28Zm14.867 1.07c.66-4.2 1.711-8.27 3.091-12.26-2.061-.14-4.142-.24-6.243-.31-2.301 7.6-6.073 15.07-5.713 22.89 2.501.09 5.093.25 7.764.47.2-3.6.54-7.2 1.111-10.78l-.01-.01Zm14.509.921c.4-3.96 1.931-7.81 2.712-11.72-2.142-.3-4.303-.57-6.504-.8-2.711 7.51-3.902 15.28-4.352 23.18 2.401.31 4.862.67 7.364 1.1.45-3.89.37-7.86.77-11.75l.01-.01Zm12.027 5.769c.231-5.32 1.771-10.3 3.312-15.32-1.751-.36-3.532-.7-5.333-1.02-.84 3.73-2.221 7.37-2.561 11.2-.37 4.16-.36 8.36-.871 12.51 1.811.38 3.652.8 5.513 1.24.02-2.89-.18-5.81-.06-8.62v.01Zm14.467 12.66c.08-2.47.02-4.94.03-7.31.02-3.54.31-6.97.851-10.47.36-2.38.74-4.72.89-7.1-1.841-.5-3.722-.99-5.633-1.45-1.511 4.89-3.042 9.71-3.152 14.9-.06 3.05.11 6.21 0 9.33 2.301.65 4.643 1.35 7.004 2.11l.01-.01Zm15.999-5.77c-.08-4.96-.52-9.93-.63-14.9-2.031-.71-4.123-1.41-6.264-2.08-.23 2.17-.59 4.32-.93 6.48-.541 3.43-.631 6.82-.641 10.27 0 2.83-.04 5.65-.28 8.44 2.662.95 5.353 1.98 8.095 3.07.66-3.72.72-7.58.66-11.29l-.01.01Zm13.068 17.3c.29-2.89.35-5.82.32-8.69-.07-6.11-.6-12.21-.71-18.31-1.841-.79-3.742-1.58-5.713-2.36.38 8.82 1.35 17.84-.591 26.32 2.212.97 4.443 1.99 6.694 3.05v-.01Zm12.856 6.551c1.181-9.09-.21-18.53-1.05-27.73-1.461-.77-3.002-1.55-4.613-2.34.33 9.03 1.201 18.17-.17 26.99 1.931.99 3.872 2.02 5.833 3.08Zm15.791-16.781c-1.821-1.69-4.843-3.93-8.905-6.44.52 5.12 1.051 10.25 1.091 15.4.03 3.97-.301 7.87-1.061 11.69.29.17.58.33.87.5-.92 4.92-1.23 6.26-1.23 6.26s6.543 1.22 8.655-8.29c1.871-3.51 5.293-12.28.58-19.12Z"/>
  <path fill="#FFD5CF" d="M188.206 108.93s8.575 4.15 11.757 6.15c.46 5.17-.861 10.69-2.442 11.62-1.52 1.08-7.264-.96-10.426-2.95-1.47-.92-1.991-2.75-1.24-4.27 1.21-2.47 3.182-6.12 2.351-10.55Z"/>
</svg>
