<svg xmlns="http://www.w3.org/2000/svg" width="250" height="414" fill="none" viewBox="0 0 250 414">
  <path fill="#C93A55" d="M50.53 138.15s47.43-82.08 150.349 21.2c0 0 20.92-80.48-61.99-91.74-86.59-11.76-88.36 70.54-88.36 70.54Z"/>
  <path fill="#C93A55" fill-rule="evenodd" d="M107.959 40.02c-6.65.71-33.95 5.3-23.44 32.18 40.75-7.59 52.31-8.08 52.31-8.08s4.08-28.57-22.98-23c0 0-.55-.49-2.03-.86-1.26-.31-2.57-.37-3.86-.24Z" clip-rule="evenodd"/>
  <path fill="#902941" fill-rule="evenodd" d="M137.039 60.65v.07c-.13 2.18-.18 2.99-.2 3.31v.18l-45.21 1.71s27.94-10.66 44.19-5.69c-5.44-16.96-20.71-17.74-22.21-17.22-3.27-2.36-6.99-2.84-6.99-2.84 5-.86 7.23.93 7.23.93 21.12-4.34 23.27 12.11 23.2 19.54l-.01.01Z" clip-rule="evenodd"/>
  <path fill="#C93A55" fill-rule="evenodd" d="M84.6 68.8s-5.84 2.34-2.21 10.35c-2.67 2.96-3.46 3.58-2.22 5.28 1.24 1.7 12.13-15.07 60.27-8.72 4.64 1.12 4.96-6.65-2.8-6.91-1.1-.04 2.04-3.8-3.78-7.23-5.82-3.43-43.9 2.62-49.27 7.23h.01Z" clip-rule="evenodd"/>
  <path fill="#E0799D" fill-rule="evenodd" d="M88.26 67.85c-.25.38-.31.82-.26 1.24.86 2.73 2.95 4.8 5.29 3.83-1.05.62-35.49 19.64-32.52 52.83-2.04 1.48-10.23 12.4-10.23 12.4s.84-40.47 31.24-60.59c-.03-.08-2.17-5.01 1.77-8.12C75.9 45 101.538 40.7 107.958 40.02c0 0-22.98 13.99-15.03 24.1 1.9-.18 3.63-.33 5.19-.47 0 0-8.93 2.79-9.86 4.2Z" clip-rule="evenodd"/>
  <path fill="#902941" d="M140.149 99.48c43.38 8.17 50.65 28.05 50.38 26.54-7.58-42.37-46.34-57.57-46.34-57.57 76.71 13.91 56.69 90.9 56.69 90.9-3.54-3.81-7.19-6.87-10-9.62.12-2.24.27-3.6.4-6.14.04-.72-10.36-17.83-30.1-25.71 19.79 3.43 30.19 21.2 30.17 20.44 0 0-11.31-27.81-51.21-38.85l.01.01Z"/>
  <path fill="#902941" fill-rule="evenodd" d="M88.889 75.87s10.02-12.76 48.56-10.1c.4 1.84.21 3.03.21 3.03s2.28-.2 3.61.87c-7.42 1.13-31.73-7.53-52.37 6.2h-.01Z" clip-rule="evenodd"/>
</svg>
