<svg xmlns="http://www.w3.org/2000/svg" width="250" height="414" fill="none" viewBox="0 0 250 414">
  <path fill="#26324F" d="M51.67 128.97s11.09-43.72 66.03-38.55c54.94 5.18 75.01 43.08 82.94 68.68 6.34-10.67 4.59-30.53 0-38.01-4.35-7.08-24.82-47.38-86.77-47.68-19.53-.1-37.56 5.82-50.46 19.67-10.35 11.12-15.5 25.68-11.74 35.89Z"/>
  <path fill="#43597B" d="M169.875 100.914c.992-1.956-1.02-4.968-4.493-6.728-3.473-1.76-7.092-1.603-8.083.353-.991 1.956 1.02 4.968 4.493 6.729 3.473 1.76 7.092 1.602 8.083-.354Zm-94.257-4.441c3.627-1.417 5.92-4.221 5.122-6.263s-4.385-2.55-8.011-1.133c-3.627 1.417-5.92 4.222-5.122 6.264.797 2.042 4.384 2.549 8.01 1.132Z"/>
  <path fill="#90D6DD" d="M163.67 98.93c-.58 0-1.16-.25-1.55-.74-.77-.94-7.45-9.42-5.07-16.31.73-2.11 2.19-3.79 4.36-5-.77-1.62-1.29-3.27-1.51-4.83-.58-4.24.98-7.77 4.29-9.68 1.67-.96 3.56-1.5 5.51-1.7.65-1.01 1.7-2.04 3.37-2.97 10.78-5.97 18.53-.08 18.86.17a2.003 2.003 0 0 1-2.46 3.16c-.27-.2-5.87-4.32-14.01-.08 4.13.79 7.8 2.72 9.41 4.89 1.51 2.04 1.33 4.35-.47 6.02-1.9 1.78-5.03 2.05-8.36.72-3.31-1.31-6.74-4.17-7.28-7.72-.93.2-1.81.52-2.58.96-2.38 1.37-2.58 3.84-2.33 5.67.17 1.25.62 2.59 1.29 3.9.26-.07.53-.14.8-.2 10.04-2.28 13.8 2.02 14.72 3.39 1.37 2.05 1.42 4.57.12 6.41-1.5 2.12-4.38 2.89-7.69 2.04-3.94-1-7.27-3.61-9.62-6.75-1.36.74-2.25 1.71-2.66 2.88-1.41 4.07 2.69 10.39 4.39 12.48.7.86.57 2.12-.29 2.81-.37.3-.82.45-1.26.45l.02.03Zm3.9-19.97c1.76 1.99 4.02 3.58 6.52 4.22 1.94.49 3.05.08 3.44-.48.34-.48.27-1.2-.18-1.87-1.05-1.57-4.23-2.95-9.77-1.87h-.01Zm5.25-14.31c.48 1.55 2.4 3.31 4.71 4.23 1.8.72 3.43.75 4.16.07.15-.14.21-.24.21-.27 0-.14-.34-.92-2-1.9-1.89-1.12-4.48-1.92-7.08-2.13Zm-99.1 29.12c-.35 0-.71-.09-1.03-.29-.95-.57-1.25-1.8-.68-2.75.08-.14 8.09-13.61 2.39-20.09-.82-.93-1.63-1.63-2.42-2.15.59 8.11-3.52 10.69-5.39 11.44-3.5 1.4-7.79.2-9.98-2.8-2.35-3.22 0-8.17 3.65-11.1 1.66-1.33 3.78-2.38 6.1-2.71a6.74 6.74 0 0 0-1.81-1.76c-3.51-2.33-9.12-1.52-10.99-1.01-1.07.29-2.17-.34-2.46-1.4-.29-1.07.34-2.17 1.4-2.46.35-.09 8.53-2.26 14.26 1.54 1.96 1.31 3.39 3.13 4.25 5.43 2.15.64 4.33 2 6.39 4.34 7.64 8.67-1.57 24.15-1.97 24.8-.38.62-1.04.96-1.71.96v.01Zm-5.91-26.59c-2.26.03-4.08 1.19-5.05 1.97-2.53 2.03-3.51 4.81-2.92 5.62 1.11 1.52 3.47 2.17 5.27 1.45 2.35-.94 3.36-4.09 2.76-8.64l-.06-.4Z"/>
  <path fill="#1FA9B4" d="M191.93 57.88c-.2-.16-3.24-2.47-8.08-2.8.91.59 1.77 1.26 2.39 2.11.55.75.67 1.64.64 2.56 1.56.54 2.48 1.21 2.59 1.29a2.001 2.001 0 0 0 2.46-3.16Z"/>
  <path fill="#8E8E8E" d="m201.99 44.36 10.61-.47c.61-.03.98.65.63 1.15l-7.52 10.61c-.13.18-.17.41-.1.63l3.59 12.19c.18.61-.46 1.15-1.03.86l-8.88-4.53a.715.715 0 0 0-.85.14l-8.52 8.74c-.46.47-1.26.14-1.25-.52l.31-15.8c0-.26-.13-.5-.35-.64l-10.81-6.49c-.57-.34-.42-1.2.22-1.34l11.15-2.43c.28-.06.5-.28.56-.56l2.15-10.01c.12-.57.83-.77 1.24-.35l8.32 8.61c.15.15.35.23.56.22l-.03-.01Z"/>
  <path fill="#E9E3EB" d="M205.6 56.28a.778.778 0 0 1 .1-.63l7.52-10.61a.73.73 0 0 0-.63-1.15l-10.61.47c-.21 0-.41-.07-.56-.22l-4.37 9.31 8.54 2.83h.01Z"/>
  <path fill="#FBF4FD" d="m189.73 45.9 2.15-10.01c.12-.57.83-.77 1.24-.35l8.32 8.61-4.37 9.31-7.9-7s.28-.03.56-.56Z"/>
  <path fill="#E9E3EB" d="m188.61 56.72-10.81-6.49c-.57-.34-.42-1.2.22-1.34l11.15-2.43 7.9 7-8.46 3.27v-.01Z"/>
  <path fill="#CDC6D1" d="M199.28 64.8a.715.715 0 0 0-.85.14l-8.52 8.74c-.46.47-1.26.14-1.25-.52l.31-15.8c0-.26-.13-.5-.35-.64l8.46-3.27 2.22 11.35h-.02Z"/>
  <path fill="#fff" d="M189.33 56.26c-.71-1.62-1.83-3.04-2.67-4.6-.24-.44-.05-1.18.57-1.17 2.7.08 5.39.27 8.06.65.08-1.8.1-3.6-.06-5.4-.06-.71.74-.96 1.25-.62 1.46 1.01 2.5 2.48 3.66 3.8.42.48.77 1.16 1.47.96.9-.26 1.81-.91 2.63-1.36 2.87-1.58 5.81-3.23 8.88-4.44a.71.71 0 0 0-.52-.19l-10.61.47c-.21 0-.41-.07-.56-.22l-8.32-8.61a.73.73 0 0 0-1.24.35l-2.15 10.01a.73.73 0 0 1-.56.56l-11.15 2.43c-.65.14-.79 1-.22 1.34l10.73 6.44c.26-.15.53-.29.8-.41l.01.01Z" opacity=".6"/>
  <path fill="#575757" d="m189.9 73.67 8.52-8.74c.22-.23.57-.29.85-.14l8.88 4.53a.73.73 0 0 0 1.03-.86l-3.59-12.19a.778.778 0 0 1 .1-.63l7.52-10.61c.23-.33.14-.73-.12-.96-2.39 2.17-5.27 3.76-7.88 5.65-1.76 1.28-3.61 2.39-5.4 3.63-.31.21-.75.43-.84.81-.13.53.05 1.28.05 1.82 0 .36-.27.82-.7.8-.62-.03-1.17-.17-1.69-.37a1.62 1.62 0 0 0-2.14 1.01c-.88 2.66-2.3 5.14-3.92 7.42-.34.48-1.1.23-1.27-.25-.19-.53-.33-1.08-.46-1.63l-.2 10.18c-.01.66.79 1 1.25.52l.01.01Z" opacity=".2"/>
  <path fill="#90D6DD" d="M70.67 87.6c1.18-1.28 2.4-2.49 3.64-3.65a57.323 57.323 0 0 0-10.9 9.13c-10.35 11.12-15.5 25.68-11.74 35.89 0 0 1.33-5.25 5.36-11.9 1.17-11.28 5.42-20.57 13.64-29.47Z"/>
  <path fill="#714EAB" d="M200.65 121.09c-1.58-2.58-5.31-9.57-12.4-17.42 1.89 3.61 3.4 7.42 4.4 11.46 2.12 8.54 1.25 16.8.44 25.16 3.32 6.56 5.76 13 7.56 18.82 6.34-10.67 4.59-30.53 0-38.01v-.01Z"/>
  <path fill="#1FA9B4" d="M175.1 61.14h-.01c-.01 0-.02.01-.03.02-.06.03-.12.05-.17.08-.13.07-.26.14-.39.23-.06.04-.12.08-.18.13h-.01l-.01.02c-.11.1-.22.19-.32.29-.05.05-.1.1-.15.16l-.04.04c-.08.09-.15.22-.21.32-.05.09-.2.27-.19.37.05-.12.06-.15.03-.08-.01.03-.03.06-.04.1-.02.07-.05.13-.07.2-.04.13-.07.27-.1.41v.01c0 .07-.01.14-.01.21v.47c0 .06.03.15.04.21.03.12.06.24.1.36.79.09 1.58.23 2.34.42 0-1.36.68-2.73 1.72-3.69-.59-.17-1.19-.32-1.8-.44-.16.05-.32.1-.49.15l-.01.01Zm-5.58-.43c-1.2.14-2.36.42-3.47.83-.43 1.45-.4 2.96.1 4.34.02 0 .03-.02.04-.03.77-.45 1.65-.76 2.58-.96.09.61.28 1.2.53 1.77-.29-.77-.5-1.57-.52-2.41 0-.31.01-.61.05-.91-.03-.93.14-1.84.69-2.63Zm-3.92 15.44c.32.56.67 1.1 1.04 1.62l.16.22s0 .01.01.02c.08.14.23.28.34.4.16.18.33.36.5.53.94-.18 1.82-.29 2.63-.34-.21-.28-.42-.56-.61-.86-.56-.89-1.02-1.91-1.25-2.97-.78.1-1.6.24-2.47.44-.26.06-.51.12-.76.19.13.25.26.5.4.75h.01Zm-6.14 2.78a10.593 10.593 0 0 0 .52 1.39l.15.33a10.024 10.024 0 0 0 1.03 1.71c0 .01.02.03.04.04.45-.75 1.14-1.39 2.05-1.94-.21-.26-.42-.54-.62-.81-.57-.8-1.09-1.73-1.33-2.7-.75.43-1.41.92-1.98 1.45.04.18.08.36.13.54l.01-.01Zm5.76 16.74c-.32-.39-.72-.94-1.16-1.59-.51 1.29-1.56 2.35-2.81 2.97.41.57.73.98.87 1.14.39.48.97.74 1.55.74.44 0 .89-.15 1.26-.45.86-.7.99-1.96.29-2.81ZM65.38 57.46c-5.57-2.7-12.56-.86-12.88-.77a1.997 1.997 0 0 0-1.4 2.46 2.005 2.005 0 0 0 2.46 1.4c.9-.25 2.67-.56 4.66-.56 1.44-2.16 4.28-2.54 7.17-2.53h-.01Zm2.15 8.16c-.06-.26-.13-.51-.21-.76-.04-.11-.05-.13-.01-.05-.03-.06-.06-.12-.09-.19-.05-.09-.09-.18-.14-.27-.2-.34-.42-.66-.65-.98-.05-.05-.09-.1-.14-.15h-.02s.06.06.09.1c-.69.1-1.35.27-2 .48.72.67 1.27 1.53 1.61 2.44.13.35.24.74.34 1.13.47-.11.97-.18 1.5-.19-.06-.52-.15-1.03-.27-1.57l-.01.01Zm6.72-.2c-.03-.1-.07-.19-.11-.29-1.03-.67-2.07-1.15-3.1-1.46.25.95.58 1.89.77 2.86.07.36.11.72.14 1.08.05.32.11.64.13.95.73.49 1.47 1.14 2.21 1.97.13-.7.23-1.41.25-2.13.03-1.01-.03-2.01-.3-2.98h.01Zm.73 26.44c-1.02.12-2.25-.04-3.19-.56-.2.82.14 1.72.9 2.18.32.2.68.29 1.03.29.68 0 1.34-.34 1.71-.96.06-.1.31-.52.67-1.18-.36.11-.74.19-1.12.24v-.01Z"/>
  <path fill="#8E8E8E" d="m40.57 47.87-2.54-10.31a.725.725 0 0 1 1-.84l11.88 5.29c.2.09.44.08.64-.02l11.25-5.91c.57-.3 1.21.23 1.04.84l-2.7 9.59c-.09.31.04.64.31.81l10.24 6.64c.55.36.38 1.21-.27 1.33l-15.55 2.8c-.26.05-.47.23-.56.47l-4.24 11.87c-.22.62-1.09.65-1.35.05l-4.57-10.46a.739.739 0 0 0-.66-.44l-10.24-.14c-.58 0-.92-.66-.59-1.14l6.81-9.85c.12-.17.16-.39.11-.59l-.01.01Z"/>
  <path fill="#E9E3EB" d="M51.54 41.99c-.2.1-.43.11-.64.02l-11.88-5.29a.725.725 0 0 0-1 .84l2.54 10.31c.05.2.01.42-.11.59l9.98 2.46 1.1-8.93h.01Z"/>
  <path fill="#FBF4FD" d="m44.48 59.6-10.24-.14c-.58 0-.92-.66-.59-1.14l6.81-9.85 9.98 2.46-5.31 9.12s-.09-.27-.66-.44l.01-.01Z"/>
  <path fill="#E9E3EB" d="m55.31 58.57-4.24 11.87c-.22.62-1.09.65-1.35.05l-4.57-10.46 5.31-9.12 4.86 7.65-.01.01Z"/>
  <path fill="#CDC6D1" d="M61.13 46.52c-.09.31.04.64.31.81l10.24 6.64c.55.36.38 1.21-.27 1.33l-15.55 2.8c-.26.05-.47.23-.56.47l-4.86-7.65 10.69-4.4Z"/>
  <path fill="#fff" d="M54.72 57.95c-1.45 1.02-2.62 2.39-3.98 3.52-.39.32-1.15.28-1.26-.33-.45-2.66-.8-5.34-.94-8.04-1.78.28-3.55.61-5.29 1.12-.69.2-1.09-.54-.85-1.1.7-1.63 1.94-2.94 3.01-4.33.39-.51.99-.99.65-1.63-.43-.83-1.25-1.59-1.85-2.31-2.12-2.51-4.31-5.06-6.1-7.83-.1.16-.14.35-.09.55l2.54 10.31c.05.2.01.42-.11.59l-6.81 9.85c-.33.48 0 1.14.59 1.14l10.24.14c.29 0 .54.17.66.44L49.7 70.5c.26.6 1.13.57 1.35-.05l4.21-11.78c-.19-.23-.38-.46-.56-.7l.02-.02Z" opacity=".6"/>
  <path fill="#575757" d="m71.68 53.97-10.24-6.64a.736.736 0 0 1-.31-.81l2.7-9.59a.726.726 0 0 0-1.04-.84L51.54 42c-.2.1-.43.11-.64.02l-11.88-5.29c-.37-.16-.75 0-.92.3 2.6 1.92 4.72 4.43 7.08 6.62 1.6 1.48 3.06 3.07 4.62 4.58.27.26.57.65.96.67.54.02 1.25-.3 1.78-.4.36-.07.86.1.92.52.09.61.06 1.18-.03 1.73-.16.93.47 1.78 1.41 1.9 2.78.34 5.49 1.24 8.05 2.39.53.24.44 1.03 0 1.3-.49.29-.99.54-1.51.77l10.02-1.8c.65-.12.82-.97.27-1.33l.01-.01Z" opacity=".2"/>
</svg>
