<svg xmlns="http://www.w3.org/2000/svg" width="250" height="414" fill="none" viewBox="0 0 250 414">
  <g clip-path="url(#a)">
    <path fill="#F68926" d="m175.194 49.838.095.32c.032.11.063.25.116.41.643 2.5 2.791 11.36 4.35 26.528-.379.03-.758.05-1.148.07-8.51.51-19.317.13-30.681-2.92-.506-.13-1.022-.28-1.538-.43a79.223 79.223 0 0 1-9.09-3.21c-.4-.17-.8-.34-1.2-.52a76.04 76.04 0 0 1-4.993-2.42c-.516-.27-1.032-.55-1.548-.84a40.59 40.59 0 0 1-1.264-.72c-.6-.35-1.201-.71-1.801-1.09-.516-.31-1.022-.64-1.527-.97C137.33 49.679 147.81 41.84 147.81 41.84c-6.32-2-7.404-8.01-7.404-8.01s22.623-8.798 40.444 12.21c.211.25.432.51.643.77 0 .03-.021 2.04-6.299 3.03Zm6.311 70.283a139.382 139.382 0 0 1-35.8-.29c-18.769-2.589-34.494-8.709-46.996-15.468 3.939-8.5 8.458-16.239 13.113-23.138 10.733 6.52 24.13 12.469 40.203 15.609a124.513 124.513 0 0 0 29.248 2.17c.243 6.409.337 13.458.232 21.117Z"/>
    <path fill="#F47236" d="M191.131 134.97c-2.285-.03-4.476-.09-6.456-.14-45.711-1.21-80.184-12.539-102.545-22.488a242.136 242.136 0 0 1-15.42-7.509c-2.706-1.44-6.592-3.51-10.563-5.87-8.468-5-17.326-11.258-16.02-15.278 1.316-4.05 12.923-5.5 22.34-6l.484-.03c6.467-.32 11.786-.21 11.786-.21-1.359.86-2.718 1.71-4.076 2.57-.253.16-.474.35-.643.56a2.57 2.57 0 0 0 .232 3.59 144.327 144.327 0 0 0 28.459 20.188c12.502 6.769 28.227 12.889 46.996 15.478a139.382 139.382 0 0 0 35.8.29l3.36 5.18 6.266 9.669Z"/>
    <path fill="#F4F1ED" d="M181.272 99.004a124.51 124.51 0 0 1-29.249-2.17c-16.073-3.14-29.47-9.09-40.203-15.609a185.007 185.007 0 0 1 13.145-17.178c.505.33 1.011.66 1.527.97.6.38 1.201.74 1.801 1.09.421.25.843.49 1.264.72.516.29 1.032.57 1.548.84 1.664.88 3.329 1.69 4.993 2.42.4.18.8.35 1.2.52a79.184 79.184 0 0 0 9.09 3.209c.516.15 1.032.3 1.538.43 11.364 3.05 22.171 3.43 30.681 2.92.39-.02.769-.04 1.148-.07.653 6.239 1.201 13.538 1.517 21.907Z"/>
    <path fill="#F47236" d="M144.019 35.01c.695-2.02 8.152-1.8 12.692-1.12 5.74.85 9.721 2.86 12.523 4.31.126.06.19.1.274.14 4.276 2.24 8.952 6.499 8.247 8.329-.148.38-.738 1.19-5.783 1.06-4.95-.13-15.093-1.2-24.804-8.88-3.023-2.39-3.328-3.3-3.149-3.84Z"/>
    <path fill="#E66327" d="M219 129.411c0 .22-.032.43-.085.639-.779 2.99-7.109 4.24-14.703 4.7-4.213.26-8.816.28-13.081.22l-6.267-9.669-3.36-5.18a142.15 142.15 0 0 0 15.283-2.659c1.474-.34 2.39-1.73 2.074-3.15 1.359.66 2.771 1.37 4.182 2.11C210.9 120.531 219 125.621 219 129.411Z"/>
    <path fill="#F9B024" d="M111.82 81.225c-4.655 6.9-9.173 14.639-13.112 23.128a144.324 144.324 0 0 1-28.46-20.188 2.57 2.57 0 0 1-.231-3.59l4.719-3.13 2.57-1.71 14.408-9.568a130.319 130.319 0 0 0 20.106 15.058Z"/>
    <path fill="#fff" d="M124.966 64.047a185.01 185.01 0 0 0-13.145 17.178 130.32 130.32 0 0 1-20.106-15.059l19.896-13.208c.442.46.906.93 1.369 1.39.463.46.948.93 1.443 1.39.484.46.99.92 1.506 1.38.358.33.727.65 1.106.97.274.25.558.48.843.71.326.27.663.55 1 .82l.601.48c.389.31.779.62 1.19.92.432.33.874.66 1.316.97.337.26.674.5 1.022.73.537.379 1.074.749 1.632 1.119.106.07.222.14.327.21Z"/>
    <path fill="#F9B024" d="M147.812 41.84s-10.48 7.838-22.845 22.207c-.106-.07-.222-.14-.327-.21-.558-.37-1.095-.74-1.632-1.12-.348-.23-.685-.47-1.022-.73-.443-.31-.885-.64-1.317-.97-.41-.3-.8-.61-1.19-.92l-.6-.48c-.337-.27-.674-.55-1.001-.82-.284-.23-.569-.46-.842-.71-.38-.32-.748-.64-1.106-.97a64.33 64.33 0 0 1-1.506-1.38c-.496-.46-.98-.93-1.443-1.39a89.04 89.04 0 0 1-1.37-1.389l20.128-13.369 8.668-5.76s1.085 6.01 7.405 8.01Z"/>
    <path fill="#F47236" d="M196.788 117.462a142.15 142.15 0 0 1-15.283 2.659c.105-7.659.011-14.708-.232-21.117 1.349-.06 2.665-.13 3.95-.23 3.381-.25 6.509-.61 9.374-1.04l3.739 14.518.527 2.06c.316 1.42-.601 2.81-2.075 3.15Z"/>
    <path fill="#E2DED7" d="M194.596 97.734c-2.865.43-5.993.79-9.374 1.04-1.285.1-2.601.17-3.949.23-.316-8.37-.864-15.67-1.517-21.909l.79-.06 1.074-.09c.169-.01.327-.03.485-.04l.6-.06c.664-.07 1.306-.13 1.927-.21 1.601-.18 3.065-.39 4.382-.6l5.582 21.699Z"/>
    <path fill="#F47236" d="M189.014 76.036a95.49 95.49 0 0 1-4.382.6c-.621.08-1.263.14-1.927.21l-.6.06c-.158 0-.316.03-.485.04l-1.074.09-.79.06c-1.559-15.169-3.708-24.028-4.35-26.528-.053-.16-.084-.3-.116-.41l-.095-.32c6.278-.99 6.299-3 6.299-3.03l7.52 29.228Z"/>
  </g>
  <defs>
    <clipPath id="a">
      <path fill="#fff" d="M40 32h179v103H40z"/>
    </clipPath>
  </defs>
</svg>
