<svg xmlns="http://www.w3.org/2000/svg" width="250" height="414" fill="none" viewBox="0 0 250 414">
  <path fill="#FDF5FF" d="M39.163 122.779s-4.485-6.95 4.162-13.92c8.646-6.97 23.385-21.86 23.385-21.86l17.384-1.12 41.891-2.69 77.802 34.04s14.335 35.77 13.143 39.56c-1.192 3.79-6.263 7.24-18.244 8.73.162-.4.323-.79.485-1.18 1.97-4.87 3.303-9.26 3.768-10.83.121-.4.172-.62.172-.62s-27.022-13.84-33.255-16.54c-10.192-4.42-13.273-12.75-28.183-15.74-9.728-1.95-21.395-3.39-41.123-.82-10.324 1.21-32.113-7.04-35.78-7.72-3.667-.68-9.728.42-9.728.42s-4.08 16.03-4.424 21.61c-.03.46-.03.84 0 1.14-5.495-2.96-11.465-12.45-11.465-12.45l.01-.01Z"/>
  <path fill="#EBE4ED" d="m80.892 87.06-18.84 19.9s33.79 14.22 45.437 9.26c1.697-19.93.768-29.15.768-29.15H80.902l-.01-.01Zm122.907 30.17-2.869 1.24c.848 5.4 1.212 7.89 2.303 13.24 1.808 8.86 3.374 17.64 2.364 26.68-.223 2.01-.576 4.1-1.112 6.14 7.88-1.76 11.476-4.64 12.446-7.75 1.191-3.79-13.143-39.56-13.143-39.56l.011.01Zm-38.176-27.31c0 2.35.293 8.32.808 15.269.94 12.52 2.607 28.23 4.637 31.7-.455-.21-.859-.39-1.192-.54-7.798-3.38-11.435-9.04-19.375-12.86 0 0 1-10.39 1.404-23.62.667-21.77-.262-51.19-9.899-54.47 16.789 2.66 35.517 8.69 53.841 20.82-25.042 2.59-30.234 18.54-30.224 23.69v.01Z"/>
  <path fill="#D0C7D3" d="M215.95 157.07c-.606-1.13-1.333-2.18-2.01-3.26-.293-.3-.566-.66-.848-.97a26.74 26.74 0 0 0-2.091-2.03c-.081-.07-.667-.55-.677-.57-.243-.17-.485-.34-.728-.5a27.39 27.39 0 0 0-2.212-1.33c-.747-.41-1.505-.79-2.283-1.15-.505-.23-1.02-.46-1.535-.68a2.626 2.626 0 0 1-.202-.08c-7.304-2.91-14.314-6.07-20.981-10.23-6.728-4.19-13.102-8.9-19.769-13.2-6.717-4.33-13.172-7.53-21.001-9.27-3.899-.87-6.869-1.24-10.889-1.47-4.142-.24-8.284-.2-12.425 0-8.728.42-17.405 2.3-26.173 1.52-4.475-.39-8.405-1.61-12.445-3.52-1.627-.77-3.223-1.62-4.829-2.44-1.515-.77-2.849-1.42-3.94-1.82-3.778-1.38-6.182-2.03-9.879-1.9-.515.02-1.03.06-1.535.1-.06 0-.121 0-.162.01-.02 0-.04 0-.06.01-.799.13-1.597.3-2.374.49-1.334.33-3.415 1.03-4.182 1.34-4.364 1.75-9.021 4.74-13.536 7.57-2.627 5.02-.01 9.08-.01 9.08s5.97 9.48 11.465 12.45c-.03-.3-.02-.69 0-1.14.343-5.58 4.424-21.61 4.424-21.61s6.061-1.1 9.728-.42c3.667.68 25.456 8.93 35.78 7.72 19.728-2.57 31.395-1.13 41.123.82 14.91 2.99 17.981 11.32 28.183 15.74 6.223 2.7 33.254 16.54 33.254 16.54l-.171.62c-.455 1.58-1.788 5.96-3.768 10.83-.162.39-.323.78-.485 1.18 10.697-1.33 15.89-4.23 17.728-7.53-.151-.31-.303-.62-.465-.92l-.02.02Z"/>
  <path fill="#E5D8E6" d="M205.363 121.19s-16.062-11.04-38.931-16a106.08 106.08 0 0 0-7.769-1.4c-3.353-1.37-5.121-2.67-6.757-3.92-2.879-2.21-5.324-4.31-15.355-6.54-6.131-1.36-16.708-2.81-28.052-3.82h-.171c-9.85-.88-20.264-1.43-28.86-1.31-6.85.09-12.547.61-15.88 1.72l.858-1.83 2.314-4.93 2.141-4.57 2.455-5.24 2.172-4.64 2.384-5.07 2.202-4.69 2.01-4.29.475-1.02a12.962 12.962 0 0 1 2.879-3.88 13.4 13.4 0 0 1 6.414-3.3c2.415-.49 5.435-1.03 8.97-1.51 3.748-.5 8.072-.93 12.87-1.16 8.768-.41 19.092-.14 30.274 1.63 16.789 2.66 35.517 8.69 53.841 20.82.99.65 1.98 1.32 2.96 2.01a8.398 8.398 0 0 1 3.586 6.62v1.72c0 .99.02 1.96.03 2.92v.41c.031 1.9.061 3.72.111 5.48.041 1.86.091 3.64.162 5.34.051 1.45.111 2.86.172 4.2.091 1.93.192 3.75.293 5.45.081 1.42.171 2.77.272 4.03.152 2.06.304 3.9.465 5.56.101 1.06.202 2.05.303 2.96.263 2.41.515 4.27.707 5.6.263 1.79.435 2.65.435 2.65h.02Z"/>
  <path fill="#7B777C" d="M199.182 164.34c.858-2.2 3.303-9.26 3.768-10.83.121-.4.171-.62.171-.62s6.92 3.1 7.193 5.73c.404 3.96-3.768 4.3-11.132 5.73v-.01ZM50.637 134.08c.344-5.58 4.425-21.61 4.425-21.61s-9.516 1.14-13.81 5.86c-4.282 4.72 9.385 15.75 9.385 15.75Z"/>
  <path fill="#FDF5FF" d="M202.455 79.91c-1.809-1.46-4.445-3.45-7.91-5.7-7.536-4.89-18.961-11.02-34.234-15.62-2.576-.78-5.263-1.52-8.071-2.19-11.496-2.78-24.84-4.61-40.002-4.54-5.384.02-11.001.28-16.84.81-4.929.45-10.02 1.1-15.273 1.97l.475-1.02a12.962 12.962 0 0 1 2.879-3.88 158.8 158.8 0 0 1 14.314-2.05c4.707-.46 9.99-.76 15.738-.78 11.445-.03 24.678 1.11 38.679 4.59 2.222.55 4.464 1.16 6.727 1.84a143.39 143.39 0 0 1 35.446 16.08c2.687 1.69 5.364 3.5 8.031 5.44v1.1c.01.09.01.19.02.28v1.06c0 .59 0 1.18.021 1.75v.86Z"/>
  <path fill="#FDF5FF" d="M202.717 90.73c-1.213-1.04-3.556-2.95-7.041-5.32-6.788-4.62-17.85-10.98-33.143-16.06-3.263-1.08-6.708-2.1-10.354-3.04-11.799-3.03-25.608-5.13-41.407-5.31a201.47 201.47 0 0 0-19.445.74c-4.98.42-10.112 1.04-15.415 1.87l2.202-4.69c4-.76 9.243-1.57 15.435-2.14a178.84 178.84 0 0 1 17.789-.73c12.162.11 26.153 1.5 40.881 5.39 3.091.81 6.202 1.74 9.344 2.79a148.207 148.207 0 0 1 33.628 16.1c2.465 1.58 4.919 3.27 7.364 5.05.04 1.86.091 3.64.162 5.34v.01Z"/>
  <path fill="#FDF5FF" d="M203.182 100.379c-1.081-.9-3.172-2.58-6.263-4.68-6.515-4.43-17.486-10.79-32.84-16.01a168.938 168.938 0 0 0-12.011-3.57c-12.02-3.08-26.102-5.26-42.214-5.55-7.212-.13-14.829.12-22.85.83-5.05.45-10.263 1.09-15.637 1.94l2.172-4.64c3.96-.76 9.293-1.61 15.678-2.23 6.111-.6 13.192-.97 20.98-.85 12.516.19 26.871 1.68 41.932 5.65 3.717.98 7.475 2.11 11.263 3.41a154.978 154.978 0 0 1 32.84 15.78 148.3 148.3 0 0 1 6.657 4.47c.02.48.051.96.071 1.43.071 1.41.141 2.74.222 4.03v-.01Z"/>
  <path fill="#FDF5FF" d="M203.908 109.969c-.98-.8-2.768-2.19-5.364-3.95-6.343-4.31-17.496-10.81-33.365-16.22-4.061-1.39-8.435-2.7-13.122-3.89-12.213-3.1-26.516-5.33-42.891-5.72-8.314-.21-17.152.07-26.537.95-5.131.48-10.414 1.14-15.87 2l2.142-4.57c3.87-.76 9.294-1.67 15.93-2.35 7.01-.72 15.375-1.2 24.678-.99 12.759.28 27.285 1.84 42.498 5.81 4.172 1.08 8.404 2.35 12.657 3.83a161.456 161.456 0 0 1 32.971 15.73c1.94 1.21 3.869 2.48 5.798 3.81.011.18.021.35.041.51.141 1.85.283 3.53.424 5.05h.01Z"/>
  <path fill="#FDF5FF" d="M204.93 118.539a92.785 92.785 0 0 0-4.637-3.23c-6.535-4.27-17.991-10.7-34.264-16.09a180.834 180.834 0 0 0-14.001-4.01c-12.425-3.03-26.941-5.24-43.517-5.7h-.111c-.526-.05-1.061-.09-1.586-.14-.637-.05-1.283-.11-1.92-.16-.535-.05-1.081-.09-1.626-.13-1.202-.09-2.414-.18-3.616-.25a312.654 312.654 0 0 0-7.495-.41c-.304-.01-.607-.03-.91-.04-.404-.02-.808-.03-1.212-.05-.404-.02-.808-.03-1.202-.04l-1.02-.03c-1.404-.04-2.778-.07-4.122-.08h-.818c-1.152 0-2.283 0-3.384.01-6.849.09-12.546.61-15.88 1.72l.859-1.83c3.778-.75 9.293-1.68 16.152-2.41 7.86-.83 17.466-1.41 28.254-1.12 13.041.34 27.79 1.93 43.225 5.81a184.72 184.72 0 0 1 13.647 4c11.102 3.74 22.395 8.77 33.507 15.45 1.666 1 3.323 2.04 4.98 3.12.03.29.06.57.091.83.02.16.03.31.05.46.051.43.091.84.142 1.22.04.33.08.65.121.95a58.462 58.462 0 0 0 .303 2.13l-.01.02Z"/>
  <path fill="#FFC76E" d="M116.327 69.1c-.232 5.3-3.101 10.03-7.303 12.91-2.828 1.94-6.263 3.04-9.9 2.9-6.848-.27-11.95-4.87-13.313-10.9-.394-1.73-.465-3.59-.192-5.49.727-4.99 3.808-9.27 7.94-11.8 2.535-1.55 5.465-2.45 8.495-2.45 4.101 0 7.778 1.63 10.364 4.32 2.566 2.66 4.071 6.34 3.899 10.51h.01Z"/>
  <path fill="#D4C4D6" d="M114.359 43.72c-1.666.02-2.636.05-2.636.05-2.95.14-5.728.35-8.293.62a7.886 7.886 0 0 0-6.395 4.6L79.47 88.2c8.647-.12 19.142.44 29.032 1.32l1.767-25.09c.061-.87.223-1.71.475-2.52.081-6.24 2.091-12.17 3.616-18.19Zm51.002 47.96c-.485-5.1-1.02-10.21-1.727-15.29-1.303-9.35-3.202-18.62-6.071-27.61-1.819-.5-3.627-.97-5.415-1.39.243 11.74-.06 23.49-.141 35.23.141 5.88.081 11.81-.091 17.25 1.636 1.25 3.404 2.55 6.758 3.92 2.667.38 5.253.85 7.768 1.4-.293-3.97-.515-7.62-.657-10.46a38.547 38.547 0 0 1-.414-3.05h-.01Zm37.053-16.6a8.396 8.396 0 0 0-3.596-6.84c-.98-.69-1.97-1.36-2.96-2.01-.656-.44-1.313-.86-1.969-1.28.353 1.84.485 3.76.545 5.67.041 1.19.071 2.38.111 3.57.435 1.12.647 2.33.596 3.57v.18l-.03 1.24c.677 7.16 1.404 17.7 5.849 39.299 2.768 1.59 4.333 2.65 4.424 2.71-.04-.21-2.808-14.08-2.949-46.11h-.021Z"/>
  <path fill="#E5D8E6" d="m109.509 75.24-.353 4.96c-8.314-.21-17.153.07-26.537.95l2.202-4.92c7.01-.72 15.375-1.2 24.678-.99h.01Zm.688-9.63-.353 4.96c-7.213-.13-14.83.12-22.85.83l2.212-4.94c6.112-.6 13.193-.97 20.981-.85h.01Zm1.13-9.55a38.305 38.305 0 0 0-.555 4.95c-6.183-.07-12.658.16-19.446.74l2.223-4.96c5.293-.48 11.273-.79 17.788-.73h-.01Zm2.194-9.16c-.445 1.65-.889 3.3-1.293 4.95-5.384.02-11.001.28-16.84.81l1.647-3.68c.212-.46.455-.9.748-1.3 4.707-.46 9.99-.76 15.738-.78Z"/>
  <path fill="#E8A13A" d="m110.278 64.42-1.242 17.59c-2.829 1.94-6.263 3.04-9.9 2.9-6.849-.27-11.95-4.87-13.314-10.9l7.748-17.29c2.536-1.55 5.465-2.45 8.496-2.45 3.454 0 6.596 1.15 9.051 3.12l-.849 7.03h.01Z"/>
  <path fill="#00588A" d="M97.924 66.3c-.222 2.09-1.334 3.79-2.465 3.77-1.131-.02-1.848-1.75-1.596-3.83.243-2.05 1.334-3.68 2.445-3.67 1.11.01 1.838 1.67 1.616 3.74v-.01Zm8.999.14c-.162 2.12-1.242 3.84-2.404 3.81-1.162-.03-1.95-1.77-1.758-3.88.192-2.11 1.253-3.73 2.384-3.72 1.132.01 1.93 1.69 1.778 3.78v.01Z"/>
  <path fill="#00588A" fill-rule="evenodd" d="M90.233 71.354a1.016 1.016 0 0 1 1.393.311l-.854.534.853-.534v-.002l.008.012c.008.012.02.032.04.059.038.054.098.138.18.245.164.213.415.517.75.862.674.694 1.67 1.535 2.975 2.156 2.533 1.204 6.431 1.676 11.752-1.96a1.016 1.016 0 0 1 1.405.254.994.994 0 0 1-.257 1.391c-5.872 4.013-10.54 3.656-13.774 2.117a12.482 12.482 0 0 1-3.557-2.571 12.015 12.015 0 0 1-.902-1.038 8.52 8.52 0 0 1-.299-.414l-.019-.028-.005-.009-.002-.003-.001-.002.853-.535-.854.534a.994.994 0 0 1 .315-1.38Z" clip-rule="evenodd"/>
  <path fill="#D4C4D6" d="M204.585 125.349c-.232 0-.475-.08-.666-.24a32.17 32.17 0 0 0-3.496-2.6.985.985 0 0 1-.293-1.38c.304-.46.93-.59 1.395-.29 1.333.85 2.586 1.78 3.727 2.76.424.36.465.99.101 1.41-.202.23-.485.35-.768.35v-.01Zm-7.758-4.989a.993.993 0 0 1-.444-.1 49.826 49.826 0 0 0-3.596-1.56.997.997 0 0 1-.576-1.29c.202-.51.788-.77 1.303-.57 1.303.5 2.566 1.05 3.758 1.62.505.24.707.84.464 1.34-.171.35-.535.56-.909.56Zm-7.636-2.97c-.101 0-.202-.02-.303-.05a97.292 97.292 0 0 0-3.737-1.08 1 1 0 0 1-.717-1.22c.141-.53.697-.85 1.232-.71 1.364.36 2.616.72 3.828 1.1a.99.99 0 0 1 .657 1.25c-.131.43-.535.7-.96.7v.01Zm-8.305-2.201c-.08 0-.151 0-.232-.03-1.061-.25-2.121-.49-3.182-.73l-.828-.19a1 1 0 0 1-.758-1.2c.121-.54.667-.87 1.212-.75l.829.19c1.06.24 2.131.49 3.192.74.545.13.879.67.747 1.2a1.01 1.01 0 0 1-.98.77Zm-8.493-1.979c-.081 0-.162 0-.243-.03-1.555-.38-2.929-.74-4.202-1.09a.997.997 0 0 1-.697-1.23c.152-.53.717-.84 1.243-.69 1.242.35 2.596.7 4.131 1.07a1 1 0 0 1-.242 1.97h.01Zm-8.516-2.42c-.111 0-.212-.02-.323-.05a84.266 84.266 0 0 1-3.829-1.38.992.992 0 0 1-.565-1.3c.202-.51.788-.77 1.313-.56 1.182.46 2.434.91 3.727 1.34.526.18.809.74.637 1.27-.142.42-.536.68-.96.68Zm-7.749-3.111a.993.993 0 0 1-.444-.1c-.96-.47-1.899-.98-2.788-1.5a.99.99 0 0 1-.354-1.37c.283-.48.899-.63 1.384-.35.849.5 1.748.98 2.657 1.43.505.25.707.85.454 1.34-.171.35-.535.55-.909.55Zm-6.485-4.179c-.202 0-.414-.06-.596-.19-1.273-.91-2.273-1.56-3.243-2.09a.998.998 0 0 1-.394-1.36c.273-.48.879-.66 1.374-.39 1.051.57 2.111 1.26 3.455 2.22a.99.99 0 0 1 .222 1.4c-.202.27-.505.41-.818.41Zm-7.353-3.171c-.061 0-.122 0-.182-.02l-.93-.16c-1.091-.19-2.222-.39-3.343-.67a.995.995 0 0 1-.728-1.22c.142-.53.687-.86 1.233-.72 1.04.26 2.131.45 3.182.64l.949.17c.546.1.909.62.808 1.16-.09.48-.515.82-.989.82Zm-8.617-1.839c-.07 0-.151 0-.222-.02-1.192-.26-2.384-.52-3.586-.75a1.002 1.002 0 0 1-.788-1.18c.111-.54.647-.89 1.192-.78 1.212.24 2.424.5 3.626.76a1 1 0 0 1 .768 1.19 1 1 0 0 1-.98.78h-.01Zm-8.446-1.62c-.051 0-.101 0-.162-.01-.899-.14-1.808-.27-2.717-.38-.556-.07-.95-.57-.879-1.12.071-.55.586-.93 1.132-.87.929.12 1.848.25 2.777.39.556.08.93.6.839 1.14-.081.49-.505.85-1 .85h.01Zm-6.939-.59c-1.253 0-2.414-.25-3.536-.49-.343-.07-.676-.15-1.02-.21a.995.995 0 0 1-.798-1.17.998.998 0 0 1 1.182-.79c.353.07.717.14 1.061.22 1.091.23 2.141.46 3.182.44h.01c.555 0 1 .44 1.01.99 0 .55-.445 1-1 1.01h-.101.01Zm-8.586-1.33s-.101 0-.152-.01c-1.384-.21-2.535-.31-3.616-.31a1 1 0 1 1 .01-2c1.182 0 2.414.12 3.899.34a1 1 0 0 1-.151 1.99l.01-.01Zm-11.314-.82c-.525 0-.97-.4-1.01-.92a1 1 0 0 1 .93-1.07 20.56 20.56 0 0 1 2.939 0c.555.03.979.5.949 1.06-.03.55-.505.96-1.071.94-.99-.06-1.858-.05-2.666 0h-.081l.01-.01Zm-4.212-.25h-.05c-1.688-.08-3.223-.13-4.698-.15a1.001 1.001 0 1 1 .02-2c1.495.02 3.06.07 4.768.15.556.03.99.5.96 1.05-.03.54-.475.95-1.01.95h.01Zm-12.658-.21c-.545 0-.99-.43-1.01-.97-.01-.55.424-1.01.98-1.03 1.242-.03 2.485-.04 3.737-.04.556 0 1.01.45 1 1.01a1 1 0 0 1-1.01.99c-1.222 0-2.444 0-3.667.04h-.03Zm-8.898.45c-.536 0-.98-.41-1.011-.94-.03-.55.394-1.02.95-1.06l1.717-.1 2.576-.15c.535-.04 1.03.39 1.06.94a1 1 0 0 1-.95 1.05l-2.565.15-1.727.1h-.061l.01.01Zm-9.03.46c-.526 0-.97-.4-1.011-.92-.04-.55.374-1.03.93-1.08 1.706-.13 3.414-.22 4.858-.29.556-.01 1.03.4 1.06.95.031.55-.403 1.02-.959 1.05-1.434.07-3.121.16-4.798.29h-.08Z"/>
  <path fill="#E5D8E6" d="M152.23 56.39c0-1.64 0-3.27-.031-4.9 2.223.55 4.465 1.16 6.728 1.84.495 1.74.949 3.5 1.374 5.25-2.576-.78-5.263-1.52-8.071-2.19Zm10.304 12.97c-3.263-1.08-6.708-2.1-10.354-3.04.02-1.62.03-3.24.04-4.86 3.091.81 6.202 1.74 9.344 2.79.354 1.7.667 3.41.97 5.12v-.01Zm1.533 10.33a168.907 168.907 0 0 0-12.01-3.57l.06-4.85c3.718.98 7.475 2.11 11.263 3.41.091.57.172 1.14.253 1.71.152 1.1.303 2.2.434 3.3Zm-12.01 6.23c-.01-1.1-.031-2.2-.061-3.3 0-.53 0-1.05.01-1.57 4.172 1.08 8.405 2.35 12.657 3.83.182 1.64.344 3.29.505 4.94-4.06-1.39-8.434-2.7-13.121-3.89l.01-.01Zm13.971 13.3c-4.323-1.43-8.99-2.79-14.001-4.01.031-1.59.051-3.21.051-4.84a184.72 184.72 0 0 1 13.647 4l.061.36c.07 1.34.151 2.85.242 4.49Zm36.426-19.31c-1.808-1.46-4.445-3.45-7.91-5.7v-.03c-.04-1.19-.08-2.38-.111-3.57-.01-.4-.03-.8-.05-1.2 2.687 1.69 5.364 3.5 8.031 5.44v2.44c0 .59 0 1.18.02 1.75v.86l.02.01Zm.263 10.82c-1.212-1.04-3.556-2.95-7.041-5.32-.192-1.89-.333-3.56-.475-5.08a150.33 150.33 0 0 1 7.364 5.05c.041 1.86.091 3.64.162 5.34l-.01.01Zm.465 9.65c-1.081-.9-3.172-2.58-6.263-4.68a223.28 223.28 0 0 1-.687-5.24 148.3 148.3 0 0 1 6.657 4.47c.021.48.051.96.071 1.43.071 1.41.141 2.74.222 4.03v-.01Zm.726 9.59c-.98-.8-2.768-2.19-5.364-3.95a475.94 475.94 0 0 1-.909-5.42c1.939 1.21 3.869 2.48 5.798 3.81.01.18.02.35.04.51.142 1.85.283 3.53.425 5.05h.01Zm1.01 8.56a92.313 92.313 0 0 0-4.637-3.23 420.15 420.15 0 0 1-1.06-5.49c1.666 1 3.323 2.04 4.98 3.12.03.29.06.57.091.83.02.16.03.31.05.46.051.43.091.84.142 1.22.04.33.08.65.121.95.06.48.121.93.182 1.34.04.28.07.55.111.79l.02.01Zm-96.064-33.98-.354 4.95h-.111c-.525-.05-1.061-.09-1.586-.14-.636-.05-1.283-.11-1.919-.16-.536-.05-1.081-.09-1.626-.13-1.203-.09-2.415-.18-3.617-.25-.515-.04-1.03-.07-1.545-.1-2-.12-3.99-.23-5.95-.31-.303-.01-.606-.03-.91-.04-.403-.02-.807-.03-1.212-.05-.403-.02-.808-.03-1.202-.04l-1.02-.03c-1.404-.04-2.778-.07-4.121-.08h-.819c-1.151 0-2.282 0-3.383.01l1.13-2.52c7.86-.83 17.466-1.41 28.255-1.12l-.01.01Z"/>
</svg>
