<svg xmlns="http://www.w3.org/2000/svg" width="250" height="415" fill="none" viewBox="0 0 250 415">
  <path fill="#444545" d="M129.873 59.5c-44.337 0-81.9 27.626-83.054 67.461a.328.328 0 0 0 .288.334c51.86 6.051 160.47 29.211 161.922 23.941a67.311 67.311 0 0 0 2.429-17.935c0-40.76-36.527-73.8-81.585-73.8Z"/>
  <path fill="#1E1E1E" d="M189.93 83.358a59.848 59.848 0 0 1-2.85 6.304c-3.143 9.67-8.51 18.042-16.108 25.105-7.058 7.609-15.416 12.982-25.073 16.13-9.285 4.882-19.288 7.125-30.018 6.72-1.002 0-1.996-.029-2.99-.066 47.306 8.216 95.177 17.175 96.139 13.689a67.306 67.306 0 0 0 2.429-17.935c0-19.265-8.163-36.803-21.529-49.947Z"/>
  <path fill="#D7A447" d="M157.293 96.122s-16.373 7.6-6.522 24.725c7.066 12.285 25.39 1.632 23.063-5.832 0 0 12.813 13.994 27.024 6.766 14.21-7.229 12.346-22.859 12.346-22.859s7.066-2.953 7.066-9.483c0-6.53-7.392-11.975-8.044-11.975 0 0 8.432-5.84 7.269-10.615-1.164-4.775-6.291-8.976-10.717-4.077-4.427 4.899-15.218 21.07-51.481 33.354l-.004-.004Z"/>
  <path fill="#A07839" d="M171.004 112.661c1.956 6.262-10.622 14.758-18.897 10.091 7.694 8.922 23.41-.508 21.756-7.497-1.815-1.458-2.859-2.594-2.859-2.594Zm48.614-45.676c-.239-1.71-1.085-3.172-2.145-4.255a7.8 7.8 0 0 1 .528 2.487c.119 2.701-8.667 10.066-8.667 10.066.252 0 1.502.81 2.945 2.173 1.168-.843 7.962-6.051 7.339-10.471Zm.594 22.392c0-5.684-5.594-10.541-7.479-11.706 2.215 2.205 4.699 5.625 4.699 9.413 0 6.53-7.067 9.484-7.067 9.484s1.865 15.63-12.346 22.858c-9.434 4.8-18.253.244-23.113-3.358 3.428 3.16 14.182 11.611 25.889 5.655 14.211-7.233 12.347-22.858 12.347-22.858s7.066-2.954 7.066-9.484l.004-.004Z"/>
  <path fill="#7F7F7F" d="M137.512 60.446c2.422-.218 4.831.104 7.207.29a90.4 90.4 0 0 0-14.846-1.223c-44.337 0-81.9 27.625-83.054 67.46a.329.329 0 0 0 .288.335c2.323.272 9.991 1.284 12.528 1.623-.008-.174 6.51-62.086 77.877-68.485Z"/>
  <path fill="#1E1E1E" fill-rule="evenodd" d="M141.853 107.378s-2.187 12.713 3.683 18.075c5.87 5.361 14.257 5.13 14.257 5.13s-12.396 6.014-19.219-4.13c-6.823-10.145 1.283-19.079 1.283-19.079l-.004.004Z" clip-rule="evenodd"/>
  <path fill="#444545" d="M50.96 142.384s-19.717-6.766-19-12.363c.718-5.597 28.97-.917 28.97-.917l-8.097-1.103c-.853 5.37-1.914 12.47-1.872 14.383Z"/>
  <path fill="#A07839" fill-rule="evenodd" d="M176.928 100.203s10.016 9.562 14.091 6.766c4.076-2.797 3.61-13.8 3.61-13.8s7.689.623 9.434-1.244c1.745-1.867 1.514-5.597 1.514-5.597s2.912 5.13 1.163 7.58c-1.749 2.45-7.805 2.334-7.805 2.334s.116 12.829-6.055 14.576c-6.172 1.748-15.956-10.611-15.956-10.611l.004-.004Z" clip-rule="evenodd"/>
  <path fill="#D7A447" fill-rule="evenodd" d="M125.658 59.455s9.335-5.741 12.837-9.273c7.343-7.406 13.828-9.666 15.201-9.5 2.261.268 5.359 1.31 5.359 5.014 0 5.833-2.096 6.956-2.096 6.956s6.406-.165 8.118 2.887c1.712 3.053 1.234 6.646-1.827 10.405l-3.828-1.313s-16.595-6.031-30.051-5.168" clip-rule="evenodd"/>
  <path fill="#F4C46F" d="M155.498 122.946c-9.85-17.126 6.522-24.726 6.522-24.726 36.263-12.284 47.055-28.455 51.481-33.354 1.242-1.376 2.541-2.032 3.791-2.164-2.191-2.392-5.515-3.264-8.518.062-4.427 4.898-15.218 21.07-51.481 33.354 0 0-16.373 7.6-6.522 24.725 1.906 3.313 4.628 4.953 7.541 5.444-1.052-.842-2.005-1.941-2.814-3.346v.005Z"/>
  <path fill="#F4C46F" fill-rule="evenodd" d="M133.76 59.401c3.032-1.995 7.33-4.965 9.467-7.117 6.917-6.976 13.072-9.384 14.912-9.504-1.089-1.396-2.945-1.92-4.439-2.098-1.373-.161-7.858 2.098-15.201 9.5-3.502 3.532-12.837 9.273-12.837 9.273h3.713a46.884 46.884 0 0 1 4.389-.058l-.004.004Z" clip-rule="evenodd"/>
  <path fill="#D7A447" d="m97.582 122.264-4.851-3.325a1.304 1.304 0 0 0-1.21-.136l-5.494 2.114c-1.01.385-2.021-.553-1.712-1.577l1.655-5.655a1.302 1.302 0 0 0-.244-1.194l-3.716-4.564a1.311 1.311 0 0 1 .965-2.131l5.874-.17c.429 0 .825-.231 1.056-.599l3.197-4.948c.581-.905 1.96-.752 2.31.277l1.972 5.547c.136.396.474.706.886.826l5.693 1.516c1.04.277 1.316 1.623.458 2.284l-4.665 3.602a1.32 1.32 0 0 0-.504 1.103l.322 5.882c.062 1.074-1.147 1.747-2.034 1.148h.046-.004Z"/>
  <path fill="#EEBE77" d="M99.888 107.766c.136.396.474.706.887.826l4.137 1.103a1.3 1.3 0 0 0-.949-1.454l-4.315-1.148.24.673Zm-11.415 7.786a1.302 1.302 0 0 0-.243-1.194l-3.717-4.564a1.311 1.311 0 0 1 .965-2.131l5.875-.17c.429 0 .825-.231 1.056-.599l3.197-4.948c.074-.12.165-.219.268-.302l-.458-1.288c-.35-1.029-1.729-1.182-2.31-.277l-3.197 4.948a1.254 1.254 0 0 1-1.056.599l-5.874.17c-1.073.045-1.638 1.288-.966 2.131l3.717 4.564c.276.339.367.781.243 1.194l-1.654 5.655c-.305 1.028.706 1.962 1.712 1.577l.986-.38 1.456-4.985Z"/>
</svg>
